<svg width="174" height="140" viewBox="0 0 174 140" fill="none" xmlns="http://www.w3.org/2000/svg">
<path d="M93.8101 79.3773C94.0201 78.8673 94.1801 78.3473 94.2801 77.8373C94.41 77.1573 94.1901 76.3773 94.1901 75.6873C94.2001 74.6273 94.2001 73.5573 94.1901 72.4973C94.1701 70.3673 94.08 68.2373 93.84 66.1273C93.76 65.3973 93.6601 64.6773 93.5401 63.9573C92.6701 58.7073 91.2201 53.5773 90.2101 48.3573C89.4301 44.2973 88.91 40.1773 87.7801 36.2073C85.7501 29.0673 81.8201 22.6973 78.9801 15.8873C77.6801 12.7673 77.2001 9.37727 74.8001 6.88727C72.6201 4.61727 69.7101 3.08727 66.6901 2.24727C62.1801 0.987266 57.4101 1.10727 52.7301 1.22727C51.1801 1.26727 49.6001 1.41727 48.0601 1.35727C46.7601 1.31727 45.3901 1.90727 44.1201 2.22727C43.3301 2.42727 42.5401 2.60727 41.7301 2.71727C40.7501 2.84727 39.7501 2.85727 38.7801 3.04727C37.4701 3.29727 36.2401 3.84727 35.0301 4.38727C32.3201 5.59727 29.2801 6.60726 26.7801 8.17727C24.3301 9.72727 21.9801 11.4373 19.6901 13.2173C19.1301 13.6573 18.5801 14.1073 18.0401 14.5673C15.2101 17.0073 12.7101 19.8173 10.5701 22.8773C8.42005 25.9473 5.98006 28.7873 4.64006 32.3473C4.00006 34.0073 3.60006 35.7473 3.29006 37.5073C3.14006 38.3873 3.00006 39.2673 2.88006 40.1573C2.78006 40.8573 2.94006 41.5373 2.78006 42.2273C2.55006 43.2173 2.30006 44.1973 2.07006 45.1873C1.59006 47.2473 1.74006 49.1373 1.53006 51.2373C1.10006 55.6673 -0.0199444 60.2373 1.20006 64.6373C2.58006 69.6073 7.13006 73.5473 12.2601 74.1773C13.9301 74.3873 15.6701 74.7073 17.3201 74.4673C17.3901 74.4573 17.4701 74.4473 17.5401 74.4673C17.6701 74.4973 17.7701 74.6273 17.8501 74.7373C19.9101 77.6273 22.6701 80.0273 25.4601 82.1873C28.2901 84.3873 31.3201 86.3373 34.5001 87.9973C40.2401 90.9873 46.4901 93.0173 52.9201 93.7673C54.1801 93.9173 55.4701 94.0173 56.7201 93.7573C57.6501 93.5673 58.5201 93.1773 59.4501 92.9773C61.2201 92.5973 63.05 92.9473 64.84 93.2273C68.47 93.7873 72.1701 94.0173 75.8301 93.7273C76.7301 93.6573 77.6301 93.5473 78.5201 93.4073C79.22 93.2973 79.9501 93.3073 80.6101 93.0473C82.2201 92.4173 83.7601 91.4673 85.1501 90.4473C86.4301 89.4973 87.6201 88.4273 88.6901 87.2473C89.9201 85.9073 91.0201 84.4273 91.9601 82.8673C92.5701 81.8273 93.3201 80.6073 93.8101 79.3773Z" fill="white"/>
<path d="M154.12 56.4672C152.31 58.3572 150.8 60.5572 149.08 62.5372C145.94 66.1472 141.99 69.1272 137.44 70.6172C132.9 72.1072 127.75 71.9872 123.5 69.8072C122.09 69.0872 117.36 65.5072 117.36 65.5072C117.36 65.5072 116.19 66.5972 114.78 67.3972C113.41 68.1772 111.86 68.6672 110.42 69.3472C107.22 70.8572 104.22 72.7372 101.24 74.6272C96.82 77.4372 92.41 80.2672 88.02 83.1172C89.23 84.1172 90.61 84.9472 92.08 85.4972C93.3 85.9572 94.52 85.8372 95.74 86.3572C98.76 87.6272 101.73 89.0672 104.49 90.8572C106.51 92.1672 108.29 93.7972 109.97 95.5272C111.54 97.1372 113.24 98.8072 113.91 101.017C115.22 105.377 114.7 109.637 112.29 113.537C111.42 114.937 110.34 116.207 109.43 117.587C108.53 118.947 108.06 120.597 107.54 122.147C106.55 125.117 105.26 128.397 105.65 131.587C105.95 134.047 108.27 136.867 110.25 138.247C113.74 140.677 118.15 139.997 121.87 138.567C131.19 134.977 139.42 128.987 146.74 122.177C154.72 114.757 161.78 106.227 166.63 96.4772C171.48 86.7272 174.03 75.6772 172.89 64.8472C172.51 61.2572 171.1 58.0472 168.7 55.3372C167.87 54.3972 166.95 53.5072 165.84 52.9272C162.73 51.3072 158.8 52.5172 156.06 54.6972C155.35 55.2372 154.72 55.8372 154.12 56.4672Z" fill="#FFD9C1"/>
<path d="M5.48002 29.9473C12.31 22.5373 17.72 14.7973 26.45 9.3073C36.14 3.1973 46.05 2.6173 57.09 1.3573C57.47 1.3173 57.48 0.7673 57.09 0.7573C46.36 0.3773 35.81 2.4173 26.62 8.1273C18.31 13.2873 10 21.1573 5.37002 29.8573C5.33002 29.9273 5.42002 30.0073 5.48002 29.9473Z" fill="#01C7E3"/>
<path d="M26.1901 23.3172C20.8001 26.2472 13.3801 30.9672 10.6901 36.7472C8.05007 42.4272 11.2201 48.6472 14.4401 53.3772C14.6201 53.6372 15.1201 53.4872 14.9901 53.1472C12.4001 46.4772 7.88007 40.6072 13.5901 33.9472C17.1801 29.7672 22.1901 27.0372 26.2901 23.4372C26.3701 23.3872 26.2701 23.2772 26.1901 23.3172Z" fill="#01C7E3"/>
<path d="M37.8101 15.8873C43.4501 10.8873 48.9101 5.60728 55.9401 2.55728C64.4001 -1.11272 71.7401 4.61728 77.1001 10.6373C77.3201 10.8773 77.8001 10.6273 77.6701 10.3073C75.0101 3.97728 66.6401 -0.922722 59.7601 0.147278C55.4401 0.817278 51.2101 3.91728 47.7501 6.38728C44.0101 9.06728 40.4401 12.0873 37.6801 15.7873C37.6201 15.8673 37.7401 15.9473 37.8101 15.8873Z" fill="#01C7E3"/>
<path d="M109.45 74.1572C111.72 72.7972 114 71.4272 116.07 69.7772C119.17 67.2972 120.41 63.6272 120.31 59.7472C120.2 55.6772 118.5 52.3372 117.67 48.4972C116.58 43.4472 113.64 38.6872 110.28 34.6472C106.77 30.4272 102.37 27.0572 97.9401 23.8172C92.7201 19.9972 87.4001 16.3072 82.0001 12.7572C77.9801 10.1072 73.8301 7.42721 69.0401 6.63721C68.4101 6.53721 67.7701 6.45721 67.1101 6.42721C59.9201 6.04721 52.9401 9.13721 47.9401 14.1872C45.9401 16.2072 44.2401 18.5072 42.5801 20.8272C41.5301 22.2972 40.4801 23.8072 39.9301 25.5272C39.3401 27.3572 39.1901 29.1172 39.0301 30.9972C38.8501 32.9772 38.1601 34.7572 38.5501 36.8072C38.7001 37.5872 38.9501 38.3272 39.2101 39.0772C40.1901 41.9072 40.8901 44.7472 41.8201 47.5872C42.2801 48.9972 42.7701 50.4072 43.2701 51.8072C43.6701 52.9272 44.7001 54.6572 44.7001 55.8272C45.2201 57.3172 45.6101 59.0972 46.5201 60.4072C47.3101 61.5372 48.4901 62.6272 49.4201 63.6672C51.1401 65.5872 52.9801 67.6672 54.9901 69.2772C59.1601 72.6372 64.2901 74.3872 69.2301 76.2672C73.7201 77.9772 77.5701 80.2772 82.0901 81.7672C84.1901 82.4572 86.7701 83.5772 89.0201 83.4072C91.0901 83.2472 93.5401 82.5672 95.4801 81.8172C97.5201 81.0272 99.4501 79.8772 101.5 79.0372C104.37 77.8372 106.79 75.7572 109.45 74.1572Z" fill="#FFD9C1"/>
<path d="M59.1901 57.5973C58.1201 54.3073 58.1801 50.6573 59.3501 47.4073C60.2101 45.0073 61.6701 42.8273 63.5501 41.1073C64.2401 40.4773 65.5301 39.0473 66.5401 39.4673C67.5401 39.8773 68.7401 42.4773 68.7401 42.4773C66.5001 44.0073 63.9001 45.1873 61.9601 47.1173C59.8801 49.1773 59.1401 52.2573 59.1001 55.1873" fill="#F4AB7E"/>
<path d="M80.4501 18.4372C81.5401 17.2972 82.8901 16.3672 84.1901 16.4072C82.5201 16.3572 80.8401 16.7172 79.3101 17.3672C78.0501 17.9072 76.8501 19.1072 75.9801 20.1472C75.4801 20.7472 74.4201 22.0472 74.7901 22.8872C74.9201 23.1772 75.1901 23.3772 75.4701 23.5372C76.0701 23.8972 76.7201 24.1672 77.3901 24.3372C77.1401 24.2672 78.4001 21.4272 78.5501 21.1072C78.9301 20.3172 79.6201 19.3172 80.4501 18.4372Z" fill="#F4AB7E"/>
<path d="M82.39 32.3273C84.92 30.4573 86.66 28.1173 87.6 25.1073C87.63 25.0173 87.65 24.9373 87.68 24.8473C87.89 24.1373 88.21 23.3773 88.28 22.6373C88.37 21.6073 88.32 20.5373 88.19 19.5073C89.01 19.1673 89.63 18.6473 90.37 18.1773C90.87 17.8573 91.59 17.4273 91.62 16.7273C91.54 18.7173 90.94 20.5473 90.55 22.4673C90.18 24.2973 89.2 26.1573 88.26 27.7573C86.95 30.0073 84.94 31.6973 82.39 32.3273Z" fill="#5B4DA8"/>
<path d="M82.88 32.2972C87.01 29.6372 89.7 23.7972 88.06 19.0072C87.97 18.7372 87.59 18.7872 87.57 19.0772C87.2 24.1872 86.14 28.1072 82.65 32.0172C82.52 32.1572 82.69 32.4172 82.88 32.2972Z" fill="#5B4DA8"/>
<path d="M75.7801 45.4172C75.1601 48.9172 73.5801 52.1272 70.8201 55.1872C70.7401 55.2772 70.6601 55.3672 70.5801 55.4472C69.9201 56.1572 69.2701 56.9972 68.5001 57.6172C67.9201 58.0772 67.3201 58.5072 66.7001 58.9072C66.2301 59.2172 65.3201 59.5272 65.0201 60.0172C64.7501 60.4672 64.9901 61.0572 65.0301 61.5372C65.1001 62.3372 65.0401 63.1372 64.8501 63.9172C65.6901 63.3672 66.5201 62.8272 67.3601 62.2772C68.4501 61.5672 69.4101 60.4572 70.3601 59.5572C71.5201 58.4372 72.6301 57.2572 73.5601 55.9372C75.2201 53.6072 76.0801 50.7772 75.9901 47.9372C75.9501 47.1372 75.6401 46.1872 75.7801 45.4172Z" fill="#5B4DA8"/>
<path d="M75.6101 45.8273C74.6001 48.7073 73.4401 51.7973 71.4001 54.1273C69.3901 56.4173 66.5901 57.8973 64.1801 59.7173C63.9801 59.8673 64.0801 60.2673 64.3701 60.1673C70.8501 57.9073 75.0901 52.6673 75.9801 45.8773C76.0101 45.6673 75.6801 45.6473 75.6101 45.8273Z" fill="#5B4DA8"/>
<path d="M3.34007 38.2873C1.61007 42.2073 1.30007 46.8173 0.850073 51.0473C0.360072 55.5873 -0.619927 61.2073 0.560072 65.6873C2.47007 72.9673 10.7201 74.6473 17.1201 74.7073C17.5701 74.7073 17.7001 73.9873 17.2301 73.8973C13.8201 73.2073 10.4401 73.4473 7.25007 71.7573C2.73007 69.3573 1.24007 65.6973 1.26007 60.7073C1.29007 53.1773 3.43007 45.7473 3.42007 38.3073C3.42007 38.2773 3.36007 38.2473 3.34007 38.2873Z" fill="#01C7E3"/>
<path d="M8.93009 63.7972C20.1501 79.3972 38.8101 99.5172 60.4301 93.3872C60.8501 93.2672 60.7901 92.5472 60.3201 92.5972C49.5901 93.7072 40.3201 92.3072 31.1101 86.2272C22.2401 80.3672 15.6101 71.9172 9.04009 63.7172C8.99009 63.6372 8.88009 63.7272 8.93009 63.7972Z" fill="#01C7E3"/>
<path d="M23.6601 64.4873C32.1401 74.6573 41.9301 86.8073 54.7501 91.5273C65.4001 95.4473 80.6301 97.1473 88.9001 87.5173C89.1901 87.1773 88.7301 86.7073 88.4001 87.0173C78.5601 96.3873 62.2601 94.7673 50.9501 88.8773C40.3201 83.3373 31.8701 72.9573 23.7401 64.3973C23.6901 64.3473 23.6101 64.4273 23.6601 64.4873Z" fill="#01C7E3"/>
<path d="M38.1801 36.2473C38.1801 36.2473 44.7901 16.4773 57.3001 7.94727C52.5501 9.73727 47.7901 12.5673 44.0701 15.9773C42.1801 17.7073 36.1801 24.1473 36.1801 24.1473L38.1801 36.2473Z" fill="#816D91"/>
<path d="M48.9601 59.4572C47.4901 56.9472 45.2201 54.2372 44.0301 51.5872C42.4401 48.0372 39.1901 39.5172 38.9501 38.9272C39.6101 44.1772 41.1301 49.3272 42.9701 54.2872C43.8901 56.7872 45.1001 59.1772 46.5301 61.4372C50.4501 67.6472 58.5101 72.9372 65.6501 74.6772C59.8401 70.2772 52.6401 65.7272 48.9601 59.4572Z" fill="#816D91"/>
<path d="M106.55 46.7772C105.7 47.9472 104.75 49.0672 103.94 50.4172C101.16 54.6372 98.36 58.8672 95.03 62.6572C97.6 62.8372 100.2 62.2472 102.48 61.0472C104.37 60.0472 106.63 58.8172 107.82 56.9772C110.03 53.5972 109.81 49.5472 109.3 45.7472C109.18 44.8572 108.49 43.1972 108.68 42.3572C108.29 44.1472 107.47 45.4972 106.55 46.7772Z" fill="#FEA7B2"/>
<path opacity="0.69" d="M98.8701 41.5673C99.6801 40.3673 100.23 38.9873 100.33 37.2673C100.27 38.2473 101.33 39.6773 101.32 40.8673C101.32 41.6773 101.33 43.2273 101.05 43.9973C100.35 45.9073 96.4801 46.6873 94.8201 45.6873C96.3601 44.3673 97.8301 43.1073 98.8701 41.5673Z" fill="#FFB088"/>
<path d="M95.2601 62.0872C97.8501 61.6172 100.01 60.0272 101.93 58.2972C102.8 57.5072 103.64 57.1072 104.36 56.1372C105.18 55.0372 105.91 53.8672 106.54 52.6472C106.98 51.7872 107.39 50.8572 107.37 49.8872C106.45 52.6672 104.63 55.2172 102.35 57.0272C100.08 58.8272 97.5601 60.2972 95.2401 62.0172C95.2001 62.0372 95.2201 62.0972 95.2601 62.0872Z" fill="#D67988"/>
<path opacity="0.26" d="M101.71 58.4173C100.83 59.2173 100.02 60.1373 99.0901 60.8773C99.6001 60.6773 100.11 60.4673 100.61 60.2673C102.04 59.6973 105.63 58.5373 105.39 56.4473C105.38 56.3773 105.36 56.2973 105.3 56.2473C105.24 56.1973 105.14 56.1973 105.06 56.2173C103.78 56.4073 102.64 57.5673 101.71 58.4173Z" fill="white"/>
<path d="M107.75 44.9573C105.33 47.4073 102.48 51.4773 102.54 55.0873L107.75 44.9573Z" fill="#FEA7B2"/>
<path d="M108.23 40.3472C108.04 41.4172 108.23 42.5272 108.21 43.6172C108.18 44.8772 108.02 46.1072 107.9 47.3572C107.88 47.5772 108.2 47.5972 108.27 47.4072C108.95 45.3672 109.38 42.2972 108.32 40.3372C108.29 40.3072 108.23 40.3172 108.23 40.3472Z" fill="#FEA7B2"/>
<path d="M90.6901 83.2572C100.6 81.4172 110.23 75.0272 117.45 68.2372C117.62 68.0772 117.37 67.8472 117.2 67.9872C113.02 71.3172 108.58 74.3872 103.9 76.9772C99.6101 79.3572 95.0001 80.9172 90.5801 83.0072C90.4401 83.0872 90.5501 83.2872 90.6901 83.2572Z" fill="#FFB58F"/>
<path d="M91.9101 85.3972C97.3701 86.8572 102.91 89.0372 107.15 92.8872C111.91 97.2072 116.01 104.357 113.33 110.787C111.61 114.917 108.3 118.117 106.7 122.357C105.24 126.207 104.78 130.337 106.36 134.207C106.5 134.547 107 134.427 106.92 134.057C105.3 126.417 108.33 121.087 112.27 114.867C114.94 110.647 115.86 106.747 114.18 101.917C110.79 92.1672 101.73 86.7572 91.9101 85.3872C91.9001 85.3772 91.8901 85.3872 91.9101 85.3972Z" fill="#FFB58F"/>
<path opacity="0.51" d="M109.74 118.377C109.14 119.077 108.36 119.997 108.36 120.457C109.74 117.437 111.03 114.347 112.9 111.627C114.52 109.257 115.01 105.767 113.92 103.047C113.29 101.477 112.81 99.8473 111.98 98.3673C111.48 97.4773 110.23 95.0673 109.19 94.7473C111.54 95.4673 113.17 97.3473 115.44 97.9673C118.17 98.7073 121.38 98.5473 123.88 97.1773C125.69 96.1873 127.17 94.9673 129.09 94.0573C131.43 92.9373 133.77 91.8073 136.11 90.6873C132.74 92.9473 128.69 95.1572 125.86 98.0872C122.83 101.237 119.62 104.497 117.12 108.047C115.59 110.207 114.07 112.377 112.54 114.537C111.81 115.567 111.08 116.607 110.35 117.637C110.23 117.807 110 118.067 109.74 118.377Z" fill="#FFB088"/>
<path opacity="0.51" d="M140.5 79.0773C141.28 75.3373 142.29 72.0173 144.92 69.0173C142.86 71.3673 139.99 72.9873 136.91 73.5373C135.93 73.7173 134.1 74.4873 133.17 74.0673C134.05 74.4973 139.08 77.6873 140.5 79.0773Z" fill="#FFB088"/>
<path d="M58.0301 11.3172C52.9901 14.3272 50.2201 19.1672 47.2001 23.9772C43.1201 30.4672 41.9601 35.9772 42.3501 43.5172C42.7101 50.5272 46.5301 57.4172 51.0301 62.6072C58.7201 71.4772 69.7001 77.6172 80.6601 81.4572C82.4901 82.0972 84.4001 82.6572 86.3301 82.5672C88.3901 82.4672 90.3501 81.6472 92.2401 80.8172C96.8001 78.8172 100.95 76.5072 105.24 74.0472C108.05 72.4372 110.81 70.7072 113.11 68.4072C116.56 64.9572 120.18 61.5872 119.67 56.3672C119.3 52.5772 117.91 48.8372 116.54 45.3072C114.58 40.2872 112.65 34.8772 109.27 30.5972C106.13 26.6172 101.57 24.0872 97.0501 21.9772C95.8301 21.4072 94.5001 20.8872 93.1601 20.3372C93.3401 20.6872 93.4801 21.0472 93.5501 21.4172C93.8901 23.1472 93.4401 25.1772 93.0501 26.8572C92.5301 29.0972 90.9501 31.6272 88.9301 32.8372C87.4101 33.7472 85.5201 33.8872 83.7801 33.5272C82.0401 33.1672 80.4301 32.3572 78.8901 31.4872C76.5801 30.1772 74.3101 28.6472 72.6901 26.5372C71.4201 24.8872 70.8001 22.9572 71.2101 20.8772C71.9401 17.1772 75.6601 15.1972 79.0301 14.4072C80.6301 14.0372 82.1501 13.8872 83.6001 14.0072C82.5901 13.0572 81.5601 12.1272 80.4501 11.3072C77.2001 8.91723 73.3801 8.78723 69.5001 8.61723C65.5401 8.46723 61.4801 9.26723 58.0301 11.3172ZM75.4101 62.8072C73.5301 64.5972 71.2401 66.0672 68.6801 66.4872C67.3201 66.7072 65.9101 66.6272 64.5501 66.3872C57.8301 65.1672 52.1301 59.5072 50.8701 52.7972C50.6301 51.5172 50.5401 50.1972 50.7701 48.9172C50.9401 47.9672 51.2901 47.0572 51.7301 46.1872C52.6901 44.2872 54.0601 42.6272 55.6301 41.1972C60.3601 36.8672 68.0001 32.3272 74.3501 36.1772C78.7401 38.8372 81.4001 43.9672 81.4601 49.1072C81.5101 54.2372 79.1301 59.2672 75.4101 62.8072ZM112.43 53.3572C112.41 54.1972 112.35 55.0472 112.06 55.8372C111.78 56.6072 111.28 57.2872 110.74 57.9072C108.58 60.3772 105.65 62.0572 102.54 63.0272C100.38 63.7072 93.1101 66.8072 91.6501 63.4372C91.0101 61.9672 91.9201 59.2272 92.3101 57.7772C93.3501 53.9172 95.3501 50.3972 97.3301 46.9172C95.9301 46.7072 94.7001 46.4472 93.2801 46.5672C93.1701 46.5772 93.0501 46.5872 92.9601 46.5172C92.8601 46.4372 92.8401 46.2972 92.8401 46.1672C92.8101 44.5072 93.5001 42.9372 94.1801 41.4172C94.6801 40.3072 95.1701 39.1972 95.6701 38.0872C95.7401 37.9372 95.8101 37.7772 95.9301 37.6472C96.5401 36.9972 100.09 37.5972 100.94 37.6072C101.03 37.6072 101.14 37.6072 101.21 37.6672C101.26 37.7072 101.29 37.7672 101.31 37.8272C101.72 38.7672 101.99 39.7672 102.12 40.7872C102.13 40.8572 102.14 40.9372 102.21 40.9772C102.27 41.0072 102.34 40.9772 102.4 40.9472C103.64 40.2972 104.71 39.3572 105.97 38.6772C106.47 38.4072 107.04 38.1272 107.58 38.3072C107.98 38.4372 108.26 38.7972 108.51 39.1372C111.57 43.3772 112.57 48.1872 112.43 53.3572Z" fill="#01C7E3"/>
<path d="M59.2101 57.0873C59.8301 54.4873 60.0601 51.5573 61.4801 49.2473C63.0301 46.7173 65.1401 45.0173 67.6601 43.5373C68.0701 43.2973 67.8001 42.6273 67.3301 42.7673C61.9801 44.3173 57.7501 51.6773 59.0101 57.0973C59.0301 57.1773 59.1801 57.1773 59.2101 57.0873Z" fill="#E59D7B"/>
<path d="M77.4701 23.8373C77.8201 23.2073 77.9801 22.5073 78.3201 21.8673C78.7301 21.0873 79.2601 20.3573 79.8001 19.6573C80.9101 18.1973 82.1901 17.0173 83.9301 16.3773C84.0501 16.3373 84.0501 16.1173 83.9001 16.1373C81.9701 16.2973 80.6601 17.6373 79.5101 19.1073C78.5501 20.3373 77.0101 22.1473 77.3401 23.8373C77.3501 23.8773 77.4401 23.8873 77.4701 23.8373Z" fill="#E59D7B"/>
<path d="M118.58 104.347C115.16 108.877 112.77 114.407 110.89 119.747C110.54 120.747 110.37 122.177 111.35 122.597C112.09 122.917 112.92 122.337 113.43 121.707C114.26 120.667 114.77 119.417 115.38 118.247C118.95 111.427 125.67 107.097 131.76 102.757C133.59 101.457 142.89 95.1972 137.73 92.9872C137.39 92.8372 137.02 92.7572 136.66 92.6772C130.96 91.4272 121.45 100.547 118.58 104.347Z" fill="#FDD0B0"/>
<path d="M152.35 64.9572C153.02 63.7672 153.83 62.5972 154.2 61.2672C154.34 60.7572 154.52 59.2272 154.97 58.8872C149.73 62.9172 145.28 67.9672 141.97 73.6872C141.06 75.2572 139.64 77.5572 139.76 79.4272C139.82 80.2772 140.24 81.0772 140.79 81.7272C141.34 82.3772 142.08 83.1972 142.97 83.2472C143.95 83.3072 145.1 82.7372 145.73 82.0172C146.75 80.8472 147.06 79.2472 147.4 77.7372C148.43 73.2772 150.1 68.9572 152.35 64.9572Z" fill="#FDD0B0"/>
<path d="M93.6 62.4873C94.14 62.8473 95.03 63.3573 95.67 62.9573C95.91 62.8173 95.96 62.4773 95.76 62.2773C95.31 61.8273 94.47 61.9173 93.88 61.8273C93.49 61.7573 93.24 62.2473 93.6 62.4873Z" fill="#D67988"/>
</svg>
