<svg width="219" height="118" viewBox="0 0 219 118" fill="none" xmlns="http://www.w3.org/2000/svg">
<path d="M60.7199 62.3625C57.6399 61.5825 54.4399 61.4425 51.2599 61.3225C44.2299 61.0425 37.1699 60.7625 30.1799 61.6025C23.1999 62.4425 16.2399 64.4725 10.4099 68.4625C4.39994 72.5725 0.689939 79.1325 0.279939 86.4525C0.0799392 90.0225 0.629939 93.6125 1.74994 97.0025C2.26994 98.5825 2.64994 100.312 3.60994 101.662C4.88994 103.432 6.81994 104.913 8.50994 106.253C13.2999 110.033 18.6499 113.093 24.3199 115.313C29.2099 117.223 34.2899 116.362 39.3699 116.232C44.1799 116.112 49.0599 117.703 53.9099 116.683C56.3299 116.173 58.5499 115.002 60.6899 113.762C65.2499 111.142 69.7399 107.872 72.6199 103.352C75.6799 98.5425 75.1799 90.8025 73.6099 85.5925C71.6799 79.1825 67.5099 73.7525 63.4199 68.4725" fill="#F0E4EC"/>
<path d="M148.21 64.3826C142.77 61.1826 137.74 57.2926 132.13 54.4026C123.97 50.2026 114.71 48.2126 105.56 48.7226C100.7 48.9926 95.9 49.9426 91.13 50.9726C86.61 51.9526 82.07 53.0127 77.87 54.9427C74.59 56.4527 71.55 58.4626 68.29 60.0126C63.24 62.4026 57.67 63.6526 52.1 63.6426C51.36 63.6426 50.56 63.6326 49.94 64.0326C49.29 64.4526 48.97 65.2226 48.69 65.9526C43.98 78.5526 43.11 92.5826 46.22 105.683C46.86 108.393 47.76 111.203 49.81 113.073C51.65 114.753 54.17 115.423 56.61 115.923C65.66 117.763 74.81 117.883 83.9 116.923C93.91 115.873 104.27 116.203 114.33 115.843C128.39 115.343 142.51 114.833 156.37 112.383C159.8 111.773 163.63 110.763 165.33 107.693C166.81 105.033 166.37 101.193 166.62 98.2426C166.94 94.5026 167.31 90.7726 167.4 87.0126C167.47 84.1326 167.37 81.2326 166.97 78.3826C166.7 76.4826 166.24 71.1526 164.55 70.0126C163.76 69.4826 161.45 69.6826 160.46 69.4726C159.06 69.1826 157.69 68.7826 156.34 68.2926C153.49 67.2826 150.8 65.9126 148.21 64.3826Z" fill="#FFD9C1"/>
<path opacity="0.51" d="M151.72 72.0926C143.78 75.7726 137.88 83.7526 136.81 92.5226C136.57 94.5126 136.56 96.5726 137.2 98.4726C137.78 100.213 138.88 101.733 140.13 103.063C145.01 108.253 152.4 110.723 159.46 110.103C161.72 109.903 164.99 109.293 165.95 106.933C166.97 104.433 166.37 100.883 166.6 98.2226C166.92 94.4826 167.29 90.7526 167.38 86.9926C167.45 84.1126 167.35 81.2126 166.95 78.3626C166.63 76.0726 166.8 71.6726 164.4 70.5626C161.43 69.1926 156.66 70.2226 153.77 71.2526C153.08 71.5026 152.39 71.7826 151.72 72.0926Z" fill="#FFB088"/>
<path d="M166.22 104.872C166.15 105.322 149.51 104.872 148.5 104.872C131.81 104.872 115.12 104.872 98.4301 104.872C89.9701 104.872 81.5001 104.872 73.0401 104.872C69.4601 104.872 65.4001 105.512 61.9301 105.122C57.1401 104.592 51.8601 100.632 49.7301 96.3625C47.3001 91.4925 46.5601 85.9725 45.9201 80.5625C43.2901 87.8425 42.8401 95.8825 44.5201 103.432C46.0201 110.202 49.6601 114.502 56.6001 115.912C65.6501 117.752 74.8001 117.872 83.8901 116.912C93.9001 115.862 104.26 116.192 114.32 115.832C128.38 115.332 142.5 114.822 156.36 112.372C159.79 111.762 163.62 110.752 165.32 107.682C165.79 106.842 166.06 105.882 166.22 104.872Z" fill="#FDD0B0"/>
<path d="M180.51 56.1927C177.67 56.9627 174.97 58.2926 172.63 60.0926C172.04 60.5526 171.44 61.0726 171.21 61.7926C170.98 62.5126 171.27 63.4426 171.99 63.6526C168.23 66.4526 164.82 69.5327 161.2 72.4427C157.29 75.5927 153.82 79.3026 150.96 83.4526C148.67 86.7726 146.69 90.7126 147.35 94.7026C147.82 97.5126 149.54 99.9426 151.46 102.033C157.4 108.483 167.04 113.673 175.89 113.573C175.6 114.203 175.98 114.983 176.56 115.363C177.14 115.743 177.86 115.813 178.54 115.863C182.13 116.153 185.82 116.243 189.26 115.143C189.87 114.943 190.51 114.673 190.83 114.123C191.15 113.563 190.92 112.673 190.28 112.583C192.63 111.843 194.9 110.853 197.05 109.633C203.18 106.133 203.91 99.5926 203.66 93.0326C203.41 86.3326 202.18 79.5926 199.28 73.5626C197.84 70.5826 195.77 67.7126 193.5 65.3226C191.08 62.7726 188.28 61.0126 186.51 57.9526C186.18 57.3826 185.86 56.7926 185.34 56.3926C183.91 55.2626 182.09 55.7627 180.51 56.1927Z" fill="#FFD9C1"/>
<path d="M121.49 55.6426C117.26 54.6826 112.94 54.1526 108.61 53.9926C105.58 53.8826 102.86 53.5126 99.8099 53.7426C96.5899 53.9826 93.3599 54.3426 90.2099 55.0826C85.8499 56.1026 82.2399 58.3027 78.3299 60.3727C76.4099 61.3827 74.5299 62.5327 72.4799 63.2527C63.5999 66.3927 54.3999 62.4226 45.3999 63.5326C43.2099 63.8026 40.9799 64.4426 39.2899 65.8826C37.5999 67.3226 36.5799 69.7126 37.2199 71.8526C38.6799 76.7326 45.9799 78.5626 50.1999 79.7826C61.1399 82.9326 74.1899 82.1626 85.1499 79.5926C89.2199 78.6426 93.0799 77.0326 97.0399 75.6626C105.56 72.6926 114.48 70.2026 123.58 71.0526C126.42 71.3226 129.22 71.9026 131.94 72.7826C135.79 74.0426 139.4 75.9626 143.23 77.2426C146.06 78.1826 150.15 79.2426 153.08 78.2126C155.52 77.3626 158.21 75.2727 159.76 73.1927C157.51 71.8427 155.49 70.1426 153.06 68.9526C150.38 67.6426 147.7 66.3227 145.02 65.0027C137.41 61.2627 129.73 57.5026 121.49 55.6426Z" fill="#01C7E3"/>
<path d="M148.57 71.9927C146.99 71.5227 145.42 71.0926 143.95 70.3426C142.49 69.5926 141.13 68.6726 139.71 67.8526C136.84 66.1926 133.86 64.8926 130.63 64.2226C126.93 63.4526 123.31 62.3526 119.65 61.4526C118.24 61.1026 116.83 60.9426 115.42 60.6026C113.78 60.2126 112.13 59.8826 110.46 59.6626C107.87 59.3226 105.25 59.2526 102.64 59.3926C101.31 59.4626 99.9699 59.5926 98.6499 59.7726C97.5199 59.9226 96.5498 59.7027 95.4198 59.7327C92.3998 59.8227 89.4999 60.7426 86.6199 61.5926C83.8599 62.4126 81.0699 63.5126 78.8299 65.3826C77.3199 66.6426 75.8699 68.0526 74.8699 69.7726C74.4399 70.5026 74.1499 71.4826 74.0399 72.3226C73.9899 72.7326 74.1399 74.6626 74.9699 74.4726C77.1299 73.9826 78.9598 72.6126 80.8198 71.4026C89.5299 65.7426 100.12 63.1026 110.44 64.0426C113.61 64.3326 116.75 64.9427 119.88 65.5527C122.33 66.0327 124.79 66.5127 127.24 66.9927C131.81 67.8827 136.29 69.2027 140.55 71.1227C144.57 72.9327 148.67 75.0327 153.16 75.1927C154.08 75.2227 155.01 75.1726 155.87 74.8526C156.73 74.5326 157.52 73.9326 157.9 73.0826C155.16 73.3526 152.4 73.0126 149.73 72.3226C149.34 72.2126 148.95 72.1027 148.57 71.9927Z" fill="#EBD7C7"/>
<path d="M80.1499 69.8327C80.4699 70.3827 80.7599 70.9527 81.0099 71.5327C81.3599 72.3427 80.1999 72.5827 79.6899 72.7827C78.8999 73.0927 78.1399 73.6827 77.5399 74.2927C77.1399 74.6427 76.5899 75.3527 76.0899 75.4827C74.8199 75.7927 71.4399 70.9927 72.0599 69.3727C72.2899 68.7727 72.7399 68.3827 72.4799 67.6627C72.1799 66.8227 71.1999 66.4027 71.1099 65.4327C71.8299 64.8427 72.9599 64.8427 73.6699 65.4427C74.4399 66.0927 75.1899 66.6827 76.2899 66.2727C76.5199 66.1827 76.7399 66.0327 76.9899 66.0327C77.3599 66.0327 77.6499 66.3327 77.8799 66.6227C78.7099 67.6427 79.4899 68.7027 80.1499 69.8327Z" fill="white"/>
<path d="M86.7 66.3127C86.99 66.9727 87.71 67.9027 87.07 68.5627C86.75 68.8927 86.18 68.8827 85.77 69.0327C85.31 69.2027 84.77 69.4827 84.37 69.7727C84.04 69.9727 83.38 70.7127 82.95 70.5727C82.55 70.4527 82.15 69.2227 81.94 68.8627C81.26 67.6627 80.5 66.5127 79.68 65.4127C79.42 65.0627 79.15 64.7227 78.97 64.3327C79.78 63.8327 81.21 63.4327 81.05 62.2227C80.93 61.3427 80.14 60.7127 80.23 59.7527C80.97 59.3227 81.97 59.5727 82.49 60.3027C82.91 60.8927 83.31 61.3927 84 61.6427C84.87 61.9527 85.01 62.0127 85.38 62.9927C85.78 64.1227 86.22 65.2327 86.7 66.3127Z" fill="white"/>
<path d="M93.73 64.3727C93.83 65.0927 94.25 66.1927 93.45 66.6427C93.06 66.8627 92.5 66.6927 92.07 66.7227C91.05 66.7927 90.14 67.1827 89.12 67.2527C89.03 67.2627 88.94 67.2627 88.87 67.2127C88.78 67.1527 88.75 67.0427 88.72 66.9427C88.25 65.2427 87.64 63.5927 86.9 62.0027C86.77 61.7327 86.64 61.4527 86.6 61.1627C86.56 60.8627 86.63 60.5327 86.86 60.3427C87.63 59.6727 89.23 60.3227 89.45 58.8527C89.58 57.9727 89 57.1527 89.35 56.2427C90.18 56.0427 91.07 56.5627 91.37 57.4227C91.61 58.1027 91.85 58.7027 92.44 59.1327C93.19 59.6827 93.31 59.7727 93.38 60.8227C93.46 62.0127 93.58 63.1927 93.73 64.3727Z" fill="white"/>
<path d="M101.42 63.5827C101.39 64.3027 101.63 65.4627 100.76 65.7627C100.33 65.9127 99.8201 65.6527 99.3901 65.6027C98.3801 65.4927 97.4101 65.7227 96.3901 65.6127C96.3001 65.6027 96.2101 65.5927 96.1501 65.5327C96.0701 65.4627 96.0601 65.3527 96.0501 65.2427C95.8801 63.4927 95.5601 61.7527 95.0901 60.0527C95.0101 59.7627 94.9301 59.4727 94.9401 59.1727C94.9501 58.8727 95.0801 58.5627 95.3301 58.4027C96.2101 57.8727 97.6701 58.7927 98.1401 57.3827C98.4201 56.5327 97.9801 55.6227 98.4901 54.8027C99.3401 54.7527 100.13 55.4127 100.28 56.3127C100.4 57.0227 100.54 57.6527 101.04 58.1827C101.68 58.8527 101.79 58.9627 101.68 60.0127C101.56 61.2127 101.47 62.3927 101.42 63.5827Z" fill="white"/>
<path d="M109.18 63.7127C109.09 64.2427 109.15 64.9727 108.73 65.3827C108.53 65.5627 108.1 65.7427 107.85 65.8227C107.46 65.9527 107.01 65.8627 106.62 65.7727C105.71 65.5627 104.8 65.3627 103.89 65.1527C103.9 63.1127 103.96 61.0827 104.05 59.0527C104.05 58.9427 104.06 58.8227 104.14 58.7427C104.19 58.6827 104.27 58.6527 104.34 58.6327C104.9 58.4527 105.42 58.4327 106 58.4227C106.45 58.4227 106.79 58.2227 106.99 57.8027C107.34 57.0827 107.06 56.2127 107.61 55.5427C108.37 55.5927 109 56.2927 109.03 57.1027C109.05 57.7527 109.1 58.3327 109.49 58.8627C109.99 59.5427 110.07 59.6527 109.85 60.5727C109.58 61.6227 109.36 62.6627 109.18 63.7127Z" fill="white"/>
<path d="M116.03 63.9228C115.89 64.5728 115.73 65.2128 115.47 65.8228C115.44 65.8928 115.41 65.9628 115.34 66.0128C115.26 66.0728 115.16 66.0728 115.06 66.0728C113.68 66.0728 112.13 65.8828 111.07 64.8728C110.91 64.7228 110.76 64.5528 110.72 64.3428C110.69 64.1928 110.72 64.0328 110.75 63.8728C110.96 62.7328 111.17 61.5928 111.38 60.4528C111.45 60.0828 111.52 59.7128 111.71 59.3928C112.04 58.8428 112.67 58.7228 113.26 58.7228C113.71 58.7228 114.05 58.5228 114.25 58.1028C114.6 57.3828 114.32 56.5128 114.87 55.8428C115.63 55.8928 116.26 56.5928 116.29 57.4028C116.31 58.0228 116.39 58.5528 116.7 59.0928C116.95 59.5228 117.15 59.9328 117.04 60.4528C116.97 60.8028 116.81 61.1228 116.68 61.4528C116.36 62.2428 116.21 63.0828 116.03 63.9228Z" fill="white"/>
<path d="M121.74 65.3926C121.56 65.9426 121.37 66.4926 121.18 67.0426C121.15 67.1226 121.12 67.2026 121.08 67.2826C120.91 67.5626 120.54 67.6426 120.21 67.6226C119.2 67.5626 118.31 67.3426 117.55 66.6126C117.39 66.4626 117.24 66.2926 117.2 66.0826C117.17 65.9326 117.2 65.7726 117.23 65.6126C117.44 64.4726 117.65 63.3326 117.86 62.1926C117.93 61.8226 118 61.4526 118.19 61.1326C118.52 60.5826 119.15 60.4626 119.74 60.4626C120.19 60.4626 120.53 60.2626 120.73 59.8426C120.98 59.3226 120.84 57.1426 121.82 57.7026C122.64 58.1626 122.03 59.5726 122.22 60.3026C122.3 60.5926 122.51 60.8326 122.63 61.1026C122.89 61.6926 122.7 62.3726 122.5 62.9926C122.26 63.7826 122 64.5926 121.74 65.3926Z" fill="white"/>
<path d="M126.96 66.3825C126.8 66.8625 126.64 67.3425 126.47 67.8225C126.45 67.8925 126.42 67.9626 126.38 68.0326C126.23 68.2726 125.91 68.3425 125.62 68.3325C124.6 68.2725 123.06 67.9926 122.83 66.8026C122.74 66.3026 122.84 65.7926 122.96 65.3026C123.09 64.7826 123.25 64.2725 123.44 63.7625C123.77 62.8625 124.18 62.0825 125.22 62.0725C125.61 62.0725 125.91 61.8926 126.08 61.5326C126.3 61.0826 126.18 59.1826 127.04 59.6626C127.76 60.0626 127.22 61.2926 127.39 61.9326C127.46 62.1926 127.64 62.3925 127.75 62.6325C127.98 63.1525 127.81 63.7426 127.64 64.2826C127.42 64.9826 127.2 65.6825 126.96 66.3825Z" fill="white"/>
<path d="M131.64 67.6326C131.29 68.6126 130.73 69.4027 129.59 69.0627C129.28 68.9727 128.97 68.8427 128.68 68.6927C128.41 68.5527 128.15 68.3827 128 68.1127C127.83 67.8027 127.84 67.4326 127.88 67.0826C127.98 66.1726 128.22 65.2727 128.57 64.4227C128.73 64.0327 129.02 63.6026 129.43 63.6326C130.33 63.7026 130.73 63.4226 130.88 62.5326C130.94 62.1626 131 61.0326 131.64 61.3926C132.3 61.7626 131.81 62.9027 131.96 63.4927C132.02 63.7327 132.19 63.9226 132.29 64.1426C132.5 64.6226 132.35 65.1726 132.19 65.6626C132.03 66.2126 131.89 66.9626 131.64 67.6326Z" fill="white"/>
<path d="M132.76 68.1326C132.86 67.2226 133.1 66.3227 133.45 65.4727C133.61 65.0827 133.9 64.6527 134.31 64.6827C134.56 64.7027 134.81 64.6826 135.04 64.5926C135.29 64.4926 135.38 64.2426 135.51 64.0126C135.64 63.7926 135.79 63.5527 136.04 63.5027C136.07 63.4927 136.11 63.4926 136.14 63.5126C136.16 63.5226 136.17 63.5526 136.18 63.5726C136.27 63.7726 136.28 64.0026 136.23 64.2126C136.16 64.4926 135.93 64.9226 136.14 65.2026C136.24 65.3326 136.41 65.3426 136.49 65.5126C136.57 65.6826 136.57 65.8926 136.55 66.0826C136.44 67.1126 136.07 68.1026 135.62 69.0326C135.49 69.2926 135.35 69.5626 135.1 69.7126C134.48 70.0626 133.64 69.7527 133.06 69.4727C132.83 69.3627 132.75 69.2626 132.76 69.0126C132.76 68.7226 132.72 68.4326 132.76 68.1326Z" fill="white"/>
<path d="M136.4 69.4927C136.49 68.7127 136.68 67.9527 136.99 67.2327C137.13 66.9027 137.37 66.5327 137.72 66.5627C137.93 66.5827 138.14 66.5627 138.34 66.4827C138.55 66.3927 138.63 66.1827 138.74 65.9927C138.85 65.8127 138.98 65.6027 139.19 65.5627C139.22 65.5527 139.25 65.5527 139.27 65.5727C139.29 65.5827 139.3 65.6027 139.31 65.6227C139.38 65.7927 139.4 65.9827 139.35 66.1627C139.29 66.4027 139.1 66.7627 139.28 67.0027C139.37 67.1127 139.51 67.1227 139.58 67.2727C139.65 67.4127 139.65 67.6027 139.63 67.7527C139.54 68.6227 139.22 69.4627 138.84 70.2527C138.73 70.4727 138.61 70.7027 138.39 70.8227C137.86 71.1227 137.15 70.8527 136.66 70.6227C136.46 70.5327 136.4 70.4427 136.4 70.2327C136.4 69.9927 136.37 69.7427 136.4 69.4927Z" fill="white"/>
<path d="M139.37 71.3728C139.37 71.3428 139.36 71.3227 139.36 71.2927C139.35 71.1327 139.41 70.9728 139.46 70.8128C139.56 70.5028 139.64 70.1828 139.69 69.8628C139.79 69.2428 139.95 68.8027 140.49 68.4527C140.66 68.3427 141.03 68.4328 141.11 68.2428C141.26 67.8728 141.48 67.5027 141.83 67.3227C141.86 67.3027 141.91 67.2928 141.94 67.3028C141.98 67.3128 142 67.3627 142.01 67.3927C142.09 67.6127 142.1 67.8627 142.03 68.0927C141.98 68.2527 141.9 68.4327 141.96 68.5927C142.06 68.8527 142.36 68.8128 142.52 68.9928C142.66 69.1428 142.64 69.4527 142.62 69.6327C142.55 70.3027 142.35 70.9428 142.09 71.5628C141.88 72.0528 141.72 72.7528 141.07 72.4428C140.74 72.2828 140.36 72.2327 140.02 72.0927C139.73 71.9527 139.43 71.7028 139.37 71.3728Z" fill="white"/>
<path d="M142.23 72.4525C142.23 72.4225 142.23 72.4025 142.23 72.3725C142.24 72.2125 142.3 72.0525 142.35 71.9025C142.46 71.5925 142.55 71.2825 142.61 70.9725C142.74 70.3725 142.91 69.9325 143.41 69.5625C143.57 69.4425 143.89 69.5025 143.98 69.3225C144.14 68.9625 144.35 68.5925 144.68 68.3925C144.71 68.3725 144.75 68.3525 144.78 68.3625C144.81 68.3725 144.83 68.4125 144.84 68.4525C144.9 68.6625 144.89 68.9025 144.82 69.1225C144.77 69.2825 144.68 69.4525 144.73 69.6025C144.8 69.8425 145.08 69.7925 145.21 69.9525C145.32 70.0925 145.29 70.3825 145.26 70.5725C145.16 71.2225 144.94 71.8525 144.67 72.4625C144.45 72.9525 144.27 73.6325 143.71 73.3725C143.42 73.2425 143.09 73.2125 142.8 73.1025C142.51 72.9925 142.26 72.7625 142.23 72.4525Z" fill="white"/>
<path d="M145.43 73.9428C145.43 73.9128 145.43 73.8928 145.43 73.8628C145.44 73.7028 145.5 73.5427 145.55 73.3927C145.66 73.0827 145.75 72.7727 145.81 72.4627C145.94 71.8627 146.11 71.4228 146.61 71.0528C146.77 70.9328 147.09 70.9928 147.18 70.8128C147.34 70.4528 147.55 70.0827 147.88 69.8827C147.91 69.8627 147.95 69.8428 147.98 69.8528C148.01 69.8628 148.03 69.9028 148.04 69.9428C148.14 70.3228 147.98 70.6328 147.93 70.9928C147.91 71.1428 147.93 71.3028 147.85 71.4428C147.79 71.5628 147.55 71.6928 147.83 71.7528C147.91 71.7728 147.99 71.7628 148.06 71.8128C148.2 71.9128 148.14 72.1228 148.07 72.2828C147.83 72.8128 147.67 73.3628 147.58 73.9328C147.56 74.0628 147.54 74.1928 147.47 74.3128C147.42 74.3928 147.34 74.4627 147.26 74.5127C146.7 74.8627 145.5 74.7828 145.43 73.9428Z" fill="white"/>
<path d="M150.25 72.2627C150.24 72.2027 150.25 72.1527 150.26 72.0927C150.28 72.0027 150.32 71.9227 150.35 71.8327C150.38 71.7427 150.39 71.6527 150.35 71.5627C150.31 71.4827 150.22 71.4227 150.13 71.4527C150.08 71.4727 150.04 71.5227 150.01 71.5727C149.8 71.8927 149.77 72.1427 149.39 72.2427C149.1 72.3227 148.96 72.4027 148.86 72.7127C148.65 73.3727 148.62 74.0927 148.77 74.7627C148.79 74.8427 148.81 74.9327 148.88 74.9827C148.96 75.0527 149.09 75.0527 149.19 75.0927C149.26 75.1227 149.32 75.1827 149.4 75.2027C149.56 75.2327 149.68 75.0827 149.77 74.9527C149.87 74.7927 149.98 74.6427 150.08 74.4827C150.24 74.2427 150.4 74.0027 150.5 73.7327C150.6 73.4727 150.83 72.9927 150.65 72.7527C150.57 72.6427 150.4 72.6227 150.32 72.4627C150.28 72.4127 150.26 72.3327 150.25 72.2627Z" fill="white"/>
<path d="M152.93 72.5527C152.92 72.4927 152.93 72.4427 152.94 72.3827C152.96 72.2927 153 72.2127 153.03 72.1227C153.06 72.0327 153.07 71.9427 153.03 71.8527C152.99 71.7727 152.9 71.7127 152.81 71.7427C152.76 71.7627 152.72 71.8127 152.69 71.8627C152.48 72.1827 152.45 72.4327 152.07 72.5327C151.78 72.6127 151.64 72.6927 151.54 73.0027C151.33 73.6627 151.3 74.3827 151.45 75.0527C151.47 75.1327 151.49 75.2227 151.56 75.2727C151.64 75.3427 151.77 75.3427 151.87 75.3827C151.94 75.4127 152 75.4727 152.08 75.4927C152.24 75.5227 152.36 75.3727 152.45 75.2427C152.55 75.0827 152.66 74.9327 152.76 74.7727C152.92 74.5327 153.08 74.2927 153.18 74.0227C153.28 73.7627 153.51 73.2827 153.33 73.0427C153.25 72.9327 153.08 72.9127 153 72.7527C152.96 72.6927 152.94 72.6227 152.93 72.5527Z" fill="white"/>
<path d="M156.05 72.8227C156.04 72.7627 156.05 72.7128 156.06 72.6528C156.08 72.5628 156.12 72.4827 156.15 72.3927C156.18 72.3027 156.19 72.2128 156.15 72.1228C156.11 72.0428 156.02 71.9827 155.93 72.0127C155.88 72.0327 155.84 72.0827 155.81 72.1327C155.6 72.4527 155.57 72.7028 155.19 72.8028C154.9 72.8828 154.76 72.9627 154.66 73.2727C154.45 73.9327 154.42 74.6527 154.57 75.3227C154.59 75.4027 154.61 75.4928 154.68 75.5428C154.76 75.6128 154.89 75.6128 154.99 75.6528C155.06 75.6828 155.12 75.7427 155.2 75.7627C155.36 75.7927 155.48 75.6427 155.57 75.5127C155.67 75.3527 155.78 75.2028 155.88 75.0428C156.04 74.8028 156.2 74.5628 156.3 74.2928C156.4 74.0328 156.63 73.5528 156.45 73.3128C156.37 73.2028 156.2 73.1827 156.12 73.0227C156.08 72.9627 156.06 72.8927 156.05 72.8227Z" fill="white"/>
<path d="M144.28 70.2225C144.36 70.2225 144.36 70.1025 144.28 70.1025C144.21 70.1125 144.21 70.2225 144.28 70.2225Z" fill="#EBD7C7"/>
<path d="M70.44 69.6727C70.7 70.2327 70.96 70.7927 71.32 71.3027C71.7 71.8427 72.18 72.3126 72.5 72.8926C73.03 73.8426 73.07 74.9927 73.1 76.0827C73.11 76.4027 73.11 76.7326 72.96 77.0126C72.83 77.2426 72.61 77.4027 72.4 77.5527C71.64 78.1027 70.88 78.6526 70.12 79.2026C69.83 79.4126 69.5 79.6327 69.14 79.6127C68.63 79.5827 68.27 79.1027 68.04 78.6527C67.21 77.0727 66.87 75.2427 67.06 73.4727C67.1 73.0927 67.17 72.7127 67.11 72.3427C67.03 71.8127 66.71 71.3527 66.49 70.8527C66.27 70.3627 66.17 69.7427 66.5 69.3127C66.71 69.0427 67.05 68.9026 67.26 68.6326C68.03 67.6226 66.04 65.3927 67.87 65.7327C69.27 65.9927 69.96 68.6327 70.44 69.6727Z" fill="white"/>
<path d="M64.93 79.0926C64.88 79.0926 64.8199 79.0926 64.7699 79.0926C62.0899 79.0326 59.4799 77.6627 57.8799 75.5027C56.7799 74.0127 55.6099 73.4126 53.8099 73.0126C50.7599 72.3426 47.22 72.7326 45.04 70.0326C44.83 69.7726 44.69 69.3026 45 69.1726C45.18 69.0926 45.38 69.2326 45.56 69.3326C45.83 69.4826 46.14 69.5326 46.45 69.5926C49.33 70.0926 52.2399 70.8626 55.1699 70.8326C55.4799 70.8326 55.7899 70.8227 56.0599 70.6827C56.6599 70.3727 56.78 69.5826 57.04 68.9626C57.3 68.3326 58.1 67.7626 58.58 68.2326C58.8 68.4526 58.84 68.8126 59.07 69.0226C59.53 69.4526 60.23 68.9726 60.75 68.6326C61.37 68.2226 63.02 67.6427 63.74 68.1927C64.5599 68.8127 64.12 70.2926 64.12 71.2226C64.12 73.7926 64.15 75.9027 65.43 78.2427C65.51 78.3927 65.6 78.5526 65.57 78.7226C65.51 78.9726 65.21 79.0726 64.93 79.0926Z" fill="white"/>
<path d="M185.67 57.2026C187.74 59.8526 187.16 63.5327 184.29 65.2727C183.11 65.9827 181.77 66.3427 180.44 66.6927C179.85 66.8527 179.27 67.0027 178.68 67.1627C183.08 69.3927 186.68 69.5027 191.39 68.1127C191.77 78.6827 194.01 93.1827 197.98 102.973C198.3 103.763 198.63 104.683 198.26 105.453C198.08 105.823 197.76 106.103 197.45 106.363C194.6 108.733 191.47 110.743 188.13 112.333C193.62 111.933 199.17 111.153 204.24 108.993C209.32 106.833 213.93 103.153 216.32 98.1527C219.54 91.4227 218.36 83.3926 216.14 76.2626C214.42 70.7126 212.03 65.2227 208.02 61.0627C204.01 56.9027 198.11 54.2427 192.45 55.3127" fill="#816D91"/>
<path d="M162.44 71.1424C156.63 74.9424 149.66 81.2124 147.04 87.8224C144.37 94.5324 148.17 101.132 153.55 105.082C153.77 105.242 154.02 104.892 153.84 104.712C147.85 98.6425 145.16 91.3924 150.82 84.0124C154.33 79.4324 158.33 75.2524 162.74 71.5124C162.93 71.3424 162.67 70.9924 162.44 71.1424Z" fill="#FFB58F"/>
<path d="M163.12 88.5527C162.39 91.0127 162.58 93.8227 163.73 96.1327C163.88 96.4327 164.32 96.2127 164.25 95.9127C163.69 93.4427 163.44 91.1527 163.59 88.6227C163.61 88.3327 163.19 88.2927 163.12 88.5527Z" fill="#FFB58F"/>
<path d="M46.54 79.7025C40.66 90.0925 41.64 107.733 51.9 115.103C52.13 115.273 52.42 114.893 52.21 114.703C42.1 105.653 43.66 91.6125 46.89 79.8425C46.93 79.6425 46.64 79.5125 46.54 79.7025Z" fill="#01C7E3"/>
<path d="M3.05006 101.303C13.7601 113.283 31.1801 120.303 47.2001 116.813C47.5201 116.743 47.4601 116.203 47.1201 116.223C30.5401 117.503 15.1601 113.123 3.11006 101.243C3.07006 101.203 3.01006 101.263 3.05006 101.303Z" fill="#01C7E3"/>
<path d="M43.9599 117.063C39.3999 114.743 34.6199 113.613 31.1599 109.533C27.7199 105.483 24.9999 100.683 21.8899 96.3625C21.6499 96.0225 21.0899 96.3226 21.3199 96.6926C27.0499 106.083 31.9999 115.483 43.8099 117.423C44.0099 117.463 44.1799 117.173 43.9599 117.063Z" fill="#01C7E3"/>
<path d="M20.0399 63.4926C27.2499 62.1326 34.2499 60.7725 41.6199 60.8225C48.2399 60.8625 54.8599 62.5826 61.4099 62.4326C61.6399 62.4226 61.6699 62.1126 61.4599 62.0426C55.2199 59.7926 47.3199 59.7726 40.7499 59.8126C33.7599 59.8526 26.4599 60.5426 19.9599 63.2426C19.8099 63.3026 19.8699 63.5226 20.0399 63.4926Z" fill="#01C7E3"/>
<path d="M151.97 46.4426C150.62 42.5526 148.14 39.2226 145.74 35.9326C143.57 32.9526 141.74 29.7326 139.46 26.8826C134.26 20.3626 138.4 10.6026 142.2 4.63256C142.64 3.95256 143.11 3.19257 142.98 2.39257C142.76 0.952569 140.94 0.502611 139.49 0.372611C135.15 -0.00738901 130.71 -0.377416 126.51 0.782584C125.58 1.04258 124.6 1.41259 124.08 2.22259C123.75 2.73259 123.64 3.36259 123.58 3.97259C123.22 7.43259 123.97 10.5226 122.56 13.7826C121.15 17.0426 119.07 19.9726 116.92 22.7826C115.07 25.2026 114.83 28.5326 113.92 31.3526C113.51 32.6326 112.86 33.4526 112.02 34.4626C111.42 35.1826 111.15 36.0926 110.56 36.8426C109.14 38.6426 106.98 39.6326 104.92 40.5226C104.63 40.6426 104.32 40.7926 104.19 41.0726C103.91 41.6526 104.56 42.2426 105.16 42.4926C107.91 43.6226 111.13 42.7126 113.75 41.6326C114.93 41.1426 115.08 40.4226 115.93 39.6126C116.69 38.8926 118.34 38.2526 119.37 38.1326C120.18 38.0426 120.96 38.5526 121.43 39.2126C121.71 39.6226 122.08 40.1526 122.3 40.5826C123.76 43.4626 123.46 47.1526 123.22 50.2726C123.08 52.1126 122.41 53.8926 122.48 55.7326C122.6 58.5926 122.25 61.5926 123.86 64.0826C124.75 65.4626 125.57 65.3826 126.28 63.9726C127.59 61.4026 128.47 58.6226 128.87 55.7726C129.26 53.0326 129.25 50.1026 130.69 47.7426C131.85 52.2226 133.01 56.7126 134.17 61.1926C134.35 61.8726 134.53 62.5626 134.85 63.1926C135.41 64.2826 137.49 67.1526 138.68 65.4726C139.97 63.6326 139.44 62.0526 139.02 60.1326C138.5 57.7726 138.08 55.3826 137.62 53.0126C137.18 50.7526 135.67 48.1926 137.24 46.0026C140.6 50.5326 142.1 56.1526 144.62 61.2026C144.84 61.6426 145.16 62.1426 145.65 62.1726C146.26 62.2026 146.62 61.5026 146.75 60.9126C147.45 57.8326 146.31 54.6426 145.01 51.7626C143.72 48.8826 142.22 45.9526 142.17 42.7926C142.17 42.5726 142.18 42.3226 142.35 42.1926C142.61 41.9826 142.99 42.1926 143.24 42.4126C145.7 44.5226 147.44 47.5326 150.35 48.9526C150.58 49.0626 150.83 49.1726 151.09 49.1626C151.65 49.1526 152.09 48.6326 152.19 48.0826C152.31 47.5226 152.15 46.9626 151.97 46.4426Z" fill="white"/>
<path d="M143.47 1.63248C140.21 7.73248 134.06 17.4125 137.74 24.4725C139.56 27.9725 142.11 31.1225 143.95 34.6525C145.04 36.7325 146.02 38.8325 147.38 40.7625C147.76 41.3025 148.12 41.7425 148.52 42.2725C148.63 42.4125 153.35 49.3225 150.77 48.7325C150.49 48.6725 150.31 49.0525 150.57 49.2025C151.74 49.8925 152.61 49.9725 153.2 48.5325C154.47 45.4525 148.51 40.1925 147.25 38.0925C144.67 33.8025 142.04 29.2725 139.63 24.9025C135.51 17.4525 141.49 9.01254 143.8 1.75254C143.85 1.57254 143.57 1.45248 143.47 1.63248Z" fill="#01C7E3"/>
<path d="M123.91 65.3926C125.58 67.2826 126.83 64.3626 127.32 62.9626C127.71 61.8326 130.31 48.4627 130.12 48.4427C131.02 48.5227 131.65 54.0427 131.86 54.9327C132.53 57.8827 133.41 60.8827 134.71 63.6227C135.64 65.5927 138.04 68.6927 139.63 65.6127C139.79 65.3027 139.35 64.9026 139.11 65.2126C137.15 67.7326 134.3 58.3127 134.12 57.6827C133.39 55.1627 132.93 52.5827 132.23 50.0527C131.96 49.0927 131.58 46.1427 130.07 46.2827C128.05 46.4727 128.27 51.0926 128.18 52.3226C128.13 53.0426 126.52 66.1627 124.22 64.9827C123.96 64.8527 123.72 65.1726 123.91 65.3926Z" fill="#01C7E3"/>
<path d="M139.24 66.4025C140.54 60.6125 137.78 55.7325 136.97 50.1125C135.82 42.1125 138.95 51.8425 139.62 53.4325C140.69 55.9825 141.87 58.3725 143.77 60.3925C144.17 60.8225 144.88 60.2725 144.58 59.7725C142.47 56.2725 141.06 52.6625 139.47 48.9125C138.82 47.3825 138.39 45.7425 136.77 45.1525C136.49 45.0525 136.15 45.2725 136.08 45.5425C135.37 48.4225 136.21 50.8425 137.07 53.6325C138.36 57.8325 139.54 61.9025 138.95 66.3425C138.92 66.5325 139.2 66.5725 139.24 66.4025Z" fill="#01C7E3"/>
<path d="M147.32 60.5225C147.78 56.8425 145.51 53.2726 144.23 49.9226C143.68 48.4626 141.96 44.7425 142.66 43.4025C143.22 42.3125 142.07 42.8126 142.8 42.8126C143.03 42.8126 144 43.8926 144.12 44.0026C145.38 45.1626 150.77 51.9525 152.46 49.0725C152.76 48.5525 152.17 47.9925 151.66 48.2725C150.86 48.7125 145.89 43.6225 144.86 42.7725C144.16 42.1925 143.12 41.0325 142.15 40.9525C141.8 40.9225 141.54 41.2625 141.52 41.5825C141.36 44.6425 142.2 47.3526 143.32 50.1826C144.69 53.6426 145.85 57.0426 147.03 60.5626C147.07 60.7326 147.29 60.6925 147.32 60.5225Z" fill="#01C7E3"/>
<path d="M114.18 40.3826C112.98 41.3126 111.62 42.0427 110.15 42.4427C108.83 42.8027 106.98 43.0927 105.66 42.5927C102.49 41.3827 109.22 38.1426 110.02 37.5726C111 36.8726 111.86 35.9927 112.55 35.0227C115.01 31.5527 115.05 26.9427 117.04 23.1827C118.81 19.8527 121.56 17.3927 122.54 13.6927C123.7 9.3427 124.07 4.87265 123.82 0.392651C123.81 0.202651 123.53 0.22267 123.53 0.41267C123.48 6.55267 123.03 13.5127 119.36 18.6427C116.93 22.0326 115.03 25.5027 114.02 29.5627C113.2 32.8427 112.11 35.3826 109.18 37.3226C108.02 38.0926 105.65 38.6827 104.71 39.8627C104.13 40.5927 103.87 41.2227 104.32 42.0627C104.44 42.2827 104.56 42.5027 104.74 42.6727C105.14 43.0527 105.84 43.1927 106.36 43.3727C106.98 43.5727 107.62 43.7027 108.27 43.7327C109.58 43.8027 110.89 43.4927 112.09 42.9827C113.38 42.4327 114.55 41.5727 115.61 40.6527C117.38 39.1127 118.48 36.4426 121.13 39.6427C123.84 42.9127 122.76 49.3327 122.34 53.1127C121.95 56.5927 121.66 59.8726 122.45 63.3226C122.46 63.3626 122.48 63.3727 122.5 63.3927C122.75 63.6227 122.89 64.2027 123.13 64.4927C123.37 64.7927 123.69 65.1227 123.98 65.3527C124.59 65.8427 125.49 65.5627 126.03 65.1227C126.63 64.6327 126.89 63.7226 127.15 63.0126C128.23 60.0926 128.48 56.9727 128.9 53.9127C128.99 53.2727 129.13 52.6727 129.28 52.0527C129.41 51.5127 129.35 50.9027 129.43 50.3427C129.51 49.7727 129.71 48.3427 130.61 48.6827C130.72 48.7227 130.86 49.8527 130.89 49.9727C131.14 51.0727 131.42 52.1726 131.7 53.2626C132.47 56.1926 133.32 59.1127 134.46 61.9227C134.94 63.0927 135.46 64.2827 136.17 65.3327C136.57 65.9227 137.16 66.7426 137.94 66.8226C140.14 67.0527 139.53 62.2127 139.37 61.0927C139.01 58.5227 138.14 56.0726 137.48 53.5726C137.08 52.0426 136.75 50.4927 136.64 48.9127C136.31 44.1927 138.13 48.7627 138.55 49.9427C139.07 51.4227 139.59 52.8727 140.23 54.3127C140.89 55.7927 141.61 57.2026 142.5 58.5126C143.22 60.1626 144.41 61.8527 146.19 62.1127C147.73 62.3327 147.68 60.2127 147.25 58.5427C146.95 56.4327 145.97 54.4227 145.15 52.4427C144.48 50.8327 143.78 49.2127 143.27 47.5427C142.95 46.4727 142.12 44.2927 142.56 43.1927C143.02 42.0627 142.42 42.5527 143.5 43.1827C145.14 44.1527 149.56 50.3327 151.71 49.5527C152.49 49.6227 153.09 49.1026 153.2 47.9526C153.35 46.3126 151.77 44.5426 150.9 43.3826C149.14 41.0126 147.42 38.8127 146.06 36.1727C144.87 33.8727 143.69 31.5827 142.37 29.3527C140.87 26.8227 138.68 24.5027 138.02 21.6127C137.19 17.9627 138.76 14.5227 140.1 11.2127C141.37 8.08266 142.66 4.97266 143.76 1.77266C143.81 1.62266 143.61 1.50266 143.53 1.65266C141.43 5.81266 139.35 10.1627 137.8 14.5627C136.62 17.9027 136.26 21.4527 138.08 24.6227C140.39 28.6627 143.01 32.4427 145.16 36.6127C146.14 38.5227 147.22 40.2627 148.53 41.9627C148.9 42.4527 152.03 46.7627 152 48.3427C151.92 48.3427 151.83 48.3527 151.73 48.4127C150.84 48.9927 145.9 43.8627 144.91 43.0327C144.21 42.4427 143.12 41.1227 142.13 41.1127C141.86 41.1127 141.72 41.3727 141.7 41.6127C141.63 42.7627 141.71 43.9027 141.88 45.0427C142.31 47.8127 143.32 50.4527 144.36 53.0527C144.82 54.2027 145.1 55.4527 145.72 56.5327C146.33 57.5927 146.73 58.7727 146.67 60.0427C146.66 60.2827 146.62 60.5327 146.5 60.7427C146.37 60.9527 146.14 61.1027 145.9 61.0627C145.72 61.0327 145.58 60.9127 145.44 60.7927C143.96 59.4627 143.13 57.6727 142.25 55.9127C141.31 54.0327 140.49 52.1026 139.75 50.1326C139.16 48.5526 138.56 45.9626 136.81 45.3226C136.55 45.2226 136.29 45.3327 136.22 45.6127C135.5 48.4527 136.33 50.8327 137.16 53.5827C138.34 57.4927 139.47 61.3026 139.09 65.3826C137.07 67.7826 134.35 59.1026 134.12 58.3226C133.36 55.8126 132.92 53.2427 132.25 50.7127C131.99 49.7527 131.59 46.5026 130.17 46.4526C129.78 46.4426 129.56 46.9927 129.43 47.2827C128.91 48.4727 128.7 49.8327 128.46 51.1027C128.12 52.8827 127.85 54.6827 127.54 56.4627C127.38 57.3827 126.27 65.6426 124.55 65.0126C124.21 64.8827 123.92 64.6227 123.72 64.3226C123.25 63.6326 123.04 62.8327 123.03 62.0027C123.02 60.5227 122.99 59.0827 123.18 57.6127C123.43 55.7027 123.73 53.8027 123.96 51.9027C124.48 47.5827 124.76 42.6927 122.21 38.9127C121.07 37.2127 119.48 36.0127 117.57 37.2227C116.28 38.0427 115.37 39.4526 114.18 40.3826Z" fill="#01C7E3"/>
<path d="M66.37 19.2724C66.44 18.3224 66.36 17.3825 66.09 16.4725C65.59 14.7625 64.52 13.2725 63.91 11.5925C63.28 9.86246 63.18 7.99245 63.08 6.15245C63.06 5.78245 63.05 5.38249 63.24 5.06249C63.39 4.80249 63.66 4.63248 63.92 4.49248C65.95 3.40248 68.37 3.31247 70.67 3.54247C72.74 3.74247 74.86 4.22249 76.49 5.50249C78.09 6.75249 79.05 8.64246 79.91 10.4725C81.93 14.7525 83.68 18.9824 86.57 22.7724C88.42 25.1924 88.66 28.5225 89.57 31.3425C89.98 32.6225 90.63 33.4424 91.46 34.4524C92.06 35.1724 92.33 36.0824 92.92 36.8324C94.34 38.6324 96.5 39.6224 98.56 40.5124C98.85 40.6324 99.16 40.7825 99.29 41.0625C99.57 41.6425 98.92 42.2325 98.32 42.4825C95.57 43.6125 92.35 42.7025 89.73 41.6225C88.55 41.1325 88.4 40.4125 87.55 39.6025C86.79 38.8825 85.14 38.2425 84.11 38.1225C83.3 38.0325 82.52 38.5424 82.05 39.2024C81.77 39.6124 81.4 40.1424 81.18 40.5724C79.72 43.4524 80.02 47.1424 80.26 50.2624C80.4 52.1024 81.07 53.8825 81 55.7225C80.88 58.5825 81.23 61.5824 79.62 64.0724C78.73 65.4524 77.91 65.3725 77.2 63.9625C75.89 61.3925 75.01 58.6124 74.61 55.7624C74.22 53.0224 74.23 50.0925 72.79 47.7325C71.63 52.2125 70.47 56.7025 69.31 61.1825C69.13 61.8625 68.95 62.5525 68.63 63.1825C68.07 64.2725 65.99 67.1425 64.8 65.4625C63.51 63.6225 64.04 62.0425 64.46 60.1225C64.98 57.7625 65.4 55.3725 65.86 53.0025C66.3 50.7425 67.81 48.1825 66.24 45.9925C62.88 50.5225 61.38 56.1425 58.86 61.1925C58.64 61.6325 58.32 62.1325 57.83 62.1625C57.22 62.1925 56.86 61.4925 56.73 60.9025C56.03 57.8225 57.17 54.6325 58.47 51.7525C59.76 48.8725 61.26 45.9425 61.31 42.7825C61.31 42.5625 61.3 42.3125 61.13 42.1825C60.87 41.9725 60.49 42.1825 60.24 42.4025C57.78 44.5125 56.04 47.5225 53.13 48.9425C52.9 49.0525 52.65 49.1625 52.39 49.1525C51.83 49.1425 51.39 48.6224 51.29 48.0724C51.19 47.5224 51.35 46.9625 51.54 46.4425C53.64 40.4225 58.39 35.7624 61.62 30.2624C63.42 27.1724 66.1 23.1624 66.37 19.2724Z" fill="white"/>
<path d="M79.2699 64.9925C77.0199 66.1525 75.3799 53.4525 75.3399 52.8325C75.2499 51.5825 75.5499 46.5225 73.4199 46.3025C72.0599 46.1625 71.6999 48.5725 71.4499 49.4425C70.7299 51.9725 70.2499 54.5525 69.5499 57.0925C69.2999 57.9925 66.3899 67.8225 64.3799 65.2325C64.1399 64.9225 63.6999 65.3124 63.8599 65.6324C65.4499 68.7224 67.8399 65.6224 68.7799 63.6424C70.0799 60.9024 70.9699 57.9024 71.6299 54.9524C71.8299 54.0624 72.4699 48.5425 73.3699 48.4625C73.1799 48.4825 75.7799 61.8525 76.1699 62.9825C76.6599 64.3725 77.9099 67.3025 79.5799 65.4125C79.7799 65.1725 79.5299 64.8525 79.2699 64.9925Z" fill="#01C7E3"/>
<path d="M64.5501 66.3625C63.9601 61.9225 65.1401 57.8525 66.4301 53.6525C67.2801 50.8725 68.1301 48.4325 67.4201 45.5625C67.3501 45.2825 67.0101 45.0725 66.7301 45.1725C65.1101 45.7625 64.6801 47.3925 64.0301 48.9325C62.4401 52.6825 61.0301 56.2825 58.9201 59.7925C58.6201 60.2925 59.3201 60.8525 59.7301 60.4125C61.6301 58.3925 62.8101 55.9925 63.8801 53.4525C64.5401 51.8925 67.7101 41.9325 66.5301 50.1325C65.7201 55.7425 62.9601 60.6325 64.2601 66.4225C64.2901 66.5625 64.5701 66.5325 64.5501 66.3625Z" fill="#01C7E3"/>
<path d="M56.48 60.5626C57.65 57.0426 58.82 53.6426 60.19 50.1826C61.31 47.3526 62.15 44.6425 61.99 41.5825C61.97 41.2625 61.71 40.9225 61.36 40.9525C60.4 41.0325 59.32 42.2225 58.65 42.7725C57.58 43.6425 52.63 48.7025 51.85 48.2725C51.34 47.9925 50.75 48.5625 51.05 49.0725C52.74 51.9625 58.08 45.2126 59.39 44.0026C59.9 43.5326 60.76 42.7426 60.86 42.7926C61.68 43.1526 59.84 48.4026 59.51 49.2926C58.2 52.8226 55.7 56.6525 56.19 60.5125C56.2 60.6925 56.42 60.7426 56.48 60.5626Z" fill="#01C7E3"/>
<path d="M63.2 5.02251C63.22 5.02251 63.23 5.01251 63.25 5.02251C63.34 5.03251 63.38 5.14253 63.41 5.23253C64.19 8.35253 64.58 11.5725 65.74 14.6125C66.96 17.8125 67.19 21.5925 65.45 24.6425C63.14 28.6825 60.52 32.4625 58.37 36.6325C57.39 38.5425 56.31 40.2825 55 41.9825C54.63 42.4725 51.5 46.7825 51.53 48.3625C51.61 48.3625 51.7 48.3725 51.8 48.4325C52.69 49.0125 57.63 43.8825 58.62 43.0525C59.32 42.4625 60.41 41.1425 61.4 41.1325C61.67 41.1325 61.81 41.3925 61.83 41.6325C61.9 42.7825 61.82 43.9226 61.65 45.0625C61.22 47.8326 60.21 50.4725 59.17 53.0725C58.71 54.2225 58.43 55.4725 57.81 56.5525C57.2 57.6125 56.8 58.7925 56.86 60.0625C56.87 60.3026 56.91 60.5525 57.03 60.7625C57.16 60.9725 57.39 61.1225 57.63 61.0825C57.81 61.0525 57.95 60.9325 58.09 60.8125C59.57 59.4825 60.4 57.6925 61.28 55.9325C62.22 54.0525 63.04 52.1225 63.78 50.1525C64.37 48.5725 64.97 45.9825 66.72 45.3425C66.98 45.2425 67.24 45.3525 67.31 45.6325C68.03 48.4725 67.2 50.8525 66.37 53.6025C65.19 57.5125 64.06 61.3225 64.44 65.4025C66.46 67.8025 69.18 59.1225 69.41 58.3425C70.17 55.8325 70.61 53.2625 71.28 50.7325C71.54 49.7725 71.94 46.5225 73.36 46.4725C73.75 46.4625 73.97 47.0125 74.1 47.3025C74.62 48.4925 74.83 49.8525 75.07 51.1225C75.41 52.9025 75.68 54.7025 75.99 56.4825C76.15 57.4025 77.26 65.6625 78.98 65.0325C79.32 64.9025 79.61 64.6425 79.81 64.3425C80.28 63.6525 80.49 62.8525 80.5 62.0225C80.51 60.5425 80.54 59.1025 80.35 57.6325C80.1 55.7225 79.8 53.8225 79.57 51.9225C79.05 47.6025 78.77 42.7125 81.32 38.9325C82.46 37.2325 84.05 36.0325 85.96 37.2425C87.23 38.0525 88.14 39.4725 89.34 40.3925C90.54 41.3225 91.9 42.0525 93.37 42.4525C94.69 42.8125 96.54 43.1025 97.86 42.6025C101.03 41.3925 94.3 38.1525 93.5 37.5825C92.52 36.8825 91.66 36.0025 90.97 35.0325C88.51 31.5625 88.47 26.9526 86.48 23.1926C85.41 21.1826 83.94 19.4425 82.73 17.5325C82.13 16.5825 81.6 15.5825 81.22 14.5125C80.8 13.3025 80.69 12.1026 80.62 10.8126C80.61 10.7126 80.63 10.5925 80.72 10.5525C81.57 13.4025 82.39 16.2025 84.15 18.6525C86.58 22.0425 88.48 25.5125 89.49 29.5725C90.31 32.8525 91.4 35.3925 94.33 37.3325C95.49 38.1025 97.86 38.6925 98.8 39.8725C99.38 40.6025 99.64 41.2325 99.19 42.0725C99.07 42.2925 98.95 42.5125 98.77 42.6825C98.37 43.0625 97.67 43.2025 97.15 43.3825C96.53 43.5825 95.89 43.7125 95.24 43.7425C93.93 43.8125 92.62 43.5025 91.42 42.9925C90.13 42.4425 88.96 41.5825 87.9 40.6625C86.13 39.1225 85.03 36.4525 82.38 39.6525C79.67 42.9225 80.75 49.3425 81.17 53.1225C81.56 56.6025 81.85 59.8825 81.06 63.3325C81.05 63.3725 81.03 63.3825 81.01 63.4025C80.76 63.6325 80.62 64.2126 80.38 64.5026C80.14 64.8026 79.82 65.1325 79.53 65.3625C78.92 65.8525 78.02 65.5725 77.48 65.1325C76.88 64.6425 76.62 63.7325 76.36 63.0225C75.28 60.1025 75.03 56.9825 74.61 53.9225C74.52 53.2825 74.38 52.6825 74.23 52.0625C74.1 51.5225 74.16 50.9125 74.08 50.3525C74 49.7825 73.8 48.3526 72.9 48.6926C72.79 48.7326 72.65 49.8625 72.62 49.9825C72.37 51.0825 72.09 52.1825 71.81 53.2725C71.04 56.2025 70.19 59.1225 69.05 61.9325C68.57 63.1025 68.05 64.2925 67.34 65.3425C66.94 65.9325 66.35 66.7525 65.57 66.8325C63.37 67.0625 63.98 62.2225 64.14 61.1025C64.5 58.5325 65.37 56.0825 66.03 53.5825C66.43 52.0525 66.76 50.5025 66.87 48.9225C67.2 44.2025 65.38 48.7725 64.96 49.9525C64.44 51.4325 63.92 52.8825 63.28 54.3225C62.62 55.8025 61.9 57.2125 61.01 58.5225C60.29 60.1725 59.1 61.8625 57.32 62.1225C55.78 62.3425 55.83 60.2225 56.26 58.5525C56.56 56.4425 57.54 54.4325 58.36 52.4525C59.03 50.8425 59.73 49.2225 60.24 47.5525C60.56 46.4825 61.39 44.3025 60.95 43.2025C60.49 42.0725 61.09 42.5626 60.01 43.1926C58.37 44.1626 53.95 50.3425 51.8 49.5625C51.02 49.6325 50.42 49.1125 50.31 47.9625C50.16 46.3225 51.74 44.5525 52.61 43.3925C54.37 41.0225 56.09 38.8225 57.45 36.1825C58.64 33.8825 59.82 31.5925 61.14 29.3625C62.64 26.8325 64.83 24.5125 65.49 21.6225C66.09 19.0025 65.28 16.4025 64.51 13.9125C63.95 12.1025 63.53 10.2625 63.24 8.39251C63.09 7.37251 63.04 6.33255 63.05 5.31255C63.07 5.19255 63.11 5.04251 63.2 5.02251Z" fill="#01C7E3"/>
</svg>
