<svg width="120" height="141" viewBox="0 0 120 141" fill="none" xmlns="http://www.w3.org/2000/svg">
<path d="M95.8999 122.938C97.3399 121.328 98.6099 119.558 99.5299 117.598C100.78 114.908 100.62 112.448 100.62 109.538C100.62 96.4482 100.62 83.3582 100.62 70.2582C100.62 63.4282 100.62 56.5982 100.62 49.7582C100.62 46.6982 100.62 43.6282 100.62 40.5682C100.62 36.6382 100.02 33.0982 98.7099 29.3682C98.1199 27.6982 97.4698 26.0182 96.4398 24.5782C94.5198 21.9082 91.4898 20.2882 88.5698 18.7682C89.5198 18.0882 89.2398 17.0582 88.9398 16.0782C88.7298 15.3882 88.2799 14.7482 87.6199 14.4682C87.4499 14.3982 87.2699 14.3482 87.0999 14.2682C86.3799 13.9382 86.0699 13.1182 85.6499 12.4482C84.3199 10.2782 82.2199 10.4282 79.9199 10.1882C77.5799 9.94816 75.2399 9.76815 72.8999 9.65815C68.2099 9.43815 63.5098 9.47815 58.8198 9.78815C49.4498 10.3982 40.1499 12.0682 31.1499 14.7682C30.6499 14.9182 30.1099 15.0982 29.8199 15.5382C28.7499 17.1382 30.8199 19.1282 29.0399 20.5282C27.8799 21.4382 26.0199 21.3282 24.9899 22.4282C23.1199 24.4282 21.1599 26.3882 19.7599 28.7682C18.1899 31.4482 18.7199 33.7782 18.7199 36.8282C18.7199 49.1782 18.7199 61.5282 18.7199 73.8782C18.7199 81.9382 18.7199 90.0082 18.7199 98.0682C18.7199 104.878 18.0799 113.008 21.6899 119.138C23.7499 122.648 27.5299 125.628 31.1399 127.438C32.7699 128.258 34.7699 128.568 36.5199 129.208C38.6699 129.998 40.8299 130.748 43.1099 131.088C50.5299 132.188 58.2198 132.488 65.6898 132.018C70.3098 131.728 74.9199 131.348 79.4899 130.558C81.8399 130.148 84.2099 129.678 86.4799 128.968C88.0299 128.488 90.1299 128.058 91.4899 127.198C92.7499 126.398 93.9699 124.968 95.0099 123.898C95.2999 123.588 95.6099 123.268 95.8999 122.938Z" fill="white"/>
<path opacity="0.13" d="M87.3001 19.0881H32.04C32.04 19.0881 18.72 20.8381 18.72 34.3781C18.72 34.3781 18.72 101.778 18.72 101.868C18.72 108.128 18.4501 115.938 22.0001 121.438C25.2901 126.548 32.4301 127.398 37.7501 129.228C55.2501 135.248 75.1 134.218 91.85 126.328C100.77 122.128 100.62 110.348 100.62 101.858V34.3781C100.62 20.8381 87.3001 19.0881 87.3001 19.0881ZM78.7801 97.4081C78.7801 113.028 77.02 119.768 67.33 119.768H51.9201H50.6H35.1901C25.5001 119.768 23.7401 113.018 23.7401 97.4081V37.8381C23.7401 25.8881 32.6901 24.3481 32.6901 24.3481H69.82C69.82 24.3481 78.7701 25.8881 78.7701 37.8381V97.4081H78.7801Z" fill="#03CDF0"/>
<path opacity="0.36" d="M119.75 121.658C119.75 132.098 93.06 140.568 60.13 140.568C27.2 140.568 0.51001 132.098 0.51001 121.658C0.51001 112.498 12.71 111.108 19.17 109.358C19.03 109.398 19.28 113.528 19.36 113.918C19.59 115.078 20.12 116.388 20.6 117.478C21.76 120.138 23.64 122.478 25.92 124.268C30.49 127.848 36.31 129.388 42.03 130.428C52.95 132.408 64.16 132.828 75.2 131.678C78.57 131.328 81.9301 130.828 85.1801 129.868C90.0701 128.428 94.8201 125.778 97.5601 121.488C99.7701 118.018 100.71 114.178 100.7 110.068C104.04 110.288 107.35 110.818 110.6 111.628C114.74 112.668 119.75 116.948 119.75 121.658Z" fill="#FFD9C1"/>
<path d="M26.05 5.74815C27.31 3.50815 31.63 2.80815 33.86 2.21815C40.14 0.558148 46.35 0.878147 52.69 0.378147C55.39 0.168147 58.1001 0.0881471 60.8001 0.118147C62.5701 0.138147 64.33 0.198149 66.1 0.278149C67.67 0.358149 69.2001 0.248148 70.7501 0.388148C73.5701 0.658148 76.39 0.928149 79.21 1.19815C81.74 1.43815 84.37 2.16815 86.83 2.80815C88.31 3.19815 89.79 3.63815 91.07 4.46815C92.35 5.29815 93.42 6.55815 93.69 8.05815C93.71 8.17815 93.6301 8.37815 93.5301 8.30815" fill="#DDA783"/>
<path opacity="0.22" d="M87.3 19.0881C87.3 19.0881 100.62 20.8381 100.62 34.3781V101.868C100.62 119.558 98 127.208 83.59 127.208H60.66H58.7H35.77C21.35 127.208 18.73 119.568 18.73 101.868V34.3781C18.73 20.8381 32.05 19.0881 32.05 19.0881H87.3Z" fill="white"/>
<path d="M87.4401 11.8682H31.8901V14.8582H87.4401V11.8682Z" fill="#B4B6B5"/>
<path opacity="0.51" d="M87.4401 11.8682H31.8901V14.8582H87.4401V11.8682Z" fill="#FFB088"/>
<path d="M28.35 5.25826C30.1 5.25826 31.8501 5.25826 33.5901 5.25826C44.2401 5.25826 54.8901 5.25826 65.5301 5.25826C70.8701 5.25826 76.2101 5.25826 81.5601 5.25826C83.4501 5.25826 85.3501 5.25826 87.2401 5.25826C88.1701 5.25826 91.2301 4.77826 91.8001 5.12826C92.2401 5.39826 92.5 5.88826 92.73 6.35826C92.89 6.67826 93.0501 6.99826 93.1301 7.34826C93.3001 8.08826 93.0901 8.88827 92.6801 9.52826C92.2701 10.1683 91.6801 10.6783 91.0501 11.1083C89.0701 12.4783 87.3301 12.2983 85.0601 12.2983C73.6601 12.2983 62.26 12.2983 50.86 12.2983C43.35 12.2983 35.8401 12.2983 28.3401 12.2983C26.4001 12.2983 24.8201 10.7183 24.8201 8.77826C24.8301 6.82826 26.41 5.25826 28.35 5.25826Z" fill="#FDD0B0"/>
<path opacity="0.51" d="M90.98 5.25827C87.05 5.25827 83.1099 5.18827 79.1899 5.36827C79.3999 5.48827 79.6199 5.59827 79.8199 5.73827C80.9799 6.49827 81.79 7.83827 81.76 9.21827C81.73 10.5983 79.45 12.3483 79.45 12.3483L83.13 12.5183C83.13 12.5183 85.1401 12.2883 86.1801 12.2883C87.9501 12.2883 89.93 11.9883 91.47 11.0683C92.5 10.4583 93.34 9.48827 93.66 8.33827C94.2 6.41827 92.71 5.25827 90.98 5.25827Z" fill="#FFB088"/>
<path opacity="0.3" d="M39.83 5.2583H28.35C26.41 5.2583 24.8301 6.8383 24.8301 8.7783C24.8301 10.7183 26.41 12.2983 28.35 12.2983H39.83V5.2583Z" fill="#F9BC7D"/>
<path opacity="0.22" d="M90.0201 16.7682C90.0201 18.0482 88.8001 19.0882 87.2901 19.0882H32.0301C30.5201 19.0882 29.3 18.0482 29.3 16.7682C29.3 15.4882 30.5201 14.4482 32.0301 14.4482H87.2901C88.8001 14.4482 90.0201 15.4882 90.0201 16.7682Z" fill="#03CDF0"/>
<path d="M58.43 16.9883C58.43 17.9383 57.9399 18.6983 57.3399 18.6983H35.2999C34.6999 18.6983 34.21 17.9283 34.21 16.9883C34.21 16.0383 34.6999 15.2783 35.2999 15.2783H57.3399C57.9399 15.2783 58.43 16.0383 58.43 16.9883Z" fill="white"/>
<path d="M43.51 30.0481C41.03 31.5681 38.6 33.0982 36.75 35.3782C34.94 37.6182 33.88 40.3882 32.42 42.8982C32.2 43.2682 31.97 43.6581 31.6 43.8881C31.08 44.2081 30.41 44.1281 29.8 44.0481C29.03 43.9381 28.21 43.7982 27.67 43.2382C24.62 40.0882 29.81 32.7381 32.22 30.8281C36.16 27.7181 42.5799 26.5381 47.4599 27.4581C46.3099 28.3481 44.92 29.1881 43.51 30.0481Z" fill="white"/>
<path d="M27.3501 92.0982L31.4701 91.8882V97.5282L28.4301 97.7382L27.3501 92.0982Z" fill="white"/>
<path opacity="0.58" d="M64.46 128.398C65.34 128.338 66.23 128.278 67.13 128.238C73.08 127.958 79.1301 127.128 84.5501 124.518C91.3801 121.228 95.3 116.088 96.98 108.818C97.86 105.008 97.21 100.188 97.22 96.2481C97.24 91.1481 97.1301 86.0481 97.1301 80.9481C97.1301 75.7681 97 44.8381 97 44.8381C90.89 46.1181 84.96 47.2881 78.69 47.4981C72.15 47.7181 65.6401 46.9181 59.1801 45.9681C52.4801 44.9881 45.66 44.9081 38.94 45.7081C35.58 46.1081 32.25 46.7281 28.97 47.5681C28.58 47.6681 22.05 48.8481 22.05 48.8481C22.05 48.8481 22.08 71.7681 21.98 77.6981C21.87 84.6381 21.84 91.5781 22.1 98.5081C22.39 106.088 22.7 113.348 28.67 118.928C32.68 122.678 37.0801 124.538 42.2601 126.068C49.6201 128.228 56.84 128.918 64.46 128.398Z" fill="#00C2E3"/>
<path d="M29.85 19.4982C25.31 21.1582 21.36 23.4782 19.44 28.1382C16.28 35.8082 17.87 45.7882 17.95 53.8582C18.14 72.5982 18.25 91.3582 18.76 110.088C18.78 110.758 19.79 110.758 19.81 110.088C20.21 94.4582 19.85 78.7982 19.66 63.1682C19.56 55.4782 19.44 47.7882 19.4 40.1082C19.36 30.8382 21.18 24.2682 30.14 20.5382C30.75 20.2682 30.51 19.2582 29.85 19.4982Z" fill="#01C7E3"/>
<path d="M88.9501 20.0983C96.9901 23.4583 99.1702 31.4483 99.6702 39.4383C100.13 46.8983 99.8201 54.4383 99.8201 61.9083C99.8201 77.8283 99.6701 93.7683 100.09 109.678C100.11 110.348 101.12 110.348 101.14 109.678C101.64 90.7183 101.41 71.7383 101.41 52.7783C101.41 40.9083 102.92 24.0983 89.2401 19.0683C88.5801 18.8283 88.3301 19.8383 88.9501 20.0983Z" fill="#01C7E3"/>
<path d="M19.5901 115.518C23.2801 131.198 45.8901 132.218 58.6401 132.518C67.5701 132.728 77.2601 132.098 85.9001 129.718C93.6401 127.578 99.0401 123.628 100.9 115.548C100.99 115.168 100.44 115.018 100.32 115.388C97.35 124.538 90.69 127.788 81.69 129.598C74.24 131.098 66.2301 131.698 58.6301 131.538C44.7601 131.258 25.8801 130.198 19.8201 115.448C19.7701 115.308 19.5601 115.358 19.5901 115.518Z" fill="#01C7E3"/>
<path d="M30.63 18.9583C30.05 18.2583 29.6 17.2283 30.04 16.3383C30.41 15.5683 31.05 15.5283 31.76 15.3083C32.11 15.1983 32.18 14.7283 31.86 14.5383C30.81 13.9183 29.5201 14.9183 29.0801 15.8683C28.4701 17.1883 29.06 18.6283 29.95 19.6483C30.36 20.0983 31.01 19.4283 30.63 18.9583Z" fill="#01C7E3"/>
<path d="M86.36 14.4581C87.3 14.6781 88.23 15.4681 88.39 16.4581C88.54 17.3981 88.0401 18.0981 87.4301 18.7381C87.0901 19.0981 87.5201 19.5681 87.9301 19.3881C89.1201 18.8681 89.66 17.3481 89.39 16.1281C89.08 14.7081 87.8501 13.8681 86.4301 13.9181C86.1301 13.9181 86.04 14.3781 86.36 14.4581Z" fill="#01C7E3"/>
<path d="M89.1001 18.8681C77.1001 17.0481 64.4901 18.7982 52.3901 18.8182C52.0301 18.8182 52.0301 19.3782 52.3901 19.3782C64.5001 19.3682 77.1101 21.0882 89.1001 19.2382C89.2801 19.1982 89.2801 18.8881 89.1001 18.8681Z" fill="#01C7E3"/>
<path d="M30.6302 15.0382C41.9002 16.4882 53.8402 15.4382 65.1802 15.2782C72.2702 15.1782 79.3602 14.7182 86.4302 14.5882C86.9502 14.5782 86.9502 13.7782 86.4302 13.7882C79.3602 13.9182 72.2602 13.6782 65.1802 13.7882C53.8002 13.9582 41.9302 13.2382 30.6302 14.7082C30.4202 14.7282 30.4202 15.0082 30.6302 15.0382Z" fill="#01C7E3"/>
<path d="M28.8399 4.52826C26.4099 4.62826 24.1299 6.29826 24.6599 8.98826C25.2499 11.9583 28.9699 14.0583 31.7499 12.7783C32.2099 12.5683 31.9499 11.8983 31.5099 11.8883C29.2599 11.8283 26.5699 11.3683 25.8499 8.81826C25.2499 6.69826 27.0499 5.37826 28.9099 4.96826C29.1399 4.91826 29.0899 4.51826 28.8399 4.52826Z" fill="#01C7E3"/>
<path d="M90.8499 4.70816C92.6799 6.23816 93.39 8.29816 91.63 10.1982C90.23 11.6982 88.43 11.9082 86.53 12.2282C86.02 12.3182 86.13 13.0082 86.53 13.1482C88.91 14.0082 91.92 12.2782 93.14 10.2382C94.55 7.88816 93.33 5.57816 91.12 4.35816C90.9 4.23816 90.6499 4.53816 90.8499 4.70816Z" fill="#01C7E3"/>
<path d="M31.65 3.2583C29.62 3.6883 27.7099 4.3283 25.9999 5.1383C25.7299 5.2683 25.4499 5.4183 25.4299 5.6283C25.3899 5.9683 26.0599 6.1583 26.5999 6.2383C29.8399 6.6883 33.2 6.6283 36.52 6.7483C41.31 6.9083 46.44 7.9383 51.18 7.5883C53.68 7.4083 56.4499 7.7183 58.9699 7.8083C63.5399 7.9783 68.13 7.8183 72.67 7.4883C77.04 7.1683 81.4499 7.0183 85.7199 6.3983C87.1199 6.1983 88.54 5.9883 89.79 5.5483C90.46 5.3083 91.9499 4.3583 90.3299 4.1083" fill="#DDA783"/>
<path d="M27.93 4.35832C27.16 4.79832 26.99 4.76832 26.74 5.52832C26.7 5.65832 26.75 5.79832 26.84 5.89832C29.07 8.38832 35.3001 7.47832 38.1601 7.62832C45.1101 7.97832 52.03 8.24832 58.99 8.18832C65.78 8.12832 72.61 8.47832 79.38 7.97832C81.63 7.80832 86.64 7.97832 88.6 6.76832C88.38 6.89832 91.13 5.61832 89.7 5.50832C90.5 5.56832 90.64 4.32832 89.89 4.12832C89.78 4.09832 89.68 4.06832 89.57 4.04832C88.84 3.85832 88.48 4.82832 89.07 5.22832C89.16 5.28832 89.25 5.34832 89.34 5.41832C89.58 5.01832 89.8101 4.60832 90.0501 4.20832C90.0301 4.19832 90.01 4.18832 89.99 4.17832C89.61 4.00832 89.26 4.09832 89.01 4.43832C87.85 6.00832 82.05 5.76832 80.28 5.90832C77.91 6.09832 75.53 6.15832 73.15 6.19832C67.82 6.30832 62.5001 6.32832 57.1701 6.45832C52.0301 6.57832 46.91 6.47832 41.77 6.31832C39.36 6.23832 36.94 6.12832 34.52 6.08832C34.16 6.07832 26.8 5.89832 28.2 4.83832C28.49 4.61832 28.25 4.16832 27.93 4.35832Z" fill="#01C7E3"/>
<path d="M35.4099 115.898C52.3699 112.398 68.85 112.158 86 113.948C86.32 113.978 86.3899 113.448 86.0799 113.378C69.4899 109.698 51.57 110.868 35.33 115.598C35.13 115.648 35.2099 115.938 35.4099 115.898Z" fill="#01C7E3"/>
<path d="M48.6801 64.1982C47.4801 66.4682 45.9901 68.6582 45.5201 71.1782C44.9901 74.0182 45.83 76.9082 46.47 79.7182C47.43 83.9082 47.9801 89.0082 46.85 93.2182C46.5201 94.4582 45.7901 95.6382 44.6701 96.2582C44.1701 96.5382 43.6101 96.6882 43.1201 96.9782C41.6001 97.8782 40.9701 100.808 42.5301 102.018C42.9401 102.338 43.4701 102.428 43.9901 102.468C49.6901 102.888 51.7001 98.3382 52.6801 93.5182C54.0601 86.7082 52.3101 80.3982 51.2501 73.7182C50.7001 70.2282 52.3501 67.1082 52.4801 63.6882C52.5301 62.2082 52.3901 60.5182 52.1301 59.0582C52.0401 58.5782 50.5601 55.0282 50.6201 54.9382C49.9501 55.9182 50.42 57.5982 50.33 58.7082C50.16 60.6882 49.6101 62.4282 48.6801 64.1982Z" fill="#816D91"/>
<path d="M70.1199 59.1183C70.1499 62.3383 71.0299 65.5583 70.5699 68.7483C69.9899 72.7683 67.3699 76.1583 65.8499 79.9283C64.2499 83.8983 63.88 88.3483 64.78 92.5383C65.15 94.2783 65.75 95.9983 66.8 97.4383C68.77 100.158 72.1799 101.938 75.1099 99.8483C77.5499 98.1183 79.1099 95.1883 78.5999 92.1583C78.3799 90.8283 77.2199 89.2883 75.9799 89.8283C75.1199 90.1983 74.9299 91.2983 74.7599 92.2083C74.5999 93.1283 74.1399 94.2183 73.2099 94.2783C72.4399 94.3283 71.8499 93.5983 71.4899 92.9083C70.2099 90.4383 70.0599 87.4083 71.0899 84.8183C72.0199 82.4783 73.81 80.5883 74.93 78.3383C77.4 73.3783 75.4499 69.5083 73.9899 64.7183C73.2399 62.2583 73.15 59.6183 73.67 57.1083C73.83 56.3383 76.3699 51.0183 76.2299 50.8583C75.5399 50.0383 73.0999 51.8183 72.5799 52.2783C70.7099 53.9683 70.0999 56.6683 70.1199 59.1183Z" fill="#816D91"/>
<path d="M25.9599 5.45816C36.0499 1.49816 47.8999 1.87816 58.5899 1.36816C69.4399 0.858163 80.8799 1.55816 91.2399 5.03816C91.6799 5.18816 91.99 4.46816 91.56 4.28816C81.51 0.0081625 69.3299 -0.361837 58.5899 0.208163C47.7099 0.778163 35.9199 0.608163 25.7599 4.98816C25.4999 5.09816 25.6899 5.55816 25.9599 5.45816Z" fill="#01C7E3"/>
<path d="M23.3402 49.3582C30.0002 48.1082 36.4101 46.4282 43.2401 46.1582C49.5401 45.9082 55.7701 46.6882 62.0201 47.3682C73.2701 48.6082 85.3202 49.4982 96.1802 45.5582C97.0602 45.2382 96.7002 44.0482 95.8002 44.1882C82.8802 46.1082 70.7601 46.4782 57.7601 45.1982C46.4201 44.0782 33.6901 43.8582 23.1601 48.9282C22.9001 49.0482 23.0902 49.3982 23.3402 49.3582Z" fill="#01C7E3"/>
</svg>
