<svg width="248" height="132" viewBox="0 0 248 132" fill="none" xmlns="http://www.w3.org/2000/svg">
<path d="M155.48 39.32C156.94 39.82 158.49 40.66 160.44 41.49C163.49 42.81 166.52 44.22 169.53 45.7C175.44 48.6 181.31 51.74 187.18 54.71C187.69 54.97 188.2 55.23 188.72 55.48C190.06 56.16 191.4 56.82 192.75 57.46L193.5 57.82C197.77 59.83 202.34 61.89 204.96 65.82C205.42 66.52 205.83 67.37 205.61 68.18C205.57 68.35 205.5 68.51 205.41 68.66C205.08 69.21 204.48 69.6 203.9 69.94C198.76 72.87 192.71 73.82 186.8 74.17C178.45 74.66 170.04 74.09 161.7 74.81C147.39 76.06 133.68 81.07 120.55 86.86C119.01 87.5299 117.44 88.24 115.76 88.31C113.75 88.4 111.88 87.58 110.13 86.53C109.44 86.13 108.77 85.69 108.12 85.24C106.91 84.43 105.66 83.57 104.86 82.35C102.96 79.45 106.23 75.31 107.48 72.62C108.8 69.81 110.4 67.1499 111.74 64.3599C112.69 62.3599 112.99 59.28 114.36 57.62C114.82 57.06 115.49 56.7199 116.14 56.3899C121.94 53.4899 127.8 50.71 133.7 48.03C138.46 45.86 143.51 44.17 147.71 40.95C150.87 38.49 153.03 38.45 155.48 39.32Z" fill="#FFD9C1"/>
<g opacity="0.55">
<g opacity="0.55">
<g opacity="0.55">
<g opacity="0.55">
<g opacity="0.55">
<path opacity="0.51" d="M113.32 82.3101C115.4 80.1501 117.08 77.5101 117.63 74.5601C121.61 74.2401 124.56 70.5501 125.8 66.7501C125.95 66.3001 126.1 65.8101 126.49 65.5401C127.01 65.1701 127.72 65.3501 128.34 65.4801C130.97 66.0501 133.81 65.5901 136.13 64.2301C137.08 63.6701 137.99 62.89 138.25 61.83C138.44 61.07 138.27 60.2601 138.17 59.4801C137.78 56.4901 138.45 53.37 140.02 50.8C139.28 53.73 139.19 56.96 140.6 59.64C142 62.31 145.19 64.1801 148.1 63.3801C147.19 59.7401 147.45 55.82 148.82 52.33C148.61 55.23 148.5 58.14 148.47 61.05C148.46 61.73 148.49 62.4901 148.94 63.0001C149.99 64.1801 151.3 63.1801 152.3 62.5001C153.68 61.5601 155.62 61.4801 157.21 61.7901C157.64 61.8701 158.12 61.84 158.2 62.33C158.29 62.86 158.46 63.3901 158.37 63.9401C158.28 64.4801 158.05 64.9901 157.78 65.4701C157.21 66.5201 156.44 67.4701 155.67 68.3801C155.49 68.5901 155.3 68.8101 155.12 69.0201C151 73.8101 145.48 77.3901 139.41 79.1501C136.13 80.1001 132.72 80.5301 129.46 81.5301C125.42 82.7801 121.7 84.8701 117.9 86.7301C116.09 87.6201 114.01 88.4401 111.96 88.0401C110.88 87.8301 108.88 87.82 109.12 86.36C109.35 84.95 112.35 83.3201 113.32 82.3101Z" fill="#FFB088"/>
</g>
</g>
</g>
</g>
</g>
<g opacity="0.1">
<g opacity="0.1">
<g opacity="0.1">
<g opacity="0.1">
<g opacity="0.1">
<path opacity="0.1" d="M111.34 88.6601C110.37 86.9701 110.56 84.92 111.63 82.89C113.27 79.75 114.83 77.6101 118.34 76.5401C118.98 76.3401 119.64 76.2 120.29 76.05C124.4 75.13 128.32 74.1 132.33 72.83C137.87 71.08 143.54 69.1901 149.43 69.5101C150.02 69.5401 150.64 69.6101 151.1 69.9701C152.04 70.7001 151.56 71.9901 151.08 73.0901C150.6 74.1901 149.74 75.0701 148.86 75.8801C145.34 79.1301 141.21 81.71 136.76 83.46C132.4 85.17 127.7 86.0501 123.48 88.1201C119.75 89.9501 117.8 93.7101 113.14 90.5401C112.33 89.9901 111.74 89.3601 111.34 88.6601Z" fill="#070707"/>
</g>
</g>
</g>
</g>
</g>
<g opacity="0.55">
<g opacity="0.55">
<g opacity="0.55">
<g opacity="0.55">
<g opacity="0.55">
<path opacity="0.55" d="M118.13 79.3901C118.23 78.9201 118.33 78.4401 118.56 78.0101C118.88 77.4201 119.41 76.9801 119.95 76.5701C122.1 74.9201 124.52 73.3701 125.64 70.9001C126.24 69.5701 126.65 67.8301 128.07 67.4701C128.82 67.2801 129.59 67.5701 130.35 67.6801C132.51 67.9901 134.57 66.8301 136.57 65.9701C139.66 64.6301 141.28 66.5101 144.33 67.1601C147.56 67.8401 150.98 67.6701 154.11 66.6101C153.68 68.2801 151.97 69.2401 150.42 70.0001C147.97 71.1901 147.22 71.9901 146.86 74.4801C146.49 76.9901 144.7 79.2401 142.76 80.7501C140.84 82.2501 138.57 83.2401 136.27 84.0601C133.2 85.1501 130.03 85.9401 126.81 86.4301C125.2 86.6701 123.55 86.8501 122.05 87.4701C120.53 88.1001 117.19 90.3301 116.51 87.6101C115.97 85.5401 117.69 81.5001 118.13 79.3901Z" fill="#DDA783"/>
</g>
</g>
</g>
</g>
</g>
<path d="M14.18 70.32C8.78999 59.02 0 38.47 0 38.47C0 38.47 20.82 34.3 44.18 25.51C67.54 16.73 102.29 0 102.29 0C102.29 0 114.47 43.26 120.62 59.62C126.77 75.97 140.76 102.29 140.76 102.29L69.1 129.24L46.6 129.17L31.96 123.44C31.96 123.44 19.58 81.62 14.18 70.32Z" fill="#816D91"/>
<path d="M31.96 123.44C31.96 123.44 26.3 104.32 20.96 88.4399C58.33 63.1699 102.8 53.9299 117.75 51.4099C118.79 54.5399 119.77 57.3499 120.62 59.6199C126.77 75.9699 140.76 102.29 140.76 102.29L69.0999 129.24L46.5999 129.17L31.96 123.44Z" fill="#69587A"/>
<path d="M31.56 45.96C35.25 38.06 47.6 43.03 56.5 39.68L56.98 39.5C65.88 36.15 71.89 24.28 79.87 27.79C87.86 31.3 92.43 42.61 91.42 58.5C90.41 74.39 99.56 75.92 99.22 89.38C99.01 97.87 95.39 103.68 91.24 102.76C88.36 102.12 82.83 72.28 70.37 75.11C70.28 75.13 70.2 75.14 70.11 75.15C70.04 75.2 69.97 75.24 69.89 75.29C58.65 81.38 74.16 107.47 72.41 109.85C69.89 113.28 63.34 111.3 57.59 105.05C48.47 95.14 54.34 87.97 43.11 76.68C31.88 65.38 27.87 53.86 31.56 45.96Z" fill="#A1A1A1"/>
<path opacity="0.5" d="M34.1401 43.6999C37.7801 35.6599 50.2001 40.8299 59.1001 37.4899L59.5801 37.3099C68.4801 33.9599 74.4101 21.8899 82.4501 25.5299C90.4901 29.1699 95.1601 40.7499 94.2701 56.9599C93.3801 73.1699 102.56 74.7899 102.33 88.5299C102.18 97.1899 98.6001 103.09 94.4301 102.12C91.5401 101.45 85.7601 70.9599 73.2801 73.7399C73.1901 73.7599 73.1101 73.7699 73.0201 73.7799C72.9501 73.8299 72.8801 73.8699 72.8001 73.9199C61.5701 80.0499 77.3301 106.78 75.5901 109.2C73.0901 112.68 66.5101 110.61 60.6901 104.19C51.4701 94.0099 57.3001 86.7399 45.9501 75.1299C34.6101 63.5299 30.5001 51.7399 34.1401 43.6999Z" fill="#01C7E3"/>
<path d="M69.0999 129.24C69.0999 129.24 58.98 129.01 52.61 125.57C46.96 122.51 42.89 116.27 42.89 116.27C42.89 116.27 40.0099 120.78 37.2599 122.58C34.5099 124.38 31.95 123.43 31.95 123.43C31.95 123.43 43.99 135.01 62.78 131.08C64.82 130.67 66.9199 130.06 69.0999 129.24Z" fill="#816D91"/>
<path d="M27.28 45.7101C30.92 37.6701 43.34 42.8401 52.24 39.5001L52.72 39.3201C61.62 35.9701 67.55 23.9001 75.59 27.5401C83.63 31.1801 88.3 42.7601 87.41 58.9701C86.52 75.1801 95.7 76.8001 95.47 90.5401C95.32 99.2001 91.74 105.1 87.57 104.13C84.68 103.46 78.9 72.9701 66.42 75.7501C66.33 75.7701 66.25 75.7801 66.16 75.7901C66.09 75.8401 66.02 75.8801 65.94 75.9301C54.71 82.0601 70.47 108.79 68.73 111.21C66.23 114.69 59.65 112.62 53.83 106.2C44.6 96.0201 50.44 88.7501 39.09 77.1401C27.75 65.5301 23.64 53.7501 27.28 45.7101Z" fill="#01C7E3"/>
<path opacity="0.26" d="M94.14 101.43C93.86 101.43 93.59 101.39 93.3 101.33C91.26 100.86 87.79 85.55 81.54 77.55C87.76 82.66 91.65 95.8201 94.14 101.43Z" fill="white"/>
<path opacity="0.26" d="M92.5399 102.67C92.2599 102.67 91.9899 102.63 91.6999 102.57C89.6599 102.1 86.1899 86.79 79.9399 78.79C86.1599 83.9 90.0399 97.06 92.5399 102.67Z" fill="white"/>
<path d="M31.42 44.1601C35.06 36.1201 47.48 41.2901 56.38 37.9501L56.86 37.7701C65.76 34.4201 71.69 22.3501 79.73 25.9901C81.95 27.0001 83.92 28.6201 85.58 30.7701C84.56 29.9201 83.47 29.2101 82.3 28.6801C74.26 25.0401 68.33 37.1101 59.43 40.4501L58.95 40.6301C50.05 43.9801 37.63 38.8101 33.99 46.8401C30.35 54.8801 34.46 66.6601 45.81 78.2701C56.86 89.5701 51.62 96.7601 59.84 106.52C59.21 105.94 58.59 105.31 57.98 104.63C48.76 94.4501 54.59 87.1801 43.24 75.5701C31.89 63.9801 27.77 52.1901 31.42 44.1601Z" fill="#56E8EF"/>
<path d="M60.0599 90.0099C60.8299 92.4399 61.8799 95.2599 63.3199 97.3499C63.3199 98.0199 64.7599 99.6499 65.1199 100.28C65.6799 101.26 66.2099 102.23 66.8499 103.15C68.1799 105.06 68.9399 107.42 69.8599 109.57C69.5999 109.77 69.2399 109.51 69.0299 109.26C65.1899 104.87 62.2999 99.9699 59.8999 94.6399C55.2199 84.2099 55.5799 73.0299 52.9499 66.0199C50.3099 59.0099 43.3899 50.9499 43.3899 50.9499C43.3899 50.9499 64.1099 59.1599 76.4599 40.4199C76.4599 40.4199 77.8999 53.3599 80.7599 60.9699C83.6199 68.5799 86.0699 75.5299 90.7699 83.0299C92.5199 85.8199 93.2599 89.2099 93.7899 92.4199C94.3099 95.6299 94.6199 99.4899 93.3199 102.55C93.2799 99.0599 92.7699 95.6199 92.8399 92.1499C92.8999 89.4799 91.3299 85.6899 89.1999 84.0099C83.6099 79.6099 76.8499 56.6599 67.0499 61.4799C57.2399 66.3099 58.0099 83.5499 60.0599 90.0099Z" fill="#CECECE"/>
<path opacity="0.44" d="M90.8499 80.13C93.8299 84.89 94.52 91.4 94.18 96.88C94.13 97.63 94.04 98.36 94.03 99.11C94.03 99.6 94.31 100.89 94.11 101.29C94.81 99.92 94.42 98.13 94.28 96.67C94.08 94.62 93.81 92.57 93.41 90.54C92.79 87.4 91.9399 83.2 89.2599 81.09C83.6799 76.69 76.91 53.74 67.11 58.56C57.31 63.39 58.0799 80.62 60.1299 87.09C60.1299 88.59 61.59 90.79 62.21 92.12C63.23 94.3 64.33 96.45 65.45 98.58C67.71 102.89 70.34 106.94 72.27 111.38C69.06 108.88 67.39 105.85 65.43 102.35C63.48 98.88 61.6 95.36 59.97 91.73C55.29 81.3 55.65 70.12 53.02 63.11C50.38 56.1 43.46 48.04 43.46 48.04C43.46 48.04 64.18 56.25 76.53 37.51C76.53 37.51 77.97 50.45 80.83 58.06C83.7 65.68 86.1499 72.63 90.8499 80.13Z" fill="#949494"/>
<path d="M89.4399 80.68C89.6899 81.17 89.9299 81.65 90.1599 82.15C91.4899 84.95 92.1999 87.76 92.8799 90.75C93.7599 94.57 94.0299 98.57 93.5499 102.47C92.9299 100.39 93.1799 98.43 92.9499 96.34C92.5199 92.37 90.6399 88.25 89.0999 84.56C88.0199 81.96 86.3299 79.96 84.8499 77.61C81.9899 73.09 79.7499 68.18 76.5299 63.89C74.0999 60.65 70.3199 56.87 65.9599 59.02C56.2399 63.82 57.0499 81.04 59.0999 87.5C60.3299 91.38 62.3599 95.07 64.2399 98.67C66.5499 103.11 68.7999 107.63 71.2999 111.97C65.9799 106.31 62.1199 99.18 58.9599 92.13C54.2799 81.7 54.6199 70.53 51.9799 63.52C49.3399 56.51 42.4399 48.44 42.4399 48.44C42.4399 48.44 63.0399 56.69 75.2699 38C75.2699 38 76.7299 50.93 79.5899 58.54C81.5399 63.72 83.4299 68.93 85.8699 73.91C86.9999 76.2 88.2799 78.41 89.4399 80.68Z" fill="#FAFFF5"/>
<path d="M216.27 81.21C215.13 84.72 211.52 86.91 208.53 88.78C204.44 91.34 198.16 92.05 193.45 93.04C190.58 93.64 187.71 94.24 184.77 94.42C181.05 94.63 177.33 94.13 173.66 93.45C166.67 92.14 159.79 90.2 152.72 89.31C142.55 88.05 133.1 90.96 123.25 92.72C122.28 92.89 121.29 93.05 120.3 93.2C118.41 93.48 116.22 93.65 114.24 93.17C113.12 92.89 112.06 92.4 111.17 91.58C110.2 90.69 109.76 89.28 109.84 87.95C109.87 87.46 109.96 86.99 110.1 86.51C110.21 86.13 110.36 85.76 110.54 85.39C110.66 85.12 110.8 84.86 110.95 84.6C111.01 84.48 111.09 84.36 111.16 84.24C115.53 77.22 125.55 76.65 132.83 75.01C140.07 73.39 146.93 70.14 152.77 65.58C154.37 64.33 155.94 62.96 157.64 61.82C159.05 60.86 160.55 60.06 162.22 59.63C166.34 58.57 170.13 59.91 174.14 57.66C176.24 56.48 178.32 55.02 180.61 54.48C180.81 54.43 181.02 54.39 181.23 54.36C181.61 54.29 181.99 54.26 182.39 54.26C184.01 54.26 185.56 54.82 187.08 55.37C188.96 56.06 190.84 56.75 192.71 57.44C197.21 59.09 201.9 60.53 206.26 62.49C208.63 63.56 211.15 64.16 213.63 64.92C216.16 65.7 217.73 67.22 219.17 69.46C219.55 70.06 219.9 70.7 219.95 71.41C220.01 72.3 219.47 72.47 219.15 73.12C218.79 73.84 218.48 74.57 218.22 75.42C217.64 77.39 216.9 79.28 216.27 81.21Z" fill="#FFD9C1"/>
<path d="M118.76 84.0199C119.92 84.2399 121.07 84.8299 121.71 85.8299C122.37 86.8399 122.45 88.1199 122.41 89.3199C122.39 89.8299 122.36 90.3599 122.1 90.8099C121.79 91.3399 121.22 91.6499 120.64 91.8799C119.25 92.4399 117.75 92.6599 116.26 92.8699C115.93 92.9199 115.6 92.9699 115.27 93.0099C114.93 93.0699 114.59 93.1099 114.25 93.1599C113.13 92.8799 112.07 92.3899 111.18 91.5699C110.21 90.6799 109.77 89.2699 109.85 87.9399C109.9 87.0499 110.16 86.1899 110.55 85.3799C111.03 85.1699 111.52 84.9899 112.02 84.8299C113.06 84.4899 114.14 84.2599 115.21 84.0899C116.39 83.9099 117.6 83.7899 118.76 84.0199Z" fill="#FCD1B1"/>
<g opacity="0.22">
<g opacity="0.22">
<g opacity="0.22">
<g opacity="0.22">
<g opacity="0.22">
<path opacity="0.22" d="M169.52 45.6899C175.43 48.5899 181.3 51.73 187.17 54.7C187.68 54.96 188.19 55.2199 188.71 55.4699C190.05 56.1499 191.39 56.81 192.74 57.45C197.19 59.08 201.65 60.7099 206.1 62.3599C207.53 62.8899 208.94 63.69 210.46 63.95C212.72 64.34 215.19 64.1799 217.48 64.2699C217.81 64.2799 218.36 66.6899 218.23 67.0699C217.91 68.0199 216.96 68.0599 216.05 68.2399C213.64 68.6999 211.17 68.5899 208.78 68.0599C203.89 66.9899 199.49 64.3999 195.03 62.2199C190.26 59.8999 185.67 57.2699 181.25 54.3699C177.68 52.0099 174.21 49.4799 170.85 46.7699C170.41 46.4099 169.97 46.0599 169.52 45.6899Z" fill="#DDA783"/>
</g>
</g>
</g>
</g>
</g>
<path d="M209.84 76.2699C207.61 72.0199 202.3 68.0099 199.61 65.4099C198.5 64.3399 197.37 62.5199 198.49 61.4599C198.99 60.9999 199.73 60.9399 200.41 60.9499C205.36 60.9799 213.31 62.8499 217.93 64.7399C223.36 66.9599 226.08 74.7199 226.13 80.1299C226.19 85.7899 222.95 91.6699 217.91 94.2599C210.69 97.9799 202.63 95.7999 195.18 94.1199C191.65 93.3199 188.35 94.2099 184.77 94.4199C181.05 94.6299 177.33 94.1299 173.66 93.4499C166.67 92.1399 159.79 90.1999 152.72 89.3099C142.55 88.0499 133.1 90.9599 123.25 92.7199C131.16 86.9199 144.1 83.9499 150.31 84.5999C159.79 85.5899 168.63 89.6499 178.1 90.7899C185.76 91.6999 200.65 90.4299 207.24 85.7799C211.46 82.7999 211.52 79.4699 209.84 76.2699Z" fill="#FDD0B0"/>
<path d="M112.03 84.8501C111.76 86.5801 112 88.3901 112.76 89.9701C113.34 91.1601 114.22 92.2201 115.28 93.0201C114.94 93.0801 114.6 93.1201 114.26 93.1701C113.14 92.8901 112.08 92.4001 111.19 91.5801C110.22 90.6901 109.78 89.2801 109.86 87.9501C109.91 87.0601 110.17 86.2001 110.56 85.3901C111.04 85.1901 111.53 85.0101 112.03 84.8501Z" fill="#FFDEC7"/>
<g opacity="0.55">
<g opacity="0.55">
<g opacity="0.55">
<g opacity="0.55">
<g opacity="0.55">
<path opacity="0.51" d="M157.67 61.8301C159.14 62.0901 160.4 63.2101 161.53 64.2601C162.51 65.1801 163.58 66.5101 162.99 67.7201C162.25 69.2301 160.04 68.6701 158.37 68.4101C155.61 67.9701 152.82 69.0201 150.38 70.4001C147.94 71.7901 145.68 73.5101 143.11 74.6101C141.2 75.4201 139.12 75.8901 137.37 76.9901C135.6 78.0901 134.17 80.1001 134.59 82.1401C132.21 81.4501 132.31 79.0401 129.66 78.6401C129.44 78.6001 129.19 78.5801 128.93 78.5801C124.32 78.5101 119.82 80.0301 115.69 82.0601C114.09 82.8401 112.54 83.7101 111 84.6001C111.06 84.4801 111.14 84.3601 111.21 84.2401C115.58 77.2201 125.6 76.6501 132.88 75.0101C140.12 73.3901 146.98 70.1401 152.82 65.5801C154.39 64.3401 155.97 62.9701 157.67 61.8301Z" fill="#FFB088"/>
</g>
</g>
</g>
</g>
</g>
<path d="M127.6 75.71C121.13 77.27 110.14 78.95 108.64 87.16C106.91 96.65 121.73 94.41 126.5 92.98C133.22 90.97 140.23 89.76 147.24 89.54C155.17 89.29 162.08 93.02 169.74 94.4C176.22 95.56 182.89 95.07 189.43 94.95C196.32 94.82 202.93 96.49 209.79 96.05C210.6 96 210.61 94.74 209.79 94.78C204.88 95.03 200.34 93.72 195.49 93.42C189.86 93.08 184.25 93.42 178.61 93.32C172.77 93.22 167.33 92.13 161.78 90.41C156.89 88.9 152.39 87.6 147.24 87.79C142.62 87.96 137.99 88.59 133.45 89.47C128.62 90.41 123.83 92.77 118.91 93.03C117.28 93.12 115.34 93.17 113.93 92.26C112.29 91.21 110.5 86.83 111.19 84.86C111.92 82.79 114.75 81.12 116.59 80.2C120.11 78.44 124.08 77.68 127.87 76.7C128.51 76.53 128.24 75.55 127.6 75.71Z" fill="#FFB58F"/>
<path d="M119.75 54.7799C127.25 50.4399 139.44 51.7399 144.51 43.7099C144.72 43.3699 144.25 43.0499 143.98 43.2999C136.82 49.7499 126.93 48.6899 119.44 54.2299C119.11 54.4699 119.38 54.9899 119.75 54.7799Z" fill="#FFB58F"/>
<path d="M121.66 85.0501C121.7 87.0401 121.95 89.7501 123.36 91.2601C123.56 91.4701 124.02 91.3201 123.98 91.0001C123.86 89.9901 123.42 89.1101 123.07 88.1601C122.69 87.1101 122.41 86.0701 122.17 84.9801C122.1 84.7001 121.65 84.7601 121.66 85.0501Z" fill="#FFB58F"/>
<path d="M112.08 86.68C113.82 86.38 115.47 85.7 117.23 85.44C118.71 85.22 120.57 85.62 121.87 84.83C122.14 84.67 122.1 84.34 121.87 84.16C120.56 83.15 118.36 83.71 116.84 84.01C115.08 84.36 113.14 84.96 111.77 86.15C111.51 86.38 111.8 86.73 112.08 86.68Z" fill="#FFB58F"/>
<path d="M157.4 40.4599C162 43.3999 167.37 45.1899 172.13 47.9699C177.25 50.9599 182.28 54.0899 187.7 56.5099C192.3 58.5699 197.08 60.2099 201.91 61.6199C207.79 63.3299 216.29 63.9899 220.97 68.1099C221.38 68.4699 221.94 67.9099 221.57 67.5099C218.33 64.0499 213.69 63.3099 209.27 62.1099C203.28 60.4699 197.29 58.7799 191.49 56.5499C185.45 54.2199 179.88 51.0499 174.24 47.9099C171.38 46.3199 168.53 44.6799 165.56 43.3099C162.97 42.1099 160.16 41.4299 157.68 39.9799C157.37 39.7899 157.1 40.2599 157.4 40.4599Z" fill="#FFB58F"/>
<path d="M237.4 110.3C248.03 102.8 248.58 87.72 245.98 76.31C243.34 64.75 232.76 56.28 222.81 50.13C216.74 46.37 209.44 44.16 202.33 45.18C209.75 57.12 214.66 73.54 208.23 86.69C205.27 92.74 200.83 98.26 194.88 101.52C193.9 102.06 192.74 102.74 192.68 103.84C192.64 104.69 193.29 105.4 193.94 105.97C199.92 111.21 208.34 112.57 216.27 113.72C220.07 114.27 223.95 114.82 227.74 114.16C231.59 113.48 234.79 112.14 237.4 110.3Z" fill="white"/>
<path d="M71.5099 112.97C74.8999 108.73 70.7099 103.63 69.4599 99.3101C70.3799 100.41 70.4999 101.95 70.5399 103.38C70.5899 105.22 70.5799 107.07 70.4899 108.91C70.4699 109.42 70.3999 110 69.9899 110.3C69.6699 110.54 69.2399 110.52 68.8399 110.49C65.3899 110.22 62.0299 109.32 58.6899 108.43C61.0899 111.34 67.6699 116.24 71.5099 112.97Z" fill="#01C7E3"/>
<path d="M96.64 98.51C96.66 98 96.67 97.51 96.67 97.07C96.69 92.99 95.81 88.97 94.94 85C94.96 87.39 94.94 89.78 94.92 92.17C94.91 94.01 94.89 95.88 94.55 97.7C94.28 99.17 93.96 101.21 92.47 101.88C90.19 102.9 86.92 100.41 85.45 98.82C85.64 99.02 85.6 100.68 85.71 101.06C85.97 101.97 86.37 102.92 86.91 103.7C87.83 105.02 89.39 105.55 90.95 105.66C91.55 105.7 92.1699 105.73 92.7599 105.61C95.9199 104.97 96.52 101.39 96.64 98.51Z" fill="#01C7E3"/>
</svg>
