<svg width="124" height="155" viewBox="0 0 124 155" fill="none" xmlns="http://www.w3.org/2000/svg">
<path d="M85.3073 81.9141C84.3385 76.3435 83.3697 70.7659 82.4008 65.1953C82.0593 65.1813 81.7248 65.1534 81.4111 65.1255C82.4287 71.094 83.4394 77.0346 84.3454 82.326L84.3663 82.4656C85.377 88.3783 86.2482 93.4812 86.8337 96.9157C87.1543 96.7691 87.4888 96.6225 87.8373 96.4759C87.0149 91.736 86.1924 86.9961 85.37 82.2492C85.3491 82.1375 85.3282 82.0258 85.3073 81.9141Z" fill="#FFB58F"/>
<path d="M78.9297 24.4628C85.4953 25.5658 99.3931 23.0178 102.69 17.7334C98.4313 22.1592 87.6141 24.9166 78.9297 24.4628Z" fill="white"/>
<path d="M102.23 14.0683C102.516 16.3231 96.3125 19.2689 88.2972 20.6651C84.3592 21.3492 80.707 21.5377 77.9539 21.2864C77.2639 22.0124 77.5567 24.1066 77.9748 24.9163C80.6931 25.4399 84.4568 25.5656 89.0081 24.7698C93.8312 23.9321 97.6019 22.4801 100.007 20.9932C100.676 20.5813 101.233 20.1695 101.686 19.7646C102.341 19.1852 102.76 18.6197 102.927 18.1171C103.268 17.1049 103.728 14.7664 101.756 13.2236C102.007 13.461 102.167 13.7262 102.216 14.0194C102.23 14.0334 102.23 14.0474 102.23 14.0683ZM102.69 17.7332C99.3931 23.0176 85.4953 25.5656 78.9297 24.4626C87.6141 24.9163 98.4313 22.159 102.69 17.7332Z" fill="#CDE6EE"/>
<path d="M121.132 80.5459C119.236 79.2545 116.309 79.1288 113.855 79.1218L115.696 89.8023C121.655 88.6366 125.481 83.5127 121.132 80.5459Z" fill="#FFD9C1"/>
<path d="M120.958 56.7904C121.982 54.2424 120.86 51.9597 118.825 50.2564C116.706 48.4763 112.845 46.8079 108.105 45.698L110.552 59.9247C114.615 60.3645 119.62 60.1132 120.958 56.7904Z" fill="#FFD9C1"/>
<path d="M113.904 90.0604C113.27 86.4165 112.643 82.7726 112.009 79.1286C111.841 78.1653 111.674 77.195 111.507 76.2316C110.747 71.8477 109.987 67.4708 109.221 63.0939C109.026 61.9491 108.823 60.8042 108.628 59.6594C107.799 54.8636 106.962 50.0749 106.133 45.2791C105.819 43.4641 105.499 41.6491 105.185 39.8341C104.516 35.9738 103.847 32.1135 103.171 28.2531C102.683 25.4189 102.188 22.5917 101.693 19.7576C101.24 20.1625 100.683 20.5743 100.014 20.9862C100.055 21.2026 100.09 21.426 100.125 21.6424C100.153 21.8099 100.188 21.9774 100.216 22.145C100.543 24.0368 100.871 25.9215 101.198 27.8133C101.442 29.2304 101.693 30.6475 101.937 32.0716C101.986 32.3368 102.028 32.6021 102.077 32.8674C102.077 32.8674 102.077 32.8744 102.077 32.8813C102.077 32.8883 102.077 32.8883 102.077 32.8953C102.495 35.2897 102.906 37.6841 103.324 40.0785C103.603 41.698 103.889 43.3175 104.168 44.937C104.997 49.7258 105.826 54.5076 106.663 59.2964C106.886 60.5948 107.116 61.9002 107.339 63.1986C108.112 67.6523 108.886 72.113 109.66 76.5667C109.813 77.4463 109.966 78.3328 110.12 79.2124C110.761 82.9122 111.402 86.605 112.05 90.3048C114.741 105.788 117.431 121.271 120.115 136.755C122.937 152.985 100.446 156.901 97.6298 140.671C95.0231 125.676 92.4164 110.675 89.8097 95.6729C89.0081 91.0726 88.2066 86.4724 87.412 81.8651C87.3702 81.6277 87.3284 81.3904 87.2866 81.153C86.3666 75.8407 85.4396 70.5354 84.5196 65.223C84.2338 63.5965 83.955 61.977 83.6762 60.3505C83.5229 59.4709 83.3695 58.5913 83.2162 57.7118C82.6586 58.4936 82.0662 59.2196 81.4807 59.8967C81.5434 60.2737 81.6131 60.6576 81.6828 61.0416C81.9198 62.4168 82.1638 63.799 82.4007 65.1742C83.3695 70.7448 84.3383 76.3224 85.3072 81.893C85.3281 82.0047 85.349 82.1164 85.3699 82.2281C86.1923 86.968 87.0148 91.7149 87.8372 96.4548C90.6251 112.503 93.4131 128.552 96.201 144.601C99.0795 161.173 125.467 156.58 122.582 140.008C119.696 123.372 116.797 106.716 113.904 90.0604ZM100.92 22.1589C102.467 28.2112 120.846 130.018 120.846 137.857C119.536 130.36 101.944 28.2112 100.92 22.1589ZM82.7144 59.8967C83.6832 65.1183 95.5528 130.088 97.1977 142.465C94.9534 132.524 82.4077 65.1951 82.7144 59.8967ZM97.6089 143.756C99.679 154.995 121.132 156.042 121.132 139.721C123.62 156.81 98.3756 157.522 97.6089 143.756Z" fill="#E6F4FB"/>
<path d="M118.156 139.645C118.337 140.713 117.647 141.725 116.609 141.899C116.504 141.913 116.4 141.927 116.295 141.927C115.382 141.927 114.567 141.25 114.399 140.287L106.056 91.31C103.059 91.8754 100.257 92.5107 97.6786 93.1948L105.994 141.99C106.175 143.065 104.983 144.161 103.331 144.44C103.066 144.489 102.808 144.51 102.558 144.51C101.24 144.51 100.16 143.917 100.007 143.016L91.817 94.9609C91.12 95.1983 90.4509 95.4356 89.8167 95.6799C92.4234 110.682 95.0301 125.676 97.6368 140.678C100.453 156.908 122.944 152.985 120.122 136.762C117.431 121.278 114.741 105.802 112.057 90.3118C111.298 90.4235 110.545 90.5351 109.806 90.6538L118.156 139.645ZM117.71 144.51C117.647 144.789 117.55 145.083 117.438 145.383C116.386 148.412 112.371 149.704 109.66 149.704C107.834 149.704 106.14 149.39 104.502 148.636C103.805 148.315 102.209 147.596 101.763 146.821C101.533 146.423 101.61 146.004 102.279 145.62C103.018 145.194 104.014 145.341 105.213 144.733C106.008 144.336 106.558 144.147 107.283 143.603C108.531 142.674 110.141 141.355 111.758 142.032C113.702 142.716 115.034 142.66 116.379 142.744C117.794 142.835 117.933 143.575 117.71 144.51Z" fill="#F44336"/>
<path d="M119.118 74.0187C123.808 71.8128 122.693 65.5651 117.745 63.6105C116.434 63.0939 113.967 62.9543 111.082 63.0311L113.291 75.8686C115.612 75.3521 117.612 74.7657 119.118 74.0187Z" fill="#FFD9C1"/>
<path d="M114.399 140.287C114.567 141.243 115.375 141.927 116.295 141.927C116.4 141.927 116.504 141.92 116.609 141.899C117.647 141.725 118.337 140.713 118.156 139.645L109.806 90.6538C108.524 90.8562 107.276 91.0727 106.056 91.303L114.399 140.287Z" fill="#F47471"/>
<path d="M116.393 142.744C115.048 142.66 113.709 142.716 111.772 142.032C110.162 141.355 108.545 142.674 107.297 143.603C106.565 144.147 106.015 144.336 105.227 144.734C104.021 145.341 103.032 145.194 102.293 145.62C101.624 146.004 101.547 146.423 101.777 146.821C104.251 148.664 113.375 150.758 117.717 144.51C117.933 143.575 117.794 142.835 116.393 142.744Z" fill="#C8372D"/>
<path d="M114.971 89.921C115.215 89.8861 115.459 89.8512 115.696 89.8023L113.856 79.1218C113.479 79.1218 113.117 79.1218 112.768 79.1218L114.58 89.9769C114.713 89.9559 114.838 89.935 114.971 89.921Z" fill="#FDD0B0"/>
<path d="M114.58 89.9698L112.768 79.1147C112.754 79.1147 112.733 79.1147 112.719 79.1147C112.503 79.1147 112.266 79.1147 112.009 79.1287C112.643 82.7726 113.277 86.4166 113.904 90.0605C114.127 90.0326 114.357 89.9977 114.58 89.9698Z" fill="#FFB58F"/>
<path d="M113.291 75.8688L111.082 63.0312C110.754 63.0382 110.419 63.0522 110.078 63.0662L112.252 76.0922C112.608 76.0084 112.956 75.9386 113.291 75.8688Z" fill="#FDD0B0"/>
<path d="M112.26 76.0851L110.085 63.0591C109.799 63.073 109.513 63.08 109.221 63.094C109.98 67.4709 110.747 71.8548 111.507 76.2317C111.758 76.1828 112.009 76.134 112.26 76.0851Z" fill="#FFB58F"/>
<path d="M110.552 59.9248L108.105 45.6981C107.792 45.6213 107.471 45.5515 107.144 45.4817L109.534 59.7991C109.869 59.848 110.203 59.8899 110.552 59.9248Z" fill="#FDD0B0"/>
<path d="M107.889 79.3871C108.698 79.3242 109.45 79.2684 110.134 79.2265C109.98 78.3469 109.827 77.4604 109.674 76.5808C108.963 76.7065 108.224 76.8321 107.478 76.9508L107.889 79.3871Z" fill="#E8F5F9"/>
<path d="M109.75 32.1136C109.221 31.1014 107.785 29.8797 105.206 28.9094L106.983 39.2339C109.869 37.9006 111.374 35.1991 109.75 32.1136Z" fill="#FFD9C1"/>
<path d="M106.056 91.31C107.276 91.0797 108.524 90.8633 109.806 90.6608L107.883 79.387C106.712 79.4777 105.429 79.6034 104.084 79.736L106.056 91.31Z" fill="white"/>
<path d="M108.733 59.6805C108.99 59.7224 109.262 59.7643 109.541 59.7992L107.15 45.4817C106.816 45.4119 106.474 45.3421 106.133 45.2793C106.962 50.0751 107.799 54.8638 108.628 59.6596C108.663 59.6666 108.698 59.6735 108.733 59.6805Z" fill="#FFB58F"/>
<path d="M109.806 90.6539C110.545 90.5352 111.298 90.4235 112.057 90.3118C111.416 86.619 110.768 82.9193 110.127 79.2195C109.444 79.2614 108.691 79.3172 107.882 79.38L109.806 90.6539Z" fill="#DEF0F6"/>
<path d="M104.084 79.7292C105.429 79.5965 106.711 79.4779 107.882 79.3801L107.471 76.9438C106.251 77.1463 104.99 77.3487 103.714 77.5512L104.084 79.7292Z" fill="white"/>
<path d="M103.714 77.5581C104.997 77.3557 106.251 77.1532 107.471 76.9508L105.157 63.3733C103.861 63.478 102.571 63.6037 101.359 63.7223L103.714 77.5581Z" fill="#F7CF8F"/>
<path d="M106.99 39.2339L105.213 28.9094C104.927 28.8047 104.634 28.7 104.321 28.6023L106.154 39.569C106.447 39.4643 106.725 39.3526 106.99 39.2339Z" fill="#FDD0B0"/>
<path d="M105.157 63.3663C105.889 63.3035 106.621 63.2476 107.346 63.1987C107.123 61.9003 106.893 60.6019 106.67 59.2965C105.98 59.1988 105.227 59.108 104.418 59.0312L105.157 63.3663Z" fill="#F2A41C"/>
<path d="M104.419 59.0383C105.22 59.115 105.98 59.2058 106.67 59.3035C105.84 54.5217 105.004 49.7329 104.175 44.9442C103.45 44.8325 102.718 44.7417 101.972 44.658L104.419 59.0383Z" fill="#FFB41F"/>
<path d="M106.154 39.562L104.321 28.5953C103.958 28.4767 103.575 28.365 103.171 28.2603C103.847 32.1206 104.516 35.9809 105.185 39.8413C105.52 39.7645 105.84 39.6668 106.154 39.562Z" fill="#FFB58F"/>
<path d="M95.5527 80.7064L97.6785 93.1949C100.25 92.5108 103.052 91.8756 106.056 91.3101L104.084 79.7361C101.366 80.0083 98.3895 80.3434 95.5527 80.7064Z" fill="#DEF0F6"/>
<path d="M101.358 63.7222C102.578 63.6035 103.861 63.4779 105.157 63.3732L104.418 59.0451C103.212 58.9334 101.902 58.8496 100.515 58.8008L101.358 63.7222Z" fill="#F4C573"/>
<path d="M100.919 22.1589C101.937 28.2112 119.536 130.367 120.846 137.857C120.846 130.018 102.467 28.2112 100.919 22.1589Z" fill="white"/>
<path d="M100.522 58.794C101.902 58.8429 103.22 58.9266 104.425 59.0383L101.979 44.658C100.703 44.5184 99.3931 44.4207 98.0688 44.3718L100.522 58.794Z" fill="#F7CF8F"/>
<path d="M95.5527 80.7063C98.3894 80.3433 101.366 80.0082 104.084 79.729L103.714 77.551C100.947 77.9978 98.0828 78.4725 95.2739 79.0519L95.5527 80.7063Z" fill="#E8F5F9"/>
<path d="M100.292 34.7872L101.212 40.1903C101.958 40.1554 102.634 40.1205 103.233 40.0996C103.268 40.0996 103.303 40.0996 103.331 40.0926C102.913 37.6982 102.502 35.3038 102.083 32.9094C102.167 33.4749 101.498 34.131 100.292 34.7872Z" fill="#FFB41F"/>
<path d="M98.062 44.3718C99.3863 44.4206 100.697 44.5184 101.972 44.658L101.212 40.1833C100.097 40.2462 98.8217 40.323 97.3999 40.4556L98.062 44.3718Z" fill="#F4C573"/>
<path d="M101.77 146.821C102.209 147.596 103.805 148.315 104.509 148.636C106.147 149.39 107.841 149.704 109.667 149.704C112.378 149.711 116.393 148.419 117.445 145.383C117.55 145.083 117.647 144.789 117.717 144.51C113.368 150.758 104.244 148.671 101.77 146.821Z" fill="#F47471"/>
<path d="M101.205 40.1903L101.965 44.6649C102.711 44.7487 103.45 44.8394 104.167 44.9511C103.889 43.3316 103.603 41.7121 103.324 40.0925C103.289 40.0925 103.261 40.0925 103.227 40.0995C102.627 40.1205 101.951 40.1484 101.205 40.1903Z" fill="#F2A41C"/>
<path d="M99.7627 31.7087L100.216 34.3614C101.282 33.8518 101.951 33.3492 102.077 32.8885C102.077 32.8885 102.077 32.8815 102.077 32.8745C101.972 32.3091 101.122 31.9182 99.7627 31.7087Z" fill="url(#paint0_linear)"/>
<path d="M93.5386 64.5182C94.3401 64.5112 97.5114 64.1133 101.359 63.7224L100.522 58.794C97.7763 58.6963 94.7653 58.7452 91.8589 58.9895L92.8207 64.6299C93.0856 64.595 93.3295 64.5531 93.5386 64.5182Z" fill="#F2A41C"/>
<path d="M99.679 31.199L99.7626 31.7086C101.122 31.911 101.965 32.3089 102.077 32.8743C102.028 32.6091 101.986 32.3438 101.937 32.0785C101.624 31.6667 100.829 31.3665 99.679 31.199Z" fill="#ABD5E1"/>
<path d="M99.679 31.1991C100.829 31.3666 101.631 31.6598 101.944 32.0786C101.693 30.6615 101.449 29.2444 101.205 27.8204C100.529 27.6947 99.8184 27.59 99.0518 27.4993L99.679 31.1991Z" fill="#DEF0F6"/>
<path d="M100.522 58.794L98.0621 44.3718C97.4208 44.3509 96.7726 44.3369 96.1245 44.3369C93.8941 44.3369 91.6429 44.3997 89.3916 44.5394L91.852 58.9895C94.7653 58.7451 97.7693 58.7033 100.522 58.794Z" fill="#FFB41F"/>
<path d="M100.216 34.3614L100.285 34.7872C101.498 34.131 102.167 33.4748 102.077 32.9024C102.077 32.8954 102.077 32.8954 102.077 32.8884C101.951 33.3492 101.282 33.8518 100.216 34.3614Z" fill="white"/>
<path d="M97.3928 40.4556C98.8147 40.33 100.09 40.2462 101.205 40.1834L100.285 34.7803C99.3653 35.2759 98.1247 35.7715 96.668 36.2253L97.3928 40.4556Z" fill="#F7CF8F"/>
<path d="M98.954 26.9547L99.0516 27.5062C99.8113 27.5899 100.529 27.7016 101.205 27.8273C100.878 25.9355 100.55 24.0507 100.223 22.1589C99.5255 23.5202 98.724 24.6162 97.8528 25.4957C98.4104 25.754 98.8355 26.2845 98.954 26.9547Z" fill="#DEF0F6"/>
<path d="M95.8804 31.5691L96.5774 35.6737C98.034 35.2549 99.2816 34.8081 100.216 34.3614L99.7626 31.7087C98.731 31.5481 97.3998 31.4993 95.8804 31.5691Z" fill="url(#paint1_linear)"/>
<path d="M95.7969 31.0735L95.8805 31.5622C97.4069 31.4994 98.7312 31.5482 99.7627 31.7018L99.6791 31.1922C98.6336 31.0526 97.3093 31.0037 95.7969 31.0735Z" fill="#DEEEF7"/>
<path d="M95.7967 31.0734C97.3091 31.0036 98.6404 31.0455 99.6789 31.1991L99.0516 27.5063C97.9922 27.3806 96.8491 27.2969 95.6155 27.262C95.4761 27.3457 95.3367 27.4295 95.1973 27.5063C95.2042 27.5342 95.2042 27.5691 95.2112 27.597L95.7967 31.0734Z" fill="#F3F9FD"/>
<path d="M99.0515 27.5062L98.9539 26.9547C98.8354 26.2846 98.4103 25.754 97.8457 25.4888C97.1348 26.2078 96.3821 26.7872 95.6084 27.2619C96.8421 27.2968 97.9921 27.3805 99.0515 27.5062Z" fill="white"/>
<path d="M98.0618 44.3717L97.3997 40.4556C94.9811 40.672 92.1305 41.014 88.8965 41.6004L89.3983 44.5393C91.6496 44.3997 93.9008 44.3368 96.1312 44.3368C96.7724 44.3368 97.4206 44.3508 98.0618 44.3717Z" fill="url(#paint2_linear)"/>
<path d="M100.006 143.016C100.16 143.917 101.233 144.51 102.557 144.51C102.808 144.51 103.066 144.489 103.331 144.44C104.983 144.161 106.175 143.058 105.994 141.99L97.6785 93.1948C95.5667 93.7533 93.6081 94.3466 91.8169 94.9609L100.006 143.016Z" fill="#F47471"/>
<path d="M97.6089 143.756C98.3756 157.529 123.62 156.817 121.132 139.721C121.132 156.042 99.6789 154.995 97.6089 143.756Z" fill="white"/>
<path d="M77.2709 6.87825C79.5013 7.03183 82.5541 6.83637 85.8717 6.25697C92.3746 5.12609 97.4347 2.95508 97.1628 1.41234C96.891 -0.130396 91.4057 -0.45849 84.9029 0.672388C78.4 1.80326 73.3469 3.97427 73.6118 5.51701C73.7372 6.27093 75.1242 6.73166 77.2709 6.87825Z" fill="#16DAEF"/>
<path d="M97.8458 25.489C97.6019 25.3773 97.3371 25.3145 97.0583 25.3145C96.9537 25.3145 96.8492 25.3214 96.7446 25.3424C95.8176 25.5029 95.1694 26.3197 95.1694 27.2481C95.1694 27.3319 95.1694 27.4156 95.1834 27.5064C95.3228 27.4296 95.4622 27.3458 95.6016 27.2621C96.3822 26.7874 97.1349 26.208 97.8458 25.489Z" fill="#16DAEF"/>
<path d="M96.6751 36.2322C98.1318 35.7784 99.3654 35.2828 100.292 34.7872L100.223 34.3613C99.2888 34.8081 98.0412 35.2549 96.5845 35.6737L96.6751 36.2322Z" fill="url(#paint3_linear)"/>
<path d="M96.6748 36.2322C95.1275 36.7138 93.3223 37.1467 91.3847 37.4887C90.3113 37.6772 89.2659 37.8168 88.2622 37.9215L88.8895 41.6003C92.1305 41.0209 94.9811 40.6719 97.3927 40.4555L96.6748 36.2322Z" fill="#FFB41F"/>
<path d="M96.675 36.2323L96.5774 35.6738C95.0162 36.1206 93.211 36.5325 91.2803 36.8675C90.207 37.056 89.1615 37.2026 88.1648 37.3213L88.2693 37.9146C89.273 37.8099 90.3185 37.6703 91.3918 37.4818C93.3225 37.1537 95.1277 36.714 96.675 36.2323Z" fill="white"/>
<path d="M87.3911 32.8118L88.1578 37.3283C89.1545 37.2096 90.2 37.063 91.2733 36.8745C93.204 36.5395 95.0161 36.1276 96.5704 35.6808L95.8734 31.5762C94.2494 31.646 92.4024 31.8484 90.4578 32.1835C89.3915 32.365 88.3669 32.5744 87.3911 32.8118Z" fill="url(#paint4_linear)"/>
<path d="M90.4648 32.1763C92.4094 31.8342 94.2564 31.6388 95.8804 31.569L95.7967 31.0803C94.1937 31.1501 92.3746 31.3526 90.4648 31.6876C89.3706 31.8761 88.3111 32.0995 87.3145 32.3438L87.3981 32.8185C88.3669 32.5742 89.3915 32.3648 90.4648 32.1763Z" fill="#ABD5E1"/>
<path d="M95.2738 79.0588C93.2526 79.4777 91.2592 79.9524 89.3564 80.5108L89.5307 81.537C91.3428 81.2647 93.4059 80.9785 95.5526 80.7063L95.2738 79.0588Z" fill="white"/>
<path d="M90.4648 31.6807C92.3745 31.3456 94.1937 31.1502 95.7967 31.0734L95.2043 27.59C95.1973 27.5621 95.1973 27.5272 95.1904 27.4993C93.5106 28.4347 91.7612 28.9024 90.2 29.2235C89.2033 29.4539 88.0463 29.5237 86.8196 29.4469L87.3144 32.3369C88.3111 32.0926 89.3705 31.8692 90.4648 31.6807Z" fill="#DEF0F6"/>
<path d="M97.1978 142.465C95.553 130.088 83.6833 65.1186 82.7145 59.897C82.4078 65.1953 94.9536 132.524 97.1978 142.465Z" fill="white"/>
<path d="M91.8519 58.9893C89.754 59.1638 87.6979 59.436 85.8369 59.8339L86.75 65.1811C89.0988 65.0764 91.371 64.8391 92.8207 64.6297L91.8519 58.9893Z" fill="#F2AE40"/>
<path d="M89.5308 81.5371C88.7781 81.6488 88.0741 81.7675 87.4189 81.8792C88.2205 86.4795 89.015 91.0798 89.8166 95.687C90.4578 95.4427 91.1269 95.1984 91.8169 94.968L89.5308 81.5371Z" fill="#DEF0F6"/>
<path d="M89.5308 81.537L91.8169 94.9609C93.6081 94.3466 95.5667 93.7533 97.6785 93.1948L95.5527 80.7063C93.413 80.9785 91.3429 81.2648 89.5308 81.537Z" fill="white"/>
<path d="M89.3565 80.511C88.6595 80.7204 87.9695 80.9368 87.2935 81.1672C87.3353 81.4045 87.3771 81.6419 87.4189 81.8792C88.0741 81.7675 88.785 81.6558 89.5308 81.5372L89.3565 80.511Z" fill="#E8F5F9"/>
<path d="M88.8896 41.6003C87.6002 41.8307 86.241 42.103 84.8262 42.4171C85.335 43.1361 85.7113 43.9529 85.9204 44.7766C85.9204 44.7905 85.9274 44.8115 85.9344 44.8254C87.0844 44.7068 88.2344 44.616 89.3914 44.5392L88.8896 41.6003Z" fill="#F2AE40"/>
<path d="M88.1647 37.3281L87.3981 32.8115C85.0144 33.3839 82.9722 34.082 81.5713 34.7801L82.0383 37.5375C83.5856 37.6841 85.7392 37.6073 88.1647 37.3281Z" fill="url(#paint5_linear)"/>
<path d="M87.3144 32.3369C84.9377 32.9163 82.8956 33.6283 81.4946 34.3474L81.5643 34.7802C82.9653 34.0751 85.0074 33.384 87.3911 32.8116L87.3144 32.3369Z" fill="#DEEEF7"/>
<path d="M92.8136 64.6367C91.3639 64.8392 89.0918 65.0765 86.7429 65.1882L89.3566 80.5179C91.2594 79.9594 93.2527 79.4847 95.274 79.0659L92.8136 64.6367Z" fill="#F4C573"/>
<path d="M81.0904 28.4767C80.7837 28.8607 80.6373 29.2935 80.707 29.7193L81.4946 34.3475C82.8956 33.6285 84.9377 32.9165 87.3144 32.3371L86.8196 29.447C85.1259 29.3423 83.3277 28.9654 81.7177 28.3511C81.5086 28.3999 81.2925 28.4348 81.0904 28.4767Z" fill="#F3F9FD"/>
<path d="M86.8197 29.454L86.6943 28.7001C86.6246 28.3022 86.3737 27.9601 86.0043 27.7088C85.5373 27.3877 84.8751 27.1992 84.1363 27.1992C83.8854 27.1992 83.6275 27.2202 83.3627 27.262C82.5333 27.4017 81.8154 27.7507 81.3345 28.2044C81.4599 28.2603 81.5854 28.3022 81.7108 28.351C83.3278 28.9653 85.133 29.3493 86.8197 29.454Z" fill="#16DAEF"/>
<path d="M91.8519 58.9894L89.3915 44.5393C88.2345 44.6091 87.0845 44.7068 85.9345 44.8255C86.9381 48.7836 86.29 52.0645 84.9727 54.801L85.8299 59.8341C87.6979 59.4362 89.754 59.1639 91.8519 58.9894Z" fill="#F4C573"/>
<path d="M45.5791 115.561C55.3578 108.615 71.4511 109.076 81.7107 92.1477C80.7001 84.064 79.5153 74.0746 78.644 68.5529C76.5322 70.5493 75.8352 72.7273 73.8348 75.2753C72.2527 77.2997 69.8411 78.3398 68.1544 81.195C65.4641 89.9209 59.4839 97.3972 49.071 103.093C53.5526 99.7427 64.3628 89.0413 64.3628 77.4882L64.314 77.3905C70.0641 74.675 72.9287 69.8094 77.9052 63.9386C78.3164 63.4499 78.7416 62.9613 79.1877 62.4587C79.4943 62.1166 79.801 61.7746 80.1216 61.4255C80.3028 61.2301 80.491 61.0276 80.6792 60.8182C80.9441 60.525 81.2159 60.2249 81.4877 59.9107C82.0732 59.2336 82.6656 58.5076 83.2232 57.7258C83.8644 56.8252 84.4708 55.8479 84.9726 54.7939C86.2899 52.0504 86.9381 48.7695 85.9345 44.8184C85.9345 44.8044 85.9275 44.7835 85.9205 44.7695C85.7114 43.9458 85.3351 43.1291 84.8263 42.41C84.2269 41.5654 83.4462 40.8533 82.5332 40.4485C81.8153 40.1273 81.0138 39.9808 80.1634 40.1064C79.5292 40.1902 78.8601 40.4275 78.177 40.8324C77.9122 40.986 77.6404 41.1745 77.3685 41.3909C77.0688 41.6282 76.7622 41.8935 76.4555 42.2006C75.3821 43.2757 74.3436 44.3996 73.3051 45.5304C72.4618 46.4519 71.6115 47.3803 70.7472 48.3018C69.1023 50.0539 67.4017 51.7642 65.5059 53.3349C61.0382 57.0277 55.9433 59.4849 50.6183 61.5582C44.7427 63.8479 39.599 66.0887 36.5114 71.7919C34.4274 75.6453 31.4234 82.0606 27.7433 86.8424C33.9046 75.8687 32.8383 72.5947 38.2887 66.3051C40.7839 62.3959 51.0923 59.9526 55.9921 56.7415C60.2367 51.5618 68.1544 46.2494 74.2879 43.2757C75.8421 41.9005 73.5769 31.0175 73.4027 30.5149C55.7969 36.3578 44.2548 48.574 39.5363 53.6071C33.8698 59.6455 32.0925 66.347 28.8654 71.9455C27.3112 74.647 23.6938 81.907 16.954 89.0552C10.7439 95.0726 4.29678 100.113 1.18823 103.107C1.18823 103.107 0.170636 112.008 2.84008 123.156C5.50953 134.304 10.033 144.796 13.8664 147.079C14.4727 147.435 14.9815 147.693 15.3509 147.805C27.7363 129.983 37.4453 122.032 45.5791 115.561Z" fill="#FFD9C1"/>
<path d="M85.8368 59.834C85.084 59.9945 84.3661 60.1691 83.6831 60.3715C83.9619 61.998 84.2477 63.6175 84.5265 65.244C85.2583 65.244 86.0041 65.2231 86.7429 65.1882L85.8368 59.834Z" fill="#F2A41C"/>
<path d="M84.9794 54.801C84.4776 55.8551 83.8712 56.8324 83.23 57.7329C83.3833 58.6125 83.5367 59.4921 83.69 60.3716C84.373 60.1692 85.0909 59.9947 85.8437 59.8341L84.9794 54.801Z" fill="#FFB41F"/>
<path d="M88.2624 37.9216C85.823 38.1729 83.6623 38.1729 82.1011 37.9496L82.5262 40.4556C83.4393 40.8605 84.2199 41.5725 84.8193 42.4172C86.2342 42.1031 87.5863 41.8308 88.8827 41.6005L88.2624 37.9216Z" fill="#F4C573"/>
<path d="M82.0383 37.5445L82.108 37.9494C83.6623 38.1728 85.823 38.1728 88.2694 37.9215L88.1648 37.3281C85.7393 37.6074 83.5856 37.6841 82.0383 37.5445Z" fill="url(#paint6_linear)"/>
<path d="M82.0382 37.5445L81.5712 34.7871C80.226 35.4642 79.4803 36.1414 79.5779 36.7417C79.8357 37.1536 80.7209 37.4258 82.0382 37.5445Z" fill="url(#paint7_linear)"/>
<path d="M84.3522 82.319C83.4461 77.0206 82.4355 71.087 81.4179 65.1185C79.6894 64.9509 78.3512 64.5949 77.9121 63.9387C72.9356 69.8095 70.071 74.6751 64.3209 77.3906L64.3697 77.4883C64.3697 89.0414 53.5664 99.7429 49.0778 103.094C59.4838 97.3973 65.4709 89.914 68.1613 81.1951C69.848 78.3469 72.2595 77.3068 73.8417 75.2754C75.842 72.7274 76.539 70.5495 78.6509 68.553C79.5151 74.0747 80.707 84.0641 81.7176 92.1478C71.458 109.076 55.3646 108.615 45.586 115.561C37.4522 122.032 27.7501 129.983 15.3647 147.791C34.2112 125.711 46.6245 117.879 50.7436 116.497C52.6185 115.868 73.312 112.713 82.6237 99.1774C83.7597 98.4235 85.1746 97.6626 86.8474 96.9087C86.2619 93.4811 85.3907 88.3782 84.3801 82.4586L84.3522 82.319Z" fill="#FDD0B0"/>
<path d="M81.0903 28.4767C81.2994 28.4348 81.5085 28.3929 81.7176 28.358C81.5922 28.3092 81.4667 28.2603 81.3412 28.2114C81.2437 28.2952 81.16 28.3859 81.0903 28.4767Z" fill="#AADBEE"/>
<path d="M81.3413 28.2113C79.8498 27.604 78.5534 26.7942 77.6821 25.8169C77.8703 26.9129 78.0655 28.0158 78.2537 29.1118C79.1806 28.8814 80.1286 28.672 81.0904 28.4835C81.1601 28.3858 81.2437 28.295 81.3413 28.2113Z" fill="#DEF0F6"/>
<path d="M88.1089 19.1295C84.9446 19.681 82.0243 19.8834 79.8288 19.7717C79.2712 20.0509 78.4906 20.5605 78.2188 20.9724V20.9864C80.93 21.1539 84.4568 20.9235 88.2344 20.2604C95.9988 18.9061 102.07 16.1906 102.209 14.0685H102.237C102.237 14.0475 102.23 14.0336 102.23 14.0126C102.181 13.7194 102.021 13.4542 101.77 13.2168C101.24 12.7212 100.285 12.3372 99.0167 12.0859L99.4001 14.2849C99.6649 15.8276 94.6118 17.9986 88.1089 19.1295Z" fill="#E6F4FB"/>
<path d="M80.7907 61.4674C81.0765 61.3278 81.3762 61.1882 81.6898 61.0626C81.6271 60.6856 81.5574 60.3017 81.4877 59.9177C81.2159 60.2319 80.9441 60.532 80.6792 60.8252C80.714 61.0416 80.7559 61.258 80.7907 61.4674Z" fill="#FFB58F"/>
<path d="M80.679 60.8252C80.4909 61.0346 80.3027 61.2371 80.1215 61.4325C79.8008 61.7816 79.4872 62.1236 79.1875 62.4657C79.6405 62.1027 80.1842 61.7746 80.7906 61.4674C80.7557 61.258 80.7139 61.0416 80.679 60.8252Z" fill="#FDD0B0"/>
<path d="M82.1079 37.9495L82.0382 37.5446C80.7209 37.426 79.8358 37.1607 79.5779 36.7349C79.6824 37.3282 80.6164 37.7401 82.1079 37.9495Z" fill="white"/>
<path d="M79.5779 36.7349C79.773 37.8588 79.9682 38.9827 80.1633 40.1066C81.0137 39.9879 81.8152 40.1275 82.5331 40.4486L82.1079 37.9425C80.6164 37.7401 79.6824 37.3282 79.5779 36.7349Z" fill="#FFB41F"/>
<path d="M81.5643 34.7802L81.4946 34.3474C80.2191 34.9966 79.4733 35.6528 79.4873 36.2182C79.5151 36.3858 79.543 36.5603 79.5779 36.7278C79.4733 36.1415 80.2261 35.4573 81.5643 34.7802Z" fill="#ABD5E1"/>
<path d="M81.4946 34.3544L80.707 29.7262C80.6373 29.3004 80.7837 28.8606 81.0904 28.4836C80.1286 28.6721 79.1807 28.8815 78.2537 29.1119C78.6719 31.4854 79.0761 33.8588 79.4943 36.2322C79.4734 35.6598 80.2192 35.0036 81.4946 34.3544Z" fill="#DEF0F6"/>
<path d="M85.8647 6.2499C82.5471 6.8293 79.5012 7.02476 77.2639 6.87118V6.92005C77.2639 6.92005 78.0167 11.4924 78.5464 14.6826C78.6161 15.1224 78.6858 15.5273 78.7485 15.8973C78.867 16.5883 78.9576 17.1398 79.0064 17.44C79.2364 18.7733 83.9759 19.0525 89.5866 18.0822C94.3261 17.2585 98.4522 15.5203 99.3931 14.2847L99.0098 12.0858L97.1558 1.40527C97.4277 2.94801 92.3676 5.11902 85.8647 6.2499Z" fill="#00C2E3"/>
<path d="M76.8458 25.3145C76.5809 27.2621 78.63 39.234 79.2782 39.8413C79.2713 37.7192 77.1176 26.7455 76.8458 25.3145Z" fill="white"/>
<path d="M77.9818 24.9163C77.8215 24.8884 77.6611 24.8535 77.5078 24.8186C77.5427 24.9931 77.5705 25.1746 77.5984 25.3491L77.6821 25.3352C80.6861 26.8919 92.6323 27.6458 100.132 21.6494C100.097 21.433 100.055 21.2096 100.02 20.9932C97.6158 22.4801 93.8451 23.932 89.022 24.7697C84.4707 25.5655 80.7 25.4399 77.9818 24.9163Z" fill="#009FAF"/>
<path d="M77.6823 25.3352L77.5986 25.3492C77.6265 25.5028 77.6544 25.6563 77.6823 25.8099C78.5535 26.7872 79.8499 27.597 81.3414 28.2043C81.8224 27.7575 82.5402 27.4085 83.3697 27.2619C83.6345 27.22 83.8924 27.1991 84.1433 27.1991C84.8821 27.1991 85.5442 27.3806 86.0112 27.7087C86.3806 27.96 86.6315 28.302 86.7012 28.6999L86.8267 29.4539C88.0464 29.5307 89.2104 29.4608 90.2071 29.2305C91.7683 28.9094 93.5177 28.4417 95.1975 27.5062C95.1835 27.4225 95.1835 27.3387 95.1835 27.248C95.1835 26.3195 95.8317 25.5028 96.7587 25.3422C96.8633 25.3213 96.9678 25.3143 97.0724 25.3143C97.3511 25.3143 97.616 25.3771 97.86 25.4888C98.7312 24.6092 99.5327 23.5202 100.23 22.152C100.202 21.9845 100.167 21.817 100.139 21.6494C92.6256 27.6459 80.6863 26.8919 77.6823 25.3352Z" fill="#00C2E3"/>
<path d="M78.1768 40.8326C77.5286 37.0979 76.8804 33.3702 76.2322 29.6355C75.9535 29.7123 75.6816 29.7891 75.4028 29.8728C75.828 32.351 76.518 36.4138 77.3683 41.3841C77.6332 41.1746 77.905 40.9931 78.1768 40.8326Z" fill="#FFB58F"/>
<path d="M80.1633 40.1065C79.9682 38.9826 79.773 37.8587 79.5779 36.7348C79.55 36.5673 79.5221 36.3928 79.4873 36.2252C79.076 33.8518 78.6648 31.4783 78.2466 29.1049C78.0584 28.0089 77.8703 26.906 77.6751 25.81C77.6472 25.6564 77.6193 25.5028 77.5915 25.3493C77.5636 25.1747 77.5287 24.9933 77.5009 24.8187C76.6366 24.6303 75.8839 24.3929 75.2705 24.1416C75.5911 25.9706 75.9048 27.8065 76.2254 29.6354C76.8736 33.3701 77.5218 37.0978 78.17 40.8325C78.86 40.4276 79.5291 40.1973 80.1633 40.1065ZM76.8457 25.3144C77.1245 26.7454 79.2782 37.7191 79.2782 39.8412C78.63 39.2339 76.5739 27.262 76.8457 25.3144Z" fill="#E6F4FB"/>
<path d="M79.8218 19.7716C82.0173 19.8833 84.9447 19.6809 88.102 19.1294C94.6048 17.9985 99.658 15.8275 99.3931 14.2848C98.4522 15.5204 94.3261 17.2586 89.5866 18.0823C83.9758 19.0596 79.2364 18.7734 79.0064 17.4401C78.9506 17.1399 78.86 16.5884 78.7485 15.8973C78.6857 15.5274 78.616 15.1225 78.5464 14.6827C78.0166 11.4925 77.2639 6.92012 77.2639 6.92012V6.87125C75.1172 6.73164 73.7372 6.26393 73.6047 5.51001L75.4517 16.1347L75.8421 18.3825C75.9814 19.1853 77.5009 19.6599 79.8218 19.7716Z" fill="#009FAF"/>
<path d="M72.9497 19.1154C72.9567 19.1712 72.9706 19.2271 72.9915 19.2759C73.4794 20.2393 75.424 20.8187 78.2119 20.9862V20.9723C78.4907 20.5674 79.2644 20.0508 79.8219 19.7716C77.494 19.6529 75.9816 19.1782 75.8422 18.3894L75.4519 16.1416C74.274 16.8327 73.4585 17.5377 73.117 18.2149C72.9567 18.522 72.9009 18.8292 72.9497 19.1154Z" fill="#C9E5EE"/>
<path d="M74.2809 43.2688C68.1544 46.2356 60.2367 51.5479 55.9851 56.7346C51.0853 59.9458 40.7769 62.396 38.2817 66.2982C32.8313 72.5879 33.8977 75.8618 27.7363 86.8355C31.4164 82.0537 34.4204 75.6384 36.5044 71.7851C39.592 66.0748 44.7358 63.834 50.6113 61.5513C55.9363 59.4781 61.0312 57.0208 65.4989 53.328C67.3947 51.7644 69.0953 50.0471 70.7402 48.2949C66.7326 49.8586 62.927 51.9877 59.4839 54.8708C63.0455 50.8638 68.6493 47.5689 73.2981 45.5236C74.3367 44.3927 75.3752 43.2688 76.4485 42.1938C76.7552 41.8866 77.0619 41.6144 77.3616 41.384C76.5112 36.4137 75.8212 32.351 75.3961 29.8728C74.72 30.0752 74.0509 30.2847 73.3957 30.5011C73.57 31.0176 75.8352 41.9006 74.2809 43.2688Z" fill="#FDD0B0"/>
<path d="M88.2972 20.6651C96.3125 19.269 102.516 16.3231 102.23 14.0684H102.202C102.063 16.1905 95.9919 18.906 88.2275 20.2603C84.4429 20.9164 80.9231 21.1538 78.2119 20.9863C75.4239 20.8187 73.4793 20.2393 72.9915 19.276C73.333 20.344 75.1939 21.0351 77.9609 21.2864C80.714 21.5377 84.3593 21.3562 88.2972 20.6651Z" fill="white"/>
<path d="M77.9818 24.9163C77.5636 24.1066 77.2709 22.0124 77.9609 21.2864C75.2008 21.0351 73.3399 20.344 72.9914 19.2759C72.9775 19.2201 72.9566 19.1712 72.9496 19.1154C72.9008 18.8291 72.9566 18.522 73.1169 18.2148C71.6323 20.1834 72.9426 22.5708 73.6675 23.22C74.0229 23.5411 74.5666 23.8553 75.2775 24.1485C75.8978 24.3998 76.6436 24.6301 77.5079 24.8256C77.6612 24.8535 77.8215 24.8884 77.9818 24.9163Z" fill="#A7CFD8"/>
<path d="M107.471 76.9507C108.217 76.8251 108.956 76.7064 109.667 76.5807C108.893 72.1201 108.119 67.6663 107.346 63.2126C106.621 63.2615 105.889 63.3174 105.157 63.3802L107.471 76.9507Z" fill="#FFB41F"/>
<path d="M92.8135 64.6369L95.2738 79.0591C98.0827 78.4797 100.954 78.005 103.714 77.5582L101.359 63.7224C97.5181 64.1133 94.3399 64.5182 93.5383 64.5182C93.3293 64.5531 93.0853 64.595 92.8135 64.6369Z" fill="#FFB41F"/>
<path d="M86.7428 65.1812C86.004 65.2161 85.2582 65.237 84.5264 65.237C85.4464 70.5424 86.3664 75.8547 87.2934 81.167C87.9695 80.9367 88.6595 80.7203 89.3565 80.5108L86.7428 65.1812Z" fill="#FFB41F"/>
<defs>
<linearGradient id="paint0_linear" x1="99.4999" y1="23.3128" x2="104.137" y2="52.5148" gradientUnits="userSpaceOnUse">
<stop offset="0.00606061" stop-color="white"/>
<stop offset="0.1495" stop-color="#FDF2E0"/>
<stop offset="0.4637" stop-color="#F9D092"/>
<stop offset="0.9223" stop-color="#F39A16"/>
<stop offset="1" stop-color="#F29100"/>
</linearGradient>
<linearGradient id="paint1_linear" x1="96.5935" y1="23.775" x2="101.23" y2="52.9745" gradientUnits="userSpaceOnUse">
<stop offset="0.00606061" stop-color="white"/>
<stop offset="0.3654" stop-color="#FFFEFD"/>
<stop offset="0.4996" stop-color="#FFFBF6"/>
<stop offset="0.5961" stop-color="#FEF6EA"/>
<stop offset="0.6746" stop-color="#FDEFD9"/>
<stop offset="0.742" stop-color="#FCE5C3"/>
<stop offset="0.802" stop-color="#FBD9A7"/>
<stop offset="0.8563" stop-color="#F9CB87"/>
<stop offset="0.9063" stop-color="#F7BB61"/>
<stop offset="0.953" stop-color="#F5A835"/>
<stop offset="0.9945" stop-color="#F29407"/>
<stop offset="1" stop-color="#F29100"/>
</linearGradient>
<linearGradient id="paint2_linear" x1="72.7438" y1="46.7753" x2="109.279" y2="40.1187" gradientUnits="userSpaceOnUse">
<stop offset="0.00606061" stop-color="white"/>
<stop offset="0.023" stop-color="#FEF8F0"/>
<stop offset="0.0979" stop-color="#FBDDB1"/>
<stop offset="0.1721" stop-color="#F8C67B"/>
<stop offset="0.2437" stop-color="#F6B34F"/>
<stop offset="0.3122" stop-color="#F4A42D"/>
<stop offset="0.3768" stop-color="#F39A14"/>
<stop offset="0.4361" stop-color="#F29305"/>
<stop offset="0.4848" stop-color="#F29100"/>
<stop offset="0.5364" stop-color="#F29305"/>
<stop offset="0.6002" stop-color="#F39A14"/>
<stop offset="0.6703" stop-color="#F4A52E"/>
<stop offset="0.7451" stop-color="#F6B451"/>
<stop offset="0.8236" stop-color="#F8C77E"/>
<stop offset="0.9052" stop-color="#FBDFB5"/>
<stop offset="0.9879" stop-color="#FEFBF5"/>
<stop offset="1" stop-color="white"/>
</linearGradient>
<linearGradient id="paint3_linear" x1="96.6202" y1="23.7725" x2="101.256" y2="52.9682" gradientUnits="userSpaceOnUse">
<stop offset="0.00606061" stop-color="white"/>
<stop offset="0.3654" stop-color="#FFFEFD"/>
<stop offset="0.4996" stop-color="#FFFBF6"/>
<stop offset="0.5961" stop-color="#FEF6EA"/>
<stop offset="0.6746" stop-color="#FDEFD9"/>
<stop offset="0.742" stop-color="#FCE5C3"/>
<stop offset="0.802" stop-color="#FBD9A7"/>
<stop offset="0.8563" stop-color="#F9CB87"/>
<stop offset="0.9063" stop-color="#F7BB61"/>
<stop offset="0.953" stop-color="#F5A835"/>
<stop offset="0.9945" stop-color="#F29407"/>
<stop offset="1" stop-color="#F29100"/>
</linearGradient>
<linearGradient id="paint4_linear" x1="90.4826" y1="24.7461" x2="95.1187" y2="53.9439" gradientUnits="userSpaceOnUse">
<stop offset="0.00606061" stop-color="white"/>
<stop offset="0.1495" stop-color="#FDF2E0"/>
<stop offset="0.4637" stop-color="#F9D092"/>
<stop offset="0.9223" stop-color="#F39A16"/>
<stop offset="1" stop-color="#F29100"/>
</linearGradient>
<linearGradient id="paint5_linear" x1="83.2563" y1="25.8928" x2="87.8927" y2="55.0918" gradientUnits="userSpaceOnUse">
<stop offset="0.00606061" stop-color="white"/>
<stop offset="0.1877" stop-color="#FFFEFC"/>
<stop offset="0.3197" stop-color="#FEFAF3"/>
<stop offset="0.436" stop-color="#FEF3E3"/>
<stop offset="0.5432" stop-color="#FCE9CC"/>
<stop offset="0.6442" stop-color="#FBDDAF"/>
<stop offset="0.7406" stop-color="#F9CD8C"/>
<stop offset="0.8333" stop-color="#F7BB62"/>
<stop offset="0.9208" stop-color="#F5A732"/>
<stop offset="1" stop-color="#F29100"/>
</linearGradient>
<linearGradient id="paint6_linear" x1="83.2762" y1="25.8903" x2="87.9124" y2="55.0883" gradientUnits="userSpaceOnUse">
<stop offset="0.00606061" stop-color="white"/>
<stop offset="0.3764" stop-color="#FFFEFD"/>
<stop offset="0.5099" stop-color="#FFFBF6"/>
<stop offset="0.605" stop-color="#FEF6EB"/>
<stop offset="0.6819" stop-color="#FDEFDA"/>
<stop offset="0.7478" stop-color="#FCE5C4"/>
<stop offset="0.8062" stop-color="#FBDAA8"/>
<stop offset="0.859" stop-color="#F9CC88"/>
<stop offset="0.9075" stop-color="#F7BB62"/>
<stop offset="0.9526" stop-color="#F5A937"/>
<stop offset="0.9927" stop-color="#F29509"/>
<stop offset="1" stop-color="#F29100"/>
</linearGradient>
<linearGradient id="paint7_linear" x1="79.1307" y1="26.548" x2="83.7671" y2="55.7471" gradientUnits="userSpaceOnUse">
<stop offset="0.00606061" stop-color="white"/>
<stop offset="0.1495" stop-color="#FDF2E0"/>
<stop offset="0.4637" stop-color="#F9D092"/>
<stop offset="0.9223" stop-color="#F39A16"/>
<stop offset="1" stop-color="#F29100"/>
</linearGradient>
</defs>
</svg>
