<svg width="146" height="133" viewBox="0 0 146 133" fill="none" xmlns="http://www.w3.org/2000/svg">
<path d="M130.93 82.3501C133.47 79.5001 138.57 76.6601 137.92 72.2601C137.61 70.1501 136.52 68.2101 136.25 66.1001C135.84 62.8601 137.4 59.5402 136.6 56.3702C136.12 54.4502 134.83 52.8601 133.74 51.2101C129.94 45.4701 128.26 38.4901 124.24 32.9001C119.28 26.0001 111.37 21.9701 103.76 18.1901C98.77 15.7101 93.65 13.1901 88.1 12.6301C79.67 11.7701 71.34 15.5301 62.88 15.0401C60.27 14.8901 57.65 14.3401 55.06 14.7001C51.46 15.2001 48.31 17.4001 44.77 18.2401C41.51 19.0101 38.03 18.6101 34.86 19.6901C27.97 22.0201 25.16 30.0201 20.33 35.4501C18.28 37.7601 15.8 39.6401 13.56 41.7601C9.84998 45.2601 6.90997 49.2701 4.92997 53.9301C3.99997 56.1101 2.59001 57.7901 2.09001 60.1901C1.61001 62.5001 1.75999 64.8901 2.25999 67.1801C3.18999 71.4601 5.93 75.0101 7.4 79.0801C8.92 83.2901 8.61 87.5801 12.4 90.6901C14.48 92.4001 17.06 93.4101 19.66 94.1101C26.15 95.8701 32.41 95.4901 38.26 92.0901C38.27 94.2401 38.29 96.4501 39.04 98.4701C39.79 100.49 41.43 102.31 43.55 102.67C44.69 102.86 45.88 102.62 47.01 102.88C48.88 103.33 49.73 104.87 50.93 106.17C52.2 107.54 53.92 108.49 55.77 108.79C59.41 109.39 61.92 107.78 64.96 106.18C66.2 105.52 67.47 104.86 68.85 104.66C69.3699 104.59 69.93 104.59 70.4 104.82C70.71 104.97 70.9699 105.22 71.2199 105.46C72.3599 106.55 73.5 108.19 74.82 109.03C76.72 110.25 78.69 111.54 80.75 112.51C82.05 113.12 83.85 113.59 84.94 114.53C86.02 115.46 86.96 116.91 87.89 118.02C89.78 120.26 91.59 122.57 93.37 124.9C94.69 126.62 95.56 129.73 97.46 130.85C99.96 132.32 104.15 131.97 106.81 131.24C107.07 131.17 107.33 131.08 107.52 130.89C107.76 130.64 107.81 130.28 107.82 129.93C108.03 125.95 105.48 122.32 102.48 119.71C102.25 119.51 101.99 119.23 102.08 118.94C102.18 118.62 102.6 118.56 102.93 118.56C106.04 118.54 109.15 118.52 112.27 118.5C113.53 118.49 114.82 118.48 116.03 118.11C118.42 117.39 120.19 115.39 121.59 113.32C122.98 111.25 124.16 108.99 125.96 107.26C126.96 106.3 128.14 105.52 129.01 104.45C130.44 102.69 130.9 100.34 131.2 98.0901C131.83 93.3801 131.99 88.5101 130.64 83.9601C130.54 83.6301 130.44 83.2801 130.54 82.9601C130.61 82.7101 130.77 82.5301 130.93 82.3501Z" fill="#56E8EF"/>
<path d="M79.24 60.5702C79.57 60.3002 79.74 59.8803 79.59 59.2303C79.51 58.8503 79.28 58.5102 79.06 58.1902C78.52 57.4002 77.98 56.6102 77.44 55.8202C76.3 54.1502 75.14 52.4703 74.32 50.6203C73.56 48.9303 73.46 46.9302 73.38 45.0902C73.29 43.0102 73.43 40.8702 74.25 38.9502C76.73 33.1302 84.27 32.0802 87.58 27.0302C88.32 25.9002 88.56 24.5202 89.08 23.2802C90.51 19.8902 94.13 17.6902 97.8 17.4702C97.8 17.1502 97.43 16.9703 97.12 16.8703C93.31 15.6903 89.82 13.7303 85.95 12.6703C81.83 11.5403 77.2 12.2202 73.21 13.6402C69.46 14.9802 67.09 16.1402 62.88 15.9002C60.27 15.7502 57.65 15.2003 55.06 15.5603C51.46 16.0603 48.31 18.2602 44.77 19.1002C41.51 19.8702 38.03 19.4703 34.86 20.5503C27.97 22.8803 25.16 30.8803 20.33 36.3103C18.28 38.6203 15.8 40.5003 13.56 42.6203C9.84998 46.1203 6.90997 50.1302 4.92997 54.7902C3.99997 56.9702 2.59001 58.6503 2.09001 61.0503C1.61001 63.3603 1.75999 65.7502 2.25999 68.0402C3.18999 72.3202 5.93 75.8702 7.4 79.9402C8.92 84.1502 8.61 88.4403 12.4 91.5503C14.48 93.2603 17.06 94.2702 19.66 94.9702C25.98 96.6802 34.71 96.8702 39.18 91.4602C43.39 86.3702 43.55 78.9703 48.18 74.0603C50.03 72.1003 52.37 70.7703 54.87 69.8103C57.63 68.7503 61.08 68.7503 63.68 67.4903C65.9 66.4103 67.48 64.2002 69.8 63.0202C71.67 62.0702 73.7 61.4202 75.78 61.1302C76.64 61.0202 78.43 61.2302 79.24 60.5702Z" fill="white"/>
<path d="M97.3099 15.9202C87.0999 26.4402 87.3999 42.4902 99.5799 51.3102C104.65 54.9802 111.18 56.5302 117.4 56.1102C122.3 55.7802 130.35 53.4702 130.94 47.7102C131.02 46.8902 130.16 46.1402 129.39 46.1602C125.41 46.2802 121.95 49.7602 118.03 50.7602C113.01 52.0402 107.94 51.3802 103.41 48.8302C98.5799 46.1202 94.56 41.2602 93.59 35.7102C92.43 29.0902 95.9699 22.8202 99.0099 17.2202C99.5799 16.1702 98.1899 15.0202 97.3099 15.9202Z" fill="#01C7E3"/>
<path d="M97.6101 17.0801C93.0601 11.2001 83.6101 11.0302 76.8901 11.9202C72.0701 12.5602 66.7901 15.6001 61.9701 14.5101C58.5301 13.7201 56.6301 13.5602 53.3201 14.9802C48.2101 17.1702 43.5801 17.6901 38.1201 18.5901C34.7501 19.1501 31.2801 20.1502 28.6901 22.5002C25.5301 25.3702 24.1801 29.8701 21.4101 33.1301C18.4201 36.6501 15.0001 39.8101 11.9201 43.2701C6.95007 48.8601 1.03006 55.1501 0.230063 62.9501C-0.0999366 66.1601 0.50009 69.3901 2.32009 72.0801C3.68009 74.0901 5.29011 75.4001 6.03011 77.8301C6.69011 80.0001 6.40008 82.1102 6.75008 84.3102C7.94008 91.8702 15.4201 95.3102 22.3701 95.8602C28.0401 96.3102 37.1601 95.4902 40.8301 90.4702C43.8701 86.3202 45.3201 81.1501 48.3801 76.9601C50.5701 73.9701 53.3701 71.3702 56.9201 70.1002C58.9501 69.3802 61.1201 69.2102 63.1201 68.3502C65.2001 67.4502 66.8501 65.9202 68.8101 64.8102C71.8801 63.0702 75.2001 62.2302 78.6901 61.9202C83.2001 61.5302 93.3201 60.4502 96.0901 65.0602C96.6801 66.0502 98.0801 65.1802 97.6101 64.1702C95.2201 59.0102 88.3801 59.3302 83.5301 59.2802C80.2401 59.2502 76.8701 59.4002 73.6601 60.1802C69.7101 61.1402 66.9401 63.4502 63.4601 65.3602C60.2401 67.1302 56.4401 67.1902 53.2401 69.0302C50.4301 70.6502 48.1501 73.0801 46.2801 75.7001C43.9501 78.9601 42.3401 82.6302 40.5101 86.1702C38.2501 90.5302 35.6401 91.7601 30.8501 92.8301C25.4101 94.0501 19.0301 94.0802 14.1001 91.1102C8.67006 87.8502 9.63009 83.2402 8.57009 77.9902C7.99009 75.1402 6.35006 73.6201 4.66006 71.3801C1.18006 66.7601 2.08008 60.8402 4.75008 56.0302C8.90008 48.5602 15.4901 42.5301 21.2301 36.3201C23.6601 33.6901 25.5801 30.9901 27.2801 27.8401C30.2501 22.3601 35.0001 20.8302 40.8501 20.0602C44.7501 19.5502 48.5201 19.1902 52.1501 17.5302C52.8501 17.2102 53.5201 16.8102 54.2301 16.4902C57.0001 15.2302 58.6701 15.5002 61.5601 16.0002C63.1201 16.2702 64.1401 16.5302 65.7101 16.3002C70.7901 15.5502 75.2001 13.1401 80.5001 12.8401C86.1001 12.5201 93.4201 12.8002 97.4201 17.2502C97.5401 17.4202 97.7201 17.2201 97.6101 17.0801Z" fill="#01C7E3"/>
<path d="M38.4099 91.3802C37.0099 94.6402 37.1 97.9802 39.46 100.83C40.44 102.01 41.7 102.95 43.13 103.52C44.7 104.14 46.5999 103.67 47.9999 104.34C49.4599 105.03 50.33 106.89 51.7 107.85C52.96 108.74 54.4299 109.43 55.9699 109.65C57.5599 109.87 58.9699 109.58 60.4399 109.01C64.0399 107.62 67.17 105.9 71.01 105.13C70.59 104.89 70.1599 104.65 69.7399 104.41C71.1299 107.75 73.4699 109.98 76.6099 111.75C78.5199 112.83 80.65 113.32 82.63 114.24C85.69 115.66 87.2799 118.44 89.2499 121.02C91.8699 124.46 93.3099 129.73 97.3499 131.87C100.45 133.51 104.25 133.03 107.41 131.89C108.33 131.56 108.28 129.91 107.16 130.05C101.79 130.7 98.45 131.01 95.01 125.88C92.75 122.51 90.78 119.15 88.27 115.92C83.74 110.1 74.87 111.17 71.63 103.61C71.44 103.18 70.87 103.05 70.46 103.14C67.47 103.78 64.7 104.76 61.95 106.08C56.62 108.63 52.43 107.41 49.32 102.53C49.09 102.18 48.7199 102.04 48.3099 102.12C45.3299 102.72 41.25 101.73 39.83 98.6103C38.82 96.4003 38.9299 93.8403 38.7199 91.4903C38.7299 91.3203 38.4899 91.2002 38.4099 91.3802Z" fill="#01C7E3"/>
<path d="M129.53 47.0501C130.72 49.0801 132.31 50.8201 133.5 52.8501C135.71 56.6501 135.1 59.0801 135.29 63.0701C135.36 64.5601 136.03 65.5001 136.4 66.8801C137.83 72.2101 135.87 75.4401 133.16 79.6901C132.8 80.2601 133.64 80.9201 134.1 80.4101C136.04 78.2601 138.02 75.8401 138.71 72.9501C139.54 69.4801 137.89 66.8101 137.46 63.4701C137.05 60.2701 137.33 57.2701 136 54.2401C134.71 51.3201 132.5 48.6301 129.99 46.6901C129.75 46.5001 129.35 46.7401 129.53 47.0501Z" fill="#01C7E3"/>
<path d="M69.56 14.3701C78.97 14.2501 89.1101 11.0901 97.2001 17.7501C98.5101 18.8301 100.4 16.92 99.0701 15.88C90.6101 9.21005 79.15 11.0001 69.5 13.9101C69.25 13.9801 69.29 14.3701 69.56 14.3701Z" fill="#01C7E3"/>
<path d="M103.2 120C103.05 118.61 116.25 119.07 118.52 117.93C120.14 117.12 120.8 116.21 121.8 114.82C123.21 112.85 124.38 110.7 126.17 108.99C126.92 108.28 127.72 107.79 128.42 107C133.01 101.88 136.3 86.9802 129.64 82.4202C129.01 81.9902 128.44 82.9002 128.87 83.4102C132.45 87.7002 131.52 94.1602 130.18 99.2102C129.55 101.58 128.61 103.88 126.94 105.7C125.4 107.39 123.03 108.21 121.6 109.98C120.7 111.09 120.94 112.1 120.3 113.25C118.68 116.2 115.92 116.97 112.8 117.07C109.05 117.19 105.7 116.5 102.39 118.6C102.18 118.74 102.11 119 102.23 119.22C102.39 119.52 102.55 119.82 102.71 120.12C102.84 120.35 103.23 120.26 103.2 120Z" fill="#01C7E3"/>
<path d="M80.18 58.2802C76.76 53.9002 72.9 46.9802 74.34 41.1502C75.94 34.6702 81.28 33.5502 85.88 30.2102C89.61 27.5002 90.72 22.2001 87.8 18.5101C87.47 18.0901 86.72 18.5402 86.9 19.0302C88.07 22.3002 88.1 25.3102 85.6 27.8702C83.92 29.5902 81.81 30.1702 79.83 31.4302C77.15 33.1302 74.67 36.0902 73.51 39.0602C71.08 45.3302 74.75 54.6502 79.74 58.7302C80.05 58.9902 80.43 58.6002 80.18 58.2802Z" fill="#01C7E3"/>
<path d="M86.4901 27.9904C88.1901 26.0104 89.5501 23.8403 91.5801 22.1403C93.9401 20.1503 96.6101 19.1204 99.5201 18.2304C100.71 17.8704 100.2 16.2103 99.0201 16.4003C93.6301 17.2603 87.0601 22.1604 86.2801 27.8704C86.2601 27.9704 86.3901 28.1004 86.4901 27.9904Z" fill="#01C7E3"/>
<path d="M55.24 102.06C59.12 97.8903 62.54 92.6203 68.36 91.0103C72.1 89.9703 74.59 90.5103 77.49 87.7203C79.76 85.5403 81.66 84.3103 84.67 83.4903C86.55 82.9803 88.42 82.5703 90.21 81.7803C94.26 80.0103 97.33 77.0403 99.47 73.2203C99.95 72.3603 98.7 71.6503 98.15 72.4503C94.43 77.9303 89.66 80.1303 83.53 81.9103C82.01 82.3503 80.42 82.8103 79.07 83.6503C76.92 84.9903 75.81 87.4703 73.31 88.3503C69.34 89.7303 66.13 89.2303 62.51 91.9603C59.22 94.4403 56.53 97.9403 54.54 101.51C54.3 101.95 54.89 102.44 55.24 102.06Z" fill="#01C7E3"/>
<path d="M38.7701 66.4702C39.4501 68.8402 41.2401 71.0002 43.2601 72.3902C44.7301 73.4002 47.5501 74.5203 48.8401 72.7403C48.9901 72.5303 48.7801 72.2802 48.5701 72.2602C47.6801 72.2102 46.8301 72.4503 45.9401 72.2303C44.8701 71.9603 43.8801 71.2802 43.0301 70.6002C41.5001 69.3702 40.5001 67.8103 39.4601 66.1803C39.2401 65.8303 38.6501 66.0502 38.7701 66.4702Z" fill="#01C7E3"/>
<path d="M34.2901 74.2703C38.3701 78.4203 44.2201 79.8503 48.6101 75.2303C48.9601 74.8703 48.6102 74.0803 48.0702 74.3103C46.0202 75.1603 44.2402 76.7102 41.9002 76.6902C39.3502 76.6702 36.7802 75.0403 34.7602 73.6403C34.4002 73.3803 33.9801 73.9503 34.2901 74.2703Z" fill="#01C7E3"/>
<path d="M48.7701 74.2903C50.0101 71.3203 51.2601 68.2302 50.7501 64.9402C50.3101 62.1102 48.61 59.7602 47.48 57.1902C45.22 52.0402 46.6 48.1103 46.8 42.9603C46.88 40.9403 46.6 38.8602 45.35 37.1902C42.49 33.4002 37.7501 35.2303 34.0701 36.7203C28.7701 38.8603 23.9001 42.3203 20.9501 47.2803C20.6501 47.7903 21.3401 48.3103 21.7601 47.9003C25.0901 44.6403 28.4 41.4403 32.61 39.3303C34.33 38.4703 37.71 36.7603 39.8 36.8603C46.99 37.1903 44.72 43.4403 44.29 47.2903C43.92 50.5703 43.9901 53.5003 45.2101 56.6103C46.1801 59.0803 47.8601 61.2702 48.6401 63.8202C49.7101 67.3102 48.8701 70.6702 48.0301 74.0702C47.9001 74.5902 48.5801 74.7403 48.7701 74.2903Z" fill="#01C7E3"/>
<path d="M52.93 58.1204C54.61 68.1704 66.33 64.0504 72.93 62.4904C73.4 62.3804 73.32 61.7504 72.93 61.6104C69.95 60.5104 67.13 61.9403 64.15 62.5803C62.25 62.9903 60.12 63.4104 58.21 62.7404C55.79 61.9004 54.9 59.7203 53.49 57.8803C53.28 57.6103 52.87 57.7604 52.93 58.1204Z" fill="#01C7E3"/>
<path d="M75.32 61.3901C77.84 61.7501 80.55 60.1401 81.98 58.1301C83.42 56.1101 84.04 52.6902 82 50.8602C81.65 50.5502 81.18 50.8602 81.26 51.2902C81.67 53.6302 81.97 55.7102 80.34 57.7102C78.98 59.3902 77.07 59.8402 75.24 60.7802C75 60.9102 75.03 61.3501 75.32 61.3901Z" fill="#01C7E3"/>
<path d="M83.59 40.3602C83.39 42.0002 84.92 42.8702 86.17 43.6102C87.56 44.4302 88.91 45.0902 88.95 46.8702C88.98 48.4102 87.89 48.8902 87.08 50.0402C86.76 50.5002 87.3 51.1902 87.82 51.0002C89.88 50.2602 91.52 48.0102 90.74 45.7902C89.66 42.6702 85.75 42.7301 84.15 40.2001C83.98 39.9301 83.63 40.0702 83.59 40.3602Z" fill="#01C7E3"/>
<path d="M15.51 84.7803C20.9 85.3303 34.2701 83.2103 33.0301 92.3603C32.9501 92.9703 33.73 93.7203 34.24 93.0703C36.52 90.1703 33.74 86.2603 31.02 84.7203C26.69 82.2803 19.98 82.6403 15.4 83.9803C14.93 84.1103 15.06 84.7303 15.51 84.7803Z" fill="#01C7E3"/>
<path d="M8.65007 78.5503C9.63007 76.8403 9.92005 75.0903 11.5101 73.7303C13.1901 72.2903 15.2601 71.7803 17.2001 72.9803C17.6201 73.2403 18.05 72.8102 17.97 72.3802C17.11 67.3802 6.33005 73.4103 8.13005 78.4803C8.22005 78.7003 8.53007 78.7703 8.65007 78.5503Z" fill="#01C7E3"/>
<path d="M25.2202 30.2001C24.8302 32.6401 23.7702 34.2302 22.7402 36.4002C21.9702 38.0102 21.4702 39.7902 21.9302 41.5502C22.0302 41.9202 22.5702 41.9102 22.6802 41.5502C23.0502 40.2802 23.1502 38.9902 23.6202 37.7402C24.0902 36.5002 24.8402 35.4102 25.4002 34.2102C26.0302 32.8602 26.5202 31.5102 25.8702 30.1102C25.7402 29.8502 25.2702 29.9001 25.2202 30.2001Z" fill="#01C7E3"/>
<path d="M24.6901 35.6402C26.1001 34.3702 27.0001 32.8302 28.7101 31.8502C30.3401 30.9202 32.1901 30.6602 34.0001 30.2502C34.4801 30.1402 34.4401 29.4502 34.0001 29.3202C30.4301 28.2602 24.5001 31.4402 24.2901 35.4702C24.2801 35.6802 24.5401 35.7602 24.6901 35.6402Z" fill="#01C7E3"/>
<path d="M40.3401 27.5701C37.9301 30.8301 41.1 35.4502 44.32 36.7702C44.63 36.9002 44.97 36.4502 44.7701 36.1802C43.9201 35.0502 42.7 34.3102 41.8 33.2202C40.52 31.6602 40.02 29.6402 40.66 27.7002C40.73 27.5002 40.4501 27.4201 40.3401 27.5701Z" fill="#01C7E3"/>
<path d="M43.8401 36.0903C45.5001 37.7303 48.0001 38.2903 50.1401 37.2103C52.1601 36.1903 53.6501 33.7403 52.9101 31.4903C52.7701 31.0603 52.0701 30.9803 51.9601 31.4903C51.6201 33.1503 51.1501 34.8503 49.5601 35.7603C47.9401 36.6903 45.9201 36.3603 44.4601 35.3003C43.9801 34.9503 43.4401 35.6903 43.8401 36.0903Z" fill="#01C7E3"/>
<path d="M52.2201 28.1603C51.1001 30.0803 51.6701 32.5303 53.3801 33.9403C54.8201 35.1303 57.8401 35.8803 59.2601 34.2703C59.5801 33.9003 59.3902 33.2304 58.8402 33.2504C57.2102 33.3104 55.8101 33.9103 54.3701 32.7003C53.1301 31.6603 52.8001 29.8903 52.9401 28.3503C52.9801 27.9603 52.4101 27.8503 52.2201 28.1603Z" fill="#01C7E3"/>
<path d="M47.48 18.8502C50 17.8402 52.7 17.6702 55.23 18.7702C57.37 19.7002 58.5301 21.4002 60.0001 23.1002C60.3101 23.4602 60.84 23.0702 60.74 22.6702C59.4 16.8502 51.7 15.7003 47.35 18.5603C47.21 18.6403 47.3 18.9202 47.48 18.8502Z" fill="#01C7E3"/>
<path d="M61.01 22.9302C62.06 22.4002 63.19 22.0302 64.38 22.0402C65.56 22.0502 66.37 22.7002 67.46 22.9102C67.92 23.0002 68.43 22.5002 68.12 22.0502C66.51 19.6702 62.18 20.6302 60.7 22.6202C60.56 22.8202 60.83 23.0202 61.01 22.9302Z" fill="#01C7E3"/>
<path d="M77.0301 12.7802C74.9801 13.9802 73.83 16.0802 74.27 18.5102C74.65 20.6202 75.42 21.1003 75.49 23.6703C75.58 26.9203 74.84 27.5703 72.4 29.4903C71.13 30.4903 69.72 31.3002 68.44 32.2802C62.87 36.5102 58.55 42.8403 60.13 50.0603C60.22 50.4803 60.87 50.3802 60.87 49.9602C60.81 44.8302 62.41 40.2702 65.9 36.5102C68.51 33.7002 72 32.1602 74.75 29.5902C76.28 28.1602 77.68 26.3502 77.81 24.1602C78.06 19.8102 73.04 17.8402 77.48 13.3402C77.76 13.0502 77.3901 12.5602 77.0301 12.7802Z" fill="#01C7E3"/>
<path d="M54.3001 45.6202C55.7401 46.2302 57.1902 46.6802 58.4002 47.7202C59.6702 48.8102 60.1602 50.2001 61.0202 51.5701C61.3102 52.0301 62.0401 51.8502 62.0501 51.2902C62.1101 47.9102 57.6101 44.4002 54.3701 45.1102C54.1501 45.1502 54.0801 45.5202 54.3001 45.6202Z" fill="#01C7E3"/>
<path d="M24.4401 53.7503C26.7101 52.5003 29.1701 51.0503 31.8601 51.1803C34.8801 51.3303 35.9901 53.4802 37.4501 55.7602C37.7801 56.2702 38.4501 55.9203 38.3701 55.3703C37.9801 52.6503 36.0101 50.4103 33.2901 49.8503C29.8101 49.1403 26.7501 51.2003 24.1001 53.1603C23.7601 53.4203 24.0501 53.9703 24.4401 53.7503Z" fill="#01C7E3"/>
<path d="M20.7702 57.6701C18.9802 61.6401 18.4102 67.6802 21.1802 71.3002C21.4602 71.5902 21.7802 71.8001 22.1502 71.9401C23.4202 72.6101 23.9602 73.5902 23.7702 74.8702C24.2102 75.8802 24.1401 76.5702 24.7301 77.5602C25.8001 79.3402 27.2302 80.3201 29.2602 80.4501C29.7302 80.4801 29.8001 79.8701 29.4801 79.6401C27.7201 78.3801 26.3402 77.3101 25.7102 75.1901C25.6202 74.8901 25.5002 73.2302 25.3002 72.7402C24.7702 71.4702 25.0802 72.0501 24.2702 71.1601C23.9302 70.7901 22.6402 69.9002 22.4902 69.7502C21.0402 68.2402 20.8901 67.1502 20.7901 65.0002C20.6801 62.5902 21.1202 60.2101 21.3902 57.8201C21.4202 57.5201 20.9002 57.3801 20.7702 57.6701Z" fill="#01C7E3"/>
<path d="M24.7901 73.4202C25.4301 71.0402 24.3602 69.3802 24.3402 67.0702C24.3202 64.1502 27.2002 61.9802 29.4002 60.4402C29.6602 60.2602 29.5101 59.7602 29.1701 59.8802C26.7801 60.7202 24.7502 62.5202 23.6502 64.8302C22.3402 67.5702 24.2802 70.5702 24.5202 73.3802C24.5202 73.5302 24.7401 73.5802 24.7901 73.4202Z" fill="#01C7E3"/>
<path d="M7.64997 76.4801C11.7 72.6201 14.87 68.4102 14.27 62.6102C13.97 59.7102 13.29 57.9102 14.7 55.1202C15.27 53.9902 16.34 53.1102 16.58 51.8002C16.92 49.9302 16.31 49.0802 15.01 47.8702C14.58 47.4702 13.76 48.0101 14.14 48.5401C16.05 51.1501 11.82 56.7301 12.2 60.1401C12.61 63.7801 13.25 66.3101 11.57 69.8401C10.48 72.1501 8.88993 74.2501 7.35993 76.2801C7.24993 76.4301 7.50997 76.6101 7.64997 76.4801Z" fill="#01C7E3"/>
<path d="M48.0902 96.2303C49.9402 87.0503 61.8602 87.6303 68.4002 83.7903C69.5402 83.1203 69.7801 82.8603 70.6201 81.8603C71.9001 80.3203 72.2602 78.0503 74.0302 76.5503C75.5402 75.2803 77.8401 74.9104 79.7201 74.5004C82.7701 73.8304 89.9801 73.0403 90.5401 68.8603C90.9901 65.5603 86.6701 64.7603 84.1801 64.4703C83.7101 64.4203 83.6701 65.1204 84.0701 65.2504C86.5001 65.2904 87.4801 66.3803 87.0101 68.5103C87.7801 70.0803 87.4001 70.9803 85.8801 71.2103C84.7701 72.1003 82.9701 72.2803 81.6101 72.5903C79.6401 73.0503 77.6401 73.3303 75.7601 74.0903C74.0801 74.7703 72.3301 75.6903 71.1801 77.1303C69.9001 78.7203 69.7701 80.3404 68.2601 81.7504C62.2901 87.3204 48.3601 85.4703 47.3701 96.1203C47.3301 96.5403 48.0002 96.6303 48.0902 96.2303Z" fill="#01C7E3"/>
<path d="M71.4602 104.59C75.3702 101.49 78.5902 97.9201 83.0702 95.5301C87.7802 93.0101 92.4802 92.1901 97.6302 91.2701C102.17 90.4601 108.73 86.7501 105.73 81.2601C105.37 80.6001 104.49 81.0902 104.59 81.7402C105.68 88.7802 98.2902 89.1802 93.5302 90.0602C90.6002 90.6002 87.7602 91.4501 85.0302 92.6601C79.7302 95.0001 73.6501 98.9001 70.9701 104.23C70.8201 104.54 71.1902 104.8 71.4602 104.59Z" fill="#01C7E3"/>
<path d="M102.74 88.4803C108.34 87.5103 113.26 84.4503 118.73 83.0703C121.13 82.4603 123.55 82.6803 126.01 83.1603C126.45 83.2403 126.96 83.7903 127.41 83.7803C129.51 83.7203 128.7 84.3303 130.4 83.1403C130.93 82.7703 130.6 81.9903 129.97 82.1103C127.79 82.5103 125.82 80.9203 123.71 80.6703C121.56 80.4103 119.46 81.1203 117.48 81.8503C112.54 83.6603 107.13 85.4903 102.68 88.3403C102.59 88.3903 102.65 88.5003 102.74 88.4803Z" fill="#01C7E3"/>
<path d="M128.93 83.6501C132.01 82.9901 135.41 80.9501 135.02 77.3101C134.7 74.3801 131.72 72.8501 129.03 73.0601C128.66 73.0901 128.61 73.5501 128.95 73.6801C130.73 74.3801 133.3 75.3101 133.5 77.5101C133.76 80.3401 130.86 81.9801 128.65 82.9901C128.26 83.1701 128.55 83.7301 128.93 83.6501Z" fill="#01C7E3"/>
<path d="M85.6199 93.5403C82.8099 98.4203 87.5399 103.28 91.1199 106.19C93.3499 108 95.4799 109.26 96.9199 111.85C97.8699 113.57 98.36 115.53 99.27 117.28C101.08 120.78 108.89 127.16 105.37 131.45C105.1 131.77 105.34 132.45 105.84 132.25C113.33 129.24 103.33 120.63 101.51 117.66C99.3699 114.16 98.7199 110.31 95.5599 107.49C90.9799 103.38 85.74 100.92 86.34 93.7403C86.37 93.3403 85.7999 93.2203 85.6199 93.5403Z" fill="#01C7E3"/>
<path d="M99.6901 90.8602C96.3801 96.4102 100.94 102.26 106.2 104.33C110.94 106.2 113.44 104.26 118.09 103.46C120.1 103.11 122.28 103.41 124.23 102.76C126.4 102.05 127.61 99.8902 130.11 100.08C130.64 100.12 130.67 99.3702 130.23 99.2102C128.69 98.6502 128.09 98.7501 126.64 99.5701C123.65 101.27 121.08 101.3 117.78 101.94C113.99 102.67 111.43 104.61 107.23 103.24C101.73 101.44 98.7501 96.6802 100.1 91.0202C100.15 90.7902 99.8201 90.6402 99.6901 90.8602Z" fill="#01C7E3"/>
<path d="M99.8001 96.8702C104.83 93.8202 111.52 97.7802 117.14 97.2402C122.7 96.7102 126.83 93.2303 132.06 91.7503C132.87 91.5203 132.53 90.2802 131.71 90.4802C128.95 91.1602 126.77 92.4502 124.24 93.6802C120.03 95.7202 115.55 96.4902 110.91 95.6802C106.89 94.9802 102.85 93.2202 99.6801 96.7202C99.6201 96.8002 99.7101 96.9302 99.8001 96.8702Z" fill="#01C7E3"/>
<path d="M119.11 81.5101C122.8 79.9301 128.97 76.0701 126.99 71.0801C126.8 70.6001 126.06 70.6301 126.05 71.2101C126 73.6301 125.59 75.4301 123.89 77.2601C122.45 78.8101 120.6 79.9101 118.85 81.0701C118.56 81.2601 118.81 81.6401 119.11 81.5101Z" fill="#01C7E3"/>
<path d="M103.35 71.2902C104.03 69.0902 105.14 66.9402 106.64 65.1802C108.1 63.4802 109.91 62.4601 111.7 61.1901C112.1 60.9101 111.88 60.2002 111.35 60.3502C106.82 61.7102 103.6 66.7201 102.78 71.1301C102.72 71.5001 103.24 71.6602 103.35 71.2902Z" fill="#01C7E3"/>
<path d="M109.56 70.5403C111.33 68.8203 113.42 67.1303 116.06 67.6603C118.39 68.1303 119.75 69.7903 120.68 71.8603C120.84 72.2203 121.45 72.0403 121.42 71.6603C121.25 69.0603 119.04 67.1203 116.58 66.5703C113.48 65.8703 111.04 67.9503 109.12 70.1103C108.87 70.4003 109.28 70.8203 109.56 70.5403Z" fill="#01C7E3"/>
<path d="M131.78 49.2102C131.69 49.1202 131.61 49.0203 131.52 48.9303C131.29 48.6703 130.93 48.7403 130.69 48.9303C129.05 50.2103 128.86 53.0603 128.74 55.0003C128.59 57.6303 129.04 60.2002 130.49 62.4102C130.71 62.7502 131.21 62.5302 131.13 62.1402C130.73 60.0702 130.22 57.9903 130.18 55.8703C130.14 53.9503 130.19 50.8902 131.78 49.5402C131.88 49.4602 131.86 49.3002 131.78 49.2102Z" fill="#01C7E3"/>
<path d="M111.25 60.6604C111.5 62.9804 113.76 65.6004 116.28 64.6804C118.97 63.6904 119.42 60.1004 117.66 58.1004C117.44 57.8504 117.1 58.1203 117.15 58.4003C117.47 60.1703 117.97 63.1704 115.44 63.5904C113.49 63.9204 112.8 61.6004 111.84 60.4304C111.66 60.2004 111.22 60.3804 111.25 60.6604Z" fill="#01C7E3"/>
<path d="M117.7 58.5502C118.16 60.2502 119.25 61.6902 120.9 62.3702C122.37 62.9702 123.5 63.2601 124.41 64.7001C125.12 65.8201 125.15 67.0102 125.43 68.2502C125.52 68.6402 126.15 68.7602 126.33 68.3702C127.2 66.4502 126.14 64.1801 124.67 62.8401C123.87 62.1201 123.02 61.8001 122.03 61.4601C120.13 60.8101 119.34 59.7202 117.96 58.4102C117.85 58.3002 117.66 58.4002 117.7 58.5502Z" fill="#01C7E3"/>
<path d="M101.51 99.9703C99.6101 100.8 98.0501 102.33 96.9201 104.05C96.0401 105.38 94.9001 107.47 95.9901 108.95C96.1101 109.12 96.3701 109.06 96.3801 108.84C96.4801 106.96 96.8001 105.57 97.9401 104.01C99.0001 102.55 100.37 101.52 101.81 100.47C102.11 100.25 101.85 99.8203 101.51 99.9703Z" fill="#01C7E3"/>
<path d="M106.65 104.54C102.1 107.4 99.4899 114.48 102.02 119.48C102.21 119.85 102.7 119.57 102.64 119.22C101.71 114 103 108.58 106.87 104.84C107.03 104.69 106.83 104.43 106.65 104.54Z" fill="#01C7E3"/>
<path d="M110.92 104.49C108.79 106.49 108.27 109.33 107.92 112.13C107.64 114.37 107.65 116.64 109.63 118.05C109.95 118.28 110.22 117.81 110.01 117.55C107.51 114.37 108.67 107.76 111.26 104.84C111.48 104.6 111.15 104.27 110.92 104.49Z" fill="#01C7E3"/>
<path d="M115.33 104.02C115.09 106.05 115.69 108.2 117.27 109.56C118.67 110.77 120.95 111.45 122.73 110.73C122.96 110.64 122.93 110.31 122.67 110.29C120.88 110.18 119.21 109.99 117.79 108.73C116.4 107.5 115.67 105.86 115.67 104.02C115.68 103.78 115.36 103.8 115.33 104.02Z" fill="#01C7E3"/>
<path d="M87.18 101.03C91.14 100.28 97.69 95.6402 97.76 91.1002C97.76 90.9102 97.5 90.8501 97.41 91.0101C96.19 93.1301 95.4 95.0302 93.46 96.6802C91.52 98.3402 88.97 99.2402 87.14 100.98C87.12 100.99 87.15 101.03 87.18 101.03Z" fill="#01C7E3"/>
<path d="M114.59 53.1203C126.834 53.1203 136.76 43.1944 136.76 30.9503C136.76 18.7061 126.834 8.78027 114.59 8.78027C102.346 8.78027 92.4199 18.7061 92.4199 30.9503C92.4199 43.1944 102.346 53.1203 114.59 53.1203Z" fill="#FE94A2"/>
<path d="M117.31 45.6802H111.41C110.64 45.6802 110.01 45.0602 110.01 44.2802V17.6202C110.01 16.8502 110.63 16.2202 111.41 16.2202H117.31C118.08 16.2202 118.71 16.8402 118.71 17.6202V44.2902C118.71 45.0602 118.08 45.6802 117.31 45.6802Z" fill="white"/>
<path d="M99.6299 33.9003V28.0004C99.6299 27.2304 100.25 26.6003 101.03 26.6003H127.7C128.47 26.6003 129.1 27.2204 129.1 28.0004V33.9003C129.1 34.6703 128.48 35.3004 127.7 35.3004H101.03C100.26 35.3004 99.6299 34.6703 99.6299 33.9003Z" fill="white"/>
<path d="M130.024 47.0292C138.682 38.3713 138.682 24.3342 130.024 15.6763C121.367 7.01851 107.329 7.01855 98.6715 15.6764C90.0137 24.3342 90.0137 38.3713 98.6715 47.0292C107.329 55.687 121.366 55.687 130.024 47.0292Z" fill="#FE91A7"/>
<path d="M118.93 16.6201H109.78V46.0801H118.93V16.6201Z" fill="white"/>
<path d="M129.094 35.9236V26.7737L99.6335 26.7737V35.9236L129.094 35.9236Z" fill="white"/>
</svg>
