<svg width="133" height="151" viewBox="0 0 133 151" fill="none" xmlns="http://www.w3.org/2000/svg">
<g clip-path="url(#clip0)">
<path d="M51.03 1.14992C69.11 -2.01008 88.61 1.24992 103.07 11.9599C112.71 19.0999 120.05 29.2099 124.18 40.4499C128.76 52.9199 127.97 64.7599 124.92 77.4799C120.77 94.7699 106.52 109.45 89.16 113.32C81.82 114.96 74.22 114.76 66.7 114.91C59 115.06 51.18 115.58 43.68 113.84C35.24 111.88 27.72 107.19 20.38 102.57C4.55998 92.6099 -1.80002 68.6599 0.429985 50.9099C2.53998 34.0799 12.54 18.2499 27.2 9.70992C34.39 5.51992 42.56 2.62992 51.03 1.14992Z" fill="#F4FBFC"/>
<path d="M106.48 141.24C91.9799 150.47 73.1299 151.48 55.6999 150.17C36.7499 148.75 -0.77007 144.01 15.3199 115.92C25.6299 97.9198 44.3499 91.7798 63.8799 93.3998C75.6699 94.3798 87.9599 97.7898 98.6099 102.89C106.2 106.53 117.86 115 118.63 124.21C119.08 129.54 115.36 134.33 111.25 137.75C109.72 139.03 108.13 140.19 106.48 141.24Z" fill="#FFD9C1"/>
<path d="M78.78 85.0499C77.68 70.4799 69.65 57.8499 59.53 47.8799C52.65 41.0999 37.62 27.5299 27.43 35.5499C25.31 37.2199 23.78 39.4899 22.3 41.7499C12.06 57.3399 17.56 80.4599 22.1 97.1299C23.89 103.69 23.33 110.5 24.67 117.2C25.41 120.88 30.1 134.54 35.84 129.79C40.57 125.88 41.52 119.16 43.63 113.4C44.62 110.7 46.18 107.87 48.9 106.93C52.11 105.82 55.62 107.82 57.82 110.42C60.01 113.01 61.41 116.21 63.66 118.75C65.92 121.29 69.58 123.12 72.69 121.77C74.48 121 75.71 119.34 76.7 117.67C83.1 106.85 79.64 96.4699 78.78 85.0499Z" fill="#E5E1E2"/>
<path d="M108.61 107.96C107.12 116.39 102.72 124.61 97.1999 131.1C96.2499 132.22 95.2199 133.32 93.8899 133.95C92.5699 134.58 90.8699 134.64 89.7199 133.74C88.3099 132.64 88.1399 130.6 88.0899 128.82C87.9599 124.15 89.4599 115.77 86.6199 111.87C83.6899 107.84 77.2099 108.32 73.1699 111.25C68.6699 114.52 66.1699 119.92 64.91 125.34C63.36 131.97 63.9499 137.92 60.7999 144.29C60.2499 145.4 59.5899 146.54 58.5099 147.14C57.2199 147.85 55.5699 147.64 54.2899 146.91C53.0099 146.18 52.0399 145.02 51.1899 143.82C45.5099 135.86 43.3799 125.83 39.8099 116.89C36.4299 108.43 29.9299 101.26 25.8299 92.9999C21.7999 84.8899 18.6299 76.3299 17.3899 67.3199C15.3899 52.7699 17.7599 34.5599 34.8499 31.1399C38.6199 30.3899 41.3999 28.5299 44.5999 26.5899C47.0899 25.0799 49.8099 24.1799 52.3599 22.6799C55.4399 20.8799 58.7399 19.3799 62.2399 18.6099C65.7599 17.8499 69.5299 17.8699 72.9599 19.0099C76.6499 20.2299 79.7299 22.4899 82.8999 24.6599C86.2799 26.9699 91.1799 27.0899 95.0299 28.2799C99.7299 29.7399 104.17 31.3599 108.33 34.0699C115.17 38.5299 116.16 49.4199 116.42 56.7699C116.79 66.8799 113.7 76.1499 111.69 86.0199C110.22 93.2899 109.9 100.66 108.61 107.96Z" fill="#FEFEFE"/>
<path d="M115.52 50.74C115.42 57.16 114.64 63.5 112.11 69.36C110.95 72.04 109.44 74.56 108.41 77.29C105.9 83.92 106.39 91.24 105.59 98.27C104.92 104.11 103.34 109.85 100.93 115.21C99.1799 119.09 97.0799 124.62 92.6199 126.02C91.0599 126.51 89.4099 126.43 87.8099 126.05C87.7699 126.97 87.7499 127.84 87.7699 128.6C87.8199 130.38 87.9899 132.41 89.3899 133.5C90.5399 134.4 92.2199 134.34 93.5399 133.71C94.8599 133.08 95.8799 131.98 96.8299 130.87C102.32 124.4 106.71 116.23 108.19 107.83C109.47 100.56 109.79 93.22 111.26 86C113.25 76.17 116.33 66.94 115.97 56.88C115.89 55.02 115.77 52.91 115.52 50.74Z" fill="#F5F5F5"/>
<path d="M98.9299 36.1299C99.2299 35.4799 99.3799 34.7599 99.1499 34.0999C98.7299 32.9099 97.3299 32.4499 96.1099 32.1599C91.0099 30.9599 85.5599 30.9399 80.5399 29.6099C77.0899 28.6899 74.5199 27.1299 70.7899 27.0099C60.9899 26.6899 52.6499 32.0799 44.2599 36.3699C41.3699 37.8499 38.5099 39.6199 36.6999 42.3099C34.8899 44.9999 34.3999 48.8099 36.2999 51.4299C37.5399 53.1499 39.5699 54.0999 41.5499 54.8599C50.1799 58.1799 59.6999 59.1399 68.8199 57.6199C76.5099 56.3299 81.7299 51.8699 87.1099 46.5699C90.4899 43.2299 96.1199 40.6899 98.5899 36.7599C98.7099 36.5499 98.8299 36.3399 98.9299 36.1299Z" fill="#FFEFEF"/>
<path opacity="0.3" d="M72.92 47.2899C73.26 47.1299 73.6 46.9499 73.94 46.7599C78.6 44.0799 81.98 39.5399 86.52 36.5999C90.23 34.1999 94.5 32.4899 98.92 32.4499C97.22 32.4599 95.15 31.4499 93.19 31.4799C90.98 31.5199 88.95 31.2799 86.77 31.1499C82.01 30.8599 77.61 32.6899 73.99 35.6899C71.34 37.8799 66.58 42.7099 63.2 40.3299C61.96 39.4599 61.18 37.7999 59.97 36.8199C58.3 35.4599 56.16 34.3999 54.23 33.4599C50.55 31.6799 46.15 30.2699 42.17 31.9999C47.21 32.3899 49.91 33.4199 53.57 37.0699C55.59 39.0899 57.26 41.2299 57.96 44.0699C58.32 45.5299 49.52 43.6699 48.85 43.5299C45.23 42.7599 41.61 44.6299 38.62 46.5399C40.45 45.3699 45.21 45.9899 47.31 46.0999C50.42 46.2699 53.45 46.8399 56.46 47.6399C61.52 48.9999 68 49.5699 72.92 47.2899Z" fill="#DADADA"/>
<path d="M68.4899 116.39C66.5499 118.6 65.17 121.35 64.07 124.11C62 129.32 59.73 140.58 51.74 138.62C49.66 138.11 47.9 136.72 46.45 135.13C47.75 138.18 49.2699 141.12 51.1899 143.82C52.0399 145.02 53.01 146.18 54.29 146.91C55.57 147.64 57.2199 147.86 58.5099 147.14C59.5899 146.54 60.2499 145.4 60.7999 144.29C63.9499 137.92 63.36 131.97 64.91 125.34C65.64 122.22 66.7899 119.1 68.4899 116.39Z" fill="#F5F5F5"/>
<path d="M25.25 51.4098C24.5 54.0098 24.72 57.0198 26.39 59.1498C28.07 61.2798 31.39 62.1498 33.62 60.6198C35.07 59.6398 35.85 57.8198 35.74 56.0798C35.64 54.3298 34.71 52.6898 33.38 51.5498C32.03 50.3998 30.23 49.7398 28.48 49.9398C26.72 50.1398 25.05 51.2598 24.37 52.8998" fill="#FFEFEF"/>
<path d="M59.46 34.5598C55.23 33.0898 51.58 30.1198 47.2 29.0798C43.13 28.1198 38.68 28.7498 34.79 30.1498C27.93 32.6198 21.04 38.1198 18.33 45.0298C11.03 63.6198 19.44 85.3498 23.27 103.7C23.35 104.09 23.93 103.92 23.86 103.54C20.6 86.2098 14.5 68.5498 17.94 50.7798C19.58 42.3198 25.17 35.8498 32.94 32.1498C37.69 29.8898 43.29 28.9198 48.4 30.4798C52.2 31.6398 55.49 33.9898 59.29 35.1898C59.69 35.3298 59.86 34.6998 59.46 34.5598Z" fill="#01C7E3"/>
<path d="M98 29.5199C121.77 31.8599 114.89 62.9699 112.26 78.2899C109.17 96.2498 109.98 115.08 97.96 129.99C97.58 130.46 98.2 131.13 98.64 130.67C105.18 123.8 108.47 114.83 109.99 105.61C111.94 93.8098 113.4 81.9098 115.21 70.0898C116.64 60.7798 118.46 50.4899 114.88 41.4499C112.03 34.2699 105.87 29.0699 98.01 28.8699C97.57 28.8499 97.59 29.4799 98 29.5199Z" fill="#01C7E3"/>
<path d="M88.02 117.86C87.85 121.94 87.27 126.14 87.64 130.22C87.8 131.9 88.22 133.82 89.85 134.67C92.15 135.87 94.43 133.8 96.11 132.43C98.95 130.1 101.19 127.26 102.72 123.93C102.83 123.69 102.48 123.47 102.36 123.72C101.22 125.91 99.92 127.9 98.2 129.69C96.63 131.32 90.93 137.11 88.74 132.01C88.12 130.56 88.37 128.55 88.38 127.01C88.41 123.96 88.54 120.93 88.42 117.88C88.41 117.6 88.03 117.6 88.02 117.86Z" fill="#01C7E3"/>
<path d="M22.45 100.26C23.68 106.98 22.3499 131.33 34.2799 130.58C34.5799 130.56 34.6799 130.1 34.3499 130.03C22.5199 127.52 25.3199 108.94 23.0099 100.1C22.9099 99.73 22.38 99.89 22.45 100.26Z" fill="#01C7E3"/>
<path d="M33.29 130.13C35.71 130.36 37.33 128.94 38.66 127.08C39.88 125.37 41 124 41.11 121.81C41.13 121.49 40.61 121.32 40.48 121.64C39.11 124.86 37.08 129.23 33.26 129.95C33.15 129.96 33.19 130.12 33.29 130.13Z" fill="#01C7E3"/>
<path d="M66.89 120.63C68.38 124.12 73.69 121.85 75.54 119.91C78.26 117.06 79.43 112.37 79.91 108.57C79.96 108.19 79.4 108.17 79.29 108.49C78.29 111.26 77.8 114.17 76.39 116.79C74.83 119.67 70.4 123.65 67.13 120.45C67 120.32 66.82 120.48 66.89 120.63Z" fill="#01C7E3"/>
<path d="M50.44 45.4198C56.79 47.8498 64.81 48.6098 71.18 45.8298C74.24 44.4998 76.49 42.3298 78.85 40.0398C83.12 35.9098 87.14 33.6898 93.11 33.1398C93.56 33.0998 93.75 32.3698 93.23 32.2898C86.38 31.1598 81.69 34.7698 77 39.2998C69.02 47.0098 60.67 45.7898 50.54 44.6898C50.09 44.6398 50.08 45.2798 50.44 45.4198Z" fill="#01C7E3"/>
<path d="M43.07 28.19C52.02 22.95 62 15.87 73 19.16C77.58 20.53 80.6 24.67 84.9 26.64C88.88 28.46 93.56 28.86 97.87 29.29C98.47 29.35 98.47 28.51 98 28.32C95.42 27.27 92.79 27.02 90.09 26.44C86 25.55 83.01 23.55 79.73 21.05C76.36 18.48 73.16 16.98 68.85 16.78C59.36 16.35 49.59 21.56 42.96 28.03C42.88 28.12 42.98 28.24 43.07 28.19Z" fill="#01C7E3"/>
<path opacity="0.61" d="M115.24 56.0999C110.52 61.9399 103.67 65.7799 96.5099 68.0399C89.3499 70.2999 81.8099 71.0799 74.3199 71.6899C66.3199 72.3399 59.7699 73.7899 60.0599 82.6699C60.2699 89.0199 64.2799 94.0999 70.1499 96.2599C77.0899 98.8099 84.3599 101.13 91.7199 100.52C99.0899 99.9099 106.61 95.6999 109.02 88.7099" fill="#F5F5F5"/>
<path d="M26.11 93.3899C29.06 98.8899 32.94 103.84 35.82 109.36C38.74 114.95 40.7 121.06 42.34 127.13C44.09 133.61 45.73 141.92 51.92 145.75C59.92 150.7 62.08 142.92 63.17 136.44C64.09 130.96 64.82 125.09 66.56 119.79C68.58 113.65 81.93 103.09 86.41 112.58C86.58 112.94 87.1 112.63 86.94 112.27C83.53 104.69 73.77 109.53 69.47 113.53C62.31 120.19 63.59 132.9 61.18 141.61C58.18 152.44 48.72 141.73 46.74 137.19C45.08 133.37 44.22 129.29 43.08 125.29C41.48 119.66 39.48 114.01 36.74 108.82C33.84 103.32 29.76 98.4699 26.68 93.0599C26.46 92.6899 25.91 93.0199 26.11 93.3899Z" fill="#01C7E3"/>
<path d="M132.12 47.2001C121.11 44.9701 115.88 39.0101 114.37 27.8401C115.01 32.5301 113.27 38.1101 109.61 41.2601C107.51 43.0701 100.57 47.3401 97.74 46.4101C101.65 47.6901 107.19 50.3901 109.96 53.4401C112.99 56.7701 115.26 60.9601 116.34 65.5101C117.35 57.9901 122.08 45.1701 132.12 47.2001Z" fill="#FEFEFE"/>
<path d="M116.48 68.26L115.86 65.63C114.82 61.24 112.65 57.14 109.59 53.78C106.97 50.9 101.53 48.19 97.59 46.89L97.9 45.94C100.38 46.76 107.03 42.83 109.28 40.89C112.63 38.01 114.51 32.67 113.87 27.91L114.86 27.78C116.37 38.9 121.56 44.56 132.21 46.72L132.01 47.7C129.39 47.17 126.97 47.68 124.83 49.21C120.09 52.59 117.56 60.15 116.83 65.59L116.48 68.26ZM100.3 46.82C104.01 48.33 108.07 50.62 110.33 53.1C112.99 56.03 115 59.5 116.22 63.23C117.3 57.9 119.88 51.49 124.25 48.38C125.46 47.52 126.75 46.94 128.11 46.67C120.94 44.32 116.74 39.86 114.76 32.47C114.17 36.06 112.42 39.48 109.92 41.64C108.29 43.06 103.75 46 100.3 46.82Z" fill="#01C7E3"/>
</g>
<defs>
<clipPath id="clip0">
<rect width="132.22" height="150.63" fill="white"/>
</clipPath>
</defs>
</svg>
