<svg width="143" height="173" viewBox="0 0 143 173" fill="none" xmlns="http://www.w3.org/2000/svg">
<path d="M1.55 88.5648C1.23 91.5448 1.18 94.4947 1.14 97.4847C1.11 99.3147 0.489998 101.045 0.499998 102.845C0.509998 107.045 2.62 111.135 5.03 114.465C7.41 117.755 8.44 121.415 9.36 125.375C10.91 132.025 12.41 138.075 15.65 144.125C18.38 149.215 20.76 154.715 25.94 157.815C28.46 159.325 31.34 160.085 34.18 160.825C43.54 163.275 53.36 165.735 62.78 163.545C67.16 162.535 71.24 160.555 75.28 158.585C79.1 156.725 83.1 154.725 85.53 151.245C86.26 150.205 86.4 148.835 86.82 147.635C87.85 144.705 88.56 141.635 89.91 138.825C90.62 137.375 91.39 135.955 92.19 134.555C93.41 132.345 94.66 130.145 95.62 127.785C100.39 116.055 97.78 101.895 92.52 90.7848C91.69 89.0448 90.71 87.3547 90.19 85.4947C89.4 82.6747 89.34 79.5447 88.95 76.6647C88.56 73.7447 87.61 70.8547 86.74 68.0247C86.64 67.7047 86.54 67.3648 86.43 67.0348C86.17 66.2848 85.84 65.5547 85.38 64.9147C84.42 63.5947 83.28 62.4147 82.02 61.3347C78.91 58.6647 75.09 56.6047 71.72 54.5847C70.65 53.9347 69.37 53.5148 68.21 53.0648C66.91 52.5548 65.59 52.1147 64.25 51.7147C64.12 51.6647 64 51.6247 63.87 51.6047C63.44 51.4647 63 51.3448 62.56 51.2248C62.24 51.1348 61.9 51.0447 61.57 50.9647C61.36 50.9047 61.14 50.8547 60.92 50.8047C60.78 50.7747 60.65 50.7447 60.51 50.7147C55.39 49.6247 50.85 47.4147 45.47 46.9347C41.71 46.6047 37.83 46.9248 34.38 48.4448C31.45 49.7348 28.88 51.6048 25.98 52.9048C20.17 55.4948 9.96 65.7347 9.96 65.7347C9.96 65.7347 4.04 65.1748 1.55 88.5648Z" fill="white"/>
<path d="M58 108.795C57.55 108.205 58.5 105.935 58.5 105.935C58.5 105.935 58.68 105.225 61.24 102.725C61.66 102.315 63.48 100.585 63.48 100.585C63.48 100.585 64.02 99.3547 64.75 99.2947C64.4 99.3247 64.18 102.495 64.17 102.855C64.12 104.125 64.36 105.295 64.5 106.545C64.8 109.255 65.09 111.955 65.38 114.665C65.95 120.135 66.48 125.615 66.89 131.105C67.12 134.075 67.31 137.055 67.33 140.045C67.36 144.155 66.5 148.445 66.79 152.515C66.96 154.855 68.52 159.985 66.58 161.765C65.97 162.325 65.18 162.645 64.4 162.935C62.61 163.605 57.78 164.925 57.2 164.275C56.61 163.625 56.64 163.585 56.42 163.185C53.76 158.385 50.4 152.965 48.96 147.635C47.63 142.735 45.42 137.955 44.4 132.935C44.07 131.295 44.33 129.595 44.17 127.955C44.01 126.265 43.65 124.575 43.39 122.895C43.11 121.085 43.04 119.245 43.19 117.425C43.2 117.315 43.21 117.195 43.28 117.105C43.35 117.005 43.47 116.965 43.58 116.925C45.96 115.945 48.6 114.595 50.74 113.165C53.08 111.595 55.62 110.335 58 108.795Z" fill="#F0E3EC"/>
<path d="M70.4 93.6948C70.4 93.6948 71.28 94.1247 74.12 93.2447C76.97 92.3647 76.77 92.8147 82.11 93.0447C84.94 93.1647 86.93 90.4247 88.29 91.0647C88.29 91.0647 84.96 89.1647 81.97 89.3347C78.4 89.5447 71.92 90.9147 71.16 92.3047L70.4 93.6948Z" fill="#FBD8C0"/>
<path d="M89.34 90.1548C88.93 90.4148 88.45 90.7348 88.19 91.1348C87.77 91.7748 87.35 92.0248 86.58 92.2248C86.22 92.3148 85.8499 92.3548 85.5099 92.4748C85.1099 92.6248 84.73 92.8948 84.35 93.0848C83.54 93.4748 82.69 93.7948 81.8 93.9748C79.45 94.4548 77.05 93.9048 74.69 93.8648C73.51 93.8448 72.44 94.0148 71.32 94.3548C70.18 94.7048 69.05 94.9348 68 95.5248C66.93 96.1248 67.1 96.0948 67.1 96.0948C67.1 96.0948 65.79 91.0348 65.46 87.8348C70.5 85.8748 73.49 84.8848 78.64 83.2148C83.62 81.5948 86.94 85.4348 91.47 88.6148C91.01 88.9248 90.53 89.2648 90.03 89.6348" fill="#FBD8C0"/>
<g opacity="0.51">
<g opacity="0.51">
<path opacity="0.51" d="M71.54 93.8547C71.52 93.8947 71.49 93.9447 71.47 93.9847C71.42 94.0747 71.38 94.2147 71.47 94.2747C71.52 94.3047 71.59 94.2947 71.65 94.2747C74.19 93.5547 76.86 93.4348 79.49 93.5348C81.12 93.5948 82.87 93.7048 84.25 92.8448C84.46 92.7148 85.44 91.7647 85.64 91.8647L82.83 90.4847L79.47 90.1047C78.23 90.4547 76.99 90.7947 75.76 91.1447C75.02 91.3547 74.02 91.4648 73.37 91.8748C72.69 92.2948 71.95 93.1347 71.54 93.8547Z" fill="#F6AE89"/>
</g>
</g>
<path d="M76.82 94.2647C78.3 93.9047 79.9099 94.7547 81.4199 94.7847C82.1499 94.8047 83.14 94.5747 83.24 93.6747C83.41 92.1147 80.4599 92.1147 79.5099 92.0547C79.3299 92.0447 79.2199 92.3147 79.4199 92.3847C79.8699 92.5347 80.3299 92.6047 80.7899 92.7047C81.4099 92.8347 83.3299 93.1547 82.2899 93.9947C81.5799 94.5647 80.3399 94.1647 79.4999 94.0747C78.5599 93.9747 76.7799 94.1347 76.7799 94.1347C76.7799 94.1347 76.75 94.2847 76.82 94.2647Z" fill="#35BBD9"/>
<path d="M96.13 91.1348C96.01 90.9648 95.88 90.8148 95.74 90.6548C95.58 90.4448 95.39 90.2548 95.17 90.0548C94.98 89.8648 94.78 89.6548 94.56 89.4648C94.47 89.3948 94.39 89.3148 94.3 89.2448C93.85 88.8448 93.35 88.4548 92.81 88.0648C92.77 88.0548 92.74 88.0248 92.71 87.9948H92.69C92.65 87.9548 92.6 87.9248 92.58 87.8948C88.61 85.0948 82.91 81.8248 79.74 82.1948C76.57 82.5848 74.74 84.4548 71.69 85.4248C69.55 86.1148 67.42 86.8248 65.35 87.6448C65.46 87.9448 65.57 87.8548 65.62 88.1748C69.45 86.7948 74.85 84.5148 78.64 83.3148C82.43 82.1148 86.94 85.5148 91.47 88.6648C91.51 88.6948 91.54 88.7148 91.58 88.7448C91.62 88.7748 91.68 88.8148 91.72 88.8348C92.41 89.3248 93.1 89.8248 93.79 90.3348C93.82 90.3448 93.83 90.3648 93.86 90.3748C93.93 90.4448 94.02 90.4948 94.09 90.5548C94.41 90.7948 94.72 91.0248 95.04 91.2748C95.2 91.3848 95.36 91.5048 95.52 91.6248C95.86 91.9048 96.43 91.5148 96.13 91.1348Z" fill="#35BBD9"/>
<path d="M92.3299 92.1048C92.2399 92.1048 92.1499 92.1048 92.0599 92.1048C91.2699 92.0748 90.4899 91.7048 89.7499 91.2248C89.6999 91.1948 89.6499 91.1648 89.6099 91.1348C89.4699 91.0448 89.3199 90.9448 89.1899 90.8448C89.0499 90.7448 88.9099 90.6448 88.7799 90.5348C88.5799 90.3848 88.3799 90.2248 88.1799 90.0748C87.9799 89.9148 87.7799 89.7548 87.5799 89.6048C87.5199 89.5448 87.4399 89.4948 87.3799 89.4348C87.3699 89.4348 87.3599 89.4248 87.3599 89.4248C85.3699 87.8548 83.4099 86.5248 80.9299 86.4148C80.9099 86.4148 80.9099 86.3948 80.9199 86.3848C83.3399 85.5548 85.5699 87.3948 87.8599 89.1948C87.8799 89.2048 87.8899 89.2148 87.9199 89.2348C87.9699 89.2848 88.0199 89.3148 88.0799 89.3548C88.5699 89.7448 89.0699 90.1248 89.5799 90.4648C89.5999 90.4848 89.6299 90.5048 89.6399 90.5148C89.7199 90.5648 89.7999 90.6148 89.8699 90.6748C90.0699 90.7948 90.2599 90.9248 90.4599 91.0348C90.9899 91.3448 91.5399 91.5948 92.0899 91.7648C92.1499 91.7848 92.2199 91.7948 92.2799 91.8148C92.4799 91.8548 92.5199 92.0948 92.3299 92.1048Z" fill="#35BBD9"/>
<path d="M74.64 93.4248C73.93 93.4348 72.13 93.8548 70.37 94.3848C70.01 94.4948 69.63 94.6048 69.28 94.7248C68.29 95.0448 67.43 95.3748 66.86 95.6548C67 95.8948 67.02 95.8848 67.13 96.1548C68.43 95.2348 71.54 94.1448 74.9 93.6448C75.23 93.5948 75.95 93.4048 74.64 93.4248Z" fill="#35BBD9"/>
<path d="M90.3499 91.7649C90.3399 91.8049 90.2999 91.8449 90.2599 91.8849C90.1099 91.9949 89.9599 92.1049 89.7999 92.2049C89.6799 92.2849 89.5599 92.3549 89.4299 92.4149C89.1799 92.5649 88.9099 92.6749 88.6399 92.7749C88.5599 92.8149 88.4899 92.8449 88.3999 92.8549C88.0199 92.9949 88.0899 92.3449 87.6899 92.3949C87.0299 92.4849 87.1499 92.3849 86.4699 92.2749C85.9799 92.1849 85.5199 92.0449 85.0699 91.8649C84.9199 91.8149 84.7899 91.7449 84.6399 91.6849C84.6099 91.6749 84.5799 91.6649 84.5499 91.6349C83.7399 91.2749 82.9599 90.8449 82.0699 90.5849C80.8499 90.2249 75.5899 90.8949 73.4999 92.1349C72.0899 92.9749 71.4499 93.8349 71.5499 94.0749C71.5599 94.1049 71.5799 94.1349 71.6199 94.1449C71.1499 94.2849 71.2899 94.3349 71.1499 94.2849C70.6499 94.1449 71.3299 93.1049 72.3099 92.1649C73.2299 91.2749 80.0499 89.5849 80.9099 89.6649C82.2699 89.7749 83.3799 90.4749 84.6299 90.9149C84.8699 91.0049 85.1099 91.0749 85.3399 91.1349C85.3599 91.1449 85.3799 91.1449 85.3999 91.1549C85.5599 91.1949 85.6999 91.2349 85.8599 91.2749C86.8199 91.4749 86.7699 91.8049 87.6699 91.6249C87.9699 91.5749 87.9999 91.9949 88.2999 91.9049C88.3599 91.8849 88.4199 91.8649 88.4799 91.8449C88.5899 91.8049 88.6899 91.7749 88.8099 91.7249C88.9099 91.6949 88.9999 91.6549 89.0999 91.6149C89.3399 91.5349 89.5699 91.4249 89.8099 91.3049C89.8499 91.2849 89.8899 91.2749 89.9299 91.2749C90.2299 91.2449 90.4799 91.5349 90.3499 91.7649Z" fill="#35BBD9"/>
<path d="M41.41 96.4148C40.37 91.0048 40.45 87.2448 40.17 81.7448C39.88 76.1148 39.73 70.4848 39.47 64.8548C39.25 60.1348 38.97 55.3448 40 50.7348C40.3 49.4048 40.84 47.1148 42.3 46.7148C42.9 46.5448 44.13 46.9348 44.8 46.9248C45.66 46.9048 46.52 46.8048 47.37 46.7248C50.4 46.4648 53.45 46.4648 56.49 46.7248C58.26 46.8748 58.81 46.8148 59.62 48.4148C60.78 50.6948 60.96 53.2548 61.41 55.7448C61.91 58.5548 62.24 61.3348 62.51 64.1648C62.73 66.4348 63.46 68.7048 63.84 70.9948C64.39 74.3048 64.79 77.6348 65.02 80.9748C65.17 83.1148 65.08 85.4648 64.58 85.7448C62.03 87.1948 62.3 85.5848 59.82 87.1548C59.83 87.1548 44.89 95.8648 41.41 96.4148Z" fill="#F0E3EC"/>
<path d="M43.11 33.3748C43.23 37.8948 42.78 42.4247 41.76 46.8347C41.65 47.3247 41.53 47.8348 41.68 48.3148C41.8 48.6948 42.08 49.0047 42.36 49.2947C44.91 51.9547 47.86 54.2348 51.08 56.0348C53.75 57.5348 57.16 58.6747 59.77 57.0747C62.11 55.6447 62.82 52.5747 62.9 49.8347C63.04 45.0947 61.93 40.4147 60.83 35.7947L43.11 33.3748Z" fill="#FBD8C0"/>
<g opacity="0.51">
<g opacity="0.51">
<path opacity="0.51" d="M43.11 33.3748C43.23 37.8948 42.78 42.4247 41.76 46.8347C41.65 47.3247 41.53 47.8348 41.68 48.3148C41.8 48.6948 42.08 49.0047 42.36 49.2947C44.91 51.9547 47.86 54.2348 51.08 56.0348C53.75 57.5348 57.16 58.6747 59.77 57.0747C62.11 55.6447 62.82 52.5747 62.9 49.8347C63.04 45.0947 61.93 40.4147 60.83 35.7947L43.11 33.3748Z" fill="#F6AE89"/>
</g>
</g>
<path d="M41.8 32.3947C44.08 37.1847 47.23 41.5446 51.03 45.2346C52.96 47.1146 55.07 48.8147 57.31 50.3147C59.45 51.7447 61.51 51.5547 64.01 51.9747C64.36 52.0347 64.73 52.0947 65.07 52.0047C65.48 51.9047 65.82 51.6047 66.13 51.3047C69.65 47.8947 71.49 43.5147 71.51 38.6947C72.92 38.1347 76.41 39.2446 76.15 36.8546C75.75 33.1646 75.08 29.7046 75.49 25.9846C75.85 22.7846 76.8 19.2446 75.64 16.1046C75.18 14.8446 74.38 13.7347 73.49 12.7247C70.79 9.66467 67.09 7.41465 63.05 6.84465C60.75 6.52465 58.4 6.74465 56.13 7.19465C51.91 8.02465 47.68 9.73465 44.86 12.9846C41.41 16.9646 40.61 22.5346 39.96 27.7646L41.8 32.3947Z" fill="#FBD8C0"/>
<path d="M72.3199 17.1647C73.5499 17.3347 76.5599 17.9847 76.5599 17.9847C76.5599 17.9847 79.1999 14.2047 79.9299 12.3247C80.1399 11.7847 80.3299 11.2347 80.3499 10.6547C80.3999 9.1347 79.2799 7.83469 78.0699 6.91469C71.9299 2.27469 66.1499 -0.335315 58.2099 0.0346854C52.9399 0.274685 46.8699 1.17469 42.3999 4.10469C39.4799 6.02469 37.3899 8.9147 36.3099 12.2547C35.6099 14.4347 35.4999 16.7247 35.7799 18.9847C36.0599 21.1847 36.6899 22.8647 37.6299 24.7847C39.4799 28.5547 41.1899 32.3847 43.5199 35.9147C44.0399 35.2147 44.8299 34.7647 45.4299 34.1247C46.3199 33.1647 46.8999 31.4247 46.3999 30.1347C45.8299 28.6847 44.5799 27.7247 44.3699 26.0547C44.1999 24.6647 44.2499 23.2247 44.7299 21.8947C45.4299 19.9547 48.0099 18.6447 49.6799 19.8647C50.8899 20.7447 50.5399 21.9147 50.8999 23.1347C51.4799 25.1047 52.4999 26.9447 53.8499 28.4847C53.5099 27.6347 53.6799 26.6647 53.9599 25.7847C55.4999 20.9247 60.1999 17.6447 65.1599 17.1047C67.5399 16.8447 69.9599 16.8447 72.3199 17.1647Z" fill="#806E91"/>
<path d="M47.58 42.5448C51.08 46.7048 55.41 50.2248 60.55 52.0948C60.84 52.2048 61.01 51.7548 60.76 51.6048C56.16 48.8448 51.76 45.9848 47.86 42.2648C47.67 42.0848 47.42 42.3548 47.58 42.5448Z" fill="#F6B28F"/>
<path d="M70.7 37.9646C72.53 38.4846 74.16 39.3546 76 38.3346C76.23 38.2046 76.07 37.8847 75.83 37.9347C74.89 38.1147 73.97 38.2747 73.01 38.1247C72.25 38.0047 71.5 37.7746 70.73 37.6746C70.57 37.6546 70.55 37.9246 70.7 37.9646Z" fill="#F6B28F"/>
<path d="M40.5 48.1247C39.33 56.0447 40.03 64.5447 40.16 72.5447C40.22 76.5747 40.29 80.5947 40.42 84.6247C40.49 86.6347 40.57 88.6447 40.67 90.6647C40.77 92.5847 40.75 94.5247 41.29 96.3747C41.25 96.2247 41.51 95.5747 41.54 95.3747C41.6 94.9947 41.62 94.6547 41.62 94.2647C41.61 93.2847 41.6 92.2947 41.58 91.3147C41.54 89.2947 41.49 87.2747 41.43 85.2547C41.31 81.2647 41.17 77.2847 41.11 73.2947C40.97 65.0347 41.79 56.3647 40.73 48.1847C40.71 48.0347 40.52 47.9747 40.5 48.1247Z" fill="#35BBD9"/>
<path d="M61.49 55.4346C62.71 65.2546 62.95 75.2946 64.55 85.0546C64.61 85.4046 65.14 85.3046 65.15 84.9746C65.48 75.2446 63.72 64.8846 61.77 55.3946C61.73 55.2446 61.47 55.2746 61.49 55.4346Z" fill="#35BBD9"/>
<path d="M30 50.4847C24.01 53.6347 12.84 60.3347 8.49999 65.5247C4.50999 70.3047 2.86999 76.4547 1.72999 82.4647C-0.59001 94.6647 -2.32002 111.995 9.01998 120.415C9.38998 120.685 9.76999 120.145 9.43999 119.855C-1.05001 110.605 0.679987 94.4647 3.10999 82.0247C4.25999 76.1447 5.96999 70.3647 9.96999 65.7647C14.31 60.7847 25.11 55.0247 30.43 51.1747C30.79 50.9047 30.41 50.2747 30 50.4847Z" fill="#35BBD9"/>
<path d="M11.48 120.175C19 123.615 28.69 122.965 36.37 120.425C43.81 117.955 52.19 114.105 58 108.805C58.31 108.525 57.9 107.975 57.55 108.215C44.77 116.955 27.25 125.695 11.56 120.015C11.45 119.965 11.38 120.135 11.48 120.175Z" fill="#35BBD9"/>
<path d="M34.39 98.0046C31.31 99.2646 28.16 101.105 25.71 103.465C25.4 103.755 25.83 104.155 26.14 103.985C29.05 102.415 31.9 100.425 34.62 98.5046C34.87 98.3246 34.68 97.8946 34.39 98.0046Z" fill="#35BBD9"/>
<path d="M36.73 97.6046C43.46 96.9246 54.91 91.7946 59.84 87.1546C59.97 87.0346 59.8 86.8346 59.65 86.9146C56.71 88.5246 50.36 92.1146 47.32 93.5446C43.87 95.1746 40.27 96.1246 36.7 97.3646C36.58 97.4146 36.59 97.6246 36.73 97.6046Z" fill="#35BBD9"/>
<path d="M68.5899 99.8846C68.0699 99.1346 67.6199 98.3247 67.2499 97.4747C67.1799 97.3447 67.1199 97.2047 67.0599 97.0647C66.3799 95.4247 65.9299 93.6447 65.6499 91.9347C65.4599 90.7747 65.3699 89.5847 65.3699 88.3947C65.3599 88.2347 65.3599 88.0746 65.3599 87.9146V87.7047C65.3699 86.7847 65.5799 86.3547 64.6199 86.2047C63.8599 86.0947 62.7299 86.5447 62.0099 86.7347C61.9499 86.7447 61.9399 86.6647 61.9799 86.6447C62.1499 86.5647 62.3199 86.4846 62.4899 86.4146C63.1899 86.1046 63.8599 85.8947 64.5899 85.7547C64.5899 85.7547 64.5899 85.7447 64.5999 85.7447C64.9499 85.6847 65.3099 85.6247 65.6899 85.5847C65.8699 85.5547 65.9999 85.7047 65.9999 85.8747C65.9899 86.4547 65.9999 87.0347 66.0299 87.5947C66.0299 87.7847 66.0399 87.9647 66.0599 88.1447C66.2299 90.4047 66.7099 92.5347 67.3799 94.6447C67.4399 94.8547 67.5099 95.0547 67.5799 95.2647C67.6999 95.6447 67.8299 96.0247 67.9599 96.4047C67.9999 96.4947 68.0299 96.5947 68.0599 96.6847C68.4099 97.6347 68.7699 98.5847 69.1499 99.5547C69.2799 99.8947 68.7899 100.195 68.5899 99.8846Z" fill="#35BBD9"/>
<path d="M36.33 48.2246C31.12 51.6346 26.96 58.7646 25.02 64.5346C24.91 64.8546 25.43 65.0846 25.58 64.7746C27.03 61.7846 28.44 58.8446 30.33 56.0946C32.21 53.3646 34.63 51.1346 36.59 48.4846C36.7 48.3246 36.48 48.1246 36.33 48.2246Z" fill="#35BBD9"/>
<path d="M25.71 64.8147C27.51 65.0847 29.31 64.5347 31.1 64.2247C33.47 63.8047 35.84 63.4247 38.17 62.8047C38.48 62.7247 38.43 62.2047 38.09 62.2247C35.96 62.3647 33.88 62.7047 31.78 63.0647C29.77 63.4147 27.47 63.5247 25.68 64.5547C25.58 64.6147 25.58 64.7947 25.71 64.8147Z" fill="#35BBD9"/>
<path d="M37.68 62.4647C33.97 64.9947 30.13 67.3447 26.45 69.9047C26.13 70.1247 26.31 70.7148 26.73 70.5648C30.88 69.0948 35.03 66.1147 38.04 62.9247C38.26 62.6947 37.97 62.2747 37.68 62.4647Z" fill="#35BBD9"/>
<path d="M26.97 70.7148C31.18 80.4048 34.07 89.1648 34.85 99.7648C34.89 100.265 35.65 100.285 35.65 99.7648C35.68 89.6548 32.53 79.1448 27.01 70.6948C27 70.6648 26.96 70.6848 26.97 70.7148Z" fill="#35BBD9"/>
<path d="M63.9 52.1348C65.4 54.2948 67.11 56.2748 68.81 58.2748C70.68 60.4848 72.45 62.9448 74.64 64.8548C74.89 65.0748 75.32 64.7948 75.12 64.4848C73.69 62.2948 71.75 60.3948 70.02 58.4448C68.07 56.2548 66.16 54.0348 64.02 52.0448C63.95 51.9948 63.85 52.0648 63.9 52.1348Z" fill="#35BBD9"/>
<path d="M73.76 64.6947C70.93 64.5447 67.76 64.3147 65.01 65.0947C64.53 65.2247 64.68 65.8447 65.12 65.9047C67.94 66.2547 71.04 65.5447 73.8 64.9747C73.96 64.9347 73.91 64.6947 73.76 64.6947Z" fill="#35BBD9"/>
<path d="M65.62 66.1948C66.93 66.6648 68.2 67.2248 69.41 67.9148C70.38 68.4648 71.29 69.1548 72.35 69.5348C72.61 69.6348 72.75 69.2848 72.6 69.1048C71.01 67.2648 67.95 66.4948 65.67 66.0148C65.56 65.9848 65.51 66.1548 65.62 66.1948Z" fill="#35BBD9"/>
<path d="M72.28 69.5647C71.4 71.6047 71.02 73.7347 70.79 75.9347C70.54 78.2947 70.11 81.0547 70.7 83.3747C70.76 83.6147 71.11 83.6047 71.18 83.3747C71.75 81.4547 71.48 79.3247 71.58 77.3347C71.71 74.7547 72.12 72.2447 72.69 69.7347C72.74 69.5047 72.39 69.3147 72.28 69.5647Z" fill="#35BBD9"/>
<path d="M10.89 133.895C13.26 141.865 15.98 150.485 22.92 155.615C30.5 161.215 40.75 164.445 50.14 164.185C50.79 164.165 50.9 163.215 50.22 163.155C41 162.355 31.88 160.365 24.14 155.015C16.72 149.895 15 141.435 11.09 133.835C11.03 133.735 10.85 133.775 10.89 133.895Z" fill="#35BBD9"/>
<path d="M56.9099 164.155C56.3099 164.155 54.3899 159.745 54.0799 159.125C53.1699 157.335 52.3399 155.495 51.5699 153.635C50.0299 149.905 48.7699 146.055 47.6799 142.175C46.4999 137.955 45.4699 133.685 44.6699 129.375C44.2499 127.125 43.8999 124.865 43.6199 122.595C43.3899 120.705 43.5299 118.605 43.0699 116.775C42.3599 119.135 42.7699 121.465 42.9299 123.865C43.1099 126.555 43.6499 129.205 44.1599 131.845C45.0899 136.615 46.6299 141.225 48.0399 145.865C50.0399 152.475 52.5799 158.685 56.5099 164.395C56.6799 164.635 57.0699 164.415 56.9099 164.155Z" fill="#35BBD9"/>
<path d="M64.09 99.4847C63.54 110.055 63.38 120.445 62.19 130.985C62.15 131.325 62.72 131.395 62.79 131.065C64.98 120.965 66.02 109.685 64.46 99.4347C64.43 99.2147 64.1 99.2847 64.09 99.4847Z" fill="#35BBD9"/>
<path d="M60.8299 87.0648C59.4899 94.2048 58.7699 101.475 57.8199 108.635C57.7999 108.805 58.0099 108.825 58.0399 108.645C59.2599 101.515 60.5299 94.1848 60.9099 87.0648C60.8999 87.0148 60.8399 87.0048 60.8299 87.0648Z" fill="#35BBD9"/>
<path d="M58.75 105.585C60.4 104.235 61.87 102.595 63.39 101.105C64.92 99.6048 66.56 98.2048 68.07 96.6848C68.19 96.5648 68.03 96.3448 67.89 96.4448C64.56 98.8848 60.97 102.075 58.59 105.455C58.51 105.555 58.66 105.645 58.75 105.585Z" fill="#35BBD9"/>
<path d="M68.1199 52.7148C74.1699 55.4648 80.1099 58.4248 83.7399 64.2648C86.9799 69.4748 87.6599 75.6048 89.1299 81.4148C89.1999 81.7048 89.6799 81.6548 89.6599 81.3448C89.1399 74.9248 87.6199 67.8548 83.7799 62.5248C79.9899 57.2748 74.0299 54.8248 68.1799 52.5848C68.0999 52.5548 68.0399 52.6848 68.1199 52.7148Z" fill="#35BBD9"/>
<path d="M114.29 153.895C114.22 156.065 114.02 158.245 113.57 160.465C113.53 160.685 113.47 160.895 113.41 161.105C113.35 161.335 113.28 161.565 113.19 161.785C111.84 165.625 108.27 168.155 104.62 169.795C100.61 171.595 96.18 172.235 91.77 172.235H91.6C90.87 172.235 90.13 172.215 89.41 172.175C82.35 171.835 73.89 169.445 68.39 164.415C68.39 164.415 68.38 164.405 68.37 164.405C68.04 164.105 67.73 163.795 67.44 163.475C66.99 163.025 66.58 162.555 66.2 162.055C65.69 161.415 65.23 160.735 64.83 160.025C63.86 158.375 63.18 156.535 62.85 154.495C62.5 152.375 62.24 150.235 62.08 148.085C61.65 142.465 61.86 136.785 62.7 131.195C63.02 128.975 63.45 126.765 63.99 124.585C63.98 124.575 63.99 124.575 63.99 124.575C64.06 124.235 64.15 123.905 64.23 123.575C64.78 121.425 65.16 119.185 65.61 116.985C65.77 116.195 65.93 115.425 66.12 114.655C66.42 113.445 66.77 112.255 67.23 111.115C68.78 107.175 70.87 103.465 73.42 100.095C73.64 99.7946 73.86 99.5046 74.09 99.2146C76.75 95.8446 79.88 92.8346 83.38 90.3246C83.4 90.3046 83.43 90.2946 83.45 90.2746C83.69 90.1046 83.93 89.9446 84.18 89.7746C84.47 89.5846 84.76 89.3946 85.06 89.2046C85.07 89.1946 85.09 89.1846 85.1 89.1746C85.25 89.0746 85.41 88.9746 85.57 88.8846C85.75 88.7646 85.93 88.6546 86.11 88.5546C86.46 88.3246 86.81 88.1146 87.16 87.8946C87.43 87.7246 87.7 87.5546 87.97 87.3746H87.98C88.54 87.0146 89.1 86.6546 89.63 86.2646C89.96 86.0346 90.28 85.7946 90.59 85.5446C90.73 85.4446 90.85 85.3346 90.98 85.2246C91.14 85.0946 91.3 84.9546 91.46 84.8046C92.21 84.1446 92.91 83.3946 93.51 82.5446C93.81 82.1246 94.34 81.1346 94.98 80.2546C94.99 80.2546 94.99 80.2546 95 80.2346C95.03 80.1946 95.05 80.1546 95.08 80.1246C95.45 79.6246 95.86 79.1746 96.28 78.8946C96.34 78.8446 96.4 78.8046 96.46 78.7846C96.95 78.4846 97.46 78.4546 97.94 78.8546C97.97 78.8746 97.99 78.9046 98.02 78.9246C98.64 79.5046 98.95 81.5746 99.17 83.3946C99.31 84.4846 99.41 85.4946 99.53 86.0246C99.69 86.7146 99.85 87.3946 100.02 88.0746C100.12 88.5546 100.24 89.0346 100.36 89.5046C100.63 90.6346 100.91 91.7546 101.2 92.8746C101.67 94.6846 102.16 96.4946 102.67 98.2946C102.68 98.3046 102.68 98.3146 102.68 98.3246C102.76 98.6346 102.85 98.9346 102.94 99.2446C103.08 99.7246 103.23 100.185 103.39 100.645C103.39 100.655 103.4 100.665 103.4 100.675C103.83 101.895 104.35 103.055 104.89 104.205C105.29 105.055 105.71 105.905 106.13 106.755C106.14 106.785 106.16 106.825 106.18 106.865C106.78 108.115 107.36 109.375 107.85 110.695C107.94 110.935 108.03 111.175 108.11 111.415C108.89 113.705 109.6 116.015 110.22 118.345C110.24 118.395 110.25 118.435 110.26 118.475C110.9 120.855 111.47 123.255 111.95 125.665C112.07 126.235 112.18 126.795 112.28 127.365C112.54 128.745 112.77 130.125 112.98 131.515C113.65 136.045 114.05 140.615 114.17 145.205C114.24 148.175 114.39 151.035 114.29 153.895Z" fill="#FBD8C0"/>
<path d="M100.72 73.9646C97.7099 77.8146 93.8399 80.9446 91.0199 84.9346C88.1999 88.9246 86.5299 94.2846 88.6099 98.6946C89.8799 101.405 92.3999 103.365 95.1299 104.565C97.8699 105.775 100.84 106.305 103.78 106.835C104.71 107.005 105.73 107.155 106.57 106.705C107.75 106.075 108.06 104.545 108.22 103.205C109.08 96.1746 109.49 88.8346 107.04 82.1846L100.72 73.9646Z" fill="#FBD8C0"/>
<g opacity="0.51">
<g opacity="0.51">
<path opacity="0.51" d="M100.72 73.9646C98.9099 76.2746 96.8399 78.4946 94.7299 80.5246C93.2699 81.9146 92.0199 82.5946 91.5099 84.6446C90.2099 89.9046 91.7799 96.1546 94.6999 100.595C97.1399 104.295 107.23 111.475 108.23 103.225C109.09 96.1946 109.5 88.8546 107.05 82.2046L100.72 73.9646Z" fill="#F6AE89"/>
</g>
</g>
<path d="M138.62 82.4946C139.02 81.9046 139.36 81.2746 139.57 80.5946C140.13 78.7246 139.09 77.3046 137.97 75.9146C136.41 73.9746 134.23 72.9246 132.74 70.9046C131.6 69.3646 130.44 67.7946 128.86 66.7146C125.32 64.2946 120.61 64.8346 116.39 65.5446C113.29 66.0646 110.1 66.6546 107.47 68.3746C103.63 70.8846 101.58 75.4446 100.72 79.9546C99.7799 84.8946 100.05 90.0446 101.46 94.8746C102.5 98.4346 103.55 103.445 107.63 104.615C109.66 105.195 111.85 104.575 113.7 103.575C116.61 102.005 118.69 99.6446 120.93 97.2746C122.52 97.5946 123.31 100.225 125.23 98.7246C127.53 96.9146 127.11 92.3946 129.59 90.8246C129.9 90.6346 130.25 90.5346 130.59 90.4046C131.57 90.0246 132.4 89.3346 133.18 88.6246C134.95 87.0146 136.57 85.2446 138.02 83.3446C138.22 83.0646 138.43 82.7846 138.62 82.4946Z" fill="#FBD8C0"/>
<path d="M41.57 47.9347C45.02 51.6847 48.14 55.7547 53.14 57.4947C56.12 58.5247 60 58.9548 61.65 55.7248C61.83 55.3748 61.39 55.0147 61.1 55.2947C54.64 61.4747 46.69 50.7247 41.8 47.6447C41.61 47.5247 41.43 47.7847 41.57 47.9347Z" fill="#35BBD9"/>
<path d="M113.16 160.475C113.39 159.345 112.8 150.015 113.44 149.605C109.3 152.245 103.59 150.965 99.76 147.905C95.92 144.845 93.53 140.375 91.24 136.035C88.74 131.295 86.25 126.555 83.75 121.815C83.4 121.155 83.04 120.475 82.5 119.955C81.37 118.865 79.63 118.655 78.08 118.945C74.13 119.695 71.31 123.175 69.26 126.635C64.3 134.985 60.84 144.845 62.43 154.505C64.4 166.445 78.3 171.665 88.99 172.175C94.17 172.425 99.48 171.915 104.21 169.795C108.26 167.985 112.22 165.065 113.16 160.475Z" fill="#FAD0B1"/>
<path d="M138.47 83.4946C140 81.9346 141.18 80.0446 141.88 77.9846C143.96 71.8946 142.09 64.1146 137.81 59.4146C133.94 55.1646 128.75 51.9346 123.1 50.7446C121.74 50.4546 120.31 50.3746 118.85 50.4746C114.32 50.7846 109.6 52.8346 106.55 55.9046C103.8 58.6646 102.05 62.2546 100.84 65.9146C99.5699 69.7746 99.3399 73.6746 97.4399 77.3146C97.4899 77.2146 101.62 76.6246 102.15 76.4046C103.69 75.7546 104.96 74.8746 105.96 73.5646C107.84 71.1046 109.18 70.0046 112.22 71.7946C112.7 72.0746 113.18 72.4046 113.5 72.8546C114.29 73.9446 114.04 75.4346 113.53 76.5846C113.43 76.8046 112.04 78.8346 112.05 78.8446C112.06 78.8546 113.15 80.3446 113.15 80.3446C113.15 80.3446 123.4 78.8446 125.13 71.7046C125.22 71.5646 127.23 74.5646 127.42 74.8246C128.82 76.7446 130.21 78.7146 132.01 80.2246C133.78 81.7146 135.69 82.9646 136.51 85.1846C137.41 84.5946 137.73 84.2546 138.47 83.4946Z" fill="#806E91"/>
<path d="M120.13 95.9847C120.57 96.7847 121.15 97.4848 121.85 98.0648C122.43 98.5448 123.17 99.1848 123.96 99.1848C124.14 99.1848 124.29 98.9648 124.18 98.8047C123.75 98.1848 122.95 97.8347 122.36 97.3847C121.7 96.8747 121.08 96.2948 120.47 95.7248C120.29 95.5448 120.01 95.7647 120.13 95.9847Z" fill="#F6B28F"/>
<path d="M98.8999 83.6847C99.0899 90.3647 99.3899 100.985 105.85 104.875C106.18 105.075 106.48 104.635 106.25 104.365C100.93 98.1347 101.3 91.1647 99.4799 83.6147C99.3999 83.2847 98.8899 83.3547 98.8999 83.6847Z" fill="#F6B28F"/>
<path d="M89.2199 106.815C91.4199 103.565 94.1599 100.715 96.3799 97.4846C99.5999 92.7846 101.26 85.8746 99.6499 80.3046C99.4399 79.5846 98.9899 78.7446 98.2399 78.7946C97.7799 78.8246 97.4399 79.2046 97.1399 79.5546C93.3599 83.9846 89.4699 88.2346 85.5699 92.5546C80.0799 98.6346 74.5399 104.785 70.5999 111.975C66.9299 118.665 64.5799 125.975 63.4299 133.485C63.0499 135.955 63.1599 138.395 62.9999 140.875C62.8199 143.565 62.7599 146.245 62.7999 148.935C62.8399 151.785 62.9399 154.675 63.7799 157.405C65.4399 162.785 68.9899 165.985 74.4799 167.045C76.6699 167.465 79.1399 167.715 80.9299 166.385C82.9299 164.905 83.2799 162.095 83.3199 159.605C83.6299 141.795 78.2599 123.015 89.2199 106.815Z" fill="#35BBD9"/>
<path d="M92.99 91.0948C92.13 92.4348 91.31 93.7848 90.22 94.9548C89.13 96.1148 87.92 97.1348 86.78 98.2448C84.48 100.475 82.47 102.905 80.98 105.735C79.27 108.975 77.28 112.045 75.46 115.225C74.76 116.445 74.23 117.715 73.54 118.945C72.74 120.365 71.99 121.815 71.34 123.315C70.33 125.635 69.55 128.055 68.98 130.525C68.69 131.785 68.45 133.065 68.25 134.345C68.08 135.435 67.62 136.285 67.34 137.345C66.61 140.175 66.68 143.135 66.69 146.035C66.7 148.825 66.97 151.715 68.09 154.305C68.85 156.055 69.76 157.775 71.08 159.165C71.64 159.755 72.46 160.295 73.21 160.625C73.57 160.785 75.4 161.155 75.45 160.335C75.57 158.195 74.81 156.115 74.19 154.065C71.31 144.445 71.74 133.865 75.38 124.505C76.5 121.625 77.91 118.865 79.32 116.115C80.42 113.955 81.53 111.805 82.63 109.645C84.68 105.635 87.11 101.805 90.03 98.3448C92.79 95.0848 95.83 91.8248 97.18 87.6748C97.45 86.8248 97.66 85.9448 97.6 85.0548C97.54 84.1648 97.19 83.2748 96.52 82.6948C96.03 85.3148 94.97 87.8048 93.61 90.1048C93.4 90.4348 93.2 90.7648 92.99 91.0948Z" fill="#EAD6C6"/>
<path d="M72.56 154.265C73.15 154.115 73.75 153.995 74.36 153.915C75.2 153.805 75.11 154.945 75.16 155.485C75.24 156.305 75.57 157.165 75.97 157.895C76.19 158.365 76.7 159.065 76.67 159.565C76.61 160.825 71.28 162.705 69.95 161.685C69.46 161.305 69.22 160.785 68.49 160.835C67.63 160.895 66.98 161.695 66.06 161.515C65.71 160.695 66.02 159.635 66.76 159.135C67.57 158.585 68.31 158.045 68.23 156.925C68.21 156.685 68.14 156.435 68.2 156.205C68.3 155.855 68.66 155.675 68.99 155.535C70.15 155.015 71.34 154.575 72.56 154.265Z" fill="white"/>
<path d="M71.08 147.215C71.77 147.115 72.82 146.705 73.26 147.475C73.48 147.855 73.32 148.395 73.35 148.815C73.39 149.285 73.5 149.865 73.66 150.315C73.76 150.675 74.26 151.485 74.02 151.845C73.8 152.185 72.56 152.235 72.17 152.335C70.88 152.655 69.61 153.045 68.38 153.525C67.99 153.675 67.6 153.825 67.19 153.895C66.95 153.005 66.97 151.565 65.8 151.395C64.95 151.275 64.17 151.845 63.3 151.505C63.1 150.705 63.6 149.835 64.42 149.545C65.07 149.315 65.65 149.075 66.06 148.495C66.58 147.765 66.67 147.645 67.68 147.575C68.81 147.485 69.95 147.365 71.08 147.215Z" fill="white"/>
<path d="M71.18 140.145C71.87 140.245 73 140.145 73.2 141.005C73.3 141.435 72.99 141.905 72.91 142.315C72.7 143.275 72.82 144.235 72.61 145.205C72.59 145.285 72.57 145.375 72.51 145.435C72.44 145.505 72.33 145.505 72.22 145.505C70.53 145.485 68.84 145.615 67.17 145.885C66.88 145.935 66.6 145.985 66.31 145.935C66.02 145.895 65.74 145.735 65.62 145.475C65.21 144.575 66.24 143.255 64.94 142.665C64.16 142.305 63.25 142.635 62.51 142.055C62.55 141.235 63.27 140.535 64.14 140.495C64.83 140.455 65.45 140.385 66.01 139.955C66.72 139.405 66.84 139.315 67.83 139.525C68.92 139.765 70.05 139.975 71.18 140.145Z" fill="white"/>
<path d="M72.52 132.775C73.18 132.995 74.31 133.085 74.36 133.975C74.38 134.415 74 134.825 73.85 135.215C73.48 136.125 73.43 137.095 73.06 138.015C73.03 138.095 72.99 138.175 72.92 138.225C72.83 138.275 72.72 138.265 72.63 138.245C70.97 137.935 69.28 137.775 67.59 137.755C67.3 137.755 67.01 137.755 66.73 137.655C66.46 137.565 66.2 137.365 66.13 137.085C65.88 136.125 67.12 135.005 65.94 134.195C65.23 133.705 64.28 133.875 63.65 133.185C63.83 132.385 64.66 131.825 65.52 131.925C66.21 132.005 66.83 132.045 67.45 131.715C68.24 131.295 68.37 131.225 69.31 131.605C70.37 132.015 71.44 132.415 72.52 132.775Z" fill="white"/>
<path d="M74.74 125.585C75.2 125.815 75.9 125.945 76.16 126.455C76.28 126.685 76.32 127.135 76.33 127.385C76.34 127.785 76.14 128.175 75.95 128.515C75.51 129.305 75.08 130.105 74.64 130.895C72.77 130.335 70.9 129.745 69.05 129.125C68.95 129.095 68.84 129.055 68.79 128.965C68.75 128.905 68.75 128.825 68.74 128.745C68.72 128.175 68.84 127.685 69 127.145C69.12 126.725 69.02 126.365 68.7 126.065C68.13 125.545 67.25 125.575 66.78 124.885C67.03 124.185 67.84 123.785 68.6 123.985C69.2 124.135 69.75 124.245 70.35 124.025C71.11 123.745 71.23 123.695 72.02 124.145C72.91 124.645 73.81 125.125 74.74 125.585Z" fill="white"/>
<path d="M76.77 119.255C77.33 119.565 77.88 119.875 78.37 120.285C78.43 120.335 78.48 120.385 78.51 120.455C78.54 120.545 78.52 120.645 78.5 120.735C78.13 122.025 77.53 123.415 76.32 124.135C76.14 124.245 75.94 124.335 75.73 124.315C75.58 124.305 75.44 124.235 75.3 124.165C74.31 123.665 73.31 123.165 72.31 122.665C71.99 122.505 71.66 122.335 71.42 122.075C71 121.615 71.06 120.995 71.22 120.455C71.34 120.035 71.25 119.665 70.92 119.375C70.35 118.855 69.48 118.885 69 118.195C69.26 117.495 70.06 117.095 70.82 117.295C71.4 117.445 71.91 117.505 72.5 117.365C72.96 117.255 73.39 117.175 73.85 117.405C74.15 117.565 74.41 117.795 74.67 118.005C75.31 118.495 76.05 118.865 76.77 119.255Z" fill="white"/>
<path d="M79.66 114.335C80.12 114.655 80.5799 114.975 81.0299 115.295C81.0999 115.345 81.1699 115.395 81.2199 115.455C81.4299 115.695 81.41 116.055 81.3 116.355C80.97 117.275 80.53 118.045 79.66 118.565C79.48 118.665 79.28 118.765 79.07 118.745C78.92 118.735 78.7799 118.665 78.6399 118.595C77.6399 118.095 76.6499 117.595 75.6499 117.095C75.3299 116.935 74.9999 116.765 74.7599 116.505C74.3399 116.045 74.3999 115.425 74.5599 114.875C74.6799 114.455 74.5899 114.085 74.2599 113.795C73.8499 113.425 71.8 112.965 72.58 112.205C73.23 111.565 74.3599 112.505 75.0899 112.525C75.3799 112.535 75.66 112.395 75.94 112.355C76.55 112.275 77.1299 112.625 77.6499 112.975C78.3299 113.415 79 113.865 79.66 114.335Z" fill="white"/>
<path d="M81.99 109.725C82.39 110.005 82.79 110.285 83.19 110.565C83.25 110.605 83.31 110.645 83.36 110.705C83.54 110.905 83.52 111.225 83.43 111.485C83.1 112.415 82.42 113.785 81.26 113.675C80.78 113.625 80.33 113.395 79.91 113.155C79.47 112.895 79.03 112.605 78.62 112.305C77.88 111.755 77.27 111.165 77.54 110.195C77.64 109.825 77.56 109.505 77.27 109.245C76.91 108.915 75.13 108.525 75.8 107.855C76.37 107.295 77.35 108.125 77.99 108.135C78.24 108.145 78.48 108.025 78.74 107.985C79.28 107.915 79.78 108.225 80.23 108.525C80.82 108.925 81.4 109.325 81.99 109.725Z" fill="white"/>
<path d="M84.4101 105.705C85.2101 106.295 85.7901 107.025 85.1701 107.995C85.0001 108.265 84.8001 108.515 84.5801 108.745C84.3801 108.955 84.1501 109.155 83.8601 109.225C83.5301 109.305 83.1901 109.185 82.8801 109.065C82.0601 108.725 81.3 108.265 80.62 107.705C80.31 107.445 79.9801 107.065 80.1301 106.695C80.4401 105.875 80.28 105.425 79.51 105.055C79.19 104.905 78.1601 104.535 78.6601 104.045C79.1801 103.525 80.09 104.295 80.68 104.305C80.91 104.315 81.13 104.195 81.37 104.165C81.87 104.095 82.3301 104.385 82.7501 104.665C83.2001 104.955 83.8501 105.295 84.4101 105.705Z" fill="#EE80AD"/>
<path d="M85.16 104.795C84.34 104.455 83.5799 103.995 82.8899 103.445C82.5799 103.185 82.2599 102.805 82.3999 102.425C82.4799 102.195 82.5299 101.965 82.5099 101.725C82.4799 101.465 82.28 101.315 82.1 101.135C81.93 100.955 81.76 100.745 81.77 100.505C81.77 100.475 81.78 100.435 81.8 100.415C81.82 100.395 81.8399 100.395 81.8699 100.395C82.0799 100.365 82.2899 100.415 82.4699 100.515C82.7099 100.655 83.0499 100.985 83.3699 100.865C83.5199 100.805 83.5699 100.655 83.7499 100.615C83.9299 100.585 84.1299 100.645 84.2899 100.715C85.2099 101.085 86.0199 101.695 86.7599 102.365C86.9699 102.555 87.18 102.765 87.24 103.035C87.4 103.705 86.8799 104.405 86.4699 104.875C86.3099 105.065 86.1899 105.105 85.9699 105.035C85.7099 104.955 85.43 104.905 85.16 104.795Z" fill="#EE80AD"/>
<path d="M87.4 101.765C86.71 101.475 86.06 101.085 85.48 100.615C85.22 100.395 84.94 100.075 85.06 99.7547C85.13 99.5647 85.17 99.3647 85.15 99.1547C85.13 98.9347 84.95 98.8047 84.8 98.6547C84.66 98.5047 84.51 98.3247 84.52 98.1247C84.52 98.0947 84.53 98.0646 84.55 98.0546C84.57 98.0446 84.59 98.0347 84.61 98.0347C84.79 98.0147 84.97 98.0446 85.12 98.1446C85.33 98.2646 85.61 98.5447 85.88 98.4347C86.01 98.3847 86.05 98.2547 86.21 98.2247C86.36 98.1947 86.53 98.2546 86.67 98.3046C87.45 98.6246 88.14 99.1446 88.77 99.7046C88.95 99.8646 89.13 100.045 89.18 100.275C89.31 100.845 88.88 101.435 88.53 101.835C88.39 101.995 88.29 102.025 88.1 101.975C87.87 101.895 87.63 101.855 87.4 101.765Z" fill="#F3A4B1"/>
<path d="M89.9299 99.4947C89.9099 99.4947 89.8799 99.4847 89.8499 99.4847C89.6999 99.4447 89.5599 99.3547 89.4299 99.2647C89.1699 99.0847 88.8999 98.9347 88.6099 98.7947C88.0699 98.5347 87.6999 98.2646 87.5199 97.6646C87.4599 97.4746 87.6399 97.1547 87.4899 97.0347C87.1899 96.7947 86.9099 96.4947 86.8399 96.1247C86.8299 96.0847 86.8299 96.0447 86.8499 96.0147C86.8699 95.9847 86.9199 95.9747 86.9599 95.9747C87.1899 95.9547 87.4199 96.0146 87.6099 96.1346C87.7499 96.2246 87.8899 96.3447 88.0499 96.3347C88.3099 96.3147 88.3599 96.0146 88.5699 95.9146C88.7499 95.8246 89.0199 95.9247 89.1899 95.9947C89.7899 96.2347 90.3299 96.5947 90.8299 97.0047C91.2299 97.3347 91.8199 97.6647 91.3599 98.1847C91.1199 98.4547 90.9799 98.7847 90.7599 99.0647C90.5699 99.3147 90.2499 99.5347 89.9299 99.4947Z" fill="#F3A4B1"/>
<path d="M91.7 97.1248C91.68 97.1148 91.65 97.1147 91.63 97.1047C91.48 97.0547 91.36 96.9647 91.23 96.8647C90.98 96.6847 90.71 96.5148 90.44 96.3748C89.92 96.0948 89.56 95.8148 89.35 95.2448C89.28 95.0648 89.43 94.7748 89.28 94.6548C88.99 94.4048 88.71 94.1148 88.61 93.7548C88.6 93.7148 88.6 93.6848 88.61 93.6548C88.63 93.6248 88.67 93.6248 88.7 93.6248C88.91 93.6248 89.13 93.6947 89.32 93.8247C89.45 93.9147 89.59 94.0447 89.74 94.0447C89.98 94.0447 90.01 93.7748 90.2 93.6948C90.36 93.6248 90.62 93.7348 90.78 93.8148C91.35 94.0848 91.88 94.4547 92.37 94.8647C92.77 95.1947 93.34 95.5548 92.95 96.0048C92.75 96.2348 92.64 96.5348 92.45 96.7848C92.28 97.0048 92 97.1848 91.7 97.1248Z" fill="#EE80AD"/>
<path d="M93.9399 94.5447C93.9199 94.5347 93.8899 94.5347 93.8699 94.5247C93.7299 94.4747 93.5999 94.3747 93.4699 94.2847C93.2199 94.1047 92.9499 93.9347 92.6799 93.7947C92.1599 93.5147 91.7999 93.2347 91.5899 92.6747C91.5299 92.4947 91.6699 92.2047 91.5199 92.0847C91.2299 91.8347 90.9399 91.5447 90.8499 91.1847C90.8399 91.1447 90.8299 91.1147 90.8499 91.0847C90.8699 91.0547 90.9099 91.0547 90.9399 91.0547C91.3199 91.0547 91.5599 91.2947 91.8799 91.4447C92.0199 91.5047 92.1599 91.5347 92.2799 91.6447C92.3699 91.7347 92.4299 91.9947 92.5599 91.7447C92.5999 91.6747 92.6199 91.5947 92.6799 91.5447C92.8099 91.4447 92.9899 91.5547 93.1199 91.6647C93.5399 92.0247 94.0099 92.3247 94.5099 92.5647C94.6299 92.6147 94.7399 92.6747 94.8299 92.7647C94.8899 92.8347 94.9299 92.9247 94.9599 93.0147C95.1299 93.6047 94.7299 94.6947 93.9399 94.5447Z" fill="#F3A4B1"/>
<path d="M93.69 89.6047C93.64 89.5947 93.59 89.5747 93.54 89.5547C93.46 89.5147 93.4 89.4547 93.32 89.4047C93.24 89.3547 93.16 89.3247 93.07 89.3347C92.98 89.3447 92.9 89.4247 92.91 89.5047C92.91 89.5647 92.95 89.6147 92.99 89.6547C93.23 89.9347 93.45 90.0347 93.44 90.4047C93.43 90.6947 93.47 90.8547 93.73 91.0247C94.28 91.3947 94.94 91.6147 95.6 91.6547C95.68 91.6647 95.77 91.6647 95.84 91.6147C95.93 91.5547 95.96 91.4347 96.03 91.3547C96.08 91.2947 96.15 91.2547 96.19 91.1947C96.26 91.0547 96.16 90.8947 96.06 90.7847C95.94 90.6447 95.83 90.5047 95.71 90.3747C95.53 90.1647 95.35 89.9547 95.13 89.7847C94.92 89.6247 94.54 89.2847 94.26 89.3847C94.14 89.4247 94.07 89.5847 93.91 89.6147C93.83 89.6147 93.76 89.6147 93.69 89.6047Z" fill="#F3A4B1"/>
<path d="M94.68 87.1747C94.63 87.1647 94.58 87.1447 94.53 87.1247C94.45 87.0847 94.39 87.0247 94.31 86.9747C94.24 86.9247 94.15 86.8847 94.06 86.9047C93.97 86.9147 93.89 86.9947 93.9 87.0747C93.9 87.1347 93.94 87.1847 93.98 87.2247C94.22 87.5047 94.44 87.6047 94.43 87.9747C94.42 88.2647 94.47 88.4247 94.72 88.5947C95.27 88.9647 95.93 89.1847 96.59 89.2247C96.67 89.2347 96.76 89.2347 96.83 89.1847C96.92 89.1247 96.95 89.0147 97.02 88.9247C97.07 88.8647 97.14 88.8247 97.18 88.7647C97.25 88.6247 97.15 88.4647 97.05 88.3547C96.93 88.2147 96.82 88.0747 96.7 87.9447C96.52 87.7347 96.34 87.5247 96.12 87.3547C95.91 87.1947 95.53 86.8547 95.25 86.9547C95.13 86.9947 95.06 87.1547 94.9 87.1847C94.82 87.1847 94.75 87.1947 94.68 87.1747Z" fill="#F3A4B1"/>
<path d="M95.77 84.3446C95.72 84.3346 95.67 84.3146 95.62 84.2946C95.54 84.2546 95.48 84.1946 95.4 84.1446C95.33 84.0946 95.24 84.0546 95.15 84.0746C95.06 84.0846 94.98 84.1646 94.99 84.2446C94.99 84.3046 95.03 84.3446 95.07 84.3946C95.31 84.6746 95.53 84.7746 95.52 85.1446C95.51 85.4346 95.56 85.5946 95.81 85.7646C96.36 86.1346 97.02 86.3546 97.68 86.3946C97.76 86.3946 97.85 86.4046 97.92 86.3546C98.01 86.2946 98.04 86.1746 98.11 86.0946C98.16 86.0346 98.23 85.9946 98.27 85.9346C98.34 85.7946 98.24 85.6346 98.14 85.5246C98.02 85.3846 97.91 85.2446 97.79 85.1146C97.61 84.9046 97.43 84.6946 97.21 84.5246C97 84.3646 96.62 84.0246 96.34 84.1246C96.22 84.1646 96.15 84.3246 95.99 84.3546C95.91 84.3546 95.84 84.3546 95.77 84.3446Z" fill="#F3A4B1"/>
<path d="M90.1499 94.6547C90.2199 94.6547 90.2199 94.5347 90.1499 94.5347C90.0799 94.5347 90.0799 94.6547 90.1499 94.6547Z" fill="#EAD6C6"/>
<path d="M106.2 108.635C114.85 125.125 114.24 143.465 112.75 161.515C112.72 161.855 113.3 161.935 113.35 161.595C115.9 144.595 116.36 123.425 106.5 108.465C106.37 108.285 106.1 108.445 106.2 108.635Z" fill="#F6B28F"/>
<path d="M129.17 79.4947C130.23 80.7547 131.41 81.9047 132.7 82.9247C133.74 83.7447 134.87 84.6247 136.11 85.1047C136.33 85.1947 136.62 85.2547 136.79 85.0847C136.89 84.9747 136.91 84.8147 136.91 84.6647C136.98 83.1047 136.57 81.9347 135.76 80.6147C133.13 76.3547 129.92 72.3647 125.82 69.4847C125.6 69.3247 125.28 69.1848 125.08 69.3748C124.99 69.4548 124.97 69.5847 124.95 69.7047C124.72 71.3247 125.53 73.3147 126.18 74.7747C126.94 76.4747 127.97 78.0647 129.17 79.4947Z" fill="#806E91"/>
<path d="M65.0999 117.965C64.9899 118.625 64.8899 119.305 64.8099 119.985C64.7299 119.895 64.7999 119.165 65.0999 117.965Z" fill="#F6B28F"/>
<path d="M91.11 85.4646C91.09 85.4746 91.07 85.4946 91.05 85.5046C90.81 85.6446 90.58 85.7846 90.35 85.9346C89.56 86.4246 88.8 86.9246 88.06 87.4246C87.79 87.6046 87.53 87.7846 87.27 87.9646C86.95 88.1946 86.64 88.4246 86.32 88.6546C86.16 88.7746 85.99 88.8946 85.83 89.0246C85.44 89.3046 85.06 89.5946 84.69 89.8846C84.44 90.0746 84.2 90.2746 83.96 90.4646C73.37 99.0046 68.28 108.765 66.13 114.655C65.91 115.265 65.72 115.835 65.55 116.355C65.38 116.925 65.24 117.435 65.12 117.875C65.24 117.225 65.37 116.595 65.51 115.975C66.98 109.725 69.98 104.435 73.43 100.095C76.7 95.9646 80.39 92.7046 83.55 90.3146C83.79 90.1346 84.02 89.9546 84.25 89.7946C84.53 89.5846 84.8 89.3946 85.07 89.2046C85.08 89.1946 85.1 89.1846 85.11 89.1746C85.26 89.0646 85.4 88.9646 85.55 88.8746C85.72 88.7446 85.88 88.6346 86.05 88.5246C86.41 88.2746 86.76 88.0446 87.09 87.8346C87.37 87.6446 87.64 87.4746 87.9 87.3046C88.57 86.8946 89.16 86.5446 89.64 86.2646C89.95 86.0846 90.21 85.9446 90.42 85.8346C90.73 85.6546 90.95 85.5446 91.05 85.4946C91.08 85.4746 91.1 85.4646 91.11 85.4646Z" fill="#F6B28F"/>
</svg>
