<svg width="170" height="137" viewBox="0 0 170 137" fill="none" xmlns="http://www.w3.org/2000/svg">
<g clip-path="url(#clip0)">
<path d="M91.7198 29.2753C90.9304 30.3016 90.2709 31.4375 89.7014 32.5934C86.274 39.5784 86.4538 47.251 86.5438 54.804C86.5438 55.1627 86.5438 55.5314 86.3739 55.8502C85.8943 56.7371 84.5453 56.5178 83.646 56.0396C79.9089 54.0367 77.8604 49.9812 76.0318 46.1649C74.2532 42.4382 68.1378 28.7272 66.7189 25.5685C63.4215 18.2447 60.2739 10.8312 56.4968 3.72666C55.2377 1.34518 52.28 -1.15588 49.4821 0.587885C48.6827 1.0861 48.4929 2.14232 48.4229 3.07897C48.1331 6.75582 49.2223 10.5821 50.1416 14.1494C51.2408 18.3942 53.2293 22.2703 54.4883 26.4055C55.8572 30.8995 57.2262 35.4034 58.5951 39.8973C59.2646 42.0994 59.4645 44.7599 56.6366 43.1457C54.878 42.1393 53.3292 40.5848 51.9203 39.15C49.1024 36.2603 46.7342 32.982 44.3361 29.7536C41.3683 25.7778 38.6204 21.5629 35.7326 17.5074C33.934 14.9864 32.0355 12.3857 29.3175 10.8811C28.4182 10.3829 27.399 10.0142 26.3698 10.1138C21.7333 10.5722 24.5712 16.9294 25.6703 19.301C28.0985 24.4824 31.1461 29.3351 34.1239 34.2176C35.8326 37.0176 38.1208 39.3991 39.8495 42.1692C41.748 45.2083 43.5167 48.3371 45.2054 51.5058C45.8749 52.7613 47.8733 56.3684 46.1547 57.3947C44.5359 58.3612 41.5981 56.3584 40.1692 55.7008C36.9617 54.2161 34.0639 52.1435 31.326 49.9314C24.5712 44.4709 17.7564 39.3592 10.7018 34.3172C9.59263 33.5301 8.42352 32.713 7.06456 32.5635C5.71559 32.4141 4.14679 33.2012 3.94695 34.5464C3.83703 35.3535 4.22673 36.1507 4.62643 36.8681C11.5311 49.2638 24.5812 56.7072 35.5328 65.7548C36.522 66.5719 37.5612 67.5185 37.7011 68.784C29.6173 67.1996 22.2929 63.0545 14.5289 60.3143C10.6918 58.9591 6.51498 57.9427 2.58799 58.999C1.84855 59.1982 1.08913 59.4872 0.579521 60.0751C-0.319791 61.1114 -0.0999588 62.7854 0.709422 63.9014C1.5188 65.0174 2.78783 65.695 4.01689 66.3327C9.09301 68.9534 14.279 71.3548 19.555 73.527C21.8033 74.4537 23.8417 75.5199 26.13 76.3868C28.4582 77.2736 30.7065 78.3497 32.7749 79.7348C36.1024 81.9668 38.8602 84.9262 41.6581 87.796C46.1846 92.4394 51.1009 97.013 57.2162 99.1952C63.5813 101.467 70.7559 100.869 77.081 98.4778C81.018 96.9931 84.6652 94.8408 88.0326 92.3298C93.5784 88.2045 98.2348 81.7576 100.023 75.0515C101.023 71.285 100.933 67.3192 100.633 63.4331C100.143 57.1556 99.1242 50.888 99.364 44.5805C99.5738 38.9507 100.263 32.8724 101.722 27.4618C101.802 27.1628 101.882 26.834 101.762 26.545C101.642 26.2361 101.322 26.0568 101.023 25.9273C98.7944 24.9607 96.1065 25.5386 94.128 26.9337C93.2087 27.5714 92.4093 28.3785 91.7198 29.2753Z" fill="#FDD0B0"/>
<path d="M91.9196 29.5642C89.5114 31.6368 88.2624 35.792 87.6329 38.3927C86.3338 43.7535 86.4737 49.3335 86.5337 54.804C86.5337 55.1627 86.5337 55.5314 86.3638 55.8502C85.8842 56.7371 84.5352 56.5178 83.6359 56.0396C79.8988 54.0367 77.8503 49.9812 76.0217 46.1649C74.2431 42.4382 68.1278 28.7272 66.7089 25.5685C63.4114 18.2447 60.2638 10.8312 56.4867 3.72666C55.2276 1.34518 52.2699 -1.15588 49.472 0.587885C48.6726 1.0861 48.4828 2.14232 48.4128 3.07897C48.1231 6.75582 49.2122 10.5821 50.1315 14.1494C51.2307 18.3942 53.2192 22.2703 54.4782 26.4055C55.8472 30.8995 57.2161 35.4034 58.5851 39.8973C59.2546 42.0994 59.4544 44.7599 56.6266 43.1457C54.8679 42.1393 53.3191 40.5848 51.9102 39.15C49.0923 36.2603 46.7241 32.982 44.326 29.7536C41.3582 25.7778 38.6103 21.5629 35.7226 17.5074C33.9239 14.9864 32.0254 12.3857 29.3075 10.8811C28.4081 10.3829 27.3889 10.0142 26.3597 10.1138C21.7233 10.5722 24.5611 16.9294 25.6602 19.301C28.0884 24.4824 31.1361 29.3351 34.1138 34.2176C35.8225 37.0176 38.1107 39.3991 39.8394 42.1692C41.738 45.2083 43.5066 48.3371 45.1953 51.5058C45.8648 52.7613 47.8633 56.3684 46.1446 57.3947C44.5258 58.3612 41.5881 56.3584 40.1592 55.7008C36.9516 54.2161 34.0538 52.1435 31.3159 49.9314C24.5611 44.4709 17.7463 39.3592 10.6917 34.3172C9.58254 33.5301 8.41344 32.713 7.05448 32.5635C5.70551 32.4141 4.13671 33.2012 3.93686 34.5464C3.83694 35.3535 4.22664 36.1507 4.62634 36.8681C11.5311 49.2638 24.5811 56.7072 35.5327 65.7548C36.5219 66.5719 37.5611 67.5185 37.701 68.784C29.6172 67.1996 22.2928 63.0545 14.5288 60.3143C11.8808 59.3776 8.14365 57.873 5.35578 58.989C2.1882 60.2644 0.649377 63.6922 3.89689 65.7349C8.93304 68.9035 14.9684 69.9797 20.6241 71.843C30.5365 75.1213 38.6903 81.2793 47.7434 86.3013C51.7403 88.5134 55.8871 90.6458 60.4037 91.3831C64.5305 92.0607 68.7573 91.5525 72.8741 90.8251C78.0702 89.9184 83.536 88.5034 87.1532 84.6672C92.4791 79.0074 94.4376 67.8971 93.6782 60.4438C93.2286 56.0595 91.9096 51.8246 91.9296 47.3905C91.9495 40.7941 94.008 34.676 95.4269 28.2888C94.0479 28.229 92.8888 28.7272 91.9196 29.5642Z" fill="#FFD9C1"/>
<path d="M40.4292 67.1298C31.466 60.5235 23.0824 53.1399 15.4083 45.0887C13.8195 43.4246 12.2107 41.631 11.6112 39.409C10.8518 36.5691 10.8118 32.972 7.06469 32.5535C5.71572 32.404 4.14692 33.1912 3.94707 34.5364C3.83715 35.3535 4.22686 36.1506 4.62655 36.8681C8.80336 44.3613 15.3184 50.1007 21.9933 55.3221C25.3307 57.9327 28.7581 60.4138 32.1055 63.0245C33.6144 64.2003 35.373 66.3626 37.0418 67.1896C37.7013 67.5085 40.8289 67.4288 40.4292 67.1298Z" fill="#FDD0B0"/>
<path d="M48.1932 49.1542C48.0732 48.8752 47.9433 48.6162 47.8035 48.3571C46.1147 45.1884 43.3668 42.7472 40.9487 40.0966C33.4644 31.9059 28.798 21.1843 27.9087 10.1338C21.7834 8.89823 24.4113 16.6206 25.6604 19.2911C28.0885 24.4725 31.1362 29.3252 34.1139 34.2077C35.8226 37.0077 38.1109 39.3892 39.8395 42.1593C41.6681 45.0987 44.2662 48.4966 45.3553 51.7948C46.1147 54.0966 45.1655 56.8866 47.6136 58.4012C49.8819 56.0197 49.4622 52.0439 48.1932 49.1542Z" fill="#FDD0B0"/>
<path d="M60.2339 35.473C58.3553 25.0802 52.4598 15.1058 52.27 4.41408C52.25 3.36783 52.26 2.23189 51.6404 1.38492C50.1616 -0.617918 48.5428 1.48456 48.4229 3.0689C48.1331 6.74574 49.2223 10.5721 50.1416 14.1393C51.2407 18.3841 53.2292 22.2603 54.4883 26.3955C55.5275 29.8033 56.5667 33.221 57.6059 36.6289C57.9856 37.8844 58.1155 39.7377 58.6051 40.8438C58.725 41.1228 60.7135 43.7036 60.7435 43.3448C60.9233 40.6844 60.7035 38.0637 60.2339 35.473Z" fill="#FDD0B0"/>
<path d="M109.986 73.2679C110.006 77.6722 108.837 82.0266 106.868 85.9525C104.88 89.9283 102.132 92.529 98.8543 95.4386C95.6968 98.2386 92.2394 100.789 88.9319 103.37C81.7774 108.96 71.6651 112.896 71.895 123.568C71.9949 128.391 75.2824 132.257 79.2693 134.678C87.3531 139.581 97.0158 135.834 104.46 131.48C113.513 126.189 121.777 119.672 129.601 112.727C133.528 109.239 137.355 105.642 141.152 102.005C147.837 95.598 153.363 87.507 155.481 78.2899C157.42 69.8202 155.261 57.863 148.946 51.436C144.589 47.0019 137.195 40.4852 130.5 40.7741C131.539 38.562 132.439 36.2902 133.178 33.9685C134.197 30.7898 135.257 25.1699 132.798 22.35C129.931 19.0618 124.445 20.4169 121.687 22.9579C117.89 26.4454 117.86 33.1315 118.289 37.8446C118.389 38.9208 118.529 40.0168 118.22 41.0531C117.75 42.6175 115.821 43.5841 114.852 44.8695C113.753 46.3243 113.153 48.1079 112.274 49.6922C110.945 52.0837 109.766 54.5947 109.266 57.305C108.297 62.5562 109.956 67.917 109.986 73.2679Z" fill="#FFD9C1"/>
<path d="M109.986 73.2678C110.006 77.6721 108.837 82.0265 106.868 85.9524C104.88 89.9282 102.132 92.5289 98.8545 95.4385C95.6969 98.2385 92.2395 100.789 88.932 103.38C81.7775 108.97 71.8851 113.095 71.9051 123.588C71.925 134.329 85.3448 138.634 94.0381 135.565C90.5008 135.226 87.0335 133.692 84.6553 131.071C81.9574 128.102 80.6084 122.552 81.2979 118.566C82.1173 113.783 87.693 110.833 91.6699 109.04C98.3948 106.021 105.469 103.559 111.505 99.3246C117.54 95.0898 122.556 88.6129 122.786 81.2493C123.046 72.8095 118.649 65.0472 117.98 56.6672C117.79 54.3056 117.71 51.8544 118.509 49.6224C119.938 45.5868 123.935 42.9961 127.982 41.5911C124.595 42.8566 122.506 37.7748 122.177 35.5328C121.767 32.7627 121.717 29.2652 122.826 26.7342C123.206 25.8773 125.784 21.7122 126.903 21.9115C123.646 21.3136 121.657 23.5257 120.088 25.977C118.31 28.7769 117.93 32.3143 117.9 35.5527C117.88 37.4459 118.17 39.3691 117.66 41.1925C116.751 44.4608 113.623 45.9954 111.994 48.6857C110.526 51.1071 109.756 54.5049 109.247 57.275C108.297 62.5561 109.956 67.917 109.986 73.2678Z" fill="#FDD0B0"/>
<path d="M135.546 40.8737C136.136 42.0097 137.295 42.7769 139.233 42.8965C143.44 43.1456 146.468 39.688 147.307 35.772C147.807 33.4204 147.647 30.7699 145.629 29.2254C140.263 25.14 132.868 35.6923 135.546 40.8737Z" fill="#FFD9C1"/>
<path d="M138.104 41.4915C135.896 37.2268 140.522 29.325 145.219 28.9464C139.903 25.688 132.938 35.8317 135.556 40.8837C136.146 42.0196 137.305 42.7869 139.243 42.9064C139.323 42.9064 139.393 42.9064 139.463 42.9064C138.844 42.5477 138.394 42.0694 138.104 41.4915Z" fill="#FDD0B0"/>
<path d="M144.939 48.8352C144.909 49.2039 144.899 49.5825 145.059 49.9113C145.259 50.3199 145.679 50.569 146.068 50.7882C146.938 51.2665 147.867 51.7448 148.866 51.7149C149.805 51.685 150.665 51.2067 151.464 50.7284C153.213 49.6822 154.951 48.5363 156.231 46.9519C157.51 45.3676 158.269 43.2551 157.809 41.2722C157.04 37.9441 152.623 35.7819 149.985 38.1634C147.018 40.8139 145.239 44.9192 144.939 48.8352Z" fill="#FFD9C1"/>
<path d="M152.303 40.5847C154.162 39.8075 156.041 39.6182 157.52 40.4352C156.28 37.6054 152.393 35.9812 149.975 38.1534C146.958 40.8737 145.579 44.5505 145.029 48.4665C145.439 45.5968 148.816 42.0495 152.303 40.5847Z" fill="#FDD0B0"/>
<path d="M153.882 54.7342C153.792 55.5313 153.802 56.3883 154.212 57.0858C154.552 57.6737 155.131 58.0822 155.761 58.3612C157.33 59.0587 159.218 58.9192 160.727 58.1121C162.236 57.305 163.375 55.8502 163.895 54.226C164.784 51.4659 163.455 46.7527 159.808 47.1912C156.52 47.5798 154.222 51.8146 153.882 54.7342Z" fill="#FFD9C1"/>
<path d="M160.357 50.3101C162.216 50.0909 163.475 51.2069 164.144 52.7215C164.274 50.041 162.845 46.8126 159.798 47.1813C156.52 47.5798 154.222 51.8147 153.882 54.7343C153.792 55.5314 153.802 56.3883 154.212 57.0858C154.292 57.2353 154.392 57.3648 154.502 57.4944C154.981 54.5948 157.22 50.6887 160.357 50.3101Z" fill="#FDD0B0"/>
<path d="M166.223 62.1378C165.813 61.52 165.204 61.0218 164.334 60.7229C162.496 60.0951 160.297 60.9321 158.958 62.2374C158.009 63.1641 157.33 64.3399 156.87 65.5954C156.21 67.4089 156.28 69.4716 158.259 70.3385C162.686 72.2516 169.211 66.7114 166.223 62.1378Z" fill="#FFD9C1"/>
<path d="M156.88 68.1961C157.33 66.9505 158.009 65.7648 158.968 64.8381C160.307 63.5328 162.506 62.6958 164.344 63.3235C165.214 63.6224 165.833 64.1207 166.233 64.7384C166.483 65.1271 166.662 65.5157 166.782 65.9043C167.142 64.6886 167.042 63.3733 166.233 62.1278C165.823 61.51 165.214 61.0118 164.344 60.7128C162.506 60.0851 160.307 60.9221 158.968 62.2274C158.019 63.1541 157.34 64.3299 156.88 65.5854C156.49 66.6416 156.37 67.7776 156.72 68.7142C156.76 68.5448 156.81 68.3655 156.88 68.1961Z" fill="#FDD0B0"/>
<path d="M145.259 30.7699C145.259 30.7699 159.478 10.3529 161.356 7.7622C162.895 5.63979 165.104 2.12237 167.602 1.04622C167.752 0.986434 167.921 0.926648 168.071 0.986434C168.311 1.06615 168.391 1.35512 168.411 1.60422C168.701 5.18143 145.259 30.7699 145.259 30.7699Z" fill="#816D91"/>
<path d="M66.0195 53.1898C67.6283 50.4596 69.5468 47.9486 71.4654 45.4276C73.294 43.0162 74.7928 40.3856 76.6014 38.0241C78.55 35.4832 80.2387 32.7629 82.1172 30.1821C83.656 28.0597 85.8644 24.5423 88.3624 23.4661C88.5123 23.4064 88.6822 23.3466 88.8321 23.4064C89.0719 23.4861 89.1518 23.775 89.1718 24.0241C89.4716 27.6113 67.3685 50.8881 66.0195 53.1898Z" fill="#816D91"/>
<path d="M144.22 88.3739C146.378 87.6465 148.606 87.1682 150.815 86.6899C152.933 86.2316 154.991 85.5042 157.08 85.0558C159.318 84.5775 161.526 83.89 163.755 83.3618C164.644 83.1526 165.523 82.9035 166.423 82.7341C167.222 82.5747 168.821 82.0964 169.6 82.5547C170.939 83.332 168.501 84.0992 167.942 84.2686C166.663 84.6472 165.364 84.9063 164.065 85.1654C160.867 85.7932 157.639 86.2914 154.422 86.7796C152.194 87.1184 149.955 87.4273 147.727 87.7661C146.588 87.9355 145.319 88.0052 144.22 88.3739Z" fill="#816D91"/>
<path d="M33.3245 26.5749C31.1661 25.8176 29.1277 24.8311 27.0892 23.8546C25.1307 22.918 23.0623 22.2304 21.1438 21.2938C19.0854 20.2974 16.927 19.4803 14.8286 18.5337C13.6995 18.0255 12.5504 17.5671 11.4712 16.9593C11.0415 16.7202 10.1922 16.3614 9.94235 15.923C8.88316 14.0896 11.8709 15.1558 12.4404 15.4049C13.7095 15.9429 14.9385 16.5508 16.1576 17.1686C19.1553 18.6931 22.1031 20.3472 25.0408 22.0013C26.8294 23.0077 28.6181 24.034 30.4167 25.0404C31.346 25.5585 32.3052 26.2162 33.3245 26.5749Z" fill="#816D91"/>
<path d="M125.734 32.4539C127.246 32.4539 128.472 31.2315 128.472 29.7236C128.472 28.2158 127.246 26.9934 125.734 26.9934C124.222 26.9934 122.996 28.2158 122.996 29.7236C122.996 31.2315 124.222 32.4539 125.734 32.4539Z" fill="#816D91"/>
<path d="M146.558 32.4539C146.558 33.9585 145.329 35.1841 143.82 35.1841C142.311 35.1841 141.082 33.9585 141.082 32.4539C141.082 30.9492 142.311 29.7236 143.82 29.7236C145.329 29.7236 146.558 30.9492 146.558 32.4539Z" fill="#F46285"/>
<path d="M98.135 33.7293C98.135 35.2339 96.9059 36.4595 95.3971 36.4595C93.8882 36.4595 92.6592 35.2339 92.6592 33.7293C92.6592 32.2246 93.8882 30.999 95.3971 30.999C96.9059 30.999 98.135 32.2246 98.135 33.7293Z" fill="#816D91"/>
<path d="M33.3246 29.3052C34.8367 29.3052 36.0625 28.0828 36.0625 26.575C36.0625 25.0671 34.8367 23.8447 33.3246 23.8447C31.8125 23.8447 30.5867 25.0671 30.5867 26.575C30.5867 28.0828 31.8125 29.3052 33.3246 29.3052Z" fill="#F46285"/>
<path d="M56.9464 9.32669C56.9464 10.6221 55.8972 11.6783 54.5882 11.6783C53.2792 11.6783 52.23 10.6221 52.23 9.32669C52.23 8.03132 53.2892 6.9751 54.5882 6.9751C55.8872 6.9751 56.9464 8.03132 56.9464 9.32669Z" fill="#816D91"/>
<path d="M142.831 91.104C144.343 91.104 145.569 89.8817 145.569 88.3738C145.569 86.8659 144.343 85.6436 142.831 85.6436C141.319 85.6436 140.093 86.8659 140.093 88.3738C140.093 89.8817 141.319 91.104 142.831 91.104Z" fill="#F46285"/>
<path d="M69.347 53.9072C69.347 55.7407 67.8582 57.2254 66.0196 57.2254C64.181 57.2254 62.6921 55.7407 62.6921 53.9072C62.6921 52.0738 64.181 50.5891 66.0196 50.5891C67.8582 50.5991 69.347 52.0738 69.347 53.9072Z" fill="#F46285"/>
<path d="M108.467 84.2386C113.273 91.5923 123.006 93.7944 130.2 88.3738C136.795 83.4016 140.043 73.497 136.685 65.7846C133.698 58.9192 121.097 50.7583 116.031 60.075C112.084 67.339 119.469 78.529 127.572 72.9191C128.252 72.4508 127.672 71.5141 126.933 71.833C121.527 74.1347 116.421 69.6607 116.91 64.0907C117.67 55.4217 127.422 57.853 131.689 61.9085C135.916 65.9341 136.915 71.544 135.496 77.0543C132.339 89.3105 117.64 94.5916 109.156 83.7205C108.847 83.3219 108.207 83.8301 108.467 84.2386Z" fill="#FFB58F"/>
<path d="M98.2048 132.197C100.193 126.567 102.981 121.834 108.357 118.815C114.043 115.617 120.278 115.248 126.623 114.61C127.113 114.56 127.103 113.923 126.623 113.863C115.312 112.398 97.8151 118.436 97.4753 132.088C97.4553 132.536 98.0649 132.576 98.2048 132.197Z" fill="#FFB58F"/>
<path d="M80.978 108.93C85.7543 111.172 89.9611 113.175 92.9588 117.749C95.7866 122.073 96.5361 127.006 97.4054 131.978C97.4853 132.426 98.1348 132.287 98.1648 131.878C98.7843 121.924 92.3493 109.04 81.0679 108.622C80.898 108.622 80.8281 108.861 80.978 108.93Z" fill="#FFB58F"/>
<path d="M85.5145 57.0857C84.5452 63.5526 90.7605 76.3269 98.2947 76.4465C98.7444 76.4564 98.8543 75.8685 98.5145 75.6393C95.1072 73.3177 92.2993 71.7034 90.1909 67.9369C88.3423 64.6287 86.9034 60.8423 86.3539 57.0857C86.2939 56.6772 85.5745 56.6772 85.5145 57.0857Z" fill="#FFB58F"/>
<path d="M61.9727 89.8088C62.5222 83.8301 63.2417 78.2302 65.47 72.6302C67.6383 67.1697 70.7759 62.1576 73.5138 56.9762C73.7636 56.4979 73.1141 56.1491 72.8044 56.5676C66.1794 65.6153 59.3547 78.27 61.563 89.8685C61.6029 90.1077 61.9527 90.028 61.9727 89.8088Z" fill="#FFB58F"/>
<path d="M48.8626 81.5084C54.1986 74.5931 59.6744 67.0601 64.031 59.4971C64.3008 59.0288 63.6413 58.4807 63.2616 58.8992C57.4161 65.3362 52.35 73.5369 48.6428 81.3788C48.5729 81.5283 48.7627 81.6379 48.8626 81.5084Z" fill="#FFB58F"/>
<path d="M116.851 43.4148C108.587 49.9813 107.248 58.0325 109.047 68.0866C110.416 75.7093 110.106 82.5249 104.83 88.6929C100.833 93.3661 95.3671 97.1028 90.4808 100.77C83.8759 105.732 75.2325 110.774 71.925 118.745C69.0472 125.691 72.7444 133.004 79.9389 134.957C80.4185 135.087 80.7783 134.34 80.2886 134.12C74.4931 131.52 70.8758 125.651 73.4439 119.483C75.1026 115.487 78.3901 112.338 81.6576 109.608C88.5323 103.869 96.2464 99.2053 102.831 93.1071C108.117 88.2046 111.884 81.5683 111.555 74.1748C111.345 69.3321 109.626 64.6887 109.566 59.7663C109.486 53.1799 112.544 48.1578 116.931 43.4846C116.981 43.4447 116.901 43.365 116.851 43.4148Z" fill="#FFB58F"/>
<path d="M32.8049 67.7178C33.6043 68.9833 36.1723 70.179 37.5613 69.1626C39.3899 67.8175 35.9725 65.6851 35.0332 65.0573C34.7934 64.8979 34.4736 65.2167 34.6335 65.4559C34.9632 65.9441 35.293 66.4424 35.6827 66.8908C35.9025 67.1498 36.1323 67.389 36.3722 67.6381C36.622 67.8972 36.9717 68.0765 36.552 68.3057C36.1823 68.505 35.1631 68.1662 34.7934 68.0367C34.2138 67.8473 33.6542 67.5683 33.0747 67.379C32.8748 67.3093 32.695 67.5584 32.8049 67.7178Z" fill="#FFB58F"/>
<path d="M39.8495 55.8103C41.1085 56.737 42.4075 57.4046 43.9464 57.7235C44.6958 57.8829 46.0048 58.2715 46.6143 57.584C47.2438 56.8666 46.7942 55.352 46.6543 54.5249C46.3945 53.0203 45.8649 51.5556 45.0155 50.2801C44.8457 50.031 44.446 50.1805 44.5259 50.4894C44.7657 51.446 45.0355 52.4025 45.2554 53.3691C45.4352 54.1762 45.9448 55.631 45.725 56.4082C45.5851 56.9164 45.5951 56.7769 45.0655 56.8267C44.4959 56.8765 43.7965 56.6772 43.2469 56.5577C42.1377 56.3185 41.0586 55.9897 40.0294 55.5214C39.8195 55.4317 39.6796 55.6808 39.8495 55.8103Z" fill="#FFB58F"/>
<path d="M53.4391 41.5813C54.3084 43.1955 56.4768 44.5806 58.3054 43.6738C60.3238 42.6774 59.8542 39.8874 58.7051 38.4027C58.4153 38.024 57.9157 38.4525 57.9856 38.8212C58.2454 40.1963 59.5344 42.6176 57.2862 43.1258C55.7673 43.4646 54.7381 42.1293 53.559 41.4617C53.4791 41.4219 53.3991 41.5016 53.4391 41.5813Z" fill="#FFB58F"/>
<path d="M51.6405 14.7573C54.2684 15.4847 58.8849 15.2156 59.6543 11.8975C59.7343 11.5388 59.2446 11.1502 58.9648 11.4989C58.0955 12.605 57.2262 13.3822 55.8372 13.7708C54.4783 14.1594 53.0294 14.0399 51.6405 14.2292C51.3607 14.279 51.4006 14.6975 51.6405 14.7573Z" fill="#FFB58F"/>
<path d="M56.9464 30.6503C59.9142 29.2453 62.9918 27.9599 65.8696 26.3855C65.9995 26.3158 65.9096 26.1065 65.7697 26.1464C62.6621 27.2225 59.7143 28.8965 56.9264 30.6004C56.8965 30.6204 56.9165 30.6602 56.9464 30.6503Z" fill="#FFB58F"/>
<path d="M40.7289 41.6908C42.5974 40.515 44.9556 39.1001 46.1247 37.177C46.3046 36.888 45.9449 36.4994 45.6451 36.6987C44.7558 37.2766 44.0363 38.0738 43.2669 38.7912C42.3576 39.6282 41.3984 40.4054 40.4091 41.1328C40.0694 41.362 40.3691 41.92 40.7289 41.6908Z" fill="#FFB58F"/>
<path d="M26.3399 55.033C27.3291 54.7042 27.7488 53.4387 28.2384 52.5818C28.9179 51.416 29.5474 50.3398 29.9671 49.0544C30.057 48.7754 29.6573 48.5363 29.4575 48.7555C28.5582 49.7619 27.9386 50.838 27.2692 52.0039C26.7795 52.8608 25.8902 53.8572 26.0901 54.8836C26.12 54.9932 26.2399 55.0629 26.3399 55.033Z" fill="#FFB58F"/>
<path d="M11.3213 41.7307C12.1707 40.525 13.3198 39.2794 13.7695 37.8545C13.8294 37.6851 13.5996 37.5755 13.4797 37.6851C12.3805 38.6915 11.731 40.2659 11.0016 41.5413C10.8717 41.7506 11.1815 41.9299 11.3213 41.7307Z" fill="#FFB58F"/>
<path d="M12.89 68.7342C14.1291 67.0004 15.0284 64.2702 15.1983 62.1677C15.2183 61.8787 14.7586 61.7392 14.6287 62.0182C14.1291 63.0844 13.8693 64.2204 13.5395 65.3463C13.2198 66.4424 12.7801 67.5385 12.6302 68.6645C12.6103 68.8139 12.8201 68.8339 12.89 68.7342Z" fill="#FFB58F"/>
<path d="M26.5496 73.5767C27.1291 71.6038 28.0085 69.4914 28.1983 67.4387C28.2283 67.0899 27.6687 66.9305 27.5188 67.2593C26.6795 69.1426 26.4197 71.4145 25.96 73.4173C25.8701 73.796 26.4397 73.9554 26.5496 73.5767Z" fill="#FFB58F"/>
</g>
<defs>
<clipPath id="clip0">
<rect width="170" height="137" fill="white"/>
</clipPath>
</defs>
</svg>
