<svg width="128" height="148" viewBox="0 0 128 148" fill="none" xmlns="http://www.w3.org/2000/svg">
<path opacity="0.22" d="M51.12 1.45C69.2001 -1.71 88.7001 1.55 103.16 12.26C112.8 19.4 120.14 29.51 124.27 40.75C128.85 53.22 128.06 65.06 125.01 77.78C120.86 95.07 106.61 109.75 89.2501 113.62C81.91 115.26 74.3101 115.06 66.7901 115.21C59.0901 115.36 51.2701 115.88 43.7701 114.14C35.3301 112.18 27.81 107.49 20.47 102.87C4.65003 92.91 -1.70993 68.96 0.520075 51.22C2.63007 34.38 12.6301 18.55 27.2901 10.01C34.4801 5.82 42.65 2.93 51.12 1.45Z" fill="#03CDF0"/>
<path d="M101.75 134.47C88.41 144.04 73.61 144.19 57.75 143.74C43.11 143.32 21.1899 142.58 13.9599 127.48C10.5299 120.32 11.43 110.52 17.92 105.96C20.37 104.24 24.87 101.43 27.52 100.04C38 94.54 50.18 92.88 61.98 93.66C80.66 94.9 136.53 109.51 101.75 134.47Z" fill="#FFD9C1"/>
<path d="M78.87 85.35C77.77 70.78 69.74 58.15 59.62 48.18C52.74 41.4 37.71 27.83 27.52 35.85C25.4 37.52 23.87 39.79 22.39 42.05C12.15 57.64 17.65 80.76 22.19 97.43C23.98 103.99 23.42 110.8 24.76 117.5C25.5 121.18 30.1901 134.84 35.9301 130.09C40.6601 126.18 41.61 119.46 43.72 113.7C44.71 111 46.27 108.17 48.99 107.23C52.2 106.12 55.7101 108.12 57.9101 110.72C60.1001 113.31 61.5 116.51 63.75 119.05C66.01 121.59 69.67 123.42 72.78 122.07C74.57 121.3 75.8001 119.64 76.7901 117.97C83.1901 107.15 79.73 96.77 78.87 85.35Z" fill="#E5E1E2"/>
<path d="M108.7 108.26C107.21 116.69 102.81 124.91 97.2901 131.4C96.3401 132.52 95.31 133.62 93.98 134.25C92.66 134.88 90.9601 134.94 89.8101 134.04C88.4001 132.94 88.2301 130.91 88.1801 129.12C88.0501 124.45 89.55 116.07 86.71 112.17C83.78 108.14 77.3001 108.62 73.2601 111.55C68.7601 114.82 66.2601 120.22 65.0001 125.64C63.4501 132.27 64.0401 138.22 60.8901 144.59C60.3401 145.7 59.68 146.84 58.6 147.44C57.31 148.15 55.6601 147.94 54.3801 147.21C53.1001 146.48 52.1301 145.32 51.2801 144.12C45.6101 136.16 43.4701 126.13 39.9001 117.19C36.5201 108.73 30.0201 101.56 25.9201 93.3C21.8901 85.19 18.72 76.63 17.48 67.62C15.48 53.07 17.85 34.86 34.94 31.44C38.71 30.69 41.49 28.83 44.69 26.89C47.18 25.37 49.9 24.48 52.45 22.98C55.53 21.18 58.83 19.68 62.33 18.91C65.85 18.15 69.6201 18.17 73.0501 19.31C76.7401 20.53 79.82 22.79 82.99 24.96C86.37 27.27 91.2701 27.39 95.12 28.58C99.82 30.04 104.26 31.66 108.42 34.37C115.26 38.83 116.25 49.72 116.51 57.07C116.88 67.18 113.79 76.45 111.78 86.32C110.3 93.59 109.99 100.96 108.7 108.26Z" fill="#FEFEFE"/>
<path d="M115.61 51.04C115.51 57.46 114.73 63.8 112.2 69.66C111.04 72.34 109.53 74.86 108.5 77.59C105.99 84.22 106.48 91.54 105.68 98.57C105.01 104.41 103.43 110.15 101.02 115.51C99.27 119.39 97.17 124.92 92.71 126.32C91.15 126.81 89.5001 126.73 87.9001 126.35C87.8601 127.27 87.84 128.14 87.86 128.9C87.91 130.68 88.08 132.71 89.48 133.8C90.63 134.7 92.31 134.64 93.63 134.01C94.95 133.38 95.9701 132.28 96.9201 131.17C102.41 124.7 106.8 116.53 108.28 108.13C109.56 100.86 109.88 93.52 111.35 86.3C113.35 76.47 116.42 67.24 116.06 57.18C115.98 55.32 115.86 53.21 115.61 51.04Z" fill="#F5F5F5"/>
<path d="M34.9201 31.44C27.6101 32.91 23.0001 37.08 20.2701 42.51C18.7101 48 20.9 54.22 26.73 57.08C31.19 59.27 36.45 59.94 40.23 60.79C50.15 63 56.2001 73.46 66.9001 72.17C71.7101 71.59 78.94 68.43 81.86 64.37C85.08 59.89 85.7501 53.18 88.8001 48.26C91.5201 43.87 95.36 39.99 100.2 38.2C103.67 36.91 107.41 36.76 111.13 36.84C110.34 35.9 109.45 35.06 108.41 34.38C107.6 33.85 106.69 33.34 105.74 32.84C100.88 31.37 96.38 28.83 91.35 27.29C86.28 25.74 82.3901 22.14 77.5101 20.37C72.7701 18.65 67.48 19.14 62.6 19.92C57.63 20.72 52.2101 22.08 47.7901 24.55C43.3101 27.05 40.2301 30.39 34.9201 31.44Z" fill="#F5F5F5"/>
<path opacity="0.3" d="M73.01 47.59C73.35 47.43 73.69 47.25 74.03 47.06C78.69 44.38 82.07 39.84 86.6 36.9C90.31 34.5 94.58 32.79 99 32.75C97.3 32.76 95.23 31.75 93.27 31.78C91.06 31.82 89.03 31.58 86.85 31.45C82.09 31.16 77.6899 32.99 74.0699 35.99C71.4199 38.18 66.66 43.01 63.28 40.63C62.04 39.76 61.26 38.1 60.05 37.12C58.38 35.76 56.2401 34.7 54.3101 33.76C50.6301 31.98 46.23 30.57 42.25 32.3C47.29 32.69 49.99 33.72 53.65 37.37C55.67 39.39 57.34 41.53 58.04 44.37C58.4 45.83 49.6001 43.97 48.9301 43.83C45.3101 43.06 41.69 44.93 38.7 46.84C40.53 45.67 45.29 46.29 47.39 46.4C50.5 46.57 53.53 47.14 56.54 47.94C61.61 49.3 68.09 49.87 73.01 47.59Z" fill="#DADADA"/>
<path d="M68.58 116.69C66.64 118.9 65.26 121.65 64.16 124.41C62.09 129.62 59.82 140.87 51.83 138.92C49.75 138.41 47.99 137.02 46.54 135.43C47.84 138.48 49.36 141.42 51.28 144.12C52.13 145.32 53.1 146.48 54.38 147.21C55.66 147.94 57.31 148.16 58.6 147.44C59.68 146.84 60.34 145.7 60.89 144.59C64.04 138.22 63.45 132.27 65 125.64C65.73 122.52 66.88 119.4 68.58 116.69Z" fill="#F5F5F5"/>
<path d="M66 61.48C66.35 64.63 62.84 67.61 58.18 68.12C53.52 68.63 49.4599 66.49 49.1099 63.33C48.7599 60.18 52.26 57.2 56.93 56.69C61.6 56.18 65.66 58.33 66 61.48Z" fill="#FEFEFE"/>
<path d="M59.5501 34.86C52.8101 32.57 48.0501 28.31 40.5201 29.18C33.3901 30 26.61 34.13 21.95 39.52C12.94 49.94 16.7101 65.68 19.5501 77.63C21.4701 85.74 24.24 93.59 29.12 100.4C34.65 108.13 38.72 115.52 42.1 124.47C44.26 130.19 48.99 150.72 58.82 147.38C60.61 146.77 61.9001 144.86 62.5301 143.18C64.1901 138.75 64.27 133.21 65.23 128.55C66.03 124.7 66.39 120.03 68.64 116.7C71.92 111.84 83.3 104.91 87.01 112.88C87.18 113.24 87.7001 112.93 87.5401 112.57C83.2501 103.15 69.4401 112.14 66.7701 118.5C64.3501 124.25 63.68 131.27 62.63 137.37C62.34 139.06 62.35 141.37 61.51 142.88C59.52 146.45 55.4201 146.96 52.5201 144.29C49.9701 141.95 48.5201 138.57 47.3001 135.41C45.0201 129.52 43.1 123.5 40.7 117.66C37.87 110.78 33.8901 105.15 29.6501 99.11C24.7301 92.12 22.1401 83.83 20.3101 75.56C18.6801 68.22 16.7201 60.28 17.7701 52.74C19.0101 43.84 24.1901 36.83 32.2801 32.77C37.2601 30.27 43.0801 29.05 48.5301 30.69C52.3301 31.83 55.6101 34.26 59.4001 35.49C59.7801 35.63 59.9501 35 59.5501 34.86Z" fill="#01C7E3"/>
<path d="M104.85 32.99C114.15 38.7 116.52 48.41 116.1 58.84C115.76 67.27 112.79 74.77 111.62 82.98C109.23 99.72 109.1 116.49 98.0501 130.28C97.6701 130.75 98.29 131.42 98.73 130.96C112.58 116.5 109.43 96.24 114.06 78.34C117.99 63.13 122.12 41.09 105.18 32.42C104.8 32.23 104.48 32.77 104.85 32.99Z" fill="#01C7E3"/>
<path d="M88.11 118.15C87.94 122.23 87.36 126.43 87.73 130.51C87.89 132.19 88.31 134.11 89.94 134.96C92.24 136.16 94.52 134.09 96.2 132.72C99.04 130.39 101.28 127.55 102.81 124.22C102.92 123.98 102.57 123.76 102.45 124.01C101.31 126.2 100.01 128.19 98.2901 129.98C96.7201 131.61 91.02 137.4 88.83 132.3C88.21 130.85 88.46 128.84 88.47 127.3C88.5 124.25 88.63 121.22 88.51 118.17C88.5 117.9 88.12 117.9 88.11 118.15Z" fill="#01C7E3"/>
<path d="M33.38 130.43C38.94 130.71 40.86 123.51 41.21 119.17C41.24 118.77 40.6601 118.74 40.5401 119.08C39.0701 123.15 38.6 129.3 33.36 130.25C33.24 130.26 33.28 130.42 33.38 130.43Z" fill="#01C7E3"/>
<path d="M66.98 120.93C68.47 124.42 73.78 122.15 75.63 120.21C78.35 117.36 79.52 112.67 80 108.87C80.05 108.49 79.49 108.47 79.38 108.79C78.38 111.56 77.89 114.47 76.48 117.09C74.93 119.97 70.49 123.95 67.22 120.75C67.08 120.62 66.91 120.78 66.98 120.93Z" fill="#01C7E3"/>
<path d="M50.53 45.72C56.88 48.15 64.9 48.91 71.27 46.13C74.33 44.8 76.5799 42.63 78.9399 40.34C83.2099 36.21 87.23 33.99 93.2 33.44C93.65 33.4 93.84 32.67 93.32 32.59C86.48 31.46 81.78 35.07 77.1 39.6C69.12 47.31 60.77 46.09 50.64 44.99C50.18 44.94 50.17 45.58 50.53 45.72Z" fill="#01C7E3"/>
<path d="M43.16 28.49C52.11 23.25 62.0799 16.17 73.0899 19.46C77.6699 20.83 80.6899 24.97 84.9899 26.94C88.9699 28.76 93.6499 29.16 97.9599 29.59C98.5599 29.65 98.5599 28.81 98.0899 28.62C95.5099 27.57 92.88 27.32 90.18 26.74C86.09 25.85 83.0999 23.85 79.8199 21.35C76.4499 18.78 73.2499 17.28 68.9399 17.08C59.4499 16.65 49.68 21.86 43.05 28.33C42.97 28.42 43.07 28.54 43.16 28.49Z" fill="#01C7E3"/>
</svg>
