<svg width="266" height="197" viewBox="0 0 266 197" fill="none" xmlns="http://www.w3.org/2000/svg">
<path d="M257.301 107.543C261.591 58.1408 212.993 14.0421 148.755 9.04608C84.517 4.05002 28.9642 40.0485 24.6744 89.4509C20.3846 138.853 68.9822 182.952 133.22 187.948C197.458 192.944 253.011 156.946 257.301 107.543Z" fill="#F4FBFC"/>
<path d="M230.591 184.968C238.871 178.694 245.681 170.29 248.941 160.655C249.101 160.173 248.281 159.832 248.061 160.305C243.711 169.589 238.081 177.643 229.841 184.268C229.321 184.694 230.071 185.356 230.591 184.968Z" fill="#F4FBFC"/>
<path d="M0.571204 90.1015C3.4012 76.0191 9.3612 63.0535 18.0212 51.3087C26.8412 39.3558 37.8212 29.5416 49.0512 19.6897C49.4212 19.3584 48.9112 18.7054 48.4912 19.0083C25.1112 35.9582 3.3312 61.5109 0.00120408 90.0352C-0.0287959 90.3381 0.511204 90.4043 0.571204 90.1015Z" fill="#F4FBFC"/>
</svg>
