<svg width="54" height="54" fill="none" xmlns="http://www.w3.org/2000/svg"><path d="M27.7 54h-1.5c-4.9 0-8.8-3.9-8.8-8.8v-8.6H8.8c-4.9 0-8.8-3.9-8.8-8.8v-1.5c0-4.9 3.9-8.8 8.8-8.8h8.6V8.8c0-4.9 3.9-8.8 8.8-8.8h1.5c4.9 0 8.8 3.9 8.8 8.8v8.6h8.6c4.9 0 8.8 3.9 8.8 8.8v1.5c0 4.9-3.9 8.8-8.8 8.8h-8.6v8.6c0 4.9-3.9 8.9-8.8 8.9zM8.8 19.4C5 19.4 2 22.5 2 26.2v1.5c0 3.8 3.1 6.8 6.8 6.8h10.6v10.6c0 3.8 3.1 6.8 6.8 6.8h1.5c3.8 0 6.8-3.1 6.8-6.8V34.5h10.6c3.8 0 6.8-3.1 6.8-6.8v-1.5c0-3.8-3.1-6.8-6.8-6.8H34.5V8.8C34.5 5 31.4 2 27.7 2h-1.5c-3.8 0-6.8 3.1-6.8 6.8v10.6H8.8z" fill="#fff"/></svg>