<svg width="46" height="49" fill="none" xmlns="http://www.w3.org/2000/svg"><g clip-path="url(#clip0)" fill="#fff"><path d="M27.33 7.31a.978.978 0 00-.83-.26c-.3.04-.57.22-.72.49a8.02 8.02 0 01-6.92 4c-.87 0-1.73-.14-2.56-.42-.52-.18-1.09.1-1.27.62-.18.52.1 1.09.62 1.27 1.04.35 2.11.53 3.2.53 3.15 0 6.12-1.51 8-4.01.76.57 1.6 1.03 2.49 1.37.52.19 1.09-.07 1.29-.58a1.01 1.01 0 00-.58-1.29 8.006 8.006 0 01-2.72-1.72z"/><path d="M18.01 29.16c1.71 1.33 3.55 2.04 5.32 2.04 1.86 0 3.78-.77 5.57-2.22.07-.04.14-.09.21-.15.03-.03.06-.06.1-.08 1.76-1.3 3.06-3.16 3.66-5.24h-.02c.05-.13.1-.28.15-.46 1.03-.09 1.98-.71 2.45-1.69.13-.27.26-.7.46-1.35.12-.42.28-1.01.34-1.35.12-.62.28-1.5.31-2.17.02-.18.01-.35 0-.46 0-.04 0-.07-.01-.11a3 3 0 00-2.64-2.67 1.002 1.002 0 10-.23 1.99c.47.05.83.42.88.86 0 .04 0 .07.01.11v.19c-.03.41-.13 1.08-.29 1.9-.05.26-.17.72-.29 1.15-.08.26-.27.88-.36 1.07-.2.42-.67.64-1.13.52a.993.993 0 00-1.21.7c-.16.56-.27.99-.32 1.14l-.03.09a8.02 8.02 0 01-3.04 4.27c-.05.03-.09.06-.14.1-1.46 1.23-2.99 1.87-4.43 1.87-1.38 0-2.85-.6-4.25-1.73-.04-.03-.09-.05-.14-.07-.1-.09-.19-.18-.3-.26a8.013 8.013 0 01-2.93-4.17l-.34-1.24a1 1 0 00-1.19-.71c-.52.12-.96-.11-1.14-.5-.18-.4-.56-1.73-.66-2.26-.16-.8-.26-1.47-.28-1.88 0-.03 0-.16-.01-.19a.986.986 0 01.84-.96.995.995 0 00.86-1.46.969.969 0 00-.92-.54c-.05 0-.09 0-.13.01-1.4.16-2.48 1.25-2.64 2.64 0 .03 0 .09-.01.15a2 2 0 000 .35v.11c.04.64.19 1.52.32 2.15.12.62.54 2.11.81 2.72.45.95 1.39 1.59 2.43 1.68l.13.47c.33 1.11.86 2.16 1.54 3.1-4.57-1.09-8.49-3.08-10.98-5.64 2.33-1.78 4.87-4.87 6.99-8.51.61-1.06 1.11-2.19 1.6-3.29 1.08-2.45 2.1-4.76 4.25-6.16 1.59-1.04 4.38-1.25 5.8-.74.22.08.46.08.67 0 1.43-.51 4.21-.3 5.8.74 2.14 1.4 3.16 3.71 4.25 6.16.49 1.1.99 2.23 1.6 3.29 2.12 3.64 4.66 6.73 6.99 8.51-1.62 1.67-3.86 3.12-6.54 4.23-.51.21-.75.8-.54 1.31.21.51.8.75 1.31.54 3.4-1.41 6.18-3.36 8.04-5.62.18-.22.26-.51.21-.8-.05-.29-.21-.53-.46-.69-2.31-1.43-5.03-4.6-7.28-8.49-.56-.96-1.02-2-1.5-3.1-1.15-2.61-2.34-5.3-4.98-7.03-2.11-1.38-5.28-1.6-7.23-1.05-1.95-.55-5.13-.32-7.23 1.05-2.64 1.72-3.83 4.42-4.98 7.03-.48 1.1-.94 2.13-1.5 3.09-2.26 3.89-4.98 7.06-7.29 8.49-.25.15-.41.4-.46.69-.05.28.03.58.21.8 3.24 3.93 9.04 6.74 15.94 7.73zm-2.68 1.94a1.002 1.002 0 00-1.64-.3l-3.4 3.52c-.04.04-.05.09-.08.13l-4.55 2.33c-1.46.72-3.49 2.26-4.5 3.96C.29 42.16-.05 45.55 0 47.05c.02.54.46.97 1 .97h.03c.55-.02.98-.48.97-1.03-.05-1.56.35-4.37.86-5.21.76-1.28 2.46-2.6 3.68-3.2L10 36.79v10.22c0 .55.45 1 1 1s1-.45 1-1V35.45c.01-.02.01-.03.01-.05l2.06-2.13 6.01 14.13a.998.998 0 001.31.53c.51-.22.75-.8.53-1.31L15.33 31.1zm29.52 9.64c-1.02-1.7-3.04-3.24-4.49-3.95l-4.81-2.47-3.22-3.51a.998.998 0 00-.91-.31c-.34.06-.62.28-.75.59l-1.07 2.52c-.22.51.02 1.1.53 1.31.51.22 1.1-.02 1.31-.53l.47-1.1 2.29 2.5c.08.09.17.16.28.21l4.99 2.56c1.21.6 2.91 1.92 3.67 3.19.5.84.91 3.65.86 5.21-.02.55.41 1.01.96 1.03H45c.54 0 .98-.43 1-.97.04-1.47-.29-4.86-1.15-6.28z"/><path d="M34 38.01h-4v-1c0-.55-.45-1-1-1s-1 .45-1 1v1h-4c-.55 0-1 .45-1 1v8c0 .55.45 1 1 1h10c.55 0 1-.45 1-1v-8c0-.55-.45-1-1-1zm-1 8h-8v-6h3c0 .55.45 1 1 1s1-.45 1-1h3v6z"/></g><defs><clipPath id="clip0"><path fill="#fff" d="M0 0h46v48.01H0z"/></clipPath></defs></svg>