<svg width="80" height="51" fill="none" xmlns="http://www.w3.org/2000/svg"><g clip-path="url(#clip0)" fill="#fff"><path d="M32.941 20.775c.863 0 2.04-.39 3.294-1.64l4.314-4.14c2.196 2.578 8.314 2.5 9.725 2.421 2.04 1.016 4 1.485 5.726 1.485 1.098 0 2.117-.157 3.059-.547 3.137-1.172 4.627-3.983 4.94-4.686l5.883-5.702-1.098-1.093-5.412 5.233-1.255-1.172-1.097 1.094 1.333 1.405c-.47.86-1.647 2.734-3.922 3.593-2.196.781-4.784.469-7.686-.937l-.157-.078h-.235c-1.647.078-5.883 0-7.922-1.328a2.793 2.793 0 01-.862-.781l4.784-.312 4.627-.313-.078-1.562-9.804.703a1.54 1.54 0 00-1.02.703c-.078.156-.157.312-.157.547l-4.706 4.53c-.862.78-2.039 1.562-3.137.937l.55-.547.156.156 1.098-1.093-.157-.313 8.55-8.278c.47-.469 1.176-.781 1.803-.781l9.883-.39a6.092 6.092 0 003.843-1.64l5.333-5.156L61.961 0l-5.334 5.155c-.784.703-1.725 1.171-2.745 1.171L44 6.716c-1.098.079-2.04.47-2.824 1.25L30.745 18.041a1.438 1.438 0 00-.392.938c0 .39.157.703.47.937.236.312 1.02.859 2.118.859z"/><path d="M78.196 27.96l-4.078-2.187c-.942-.468-2.04-.546-2.98-.078-.942.469-1.648 1.25-1.883 2.265l-.47 1.718c-2.275 1.25-4.628 4.765-6.197 7.498-1.804-4.53-4.47-7.576-8-8.982-5.49-2.186-11.215.157-12.314.625-9.882-.39-15.764-8.981-16.078-9.45.078-.547.078-1.015.078-1.562 0-6.95-5.49-12.574-12.235-12.574-6.745.078-12.157 5.701-12.157 12.652S7.294 30.46 14.04 30.46c0 1.172.157 2.5.55 4.062l2.038 6.326H4.078c-2.196 0-4 1.796-4 3.983 0 2.187 1.804 3.983 4 3.983h18.589c1.411 0 2.745-.625 3.686-1.64.627-.78 1.098-1.64 1.176-2.655.863.859 2.118 1.952 3.765 2.811 1.726.938 4.157 1.718 7.216 1.718 2.588 0 5.647-.546 9.098-2.108 4 2.811 9.255 3.749 13.568 4.061h.55c3.137 0 5.96-1.796 7.372-4.608l5.333-10.934 3.451-1.328c.941-.39 1.726-1.171 2.04-2.108.392-1.563-.314-3.28-1.726-4.062zm-64.078.937c-5.961 0-10.667-4.92-10.667-11.012 0-6.092 4.784-11.012 10.588-11.012 5.883 0 10.667 4.92 10.667 11.012 0 1.562-.314 3.046-.863 4.374-2.431-1.015-5.412-.313-7.45 1.796-1.02 1.015-1.962 2.5-2.275 4.842zm64.235 2.656c-.157.547-.55.937-1.098 1.171l-4 1.562-5.647 11.481c-1.177 2.421-3.687 3.905-6.353 3.671C56.47 49.126 48 47.72 44.47 41.394l-1.333.78c.785 1.484 1.883 2.734 3.059 3.75C33.882 51 28.156 43.19 27.373 41.94l-1.099-8.669-.784.078-.784.078 1.255 10.075c.157.938-.157 1.875-.785 2.578-.627.703-1.568 1.093-2.51 1.093H4a2.438 2.438 0 01-2.431-2.421 2.438 2.438 0 012.43-2.421h14.668L16 33.974c-.314-1.328-.47-2.577-.47-3.749 0-.547.078-1.093.156-1.562.236-1.406.863-2.655 1.804-3.593 1.569-1.64 3.765-2.186 5.569-1.483.392.156.784.39 1.176.624.079.078.157.078.157.157a5.22 5.22 0 011.569 2.42l.706-.234.705-.234c-.47-1.406-1.254-2.5-2.274-3.28.235-.469.392-1.015.549-1.484 2.196 2.655 7.922 8.591 16.706 8.903h.157l.157-.078c.078 0 5.803-2.811 11.215-.703 3.06 1.25 5.961 5.077 7.687 9.294-.236.391-.393.782-.55 1.016l-6.51-3.046-.627 1.328 7.922 3.748.314-.703c1.176-2.499 4.862-9.215 7.607-10.387l.393-.156.549-2.343a2.05 2.05 0 011.02-1.25c.548-.234 1.097-.234 1.646.078l4.079 2.187c.784.313 1.176 1.25.94 2.109z"/></g><defs><clipPath id="clip0"><path fill="#fff" d="M0 0h80v51H0z"/></clipPath></defs></svg>