<svg width="32" height="32" viewBox="0 0 32 32" fill="none" xmlns="http://www.w3.org/2000/svg">
<g id="24 / basic / thumbs-up">
<path id="icon" fill-rule="evenodd" clip-rule="evenodd" d="M29.3333 15.9989C29.3333 13.7556 27.8261 11.9989 25.3333 11.9989H21.236L21.273 11.8979C21.3101 11.7977 21.4145 11.5224 21.516 11.2551L21.5164 11.254C21.606 11.0177 21.6932 10.7879 21.7294 10.6907C21.9829 10.0103 22.1679 9.46201 22.3176 8.91903C22.5439 8.09837 22.6667 7.35901 22.6667 6.66553C22.6667 4.70285 21.4558 3.48382 19.6644 2.96218C18.8564 2.7269 18.1531 2.66541 17.3333 2.66553H16.694L16.2937 3.16404C15.8415 3.72718 14.9533 4.7421 13.9293 5.9122C12.0403 8.07075 9.6892 10.7574 8.76047 12.11C8.51947 12.0385 8.26422 12 7.99999 12H5.33332C3.86056 12 2.66666 13.1939 2.66666 14.6667V26.6667C2.66666 28.1395 3.86056 29.3334 5.33332 29.3334H7.99999C8.91615 29.3334 9.7244 28.8714 10.2045 28.1676C10.609 28.4292 11.0603 28.6476 11.5508 28.8231C12.6739 29.2249 13.7878 29.3483 14.7125 29.3314L24 29.3322C27.6735 29.3322 29.3333 23.9236 29.3333 15.9989ZM12.4492 26.3123C11.2693 25.8902 10.6667 25.2018 10.6667 23.9989V14.6667V14.6655C10.6667 14.3453 10.7259 14.0617 10.8556 13.7588C11.0886 13.2149 13.2026 10.803 15.2062 8.5171L15.2063 8.51703C16.2404 7.33726 17.245 6.19101 17.9466 5.35237C18.2818 5.37752 18.5978 5.42904 18.9188 5.52251C19.6829 5.74499 20 6.06423 20 6.66553C20 7.08764 19.9146 7.60195 19.7469 8.21034C19.6215 8.66497 19.4592 9.14602 19.2306 9.75975C19.1982 9.84666 19.1175 10.0593 19.0316 10.2857L19.031 10.2872C18.9261 10.5637 18.8136 10.8604 18.7719 10.9729C18.5986 11.4418 18.4843 11.787 18.4062 12.1006C18.074 13.434 18.4073 14.6655 20 14.6655H25.3333C26.255 14.6655 26.6667 15.1454 26.6667 15.9989C26.6667 22.3865 25.3535 26.6655 24 26.6655H14.6667L14.6174 26.6663C14.0338 26.6768 13.2142 26.586 12.4492 26.3123ZM5.33332 26.6667V14.6667H7.99999V26.6667H5.33332Z" fill="#43A047"/>
</g>
</svg>
