<svg width="136" height="8" fill="none" xmlns="http://www.w3.org/2000/svg"><path fill="#E43193" d="M0 0h8v8H0z"/><path fill="#10D069" d="M8 0h8v8H8z"/><path fill="#FFB600" d="M16 0h8v8h-8z"/><path fill="#FF82BE" d="M24 0h8v8h-8z"/><path fill="#FDB5B5" d="M32 0h8v8h-8z"/><path fill="#755C5C" d="M40 0h8v8h-8z"/><path fill="#F06A6A" d="M48 0h8v8h-8z"/><path fill="#FFB600" d="M56 0h8v8h-8z"/><path fill="#A3B5B8" d="M64 0h8v8h-8z"/><path fill="#10D069" d="M72 0h8v8h-8z"/><path fill="#69DFF6" d="M80 0h8v8h-8z"/><path fill="#FF82BE" d="M88 0h8v8h-8z"/><path fill="#FDB5B5" d="M96 0h8v8h-8z"/><path fill="#9AF2A8" d="M104 0h8v8h-8z"/><path fill="#FFA5CB" d="M112 0h8v8h-8z"/><path fill="#FFDC84" d="M120 0h8v8h-8z"/><path fill="#69DFF6" d="M128 0h8v8h-8z"/></svg>