<svg width="170" height="137" fill="none" xmlns="http://www.w3.org/2000/svg"><g clip-path="url(#clip0)"><path d="M91.72 29.275c-.79 1.027-1.45 2.163-2.019 3.318-3.427 6.985-3.247 14.658-3.157 22.211 0 .359 0 .727-.17 1.046-.48.887-1.829.668-2.728.19-3.737-2.003-5.786-6.059-7.614-9.875-1.779-3.727-7.894-17.438-9.313-20.596-3.297-7.324-6.445-14.738-10.222-21.842-1.26-2.382-4.217-4.883-7.015-3.14-.8.5-.99 1.555-1.06 2.492-.289 3.677.8 7.503 1.72 11.07 1.099 4.245 3.087 8.121 4.346 12.257 1.37 4.494 2.738 8.997 4.107 13.491.67 2.202.87 4.863-1.958 3.249-1.759-1.007-3.308-2.561-4.717-3.996-2.818-2.89-5.186-6.168-7.584-9.396-2.968-3.976-5.716-8.191-8.603-12.247-1.799-2.52-3.697-5.121-6.415-6.626-.9-.498-1.919-.867-2.948-.767-4.637.458-1.799 6.815-.7 9.187 2.428 5.181 5.476 10.034 8.454 14.917 1.709 2.8 3.997 5.181 5.725 7.951 1.899 3.04 3.668 6.168 5.356 9.337.67 1.255 2.668 4.862.95 5.889-1.62.966-4.557-1.037-5.986-1.694-3.207-1.485-6.105-3.557-8.843-5.77-6.755-5.46-13.57-10.572-20.624-15.614-1.11-.787-2.278-1.604-3.637-1.754-1.35-.149-2.918.638-3.118 1.983-.11.807.28 1.605.68 2.322 6.904 12.396 19.954 19.84 30.906 28.887.989.817 2.028 1.764 2.168 3.029-8.084-1.584-15.408-5.73-23.172-8.47C10.692 58.96 6.515 57.943 2.588 59c-.74.2-1.499.488-2.008 1.076-.9 1.036-.68 2.71.13 3.826.809 1.116 2.078 1.794 3.307 2.432a199.146 199.146 0 0015.538 7.194c2.248.927 4.287 1.993 6.575 2.86 2.328.887 4.576 1.963 6.645 3.348 3.327 2.232 6.085 5.191 8.883 8.061 4.527 4.643 9.443 9.217 15.558 11.4 6.365 2.271 13.54 1.673 19.865-.718 3.937-1.485 7.584-3.637 10.952-6.148 5.545-4.126 10.202-10.572 11.99-17.278 1-3.767.91-7.733.61-11.619-.49-6.277-1.509-12.545-1.269-18.852.21-5.63.899-11.709 2.358-17.12.08-.298.16-.627.04-.916-.12-.309-.44-.488-.739-.618-2.229-.966-4.916-.388-6.895 1.007-.92.637-1.719 1.444-2.408 2.341z" fill="#FDD0B0"/><path d="M91.92 29.564c-2.409 2.073-3.658 6.228-4.287 8.829-1.3 5.36-1.16 10.94-1.1 16.411 0 .359 0 .727-.17 1.046-.479.887-1.828.668-2.727.19-3.737-2.003-5.786-6.059-7.614-9.875-1.779-3.727-7.894-17.438-9.313-20.596-3.298-7.324-6.445-14.738-10.222-21.842-1.26-2.382-4.217-4.883-7.015-3.14-.8.5-.99 1.555-1.06 2.492-.289 3.677.8 7.503 1.72 11.07 1.099 4.245 3.087 8.121 4.346 12.257 1.37 4.494 2.738 8.997 4.107 13.491.67 2.202.87 4.863-1.958 3.249-1.76-1.007-3.308-2.561-4.717-3.996-2.818-2.89-5.186-6.168-7.584-9.396-2.968-3.976-5.716-8.191-8.603-12.247-1.8-2.52-3.698-5.121-6.415-6.626-.9-.498-1.92-.867-2.948-.767-4.637.458-1.799 6.815-.7 9.187 2.428 5.181 5.476 10.034 8.454 14.917 1.709 2.8 3.997 5.181 5.725 7.951 1.899 3.04 3.668 6.168 5.356 9.337.67 1.255 2.668 4.862.95 5.889-1.62.966-4.557-1.037-5.986-1.694-3.207-1.485-6.105-3.557-8.843-5.77-6.755-5.46-13.57-10.572-20.624-15.614-1.11-.787-2.279-1.604-3.638-1.754-1.348-.149-2.917.638-3.117 1.983-.1.807.29 1.605.69 2.322 6.904 12.396 19.954 19.84 30.906 28.887.989.817 2.028 1.764 2.168 3.029-8.084-1.584-15.408-5.73-23.172-8.47-2.648-.936-6.385-2.441-9.173-1.325-3.168 1.275-4.707 4.703-1.46 6.746 5.037 3.168 11.072 4.245 16.728 6.108 9.913 3.278 18.066 9.436 27.12 14.458 3.996 2.212 8.143 4.345 12.66 5.082 4.127.678 8.353.17 12.47-.558 5.196-.907 10.662-2.322 14.28-6.158 5.325-5.66 7.284-16.77 6.524-24.223-.45-4.385-1.768-8.62-1.748-13.053.02-6.597 2.078-12.715 3.497-19.102-1.38-.06-2.538.438-3.507 1.275z" fill="#FFD9C1"/><path d="M40.43 67.13a191.766 191.766 0 01-25.022-22.041c-1.588-1.664-3.197-3.458-3.797-5.68-.76-2.84-.8-6.437-4.546-6.855-1.35-.15-2.918.637-3.118 1.982-.11.817.28 1.615.68 2.332 4.176 7.493 10.691 13.233 17.366 18.454 3.338 2.61 6.765 5.092 10.113 7.703 1.508 1.175 3.267 3.338 4.936 4.165.66.319 3.787.239 3.387-.06zm7.763-17.976a9.896 9.896 0 00-.39-.797c-1.688-3.169-4.436-5.61-6.854-8.26-7.485-8.191-12.151-18.913-13.04-29.963-6.126-1.236-3.498 6.487-2.249 9.157 2.428 5.181 5.476 10.034 8.454 14.917 1.709 2.8 3.997 5.181 5.726 7.951 1.828 2.94 4.426 6.338 5.515 9.636.76 2.302-.19 5.092 2.259 6.606 2.268-2.381 1.848-6.357.58-9.247zm12.041-13.681C58.355 25.08 52.46 15.106 52.27 4.414c-.02-1.046-.01-2.182-.63-3.03-1.478-2.002-3.097.1-3.217 1.685-.29 3.677.8 7.503 1.719 11.07 1.099 4.245 3.087 8.121 4.346 12.256 1.04 3.408 2.079 6.826 3.118 10.234.38 1.255.51 3.109 1 4.215.119.279 2.108 2.86 2.137 2.5.18-2.66-.04-5.28-.51-7.871z" fill="#FDD0B0"/><path d="M109.986 73.268c.02 4.404-1.149 8.759-3.118 12.684-1.988 3.976-4.736 6.577-8.014 9.487-3.157 2.8-6.615 5.35-9.922 7.931-7.155 5.59-17.267 9.526-17.037 20.198.1 4.823 3.387 8.689 7.374 11.11 8.084 4.903 17.747 1.156 25.191-3.198 9.053-5.291 17.317-11.808 25.141-18.753 3.927-3.488 7.754-7.085 11.551-10.722 6.685-6.407 12.211-14.498 14.329-23.715 1.939-8.47-.22-20.427-6.535-26.854-4.357-4.434-11.751-10.95-18.446-10.662a55.9 55.9 0 002.678-6.806c1.019-3.178 2.079-8.798-.38-11.618-2.867-3.288-8.353-1.933-11.111.608-3.797 3.487-3.827 10.174-3.398 14.887.1 1.076.24 2.172-.069 3.208-.47 1.565-2.399 2.531-3.368 3.817-1.099 1.454-1.699 3.238-2.578 4.822-1.329 2.392-2.508 4.903-3.008 7.613-.969 5.251.69 10.612.72 15.963z" fill="#FFD9C1"/><path d="M109.986 73.268c.02 4.404-1.149 8.758-3.118 12.684-1.988 3.976-4.736 6.577-8.013 9.487-3.158 2.8-6.615 5.35-9.923 7.941-7.154 5.59-17.047 9.715-17.027 20.208.02 10.741 13.44 15.046 22.133 11.977-3.537-.339-7.004-1.873-9.383-4.494-2.698-2.969-4.047-8.519-3.357-12.505.82-4.783 6.395-7.733 10.372-9.526 6.725-3.019 13.799-5.481 19.835-9.715 6.035-4.235 11.051-10.712 11.281-18.076.26-8.44-4.137-16.202-4.806-24.582-.19-2.361-.27-4.813.529-7.045 1.429-4.035 5.426-6.626 9.473-8.03-3.387 1.265-5.476-3.817-5.805-6.06-.41-2.77-.46-6.267.649-8.798.38-.857 2.958-5.022 4.077-4.823-3.257-.597-5.246 1.615-6.815 4.066-1.778 2.8-2.158 6.337-2.188 9.576-.02 1.893.27 3.816-.24 5.64-.909 3.268-4.037 4.802-5.666 7.493-1.468 2.421-2.238 5.819-2.747 8.589-.95 5.281.709 10.642.739 15.993z" fill="#FDD0B0"/><path d="M135.546 40.874c.59 1.136 1.749 1.903 3.687 2.023 4.207.249 7.235-3.209 8.074-7.125.5-2.352.34-5.002-1.678-6.547-5.366-4.085-12.761 6.467-10.083 11.649z" fill="#FFD9C1"/><path d="M138.104 41.492c-2.208-4.265 2.418-12.167 7.115-12.546-5.316-3.258-12.281 6.886-9.663 11.938.59 1.136 1.749 1.903 3.687 2.022h.22a3.368 3.368 0 01-1.359-1.414z" fill="#FDD0B0"/><path d="M144.939 48.835c-.03.369-.04.748.12 1.076.2.409.62.658 1.009.877.87.479 1.799.957 2.798.927.939-.03 1.799-.508 2.598-.987 1.749-1.046 3.487-2.192 4.767-3.776 1.279-1.584 2.038-3.697 1.578-5.68-.769-3.328-5.186-5.49-7.824-3.109-2.967 2.65-4.746 6.756-5.046 10.672z" fill="#FFD9C1"/><path d="M152.303 40.585c1.859-.778 3.738-.967 5.217-.15-1.24-2.83-5.127-4.454-7.545-2.282-3.017 2.72-4.396 6.398-4.946 10.314.41-2.87 3.787-6.417 7.274-7.882z" fill="#FDD0B0"/><path d="M153.882 54.734c-.09.797-.08 1.654.33 2.352.34.588.919.996 1.549 1.275 1.569.698 3.457.558 4.966-.249 1.509-.807 2.648-2.262 3.168-3.886.889-2.76-.44-7.473-4.087-7.035-3.288.389-5.586 4.624-5.926 7.543z" fill="#FFD9C1"/><path d="M160.357 50.31c1.859-.22 3.118.897 3.787 2.411.13-2.68-1.299-5.908-4.346-5.54-3.278.399-5.576 4.634-5.916 7.553-.09.797-.08 1.654.33 2.352.08.15.18.279.29.408.479-2.9 2.718-6.805 5.855-7.184z" fill="#FDD0B0"/><path d="M166.223 62.138c-.41-.618-1.019-1.116-1.889-1.415-1.838-.628-4.037.21-5.376 1.514-.949.927-1.628 2.103-2.088 3.358-.66 1.814-.59 3.877 1.389 4.743 4.427 1.914 10.952-3.627 7.964-8.2z" fill="#FFD9C1"/><path d="M156.88 68.196c.45-1.245 1.129-2.431 2.088-3.358 1.339-1.305 3.538-2.142 5.376-1.514.87.298 1.489.797 1.889 1.414.25.39.429.778.549 1.166.36-1.215.26-2.53-.549-3.776-.41-.618-1.019-1.116-1.889-1.415-1.838-.628-4.037.21-5.376 1.514-.949.927-1.628 2.103-2.088 3.358-.39 1.057-.51 2.193-.16 3.13.04-.17.09-.35.16-.519z" fill="#FDD0B0"/><path d="M145.259 30.77s14.219-20.417 16.097-23.008c1.539-2.122 3.748-5.64 6.246-6.716.15-.06.319-.12.469-.06.24.08.32.37.34.618.29 3.577-23.152 29.166-23.152 29.166zM66.02 53.19c1.608-2.73 3.527-5.241 5.445-7.762 1.829-2.412 3.328-5.042 5.136-7.404 1.949-2.54 3.638-5.261 5.516-7.842 1.539-2.122 3.747-5.64 6.245-6.716.15-.06.32-.12.47-.06.24.08.32.369.34.618.3 3.587-21.803 26.864-23.153 29.166zm78.2 35.184c2.158-.727 4.386-1.206 6.595-1.684 2.118-.458 4.176-1.186 6.265-1.634 2.238-.478 4.446-1.166 6.675-1.694.889-.21 1.768-.459 2.668-.628.799-.16 2.398-.638 3.177-.18 1.339.778-1.099 1.545-1.658 1.715-1.279.378-2.578.637-3.877.896-3.198.628-6.426 1.126-9.643 1.615-2.228.338-4.467.647-6.695.986-1.139.17-2.408.24-3.507.608zM33.325 26.575c-2.159-.757-4.197-1.744-6.236-2.72-1.958-.937-4.027-1.625-5.945-2.561-2.059-.997-4.217-1.814-6.315-2.76-1.13-.508-2.279-.967-3.358-1.575-.43-.239-1.279-.598-1.529-1.036-1.059-1.833 1.929-.767 2.498-.518 1.27.538 2.498 1.146 3.718 1.764 2.997 1.524 5.945 3.178 8.883 4.832 1.788 1.007 3.577 2.033 5.376 3.04.929.517 1.888 1.175 2.907 1.534zm92.409 5.879a2.734 2.734 0 002.738-2.73 2.734 2.734 0 00-2.738-2.73 2.734 2.734 0 00-2.738 2.73 2.734 2.734 0 002.738 2.73z" fill="#816D91"/><path d="M146.558 32.454a2.738 2.738 0 01-5.476 0 2.738 2.738 0 015.476 0z" fill="#F46285"/><path d="M98.135 33.73a2.738 2.738 0 01-5.476 0 2.738 2.738 0 015.476 0z" fill="#816D91"/><path d="M33.325 29.305a2.734 2.734 0 002.737-2.73 2.734 2.734 0 00-2.737-2.73 2.734 2.734 0 00-2.738 2.73 2.734 2.734 0 002.738 2.73z" fill="#F46285"/><path d="M56.946 9.327a2.353 2.353 0 01-2.358 2.351 2.353 2.353 0 01-2.358-2.351 2.36 2.36 0 014.716 0z" fill="#816D91"/><path d="M142.831 91.104a2.734 2.734 0 002.738-2.73 2.734 2.734 0 00-2.738-2.73 2.734 2.734 0 00-2.738 2.73 2.734 2.734 0 002.738 2.73zM69.347 53.907a3.322 3.322 0 01-3.327 3.318 3.322 3.322 0 01-3.328-3.318 3.322 3.322 0 013.328-3.318c1.838.01 3.327 1.485 3.327 3.318z" fill="#F46285"/><path d="M108.467 84.239c4.806 7.353 14.539 9.555 21.733 4.135 6.595-4.972 9.843-14.877 6.485-22.59-2.987-6.865-15.588-15.026-20.654-5.709-3.947 7.264 3.438 18.454 11.541 12.844.68-.468.1-1.405-.639-1.086-5.406 2.302-10.512-2.172-10.023-7.742.76-8.67 10.512-6.238 14.779-2.182 4.227 4.025 5.226 9.635 3.807 15.145-3.157 12.257-17.856 17.538-26.34 6.666-.309-.398-.949.11-.689.519zm-10.262 47.958c1.988-5.63 4.776-10.363 10.152-13.382 5.686-3.198 11.921-3.567 18.266-4.205.49-.05.48-.687 0-.747-11.311-1.465-28.808 4.573-29.148 18.225-.02.448.59.488.73.109z" fill="#FFB58F"/><path d="M80.978 108.93c4.776 2.242 8.983 4.245 11.98 8.819 2.829 4.324 3.578 9.257 4.447 14.229.08.448.73.309.76-.1.62-9.954-5.816-22.838-17.097-23.256-.17 0-.24.239-.09.308zm4.536-51.844c-.969 6.467 5.246 19.24 12.78 19.36.45.01.56-.578.22-.807-3.407-2.321-6.215-3.936-8.323-7.702-1.849-3.308-3.288-7.095-3.837-10.851-.06-.409-.78-.409-.84 0zM61.973 89.809c.55-5.979 1.269-11.579 3.497-17.179 2.168-5.46 5.306-10.472 8.044-15.654.25-.478-.4-.827-.71-.408-6.625 9.047-13.45 21.702-11.241 33.3.04.24.39.16.41-.06zm-13.11-8.301c5.336-6.915 10.811-14.448 15.168-22.01.27-.47-.39-1.017-.77-.599-5.845 6.437-10.911 14.638-14.618 22.48-.07.15.12.259.22.13z" fill="#FFB58F"/><path d="M116.851 43.415c-8.264 6.566-9.603 14.617-7.804 24.672 1.369 7.622 1.059 14.438-4.217 20.606-3.997 4.673-9.463 8.41-14.35 12.077-6.604 4.962-15.248 10.004-18.555 17.975-2.878 6.946.82 14.259 8.014 16.212.48.13.84-.617.35-.837-5.796-2.6-9.413-8.469-6.845-14.637 1.659-3.996 4.946-7.145 8.214-9.875 6.874-5.739 14.588-10.403 21.173-16.5 5.286-4.903 9.053-11.54 8.724-18.933-.21-4.843-1.929-9.486-1.989-14.409-.08-6.586 2.978-11.608 7.365-16.281.05-.04-.03-.12-.08-.07zM32.805 67.718c.8 1.265 3.367 2.461 4.756 1.445 1.829-1.346-1.589-3.478-2.528-4.106-.24-.16-.56.16-.4.399.33.488.66.986 1.05 1.435.22.259.45.498.69.747.249.26.599.438.179.668-.37.199-1.389-.14-1.759-.27-.58-.189-1.139-.468-1.718-.657-.2-.07-.38.18-.27.339zM39.85 55.81c1.258.927 2.557 1.595 4.096 1.913.75.16 2.059.549 2.668-.139.63-.717.18-2.232.04-3.06-.26-1.504-.79-2.968-1.639-4.244-.17-.249-.569-.1-.49.21.24.956.51 1.913.73 2.88.18.806.69 2.261.47 3.038-.14.508-.13.369-.66.419-.57.05-1.268-.15-1.818-.27-1.11-.239-2.188-.567-3.218-1.036-.21-.09-.35.16-.18.29zm13.59-14.229c.868 1.614 3.037 3 4.865 2.093 2.019-.997 1.55-3.787.4-5.271-.29-.379-.79.05-.72.418.26 1.375 1.55 3.797-.699 4.305-1.519.339-2.548-.997-3.727-1.664a.088.088 0 00-.12.12zm-1.8-26.824c2.628.728 7.245.459 8.014-2.86.08-.358-.41-.747-.69-.398-.868 1.106-1.738 1.883-3.127 2.272-1.359.388-2.808.269-4.197.458-.28.05-.24.469 0 .528zm5.306 15.893c2.968-1.405 6.046-2.69 8.924-4.264.13-.07.04-.28-.1-.24-3.108 1.076-6.056 2.75-8.844 4.454-.03.02-.01.06.02.05zM40.729 41.69c1.868-1.175 4.227-2.59 5.396-4.513.18-.289-.18-.678-.48-.478-.89.578-1.609 1.375-2.378 2.092a33.61 33.61 0 01-2.858 2.342c-.34.229-.04.787.32.558zM26.34 55.033c.99-.329 1.409-1.594 1.898-2.451.68-1.166 1.31-2.242 1.73-3.528.089-.279-.31-.518-.51-.299-.9 1.007-1.52 2.083-2.189 3.249-.49.857-1.379 1.853-1.179 2.88.03.11.15.179.25.149zM11.321 41.73c.85-1.205 1.999-2.45 2.449-3.875.06-.17-.17-.28-.29-.17-1.1 1.006-1.749 2.58-2.478 3.856-.13.21.18.389.32.19zm1.569 27.004c1.24-1.734 2.138-4.464 2.308-6.566.02-.29-.44-.429-.57-.15-.499 1.066-.759 2.202-1.088 3.328-.32 1.096-.76 2.192-.91 3.319-.02.149.19.169.26.07zm13.66 4.843c.58-1.973 1.459-4.086 1.648-6.138.03-.35-.53-.508-.68-.18-.838 1.884-1.098 4.156-1.558 6.158-.09.379.48.538.59.16z" fill="#FFB58F"/></g><defs><clipPath id="clip0"><path fill="#fff" d="M0 0h170v137H0z"/></clipPath></defs></svg>