<svg width="266" height="197" fill="none" xmlns="http://www.w3.org/2000/svg"><path d="M257.301 107.543c4.29-49.402-44.308-93.5-108.546-98.497C84.517 4.05 28.965 40.048 24.675 89.451c-4.29 49.402 44.307 93.501 108.545 98.497 64.238 4.996 119.791-31.002 124.081-80.405zm-26.71 77.425c8.28-6.274 15.09-14.678 18.35-24.313.16-.482-.66-.823-.88-.35-4.35 9.284-9.98 17.338-18.22 23.963-.52.426.23 1.088.75.7zM.571 90.102c2.83-14.083 8.79-27.049 17.45-38.793 8.82-11.953 19.8-21.767 31.03-31.62.37-.33-.14-.984-.56-.68C25.111 35.958 3.331 61.51.001 90.034c-.03.303.51.37.57.067z" fill="#F4FBFC"/></svg>