<svg width="128" height="148" fill="none" xmlns="http://www.w3.org/2000/svg"><path opacity=".22" d="M51.12 1.45c18.08-3.16 37.58.1 52.04 10.81 9.64 7.14 16.98 17.25 21.11 28.49 4.58 12.47 3.79 24.31.74 37.03-4.15 17.29-18.4 31.97-35.76 35.84-7.34 1.64-14.94 1.44-22.46 1.59-7.7.15-15.52.67-23.02-1.07-8.44-1.96-15.96-6.65-23.3-11.27C4.65 92.91-1.71 68.96.52 51.22c2.11-16.84 12.11-32.67 26.77-41.21 7.19-4.19 15.36-7.08 23.83-8.56z" fill="#03CDF0"/><path d="M101.75 134.47c-13.34 9.57-28.14 9.72-44 9.27-14.64-.42-36.56-1.16-43.79-16.26-3.43-7.16-2.53-16.96 3.96-21.52 2.45-1.72 6.95-4.53 9.6-5.92 10.48-5.5 22.66-7.16 34.46-6.38 18.68 1.24 74.55 15.85 39.77 40.81z" fill="#FFD9C1"/><path d="M78.87 85.35c-1.1-14.57-9.13-27.2-19.25-37.17-6.88-6.78-21.91-20.35-32.1-12.33-2.12 1.67-3.65 3.94-5.13 6.2-10.24 15.59-4.74 38.71-.2 55.38 1.79 6.56 1.23 13.37 2.57 20.07.74 3.68 5.43 17.34 11.17 12.59 4.73-3.91 5.68-10.63 7.79-16.39.99-2.7 2.55-5.53 5.27-6.47 3.21-1.11 6.72.89 8.92 3.49 2.19 2.59 3.59 5.79 5.84 8.33 2.26 2.54 5.92 4.37 9.03 3.02 1.79-.77 3.02-2.43 4.01-4.1 6.4-10.82 2.94-21.2 2.08-32.62z" fill="#E5E1E2"/><path d="M108.7 108.26c-1.49 8.43-5.89 16.65-11.41 23.14-.95 1.12-1.98 2.22-3.31 2.85-1.32.63-3.02.69-4.17-.21-1.41-1.1-1.58-3.13-1.63-4.92-.13-4.67 1.37-13.05-1.47-16.95-2.93-4.03-9.41-3.55-13.45-.62-4.5 3.27-7 8.67-8.26 14.09-1.55 6.63-.96 12.58-4.11 18.95-.55 1.11-1.21 2.25-2.29 2.85-1.29.71-2.94.5-4.22-.23-1.28-.73-2.25-1.89-3.1-3.09-5.67-7.96-7.81-17.99-11.38-26.93-3.38-8.46-9.88-15.63-13.98-23.89-4.03-8.11-7.2-16.67-8.44-25.68-2-14.55.37-32.76 17.46-36.18 3.77-.75 6.55-2.61 9.75-4.55 2.49-1.52 5.21-2.41 7.76-3.91 3.08-1.8 6.38-3.3 9.88-4.07 3.52-.76 7.29-.74 10.72.4 3.69 1.22 6.77 3.48 9.94 5.65 3.38 2.31 8.28 2.43 12.13 3.62 4.7 1.46 9.14 3.08 13.3 5.79 6.84 4.46 7.83 15.35 8.09 22.7.37 10.11-2.72 19.38-4.73 29.25-1.48 7.27-1.79 14.64-3.08 21.94z" fill="#FEFEFE"/><path d="M115.61 51.04c-.1 6.42-.88 12.76-3.41 18.62-1.16 2.68-2.67 5.2-3.7 7.93-2.51 6.63-2.02 13.95-2.82 20.98a57.343 57.343 0 01-4.66 16.94c-1.75 3.88-3.85 9.41-8.31 10.81-1.56.49-3.21.41-4.81.03-.04.92-.06 1.79-.04 2.55.05 1.78.22 3.81 1.62 4.9 1.15.9 2.83.84 4.15.21 1.32-.63 2.34-1.73 3.29-2.84 5.49-6.47 9.88-14.64 11.36-23.04 1.28-7.27 1.6-14.61 3.07-21.83 2-9.83 5.07-19.06 4.71-29.12-.08-1.86-.2-3.97-.45-6.14zm-80.69-19.6C27.61 32.91 23 37.08 20.27 42.51c-1.56 5.49.63 11.71 6.46 14.57 4.46 2.19 9.72 2.86 13.5 3.71C50.15 63 56.2 73.46 66.9 72.17c4.81-.58 12.04-3.74 14.96-7.8 3.22-4.48 3.89-11.19 6.94-16.11 2.72-4.39 6.56-8.27 11.4-10.06 3.47-1.29 7.21-1.44 10.93-1.36-.79-.94-1.68-1.78-2.72-2.46-.81-.53-1.72-1.04-2.67-1.54-4.86-1.47-9.36-4.01-14.39-5.55-5.07-1.55-8.96-5.15-13.84-6.92-4.74-1.72-10.03-1.23-14.91-.45-4.97.8-10.39 2.16-14.81 4.63-4.48 2.5-7.56 5.84-12.87 6.89z" fill="#F5F5F5"/><path opacity=".3" d="M73.01 47.59c.34-.16.68-.34 1.02-.53 4.66-2.68 8.04-7.22 12.57-10.16 3.71-2.4 7.98-4.11 12.4-4.15-1.7.01-3.77-1-5.73-.97-2.21.04-4.24-.2-6.42-.33-4.76-.29-9.16 1.54-12.78 4.54-2.65 2.19-7.41 7.02-10.79 4.64-1.24-.87-2.02-2.53-3.23-3.51-1.67-1.36-3.81-2.42-5.74-3.36-3.68-1.78-8.08-3.19-12.06-1.46 5.04.39 7.74 1.42 11.4 5.07 2.02 2.02 3.69 4.16 4.39 7 .36 1.46-8.44-.4-9.11-.54-3.62-.77-7.24 1.1-10.23 3.01 1.83-1.17 6.59-.55 8.69-.44 3.11.17 6.14.74 9.15 1.54 5.07 1.36 11.55 1.93 16.47-.35z" fill="#DADADA"/><path d="M68.58 116.69c-1.94 2.21-3.32 4.96-4.42 7.72-2.07 5.21-4.34 16.46-12.33 14.51-2.08-.51-3.84-1.9-5.29-3.49 1.3 3.05 2.82 5.99 4.74 8.69.85 1.2 1.82 2.36 3.1 3.09s2.93.95 4.22.23c1.08-.6 1.74-1.74 2.29-2.85 3.15-6.37 2.56-12.32 4.11-18.95.73-3.12 1.88-6.24 3.58-8.95z" fill="#F5F5F5"/><path d="M66 61.48c.35 3.15-3.16 6.13-7.82 6.64-4.66.51-8.72-1.63-9.07-4.79-.35-3.15 3.15-6.13 7.82-6.64 4.67-.51 8.73 1.64 9.07 4.79z" fill="#FEFEFE"/><path d="M59.55 34.86c-6.74-2.29-11.5-6.55-19.03-5.68-7.13.82-13.91 4.95-18.57 10.34-9.01 10.42-5.24 26.16-2.4 38.11 1.92 8.11 4.69 15.96 9.57 22.77 5.53 7.73 9.6 15.12 12.98 24.07 2.16 5.72 6.89 26.25 16.72 22.91 1.79-.61 3.08-2.52 3.71-4.2 1.66-4.43 1.74-9.97 2.7-14.63.8-3.85 1.16-8.52 3.41-11.85 3.28-4.86 14.66-11.79 18.37-3.82.17.36.69.05.53-.31-4.29-9.42-18.1-.43-20.77 5.93-2.42 5.75-3.09 12.77-4.14 18.87-.29 1.69-.28 4-1.12 5.51-1.99 3.57-6.09 4.08-8.99 1.41-2.55-2.34-4-5.72-5.22-8.88-2.28-5.89-4.2-11.91-6.6-17.75-2.83-6.88-6.81-12.51-11.05-18.55-4.92-6.99-7.51-15.28-9.34-23.55-1.63-7.34-3.59-15.28-2.54-22.82 1.24-8.9 6.42-15.91 14.51-19.97 4.98-2.5 10.8-3.72 16.25-2.08 3.8 1.14 7.08 3.57 10.87 4.8.38.14.55-.49.15-.63zm45.3-1.87c9.3 5.71 11.67 15.42 11.25 25.85-.34 8.43-3.31 15.93-4.48 24.14-2.39 16.74-2.52 33.51-13.57 47.3-.38.47.24 1.14.68.68 13.85-14.46 10.7-34.72 15.33-52.62 3.93-15.21 8.06-37.25-8.88-45.92-.38-.19-.7.35-.33.57z" fill="#01C7E3"/><path d="M88.11 118.15c-.17 4.08-.75 8.28-.38 12.36.16 1.68.58 3.6 2.21 4.45 2.3 1.2 4.58-.87 6.26-2.24 2.84-2.33 5.08-5.17 6.61-8.5.11-.24-.24-.46-.36-.21-1.14 2.19-2.44 4.18-4.16 5.97-1.57 1.63-7.27 7.42-9.46 2.32-.62-1.45-.37-3.46-.36-5 .03-3.05.16-6.08.04-9.13-.01-.27-.39-.27-.4-.02zm-54.73 12.28c5.56.28 7.48-6.92 7.83-11.26.03-.4-.55-.43-.67-.09-1.47 4.07-1.94 10.22-7.18 11.17-.12.01-.08.17.02.18zm33.6-9.5c1.49 3.49 6.8 1.22 8.65-.72 2.72-2.85 3.89-7.54 4.37-11.34.05-.38-.51-.4-.62-.08-1 2.77-1.49 5.68-2.9 8.3-1.55 2.88-5.99 6.86-9.26 3.66-.14-.13-.31.03-.24.18zM50.53 45.72c6.35 2.43 14.37 3.19 20.74.41 3.06-1.33 5.31-3.5 7.67-5.79 4.27-4.13 8.29-6.35 14.26-6.9.45-.04.64-.77.12-.85-6.84-1.13-11.54 2.48-16.22 7.01-7.98 7.71-16.33 6.49-26.46 5.39-.46-.05-.47.59-.11.73zm-7.37-17.23c8.95-5.24 18.92-12.32 29.93-9.03 4.58 1.37 7.6 5.51 11.9 7.48 3.98 1.82 8.66 2.22 12.97 2.65.6.06.6-.78.13-.97-2.58-1.05-5.21-1.3-7.91-1.88-4.09-.89-7.08-2.89-10.36-5.39-3.37-2.57-6.57-4.07-10.88-4.27-9.49-.43-19.26 4.78-25.89 11.25-.08.09.02.21.11.16z" fill="#01C7E3"/></svg>