<svg width="354" height="316" viewBox="0 0 354 316" fill="none" xmlns="http://www.w3.org/2000/svg">
<g clip-path="url(#clip0)">
<path d="M38.3735 267.703L38.7057 266.375C38.8718 265.712 38.8718 265.546 38.8718 265.214C38.7057 264.55 38.2073 264.052 37.5429 263.72C36.8784 263.388 36.2139 263.056 35.3833 262.89C34.5527 262.724 33.8883 262.558 33.0577 262.392C32.3932 262.226 31.7287 262.226 31.3965 262.06C30.8981 261.894 30.0675 261.894 28.7386 262.06C27.5757 262.226 26.4129 262.392 25.2501 262.558C24.7517 262.558 24.2533 262.724 23.755 262.724L25.2501 261.894C25.9145 261.396 26.579 260.733 27.0774 260.069C27.5757 259.405 28.0741 258.741 28.4063 258.077C28.7386 257.413 29.0708 256.749 29.2369 256.251C29.403 255.588 29.403 255.09 29.403 254.758C29.0708 253.762 28.2402 253.264 26.7451 252.932C25.5823 252.766 24.0872 252.766 22.426 252.932C20.931 253.098 19.2698 253.43 17.6086 253.928C16.2796 254.26 15.1168 254.592 14.2862 254.924L14.1201 254.758C13.9539 254.426 13.6217 254.094 13.2895 253.928V253.596L12.9572 253.762C12.2928 254.094 11.9605 254.426 11.7944 254.924C11.6283 255.256 11.6283 255.754 11.6283 256.251C11.6283 256.583 11.6283 256.915 11.7944 257.413C11.7944 257.745 11.7944 257.911 11.7944 257.911V258.077C11.7944 258.077 11.7944 258.077 11.7944 258.243C11.7944 258.409 11.6283 258.575 11.6283 258.907C11.6283 259.073 11.4622 259.239 11.4622 259.405C11.4622 259.571 11.4622 259.737 11.4622 259.737C11.4622 259.903 11.296 260.235 10.7977 260.733C10.4654 261.23 10.1332 261.728 9.80097 262.06L9.30261 263.056L11.296 262.89L11.4622 262.724C12.1266 262.06 12.625 261.562 13.1234 261.064C13.6217 260.567 13.954 260.069 14.2862 259.571C14.7845 258.907 15.6151 258.243 16.4457 257.745C17.4425 257.247 18.4392 256.749 19.4359 256.085C20.1004 255.92 20.7648 255.92 21.4293 255.754C22.2599 255.754 22.9244 255.588 23.5889 255.754C24.2533 255.754 24.9178 255.92 25.2501 256.085C25.5823 256.251 25.7484 256.417 25.7484 256.417C25.7484 256.417 25.7484 256.583 25.5823 256.915C25.4162 257.247 25.2501 257.579 25.0839 258.077C24.9178 258.575 24.5856 258.907 24.2533 259.405C23.9211 259.903 23.4227 260.235 23.0905 260.401C22.426 260.733 21.7616 261.064 21.0971 261.562C20.4326 261.894 19.7681 262.226 19.1036 262.558C18.4392 262.89 17.7747 263.222 17.2763 263.388C16.778 263.554 16.4457 263.72 16.1135 263.886L15.9474 264.052C15.7813 264.218 15.6151 264.384 15.6151 264.716C15.6151 264.882 15.6151 265.048 15.6151 265.214C15.7813 265.877 16.4457 265.712 17.6086 265.546L20.7648 265.214C21.9277 265.048 23.0905 265.048 24.2533 264.882C25.5823 264.716 26.0806 264.716 26.4129 264.882C26.7451 264.882 27.2435 265.048 27.7418 265.214C28.2402 265.38 28.7386 265.546 29.2369 265.712C29.7353 265.877 30.0675 266.209 30.3997 266.375C30.732 266.541 30.8981 266.873 30.8981 267.039C30.8981 267.039 30.8981 267.205 30.8981 267.703C30.8981 268.035 30.732 268.533 30.732 269.031C30.5659 269.529 30.5659 269.861 30.3997 270.359C30.2336 270.69 30.0675 271.022 30.0675 271.188C29.403 272.018 29.0708 272.682 28.7386 273.014C28.4063 273.346 28.2402 273.678 27.908 273.844C27.5757 274.01 27.2435 274.342 26.9112 274.674C26.4129 275.006 25.7484 275.338 24.9178 276.001C24.5856 276.333 24.0872 276.499 23.5889 276.665C22.9244 276.831 22.426 276.997 21.5954 277.163C21.0971 277.329 20.4326 277.329 19.7681 277.329C19.1036 277.329 18.4392 277.163 17.7747 277.163C17.1102 276.997 16.6119 276.831 16.2796 276.665C15.9474 276.499 15.7813 276.333 15.7813 276.333C15.7813 276.167 15.7813 276.001 15.9474 275.67C16.2796 275.338 16.778 274.84 17.4425 274.508C18.1069 274.176 18.7714 273.844 19.602 273.512C20.4326 273.18 21.2632 273.014 22.0938 272.848C22.0938 272.848 22.426 272.848 22.7583 272.682C22.7583 272.682 22.7583 272.682 22.9244 272.682C23.2566 272.848 23.4227 272.848 23.5889 273.014C23.755 273.014 23.9211 273.18 24.0872 273.18C24.2533 273.18 24.4195 273.18 24.5856 273.18C24.7517 273.18 25.0839 273.18 25.4162 273.18H25.5823C26.2468 273.014 26.7451 272.848 27.4096 272.682C28.5724 272.184 28.5724 271.52 28.4063 271.188C28.2402 270.69 27.908 270.027 26.579 269.861C25.7484 269.695 24.9178 269.695 23.755 270.027C21.4293 270.525 19.602 271.022 18.1069 271.686C16.6119 272.184 15.449 272.848 14.6184 273.512C13.6217 274.176 12.9572 275.006 12.2928 275.835C11.7944 276.665 11.1299 277.661 10.6316 278.823L10.4654 279.155L10.6316 279.321C10.6316 279.487 10.6316 279.653 10.6316 279.653C10.7977 279.985 11.1299 280.483 12.1266 280.483H12.4589C12.9572 280.483 13.2895 280.483 13.7878 280.648C14.4523 280.648 15.2829 280.814 16.2796 280.814C17.2763 280.814 18.273 280.98 19.4359 280.98H19.602C20.5987 280.98 21.5954 280.98 22.5921 280.814C23.755 280.648 24.5856 280.483 25.0839 280.151C26.2468 279.653 27.4096 279.155 28.5724 278.491C29.9014 277.661 31.0642 276.831 32.2271 276.001C33.3899 275.006 34.5527 274.176 35.5494 273.18C36.5462 272.184 37.2106 271.354 37.709 270.691C37.709 270.525 37.8751 270.359 38.0412 269.861C38.0412 268.533 38.2073 268.201 38.3735 267.703Z" fill="#1EB9D8"/>
<path d="M81.0662 234.842L81.8968 234.344L80.5678 233.349H80.2356C79.405 233.515 78.7405 233.847 77.9099 234.178C77.0793 234.51 76.2487 234.842 75.4181 235.174C74.5875 235.506 73.7569 235.838 73.0924 236.17C72.2618 236.502 71.5974 236.668 70.7668 236.834C69.7701 237.166 68.7733 237.166 67.9428 237C66.946 236.834 65.9493 236.668 64.9526 236.668H64.6204L64.2881 236.834C64.122 236.834 64.122 237 63.9559 237.166C63.7898 237.332 63.6236 237.498 63.6236 237.83C63.6236 237.996 63.7898 238.494 64.6204 238.825L65.451 238.991C65.7832 238.991 66.1154 239.157 66.2816 239.323H66.4477C66.1154 240.153 65.6171 241.315 65.2848 242.643C64.7865 243.97 64.2881 245.464 63.7898 246.792C63.2914 248.286 62.7931 249.613 62.2947 250.941C61.7963 252.269 61.298 253.431 60.9657 254.26C60.7996 254.758 60.4674 255.256 60.3013 255.754C60.3013 255.92 60.1351 256.086 59.969 256.252C59.8029 256.086 59.6368 256.086 59.3046 255.754L59.1384 255.588C58.474 255.09 57.8095 254.426 56.9789 253.762C55.9822 252.933 54.9855 252.103 53.9887 251.273C52.8259 250.443 51.8292 249.613 50.9986 248.783L48.6729 246.792C48.3407 246.46 48.0084 246.294 48.0084 246.128L48.6729 244.634V243.141L47.8423 243.307C47.5101 243.307 47.344 243.639 47.0117 243.804C46.8456 243.97 46.6795 244.136 46.5134 244.468C46.3473 244.634 46.1811 244.966 46.015 245.132C45.8489 245.298 45.6828 245.464 45.5167 245.464C44.8522 245.796 44.1877 245.962 43.6893 246.294L41.6959 246.958L41.5298 247.124C41.5298 247.124 41.3637 247.29 41.3637 247.456C41.3637 247.622 41.1976 247.788 41.1976 248.12V248.452L42.1943 248.783L45.3505 247.954C45.3505 247.954 45.5167 248.12 45.8489 248.286C46.3473 248.618 46.8456 249.115 47.5101 249.779C48.1746 250.277 48.839 250.941 49.5035 251.771C50.168 252.435 50.8325 253.265 51.4969 253.928C52.1614 254.592 52.6598 255.09 52.992 255.588C53.6565 256.252 53.6565 256.418 53.8226 256.418C53.9887 256.584 54.321 256.75 54.8193 257.082C55.3177 257.414 55.816 257.746 56.1483 258.244C56.6466 258.576 56.9789 259.073 57.4772 259.405C57.9756 259.903 57.9756 260.069 57.9756 260.069C57.9756 260.069 57.9756 260.235 57.8095 260.899C57.6434 261.397 57.4772 262.061 57.3111 262.725C57.145 263.389 56.8128 264.218 56.6466 264.882C56.3144 265.712 56.1483 266.376 55.816 267.04C55.6499 267.704 55.3177 268.368 55.1516 268.865C54.9855 269.363 54.8193 269.861 54.6532 270.193C54.321 271.023 54.1549 271.687 53.8226 272.517C53.4904 273.181 53.1581 273.844 52.6598 274.508C52.4937 274.674 52.1614 275.006 51.8292 275.006C51.4969 275.172 50.8325 275.338 50.0019 275.338C49.8358 275.338 49.5035 275.338 49.1713 275.338C48.6729 275.338 48.1746 275.338 47.6762 275.338H45.3505C44.8522 275.338 44.3538 275.338 44.0216 275.338C43.8555 275.338 43.5232 275.172 43.3571 275.172H43.191C43.0249 275.172 42.8587 275.006 42.6926 275.006C42.5265 275.006 42.5265 274.84 42.5265 274.84L42.3604 274.674L42.1943 274.508C42.0282 274.342 42.0282 274.176 41.862 274.01C41.862 273.844 41.6959 273.678 41.6959 273.678C41.5298 273.512 41.5298 273.346 41.3637 273.346C41.3637 273.181 41.1976 273.181 41.1976 273.181C41.1976 273.181 41.1976 273.015 41.0314 272.849C41.0314 272.683 41.0314 272.517 41.0314 272.517C41.1976 272.351 41.5298 272.185 41.862 272.019C42.1943 271.853 42.6926 271.687 43.0249 271.521C43.5232 271.355 44.0216 271.023 44.1877 270.525C44.3538 270.359 44.3538 270.027 44.3538 269.861C44.3538 269.695 44.3538 269.529 44.1877 269.197C44.1877 269.197 44.3538 269.031 44.5199 268.865C45.3505 268.368 45.3505 267.704 45.1844 267.372C45.0183 267.04 44.8522 266.708 44.5199 266.376C44.1877 266.044 43.6893 266.044 43.0249 266.21C42.8587 266.21 42.8587 266.21 42.6926 266.376C42.5265 266.376 42.3604 266.542 42.1943 266.542C41.1976 267.372 40.367 268.036 39.7025 268.699C39.038 269.363 38.2074 270.193 37.5429 271.023C37.5429 271.023 37.3768 271.189 37.3768 271.355L37.2107 271.687V272.019L37.8752 271.853L37.2107 272.019C37.2107 272.351 37.5429 272.849 37.8752 273.512C38.2074 274.176 38.5396 274.84 39.038 275.504C39.5364 276.168 39.8686 276.832 40.367 277.33C40.8653 277.994 41.1976 278.325 41.5298 278.491C41.6959 278.657 42.1943 278.657 43.5232 278.823C44.3538 278.823 45.3505 278.823 46.3472 278.823H46.5134C47.6762 278.823 48.6729 278.823 49.6696 278.823C50.6664 278.823 51.4969 278.823 51.9953 278.657C52.8259 278.491 53.4904 278.325 53.9887 277.994C54.4871 277.662 54.9854 277.164 55.3177 276.666C55.6499 276.168 55.9822 275.67 56.1483 275.172C56.3144 274.674 56.6466 274.342 56.8128 273.844C57.6434 272.351 58.474 270.691 59.4707 268.865C60.3013 267.04 61.298 265.214 62.2947 263.223C63.2914 261.231 64.122 259.239 65.1187 257.248C66.1154 255.256 67.1122 253.265 67.9428 251.273C68.9395 249.281 69.9362 247.29 70.9329 245.464C71.9296 243.639 72.9263 241.813 73.923 240.153C74.2553 239.655 74.5875 239.157 74.9198 238.494C75.252 237.996 75.7504 237.498 76.2487 237.166C76.7471 236.834 77.4115 236.336 78.076 236.004C79.405 235.838 80.2356 235.34 81.0662 234.842ZM67.2783 239.323L67.1122 239.489H66.946L67.2783 239.323Z" fill="#1EB9D8"/>
<path d="M104.987 247.787C103.991 247.124 102.828 246.792 101.499 246.792C100.336 246.792 99.3392 246.792 98.1763 246.792C98.0102 246.792 97.5119 246.958 97.0135 247.123C96.5152 247.289 95.8507 247.455 95.1862 247.621C94.5217 247.787 93.8572 247.953 93.1928 248.119C92.5283 248.285 92.0299 248.451 91.6977 248.451C90.8671 248.617 90.2026 248.451 89.7043 248.285C89.372 247.953 89.0398 247.787 88.8737 247.621L88.7076 244.468C88.7076 243.638 88.5414 242.808 88.5414 241.813C88.5414 240.817 88.3753 239.987 88.5414 238.991C88.5414 238.991 88.5414 238.825 89.0398 238.493C89.5381 238.161 90.0365 237.829 90.701 237.497C91.3655 237.166 92.0299 236.834 92.8605 236.668L93.1928 236.502C93.8572 236.336 94.3556 236.17 94.854 236.004C95.6846 235.672 96.349 235.672 97.0135 235.672C97.3458 235.672 98.0102 235.672 98.0102 235.672C98.0102 235.672 98.1763 235.672 98.6747 236.004C99.0069 236.17 99.3392 236.502 99.6714 236.834C100.004 237.166 100.336 237.663 100.668 238.161C101 238.659 101.166 239.157 101.166 239.655L101.333 240.485L103.824 239.489L103.658 238.991C102.662 236.502 101.997 235.174 101 232.684L100.834 232.187L100.336 232.352C96.349 233.182 94.5217 233.68 90.5349 234.51C89.7043 234.676 88.8737 234.842 87.877 235.174L84.8868 235.838C83.8901 236.17 82.8934 236.336 81.8967 236.502C80.9 236.668 80.0694 237 79.2388 237.166H79.0726L78.5743 237.663C78.242 237.995 78.242 237.995 78.242 238.161L78.0759 238.659L78.9065 239.323H79.0726C79.4049 239.323 79.9032 239.323 80.2355 239.323C80.5677 239.323 81.0661 239.323 81.3983 239.157C81.7305 239.157 82.0628 239.157 82.2289 239.323C82.2289 239.489 82.395 239.821 82.395 239.987L82.8934 241.979C83.0595 242.476 83.0595 242.974 83.2256 243.306C83.3917 243.638 83.3917 243.97 83.3917 244.302L85.5513 259.073L86.0496 264.052C86.2158 265.214 86.0496 265.712 85.8835 265.712C85.7174 265.878 85.3852 266.044 84.8868 266.21C84.5546 266.21 84.3885 266.21 84.2223 266.376C84.0562 266.376 83.8901 266.542 83.5579 266.542C83.3917 266.542 83.0595 266.708 82.5611 266.708L79.7371 267.205L81.0661 268.865H81.3983C83.724 268.699 84.8868 268.533 87.0464 268.367C89.8704 268.201 91.3655 268.201 94.1895 268.201C95.3523 268.201 96.5152 268.201 97.5119 268.035C98.5086 267.869 99.3392 267.703 100.17 267.537C101 267.371 101.665 267.039 102.495 266.874C102.662 266.708 102.994 266.708 103.326 266.542C103.824 266.376 104.323 266.21 104.655 266.044C104.987 265.878 105.319 265.38 105.652 264.882C105.818 264.716 105.984 264.55 106.15 264.218C106.648 263.554 107.147 262.89 107.645 262.06C108.144 261.231 108.476 260.401 108.808 259.571C109.14 258.741 109.306 257.745 109.14 256.916C108.974 254.426 108.642 252.434 107.811 251.273C106.981 249.447 106.15 248.451 104.987 247.787ZM101.997 258.907C101.997 259.239 101.831 259.737 101.333 260.567C100.834 261.231 100.336 262.06 99.5053 262.558C98.8408 263.222 98.0102 263.72 97.1796 264.218C96.1829 264.716 95.6846 264.882 95.1862 264.882C95.0201 264.882 94.6878 264.882 94.1895 264.882C93.6911 264.882 93.3589 264.716 92.8605 264.716C92.5283 264.55 92.0299 264.55 91.6977 264.384C91.5316 264.384 91.5316 264.218 91.5316 264.218C91.5316 263.886 91.3655 263.388 91.3655 262.724C91.3655 262.06 91.1993 261.231 91.1993 260.235L91.0332 256.916C91.0332 256.252 90.8671 255.588 91.0332 255.09C91.1993 254.26 91.6977 253.596 92.0299 253.264C92.5283 252.766 93.3589 252.268 94.5217 251.937C94.854 251.771 95.1862 251.771 95.3523 251.439C95.6846 251.273 95.8507 251.107 96.1829 250.941C96.349 250.775 96.6813 250.609 96.8474 250.443C97.0135 250.277 97.1796 250.277 97.5119 250.277C97.8441 250.111 98.1763 250.277 98.1763 250.277C98.5086 250.443 98.6747 250.775 98.8408 250.941C99.0069 251.107 99.1731 251.439 99.3392 252.102C99.5053 252.6 99.6714 252.932 99.6714 253.43C100.004 254.592 100.336 255.588 100.834 256.584C101.499 257.413 101.831 258.409 101.997 258.907Z" fill="#1EB9D8"/>
<path d="M149.839 237.663C149.009 236.502 148.178 235.838 147.182 235.174C146.185 234.676 145.022 234.344 143.693 234.178C142.364 234.012 140.869 233.846 139.374 233.846H139.042C139.042 233.68 139.042 233.348 139.042 232.85C139.042 232.187 139.208 231.523 139.208 230.693C139.208 229.863 139.374 229.033 139.374 228.037L139.706 225.548C139.706 224.718 139.872 224.054 139.872 223.556C139.872 223.224 140.038 222.892 139.872 223.058C139.872 223.058 140.038 222.892 140.205 222.726C140.537 222.56 140.703 222.229 141.035 221.897L141.866 221.067C142.198 220.735 142.364 220.569 142.364 220.569L142.53 220.403V218.909L141.866 219.075C141.201 219.241 140.537 219.407 139.872 219.905C139.208 220.237 138.709 220.735 138.045 221.067C137.381 221.399 136.882 221.897 136.218 222.229C135.719 222.56 135.221 222.726 134.723 222.892C134.224 223.058 133.56 222.892 132.895 222.892C132.231 222.726 131.4 222.726 130.736 222.56H130.57L129.407 223.39V223.722C129.407 223.888 129.573 224.22 130.071 224.552C130.237 224.552 130.404 224.718 130.57 224.718L131.068 224.884C131.234 226.71 131.234 228.369 131.234 230.195C131.234 232.021 131.234 233.846 131.4 235.506C129.407 236.668 127.413 237.663 125.586 238.825C123.759 239.821 122.098 241.149 120.436 242.476C120.27 241.979 120.104 241.149 119.938 240.319C119.772 239.489 119.606 238.493 119.44 237.497L118.941 234.344C118.775 233.348 118.609 232.518 118.609 231.689C118.609 231.191 118.443 230.693 118.443 230.361V230.029C118.443 229.365 118.277 228.867 118.111 228.535C117.945 227.871 117.28 227.539 116.616 227.539C116.283 227.539 115.785 227.705 115.287 227.871L113.459 228.203C112.795 228.369 112.297 228.535 111.632 228.535C111.134 228.701 110.635 228.701 110.303 228.701L109.639 229.033L109.306 229.531V229.863C109.306 230.527 110.137 230.527 110.635 230.527H111.964C112.463 230.527 112.961 230.527 113.293 230.527H113.459C113.625 231.191 113.792 232.187 113.958 233.348C114.124 234.676 114.29 236.336 114.456 238.161C114.622 239.987 114.788 241.979 114.954 243.97C115.121 245.962 115.287 248.119 115.453 250.111C115.619 252.102 115.619 254.094 115.785 255.92C115.951 257.745 115.951 259.239 115.951 260.567C115.951 261.231 115.951 261.894 115.785 262.392C115.785 262.89 115.619 263.388 115.453 263.886C115.453 263.886 115.453 263.886 115.287 264.052L114.622 264.55C114.29 264.716 114.124 264.882 113.958 265.048C113.625 265.38 113.459 265.878 113.459 266.044V266.708L115.121 266.542L115.287 266.376C115.785 266.044 116.45 265.712 117.28 265.38C118.111 265.048 118.775 265.048 119.606 265.048C119.606 265.048 119.772 265.048 119.938 265.048C120.104 265.048 120.436 265.048 120.602 265.214C120.935 265.214 121.101 265.38 121.267 265.38C121.599 265.38 121.765 265.38 121.765 265.38C122.264 265.38 122.596 265.546 122.928 265.546C123.26 265.546 123.427 265.546 123.759 265.546C124.091 265.546 124.257 265.546 124.257 265.546H124.755V264.052L124.423 263.886C123.759 263.388 123.26 263.222 122.762 262.89C122.762 262.558 122.596 262.226 122.596 261.894L122.43 260.235C122.264 259.073 122.264 257.745 122.098 256.418C121.931 255.09 121.765 253.762 121.765 252.6C121.599 251.439 121.599 250.277 121.433 249.447C121.267 248.617 121.101 248.119 121.101 247.953C121.101 247.787 121.267 247.289 121.765 246.46C122.264 245.796 122.928 245.132 123.593 244.302C124.257 243.638 125.088 242.808 125.918 242.144C126.749 241.481 127.413 240.817 127.912 240.319C128.41 239.821 129.075 239.323 129.905 239.157C130.57 238.991 131.234 238.825 131.732 238.659C131.732 238.825 131.732 238.825 131.732 238.991C131.732 239.323 131.732 239.655 131.732 239.821L133.56 263.886C133.56 263.886 133.394 263.886 133.394 264.052L132.729 264.384C132.397 264.55 132.231 264.716 132.065 264.882C131.566 265.214 131.566 265.712 131.566 265.878V266.044L132.231 266.708H132.563C133.061 266.542 133.56 266.376 134.224 266.21C134.723 266.044 135.221 265.878 135.719 265.878C136.052 265.878 136.55 265.878 137.048 266.044C137.547 266.21 138.045 266.21 138.543 266.376C139.042 266.542 139.54 266.708 139.872 266.873C140.371 267.039 140.703 267.205 141.201 267.371L141.7 267.537L142.364 265.878L141.866 265.546C141.201 265.214 140.703 264.882 140.038 264.716C139.54 264.55 139.208 264.384 139.042 264.218C138.709 264.052 138.377 263.886 138.211 263.554C138.045 263.388 137.879 262.89 137.879 262.226V261.397C137.879 260.899 137.879 260.235 137.879 259.571C137.879 258.575 137.879 257.413 137.879 256.086C137.879 254.758 137.879 253.596 138.045 252.102C138.045 250.775 138.211 249.447 138.211 248.119C138.377 244.136 138.377 241.979 138.543 237.995C138.709 237.331 138.876 237.165 138.876 237.165C139.208 237 139.54 237 140.038 237C141.7 236.834 143.195 237 144.358 237.331C145.52 237.663 146.683 238.659 147.68 240.153C147.846 240.485 148.178 240.817 148.344 241.149C148.344 241.315 148.511 241.481 148.511 241.813C148.511 242.144 148.511 242.31 148.344 242.476C148.178 242.808 147.846 242.974 147.514 243.306C147.182 243.638 146.849 243.804 146.351 244.136C146.019 244.468 145.687 244.634 145.354 244.8L142.53 245.298C142.032 245.464 141.866 245.464 141.7 245.63C141.367 245.796 141.367 246.294 141.367 246.626C141.367 246.792 141.367 246.792 141.534 246.958V247.123L141.866 247.621C142.032 247.787 142.198 247.953 142.198 248.119L142.53 248.617C142.696 248.783 142.696 248.949 142.862 248.949C143.195 249.447 143.693 249.613 144.191 249.613V248.949L144.524 249.613C144.69 249.613 144.856 249.613 145.188 249.281C145.354 249.115 145.687 249.115 145.853 248.949C146.185 248.783 146.351 248.783 146.517 248.617C146.683 248.451 146.849 248.451 147.015 248.451C147.514 248.285 147.846 248.119 148.178 247.953C148.511 247.787 149.009 247.455 149.175 247.123C149.673 246.46 150.006 245.962 150.172 245.63C150.504 245.298 150.67 244.966 150.836 244.634C151.002 244.302 151.335 243.97 151.501 243.472C151.667 243.14 151.833 242.476 152.165 241.647V241.481V241.149C151.168 240.153 150.504 238.659 149.839 237.663Z" fill="#1EB9D8"/>
<path d="M176.252 232.187C176.252 232.187 176.086 232.021 175.92 231.689C175.92 231.523 175.754 231.523 175.754 231.523V231.357C175.588 230.859 175.588 230.195 175.422 229.365C175.256 228.37 175.09 227.374 174.923 226.378C174.757 225.216 174.425 224.054 174.093 223.059C173.761 221.897 173.428 220.735 172.93 219.905C172.432 218.91 171.933 218.08 171.103 217.582C170.272 216.918 169.441 216.752 168.445 216.752C167.614 216.918 166.95 217.084 166.451 217.25C165.953 217.416 165.621 217.748 165.122 218.08C164.79 218.412 164.458 218.744 164.126 219.241C163.793 219.573 163.461 219.905 162.963 220.403C161.966 221.233 160.803 222.395 159.807 223.723C158.644 225.05 157.647 226.378 156.816 227.872C155.986 229.365 155.155 230.859 154.657 232.187C154.158 233.515 154.158 235.008 153.992 236.004V236.17C153.992 236.502 153.826 237 153.826 237.498C153.66 237.996 153.66 238.494 153.494 238.991C153.328 240.319 152.996 241.647 152.83 243.307C152.663 244.8 152.497 246.46 152.497 248.286C152.497 249.945 152.497 251.605 152.663 253.099C152.83 254.592 153.162 256.086 153.66 257.248C154.159 258.575 154.989 259.571 155.986 260.235H156.152C156.983 260.567 157.813 260.899 158.81 261.065C159.807 261.397 160.803 261.563 161.8 261.563C163.129 261.563 164.292 261.397 165.621 261.231C166.95 260.899 168.113 260.567 169.109 259.903C170.106 259.239 171.103 258.575 171.933 257.746C172.764 256.916 173.428 255.754 173.927 254.592C174.093 254.426 174.093 254.094 174.259 253.762C174.425 253.43 174.425 253.099 174.591 252.601C174.757 252.269 174.757 251.937 174.923 251.605C175.09 251.107 175.09 250.941 175.09 250.941C175.09 250.609 175.256 249.945 175.422 249.115L175.92 245.962C176.086 244.8 176.252 243.473 176.418 242.145C176.585 240.817 176.585 239.489 176.751 238.162C176.751 236.834 176.751 235.672 176.751 234.676C176.751 233.68 176.585 232.851 176.252 232.187ZM162.797 230.195C162.631 229.863 162.464 229.697 162.464 229.199C162.464 229.033 162.464 228.702 162.797 228.038C163.129 227.54 163.461 226.876 163.96 226.378C164.458 225.88 164.956 225.216 165.455 224.718C165.953 224.22 166.451 223.888 166.784 223.723H166.95C167.282 223.723 167.614 223.723 167.946 224.054C168.279 224.386 168.611 224.884 168.943 225.548C169.275 226.212 169.441 226.71 169.774 227.374C169.94 228.038 170.272 228.702 170.438 229.033C170.937 230.029 171.103 231.025 171.103 232.021C171.103 233.017 171.269 234.178 171.269 235.34C171.269 237.83 171.103 240.485 170.937 242.975C170.604 245.464 170.106 247.954 169.608 250.609C169.441 251.273 169.109 252.103 168.943 252.767C168.611 253.43 168.279 254.094 167.946 254.758C167.448 255.588 166.784 256.252 165.953 256.75C165.122 257.248 164.126 257.414 162.963 257.58C161.966 257.58 160.969 257.414 159.973 256.916C159.142 256.584 158.478 255.92 158.145 254.924C158.145 254.26 158.145 253.43 158.311 252.269C158.478 251.107 158.644 249.779 158.976 248.451C159.308 247.124 159.474 245.796 159.807 244.634C160.139 243.307 160.305 242.477 160.471 241.647C160.969 240.153 161.468 238.494 161.966 236.834C162.631 235.174 162.963 233.349 162.797 231.689C163.129 231.191 162.963 230.527 162.797 230.195Z" fill="#1EB9D8"/>
<path d="M214.792 213.1C209.809 214.594 207.317 215.423 202.333 216.917C201.336 217.083 201.17 217.249 201.004 217.415C200.838 217.581 200.838 217.581 200.672 217.747L200.506 217.913C200.174 218.577 199.675 219.739 199.011 221.73C198.346 223.556 197.516 225.879 196.685 228.369C195.854 230.858 194.858 233.68 193.861 236.501C192.864 239.323 192.034 241.978 191.203 244.468C190.373 246.957 189.542 249.115 188.877 251.106C188.711 251.77 188.379 252.268 188.213 252.766C188.047 250.94 187.881 248.949 187.715 246.791C187.382 243.638 187.216 240.318 187.05 236.999C186.884 233.514 186.718 230.194 186.552 226.875C186.386 223.556 186.386 220.568 186.552 218.079L186.718 217.913C187.05 217.747 187.382 217.415 187.715 217.249C188.213 216.917 188.545 216.751 189.044 216.585C189.376 216.419 189.708 216.253 190.04 216.087L190.373 215.921V214.096L189.542 214.428C189.21 214.594 188.711 214.76 188.545 214.926C188.213 215.092 188.047 215.092 187.715 215.257C187.382 215.423 187.05 215.423 186.718 215.589C186.386 215.755 185.721 215.755 185.223 215.755L184.226 215.921C183.894 215.921 183.728 215.921 183.396 215.921C183.063 215.921 182.731 215.921 182.399 215.921C182.067 215.921 181.402 215.755 180.738 215.755H180.405L179.741 216.585V216.751C179.741 217.083 179.907 217.415 180.405 217.581C180.572 217.747 180.904 217.747 181.236 217.913C181.568 218.079 181.734 218.079 181.9 218.245C182.067 220.07 182.067 222.228 182.233 224.386C182.233 226.709 182.399 229.033 182.399 231.522L182.565 238.991C182.565 241.48 182.565 243.804 182.731 245.961C182.731 248.119 182.731 250.11 182.731 251.936C182.731 252.932 182.731 253.762 182.731 254.592C182.731 255.255 182.731 255.753 182.731 256.251C182.731 256.417 182.731 256.749 182.731 257.413C182.731 257.911 182.731 258.575 182.565 259.073C182.399 259.736 182.399 260.234 182.233 260.732C182.067 261.064 182.067 261.23 182.067 261.23C181.734 261.396 181.568 261.396 181.236 261.396C180.904 261.396 180.405 261.562 180.073 261.562H179.575L179.409 263.388H180.073C180.738 263.388 181.402 263.554 181.9 263.72C182.399 263.886 183.063 264.052 183.728 264.384C184.558 264.715 184.891 264.881 185.721 265.213H185.887L187.549 264.881V264.384C187.549 264.052 187.715 263.72 187.881 263.222C188.047 262.724 188.047 262.558 188.047 262.558L188.213 262.392C188.545 261.728 189.044 260.732 189.708 259.239C190.373 257.745 191.037 256.085 191.868 254.094C192.698 252.102 193.529 249.944 194.526 247.621C195.356 245.297 196.353 242.974 197.183 240.65C198.014 238.327 199.011 236.003 199.841 233.846C200.672 231.688 201.503 229.697 202.167 227.871C202.831 226.211 203.496 224.718 203.994 223.722V223.556C203.994 223.888 203.994 224.386 204.16 224.884C204.327 226.543 204.493 228.701 204.659 231.19C204.825 233.68 204.991 236.501 205.157 239.489C205.323 242.476 205.489 245.463 205.489 248.285C205.656 251.106 205.656 253.762 205.822 256.085C205.822 257.081 205.988 258.077 205.988 258.907C205.988 259.902 206.154 260.732 206.154 261.23C206.154 261.396 206.154 261.562 206.154 261.562L205.656 261.894C205.323 262.226 204.991 262.558 204.659 262.724C204.16 263.056 203.994 263.222 203.828 263.222C203.33 263.554 202.831 263.886 202.333 264.052C201.835 264.384 201.336 264.715 201.004 265.213L200.672 265.545L201.004 265.877C201.17 266.209 201.503 266.375 201.835 266.375H202.831H202.998C203.662 266.209 204.16 265.877 204.659 265.711C205.157 265.545 205.656 265.213 205.988 265.047C206.486 264.881 206.818 264.715 207.317 264.549C207.815 264.384 208.313 264.384 208.978 264.549C209.642 264.549 210.141 264.549 210.639 264.549C211.137 264.549 211.636 264.549 211.968 264.549C211.968 264.549 212.134 264.549 212.466 264.549C212.633 264.549 212.965 264.549 213.297 264.549C213.629 264.549 213.795 264.549 213.961 264.549C214.128 264.549 214.294 264.549 214.294 264.549L214.792 264.384L214.958 264.218C215.124 264.052 215.29 263.886 215.29 263.388V263.222L215.124 263.056C214.958 262.89 214.792 262.724 214.626 262.724C214.46 262.724 214.46 262.724 214.46 262.724C214.128 262.724 213.795 262.558 213.131 262.392C212.466 262.226 211.968 262.06 211.802 262.06C211.304 261.894 211.137 261.894 211.137 261.894C210.971 261.894 210.971 261.728 210.805 261.562C210.805 261.396 210.639 261.064 210.639 260.898C210.639 260.732 210.639 260.566 210.473 260.4C210.473 260.234 210.307 259.902 210.307 259.736C210.141 258.077 210.307 255.919 210.473 253.762C210.473 252.6 210.639 251.438 210.639 250.11C210.805 246.459 210.971 242.642 211.137 238.825L211.636 227.373C211.636 226.045 211.636 224.718 211.636 223.39C211.636 220.9 211.636 218.743 211.968 217.581C211.968 217.415 212.3 217.083 213.629 216.253C214.294 215.755 215.124 215.423 215.789 215.092C216.121 214.926 216.287 214.594 216.287 214.428C216.287 214.262 216.287 213.93 216.121 213.764C215.789 213.1 215.29 212.934 214.792 213.1Z" fill="#1EB9D8"/>
<path d="M192.698 212.436C193.363 212.768 194.526 212.934 196.353 212.934C196.353 212.934 196.353 212.934 196.519 212.934C197.848 212.934 199.177 212.768 200.506 212.436C201.835 212.105 203.164 211.607 204.16 210.777C205.323 209.947 206.154 208.951 206.818 207.789C206.984 207.291 206.984 206.628 206.652 206.296C205.988 205.134 205.656 204.47 204.991 203.142L204.825 202.976C204.659 202.976 204.659 202.81 204.327 202.644C204.16 202.478 203.828 202.312 203.496 202.312L202.998 202.478C202.831 202.478 202.665 202.644 202.333 202.81C202.001 202.976 201.835 203.142 201.503 203.308C201.17 203.474 201.004 203.64 200.672 203.806L199.841 204.304V204.636C199.841 205.134 199.841 205.632 200.174 206.13L201.336 206.96C201.669 207.126 202.001 207.291 202.167 207.457V207.623C202.167 207.789 202.167 207.789 202.001 207.955C201.835 208.453 201.503 208.951 201.004 209.283C200.506 209.615 200.007 209.947 199.509 210.113C199.011 210.279 198.346 210.445 197.848 210.445C197.183 210.445 196.685 210.279 196.021 210.113C195.19 209.947 194.858 209.449 194.692 208.951C194.526 208.287 194.692 207.457 195.024 206.628L195.522 205.632L194.692 204.636L192.2 204.304L191.203 204.802L190.871 206.13C190.539 207.291 190.373 208.453 190.373 209.449C190.871 210.611 191.535 211.939 192.698 212.436Z" fill="#1EB9D8"/>
<path d="M274.927 247.953C275.093 246.791 275.259 245.464 275.259 244.136C275.426 242.642 275.426 241.149 275.592 239.655C275.592 238.161 275.592 236.668 275.592 235.174C275.592 233.846 275.426 232.518 275.093 231.357C274.761 230.195 274.429 229.365 273.764 228.867C273.1 228.203 272.269 227.539 271.605 227.041C270.774 226.378 269.944 225.714 268.947 225.05C267.95 224.386 267.12 223.888 266.289 223.224C265.458 222.726 264.628 222.228 264.129 221.896H263.963C263.963 221.896 263.963 221.897 263.631 221.731C263.465 221.731 263.133 221.565 262.967 221.399C262.801 221.399 262.468 221.233 262.302 221.233V221.067C262.302 220.735 262.302 220.403 262.302 220.071V219.075C262.302 218.743 262.302 218.577 262.302 218.411C262.302 217.913 262.468 217.581 262.801 217.249C263.133 216.918 263.631 216.586 264.129 216.254C264.628 215.922 264.96 215.756 265.458 215.59C265.957 215.424 266.455 215.258 266.455 214.76C266.455 214.262 266.455 213.93 266.123 213.598C265.957 213.432 265.625 213.266 265.126 213.1C263.963 213.1 262.967 213.266 261.804 213.598C260.973 213.93 259.976 214.096 259.146 214.096C258.98 214.096 258.814 214.096 258.481 214.096C258.149 214.096 257.817 214.096 257.485 213.93L256.488 213.764C256.156 213.764 255.99 213.764 255.824 213.598C253.498 212.934 252.335 212.602 250.009 212.104H249.843C249.511 212.104 249.345 212.27 249.179 212.436L248.847 212.768V213.266C248.847 213.93 249.013 214.594 249.677 214.926C250.175 215.258 250.674 215.424 251.172 215.756C251.671 215.922 252.169 216.254 252.667 216.42C252.999 216.586 253.166 216.752 253.332 217.083C253.332 217.249 253.498 217.747 253.498 218.743C253.498 219.573 253.332 220.403 253.332 220.901C253.332 221.233 253.166 221.565 252.833 221.731C252.501 222.062 252.169 222.228 251.671 222.394C251.172 222.56 250.674 222.726 250.009 222.892C249.345 223.058 248.847 223.224 248.348 223.556C246.521 224.552 245.026 225.714 243.863 227.207C242.7 228.535 241.703 230.195 240.873 231.854C240.042 233.514 239.378 235.34 238.713 237.165C238.215 238.991 237.55 240.817 236.886 242.476C236.72 243.14 236.388 243.638 236.055 244.136C235.723 244.8 235.557 245.464 235.391 246.294C235.225 247.621 235.723 248.949 236.554 250.609C237.384 252.102 238.381 253.596 239.71 255.09C241.039 256.583 242.368 257.911 243.697 258.907C245.192 260.069 246.355 260.899 247.351 261.065C247.518 261.065 247.85 261.231 248.348 261.396L249.677 261.728C250.175 261.894 250.674 261.894 251.006 262.06C251.338 262.06 251.504 262.226 251.671 262.226V262.392C251.671 262.724 251.671 263.056 251.671 263.554C251.671 264.052 251.671 264.384 251.671 264.882C251.671 265.38 251.671 265.712 251.671 265.878C251.671 265.878 251.671 266.21 251.671 266.707C251.671 267.205 251.671 267.537 251.671 267.703C251.504 268.699 251.338 269.363 250.84 269.861C250.342 270.359 249.843 270.691 249.345 270.857C248.847 271.023 248.182 271.188 247.85 271.188C247.518 271.188 246.521 271.354 246.521 272.018C246.521 272.35 246.521 272.516 246.521 272.682C246.521 273.014 246.853 273.346 247.351 273.512C248.182 273.678 249.013 273.844 250.009 274.01C251.006 274.176 252.003 274.342 252.833 274.674C254.495 275.172 256.322 275.836 258.149 276.499C258.315 276.499 258.481 276.665 258.648 276.665C258.814 276.665 258.98 276.831 258.98 276.831L259.146 276.997C259.312 277.163 259.478 277.163 259.644 277.163C259.81 277.163 259.977 277.329 260.143 277.329L260.641 277.495L261.638 275.67L261.305 275.338C259.478 273.844 258.481 273.18 256.488 271.686C256.322 271.52 256.156 271.354 255.99 271.023C255.824 270.525 255.824 270.359 255.824 270.359L256.654 262.724C256.654 262.724 256.82 262.724 256.986 262.558C257.485 262.392 257.983 262.226 258.481 262.06C259.146 261.894 259.644 261.728 260.309 261.562C260.973 261.397 261.472 261.231 261.804 261.065C263.465 260.069 265.292 259.073 267.12 257.911C268.947 256.749 270.774 255.754 272.435 254.426L274.097 252.932L274.927 247.953ZM261.472 226.71C261.472 226.212 261.472 225.714 261.638 225.382C261.804 225.382 262.136 225.548 262.302 225.548C263.299 226.544 263.963 227.207 264.794 227.871C265.458 228.535 266.123 229.033 266.455 229.697C266.787 230.361 267.12 231.025 267.286 231.689C267.452 232.518 267.452 233.514 267.286 234.842C267.12 235.672 267.12 236.833 266.953 238.659C266.787 240.319 266.621 241.978 266.289 243.804C265.957 245.63 265.625 247.289 265.292 248.949C264.96 250.443 264.462 251.604 263.963 252.268C263.963 252.434 263.631 252.6 262.801 253.43C262.136 254.094 261.472 254.758 260.641 255.422C259.81 256.086 259.146 256.749 258.315 257.247C257.983 257.579 257.651 257.745 257.485 257.745C257.485 257.081 257.485 256.583 257.485 256.252C257.485 255.588 257.651 254.924 257.651 254.094L257.817 252.102C257.817 251.604 257.983 250.609 258.149 249.447C258.315 248.119 258.481 246.791 258.648 245.298C258.814 243.804 258.98 242.31 259.312 240.983C259.644 239.655 259.644 238.493 259.81 237.829L260.309 235.008C260.475 233.846 260.641 232.85 260.807 231.689C260.973 230.527 261.139 229.365 261.305 228.203C261.472 227.705 261.472 227.207 261.472 226.71ZM252.833 251.439C252.833 251.936 252.833 252.434 252.833 252.932C252.833 254.26 252.833 255.588 252.501 256.583C252.501 256.583 252.335 256.749 252.169 256.749C251.671 256.749 251.338 256.749 251.172 256.749C251.006 256.749 250.674 256.583 250.009 256.086C249.511 255.588 249.013 255.09 248.514 254.426C248.016 253.762 247.518 253.098 247.019 252.434C246.853 252.102 246.355 251.273 246.189 250.941C246.022 250.443 246.022 249.945 245.856 249.447L245.69 248.451C245.524 247.455 245.358 246.46 245.192 245.464C245.026 244.468 244.86 243.472 244.86 242.476C244.694 241.481 244.694 240.651 244.86 239.821C245.026 238.825 245.192 237.497 245.69 236.004C246.189 234.51 246.687 232.85 247.518 231.523C248.348 230.029 249.345 228.867 250.342 227.705C251.338 226.71 252.501 226.212 253.996 226.378C253.996 226.544 253.996 226.71 253.996 226.875C253.83 230.029 253.83 233.348 253.83 236.668C253.83 240.153 253.664 243.306 253.498 246.46L252.833 251.439Z" fill="#1EB9D8"/>
<path d="M307.32 231.855C307.653 229.863 307.985 227.872 308.151 225.88C308.317 225.05 308.483 224.055 308.649 223.225C308.816 222.063 309.148 220.901 309.148 219.905C309.314 219.076 308.816 218.412 307.985 218.246L306.988 218.08C303.666 217.748 300.177 217.582 296.689 217.416C293.366 217.416 289.878 217.25 286.556 216.918H286.057V217.416C285.891 218.246 286.389 218.744 286.722 218.91L287.718 219.407C288.051 219.573 288.217 219.739 288.383 220.071C288.549 220.237 288.549 220.735 288.549 220.901C288.383 221.731 288.217 222.727 288.051 223.557C287.885 224.386 287.552 225.382 287.386 226.212C286.722 228.868 286.223 231.357 285.891 233.349L285.559 234.842C285.06 237.332 284.562 239.655 284.064 241.813L281.904 251.937C281.572 253.763 281.074 255.754 280.575 257.912C280.077 260.069 279.579 262.227 279.08 264.55C278.582 266.708 278.084 269.031 277.585 271.023C277.585 271.023 277.419 271.023 277.253 271.189C276.921 271.189 276.588 271.355 276.09 271.355C275.592 271.355 275.259 271.355 274.927 271.355C274.595 271.355 273.931 271.521 273.764 272.019V273.015L274.263 273.181C275.924 273.513 277.585 273.678 279.412 274.176C281.24 274.508 283.067 275.006 284.894 275.338C286.722 275.67 288.549 276.168 290.376 276.5C291.041 276.666 291.705 276.832 292.204 276.998C293.366 277.33 294.529 277.662 295.36 277.662C295.36 277.662 295.36 277.662 295.526 277.662C295.858 277.662 296.19 277.662 296.523 277.496C296.855 277.496 297.353 277.33 297.686 277.33C298.682 277.33 299.679 277.164 300.676 276.998C301.672 276.832 302.669 276.5 303.5 276.002C304.496 275.504 304.995 274.84 305.161 273.844C305.327 273.181 305.327 272.351 305.327 271.355C305.327 270.359 305.327 269.363 305.161 268.202C304.995 267.206 304.995 266.044 304.829 265.214C304.663 264.218 304.496 263.389 304.33 262.891C303.998 261.729 303.666 260.733 303.001 259.903C302.503 259.239 301.672 258.244 300.842 257.082C300.676 256.916 300.343 256.584 300.011 256.252C299.679 256.086 299.347 255.754 299.015 255.588C298.682 255.256 298.35 255.09 298.018 254.924C297.686 254.758 297.519 254.592 297.353 254.592L297.187 254.426L296.357 254.26L293.034 255.588C292.702 255.754 292.37 256.086 292.038 256.252C291.705 256.584 291.373 257.082 291.373 257.58C291.373 257.912 291.373 258.244 291.207 258.576C291.207 258.907 291.207 259.405 291.373 259.737C291.373 260.069 291.539 260.567 291.705 260.899C292.038 261.563 292.37 261.729 292.702 261.729C293.2 261.895 293.699 261.729 294.031 261.563C294.363 261.397 294.695 261.231 295.194 261.065C295.526 260.899 295.858 260.733 296.19 260.567C296.357 260.401 296.689 260.401 296.855 260.567C297.187 260.567 297.686 260.899 298.184 261.231C298.682 261.729 299.181 262.227 299.679 262.891C300.177 263.555 300.51 264.218 300.676 265.048C300.842 265.712 301.008 266.376 300.842 267.04C300.676 267.87 300.51 268.699 300.011 269.529C299.679 270.359 299.181 271.189 298.682 271.853C298.184 272.517 297.519 273.181 297.021 273.512C296.523 273.844 296.024 274.01 295.526 274.01L294.529 273.512C293.533 273.015 292.868 272.683 292.038 272.351C291.373 272.019 290.542 271.687 289.878 271.355C289.213 271.023 288.549 270.691 287.885 270.359C287.552 270.193 287.22 270.027 286.888 270.027C286.556 269.861 285.891 269.695 285.725 269.529C285.393 268.865 286.057 264.716 286.722 261.563C287.054 259.571 287.552 257.414 287.718 255.588C287.885 254.094 288.051 252.269 288.217 250.609C288.383 247.124 288.715 243.639 289.546 241.813C289.712 241.813 289.878 241.813 290.21 241.647C290.542 241.647 290.875 241.481 291.373 241.481L292.204 241.315C292.868 241.149 293.699 241.149 294.695 240.983H294.862C294.862 240.983 295.194 240.983 295.36 241.481C295.526 241.979 295.692 242.477 295.858 243.141C296.024 243.805 296.024 244.468 296.19 245.298C296.19 246.128 296.357 246.792 296.523 247.29L296.689 247.788H298.184V247.124C298.184 246.626 298.184 245.962 298.35 245.132L298.682 242.809C298.848 242.145 298.848 241.315 299.015 240.817L299.181 239.323C299.347 238.66 299.513 238.162 299.679 237.664C300.011 237 300.177 236.336 300.343 235.672L300.51 235.174C300.51 234.842 300.51 234.51 300.343 234.344L300.011 234.013H299.679C299.513 234.013 299.181 234.013 299.015 234.178C298.848 234.344 298.682 234.344 298.682 234.51H298.516L296.855 238.162C295.692 238.162 294.695 238.162 294.031 238.162H291.041C290.709 238.162 290.542 238.162 290.376 238.162C290.376 237.83 290.542 237.332 290.542 236.834C290.709 236.004 290.875 235.008 291.041 234.013C291.207 233.017 291.373 232.187 291.539 231.191C291.705 230.361 291.871 229.697 291.871 229.199L292.536 224.552C292.702 223.557 292.868 222.561 293.034 221.731C293.2 221.233 293.2 220.901 293.2 220.569H295.194C296.19 220.569 297.353 220.569 298.516 220.569L301.839 220.735C302.669 220.735 303.334 220.735 303.832 220.901C304.33 221.399 304.829 221.731 304.995 221.897C305.161 222.063 305.327 222.229 305.327 222.229C305.327 222.229 305.327 222.561 305.327 223.059C305.327 223.391 305.327 224.055 305.327 224.718V225.216C305.327 225.88 305.327 226.378 305.493 226.71C305.493 226.876 305.659 227.208 305.493 227.872L305.659 231.855L305.825 232.187L307.32 233.017V231.855Z" fill="#1EB9D8"/>
<path d="M354 221.73C353.834 221.233 353.335 220.901 352.837 221.067C347.521 221.896 344.863 222.228 339.714 223.224C338.717 223.224 338.385 223.39 338.219 223.556C338.052 223.722 337.886 223.722 337.886 223.888L337.72 224.054C337.222 224.718 336.391 226.378 335.394 228.701C334.398 231.025 332.903 234.012 331.574 237.331C330.079 240.651 328.584 244.136 326.922 247.787L322.271 258.243C320.776 261.562 319.613 264.384 318.45 266.707C318.118 267.371 317.786 268.035 317.454 268.699C317.786 266.209 317.952 263.388 318.45 260.235C318.949 255.754 319.613 251.106 320.112 246.459C320.776 241.646 321.44 236.999 322.105 232.352C322.769 227.705 323.6 223.556 324.264 219.905C324.264 219.905 324.264 219.739 324.597 219.573C324.929 219.407 325.427 219.075 325.76 218.909C326.258 218.743 326.756 218.411 327.089 218.245C327.587 218.079 327.919 217.913 328.085 217.747L328.417 217.581L328.75 215.424L327.753 215.756C327.255 215.922 326.922 216.088 326.59 216.088C326.258 216.254 326.092 216.254 325.76 216.42C325.427 216.42 325.095 216.585 324.763 216.585C324.431 216.585 323.766 216.585 323.268 216.585L322.105 216.42C321.773 216.42 321.607 216.254 321.274 216.254C320.942 216.088 320.61 216.088 320.278 215.922C319.945 215.756 319.447 215.59 318.783 215.258L318.45 215.092L317.62 216.088V216.254C317.62 216.585 317.62 216.917 318.118 217.415C318.284 217.581 318.616 217.747 318.783 218.079C318.949 218.245 319.281 218.411 319.447 218.743C319.613 218.909 319.613 218.909 319.613 219.075C319.281 221.73 318.783 224.552 318.45 227.705C317.952 230.859 317.454 234.178 316.955 237.663L315.294 247.953C314.796 251.438 314.297 254.592 313.633 257.579C313.135 260.567 312.636 263.388 312.304 265.712C312.138 267.039 311.972 268.201 311.806 269.197C311.639 270.027 311.473 270.857 311.473 271.52C311.473 271.852 311.307 272.35 311.141 273.18C310.975 274.01 310.809 274.674 310.477 275.504C310.31 276.333 309.978 276.997 309.812 277.661C309.48 278.325 309.314 278.491 309.48 278.491C309.148 278.657 308.982 278.657 308.649 278.657C308.317 278.657 307.819 278.657 307.32 278.657H306.822L306.324 280.483L306.822 280.649C307.486 280.814 307.985 281.146 308.483 281.478C308.982 281.81 309.48 282.308 310.144 282.806C310.809 283.47 311.141 283.802 311.806 284.466L311.972 284.632H313.799L313.965 284.134C314.131 283.636 314.297 283.138 314.63 282.474C314.962 281.644 314.962 281.644 314.962 281.644L315.128 281.478C315.626 280.649 316.291 279.321 317.287 277.329C318.284 275.504 319.281 273.346 320.61 270.691C321.939 268.201 323.268 265.38 324.763 262.392C326.258 259.405 327.587 256.417 329.082 253.43C330.577 250.443 331.906 247.455 333.401 244.634C334.73 241.812 336.059 239.323 337.222 236.999C338.385 234.842 339.215 233.016 340.046 231.688C340.046 231.688 340.046 231.688 340.046 231.522C340.046 232.02 339.88 232.684 339.88 233.514C339.547 235.838 339.215 238.825 338.717 242.31C338.219 245.796 337.72 249.613 337.222 253.762C336.557 257.911 336.059 261.894 335.394 265.877C334.896 269.861 334.232 273.346 333.899 276.499C333.733 277.827 333.567 279.155 333.401 280.317C333.235 281.644 333.069 282.806 332.903 283.636C332.903 283.968 332.737 284.134 332.737 284.3L332.238 284.798C331.906 285.13 331.408 285.462 331.075 285.793C330.577 286.291 330.245 286.291 330.245 286.291C329.58 286.623 329.082 286.955 328.584 287.121C328.085 287.453 327.587 287.785 326.922 288.449L326.756 288.781L326.922 289.113C326.922 289.279 327.089 289.777 327.587 289.943L328.584 290.275H328.75C329.414 290.109 330.079 289.943 330.577 289.611C331.075 289.445 331.574 289.279 332.072 289.113C332.57 288.947 332.903 288.947 333.401 288.781C333.899 288.781 334.398 288.781 335.062 288.947C335.561 289.113 336.225 289.279 336.723 289.279C337.222 289.279 337.554 289.445 338.052 289.611C338.052 289.611 338.219 289.611 338.551 289.777C338.717 289.777 339.049 289.777 339.381 289.943C339.714 289.943 339.88 289.943 340.046 290.109C340.212 290.109 340.378 290.109 340.378 290.109L340.71 290.275L341.209 289.943C341.375 289.777 341.541 289.611 341.541 289.279V288.947V288.781C341.541 288.615 341.375 288.449 341.209 288.283C341.043 288.117 340.876 288.117 341.043 288.117C340.876 287.951 340.378 287.785 339.88 287.453C339.381 287.121 338.883 286.789 338.551 286.623C338.219 286.457 338.052 286.291 337.886 286.125C337.72 285.959 337.72 285.793 337.72 285.462C337.72 285.13 337.72 284.798 337.72 284.3C337.72 284.134 337.72 283.802 337.72 283.636C337.72 283.304 337.72 282.972 337.72 282.64C338.052 280.317 338.551 277.495 339.381 274.342C339.714 272.848 340.046 271.188 340.378 269.529C341.375 264.55 342.372 259.571 343.534 254.26L346.857 238.825C347.189 236.999 347.521 235.174 347.853 233.348C348.352 230.029 348.85 226.875 349.681 225.382C349.847 225.216 350.179 224.718 351.674 223.888C352.505 223.556 353.169 223.224 354 222.892C354 222.892 354.166 222.394 354 221.73Z" fill="#1EB9D8"/>
<path d="M151.335 275.172C151.667 275.172 151.667 275.172 151.999 275.172C152.497 275.504 152.83 276.168 152.83 277.163C152.83 281.811 152.83 284.798 152.83 285.794C152.996 288.449 152.996 289.777 152.996 292.266C153.162 292.93 153.162 293.096 153.162 293.76C157.149 288.947 158.312 282.972 158.976 278.657C159.142 277.163 160.139 276.002 160.305 275.836C160.471 275.836 160.471 275.836 160.637 275.836C161.468 275.836 162.132 281.479 162.298 292.598C162.298 295.918 162.132 297.743 161.302 298.075C160.969 298.075 160.969 298.075 160.637 298.075C159.973 298.075 159.474 296.416 159.308 292.764C159.308 291.437 159.308 290.773 159.142 289.279H158.976C156.484 294.424 154.657 297.079 152.996 297.245C152.83 297.245 152.663 297.245 152.497 297.245C151.002 297.245 150.172 295.752 150.006 292.764C149.839 289.445 149.839 287.619 149.673 284.3C150.006 279.321 150.338 276.168 151.335 275.172Z" fill="#1EB9D8"/>
<path d="M181.402 275.67C183.396 275.836 184.725 277.164 185.057 279.155C185.057 279.321 184.891 279.487 184.558 279.819C184.392 279.819 184.226 279.819 184.06 279.819C183.396 279.155 182.565 278.657 181.568 278.491C181.402 278.491 181.236 278.491 181.07 278.491C178.412 280.649 177.083 283.802 177.083 287.951C177.083 288.449 177.083 288.781 177.083 289.279C177.083 292.101 178.91 293.594 182.565 293.594C183.23 293.594 184.891 293.428 187.881 293.262C188.047 293.262 188.213 293.428 188.213 293.594C187.216 295.918 184.891 297.08 181.734 297.08C178.412 297.08 176.086 295.42 174.924 292.267C174.591 290.939 174.425 290.441 174.425 290.441C174.425 284.798 175.92 280.317 178.91 276.832C179.907 276.002 180.738 275.67 181.402 275.67Z" fill="#1EB9D8"/>
<path d="M197.848 276.832C200.506 276.998 202.167 278.492 202.998 281.313C202.998 281.479 202.998 281.645 202.998 281.811C202.831 284.798 200.174 287.122 194.858 288.782C194.526 288.782 194.359 288.782 194.027 288.782C193.861 288.782 193.695 288.616 193.529 288.284C193.529 288.118 193.529 287.952 193.529 287.786C194.027 287.122 195.854 285.628 199.011 283.471C199.841 282.641 200.174 281.977 200.34 281.479C199.675 280.649 198.678 280.151 197.682 279.985C195.522 279.819 193.861 281.811 192.698 285.96C192.698 285.96 192.532 286.79 192.532 288.284C192.366 291.271 193.695 293.097 196.353 293.761C196.685 293.761 196.851 293.761 197.183 293.761C198.014 293.761 199.841 293.097 202.665 291.935C202.998 291.769 203.496 291.769 203.828 291.769H203.994C204.16 291.769 204.16 291.935 204.327 291.935C204.327 293.761 202.665 295.254 199.343 296.914C198.678 297.08 198.18 297.246 198.014 297.246C197.183 297.246 196.851 297.246 196.021 297.246C193.363 297.246 191.369 295.088 190.206 290.939C190.04 290.275 190.04 289.777 190.04 289.114C190.04 288.616 190.04 288.284 190.04 287.786C190.206 282.475 192.034 278.824 196.021 276.998C196.519 276.832 197.183 276.832 197.848 276.832Z" fill="#1EB9D8"/>
<path d="M217.118 278.159C217.616 278.657 217.948 280.98 218.114 285.295C217.948 287.951 217.948 289.445 217.782 292.1C217.782 293.262 217.948 295.254 217.616 296.747C217.45 297.411 217.118 297.909 216.952 297.909C216.786 297.909 216.786 297.909 216.619 297.909C215.789 297.577 215.29 295.253 215.623 291.27C215.789 288.283 215.955 285.959 216.121 284.798C216.121 284.466 216.121 284.134 216.121 283.802C216.121 283.636 216.121 283.636 216.287 283.47C216.287 283.47 216.287 283.47 216.287 283.304C216.287 283.304 216.287 283.304 216.121 283.304C216.121 283.47 215.124 285.13 212.965 288.283C212.965 288.615 212.799 288.781 212.466 288.947C212.3 288.947 212.134 288.947 211.802 288.947C210.141 287.287 208.812 285.461 207.815 283.636C207.815 283.968 207.815 284.3 207.981 284.632C207.815 289.113 207.649 291.436 207.483 296.083C207.483 296.913 207.151 297.245 206.486 297.245C205.822 297.245 205.489 296.747 205.489 296.083C205.489 294.092 205.656 293.096 205.656 291.27C205.822 288.449 205.656 284.3 205.988 279.985C206.154 278.325 206.486 277.329 206.652 277.329C206.652 277.329 206.652 277.329 206.818 277.329C206.984 277.329 207.649 278.989 208.978 282.142C209.809 283.802 210.971 285.461 212.3 286.789C213.297 285.13 214.46 283.636 216.121 282.308C216.121 282.308 216.121 282.308 216.287 282.308C216.287 282.142 216.287 282.142 216.121 281.976C216.121 281.81 216.287 281.644 216.287 281.478C216.287 281.146 216.287 280.98 216.121 280.814C216.453 278.989 216.786 278.159 217.118 278.159Z" fill="#1EB9D8"/>
<path d="M221.769 279.155C222.101 279.155 222.101 279.155 222.434 279.155C222.932 279.487 223.264 280.151 223.098 280.815C222.766 284.632 222.434 287.122 222.434 287.786C222.267 289.943 222.267 290.939 222.101 293.096C222.101 293.594 222.101 293.76 222.267 294.258C226.587 290.773 228.248 285.794 229.244 282.641C229.577 281.479 230.573 280.649 230.906 280.649C231.072 280.649 231.072 280.649 231.238 280.649C232.068 280.815 232.235 285.296 231.736 294.258C231.57 296.914 231.072 298.407 230.407 298.573C230.075 298.573 230.075 298.573 229.743 298.573C229.078 298.573 228.746 297.08 228.912 294.258C228.912 293.096 229.078 292.599 229.078 291.437H228.912C226.088 295.42 223.929 297.246 222.267 297.246C222.101 297.246 221.935 297.246 221.769 297.246C220.274 297.08 219.61 295.918 219.776 293.428C219.942 290.607 219.942 289.279 220.108 286.458C220.108 282.309 220.606 279.819 221.769 279.155Z" fill="#1EB9D8"/>
<path d="M256.322 284.798C256.82 285.296 257.152 287.287 257.152 290.939C256.986 293.262 256.82 294.424 256.488 296.747C256.322 297.743 256.488 299.403 256.156 300.731C255.99 301.394 255.657 301.726 255.491 301.726C255.325 301.726 255.325 301.726 255.325 301.726C254.495 301.394 254.162 299.403 254.495 296.084C254.827 293.428 254.993 291.602 255.159 290.607C255.159 290.275 255.159 290.109 255.159 289.777C255.159 289.611 255.325 289.611 255.325 289.611C255.325 289.611 255.325 289.611 255.325 289.445C255.325 289.445 255.325 289.445 255.159 289.445C255.159 289.611 253.996 290.939 251.837 293.428C251.837 293.594 251.671 293.76 251.338 293.926C251.172 293.926 251.006 293.926 250.674 293.76C249.013 292.1 247.85 290.607 247.019 288.947C247.019 289.279 247.019 289.445 247.019 289.777C246.687 293.594 246.521 295.586 246.189 299.569C246.189 300.233 245.69 300.565 245.026 300.399C244.361 300.399 244.029 299.901 244.195 299.237C244.361 297.577 244.361 296.747 244.527 295.088C244.694 292.598 244.694 289.113 245.358 285.462C245.524 283.968 246.022 283.138 246.189 283.304C246.189 283.304 246.189 283.304 246.355 283.304C246.521 283.304 247.185 284.798 248.182 287.619C249.013 289.113 250.009 290.607 251.338 291.934C252.335 290.607 253.664 289.445 255.325 288.449C255.325 288.449 255.325 288.449 255.491 288.449C255.491 288.283 255.491 288.283 255.325 288.117C255.325 287.951 255.491 287.785 255.491 287.619C255.491 287.453 255.491 287.287 255.491 286.955C255.657 285.462 255.99 284.798 256.322 284.798Z" fill="#1EB9D8"/>
<path d="M267.12 287.122C269.611 287.62 271.273 288.948 271.937 291.105C271.937 291.271 271.937 291.271 271.937 291.437C271.605 293.761 268.781 295.088 263.465 295.752C263.133 295.752 262.967 295.752 262.634 295.586C262.468 295.586 262.302 295.42 262.302 295.088C262.302 294.922 262.302 294.922 262.302 294.756C262.801 294.259 264.628 293.429 267.95 292.101C268.781 291.603 269.279 291.105 269.279 290.773C268.615 289.943 267.784 289.611 266.787 289.28C264.628 288.948 262.801 290.275 261.472 293.429C261.472 293.429 261.305 294.093 261.139 295.254C260.807 297.578 261.97 299.237 264.462 299.901C264.794 299.901 264.96 299.901 265.126 300.067C265.957 300.233 267.784 299.901 270.774 299.237C271.106 299.237 271.605 299.237 271.937 299.237H272.103C272.269 299.237 272.269 299.403 272.435 299.403C272.269 300.731 270.442 301.727 267.12 302.723C266.455 302.889 265.957 302.889 265.791 302.723C264.96 302.557 264.628 302.557 263.797 302.391C261.139 302.059 259.312 300.233 258.481 296.748C258.481 296.25 258.481 295.752 258.481 295.42C258.481 295.088 258.481 294.756 258.648 294.424C259.146 290.275 261.305 287.786 265.292 286.79C265.791 286.956 266.455 287.122 267.12 287.122Z" fill="#1EB9D8"/>
<path d="M284.562 290.938C284.894 290.938 284.894 291.104 285.227 291.104C285.891 291.27 286.057 292.598 286.057 295.253C286.057 295.751 285.891 295.917 285.891 296.415C285.725 297.245 285.393 298.075 284.728 298.739C284.396 303.054 284.396 306.041 284.396 307.037C284.396 307.867 283.732 308.365 282.569 308.199C277.585 307.369 275.093 306.871 275.093 306.539C275.093 306.373 275.093 306.207 275.093 306.041V305.875C275.093 305.211 276.09 305.046 277.917 305.377C278.416 305.377 278.582 305.543 279.08 305.543C279.412 305.543 280.409 305.875 282.403 306.373C282.237 304.216 282.237 302.224 282.569 300.564C281.572 300.73 281.24 300.896 280.243 301.062C279.745 301.062 279.412 301.062 279.246 301.062C278.582 300.896 278.25 300.896 277.585 300.73C275.093 300.067 274.097 298.739 274.263 296.913C274.263 296.747 274.263 296.581 274.263 296.249C274.595 294.092 276.256 292.266 279.246 291.27C279.911 291.104 280.575 291.104 281.406 291.27C281.572 291.27 281.572 291.27 281.738 291.27C282.403 291.436 283.067 291.768 283.565 292.432C283.732 291.27 284.064 290.772 284.562 290.938ZM276.588 296.913C276.588 297.909 276.921 298.573 277.917 298.739C278.416 298.739 278.582 298.905 279.08 298.905C280.409 299.071 281.572 298.739 282.569 297.909C282.735 297.079 282.901 296.249 283.067 295.751C283.067 295.585 283.067 295.419 283.067 295.253C282.901 295.253 282.901 295.253 282.901 295.253C282.901 295.253 282.901 295.253 282.735 295.253C282.569 295.253 282.569 295.088 282.569 295.088C282.569 294.922 282.569 294.922 282.569 294.756C282.735 293.76 282.403 293.262 281.738 293.096C281.572 293.096 281.572 293.096 281.406 293.096C279.745 292.764 278.084 293.926 276.755 296.747C276.588 296.581 276.588 296.581 276.588 296.913Z" fill="#1EB9D8"/>
<path d="M289.878 292.101C290.21 292.101 290.21 292.267 290.542 292.267C291.041 292.598 291.207 293.096 291.207 293.594C290.709 296.416 290.21 298.241 290.044 298.739C289.878 300.399 289.712 301.063 289.546 302.722C289.546 303.054 289.546 303.22 289.546 303.718C294.031 301.561 296.19 297.909 297.021 295.918C297.353 295.088 298.35 294.59 298.682 294.59C298.848 294.59 298.848 294.59 299.014 294.59C299.845 294.756 299.679 298.241 298.682 304.88C298.35 306.872 297.852 307.867 297.021 307.867C296.689 307.867 296.689 307.867 296.357 307.701C295.692 307.535 295.526 306.374 295.692 304.382C295.858 303.552 295.858 303.22 296.024 302.391H295.858C292.868 304.88 290.542 306.208 289.047 305.876C288.881 305.876 288.715 305.876 288.549 305.876C287.054 305.544 286.389 304.548 286.722 302.722C287.054 300.565 287.22 299.569 287.386 297.577C288.051 294.258 288.715 292.433 289.878 292.101Z" fill="#1EB9D8"/>
<path d="M303.998 293.262C304.164 293.262 304.33 293.428 304.33 293.76C304.33 293.926 304.33 294.092 304.164 294.258C303.998 294.756 303.998 295.42 303.998 295.917C303.998 296.083 303.832 296.249 303.832 296.415C303.832 297.079 303.832 297.577 303.666 298.075C303.666 298.573 303.334 299.403 303.167 300.564C303.167 300.564 303.167 300.564 303.167 300.73C303.167 300.73 303.167 300.73 303.334 300.73C305.493 299.237 307.985 298.241 310.809 297.743C311.141 297.577 311.806 297.577 312.47 297.909C312.47 298.075 312.636 298.075 312.636 298.241C312.47 298.905 309.812 299.901 304.496 301.892V302.058C305.327 303.552 306.822 305.543 308.816 308.033C309.148 308.863 309.148 309.361 309.148 309.527C308.982 309.859 308.649 309.859 308.317 309.859C307.487 309.361 305.992 307.867 304.164 305.046C303.5 304.05 303.167 303.22 303.001 302.722C303.001 302.722 303.001 302.722 302.835 302.722C302.337 304.382 302.171 305.875 302.005 306.705C301.672 308.199 301.008 309.029 300.51 308.863C299.845 308.697 299.679 308.033 300.011 306.705C300.177 305.377 300.343 304.714 300.51 303.386C301.506 298.739 302.337 295.751 302.835 294.092C303.167 293.262 303.5 293.096 303.998 293.262Z" fill="#1EB9D8"/>
<path d="M321.108 300.067C321.939 300.233 322.271 300.399 323.102 300.565C324.431 300.897 325.76 302.225 327.089 304.051C327.587 305.378 327.919 306.374 327.753 307.204C327.753 307.37 327.753 307.536 327.587 307.702C327.089 310.357 324.597 311.851 320.444 312.349C320.112 312.349 319.613 312.349 318.949 312.183C318.45 312.017 318.118 312.017 317.62 311.851C314.63 311.187 312.636 309.03 312.802 306.374C312.968 301.893 315.128 299.072 316.955 299.569C317.288 299.735 317.454 299.735 317.786 299.901C318.949 299.735 320.112 299.735 321.108 300.067ZM315.626 304.548C315.128 307.204 315.626 308.864 316.291 309.361C316.789 309.693 317.454 310.191 318.45 310.357C320.278 310.855 322.271 310.191 324.431 308.864C324.929 308.2 325.261 307.536 325.261 307.204C325.261 306.872 325.427 306.54 325.427 306.208C325.594 305.212 324.929 303.885 323.268 302.225C322.77 301.893 322.437 301.727 322.105 301.727C321.773 301.561 321.607 301.561 321.274 301.395C318.617 301.063 317.288 301.561 317.121 302.557C316.955 303.055 316.623 303.387 315.959 303.387C315.793 304.051 315.626 304.382 315.626 304.548Z" fill="#1EB9D8"/>
<path d="M333.733 303.386C334.232 303.552 334.398 303.552 334.73 303.718C336.557 304.714 337.554 306.871 336.89 308.365C336.724 308.697 336.225 309.029 335.893 309.361C337.056 310.025 338.053 310.854 338.717 312.016C339.049 312.68 339.215 313.676 338.883 314.838C338.717 315.833 337.388 316.165 334.73 316.165C333.235 315.833 332.571 315.668 331.076 315.336C330.743 315.17 330.743 315.17 330.411 315.17C330.411 315.336 330.411 315.502 330.411 315.667C330.411 315.667 330.411 315.668 330.411 315.833C330.245 316.331 329.913 316.497 329.248 316.331C328.252 316.165 327.919 315.336 328.252 313.842C328.418 313.012 328.418 312.68 328.584 311.85C328.584 309.859 328.75 308.531 328.75 307.867C328.916 307.369 328.916 307.037 329.082 306.539C329.248 306.041 329.414 305.709 329.747 305.378C329.747 305.212 329.747 305.212 329.58 305.212C329.58 305.046 329.58 305.046 329.58 304.88C329.58 304.88 329.58 304.88 329.747 304.88C329.747 304.88 329.747 304.714 329.58 304.714C329.58 304.382 329.58 304.382 329.747 304.05C329.747 303.884 329.913 303.884 330.245 303.884C330.411 303.884 330.411 303.884 330.411 303.884C330.743 304.05 330.743 304.05 331.076 304.216C332.405 303.386 333.235 303.22 333.733 303.386ZM331.74 306.041C331.74 307.037 331.74 307.701 331.906 307.867C332.571 308.531 334.896 307.867 335.229 306.705C335.395 306.207 335.062 305.544 334.398 304.88C334.232 304.88 334.232 304.88 334.232 304.88C333.235 304.548 332.405 305.046 331.74 306.041ZM331.408 309.527C331.408 309.693 331.408 309.859 331.408 310.025C331.242 310.854 331.242 311.186 331.076 312.016C330.909 312.68 330.909 313.178 331.076 313.51C331.242 313.51 331.242 313.51 331.242 313.51C331.74 313.676 332.072 313.676 332.571 313.842C333.069 314.008 333.401 314.008 333.9 314.174C336.724 314.838 338.219 314.838 338.385 314.34C338.385 314.174 338.551 314.008 338.717 314.008C338.883 312.846 338.219 312.016 336.557 311.186C335.727 310.688 335.229 310.523 334.232 310.191C333.401 309.859 332.571 309.693 331.408 309.527Z" fill="#1EB9D8"/>
<path d="M12.1264 217.416C13.9537 217.084 15.2826 217.416 15.4488 217.748C15.2826 218.744 12.6247 219.739 7.47504 221.067C7.47504 221.067 7.47504 221.067 7.47504 221.233C8.63788 223.557 9.96683 226.876 11.4619 231.523C12.4586 234.344 12.7909 235.672 13.7876 238.494C13.7876 238.66 13.7876 238.825 13.4553 239.157C13.2892 239.157 13.1231 239.323 12.957 239.323C12.4586 239.489 11.7941 238.328 10.9635 235.838C10.7974 235.34 10.2991 233.681 9.46847 230.859C8.63788 228.204 7.80728 226.212 7.47504 225.05C7.47504 224.884 7.47504 224.884 7.47504 224.718C7.30892 224.552 7.30892 224.386 7.1428 224.386C6.81057 223.557 6.64445 222.727 6.47833 221.565C4.65102 222.063 3.6543 222.561 3.48818 222.727C3.48818 222.727 3.32206 222.727 3.32206 222.561C2.82371 222.727 2.65759 222.893 2.15923 223.059C1.82699 223.225 1.49475 223.225 1.16251 223.391C0.664156 223.557 0.331918 223.391 0.165798 223.059C-0.16644 222.395 0.664156 221.399 2.65759 220.569C3.6543 219.905 7.30892 218.246 12.1264 217.416Z" fill="#1EB9D8"/>
<path d="M24.4195 214.428C27.0774 213.764 29.237 214.76 30.8982 216.917C30.8982 217.083 30.8982 217.249 31.0643 217.415C31.8949 220.237 29.7353 223.224 25.084 226.543C24.7517 226.709 24.5856 226.709 24.2534 226.709C24.0873 226.709 23.9211 226.543 23.5889 226.378C23.5889 226.212 23.4228 226.046 23.4228 225.88C23.5889 225.05 25.084 223.224 27.5758 220.071C28.0741 219.075 28.4064 218.245 28.2402 217.747C27.2435 217.083 26.2468 216.917 25.084 217.249C22.7583 217.747 21.7616 220.237 21.9277 224.552C21.9277 224.552 22.0938 225.382 22.4261 226.875C23.2567 229.697 25.084 231.191 27.908 230.859C28.2402 230.693 28.4064 230.693 28.7386 230.693C29.5692 230.527 31.2304 229.199 33.7222 227.207C34.0544 227.041 34.3867 226.875 34.885 226.709H35.0511C35.2172 226.709 35.2172 226.709 35.3834 226.875C35.8817 228.535 34.7189 230.693 31.8949 233.182C31.3965 233.514 30.8982 233.846 30.732 233.846C29.9014 234.178 29.4031 234.178 28.7386 234.51C26.0807 235.34 23.4228 234.012 20.931 230.361C20.5988 229.863 20.4326 229.199 20.2665 228.701C20.1004 228.203 20.1004 228.037 19.9343 227.539C18.4392 222.56 19.2698 218.411 22.5922 215.424C22.9244 214.926 23.5889 214.594 24.4195 214.428Z" fill="#1EB9D8"/>
<path d="M37.2106 211.773C39.7024 211.275 42.0281 212.769 44.1876 215.922C44.5199 216.752 44.8521 217.582 45.0182 218.245C45.3505 219.573 44.686 220.901 42.8587 222.561C42.1942 223.058 41.5297 223.39 40.6991 223.556C40.533 223.556 40.533 223.556 40.533 223.556C39.7024 223.722 39.2041 223.722 38.7057 223.556C38.8718 224.054 38.8718 224.386 39.0379 225.05C39.5363 226.544 40.533 229.199 40.6991 231.689C40.6991 232.187 40.3669 232.684 39.8685 232.85C39.5363 232.85 39.0379 232.684 38.8718 232.187C37.8751 230.527 37.5429 228.037 37.2106 226.544C37.0445 226.046 37.0445 225.714 36.8784 225.05C35.7156 221.565 34.885 219.407 34.7188 218.411C34.5527 217.913 34.5527 217.748 34.3866 217.416C33.7221 214.096 34.7188 212.271 37.2106 211.773ZM35.8817 215.59C36.0478 215.756 36.0478 215.756 36.0478 215.756C36.0478 215.922 36.2139 216.088 36.2139 216.254C36.2139 216.254 36.2139 216.42 36.0478 216.42C36.2139 216.586 36.2139 216.586 36.2139 216.586C37.0445 218.909 37.5429 220.403 37.709 221.233C37.8751 221.731 37.8751 221.897 38.0412 222.395C38.0412 222.561 38.2073 222.561 38.3735 222.561C41.0314 221.067 42.5264 220.071 42.5264 219.573C43.0248 218.577 43.0248 217.748 42.8587 217.084C42.5264 215.756 41.0314 214.594 38.2073 213.266C37.8751 213.266 37.709 213.266 37.5429 213.266C37.3768 213.432 36.5462 214.262 35.8817 215.59Z" fill="#1EB9D8"/>
<path d="M48.6729 209.616C51.1647 209.118 53.3242 210.612 55.4838 213.599C55.816 214.429 56.1483 215.093 56.3144 215.757C56.6466 216.918 55.816 218.246 53.9887 219.906C53.3242 220.404 52.6598 220.736 51.8292 220.902C51.663 220.902 51.663 220.902 51.663 220.902C50.8324 221.068 50.3341 221.068 49.8357 220.902C50.0018 221.399 50.0018 221.731 50.168 222.229C50.5002 223.723 51.4969 226.212 51.663 228.536C51.663 229.034 51.3308 229.532 50.8324 229.698C50.5002 229.698 50.0018 229.532 49.8357 229.034C49.0051 227.374 48.6729 225.051 48.3407 223.557C48.1745 223.059 48.1745 222.727 48.0084 222.229C46.8456 218.91 46.1811 216.918 46.015 215.923C45.8489 215.591 45.8489 215.259 45.6827 214.927C45.0183 211.773 46.1811 210.114 48.6729 209.616ZM47.1778 213.267C47.1778 213.433 47.3439 213.433 47.3439 213.433C47.3439 213.599 47.3439 213.765 47.5101 213.931C47.5101 213.931 47.5101 214.097 47.3439 214.097C47.3439 214.263 47.5101 214.263 47.5101 214.263C48.1745 216.42 48.6729 217.914 48.839 218.744C49.0051 219.242 49.0051 219.408 49.1713 219.906C49.1713 220.072 49.3374 220.072 49.5035 220.072C52.1614 218.578 53.6565 217.748 53.8226 217.25C54.3209 216.254 54.4871 215.425 54.3209 214.927C53.9887 213.599 52.4936 212.437 49.8357 211.276C49.5035 211.276 49.3374 211.276 49.1713 211.276C48.6729 211.276 47.8423 212.105 47.1778 213.267Z" fill="#1EB9D8"/>
<path d="M57.3111 208.122C57.6433 208.122 57.6433 208.122 57.9755 207.956C58.64 208.122 58.9722 208.62 59.1384 209.284C59.8028 212.769 59.969 214.926 60.1351 215.59C60.6334 217.416 60.7996 218.412 61.1318 220.237C61.2979 220.735 61.464 220.901 61.6302 221.233C65.1187 216.752 65.617 212.105 65.7831 209.118C65.7831 207.956 66.6137 206.96 66.946 206.96C67.1121 206.96 67.1121 206.96 67.2782 206.96C68.1088 206.794 69.4377 210.777 71.0989 218.578C71.5973 220.901 71.4312 222.229 70.7667 222.727C70.4345 222.727 70.4345 222.893 70.1022 222.893C69.4378 223.059 68.7733 221.897 68.1088 219.408C67.9427 218.412 67.7766 217.914 67.6104 216.918H67.4443C65.617 221.067 63.7897 223.557 62.2946 223.889C62.1285 223.889 61.9624 223.889 61.7963 224.055C60.3012 224.387 59.3045 223.557 58.8061 221.233C58.3078 218.744 57.9755 217.582 57.3111 215.092C56.4805 211.441 56.4805 209.118 57.3111 208.122Z" fill="#1EB9D8"/>
<path d="M83.2257 204.47C85.053 204.304 86.382 204.636 86.382 204.802C86.0497 205.466 83.2257 206.13 78.076 206.96C78.076 206.96 78.076 206.96 78.076 207.126C78.7405 208.785 79.5711 211.441 80.0694 214.926C80.4017 217.084 80.5678 218.079 81.0661 220.237C81.0661 220.403 80.9 220.569 80.7339 220.735C80.5678 220.735 80.4017 220.735 80.2355 220.901C79.7372 221.067 79.2388 220.071 78.9066 218.245C78.9066 217.913 78.7405 216.586 78.2421 214.428C77.9099 212.436 77.4115 210.943 77.2454 210.113C77.2454 209.947 77.2454 209.947 77.4115 209.947C77.2454 209.781 77.2454 209.781 77.2454 209.615C77.0793 209.117 77.0793 208.287 77.0793 207.457C75.252 207.789 74.2552 207.955 73.923 208.121C73.923 208.121 73.7569 208.121 73.7569 207.955C73.2585 208.121 73.0924 208.121 72.5941 208.287C72.2618 208.287 71.9296 208.453 71.5973 208.453C71.099 208.453 70.7667 208.453 70.6006 208.121C70.4345 207.623 71.4312 206.96 73.4247 206.462C74.7536 205.964 78.4082 204.802 83.2257 204.47Z" fill="#1EB9D8"/>
<path d="M95.0202 202.977C95.8508 202.811 96.3491 202.811 97.1797 202.811C98.6748 202.645 100.336 203.475 102.329 204.969C103.326 206.13 103.824 207.126 103.991 208.122C103.991 208.288 103.991 208.454 103.991 208.62C104.323 211.773 102.496 214.263 98.5087 216.752C98.1764 216.918 97.6781 217.084 97.0136 217.25C96.5152 217.416 96.183 217.416 95.6846 217.582C92.5284 218.246 89.8705 216.752 89.0399 213.765C87.5448 208.62 88.5415 204.803 90.7011 204.637C91.0333 204.637 91.3655 204.637 91.6978 204.471C92.8606 203.641 93.8573 203.143 95.0202 202.977ZM91.1994 210.279C91.6978 213.433 92.6945 214.927 93.6912 215.258C94.1896 215.424 95.1863 215.59 96.183 215.424C98.1764 215.092 99.8376 213.599 101.499 211.275C101.665 210.279 101.831 209.616 101.831 209.118C101.831 208.62 101.665 208.454 101.665 207.956C101.499 206.794 100.336 205.632 98.0103 204.637C97.3458 204.637 97.0136 204.471 96.6814 204.637C96.3491 204.637 96.0169 204.637 95.6846 204.803C93.0267 205.632 91.6978 206.628 91.8639 207.79C92.03 208.288 91.6978 208.786 91.0333 209.284C91.1994 209.616 91.1994 209.948 91.1994 210.279Z" fill="#1EB9D8"/>
<path d="M109.306 201.815C111.798 201.649 113.792 202.811 115.287 204.969C115.453 205.633 115.619 206.131 115.785 206.628C115.951 207.458 114.954 208.454 112.961 209.45C112.297 209.782 111.466 209.948 110.635 210.114C110.469 210.114 110.469 210.114 110.469 210.114C109.639 210.28 109.14 210.114 108.642 209.948C108.642 210.28 108.642 210.612 108.808 210.944C108.974 212.105 109.473 214.097 109.306 215.591C109.306 215.923 108.808 216.255 108.31 216.42C107.977 216.42 107.479 216.255 107.313 215.923C106.815 214.927 106.815 212.935 106.649 211.939C106.649 211.607 106.649 211.276 106.482 210.944C105.984 208.454 105.652 206.96 105.486 206.131C105.486 205.799 105.486 205.633 105.32 205.467C105.486 203.309 106.815 201.981 109.306 201.815ZM107.313 204.305L107.479 204.471C107.479 204.637 107.479 204.637 107.479 204.803C107.479 204.803 107.479 204.969 107.313 204.969L107.479 205.135C107.811 206.794 108.144 207.79 108.144 208.454C108.144 208.786 108.144 208.952 108.31 209.284C108.31 209.45 108.476 209.45 108.642 209.45C111.632 208.454 113.127 207.956 113.293 207.624C113.958 206.96 114.124 206.297 114.124 205.965C113.958 205.135 112.795 204.139 110.137 203.143C109.805 203.143 109.639 203.143 109.473 203.143C108.974 202.977 108.144 203.475 107.313 204.305Z" fill="#1EB9D8"/>
<path d="M117.945 201.151C118.277 201.151 118.277 201.151 118.609 201.151C119.274 201.317 119.606 201.649 119.606 202.147C119.772 204.471 119.606 206.13 119.606 206.628C119.772 207.956 119.772 208.62 119.938 209.948C120.104 210.279 120.104 210.445 120.27 210.777C124.423 207.79 125.752 204.305 126.251 202.479C126.417 201.815 127.413 200.985 127.746 200.985C127.912 200.985 127.912 200.985 128.078 200.985C129.075 200.985 129.573 203.641 130.071 209.118C130.237 210.777 129.905 211.607 129.075 211.939C128.742 211.939 128.742 211.939 128.41 212.105C127.746 212.271 127.247 211.441 127.081 209.616C127.081 208.952 127.081 208.62 126.915 207.956H126.749C124.257 210.777 122.264 212.437 120.602 212.769C120.436 212.769 120.27 212.769 120.104 212.769C118.609 212.935 117.612 212.271 117.446 210.777C117.28 208.952 117.114 208.122 116.948 206.296C116.616 203.475 116.948 201.815 117.945 201.151Z" fill="#1EB9D8"/>
<path d="M136.218 200.321C137.214 200.321 138.045 200.487 138.876 200.819C139.54 200.819 139.872 201.317 139.872 202.645C139.872 203.143 140.038 204.304 140.205 205.798C140.205 207.292 140.205 208.454 140.205 208.952C140.205 209.449 140.371 209.947 140.371 210.113C140.371 210.279 140.038 210.611 139.54 210.611C139.374 210.611 139.374 210.611 139.208 210.611C138.543 210.445 138.211 210.113 138.211 209.449C138.211 208.62 138.211 208.288 138.045 207.458H137.879C137.381 208.122 135.885 209.449 133.726 211.441C133.394 211.441 133.394 211.607 133.061 211.607C133.061 211.607 133.061 211.607 132.895 211.607C132.563 211.607 132.397 211.441 132.397 211.109C132.397 210.611 133.56 209.118 136.218 206.794C135.387 206.794 135.055 206.96 134.224 206.96C132.231 206.794 131.234 206.296 131.234 205.466C131.234 204.968 131.234 204.802 131.234 204.304C131.234 203.143 132.065 201.981 134.058 200.985C134.723 200.487 135.553 200.321 136.218 200.321ZM133.394 204.47C133.394 204.636 133.394 204.636 133.394 204.636C133.394 205.3 134.224 205.466 135.553 205.466C136.55 205.466 137.381 205.466 137.879 205.466C137.879 205.466 137.879 205.466 138.045 205.466C138.045 203.973 138.045 203.143 138.045 201.649C137.713 201.483 137.048 201.317 136.384 201.317C135.221 201.317 134.224 201.981 133.394 203.309C133.394 203.807 133.394 204.304 133.394 204.47Z" fill="#1EB9D8"/>
<path d="M163.295 83.1491C159.973 89.2898 143.859 96.0944 140.038 96.5923C139.872 96.5923 139.54 96.5923 139.374 96.5923C137.547 96.7583 136.052 95.9285 135.055 94.9327C134.889 95.0986 134.723 95.2646 134.723 95.2646C134.224 95.7625 133.394 96.2604 132.563 96.5923C132.065 96.7583 131.732 96.7583 131.4 96.7583C130.57 96.7583 130.071 96.2604 129.739 96.0944C128.41 94.7667 128.41 91.6134 129.739 86.6344C130.902 86.9663 132.065 87.1323 133.061 87.2982C132.397 89.6218 132.065 91.9453 131.899 93.107C133.061 92.2772 133.061 91.4474 133.061 91.1155C133.061 91.1155 133.061 89.2898 134.058 88.7919C134.224 88.626 134.39 88.626 134.723 88.626C136.218 88.626 136.384 90.6176 136.384 90.6176C136.55 91.1155 137.048 93.1071 139.042 93.273C139.042 93.273 139.208 93.273 139.374 93.273C139.54 93.273 139.706 93.273 139.872 93.273C143.361 92.7751 153.162 88.1281 158.145 84.3108C159.64 83.647 161.136 82.8171 162.631 81.9873C162.631 82.3192 162.963 82.6512 163.295 83.1491Z" fill="#1EB9D8"/>
<path d="M216.453 46.1384C220.606 42.6531 224.925 39.1678 229.244 35.8485C233.564 32.5292 238.049 29.3758 242.7 26.5544C245.026 25.2267 247.518 23.8989 250.009 23.2351C251.338 22.9031 252.667 22.9031 253.664 23.401C254.827 24.0649 255.823 24.8947 256.654 25.8905C258.315 27.8821 259.312 30.5376 259.976 33.193C260.641 35.8485 260.807 38.504 260.807 41.3254C261.139 38.6699 260.973 35.8485 260.475 33.0271C259.976 30.3716 258.98 27.5502 257.319 25.3926C256.488 24.2309 255.491 23.2351 254.162 22.5712C252.667 21.9073 251.172 22.0733 249.843 22.2393C247.019 22.9031 244.527 24.2309 242.202 25.5586C237.384 28.38 233.065 31.6994 228.746 35.0187C224.427 38.504 220.44 42.1552 216.453 46.1384Z" fill="#1EB9D8"/>
<path d="M286.223 140.242C282.735 134.599 276.588 133.603 272.768 135.926C270.608 137.254 269.445 139.578 269.279 142.233C264.628 142.731 250.342 144.059 240.873 142.731C241.039 141.901 241.371 141.071 241.537 140.242C244.86 127.13 243.697 116.342 243.697 115.845L243.531 113.521L241.205 113.355C226.088 111.861 213.463 108.708 203.164 104.559C220.938 100.908 248.016 92.6092 261.97 73.855C270.276 62.9012 272.768 49.6239 269.611 34.6869C267.12 23.2353 262.302 16.7626 254.993 15.1029C250.175 14.1071 244.693 15.4348 238.713 18.4222C237.55 16.4306 236.221 14.439 234.56 12.6134C226.919 2.8214 218.945 -1.32776 211.137 0.663833C200.506 3.15333 191.535 16.5966 184.558 32.3634C183.229 31.0357 182.067 29.708 181.236 28.3802C181.236 28.3802 181.236 28.2143 181.07 28.2143C180.405 27.3844 179.907 26.5546 179.409 25.8907C179.243 25.7248 179.243 25.5588 179.076 25.5588C179.741 24.397 179.741 23.0693 178.91 21.9075C178.08 20.7458 176.751 20.4138 175.588 20.5798C172.598 15.2689 163.461 7.30249 151.168 3.98316C144.856 2.3235 138.211 4.48106 132.563 7.63442C131.899 7.63442 131.068 7.80039 130.071 7.96635C129.407 8.13232 128.908 8.13232 128.742 8.13232C128.576 8.13232 128.41 8.13232 127.912 7.80039C127.579 7.63442 126.915 7.30249 126.084 6.97056C125.254 6.63862 124.589 6.47266 124.091 6.30669C123.26 6.14072 122.596 6.47266 122.098 6.63862C121.765 6.80459 121.433 6.97056 120.769 7.13652C120.104 7.30249 119.606 7.30249 119.44 7.30249C119.273 7.30249 119.107 7.30249 118.941 7.13652C118.775 6.97056 118.443 6.80459 117.945 6.63862C117.778 6.63862 117.612 6.47266 117.446 6.30669C116.948 5.97476 116.283 5.47686 115.453 5.31089C114.456 5.14493 113.127 5.64283 112.629 8.13232C112.296 9.46005 112.13 11.2857 112.13 13.7752C111.964 17.7584 112.463 20.9117 113.293 23.4012C107.479 24.8949 104.821 30.0399 102.662 34.0231C101.333 36.5126 100.336 39.168 98.1764 40.8277C94.3556 43.6491 91.8638 44.479 88.3753 42.9853L81.7306 40.3298L86.3819 45.6407C89.2059 48.7941 92.3622 50.4538 95.3523 50.1218C95.0201 50.9517 94.5217 51.9474 93.3589 52.7773C90.8671 54.7689 87.2125 54.9348 82.7273 53.2752L71.0989 48.9601L81.2322 56.0966C87.877 60.7437 92.1961 62.2374 96.1829 61.5735C92.8605 63.897 87.2125 65.8886 80.5677 63.897L67.4443 59.7479L79.2388 66.8844C79.7371 67.2164 80.4016 67.5483 80.9 67.8802C85.7174 70.8676 89.8704 73.5231 96.8474 72.5273C94.854 74.1869 91.3655 75.5147 85.5513 73.855L78.0759 71.8634L84.0562 76.8424C90.8671 82.4853 96.6813 84.8088 101.831 84.8088C106.648 84.8088 110.968 82.8172 115.287 79.6638C118.443 82.3193 121.931 83.979 125.088 85.1407C126.749 85.6386 128.244 86.1365 129.739 86.4685C130.902 86.8004 132.065 86.9664 133.061 87.1323C133.061 86.9664 133.061 86.9664 133.061 86.8004C135.553 85.9706 138.211 85.3067 140.703 84.6428C139.042 84.8088 137.214 84.6428 135.387 84.6428C134.889 84.6428 134.224 84.4769 133.56 84.4769C132.895 84.6428 132.065 84.4769 131.234 84.3109C129.407 83.979 127.247 83.3151 125.088 82.4853C122.596 81.4895 119.938 80.1617 117.446 78.1701C116.948 77.8382 116.616 77.5063 116.117 77.1743C115.619 76.8424 115.287 76.3445 114.788 76.0126C112.296 73.5231 110.137 70.5357 108.31 66.5525C107.147 64.063 106.482 61.4075 105.984 58.918C105.486 55.2668 105.818 51.9474 107.147 49.126C107.977 47.1344 109.14 45.9727 109.805 45.3088C110.469 45.3088 111.134 45.3088 111.798 45.3088C113.459 45.3088 114.954 45.3088 116.449 45.4748C116.616 45.4748 116.782 45.4748 116.948 45.4748C118.111 45.4748 119.107 45.6407 119.938 45.6407C117.945 43.1512 114.954 39.6659 112.13 37.8403C112.296 37.1764 112.629 36.5126 112.961 35.6827C113.792 33.5252 114.954 31.5336 116.449 29.542C116.782 29.8739 117.114 30.0399 117.446 30.2059C117.778 30.3718 117.945 30.3718 118.277 30.3718H118.443C119.938 30.3718 120.602 29.2101 121.267 28.0483C121.267 27.8823 121.433 27.8823 121.433 27.7164C121.931 27.0525 122.098 26.5546 122.264 26.5546C122.596 26.7206 122.928 27.5504 123.26 28.0483C123.26 28.2143 123.426 28.3802 123.426 28.5462C123.925 29.8739 124.589 31.3676 126.084 31.5336H126.25H126.417C126.915 31.5336 127.413 31.3676 128.078 31.0357C130.403 33.3592 133.394 35.8487 137.214 38.5042C134.889 40.4958 132.397 43.3172 130.57 45.3088C131.4 45.3088 132.563 45.3088 134.058 45.1428C135.387 45.1428 137.048 44.9769 138.709 44.9769C140.205 44.9769 141.7 44.9769 143.029 45.1428C143.361 44.313 143.859 43.3172 144.025 42.3214C146.683 43.6491 149.507 44.8109 152.663 45.9727C157.149 51.4496 161.966 57.5903 164.956 62.2374C166.451 64.5609 168.279 66.5525 170.272 68.3781C168.445 71.8634 166.451 74.6848 164.126 77.0084C163.627 77.5063 162.963 78.1701 162.298 78.5021C161.8 78.834 161.302 79.3319 160.803 79.6638C160.139 79.9958 159.64 80.4937 158.976 80.8256C158.478 80.9916 158.145 81.3235 157.647 81.4895C158.976 81.3235 159.973 81.3235 160.637 81.4895C160.305 82.3193 159.308 83.3151 157.813 84.4769C159.308 83.813 160.803 82.9832 162.298 82.1533C162.631 82.4853 162.963 82.9832 163.295 83.3151C164.458 84.6428 165.787 85.9706 167.282 87.4643C167.78 87.9622 168.445 88.626 169.109 89.1239C169.441 89.4559 169.774 89.7878 170.272 90.1197C170.77 90.4517 171.103 90.9496 171.601 91.2815C171.767 91.4474 171.933 91.6134 172.099 91.7794C176.751 95.5966 182.565 99.7458 189.708 103.563C191.369 104.393 193.197 105.389 195.024 106.218C206.486 111.529 221.105 116.01 239.212 117.836C239.544 125.139 239.71 159.328 210.639 174.099C206.486 173.435 177.914 167.792 157.813 142.067C164.624 132.939 166.617 122.981 166.617 114.517C166.617 109.372 165.953 104.891 165.122 101.737C164.458 98.2521 163.793 96.2605 163.793 96.2605C163.461 95.4306 162.464 94.9327 161.634 95.2647C160.803 95.5966 160.305 96.5924 160.637 97.4222C160.803 97.7542 161.302 99.2479 161.8 101.405C163.627 108.874 166.119 124.973 155.82 139.08C151.667 133.271 147.846 126.632 145.022 118.832C144.524 117.67 144.191 116.508 143.693 115.347C142.198 111.031 141.035 106.384 140.038 101.405C139.706 99.7458 139.54 98.2521 139.208 96.5924C139.042 95.4306 138.876 94.4348 138.709 93.2731C136.716 93.1071 136.218 91.1155 136.052 90.6176C136.052 90.6176 135.885 88.626 134.39 88.626C134.058 88.626 133.892 88.626 133.726 88.792C133.892 90.9496 134.224 93.1071 134.39 95.2647C134.723 97.2563 135.055 99.4138 135.387 101.405C136.55 107.712 138.045 113.521 140.205 119.164C127.912 132.109 109.639 144.889 105.319 146.216C93.3589 136.424 80.2355 119.496 74.9197 112.193V109.538L84.2223 109.04L75.7503 104.725L78.7404 98.9159L71.2651 103.065L62.793 97.4222L65.7831 105.389L55.1515 110.7L66.1154 110.202L67.2782 120.492L70.7667 113.355L71.2651 113.687C71.4312 113.687 71.5973 113.853 71.7634 113.853C77.0792 120.989 90.5349 138.748 103.492 149.038C103.658 149.204 103.824 149.37 103.991 149.536C107.479 152.191 110.968 154.515 114.124 155.842L115.287 152.689C112.961 151.859 110.635 150.366 108.144 148.54C115.287 145.055 130.403 134.101 141.367 122.649C143.029 126.964 145.188 131.113 147.348 134.931C149.009 137.752 150.67 140.408 152.497 142.897C147.846 147.876 141.533 152.357 132.563 156.008C131.732 156.34 131.234 157.336 131.566 158.166C131.899 158.83 132.397 159.162 133.061 159.162C133.228 159.162 133.56 159.162 133.726 158.996C142.862 155.345 149.673 150.531 154.491 145.387C159.807 152.191 166.285 158 173.428 163.145C191.868 175.924 209.476 178.248 210.141 178.414L210.971 178.58L211.802 178.248C220.108 174.099 226.254 168.622 230.739 162.647C235.059 166.962 240.707 170.116 246.189 172.605C251.504 174.929 256.488 176.422 259.312 177.086C258.648 179.742 259.146 183.061 261.139 186.214C262.634 188.704 264.96 190.695 267.286 191.691C268.449 192.189 269.777 192.521 270.94 192.521C272.269 192.521 273.598 192.189 274.595 191.525C276.754 190.197 277.917 188.04 278.083 185.218C278.25 182.563 277.419 179.742 275.924 177.252C272.435 171.443 266.289 170.613 262.468 172.937C261.804 173.269 261.305 173.767 260.973 174.265C256.488 173.103 241.039 168.788 232.733 160.158C235.723 155.51 238.049 150.697 239.544 146.216C242.866 146.714 246.853 146.88 250.84 146.88C258.647 146.88 266.289 146.216 269.445 145.884C269.777 147.212 270.276 148.54 271.106 149.868C273.598 153.851 277.419 156.174 280.907 156.174C282.236 156.174 283.399 155.842 284.562 155.179C289.047 152.025 289.712 145.718 286.223 140.242ZM212.134 3.65123C218.613 2.15753 225.258 5.80879 232.068 14.439C233.397 16.2647 234.726 18.0903 235.889 19.75C225.59 25.5588 214.294 35.8487 203.994 46.6365C201.336 46.8025 198.678 46.6365 195.854 46.3046C202.499 43.8151 206.486 40.9937 206.818 40.8277L211.304 37.5084L205.822 37.8403C196.851 38.3382 191.203 36.5126 187.548 34.189C194.027 18.9201 202.499 5.97476 212.134 3.65123ZM150.338 7.13652C162.631 10.2899 170.438 18.0903 172.598 21.9075C168.445 23.7332 156.318 27.5504 132.895 23.4012C135.055 17.9243 136.384 11.7836 136.55 11.1197C136.55 10.4558 136.55 9.95795 136.218 9.46005C140.869 7.13652 145.686 5.97476 150.338 7.13652ZM112.795 40.1638C113.127 40.3298 113.293 40.4958 113.459 40.6617C113.625 40.6617 113.792 40.8277 113.792 40.9937C114.622 41.6575 115.453 42.6533 116.283 43.4832C116.616 43.8151 116.948 44.147 117.28 44.479C117.114 44.479 116.948 44.479 116.782 44.479C116.449 44.479 116.283 44.479 115.951 44.479C115.619 44.479 115.287 44.479 114.954 44.479H114.788C114.788 44.313 114.788 44.147 114.788 43.9811C114.788 43.1512 114.456 42.4874 113.958 42.1554H113.792C113.792 42.1554 113.625 42.1554 113.459 42.1554H113.293C113.127 42.1554 112.961 42.3214 112.795 42.4874C113.127 42.4874 113.293 42.8193 113.293 43.1512C113.293 43.4832 112.961 43.8151 112.629 43.8151C112.463 43.8151 112.296 43.6491 112.13 43.4832C112.13 43.4832 112.13 43.4832 112.13 43.6491C112.13 43.8151 111.964 44.147 111.964 44.313C111.964 44.479 111.964 44.479 111.964 44.6449C111.632 44.6449 111.134 44.6449 110.801 44.6449C110.469 44.6449 110.137 44.6449 109.639 44.6449C109.472 44.6449 109.14 44.6449 108.974 44.6449C108.144 42.8193 107.811 40.8277 109.306 39.6659C109.805 39.334 110.303 39.334 110.801 39.5C110.968 39.5 110.968 39.5 111.134 39.6659C111.3 39.6659 111.3 39.6659 111.466 39.8319C111.632 39.8319 111.798 39.9979 111.964 40.1638C112.463 39.9979 112.629 39.9979 112.795 40.1638ZM110.469 34.521C110.137 35.1848 109.971 35.8487 109.639 36.5126C108.974 36.3466 108.31 36.5126 107.811 36.8445C105.486 38.5042 106.15 41.4916 107.147 44.147C106.316 44.9769 105.486 46.3046 104.821 47.9643C103.326 51.2836 102.828 55.1008 103.492 59.4159C103.991 62.0714 104.821 64.8928 105.984 67.7143C107.811 71.8634 110.137 75.1827 112.795 77.8382C105.652 82.9832 99.5053 83.647 91.0332 78.3361C97.5119 80.1617 102.163 71.6974 101.167 68.5441L100.17 68.876C94.6879 70.5357 91.1994 70.0378 87.877 68.5441C96.5152 67.7143 101.167 62.4033 100.668 57.0924H100.502C97.0135 58.918 94.3556 59.5819 90.3688 57.9222C93.0267 57.5903 93.8573 56.5945 96.1829 55.2668C98.5086 53.939 100.502 49.292 100.17 45.4748C98.8408 46.9685 97.678 47.9643 95.5184 48.2962C93.3589 48.6281 90.5349 46.6365 90.0365 45.9727C92.6944 47.6323 100.834 43.3172 105.818 35.6827C110.801 28.2143 110.137 27.5504 114.788 26.5546C114.788 26.7206 114.954 26.8865 115.121 27.0525C112.961 29.542 111.466 32.0315 110.469 34.521ZM130.403 24.729C130.403 24.8949 130.237 25.0609 130.237 25.2269C130.071 25.3928 130.071 25.7248 129.905 25.8907C129.407 26.7206 128.908 27.5504 128.41 28.2143C128.244 28.3802 128.078 28.5462 127.912 28.7122C127.746 28.8781 127.579 29.0441 127.579 29.0441C127.247 29.376 126.915 29.542 126.583 29.542C126.417 29.542 126.417 29.542 126.25 29.542H126.084C125.918 29.542 125.586 29.0441 125.254 28.5462C125.254 28.3802 125.088 28.2143 125.088 28.0483C125.088 28.0483 125.088 27.8823 124.922 27.8823C124.755 27.5504 124.589 27.0525 124.423 26.7206C124.091 25.8907 123.593 25.2269 122.928 24.8949C122.762 24.8949 122.596 24.729 122.43 24.729H122.264H122.098C121.765 24.729 121.433 24.8949 121.101 25.0609C120.436 25.5588 119.938 26.3886 119.44 27.2185C119.44 27.2185 119.44 27.3844 119.273 27.3844C118.941 27.8823 118.443 28.5462 118.277 28.5462H118.111C117.945 28.3802 117.778 28.3802 117.446 28.0483C116.948 27.5504 116.283 26.7206 115.785 25.5588C115.453 24.8949 115.121 24.2311 114.954 23.2353C114.29 21.0777 113.792 18.0903 113.958 14.1071C113.958 11.6176 114.29 9.95795 114.456 8.79619C114.622 8.13232 114.954 7.46846 115.287 7.46846C115.619 7.46846 115.951 7.80039 116.283 7.96635C116.616 8.29829 116.948 8.46425 117.28 8.63022C117.612 8.63022 117.945 8.79619 118.111 8.96215C118.443 9.12812 118.609 9.12812 119.107 9.29409C119.606 9.29409 120.27 9.29409 121.101 9.12812C121.931 8.96215 122.43 8.79619 122.762 8.63022C123.26 8.46425 123.426 8.29829 123.759 8.46425C124.091 8.46425 124.589 8.63022 125.254 8.96215C125.918 9.29409 126.417 9.62602 126.915 9.79198C127.413 9.62602 127.912 9.95795 128.576 9.95795C128.576 9.95795 128.742 9.95795 128.908 9.95795C129.407 9.95795 129.905 9.95795 130.57 9.79198C131.899 9.46005 132.729 9.46005 133.56 9.46005C134.224 9.46005 134.723 9.79198 134.723 10.2899C134.723 10.4558 134.889 10.6218 134.723 10.9537C134.556 12.6134 133.061 18.4222 131.068 23.0693C130.902 23.5672 130.736 24.2311 130.403 24.729ZM141.367 44.147C141.201 44.147 141.035 44.147 140.703 44.147C140.537 44.147 140.371 44.147 140.371 44.147C140.371 43.9811 140.537 43.6491 140.537 43.4832C140.537 42.3214 139.872 41.4916 139.208 41.4916C138.876 41.4916 138.709 41.6575 138.543 41.8235C138.876 41.8235 139.042 42.1554 139.042 42.4874C139.042 42.8193 138.709 43.1512 138.377 43.1512C138.211 43.1512 138.045 42.9853 137.879 42.8193C137.879 42.9853 137.713 43.3172 137.713 43.6491C137.713 43.8151 137.713 44.147 137.713 44.313C136.384 44.313 135.055 44.313 133.726 44.479C133.56 44.479 133.394 44.479 133.228 44.479C134.723 42.8193 136.55 40.6617 138.377 39.6659C139.54 40.3298 140.537 40.9937 141.866 41.6575C142.032 42.3214 141.7 43.1512 141.367 44.147ZM167.78 60.4117C165.455 56.7605 161.8 52.2794 158.145 47.6323C158.145 47.6323 155.654 44.6449 154.491 42.9853C154.491 42.9853 154.491 42.9853 154.325 42.9853C152.165 42.3214 150.172 41.4916 148.344 40.6617C146.849 39.9979 145.52 39.334 144.357 38.6701C143.029 38.0063 141.7 37.1764 140.371 36.3466C136.716 34.0231 133.892 31.6995 131.566 29.708C134.723 30.2059 137.547 30.7038 140.371 31.0357C141.866 31.2017 143.361 31.3676 144.69 31.5336C147.514 31.8655 150.338 31.8655 152.83 31.8655C166.119 31.8655 173.594 28.8781 176.585 27.3844C178.578 29.2101 179.741 32.8613 183.063 35.8487C183.728 36.5126 184.558 37.1764 185.555 37.8403C185.555 37.8403 185.721 37.8403 185.721 38.0063C188.711 39.8319 192.864 41.1596 199.177 41.3256C196.685 42.4874 191.868 45.3088 188.213 45.6407C184.558 45.9727 180.405 45.1428 180.239 45.1428C180.405 45.3088 182.067 47.1344 188.047 48.6281C194.359 50.2878 196.187 49.9559 200.838 50.1218C202.499 50.1218 203.994 50.1218 205.489 49.9559C205.822 49.9559 206.154 49.9559 206.486 49.9559C204.825 52.4454 202.831 54.105 200.838 55.2668C198.678 56.4285 196.685 56.9264 194.692 57.0924C193.03 57.2584 191.535 57.0924 190.372 56.9264L182.399 54.271L188.711 59.5819C188.877 59.5819 189.874 60.2458 191.369 60.9096C192.366 61.4075 193.363 61.7395 194.692 62.2374C196.353 62.7353 198.014 63.0672 200.007 63.2332C197.183 64.229 194.692 64.3949 193.03 64.229C191.701 64.229 185.057 62.9012 185.057 62.9012C185.057 62.9012 187.216 66.2206 189.708 68.0462C192.2 69.8718 197.183 72.0294 197.183 72.0294C194.193 73.0252 191.037 73.3571 187.548 73.0252C187.05 73.0252 186.552 72.8592 186.053 72.8592C184.891 72.6933 183.728 72.3613 182.565 71.8634C180.239 71.0336 177.914 69.8718 175.92 68.5441C175.422 68.2122 174.757 67.7143 174.259 67.3823C174.093 67.2164 173.927 67.0504 173.761 67.0504L173.594 66.8844C173.428 66.7185 173.262 66.5525 173.096 66.5525C173.096 66.5525 173.096 66.5525 172.93 66.5525C172.764 66.3865 172.764 66.3865 172.598 66.2206L172.432 66.0546C172.266 65.8886 172.099 65.7227 171.933 65.5567C170.272 63.7311 168.943 62.0714 167.78 60.4117ZM168.777 80.6596C168.611 81.1575 168.611 81.6554 168.445 82.1533C167.946 81.6554 167.448 81.1575 167.116 80.6596C166.617 80.1617 166.119 79.6638 165.787 79.1659C167.614 77.5063 169.275 75.5147 170.77 73.1911C170.106 75.8466 169.441 78.3361 168.777 80.6596ZM171.767 85.3067C171.601 85.1407 171.435 84.9748 171.269 84.8088C171.435 83.813 171.767 82.6512 172.099 81.4895C172.764 78.668 173.594 75.3487 174.591 71.6974C176.252 72.8592 178.08 73.689 179.907 74.5189C176.585 78.668 173.927 82.1533 171.933 84.8088C171.933 84.9748 171.933 85.1407 171.767 85.3067ZM174.259 87.4643C176.252 84.6428 179.409 80.4937 183.395 75.5147C184.558 75.8466 185.721 76.0126 186.884 76.1785C188.047 76.3445 189.044 76.3445 190.206 76.3445C195.854 76.3445 201.004 74.5189 204.659 71.0336L208.978 67.0504L203.164 68.0462C199.011 68.876 195.688 68.5441 192.864 67.2164C197.682 67.2164 204.327 66.2206 207.815 60.7437L211.968 54.6029L205.655 58.4201C203.164 59.9138 200.007 59.7479 197.017 59.084C202.001 58.0882 207.649 55.2668 210.971 47.9643L212.466 44.8109L209.144 45.6407C218.447 36.0147 228.414 27.2185 237.384 22.2395C238.381 21.7416 239.378 21.0777 240.374 20.7458C245.524 18.2563 250.342 17.0945 254.328 17.9243C260.143 19.0861 264.296 24.8949 266.455 34.8529C269.445 48.7941 266.953 61.0756 259.312 71.3655C244.693 91.2815 214.294 99.2479 197.516 102.069C187.382 97.5882 179.741 92.2773 174.259 87.4643ZM264.628 175.26C265.458 174.763 266.289 174.597 267.286 174.597C269.445 174.597 271.937 175.758 273.598 178.58C274.761 180.571 275.426 182.729 275.259 184.721C275.093 186.38 274.429 187.708 273.266 188.538C272.103 189.202 270.608 189.202 269.113 188.538C267.286 187.874 265.624 186.214 264.462 184.389C261.97 180.405 262.136 176.92 264.628 175.26ZM283.233 151.859C280.741 153.353 276.588 151.527 274.429 147.71C272.103 143.893 272.269 140.408 274.761 138.914C277.253 137.42 281.24 138.25 283.565 142.233C285.725 145.718 285.725 150.366 283.233 151.859Z" fill="#1EB9D8"/>
<path d="M160.637 81.3237C160.305 82.1535 159.308 83.1493 157.813 84.3111C152.996 86.4687 147.846 86.9665 142.862 87.6304C141.533 87.7964 140.038 87.9623 138.709 87.9623H138.543C137.048 87.7964 135.387 87.6304 133.892 87.6304C133.892 87.6304 133.892 87.6304 133.726 87.6304C133.56 87.6304 133.228 87.6304 133.061 87.4645C133.061 87.2985 133.061 87.2985 133.061 87.1325C135.553 86.3027 138.211 85.6388 140.703 84.975C141.201 84.975 141.866 84.809 142.364 84.809C147.514 84.1451 152.83 83.6472 157.647 81.3237C158.976 81.1577 159.973 81.1577 160.637 81.3237Z" fill="#1EB9D8"/>
<path d="M119.274 59.0842C120.436 60.412 121.765 61.2418 123.094 61.7397L126.084 62.9015L123.759 60.7439C121.433 58.5863 120.104 56.4288 119.606 54.1052C119.44 53.4414 119.44 53.1094 119.606 52.7775C119.772 52.6115 119.938 52.4456 120.436 52.4456C121.599 52.2796 122.928 52.4456 124.423 52.6116L127.746 53.1094L124.755 51.4498C124.589 51.2838 124.423 51.2838 124.091 51.1179C124.755 50.454 125.088 49.6242 125.42 48.7943C125.752 47.3006 125.752 45.8069 125.42 43.9813L125.088 43.4834L123.925 43.6494V44.1473C123.925 44.8111 123.925 45.475 123.759 46.1389C123.593 46.9687 123.427 47.4666 123.26 47.9645C123.094 48.2964 122.928 48.6284 122.596 48.9603C122.43 49.1263 122.264 49.2922 122.264 49.4582C122.098 49.7901 121.765 49.9561 121.433 50.288C120.935 50.288 120.602 50.1221 120.104 50.1221C119.606 50.1221 118.111 50.288 117.28 51.6158C116.616 52.7775 116.948 53.9393 117.114 54.6031C117.446 56.4288 118.277 57.9225 119.274 59.0842Z" fill="#1EB9D8"/>
<path d="M142.862 69.3743C143.859 68.7105 144.856 68.0466 145.686 67.3827C145.853 67.8806 146.019 68.3786 146.185 68.7105C146.351 69.2084 146.517 69.8722 146.849 70.3701C147.181 69.2084 147.015 67.8807 146.517 66.7189C146.185 66.221 146.019 65.5571 145.52 65.0592C145.188 64.5613 144.69 64.0634 144.191 63.8975C144.69 64.8933 145.022 65.8891 145.52 66.8849C144.357 67.3828 143.361 67.8806 142.364 68.2126C141.035 68.7105 139.872 69.2084 138.543 69.5403C136.051 70.3701 133.56 71.2 130.902 71.5319C128.244 71.8638 125.586 71.6979 122.928 71.034C120.27 70.5361 117.612 69.5403 115.287 68.2126L115.12 68.3786C117.446 70.0382 119.938 71.2 122.596 72.0298C125.254 72.8596 128.078 73.1916 131.068 73.1916C133.726 72.8596 136.882 72.0298 138.543 71.3659C140.038 71.034 141.7 70.2042 142.862 69.3743Z" fill="#1EB9D8"/>
<path d="M144.524 107.712V108.044C144.524 108.044 144.191 113.686 148.843 123.146C148.843 123.146 149.839 118.002 152.497 119.495C152.331 119.495 145.022 100.907 144.524 107.712Z" fill="#1EB9D8"/>
</g>
<defs>
<clipPath id="clip0">
<rect width="354" height="316" fill="white"/>
</clipPath>
</defs>
</svg>
