<svg width="54" height="54" viewBox="0 0 54 54" fill="none" xmlns="http://www.w3.org/2000/svg">
<path d="M27.7 54H26.2C21.3 54 17.4 50.1 17.4 45.2V36.6H8.8C3.9 36.6 0 32.7 0 27.8V26.3C0 21.4 3.9 17.5 8.8 17.5H17.4V8.8C17.4 3.9 21.3 0 26.2 0H27.7C32.6 0 36.5 3.9 36.5 8.8V17.4H45.1C50 17.4 53.9 21.3 53.9 26.2V27.7C53.9 32.6 50 36.5 45.1 36.5H36.5V45.1C36.5 50 32.6 54 27.7 54ZM8.8 19.4C5 19.4 2 22.5 2 26.2V27.7C2 31.5 5.1 34.5 8.8 34.5H19.4V45.1C19.4 48.9 22.5 51.9 26.2 51.9H27.7C31.5 51.9 34.5 48.8 34.5 45.1V34.5H45.1C48.9 34.5 51.9 31.4 51.9 27.7V26.2C51.9 22.4 48.8 19.4 45.1 19.4H34.5V8.8C34.5 5 31.4 2 27.7 2H26.2C22.4 2 19.4 5.1 19.4 8.8V19.4H8.8Z" fill="white"/>
</svg>
