<svg width="46" height="49" viewBox="0 0 46 49" fill="none" xmlns="http://www.w3.org/2000/svg">
<g clip-path="url(#clip0)">
<path d="M27.3299 7.31004C27.1099 7.10004 26.7999 7.00005 26.4999 7.05005C26.1999 7.09005 25.9299 7.27004 25.7799 7.54004C24.3499 10.01 21.6999 11.54 18.8599 11.54C17.9899 11.54 17.1299 11.4 16.2999 11.12C15.7799 10.94 15.2099 11.22 15.0299 11.74C14.8499 12.26 15.1299 12.83 15.6499 13.01C16.6899 13.36 17.7599 13.54 18.8499 13.54C21.9999 13.54 24.9699 12.03 26.8499 9.53004C27.6099 10.1 28.4499 10.56 29.3399 10.9C29.8599 11.09 30.4299 10.83 30.6299 10.32C30.8199 9.80004 30.5599 9.23004 30.0499 9.03004C29.0299 8.64004 28.1199 8.07004 27.3299 7.31004Z" fill="white"/>
<path d="M18.0099 29.16C19.7199 30.49 21.5599 31.2 23.3299 31.2C25.1899 31.2 27.1099 30.43 28.8999 28.98C28.9699 28.94 29.0399 28.89 29.1099 28.83C29.1399 28.8 29.1699 28.77 29.2099 28.75C30.9699 27.45 32.2699 25.59 32.8699 23.51H32.8499C32.8999 23.38 32.9499 23.23 32.9999 23.05C34.0299 22.96 34.9799 22.34 35.4499 21.36C35.5799 21.09 35.7099 20.66 35.9099 20.01C36.0299 19.59 36.1899 19 36.2499 18.66C36.3699 18.04 36.5299 17.16 36.5599 16.49C36.5799 16.31 36.5699 16.14 36.5599 16.03C36.5599 15.99 36.5599 15.96 36.5499 15.92C36.3999 14.51 35.3099 13.42 33.9099 13.25C33.3599 13.19 32.8599 13.58 32.7999 14.13C32.7399 14.68 33.1299 15.17 33.6799 15.24C34.1499 15.29 34.5099 15.66 34.5599 16.1C34.5599 16.14 34.5599 16.17 34.5699 16.21C34.5699 16.24 34.5699 16.28 34.5699 16.4C34.5399 16.81 34.4399 17.48 34.2799 18.3C34.2299 18.56 34.1099 19.02 33.9899 19.45C33.9099 19.71 33.7199 20.33 33.6299 20.52C33.4299 20.94 32.9599 21.16 32.4999 21.04C31.9699 20.9 31.4299 21.22 31.2899 21.74C31.1299 22.3 31.0199 22.73 30.9699 22.88C30.9599 22.91 30.9499 22.94 30.9399 22.97C30.4599 24.63 29.4199 26.11 28.0199 27.15C27.9799 27.18 27.9399 27.21 27.8999 27.24C27.8499 27.27 27.8099 27.3 27.7599 27.34C26.2999 28.57 24.7699 29.21 23.3299 29.21C21.9499 29.21 20.4799 28.61 19.0799 27.48C19.0399 27.45 18.9899 27.43 18.9399 27.41C18.8399 27.32 18.7499 27.23 18.6399 27.15C17.2399 26.12 16.1899 24.63 15.7099 22.98L15.3699 21.74C15.2299 21.22 14.6999 20.91 14.1799 21.03C13.6599 21.15 13.2199 20.92 13.0399 20.53C12.8599 20.13 12.4799 18.8 12.3799 18.27C12.2199 17.47 12.1199 16.8 12.0999 16.39C12.0999 16.36 12.0999 16.23 12.0899 16.2C12.0899 16.18 12.0899 16.12 12.0999 16.07C12.1599 15.64 12.4999 15.31 12.9299 15.24C13.0799 15.23 13.2299 15.2 13.3599 15.13C13.8499 14.88 14.0499 14.28 13.7899 13.78C13.6099 13.43 13.2799 13.23 12.8699 13.24C12.8199 13.24 12.7799 13.24 12.7399 13.25C11.3399 13.41 10.2599 14.5 10.0999 15.89C10.0999 15.92 10.0999 15.98 10.0899 16.04C10.0799 16.18 10.0799 16.32 10.0899 16.39C10.0899 16.41 10.0899 16.48 10.0899 16.5C10.1299 17.14 10.2799 18.02 10.4099 18.65C10.5299 19.27 10.9499 20.76 11.2199 21.37C11.6699 22.32 12.6099 22.96 13.6499 23.05L13.7799 23.52C14.1099 24.63 14.6399 25.68 15.3199 26.62C10.7499 25.53 6.82986 23.54 4.33986 20.98C6.66986 19.2 9.20986 16.11 11.3299 12.47C11.9399 11.41 12.4399 10.28 12.9299 9.18003C14.0099 6.73003 15.0299 4.42002 17.1799 3.02002C18.7699 1.98002 21.5599 1.77002 22.9799 2.28002C23.1999 2.36002 23.4399 2.36002 23.6499 2.28002C25.0799 1.77002 27.8599 1.98002 29.4499 3.02002C31.5899 4.42002 32.6099 6.73003 33.6999 9.18003C34.1899 10.28 34.6899 11.41 35.2999 12.47C37.4199 16.11 39.9599 19.2 42.2899 20.98C40.6699 22.65 38.4299 24.1 35.7499 25.21C35.2399 25.42 34.9999 26.01 35.2099 26.52C35.4199 27.03 36.0099 27.27 36.5199 27.06C39.9199 25.65 42.6999 23.7 44.5599 21.44C44.7399 21.22 44.8199 20.93 44.7699 20.64C44.7199 20.35 44.5599 20.11 44.3099 19.95C41.9999 18.52 39.2799 15.35 37.0299 11.46C36.4699 10.5 36.0099 9.46002 35.5299 8.36002C34.3799 5.75002 33.1899 3.06002 30.5499 1.33002C28.4399 -0.0499754 25.2699 -0.269975 23.3199 0.280025C21.3699 -0.269975 18.1899 -0.0399754 16.0899 1.33002C13.4499 3.05002 12.2599 5.75002 11.1099 8.36002C10.6299 9.46002 10.1699 10.49 9.60986 11.45C7.34986 15.34 4.62986 18.51 2.31986 19.94C2.06986 20.09 1.90986 20.34 1.85986 20.63C1.80986 20.91 1.88986 21.21 2.06986 21.43C5.30986 25.36 11.1099 28.17 18.0099 29.16Z" fill="white"/>
<path d="M15.3299 31.1C15.1999 30.79 14.9199 30.57 14.5899 30.51C14.2599 30.45 13.9199 30.56 13.6899 30.8L10.2899 34.32C10.2499 34.36 10.2399 34.41 10.2099 34.45L5.65989 36.78C4.19989 37.5 2.16989 39.04 1.15989 40.74C0.289889 42.16 -0.0501114 45.55 -0.000111375 47.05C0.0198886 47.59 0.459889 48.02 0.999889 48.02C1.00989 48.02 1.01989 48.02 1.02989 48.02C1.57989 48 2.00989 47.54 1.99989 46.99C1.94989 45.43 2.34989 42.62 2.85989 41.78C3.61989 40.5 5.31989 39.18 6.53989 38.58L9.99989 36.79V47.01C9.99989 47.56 10.4499 48.01 10.9999 48.01C11.5499 48.01 11.9999 47.56 11.9999 47.01V35.45C12.0099 35.43 12.0099 35.42 12.0099 35.4L14.0699 33.27L20.0799 47.4C20.2399 47.78 20.6099 48.01 20.9999 48.01C21.1299 48.01 21.2599 47.98 21.3899 47.93C21.8999 47.71 22.1399 47.13 21.9199 46.62L15.3299 31.1Z" fill="white"/>
<path d="M44.8498 40.74C43.8298 39.04 41.8098 37.5 40.3598 36.79L35.5498 34.32L32.3298 30.81C32.0998 30.56 31.7598 30.44 31.4198 30.5C31.0798 30.56 30.7998 30.78 30.6698 31.09L29.5998 33.61C29.3798 34.12 29.6198 34.71 30.1298 34.92C30.6398 35.14 31.2298 34.9 31.4398 34.39L31.9098 33.29L34.1998 35.79C34.2798 35.88 34.3698 35.95 34.4798 36L39.4698 38.56C40.6798 39.16 42.3798 40.48 43.1398 41.75C43.6398 42.59 44.0498 45.4 43.9998 46.96C43.9798 47.51 44.4098 47.97 44.9598 47.99C44.9698 47.99 44.9798 47.99 44.9998 47.99C45.5398 47.99 45.9798 47.56 45.9998 47.02C46.0398 45.55 45.7098 42.16 44.8498 40.74Z" fill="white"/>
<path d="M34 38.01H30V37.01C30 36.46 29.55 36.01 29 36.01C28.45 36.01 28 36.46 28 37.01V38.01H24C23.45 38.01 23 38.46 23 39.01V47.01C23 47.56 23.45 48.01 24 48.01H34C34.55 48.01 35 47.56 35 47.01V39.01C35 38.46 34.55 38.01 34 38.01ZM33 46.01H25V40.01H28C28 40.56 28.45 41.01 29 41.01C29.55 41.01 30 40.56 30 40.01H33V46.01Z" fill="white"/>
</g>
<defs>
<clipPath id="clip0">
<rect width="46" height="48.01" fill="white"/>
</clipPath>
</defs>
</svg>
