<svg width="80" height="51" viewBox="0 0 80 51" fill="none" xmlns="http://www.w3.org/2000/svg">
<g clip-path="url(#clip0)">
<path d="M32.941 20.7749C33.8038 20.7749 34.9802 20.3844 36.2351 19.1348L40.5489 14.9954C42.7449 17.5727 48.8626 17.4946 50.2744 17.4165C52.3136 18.4319 54.2744 18.9005 55.9998 18.9005C57.0979 18.9005 58.1175 18.7443 59.0587 18.3538C62.1959 17.1822 63.6861 14.3706 63.9998 13.6677L69.8822 7.96631L68.7842 6.87289L63.3724 12.1057L62.1175 10.9341L61.0195 12.0276L62.3528 13.4334C61.8822 14.2925 60.7057 16.1669 58.4312 17.026C56.2351 17.807 53.6469 17.4946 50.7449 16.0888L50.5881 16.0107H50.3528C48.7057 16.0888 44.4704 16.0107 42.4312 14.683C42.0391 14.4487 41.8038 14.2144 41.5685 13.902L46.3528 13.5896L50.9802 13.2772L50.9018 11.7152L41.0979 12.4181C40.7057 12.4962 40.3136 12.7305 40.0783 13.121C39.9998 13.2772 39.9214 13.4334 39.9214 13.6677L35.2155 18.1975C34.3528 18.9786 33.1763 19.7596 32.0783 19.1348L32.6273 18.5881L32.7842 18.7443L33.8822 17.6508L33.7253 17.3384L42.2744 9.05972C42.7449 8.59112 43.4508 8.27871 44.0783 8.27871L53.9606 7.88821C55.3724 7.81011 56.7057 7.2634 57.8038 6.24809L63.1371 1.09341L61.9606 0L56.6273 5.15467C55.843 5.85758 54.9018 6.32619 53.8822 6.32619L43.9998 6.71669C42.9018 6.79479 41.9606 7.1853 41.1763 7.96631L30.7449 18.0413C30.5096 18.2757 30.3528 18.6662 30.3528 18.9786C30.3528 19.3691 30.5096 19.6815 30.8234 19.9158C31.0587 20.2282 31.843 20.7749 32.941 20.7749Z" fill="white"/>
<path d="M78.196 27.9602L74.1176 25.7734C73.1764 25.3048 72.0784 25.2267 71.1372 25.6953C70.196 26.1639 69.4901 26.9449 69.2548 27.9602L68.7842 29.6784C66.5097 30.928 64.1568 34.4426 62.5882 37.1761C60.7843 32.6463 58.1176 29.6003 54.5882 28.1945C49.098 26.0077 43.3725 28.3507 42.2744 28.8193C32.3921 28.4288 26.5097 19.8377 26.196 19.3691C26.2744 18.8224 26.2744 18.3538 26.2744 17.8071C26.2744 10.8561 20.7843 5.23279 14.0392 5.23279C7.29405 5.31089 1.88229 10.9342 1.88229 17.8852C1.88229 24.8362 7.29405 30.4594 14.0392 30.4594C14.0392 31.631 14.196 32.9587 14.5882 34.5207L16.6274 40.8469H4.07837C1.88229 40.8469 0.0783691 42.6432 0.0783691 44.83C0.0783691 47.0169 1.88229 48.8132 4.07837 48.8132H22.6666C24.0784 48.8132 25.4117 48.1884 26.3529 47.1731C26.9803 46.3921 27.4509 45.5329 27.5293 44.5176C28.3921 45.3767 29.647 46.4702 31.2941 47.3293C33.0195 48.2665 35.4509 49.0475 38.5097 49.0475C41.098 49.0475 44.1568 48.5008 47.6078 46.9388C51.6078 49.7504 56.8627 50.6876 61.1764 51C61.3333 51 61.5686 51 61.7254 51C64.8627 51 67.6862 49.2037 69.098 46.3921L74.4313 35.4579L77.8823 34.1302C78.8235 33.7397 79.6078 32.9587 79.9215 32.0215C80.3137 30.4594 79.6078 28.7412 78.196 27.9602ZM14.1176 28.8974C8.1568 28.8974 3.45092 23.977 3.45092 17.8852C3.45092 11.7933 8.23523 6.87291 14.0392 6.87291C19.9215 6.87291 24.7058 11.7933 24.7058 17.8852C24.7058 19.4472 24.3921 20.9311 23.8431 22.2588C21.4117 21.2435 18.4313 21.9464 16.3921 24.0551C15.3725 25.0705 14.4313 26.5544 14.1176 28.8974ZM78.3529 31.5529C78.196 32.0996 77.8039 32.4901 77.2548 32.7244L73.2548 34.2864L67.6078 45.7672C66.4313 48.1884 63.9215 49.6723 61.2548 49.438C56.4705 49.1256 47.9999 47.7198 44.4705 41.3936L43.1372 42.1746C43.9215 43.6585 45.0195 44.9081 46.196 45.9234C33.8823 51 28.1568 43.1899 27.3725 41.9403L26.2744 33.2711L25.4901 33.3492L24.7058 33.4273L25.9607 43.5023C26.1176 44.4395 25.8039 45.3767 25.1764 46.0797C24.549 46.7826 23.6078 47.1731 22.6666 47.1731H3.99994C2.6666 47.1731 1.56857 46.0797 1.56857 44.7519C1.56857 43.4242 2.6666 42.3308 3.99994 42.3308H18.6666L15.9999 33.974C15.6862 32.6463 15.5293 31.3966 15.5293 30.2251C15.5293 29.6784 15.6078 29.1317 15.6862 28.6631C15.9215 27.2573 16.549 26.0077 17.4901 25.0705C19.0588 23.4303 21.2548 22.8836 23.0588 23.5865C23.4509 23.7427 23.8431 23.977 24.2352 24.2113C24.3137 24.2894 24.3921 24.2894 24.3921 24.3676C25.098 24.9924 25.647 25.7734 25.9607 26.7887L26.6666 26.5544L27.3725 26.3201C26.9019 24.9143 26.1176 23.8208 25.098 23.0398C25.3333 22.5712 25.4901 22.0245 25.647 21.5559C27.8431 24.2114 33.5686 30.147 42.3529 30.4594H42.5097L42.6666 30.3813C42.745 30.3813 48.4705 27.5697 53.8823 29.6784C56.9411 30.928 59.8431 34.755 61.5686 38.9725C61.3333 39.363 61.1764 39.7535 61.0195 39.9878L54.5097 36.9418L53.8823 38.2695L61.8039 42.0184L62.1176 41.3155C63.2941 38.8162 66.9803 32.0996 69.7254 30.928L70.1176 30.7718L70.6666 28.4288C70.8235 27.8821 71.2156 27.4135 71.6862 27.1792C72.2352 26.9449 72.7842 26.9449 73.3333 27.2573L77.4117 29.4441C78.196 29.7565 78.5882 30.6937 78.3529 31.5529Z" fill="white"/>
</g>
<defs>
<clipPath id="clip0">
<rect width="80" height="51" fill="white"/>
</clipPath>
</defs>
</svg>
