<svg width="1834" height="804" fill="none" xmlns="http://www.w3.org/2000/svg"><path d="M1579.02 518.875c-12.98 9.785-25.73 20.942-39.91 28.863-1.97 1.113-4.16-1.579-2.55-3.21 11.95-11.416 26.49-20.398 39.83-30.053 2.55-1.916 5.11 2.459 2.55 4.4h.08z" fill="#69DFF6"/><path d="M1540.82 322.923c-19.25-3.39-40.38-11.798-54.19-26.001a2.33 2.33 0 01-.63-1.477c-.02-.551.14-1.094.48-1.533.33-.438.81-.742 1.35-.859a2.33 2.33 0 011.59.221c17.47 9.65 33.54 19.559 52.41 26.441.21.066.4.173.57.315.17.141.31.315.41.511.21.395.25.857.11 1.282-.13.425-.43.78-.82.986-.4.207-.86.247-1.28.114zm-43.57 140.067c4.11 10.265-9.58 21.113-17.07 10.924-7.49-10.19 6-20.481 15.42-13.772.48.341 0 1.114-.48.784-8.07-5.063-20.16 3.152-13.67 12.064 6.77 9.265 17.67-1.266 15.59-9.937 0-.032.01-.064.03-.09a.156.156 0 01.08-.051.135.135 0 01.09.01c.03.015.06.038.07.068h-.06z" fill="#BD95E5"/><path d="M1543.93 181.973c-8.88 15.796-34.33 12.657-33.93-7.497-.01-1.921.36-3.825 1.09-5.599a14.283 14.283 0 013.14-4.733 14.034 14.034 0 014.7-3.121 13.928 13.928 0 015.52-1.02c6.95 0 14.73 5.447 14.3 13.176a1.71 1.71 0 01-.45 1.029 1.647 1.647 0 01-2.07.284c-.32-.2-.57-.508-.7-.872-3.88-10.582-20.04-9.726-20.04 2.776 0 16.289 20.19 15.9 27.6 5.058a.379.379 0 01.13-.144.48.48 0 01.36-.092c.07.01.13.033.18.067.06.034.11.079.14.132a.58.58 0 01.09.177.637.637 0 01-.06.379z" fill="#FFE187"/><path d="M1758.04 531.744c-29.5-6.657-36.63-48.842-4.22-57.814a24.353 24.353 0 019.47-.944c3.18.311 6.27 1.249 9.06 2.757a23.662 23.662 0 017.24 6.025 23.213 23.213 0 014.27 8.347c3.32 11.1-1.67 26.148-14.24 29.146-.63.137-1.28.058-1.86-.224a2.754 2.754 0 01-1.29-1.33 2.78 2.78 0 01-.15-1.842 2.83 2.83 0 011.06-1.536c15.07-11.257 5.98-36.68-14.01-30.709-26.04 7.78-15.77 39.873 5.1 46.53.1.026.2.073.29.138a.83.83 0 01.21.239c.06.093.09.196.11.303.01.107.01.216-.02.321a.815.815 0 01-.15.289.694.694 0 01-.24.215.815.815 0 01-.31.106.795.795 0 01-.32-.017z" fill="#FFB41F"/><path d="M1430.8 340.906c-10.28 20.977-14.12 42.621-18 65.368-.46 2.769-4.63 1.949-4.73-.641-.97-23.747 8.1-46.161 20.57-66.01.17-.289.45-.498.77-.583.33-.084.68-.035.97.135.28.17.5.448.58.772.08.325.04.67-.14.959h-.02z" fill="#FFE187"/><path d="M1752.75 563.145c-16.12 2.024-32.74 5.352-48.98 5.162-2.26-.014-2.82-3.443-.61-4.056 16.05-3.947 33.13-4.499 49.5-6.233 3.17-.389 3.21 4.677.03 5.088l.06.039zm64.44-188.959c-15.01-12.523-29.15-30.337-34.06-49.528a2.375 2.375 0 01.2-1.593 2.316 2.316 0 012.77-1.165c.53.167.98.515 1.27.982 10.34 17.066 19.35 33.664 32.29 49.023.15.162.26.352.34.559.07.207.11.428.1.648-.02.445-.22.866-.54 1.168-.33.303-.76.463-1.21.445a1.663 1.663 0 01-1.16-.539z" fill="#BD95E5"/><path d="M1790.24-4.132c-9.51 17.076-24.38 34.287-42.33 42.674a2.327 2.327 0 01-2.89-.844 2.27 2.27 0 01-.37-1.56c.07-.546.32-1.051.73-1.425 14.84-13.341 29.47-25.282 42.16-40.847.13-.177.29-.326.48-.44a1.686 1.686 0 011.87.095c.36.265.6.662.66 1.102.07.44-.05.888-.31 1.245z" fill="#69DFF6"/><path d="M1756.33 158.818c-3.09 21.901-37.63 27.087-40.48 1.953-2.85-25.135 30.8-29.547 40.46-8.531.48 1.066-1.11 1.932-1.61.888-8.95-16.819-38.11-14.612-35.73 7.307 2.53 22.815 31.91 15.401 36.94-1.712a.28.28 0 01.48-.024c.04.054.05.119.05.183l-.11-.064z" fill="#BD95E5"/><path d="M1712.82 335.006c-19.37 13.072-33.46 29.936-48.16 47.73-1.78 2.172-4.98-.614-3.78-2.911 10.98-21.081 30.01-36.001 50.7-47.006a1.272 1.272 0 011.73.474c.17.292.21.638.12.961-.08.324-.3.599-.59.765l-.02-.013zm72.84 439.785c-12.98-19.431-29.77-33.617-47.48-48.402-2.16-1.792.64-4.981 2.93-3.768 21.02 11.086 35.84 30.193 46.74 50.947a1.288 1.288 0 01-.48 1.726c-.3.165-.64.207-.97.117-.32-.09-.59-.305-.76-.598l.02-.022zM1468.04 669.2c-9.5-11.489-19.43-22.694-27.8-35.064-.93-1.371 1.09-2.846 2.2-1.759 10.46 10.351 19.53 22.047 28.96 33.382 1.97 2.354-1.39 5.822-3.36 3.441zm161.7-29.83a6.855 6.855 0 012.87 3.497 6.585 6.585 0 010 4.465c-.2.782-.55 1.519-1.04 2.169a6.408 6.408 0 01-1.83 1.616c-.71.417-1.5.693-2.33.814-.82.121-1.66.083-2.47-.112-5.69-1.713-7.09-10.254-.85-12.063.59-.141 1.2-.095 1.76.131.55.225 1.02.618 1.33 1.12.3.501.43 1.085.37 1.664a2.703 2.703 0 01-.74 1.548c-.7.604.43-.217-.17.386 0 0 0 .459.12.362.7-.603-1.57-.337-1.59-.362-.45.145-.5.145-.2 0l.4-.193s.25-.169 0 0 0 .483 0 .507a3.402 3.402 0 01-.97-2.236 3.42 3.42 0 01.75-2.313 3.667 3.667 0 012.13-1.292 3.749 3.749 0 012.48.34l-.02-.048z" fill="#FFE187"/><path d="M254.956 269.047c12.979-9.785 25.727-20.942 39.907-28.863 1.967-1.113 4.164 1.579 2.555 3.21-11.957 11.415-26.494 20.398-39.83 30.053-2.555 1.916-5.11-2.459-2.555-4.4h-.077zm38.199 195.952c19.25 3.389 40.385 11.797 54.19 26.001a2.333 2.333 0 01.151 3.009 2.32 2.32 0 01-2.938.638c-17.47-9.649-33.546-19.558-52.409-26.44a1.664 1.664 0 01-.984-.826 1.682 1.682 0 011.99-2.382zm43.574-140.067c-4.112-10.265 9.575-21.113 17.068-10.924 7.492 10.19-6.002 20.481-15.423 13.772-.475-.342 0-1.114.476-.785 8.071 5.064 20.164-3.151 13.674-12.063-6.773-9.265-17.671 1.266-15.589 9.937a.142.142 0 01-.108.141.141.141 0 01-.095-.011.137.137 0 01-.067-.067h.064z" fill="#BD95E5"/><path d="M290.046 605.949c8.883-15.796 34.332-12.657 33.924 7.497a14.621 14.621 0 01-1.082 5.599 14.42 14.42 0 01-3.139 4.733 14.138 14.138 0 01-4.701 3.121 13.976 13.976 0 01-5.526 1.02c-6.943 0-14.728-5.447-14.294-13.177.028-.385.186-.748.447-1.029.261-.28.609-.462.985-.513.377-.052.759.029 1.084.23.325.2.572.508.7.871 3.88 10.583 20.038 9.727 20.038-2.775 0-16.289-20.191-15.9-27.594-5.058a.493.493 0 01-.496.235.483.483 0 01-.322-.198.5.5 0 01-.09-.372.508.508 0 01.066-.184zM75.936 256.178c29.496 6.657 36.633 48.842 4.218 57.814a24.337 24.337 0 01-9.47.944 24.044 24.044 0 01-9.064-2.757 23.602 23.602 0 01-7.236-6.025 23.315 23.315 0 01-4.27-8.347c-3.315-11.1 1.675-26.148 14.24-29.146a2.838 2.838 0 011.858.224 2.737 2.737 0 011.442 3.172 2.807 2.807 0 01-1.06 1.536c-15.065 11.257-5.98 36.68 14.007 30.709 26.042-7.78 15.777-39.873-5.092-46.53a.83.83 0 01-.507-.377.812.812 0 01.058-.913.833.833 0 01.552-.321.827.827 0 01.324.017z" fill="#FFE187"/><path d="M403.175 447.016c10.284-20.977 14.115-42.621 17.997-65.368.463-2.77 4.628-1.949 4.731.641.977 23.747-8.099 46.161-20.568 66.01a1.266 1.266 0 01-2.185-1.283h.025z" fill="#FFB41F"/><path d="M81.221 224.777c16.128-2.024 32.739-5.352 48.979-5.162 2.261.014 2.826 3.443.618 4.056-16.053 3.947-33.132 4.499-49.505 6.233-3.17.389-3.207-4.677-.025-5.089l-.067-.038zM16.789 413.735c15.007 12.524 29.15 30.338 34.051 49.529a2.33 2.33 0 01-2.968 2.758 2.32 2.32 0 01-1.265-.982c-10.346-17.067-19.355-33.664-32.288-49.024a1.676 1.676 0 01-.442-1.206 1.685 1.685 0 011.746-1.613c.445.017.864.211 1.166.538zm26.947 378.319c9.512-17.076 24.383-34.287 42.326-42.674a2.336 2.336 0 012.893.844 2.322 2.322 0 01-.36 2.985c-14.843 13.341-29.474 25.282-42.158 40.847a1.672 1.672 0 01-1.104.659 1.686 1.686 0 01-1.91-1.416c-.065-.44.047-.888.313-1.245z" fill="#BD95E5"/><path d="M77.647 629.104c3.09-21.901 37.631-27.088 40.481-1.953 2.849 25.135-30.804 29.547-40.463 8.531-.485-1.067 1.109-1.932 1.606-.888 8.957 16.819 38.113 14.612 35.73-7.307-2.522-22.815-31.911-15.401-36.934 1.712a.277.277 0 01-.329.136.286.286 0 01-.202-.295l.111.064z" fill="#62D9F2"/><path d="M121.157 452.916c19.363-13.072 33.461-29.936 48.153-47.73 1.78-2.172 4.984.614 3.783 2.911-10.975 21.081-30.005 36-50.701 47.006a1.267 1.267 0 01-1.729-.474 1.261 1.261 0 01.472-1.726l.022.013zM48.32 13.131c12.97 19.43 29.76 33.617 47.477 48.402 2.162 1.792-.64 4.98-2.931 3.768-21.023-11.086-35.843-30.194-46.74-50.947a1.268 1.268 0 012.206-1.245l-.013.022z" fill="#FFE187"/><path d="M365.935 118.722c9.502 11.489 19.434 22.694 27.8 35.064.935 1.371-1.087 2.846-2.199 1.759-10.463-10.351-19.536-22.047-28.963-33.382-1.971-2.355 1.39-5.822 3.362-3.441z" fill="#63D9F3"/><path d="M204.239 148.552a6.825 6.825 0 01-2.873-3.497 6.561 6.561 0 010-4.465 6.02 6.02 0 011.043-2.169 6.231 6.231 0 011.825-1.616 6.516 6.516 0 014.8-.702c5.694 1.713 7.093 10.253.849 12.063a2.887 2.887 0 01-1.757-.131 2.767 2.767 0 01-1.328-1.12 2.627 2.627 0 01.363-3.213c.699-.603-.425.218.175-.386 0 0 0-.458-.125-.362-.7.604 1.573.338 1.598.362.45-.144.5-.144.2 0l-.4.193s-.249.169 0 0c.25-.168 0-.482 0-.506.588.611.931 1.403.971 2.236a3.442 3.442 0 01-.757 2.313 3.661 3.661 0 01-2.124 1.292 3.76 3.76 0 01-2.485-.34l.025.048z" fill="#FFE187"/></svg>