<svg width="354" height="316" fill="none" xmlns="http://www.w3.org/2000/svg"><g clip-path="url(#clip0)" fill="#1EB9D8"><path d="M38.373 267.703l.333-1.328c.166-.663.166-.829.166-1.161-.166-.664-.665-1.162-1.33-1.494-.664-.332-1.328-.664-2.159-.83-.83-.166-1.495-.332-2.325-.498-.665-.166-1.33-.166-1.662-.332-.498-.166-1.329-.166-2.657 0l-3.489.498c-.498 0-.997.166-1.495.166l1.495-.83a9.514 9.514 0 001.827-1.825c.499-.664.997-1.328 1.33-1.992.332-.664.664-1.328.83-1.826.166-.663.166-1.161.166-1.493-.332-.996-1.163-1.494-2.658-1.826-1.163-.166-2.658-.166-4.319 0a27.695 27.695 0 00-4.817.996c-1.33.332-2.492.664-3.323.996l-.166-.166a2.002 2.002 0 00-.83-.83v-.332l-.333.166c-.664.332-.997.664-1.163 1.162-.166.332-.166.83-.166 1.327 0 .332 0 .664.166 1.162v.83c0 .166-.166.332-.166.664 0 .166-.166.332-.166.498v.332c0 .166-.166.498-.664.996-.333.497-.665.995-.997 1.327l-.498.996 1.993-.166.166-.166 1.661-1.66c.499-.497.831-.995 1.163-1.493.498-.664 1.33-1.328 2.16-1.826.996-.498 1.993-.996 2.99-1.66.664-.165 1.329-.165 1.993-.331.83 0 1.495-.166 2.16 0 .664 0 1.329.166 1.661.331.332.166.498.332.498.332s0 .166-.166.498a8.1 8.1 0 00-.498 1.162c-.166.498-.498.83-.83 1.328-.333.498-.831.83-1.164.996-.664.332-1.328.663-1.993 1.161l-1.993.996c-.665.332-1.33.664-1.828.83-.498.166-.83.332-1.163.498l-.166.166c-.166.166-.332.332-.332.664v.498c.166.663.83.498 1.994.332l3.156-.332c1.163-.166 2.325-.166 3.488-.332 1.33-.166 1.828-.166 2.16 0 .332 0 .83.166 1.329.332l1.495.498c.498.165.83.497 1.163.663.332.166.498.498.498.664v.664c0 .332-.166.83-.166 1.328-.166.498-.166.83-.332 1.328-.166.331-.332.663-.332.829-.665.83-.997 1.494-1.33 1.826-.332.332-.498.664-.83.83-.332.166-.665.498-.997.83-.498.332-1.163.664-1.993 1.327-.332.332-.83.498-1.33.664-.664.166-1.162.332-1.993.498-.498.166-1.162.166-1.827.166-.664 0-1.329-.166-1.993-.166-.665-.166-1.163-.332-1.495-.498a2.056 2.056 0 01-.499-.332c0-.166 0-.332.166-.663.333-.332.831-.83 1.495-1.162.665-.332 1.33-.664 2.16-.996.83-.332 1.661-.498 2.492-.664 0 0 .332 0 .664-.166h.166c.333.166.499.166.665.332.166 0 .332.166.498.166h1.495c.665-.166 1.163-.332 1.828-.498 1.162-.498 1.162-1.162.996-1.494-.166-.498-.498-1.161-1.827-1.327-.83-.166-1.661-.166-2.824.166-2.326.498-4.153.995-5.648 1.659-1.495.498-2.658 1.162-3.489 1.826-.996.664-1.66 1.494-2.325 2.323-.499.83-1.163 1.826-1.661 2.988l-.167.332.167.166v.332c.166.332.498.83 1.495.83h.332c.498 0 .83 0 1.329.165.664 0 1.495.166 2.492.166.996 0 1.993.166 3.156.166h.166c.997 0 1.993 0 2.99-.166 1.163-.166 1.994-.331 2.492-.663 1.163-.498 2.326-.996 3.488-1.66 1.33-.83 2.492-1.66 3.655-2.49 1.163-.995 2.326-1.825 3.322-2.821a22.512 22.512 0 002.16-2.489c0-.166.166-.332.332-.83 0-1.328.166-1.66.333-2.158z"/><path d="M81.066 234.842l.83-.498-1.328-.995h-.332c-.831.166-1.496.498-2.326.829l-2.492.996c-.83.332-1.661.664-2.326.996-.83.332-1.495.498-2.325.664a5.55 5.55 0 01-2.824.166c-.997-.166-1.994-.332-2.99-.332h-.333l-.332.166c-.166 0-.166.166-.332.332s-.332.332-.332.664c0 .166.166.664.996.995l.831.166c.332 0 .664.166.83.332h.167c-.333.83-.83 1.992-1.163 3.32-.498 1.327-.997 2.821-1.495 4.149-.499 1.494-.997 2.821-1.495 4.149-.499 1.328-.997 2.49-1.33 3.319-.165.498-.498.996-.664 1.494 0 .166-.166.332-.332.498-.166-.166-.332-.166-.664-.498l-.167-.166c-.664-.498-1.328-1.162-2.16-1.826l-2.99-2.489c-1.162-.83-2.159-1.66-2.99-2.49l-2.325-1.991c-.332-.332-.665-.498-.665-.664l.665-1.494v-1.493l-.83.166c-.333 0-.499.332-.831.497-.166.166-.333.332-.499.664-.166.166-.332.498-.498.664-.166.166-.332.332-.498.332-.665.332-1.33.498-1.828.83l-1.993.664-.166.166s-.166.166-.166.332-.166.332-.166.664v.332l.996.331 3.156-.829s.167.166.499.332c.498.332.997.829 1.661 1.493.665.498 1.329 1.162 1.994 1.992.664.664 1.329 1.494 1.993 2.157.664.664 1.163 1.162 1.495 1.66.665.664.665.83.83.83.167.166.499.332.997.664.499.332.997.664 1.33 1.162.498.332.83.829 1.328 1.161.499.498.499.664.499.664s0 .166-.166.83c-.167.498-.333 1.162-.499 1.826-.166.664-.498 1.493-.664 2.157-.333.83-.499 1.494-.831 2.158-.166.664-.498 1.328-.664 1.825-.166.498-.333.996-.499 1.328-.332.83-.498 1.494-.83 2.324-.333.664-.665 1.327-1.163 1.991-.166.166-.499.498-.83.498-.333.166-.997.332-1.828.332h-5.98c-.166 0-.499-.166-.665-.166h-.166c-.166 0-.332-.166-.498-.166-.166 0-.166-.166-.166-.166l-.167-.166-.166-.166c-.166-.166-.166-.332-.332-.498 0-.166-.166-.332-.166-.332-.166-.166-.166-.332-.332-.332 0-.165-.166-.165-.166-.165s0-.166-.167-.332v-.332c.167-.166.499-.332.831-.498.332-.166.83-.332 1.163-.498.498-.166.997-.498 1.163-.996.166-.166.166-.498.166-.664 0-.166 0-.332-.166-.664l.332-.332c.83-.497.83-1.161.664-1.493-.166-.332-.332-.664-.664-.996-.332-.332-.83-.332-1.495-.166-.166 0-.166 0-.332.166-.166 0-.333.166-.499.166-.996.83-1.827 1.494-2.492 2.157-.664.664-1.495 1.494-2.16 2.324 0 0-.165.166-.165.332l-.166.332v.332l.664-.166-.664.166c0 .332.332.83.664 1.493.332.664.665 1.328 1.163 1.992.498.664.83 1.328 1.329 1.826.498.664.83.995 1.163 1.161.166.166.664.166 1.993.332h6.147c.996 0 1.827 0 2.325-.166.83-.166 1.495-.332 1.994-.663.498-.332.996-.83 1.329-1.328.332-.498.664-.996.83-1.494.166-.498.499-.83.665-1.328.83-1.493 1.661-3.153 2.658-4.979.83-1.825 1.827-3.651 2.824-5.642.996-1.992 1.827-3.984 2.824-5.975.996-1.992 1.993-3.983 2.824-5.975.996-1.992 1.993-3.983 2.99-5.809.997-1.825 1.993-3.651 2.99-5.311.332-.498.665-.996.997-1.659.332-.498.83-.996 1.329-1.328.498-.332 1.163-.83 1.827-1.162 1.329-.166 2.16-.664 2.99-1.162zm-13.788 4.481l-.166.166h-.166l.332-.166z"/><path d="M104.987 247.787c-.996-.663-2.159-.995-3.488-.995h-3.323c-.166 0-.664.166-1.163.331-.498.166-1.162.332-1.827.498l-1.993.498c-.665.166-1.163.332-1.495.332-.83.166-1.495 0-1.994-.166-.332-.332-.664-.498-.83-.664l-.166-3.153c0-.83-.167-1.66-.167-2.655 0-.996-.166-1.826 0-2.822 0 0 0-.166.499-.498.498-.332.996-.664 1.661-.996.665-.331 1.329-.663 2.16-.829l.332-.166a20.934 20.934 0 001.661-.498c.83-.332 1.495-.332 2.16-.332h.996s.166 0 .665.332c.332.166.664.498.996.83.333.332.665.829.997 1.327.332.498.498.996.498 1.494l.167.83 2.491-.996-.166-.498c-.996-2.489-1.661-3.817-2.658-6.307l-.166-.497-.498.165c-3.987.83-5.814 1.328-9.801 2.158-.83.166-1.661.332-2.658.664l-2.99.664c-.997.332-1.994.498-2.99.664-.997.166-1.828.498-2.658.664h-.166l-.499.497c-.332.332-.332.332-.332.498l-.166.498.83.664h1.33c.332 0 .83 0 1.162-.166.333 0 .665 0 .83.166 0 .166.167.498.167.664l.498 1.992c.166.497.166.995.333 1.327.166.332.166.664.166.996l2.16 14.771.498 4.979c.166 1.162 0 1.66-.166 1.66-.167.166-.499.332-.997.498-.332 0-.499 0-.665.166-.166 0-.332.166-.664.166-.166 0-.499.166-.997.166l-2.824.497 1.33 1.66h.331c2.326-.166 3.489-.332 5.648-.498 2.824-.166 4.32-.166 7.143-.166 1.163 0 2.326 0 3.323-.166.997-.166 1.827-.332 2.658-.498.83-.166 1.495-.498 2.325-.663.167-.166.499-.166.831-.332.498-.166.997-.332 1.329-.498.332-.166.664-.664.997-1.162.166-.166.332-.332.498-.664.498-.664.997-1.328 1.495-2.158.499-.829.831-1.659 1.163-2.489.332-.83.498-1.826.332-2.655-.166-2.49-.498-4.482-1.329-5.643-.83-1.826-1.661-2.822-2.824-3.486zm-2.99 11.12c0 .332-.166.83-.664 1.66-.499.664-.997 1.493-1.828 1.991-.664.664-1.495 1.162-2.325 1.66-.997.498-1.495.664-1.994.664h-.997c-.498 0-.83-.166-1.328-.166-.333-.166-.831-.166-1.163-.332-.166 0-.166-.166-.166-.166 0-.332-.166-.83-.166-1.494s-.167-1.493-.167-2.489l-.166-3.319c0-.664-.166-1.328 0-1.826.166-.83.665-1.494.997-1.826.498-.498 1.329-.996 2.492-1.327.332-.166.664-.166.83-.498.333-.166.499-.332.83-.498.167-.166.5-.332.665-.498.166-.166.333-.166.665-.166.332-.166.664 0 .664 0 .333.166.499.498.665.664.166.166.332.498.498 1.161.166.498.332.83.332 1.328.333 1.162.665 2.158 1.163 3.154.665.829.997 1.825 1.163 2.323zm47.842-21.244c-.83-1.161-1.661-1.825-2.657-2.489-.997-.498-2.16-.83-3.489-.996-1.329-.166-2.824-.332-4.319-.332h-.332v-.996c0-.663.166-1.327.166-2.157 0-.83.166-1.66.166-2.656l.332-2.489c0-.83.166-1.494.166-1.992 0-.332.166-.664 0-.498l.333-.332c.332-.166.498-.497.83-.829l.831-.83.498-.498.166-.166v-1.494l-.664.166c-.665.166-1.329.332-1.994.83-.664.332-1.163.83-1.827 1.162-.664.332-1.163.83-1.827 1.162-.499.331-.997.497-1.495.663-.499.166-1.163 0-1.828 0-.664-.166-1.495-.166-2.159-.332h-.166l-1.163.83v.332c0 .166.166.498.664.83.166 0 .333.166.499.166l.498.166c.166 1.826.166 3.485.166 5.311s0 3.651.166 5.311c-1.993 1.162-3.987 2.157-5.814 3.319-1.827.996-3.488 2.324-5.15 3.651-.166-.497-.332-1.327-.498-2.157a94.715 94.715 0 01-.498-2.822l-.499-3.153c-.166-.996-.332-1.826-.332-2.655 0-.498-.166-.996-.166-1.328v-.332c0-.664-.166-1.162-.332-1.494-.166-.664-.831-.996-1.495-.996-.333 0-.831.166-1.329.332l-1.828.332c-.664.166-1.162.332-1.827.332-.498.166-.997.166-1.329.166l-.664.332-.333.498v.332c0 .664.831.664 1.329.664h2.824c.166.664.333 1.66.499 2.821.166 1.328.332 2.988.498 4.813.166 1.826.332 3.818.498 5.809.167 1.992.333 4.149.499 6.141.166 1.991.166 3.983.332 5.809.166 1.825.166 3.319.166 4.647 0 .664 0 1.327-.166 1.825 0 .498-.166.996-.332 1.494l-.166.166-.665.498a2.292 2.292 0 00-.664.498c-.333.332-.499.83-.499.996v.664l1.662-.166.166-.166c.498-.332 1.163-.664 1.993-.996.831-.332 1.495-.332 2.326-.332h.332c.166 0 .498 0 .664.166.333 0 .499.166.665.166h.498c.499 0 .831.166 1.163.166h1.827v-1.494l-.332-.166c-.664-.498-1.163-.664-1.661-.996 0-.332-.166-.664-.166-.996l-.166-1.659c-.166-1.162-.166-2.49-.332-3.817-.167-1.328-.333-2.656-.333-3.818-.166-1.161-.166-2.323-.332-3.153-.166-.83-.332-1.328-.332-1.494 0-.166.166-.664.664-1.493.499-.664 1.163-1.328 1.828-2.158.664-.664 1.495-1.494 2.325-2.158.831-.663 1.495-1.327 1.994-1.825.498-.498 1.163-.996 1.993-1.162.665-.166 1.329-.332 1.827-.498v1.162l1.828 24.065s-.166 0-.166.166l-.665.332c-.332.166-.498.332-.664.498-.499.332-.499.83-.499.996v.166l.665.664h.332c.498-.166.997-.332 1.661-.498.499-.166.997-.332 1.495-.332.333 0 .831 0 1.329.166.499.166.997.166 1.495.332.499.166.997.332 1.329.497.499.166.831.332 1.329.498l.499.166.664-1.659-.498-.332c-.665-.332-1.163-.664-1.828-.83-.498-.166-.83-.332-.996-.498-.333-.166-.665-.332-.831-.664-.166-.166-.332-.664-.332-1.328v-6.14c0-1.328 0-2.49.166-3.984 0-1.327.166-2.655.166-3.983.166-3.983.166-6.14.332-10.124.166-.664.333-.83.333-.83.332-.165.664-.165 1.162-.165 1.662-.166 3.157 0 4.32.331 1.162.332 2.325 1.328 3.322 2.822.166.332.498.664.664.996 0 .166.167.332.167.664 0 .331 0 .497-.167.663-.166.332-.498.498-.83.83-.332.332-.665.498-1.163.83-.332.332-.664.498-.997.664l-2.824.498c-.498.166-.664.166-.83.332-.333.166-.333.664-.333.996 0 .166 0 .166.167.332v.165l.332.498c.166.166.332.332.332.498l.332.498c.166.166.166.332.332.332.333.498.831.664 1.329.664v-.664l.333.664c.166 0 .332 0 .664-.332.166-.166.499-.166.665-.332.332-.166.498-.166.664-.332.166-.166.332-.166.498-.166a8.061 8.061 0 001.163-.498c.333-.166.831-.498.997-.83.498-.663.831-1.161.997-1.493.332-.332.498-.664.664-.996.166-.332.499-.664.665-1.162.166-.332.332-.996.664-1.825v-.498c-.997-.996-1.661-2.49-2.326-3.486zm26.413-5.476s-.166-.166-.332-.498c0-.166-.166-.166-.166-.166v-.166c-.166-.498-.166-1.162-.332-1.992l-.499-2.987c-.166-1.162-.498-2.324-.83-3.319-.332-1.162-.665-2.324-1.163-3.154-.498-.995-.997-1.825-1.827-2.323-.831-.664-1.662-.83-2.658-.83-.831.166-1.495.332-1.994.498-.498.166-.83.498-1.329.83-.332.332-.664.664-.996 1.161l-1.163 1.162c-.997.83-2.16 1.992-3.156 3.32-1.163 1.327-2.16 2.655-2.991 4.149-.83 1.493-1.661 2.987-2.159 4.315-.499 1.328-.499 2.821-.665 3.817v.166c0 .332-.166.83-.166 1.328-.166.498-.166.996-.332 1.493-.166 1.328-.498 2.656-.664 4.316-.167 1.493-.333 3.153-.333 4.979 0 1.659 0 3.319.166 4.813.167 1.493.499 2.987.997 4.149.499 1.327 1.329 2.323 2.326 2.987h.166c.831.332 1.661.664 2.658.83a9.412 9.412 0 002.99.498c1.329 0 2.492-.166 3.821-.332 1.329-.332 2.492-.664 3.488-1.328.997-.664 1.994-1.328 2.824-2.157.831-.83 1.495-1.992 1.994-3.154.166-.166.166-.498.332-.83.166-.332.166-.663.332-1.161.166-.332.166-.664.332-.996.167-.498.167-.664.167-.664 0-.332.166-.996.332-1.826l.498-3.153c.166-1.162.332-2.489.498-3.817.167-1.328.167-2.656.333-3.983v-3.486c0-.996-.166-1.825-.499-2.489zm-13.455-1.992c-.166-.332-.333-.498-.333-.996 0-.166 0-.497.333-1.161.332-.498.664-1.162 1.163-1.66.498-.498.996-1.162 1.495-1.66.498-.498.996-.83 1.329-.995h.166c.332 0 .664 0 .996.331.333.332.665.83.997 1.494.332.664.498 1.162.831 1.826.166.664.498 1.328.664 1.659.499.996.665 1.992.665 2.988s.166 2.157.166 3.319c0 2.49-.166 5.145-.332 7.635-.333 2.489-.831 4.979-1.329 7.634-.167.664-.499 1.494-.665 2.158l-.997 1.991a5.717 5.717 0 01-1.993 1.992c-.831.498-1.827.664-2.99.83-.997 0-1.994-.166-2.99-.664-.831-.332-1.495-.996-1.828-1.992 0-.664 0-1.494.166-2.655.167-1.162.333-2.49.665-3.818.332-1.327.498-2.655.831-3.817.332-1.327.498-2.157.664-2.987.498-1.494.997-3.153 1.495-4.813.665-1.66.997-3.485.831-5.145.332-.498.166-1.162 0-1.494zm51.995-17.095c-4.983 1.494-7.475 2.323-12.459 3.817-.997.166-1.163.332-1.329.498l-.332.332-.166.166c-.332.664-.831 1.826-1.495 3.817a260.931 260.931 0 00-2.326 6.639c-.831 2.489-1.827 5.311-2.824 8.132-.997 2.822-1.827 5.477-2.658 7.967-.83 2.489-1.661 4.647-2.326 6.638-.166.664-.498 1.162-.664 1.66a433.806 433.806 0 01-.498-5.975c-.333-3.153-.499-6.473-.665-9.792-.166-3.485-.332-6.805-.498-10.124-.166-3.319-.166-6.307 0-8.796l.166-.166c.332-.166.664-.498.997-.664.498-.332.83-.498 1.329-.664l.996-.498.333-.166v-1.825l-.831.332c-.332.166-.831.332-.997.498-.332.166-.498.166-.83.331-.333.166-.665.166-.997.332-.332.166-.997.166-1.495.166l-.997.166h-1.827c-.332 0-.997-.166-1.661-.166h-.333l-.664.83v.166c0 .332.166.664.664.83.167.166.499.166.831.332.332.166.498.166.664.332.167 1.825.167 3.983.333 6.141 0 2.323.166 4.647.166 7.136l.166 7.469c0 2.489 0 4.813.166 6.97v11.452c0 .498 0 1.162-.166 1.66-.166.663-.166 1.161-.332 1.659-.166.332-.166.498-.166.498-.333.166-.499.166-.831.166-.332 0-.831.166-1.163.166h-.498l-.166 1.826h.664c.665 0 1.329.166 1.827.332.499.166 1.163.332 1.828.664.83.331 1.163.497 1.993.829h.166l1.662-.332v-.497c0-.332.166-.664.332-1.162.166-.498.166-.664.166-.664l.166-.166c.332-.664.831-1.66 1.495-3.153.665-1.494 1.329-3.154 2.16-5.145.83-1.992 1.661-4.15 2.658-6.473.83-2.324 1.827-4.647 2.657-6.971.831-2.323 1.828-4.647 2.658-6.804.831-2.158 1.662-4.149 2.326-5.975.664-1.66 1.329-3.153 1.827-4.149v-.166c0 .332 0 .83.166 1.328.167 1.659.333 3.817.499 6.306.166 2.49.332 5.311.498 8.299.166 2.987.332 5.974.332 8.796.167 2.821.167 5.477.333 7.8 0 .996.166 1.992.166 2.822 0 .995.166 1.825.166 2.323v.332l-.498.332c-.333.332-.665.664-.997.83-.499.332-.665.498-.831.498-.498.332-.997.664-1.495.83-.498.332-.997.663-1.329 1.161l-.332.332.332.332a.914.914 0 00.831.498h1.163c.664-.166 1.162-.498 1.661-.664.498-.166.997-.498 1.329-.664.498-.166.83-.332 1.329-.498.498-.165.996-.165 1.661 0h5.316l.498-.165.166-.166c.166-.166.332-.332.332-.83v-.166l-.166-.166c-.166-.166-.332-.332-.498-.332h-.166c-.332 0-.665-.166-1.329-.332-.665-.166-1.163-.332-1.329-.332-.498-.166-.665-.166-.665-.166-.166 0-.166-.166-.332-.332 0-.166-.166-.498-.166-.664 0-.166 0-.332-.166-.498 0-.166-.166-.498-.166-.664-.166-1.659 0-3.817.166-5.974 0-1.162.166-2.324.166-3.652.166-3.651.332-7.468.498-11.285l.499-11.452v-3.983c0-2.49 0-4.647.332-5.809 0-.166.332-.498 1.661-1.328.665-.498 1.495-.83 2.16-1.161.332-.166.498-.498.498-.664 0-.166 0-.498-.166-.664-.332-.664-.831-.83-1.329-.664zm-22.094-.664c.665.332 1.828.498 3.655.498h.166c1.329 0 2.658-.166 3.987-.498 1.329-.331 2.658-.829 3.654-1.659 1.163-.83 1.994-1.826 2.658-2.988.166-.498.166-1.161-.166-1.493-.664-1.162-.996-1.826-1.661-3.154l-.166-.166c-.166 0-.166-.166-.498-.332a1.273 1.273 0 00-.831-.332l-.498.166c-.167 0-.333.166-.665.332s-.498.332-.83.498c-.333.166-.499.332-.831.498l-.831.498v.332c0 .498 0 .996.333 1.494l1.162.83c.333.166.665.331.831.497v.166c0 .166 0 .166-.166.332a2.578 2.578 0 01-.997 1.328c-.498.332-.997.664-1.495.83-.498.166-1.163.332-1.661.332-.665 0-1.163-.166-1.827-.332-.831-.166-1.163-.664-1.329-1.162-.166-.664 0-1.494.332-2.323l.498-.996-.83-.996-2.492-.332-.997.498-.332 1.328c-.332 1.161-.498 2.323-.498 3.319.498 1.162 1.162 2.49 2.325 2.987zm82.229 35.517c.166-1.162.332-2.489.332-3.817.167-1.494.167-2.987.333-4.481v-4.481c0-1.328-.166-2.656-.499-3.817-.332-1.162-.664-1.992-1.329-2.49-.664-.664-1.495-1.328-2.159-1.826-.831-.663-1.661-1.327-2.658-1.991-.997-.664-1.827-1.162-2.658-1.826-.831-.498-1.661-.996-2.16-1.328h-.166l-.332-.165c-.166 0-.498-.166-.664-.332-.166 0-.499-.166-.665-.166v-2.822c0-.498.166-.83.499-1.162.332-.331.83-.663 1.328-.995.499-.332.831-.498 1.329-.664.499-.166.997-.332.997-.83 0-.498 0-.83-.332-1.162-.166-.166-.498-.332-.997-.498-1.163 0-2.159.166-3.322.498a7.533 7.533 0 01-2.658.498h-.665c-.332 0-.664 0-.996-.166l-.997-.166c-.332 0-.498 0-.664-.166-2.326-.664-3.489-.996-5.815-1.494h-.166c-.332 0-.498.166-.664.332l-.332.332v.498c0 .664.166 1.328.83 1.66.498.332.997.498 1.495.83.499.166.997.498 1.495.664.332.166.499.332.665.663 0 .166.166.664.166 1.66 0 .83-.166 1.66-.166 2.158a.912.912 0 01-.499.83c-.332.331-.664.497-1.162.663-.499.166-.997.332-1.662.498-.664.166-1.162.332-1.661.664-1.827.996-3.322 2.158-4.485 3.651-1.163 1.328-2.16 2.988-2.99 4.647-.831 1.66-1.495 3.486-2.16 5.311-.498 1.826-1.163 3.652-1.827 5.311-.166.664-.498 1.162-.831 1.66-.332.664-.498 1.328-.664 2.158-.166 1.327.332 2.655 1.163 4.315a24.617 24.617 0 003.156 4.481c1.329 1.493 2.658 2.821 3.987 3.817 1.495 1.162 2.658 1.992 3.654 2.158.167 0 .499.166.997.331l1.329.332c.498.166.997.166 1.329.332.332 0 .498.166.665.166v5.477c-.167.996-.333 1.66-.831 2.158-.498.498-.997.83-1.495.996-.498.166-1.163.331-1.495.331-.332 0-1.329.166-1.329.83v.664c0 .332.332.664.83.83.831.166 1.662.332 2.658.498.997.166 1.994.332 2.824.664 1.662.498 3.489 1.162 5.316 1.825.166 0 .332.166.499.166.166 0 .332.166.332.166l.166.166c.166.166.332.166.498.166.166 0 .333.166.499.166l.498.166.997-1.825-.333-.332c-1.827-1.494-2.824-2.158-4.817-3.652-.166-.166-.332-.332-.498-.663-.166-.498-.166-.664-.166-.664l.83-7.635s.166 0 .332-.166l1.495-.498c.665-.166 1.163-.332 1.828-.498.664-.165 1.163-.331 1.495-.497 1.661-.996 3.488-1.992 5.316-3.154 1.827-1.162 3.654-2.157 5.315-3.485l1.662-1.494.83-4.979zm-13.455-21.243c0-.498 0-.996.166-1.328.166 0 .498.166.664.166.997.996 1.661 1.659 2.492 2.323.664.664 1.329 1.162 1.661 1.826.332.664.665 1.328.831 1.992.166.829.166 1.825 0 3.153-.166.83-.166 1.991-.333 3.817-.166 1.66-.332 3.319-.664 5.145a281.011 281.011 0 01-.997 5.145c-.332 1.494-.83 2.655-1.329 3.319 0 .166-.332.332-1.162 1.162-.665.664-1.329 1.328-2.16 1.992-.831.664-1.495 1.327-2.326 1.825-.332.332-.664.498-.83.498v-1.493c0-.664.166-1.328.166-2.158l.166-1.992c0-.498.166-1.493.332-2.655.166-1.328.332-2.656.499-4.149.166-1.494.332-2.988.664-4.315.332-1.328.332-2.49.498-3.154l.499-2.821c.166-1.162.332-2.158.498-3.319l.498-3.486c.167-.498.167-.996.167-1.493zm-8.639 24.729v1.493c0 1.328 0 2.656-.332 3.651 0 0-.166.166-.332.166h-.997c-.166 0-.498-.166-1.163-.663-.498-.498-.996-.996-1.495-1.66l-1.495-1.992c-.166-.332-.664-1.161-.83-1.493-.167-.498-.167-.996-.333-1.494l-.166-.996-.498-2.987c-.166-.996-.332-1.992-.332-2.988-.166-.995-.166-1.825 0-2.655.166-.996.332-2.324.83-3.817.499-1.494.997-3.154 1.828-4.481.83-1.494 1.827-2.656 2.824-3.818.996-.995 2.159-1.493 3.654-1.327v.497c-.166 3.154-.166 6.473-.166 9.793 0 3.485-.166 6.638-.332 9.792l-.665 4.979zm54.487-19.584c.333-1.992.665-3.983.831-5.975.166-.83.332-1.825.498-2.655.167-1.162.499-2.324.499-3.32.166-.829-.332-1.493-1.163-1.659l-.997-.166c-3.322-.332-6.811-.498-10.299-.664-3.323 0-6.811-.166-10.133-.498h-.499v.498c-.166.83.332 1.328.665 1.494l.996.497c.333.166.499.332.665.664.166.166.166.664.166.83-.166.83-.332 1.826-.498 2.656-.166.829-.499 1.825-.665 2.655a93.394 93.394 0 00-1.495 7.137l-.332 1.493c-.499 2.49-.997 4.813-1.495 6.971l-2.16 10.124c-.332 1.826-.83 3.817-1.329 5.975a434.627 434.627 0 00-1.495 6.638c-.498 2.158-.996 4.481-1.495 6.473 0 0-.166 0-.332.166-.332 0-.665.166-1.163.166h-1.163c-.332 0-.996.166-1.163.664v.996l.499.166c1.661.332 3.322.497 5.149.995 1.828.332 3.655.83 5.482 1.162 1.828.332 3.655.83 5.482 1.162.665.166 1.329.332 1.828.498 1.162.332 2.325.664 3.156.664h.166c.332 0 .664 0 .997-.166.332 0 .83-.166 1.163-.166.996 0 1.993-.166 2.99-.332.996-.166 1.993-.498 2.824-.996.996-.498 1.495-1.162 1.661-2.158.166-.663.166-1.493.166-2.489 0-.996 0-1.992-.166-3.153-.166-.996-.166-2.158-.332-2.988-.166-.996-.333-1.825-.499-2.323-.332-1.162-.664-2.158-1.329-2.988-.498-.664-1.329-1.659-2.159-2.821l-.831-.83c-.332-.166-.664-.498-.996-.664-.333-.332-.665-.498-.997-.664-.332-.166-.499-.332-.665-.332l-.166-.166-.83-.166-3.323 1.328c-.332.166-.664.498-.996.664-.333.332-.665.83-.665 1.328 0 .332 0 .664-.166.996 0 .331 0 .829.166 1.161 0 .332.166.83.332 1.162.333.664.665.83.997.83.498.166.997 0 1.329-.166.332-.166.664-.332 1.163-.498l.996-.498c.167-.166.499-.166.665 0 .332 0 .831.332 1.329.664.498.498.997.996 1.495 1.66.498.664.831 1.327.997 2.157.166.664.332 1.328.166 1.992-.166.83-.332 1.659-.831 2.489-.332.83-.83 1.66-1.329 2.324-.498.664-1.163 1.328-1.661 1.659-.498.332-.997.498-1.495.498l-.997-.498c-.996-.497-1.661-.829-2.491-1.161-.665-.332-1.496-.664-2.16-.996l-1.993-.996c-.333-.166-.665-.332-.997-.332-.332-.166-.997-.332-1.163-.498-.332-.664.332-4.813.997-7.966.332-1.992.83-4.149.996-5.975.167-1.494.333-3.319.499-4.979.166-3.485.498-6.97 1.329-8.796.166 0 .332 0 .664-.166.332 0 .665-.166 1.163-.166l.831-.166c.664-.166 1.495-.166 2.491-.332h.167s.332 0 .498.498c.166.498.332.996.498 1.66.166.664.166 1.327.332 2.157 0 .83.167 1.494.333 1.992l.166.498h1.495v-.664c0-.498 0-1.162.166-1.992l.332-2.323c.166-.664.166-1.494.333-1.992l.166-1.494c.166-.663.332-1.161.498-1.659.332-.664.498-1.328.664-1.992l.167-.498c0-.332 0-.664-.167-.83l-.332-.331h-.332c-.166 0-.498 0-.664.165-.167.166-.333.166-.333.332h-.166l-1.661 3.652h-6.479c0-.332.166-.83.166-1.328.167-.83.333-1.826.499-2.821.166-.996.332-1.826.498-2.822.166-.83.332-1.494.332-1.992l.665-4.647c.166-.995.332-1.991.498-2.821.166-.498.166-.83.166-1.162h5.316l3.323.166c.83 0 1.495 0 1.993.166.498.498.997.83 1.163.996l.332.332v2.987c0 .664 0 1.162.166 1.494 0 .166.166.498 0 1.162l.166 3.983.166.332 1.495.83v-1.162zM354 221.73c-.166-.497-.665-.829-1.163-.663-5.316.829-7.974 1.161-13.123 2.157-.997 0-1.329.166-1.495.332-.167.166-.333.166-.333.332l-.166.166c-.498.664-1.329 2.324-2.326 4.647-.996 2.324-2.491 5.311-3.82 8.63-1.495 3.32-2.99 6.805-4.652 10.456l-4.651 10.456c-1.495 3.319-2.658 6.141-3.821 8.464l-.996 1.992c.332-2.49.498-5.311.996-8.464.499-4.481 1.163-9.129 1.662-13.776.664-4.813 1.328-9.46 1.993-14.107.664-4.647 1.495-8.796 2.159-12.447 0 0 0-.166.333-.332.332-.166.83-.498 1.163-.664.498-.166.996-.498 1.329-.664.498-.166.83-.332.996-.498l.332-.166.333-2.157-.997.332c-.498.166-.831.332-1.163.332-.332.166-.498.166-.83.332-.333 0-.665.165-.997.165h-1.495l-1.163-.165c-.332 0-.498-.166-.831-.166-.332-.166-.664-.166-.996-.332-.333-.166-.831-.332-1.495-.664l-.333-.166-.83.996v.166c0 .331 0 .663.498 1.161.166.166.498.332.665.664.166.166.498.332.664.664.166.166.166.166.166.332-.332 2.655-.83 5.477-1.163 8.63a701.49 701.49 0 00-1.495 9.958l-1.661 10.29c-.498 3.485-.997 6.639-1.661 9.626-.498 2.988-.997 5.809-1.329 8.133a87.805 87.805 0 01-.498 3.485c-.167.83-.333 1.66-.333 2.323 0 .332-.166.83-.332 1.66s-.332 1.494-.664 2.324c-.167.829-.499 1.493-.665 2.157-.332.664-.498.83-.332.83-.332.166-.498.166-.831.166h-1.827l-.498 1.826.498.166c.664.165 1.163.497 1.661.829.499.332.997.83 1.661 1.328l1.662 1.66.166.166h1.827l.166-.498c.166-.498.332-.996.665-1.66l.332-.83.166-.166c.498-.829 1.163-2.157 2.159-4.149.997-1.825 1.994-3.983 3.323-6.638 1.329-2.49 2.658-5.311 4.153-8.299 1.495-2.987 2.824-5.975 4.319-8.962s2.824-5.975 4.319-8.796c1.329-2.822 2.658-5.311 3.821-7.635 1.163-2.157 1.993-3.983 2.824-5.311v-.166c0 .498-.166 1.162-.166 1.992-.333 2.324-.665 5.311-1.163 8.796a517.127 517.127 0 00-1.495 11.452c-.665 4.149-1.163 8.132-1.828 12.115-.498 3.984-1.162 7.469-1.495 10.622a229.932 229.932 0 01-.498 3.818c-.166 1.327-.332 2.489-.498 3.319 0 .332-.166.498-.166.664l-.499.498c-.332.332-.83.664-1.163.995-.498.498-.83.498-.83.498-.665.332-1.163.664-1.661.83-.499.332-.997.664-1.662 1.328l-.166.332.166.332c0 .166.167.664.665.83l.997.332h.166c.664-.166 1.329-.332 1.827-.664l1.495-.498c.498-.166.831-.166 1.329-.332.498 0 .997 0 1.661.166.499.166 1.163.332 1.661.332.499 0 .831.166 1.329.332 0 0 .167 0 .499.166.166 0 .498 0 .83.166.333 0 .499 0 .665.166h.332l.332.166.499-.332c.166-.166.332-.332.332-.664v-.498c0-.166-.166-.332-.332-.498-.166-.166-.333-.166-.166-.166-.167-.166-.665-.332-1.163-.664-.499-.332-.997-.664-1.329-.83a2.298 2.298 0 01-.665-.498c-.166-.166-.166-.332-.166-.663v-2.822a72.944 72.944 0 011.661-8.298c.333-1.494.665-3.154.997-4.813.997-4.979 1.994-9.958 3.156-15.269l3.323-15.435.996-5.477c.499-3.319.997-6.473 1.828-7.966.166-.166.498-.664 1.993-1.494.831-.332 1.495-.664 2.326-.996 0 0 .166-.498 0-1.162zm-202.665 53.442h.664c.498.332.831.996.831 1.991v8.631c.166 2.655.166 3.983.166 6.472.166.664.166.83.166 1.494 3.987-4.813 5.15-10.788 5.814-15.103.166-1.494 1.163-2.655 1.329-2.821h.332c.831 0 1.495 5.643 1.661 16.762 0 3.32-.166 5.145-.996 5.477h-.665c-.664 0-1.163-1.659-1.329-5.311 0-1.327 0-1.991-.166-3.485h-.166c-2.492 5.145-4.319 7.8-5.98 7.966h-.499c-1.495 0-2.325-1.493-2.491-4.481-.167-3.319-.167-5.145-.333-8.464.333-4.979.665-8.132 1.662-9.128zm30.067.498c1.994.166 3.323 1.494 3.655 3.485 0 .166-.166.332-.499.664h-.498c-.664-.664-1.495-1.162-2.492-1.328h-.498c-2.658 2.158-3.987 5.311-3.987 9.46v1.328c0 2.822 1.827 4.315 5.482 4.315.665 0 2.326-.166 5.316-.332.166 0 .332.166.332.332-.997 2.324-3.322 3.486-6.479 3.486-3.322 0-5.648-1.66-6.81-4.813-.333-1.328-.499-1.826-.499-1.826 0-5.643 1.495-10.124 4.485-13.609.997-.83 1.828-1.162 2.492-1.162zm16.446 1.162c2.658.166 4.319 1.66 5.15 4.481v.498c-.167 2.987-2.824 5.311-8.14 6.971h-.831c-.166 0-.332-.166-.498-.498v-.498c.498-.664 2.325-2.158 5.482-4.315.83-.83 1.163-1.494 1.329-1.992-.665-.83-1.662-1.328-2.658-1.494-2.16-.166-3.821 1.826-4.984 5.975 0 0-.166.83-.166 2.324-.166 2.987 1.163 4.813 3.821 5.477h.83c.831 0 2.658-.664 5.482-1.826.333-.166.831-.166 1.163-.166h.166c.166 0 .166.166.333.166 0 1.826-1.662 3.319-4.984 4.979-.665.166-1.163.332-1.329.332h-1.993c-2.658 0-4.652-2.158-5.815-6.307-.166-.664-.166-1.162-.166-1.825v-1.328c.166-5.311 1.994-8.962 5.981-10.788.498-.166 1.162-.166 1.827-.166zm19.27 1.327c.498.498.83 2.821.996 7.136-.166 2.656-.166 4.15-.332 6.805 0 1.162.166 3.154-.166 4.647-.166.664-.498 1.162-.664 1.162h-.333c-.83-.332-1.329-2.656-.996-6.639.166-2.987.332-5.311.498-6.472v-.996c0-.166 0-.166.166-.332v-.166h-.166c0 .166-.997 1.826-3.156 4.979 0 .332-.166.498-.499.664h-.664a23.43 23.43 0 01-3.987-5.311c0 .332 0 .664.166.996-.166 4.481-.332 6.804-.498 11.451 0 .83-.332 1.162-.997 1.162-.664 0-.997-.498-.997-1.162 0-1.991.167-2.987.167-4.813.166-2.821 0-6.97.332-11.285.166-1.66.498-2.656.664-2.656h.166c.166 0 .831 1.66 2.16 4.813.831 1.66 1.993 3.319 3.322 4.647.997-1.659 2.16-3.153 3.821-4.481h.166c0-.166 0-.166-.166-.332 0-.166.166-.332.166-.498 0-.332 0-.498-.166-.664.332-1.825.665-2.655.997-2.655zm4.651.996h.665c.498.332.83.996.664 1.66-.332 3.817-.664 6.307-.664 6.971-.167 2.157-.167 3.153-.333 5.31 0 .498 0 .664.166 1.162 4.32-3.485 5.981-8.464 6.977-11.617.333-1.162 1.329-1.992 1.662-1.992h.332c.83.166.997 4.647.498 13.609-.166 2.656-.664 4.149-1.329 4.315h-.664c-.665 0-.997-1.493-.831-4.315 0-1.162.166-1.659.166-2.821h-.166c-2.824 3.983-4.983 5.809-6.645 5.809h-.498c-1.495-.166-2.159-1.328-1.993-3.818.166-2.821.166-4.149.332-6.97 0-4.149.498-6.639 1.661-7.303zm34.553 5.643c.498.498.83 2.489.83 6.141-.166 2.323-.332 3.485-.664 5.808-.166.996 0 2.656-.332 3.984-.166.663-.499.995-.665.995h-.166c-.83-.332-1.163-2.323-.83-5.642.332-2.656.498-4.482.664-5.477v-.83c0-.166.166-.166.166-.166v-.166h-.166c0 .166-1.163 1.494-3.322 3.983 0 .166-.166.332-.499.498-.166 0-.332 0-.664-.166-1.661-1.66-2.824-3.153-3.655-4.813v.83c-.332 3.817-.498 5.809-.83 9.792 0 .664-.499.996-1.163.83-.665 0-.997-.498-.831-1.162.166-1.66.166-2.49.332-4.149.167-2.49.167-5.975.831-9.626.166-1.494.664-2.324.831-2.158h.166c.166 0 .83 1.494 1.827 4.315.831 1.494 1.827 2.988 3.156 4.315.997-1.327 2.326-2.489 3.987-3.485h.166c0-.166 0-.166-.166-.332 0-.166.166-.332.166-.498v-.664c.166-1.493.499-2.157.831-2.157zm10.798 2.324c2.491.498 4.153 1.826 4.817 3.983v.332c-.332 2.324-3.156 3.651-8.472 4.315-.332 0-.498 0-.831-.166-.166 0-.332-.166-.332-.498v-.332c.499-.497 2.326-1.327 5.648-2.655.831-.498 1.329-.996 1.329-1.328-.664-.83-1.495-1.162-2.492-1.493-2.159-.332-3.986.995-5.315 4.149 0 0-.167.664-.333 1.825-.332 2.324.831 3.983 3.323 4.647.332 0 .498 0 .664.166.831.166 2.658-.166 5.648-.83h1.329c.166 0 .166.166.332.166-.166 1.328-1.993 2.324-5.315 3.32-.665.166-1.163.166-1.329 0-.831-.166-1.163-.166-1.994-.332-2.658-.332-4.485-2.158-5.316-5.643v-1.328c0-.332 0-.664.167-.996.498-4.149 2.657-6.638 6.644-7.634.499.166 1.163.332 1.828.332zm17.442 3.816c.332 0 .332.166.665.166.664.166.83 1.494.83 4.149 0 .498-.166.664-.166 1.162-.166.83-.498 1.66-1.163 2.324-.332 4.315-.332 7.302-.332 8.298 0 .83-.664 1.328-1.827 1.162-4.984-.83-7.476-1.328-7.476-1.66v-.664c0-.664.997-.829 2.824-.498.499 0 .665.166 1.163.166.332 0 1.329.332 3.323.83-.166-2.157-.166-4.149.166-5.809-.997.166-1.329.332-2.326.498h-.997c-.664-.166-.996-.166-1.661-.332-2.492-.663-3.488-1.991-3.322-3.817v-.664c.332-2.157 1.993-3.983 4.983-4.979.665-.166 1.329-.166 2.16 0h.332c.665.166 1.329.498 1.827 1.162.167-1.162.499-1.66.997-1.494zm-7.974 5.975c0 .996.333 1.66 1.329 1.826.499 0 .665.166 1.163.166 1.329.166 2.492-.166 3.489-.996.166-.83.332-1.66.498-2.158v-.498h-.332c-.166 0-.166-.165-.166-.165v-.332c.166-.996-.166-1.494-.831-1.66h-.332c-1.661-.332-3.322.83-4.651 3.651-.167-.166-.167-.166-.167.166zm13.29-4.812c.332 0 .332.166.664.166.499.331.665.829.665 1.327-.498 2.822-.997 4.647-1.163 5.145-.166 1.66-.332 2.324-.498 3.983v.996c4.485-2.157 6.644-5.809 7.475-7.8.332-.83 1.329-1.328 1.661-1.328h.332c.831.166.665 3.651-.332 10.29-.332 1.992-.83 2.987-1.661 2.987-.332 0-.332 0-.664-.166-.665-.166-.831-1.327-.665-3.319.166-.83.166-1.162.332-1.991h-.166c-2.99 2.489-5.316 3.817-6.811 3.485h-.498c-1.495-.332-2.16-1.328-1.827-3.154.332-2.157.498-3.153.664-5.145.665-3.319 1.329-5.144 2.492-5.476zm14.12 1.161c.166 0 .332.166.332.498 0 .166 0 .332-.166.498-.166.498-.166 1.162-.166 1.659 0 .166-.166.332-.166.498 0 .664 0 1.162-.166 1.66 0 .498-.332 1.328-.499 2.489v.166h.167c2.159-1.493 4.651-2.489 7.475-2.987.332-.166.997-.166 1.661.166 0 .166.166.166.166.332-.166.664-2.824 1.66-8.14 3.651v.166c.831 1.494 2.326 3.485 4.32 5.975.332.83.332 1.328.332 1.494-.166.332-.499.332-.831.332-.83-.498-2.325-1.992-4.153-4.813-.664-.996-.997-1.826-1.163-2.324h-.166c-.498 1.66-.664 3.153-.83 3.983-.333 1.494-.997 2.324-1.495 2.158-.665-.166-.831-.83-.499-2.158.166-1.328.332-1.991.499-3.319.996-4.647 1.827-7.635 2.325-9.294.332-.83.665-.996 1.163-.83zm17.11 6.805c.831.166 1.163.332 1.994.498 1.329.332 2.658 1.66 3.987 3.486.498 1.327.83 2.323.664 3.153 0 .166 0 .332-.166.498-.498 2.655-2.99 4.149-7.143 4.647-.332 0-.831 0-1.495-.166-.499-.166-.831-.166-1.329-.332-2.99-.664-4.984-2.821-4.818-5.477.166-4.481 2.326-7.302 4.153-6.805.333.166.499.166.831.332 1.163-.166 2.326-.166 3.322.166zm-5.482 4.481c-.498 2.656 0 4.316.665 4.813.498.332 1.163.83 2.159.996 1.828.498 3.821-.166 5.981-1.493.498-.664.83-1.328.83-1.66 0-.332.166-.664.166-.996.167-.996-.498-2.323-2.159-3.983-.498-.332-.831-.498-1.163-.498-.332-.166-.498-.166-.831-.332-2.657-.332-3.986.166-4.153 1.162-.166.498-.498.83-1.162.83-.166.664-.333.995-.333 1.161zm18.107-1.162c.499.166.665.166.997.332 1.827.996 2.824 3.153 2.16 4.647-.166.332-.665.664-.997.996 1.163.664 2.16 1.493 2.824 2.655.332.664.498 1.66.166 2.822-.166.995-1.495 1.327-4.153 1.327-1.495-.332-2.159-.497-3.654-.829-.333-.166-.333-.166-.665-.166v.663c-.166.498-.498.664-1.163.498-.996-.166-1.329-.995-.996-2.489.166-.83.166-1.162.332-1.992 0-1.991.166-3.319.166-3.983.166-.498.166-.83.332-1.328.166-.498.332-.83.665-1.161 0-.166 0-.166-.167-.166v-.332h.167s0-.166-.167-.166c0-.332 0-.332.167-.664 0-.166.166-.166.498-.166h.166l.665.332c1.329-.83 2.159-.996 2.657-.83zm-1.993 2.655c0 .996 0 1.66.166 1.826.665.664 2.99 0 3.323-1.162.166-.498-.167-1.161-.831-1.825h-.166c-.997-.332-1.827.166-2.492 1.161zm-.332 3.486v.498c-.166.829-.166 1.161-.332 1.991-.167.664-.167 1.162 0 1.494h.166c.498.166.83.166 1.329.332.498.166.83.166 1.329.332 2.824.664 4.319.664 4.485.166 0-.166.166-.332.332-.332.166-1.162-.498-1.992-2.16-2.822-.83-.498-1.328-.663-2.325-.995-.831-.332-1.661-.498-2.824-.664zM12.126 217.416c1.828-.332 3.157 0 3.323.332-.166.996-2.824 1.991-7.974 3.319v.166c1.163 2.324 2.492 5.643 3.987 10.29.997 2.821 1.329 4.149 2.326 6.971 0 .166 0 .331-.333.663-.166 0-.332.166-.498.166-.498.166-1.163-.995-1.994-3.485-.166-.498-.664-2.157-1.495-4.979-.83-2.655-1.66-4.647-1.993-5.809v-.332c-.166-.166-.166-.332-.332-.332-.332-.829-.499-1.659-.665-2.821-1.827.498-2.824.996-2.99 1.162 0 0-.166 0-.166-.166-.498.166-.664.332-1.163.498-.332.166-.664.166-.996.332-.499.166-.831 0-.997-.332-.332-.664.498-1.66 2.492-2.49.996-.664 4.65-2.323 9.468-3.153zm12.294-2.988c2.657-.664 4.817.332 6.478 2.489 0 .166 0 .332.166.498.83 2.822-1.329 5.809-5.98 9.128-.332.166-.498.166-.83.166-.167 0-.333-.166-.665-.331 0-.166-.166-.332-.166-.498.166-.83 1.661-2.656 4.153-5.809.498-.996.83-1.826.664-2.324-.996-.664-1.993-.83-3.156-.498-2.326.498-3.322 2.988-3.156 7.303 0 0 .166.83.498 2.323.83 2.822 2.658 4.316 5.482 3.984.332-.166.498-.166.83-.166.831-.166 2.492-1.494 4.984-3.486a8.102 8.102 0 011.163-.498h.166c.166 0 .166 0 .332.166.499 1.66-.664 3.818-3.488 6.307-.498.332-.997.664-1.163.664-.83.332-1.329.332-1.993.664-2.658.83-5.316-.498-7.808-4.149-.332-.498-.498-1.162-.665-1.66-.166-.498-.166-.664-.332-1.162-1.495-4.979-.664-9.128 2.658-12.115.332-.498.997-.83 1.828-.996zm12.79-2.655c2.492-.498 4.818.996 6.978 4.149.332.83.664 1.66.83 2.323.332 1.328-.332 2.656-2.16 4.316-.664.497-1.328.829-2.159.995h-.166c-.83.166-1.329.166-1.827 0 .166.498.166.83.332 1.494.498 1.494 1.495 4.149 1.661 6.639 0 .498-.332.995-.83 1.161-.333 0-.831-.166-.997-.663-.997-1.66-1.33-4.15-1.661-5.643-.166-.498-.166-.83-.333-1.494-1.162-3.485-1.993-5.643-2.16-6.639-.165-.498-.165-.663-.331-.995-.665-3.32.332-5.145 2.824-5.643zm-1.328 3.817l.166.166c0 .166.166.332.166.498 0 0 0 .166-.166.166l.166.166c.83 2.323 1.329 3.817 1.495 4.647.166.498.166.664.332 1.162 0 .166.166.166.333.166 2.657-1.494 4.152-2.49 4.152-2.988.499-.996.499-1.825.333-2.489-.333-1.328-1.828-2.49-4.652-3.818h-.664c-.166.166-.997.996-1.661 2.324zm12.791-5.974c2.492-.498 4.651.996 6.81 3.983.333.83.665 1.494.831 2.158.333 1.161-.498 2.489-2.325 4.149-.665.498-1.33.83-2.16.996h-.166c-.83.166-1.329.166-1.827 0 .166.497.166.829.332 1.327.332 1.494 1.329 3.983 1.495 6.307 0 .498-.332.996-.83 1.162-.333 0-.831-.166-.997-.664-.83-1.66-1.163-3.983-1.495-5.477-.166-.498-.166-.83-.333-1.328-1.162-3.319-1.827-5.311-1.993-6.306-.166-.332-.166-.664-.332-.996-.665-3.154.498-4.813 2.99-5.311zm-1.495 3.651c0 .166.166.166.166.166 0 .166 0 .332.166.498 0 0 0 .166-.166.166 0 .166.166.166.166.166.665 2.157 1.163 3.651 1.329 4.481.166.498.166.664.332 1.162 0 .166.166.166.333.166 2.657-1.494 4.153-2.324 4.319-2.822.498-.996.664-1.825.498-2.323-.332-1.328-1.827-2.49-4.485-3.651h-.665c-.498 0-1.329.829-1.993 1.991zm10.133-5.145c.332 0 .332 0 .664-.166.665.166.997.664 1.163 1.328.665 3.485.831 5.642.997 6.306.498 1.826.665 2.822.997 4.647.166.498.332.664.498.996 3.489-4.481 3.987-9.128 4.153-12.115 0-1.162.83-2.158 1.163-2.158h.332c.83-.166 2.16 3.817 3.82 11.618.5 2.323.333 3.651-.331 4.149-.332 0-.332.166-.665.166-.664.166-1.329-.996-1.993-3.485-.166-.996-.332-1.494-.499-2.49h-.166c-1.827 4.149-3.654 6.639-5.15 6.971-.165 0-.332 0-.498.166-1.495.332-2.492-.498-2.99-2.822-.498-2.489-.83-3.651-1.495-6.141-.83-3.651-.83-5.974 0-6.97zm25.915-3.652c1.827-.166 3.156.166 3.156.332-.332.664-3.156 1.328-8.306 2.158v.166c.665 1.659 1.495 4.315 1.993 7.8.333 2.158.499 3.153.997 5.311 0 .166-.166.332-.332.498-.166 0-.332 0-.498.166-.499.166-.997-.83-1.33-2.656 0-.332-.166-1.659-.664-3.817-.332-1.992-.83-3.485-.997-4.315 0-.166 0-.166.166-.166-.166-.166-.166-.166-.166-.332-.166-.498-.166-1.328-.166-2.158-1.827.332-2.824.498-3.156.664 0 0-.166 0-.166-.166-.499.166-.665.166-1.163.332-.332 0-.664.166-.997.166-.498 0-.83 0-.996-.332-.166-.498.83-1.161 2.824-1.659 1.329-.498 4.983-1.66 9.8-1.992zm11.794-1.493c.83-.166 1.33-.166 2.16-.166 1.495-.166 3.156.664 5.149 2.158.997 1.161 1.495 2.157 1.662 3.153v.498c.332 3.153-1.495 5.643-5.482 8.132-.333.166-.83.332-1.495.498-.499.166-.831.166-1.33.332-3.156.664-5.813-.83-6.644-3.817-1.495-5.145-.499-8.962 1.661-9.128.332 0 .665 0 .997-.166 1.163-.83 2.16-1.328 3.322-1.494zm-3.82 7.302c.498 3.154 1.495 4.648 2.491 4.979.499.166 1.495.332 2.492.166 1.993-.332 3.655-1.825 5.316-4.149.166-.996.332-1.659.332-2.157s-.166-.664-.166-1.162c-.166-1.162-1.329-2.324-3.655-3.319-.664 0-.996-.166-1.329 0-.332 0-.664 0-.996.166-2.658.829-3.987 1.825-3.821 2.987.166.498-.166.996-.83 1.494.165.332.165.664.165.995zm18.106-8.464c2.492-.166 4.486.996 5.981 3.154.166.664.332 1.162.498 1.659.166.83-.831 1.826-2.824 2.822-.664.332-1.495.498-2.326.664h-.166c-.83.166-1.329 0-1.827-.166 0 .332 0 .664.166.996.166 1.161.665 3.153.498 4.647 0 .332-.498.664-.996.829-.333 0-.831-.165-.997-.497-.498-.996-.498-2.988-.664-3.984 0-.332 0-.663-.167-.995-.498-2.49-.83-3.984-.996-4.813 0-.332 0-.498-.166-.664.166-2.158 1.495-3.486 3.986-3.652zm-1.993 2.49l.166.166v.332s0 .166-.166.166l.166.166c.332 1.659.665 2.655.665 3.319 0 .332 0 .498.166.83 0 .166.166.166.332.166 2.99-.996 4.485-1.494 4.651-1.826.665-.664.831-1.327.831-1.659-.166-.83-1.329-1.826-3.987-2.822h-.664c-.499-.166-1.329.332-2.16 1.162zm10.632-3.154h.664c.665.166.997.498.997.996.166 2.324 0 3.983 0 4.481.166 1.328.166 1.992.332 3.32.166.331.166.497.332.829 4.153-2.987 5.482-6.472 5.981-8.298.166-.664 1.162-1.494 1.495-1.494h.332c.997 0 1.495 2.656 1.993 8.133.166 1.659-.166 2.489-.996 2.821-.333 0-.333 0-.665.166-.664.166-1.163-.664-1.329-2.489 0-.664 0-.996-.166-1.66h-.166c-2.492 2.821-4.485 4.481-6.147 4.813h-.498c-1.495.166-2.492-.498-2.658-1.992-.166-1.825-.332-2.655-.498-4.481-.332-2.821 0-4.481.997-5.145zm18.273-.83c.996 0 1.827.166 2.658.498.664 0 .996.498.996 1.826 0 .498.166 1.659.333 3.153v3.154c0 .497.166.995.166 1.161 0 .166-.333.498-.831.498h-.332c-.665-.166-.997-.498-.997-1.162 0-.829 0-1.161-.166-1.991h-.166c-.498.664-1.994 1.991-4.153 3.983-.332 0-.332.166-.665.166h-.166c-.332 0-.498-.166-.498-.498 0-.498 1.163-1.991 3.821-4.315-.831 0-1.163.166-1.994.166-1.993-.166-2.99-.664-2.99-1.494v-1.162c0-1.161.831-2.323 2.824-3.319.665-.498 1.495-.664 2.16-.664zm-2.824 4.149v.166c0 .664.83.83 2.159.83h2.492v-3.817c-.332-.166-.997-.332-1.661-.332-1.163 0-2.16.664-2.99 1.992v1.161zm29.901-121.32c-3.322 6.14-19.436 12.944-23.257 13.442h-.664c-1.827.166-3.322-.663-4.319-1.66l-.332.333c-.499.498-1.329.995-2.16 1.327-.498.166-.831.166-1.163.166-.83 0-1.329-.498-1.661-.664-1.329-1.327-1.329-4.48 0-9.46 1.163.332 2.326.498 3.322.664-.664 2.324-.996 4.647-1.162 5.809 1.162-.83 1.162-1.66 1.162-1.992 0 0 0-1.825.997-2.323.166-.166.332-.166.665-.166 1.495 0 1.661 1.992 1.661 1.992.166.498.664 2.49 2.658 2.655h.83c3.489-.498 13.29-5.145 18.273-8.962 1.495-.664 2.991-1.494 4.486-2.324 0 .332.332.664.664 1.162zm53.158-37.012a384.933 384.933 0 0112.791-10.29c4.32-3.319 8.805-6.472 13.456-9.294 2.326-1.327 4.818-2.655 7.309-3.319 1.329-.332 2.658-.332 3.655.166a10.88 10.88 0 012.99 2.49c1.661 1.991 2.658 4.647 3.322 7.302.665 2.656.831 5.311.831 8.132.332-2.655.166-5.477-.332-8.298-.499-2.655-1.495-5.477-3.156-7.634-.831-1.162-1.828-2.158-3.157-2.822-1.495-.664-2.99-.498-4.319-.332-2.824.664-5.316 1.992-7.641 3.32-4.818 2.821-9.137 6.14-13.456 9.46-4.319 3.485-8.306 7.136-12.293 11.12z"/><path d="M286.223 140.242c-3.488-5.643-9.635-6.639-13.455-4.316-2.16 1.328-3.323 3.652-3.489 6.307-4.651.498-18.937 1.826-28.406.498.166-.83.498-1.66.664-2.489 3.323-13.112 2.16-23.9 2.16-24.397l-.166-2.324-2.326-.166c-15.117-1.494-27.742-4.647-38.041-8.796 17.774-3.651 44.852-11.95 58.806-30.704 8.306-10.954 10.798-24.231 7.641-39.168-2.491-11.452-7.309-17.924-14.618-19.584-4.818-.996-10.3.332-16.28 3.32-1.163-1.992-2.492-3.984-4.153-5.81-7.641-9.792-15.615-13.94-23.423-11.95-10.631 2.49-19.602 15.934-26.579 31.7-1.329-1.327-2.491-2.655-3.322-3.983 0 0 0-.166-.166-.166-.665-.83-1.163-1.66-1.661-2.323-.166-.166-.166-.332-.333-.332.665-1.162.665-2.49-.166-3.652-.83-1.161-2.159-1.493-3.322-1.327-2.99-5.311-12.127-13.278-24.42-16.597-6.312-1.66-12.957.498-18.605 3.651-.664 0-1.495.166-2.492.332-.664.166-1.163.166-1.329.166-.166 0-.332 0-.83-.332-.333-.166-.997-.498-1.828-.83-.83-.331-1.495-.497-1.993-.663-.831-.166-1.495.166-1.993.332-.333.166-.665.332-1.329.498-.665.165-1.163.165-1.329.165-.167 0-.333 0-.499-.165-.166-.166-.498-.332-.996-.498-.167 0-.333-.166-.499-.332-.498-.332-1.163-.83-1.993-.996-.997-.166-2.326.332-2.824 2.821-.333 1.328-.499 3.154-.499 5.643-.166 3.983.333 7.137 1.163 9.626-5.814 1.494-8.472 6.639-10.631 10.622-1.329 2.49-2.326 5.145-4.486 6.805-3.82 2.821-6.312 3.651-9.8 2.157L81.73 40.33l4.65 5.31c2.825 3.154 5.981 4.814 8.971 4.482-.332.83-.83 1.825-1.993 2.655-2.492 1.992-6.146 2.158-10.632.498L71.1 48.96l10.133 7.137c6.645 4.647 10.964 6.14 14.95 5.477-3.322 2.323-8.97 4.315-15.614 2.323l-13.124-4.15 11.795 7.137c.498.332 1.163.664 1.661.996 4.817 2.988 8.97 5.643 15.947 4.647-1.993 1.66-5.481 2.988-11.296 1.328l-7.475-1.992 5.98 4.98c6.811 5.642 12.625 7.966 17.775 7.966 4.817 0 9.137-1.992 13.456-5.145 3.156 2.655 6.644 4.315 9.801 5.477 1.661.498 3.156.995 4.651 1.328 1.163.331 2.326.497 3.322.663V86.8c2.492-.83 5.15-1.493 7.642-2.157-1.661.166-3.489 0-5.316 0-.498 0-1.163-.166-1.827-.166-.665.166-1.495 0-2.326-.166-1.827-.332-3.987-.996-6.146-1.826-2.492-.995-5.15-2.323-7.642-4.315-.498-.332-.83-.664-1.329-.996-.498-.332-.83-.83-1.329-1.161-2.492-2.49-4.651-5.477-6.478-9.46-1.163-2.49-1.828-5.145-2.326-7.635-.498-3.651-.166-6.97 1.163-9.792.83-1.992 1.993-3.153 2.658-3.817h1.993c1.661 0 3.156 0 4.651.166h.499c1.163 0 2.159.166 2.99.166-1.993-2.49-4.984-5.975-7.808-7.8.166-.665.499-1.328.831-2.158.831-2.158 1.993-4.15 3.488-6.141.333.332.665.498.997.664.332.166.499.166.831.166h.166c1.495 0 2.159-1.162 2.824-2.324 0-.166.166-.166.166-.332.498-.664.665-1.161.831-1.161.332.166.664.995.996 1.493 0 .166.166.332.166.498.499 1.328 1.163 2.822 2.658 2.988h.333c.498 0 .996-.166 1.661-.498 2.325 2.323 5.316 4.813 9.136 7.468-2.325 1.992-4.817 4.813-6.644 6.805.83 0 1.993 0 3.488-.166 1.329 0 2.99-.166 4.651-.166 1.496 0 2.991 0 4.32.166.332-.83.83-1.826.996-2.822 2.658 1.328 5.482 2.49 8.638 3.652 4.486 5.477 9.303 11.617 12.293 16.264 1.495 2.324 3.323 4.315 5.316 6.141-1.827 3.485-3.821 6.307-6.146 8.63-.499.498-1.163 1.162-1.828 1.494-.498.332-.996.83-1.495 1.162-.664.332-1.163.83-1.827 1.162-.498.166-.831.498-1.329.664 1.329-.166 2.326-.166 2.99 0-.332.83-1.329 1.825-2.824 2.987 1.495-.664 2.99-1.494 4.485-2.324.333.332.665.83.997 1.162 1.163 1.328 2.492 2.656 3.987 4.15.498.497 1.163 1.161 1.827 1.659.332.332.665.664 1.163.996.498.332.831.83 1.329 1.161l.498.498a107.7 107.7 0 0017.609 11.784c1.661.83 3.489 1.826 5.316 2.655 11.462 5.311 26.081 9.792 44.188 11.618.332 7.303.498 41.492-28.573 56.263-4.153-.664-32.725-6.307-52.826-32.032 6.811-9.128 8.804-19.086 8.804-27.55 0-5.145-.664-9.626-1.495-12.78-.664-3.485-1.329-5.477-1.329-5.477-.332-.83-1.329-1.327-2.159-.995-.831.332-1.329 1.327-.997 2.157.166.332.665 1.826 1.163 3.983 1.827 7.469 4.319 23.568-5.98 37.675-4.153-5.809-7.974-12.448-10.798-20.248-.498-1.162-.831-2.324-1.329-3.485-1.495-4.316-2.658-8.963-3.655-13.942-.332-1.66-.498-3.153-.83-4.813-.166-1.161-.332-2.157-.499-3.319-1.993-.166-2.491-2.157-2.657-2.655 0 0-.167-1.992-1.662-1.992-.332 0-.498 0-.664.166.166 2.158.498 4.315.664 6.473.333 1.991.665 4.149.997 6.14 1.163 6.307 2.658 12.116 4.818 17.759-12.293 12.945-30.566 25.725-34.886 27.052-11.96-9.792-25.084-26.72-30.4-34.023v-2.655l9.303-.498-8.472-4.315 2.99-5.81-7.475 4.15-8.472-5.643 2.99 7.967-10.632 5.311 10.964-.498 1.163 10.29 3.489-7.137.498.332c.166 0 .332.166.498.166 5.316 7.136 18.772 24.895 31.729 35.185l.499.498c3.488 2.655 6.977 4.979 10.133 6.306l1.163-3.153c-2.326-.83-4.652-2.323-7.143-4.149 7.143-3.485 22.259-14.439 33.223-25.891 1.662 4.315 3.821 8.464 5.981 12.282 1.661 2.821 3.322 5.477 5.149 7.966-4.651 4.979-10.964 9.46-19.934 13.111-.831.332-1.329 1.328-.997 2.158.333.664.831.996 1.495.996.167 0 .499 0 .665-.166 9.136-3.651 15.947-8.465 20.765-13.609 5.316 6.804 11.794 12.613 18.937 17.758 18.44 12.779 36.048 15.103 36.713 15.269l.83.166.831-.332c8.306-4.149 14.452-9.626 18.937-15.601 4.32 4.315 9.968 7.469 15.45 9.958 5.315 2.324 10.299 3.817 13.123 4.481-.664 2.656-.166 5.975 1.827 9.128 1.495 2.49 3.821 4.481 6.147 5.477 1.163.498 2.491.83 3.654.83 1.329 0 2.658-.332 3.655-.996 2.159-1.328 3.322-3.485 3.488-6.307.167-2.655-.664-5.476-2.159-7.966-3.489-5.809-9.635-6.639-13.456-4.315a3.923 3.923 0 00-1.495 1.328c-4.485-1.162-19.934-5.477-28.24-14.107 2.99-4.648 5.316-9.461 6.811-13.942 3.322.498 7.309.664 11.296.664 7.807 0 15.449-.664 18.605-.996.332 1.328.831 2.656 1.661 3.984 2.492 3.983 6.313 6.306 9.801 6.306 1.329 0 2.492-.332 3.655-.995 4.485-3.154 5.15-9.461 1.661-14.937zM212.134 3.652c6.479-1.494 13.124 2.157 19.934 10.787 1.329 1.826 2.658 3.651 3.821 5.311-10.299 5.809-21.595 16.099-31.895 26.886-2.658.166-5.316 0-8.14-.331 6.645-2.49 10.632-5.311 10.964-5.477l4.486-3.32-5.482.332c-8.971.498-14.619-1.327-18.274-3.651 6.479-15.269 14.951-28.214 24.586-30.538zm-61.796 3.485c12.293 3.153 20.1 10.953 22.26 14.77-4.153 1.826-16.28 5.643-39.703 1.494 2.16-5.477 3.489-11.617 3.655-12.281 0-.664 0-1.162-.332-1.66 4.651-2.323 9.468-3.485 14.12-2.323zm-37.543 33.027c.332.166.498.332.664.498.166 0 .333.166.333.332.83.663 1.661 1.66 2.491 2.49l.997.995h-2.492v-.498c0-.83-.332-1.494-.83-1.826h-.665c-.166 0-.332.166-.498.332.332 0 .498.332.498.664s-.332.664-.664.664c-.166 0-.333-.166-.499-.332v.166c0 .166-.166.498-.166.664v.332h-2.99c-.83-1.826-1.163-3.817.332-4.98.499-.331.997-.331 1.495-.165.167 0 .167 0 .333.166.166 0 .166 0 .332.166.166 0 .332.166.498.332.499-.166.665-.166.831 0zm-2.326-5.643c-.332.664-.498 1.328-.83 1.992a2.31 2.31 0 00-1.828.331c-2.325 1.66-1.661 4.648-.664 7.303-.831.83-1.661 2.158-2.326 3.817-1.495 3.32-1.993 7.137-1.329 11.452.499 2.655 1.329 5.477 2.492 8.298 1.827 4.15 4.153 7.469 6.811 10.124-7.143 5.145-13.29 5.809-21.762.498 6.479 1.826 11.13-6.639 10.134-9.792l-.997.332c-5.482 1.66-8.97 1.162-12.293-.332 8.638-.83 13.29-6.14 12.791-11.452h-.166c-3.489 1.826-6.146 2.49-10.133.83 2.658-.332 3.488-1.328 5.814-2.655 2.326-1.328 4.319-5.975 3.987-9.792-1.33 1.493-2.492 2.49-4.652 2.821-2.16.332-4.983-1.66-5.481-2.323 2.657 1.66 10.797-2.656 15.781-10.29 4.983-7.469 4.319-8.133 8.97-9.128 0 .166.166.332.333.497-2.16 2.49-3.655 4.98-4.652 7.469zm19.934-9.792c0 .166-.166.332-.166.498-.166.166-.166.498-.332.664-.498.83-.997 1.66-1.495 2.323l-.498.498-.333.332c-.332.332-.664.498-.996.498h-.499c-.166 0-.498-.498-.83-.996 0-.166-.166-.332-.166-.498 0 0 0-.166-.166-.166-.167-.332-.333-.83-.499-1.161-.332-.83-.83-1.494-1.495-1.826-.166 0-.332-.166-.498-.166h-.332c-.333 0-.665.166-.997.332-.665.498-1.163 1.328-1.661 2.157 0 0 0 .166-.167.166-.332.498-.83 1.162-.996 1.162h-.166c-.166-.166-.333-.166-.665-.498a8.019 8.019 0 01-1.661-2.49c-.332-.663-.664-1.327-.831-2.323-.664-2.157-1.162-5.145-.996-9.128 0-2.49.332-4.149.498-5.31.166-.665.498-1.329.831-1.329.332 0 .664.332.996.498.333.332.665.498.997.664.332 0 .665.166.831.332.332.166.498.166.996.332.499 0 1.163 0 1.994-.166.83-.166 1.329-.332 1.661-.498.498-.166.664-.332.997-.166.332 0 .83.166 1.495.498.664.332 1.163.664 1.661.83.498-.166.997.166 1.661.166h.332c.499 0 .997 0 1.662-.166 1.329-.332 2.159-.332 2.99-.332.664 0 1.163.332 1.163.83 0 .166.166.332 0 .664-.167 1.66-1.662 7.468-3.655 12.115-.166.498-.332 1.162-.665 1.66zm10.964 19.418h-.996c0-.166.166-.498.166-.664 0-1.162-.665-1.991-1.329-1.991-.332 0-.499.166-.665.332.333 0 .499.331.499.663s-.333.664-.665.664c-.166 0-.332-.166-.498-.332 0 .166-.166.498-.166.83v.664c-1.329 0-2.658 0-3.987.166h-.498c1.495-1.66 3.322-3.817 5.149-4.813 1.163.664 2.16 1.328 3.489 1.992.166.663-.166 1.493-.499 2.489zm26.413 16.265c-2.325-3.651-5.98-8.133-9.635-12.78 0 0-2.491-2.987-3.654-4.647h-.166c-2.16-.664-4.153-1.493-5.981-2.323a44.516 44.516 0 01-3.987-1.992c-1.328-.664-2.657-1.494-3.986-2.323-3.655-2.324-6.479-4.648-8.805-6.639 3.157.498 5.981.996 8.805 1.328 1.495.166 2.99.332 4.319.498 2.824.332 5.648.332 8.14.332 13.289 0 20.764-2.988 23.755-4.482 1.993 1.826 3.156 5.477 6.478 8.465.665.664 1.495 1.327 2.492 1.991 0 0 .166 0 .166.166 2.99 1.826 7.143 3.154 13.456 3.32-2.492 1.161-7.309 3.983-10.964 4.315-3.655.332-7.808-.498-7.974-.498.166.166 1.828 1.991 7.808 3.485 6.312 1.66 8.14 1.328 12.791 1.494 1.661 0 3.156 0 4.651-.166h.997a16.926 16.926 0 01-5.648 5.31 15.219 15.219 0 01-6.146 1.826c-1.662.166-3.157 0-4.32-.166l-7.973-2.655 6.312 5.31c.166 0 1.163.665 2.658 1.329.997.498 1.994.83 3.323 1.327 1.661.498 3.322.83 5.315.996-2.824.996-5.315 1.162-6.977.996-1.329 0-7.973-1.328-7.973-1.328s2.159 3.32 4.651 5.145c2.492 1.826 7.475 3.983 7.475 3.983-2.99.996-6.146 1.328-9.635.996-.498 0-.996-.166-1.495-.166a13.805 13.805 0 01-3.488-.996 31.083 31.083 0 01-6.645-3.319c-.498-.332-1.163-.83-1.661-1.162-.166-.166-.332-.332-.498-.332l-.167-.166c-.166-.165-.332-.332-.498-.332h-.166l-.332-.331-.166-.166-.499-.498c-1.661-1.826-2.99-3.486-4.153-5.145zm.997 20.248c-.166.498-.166.995-.332 1.493-.499-.498-.997-.996-1.329-1.493-.499-.498-.997-.996-1.329-1.494 1.827-1.66 3.488-3.651 4.983-5.975a232.464 232.464 0 01-1.993 7.469zm2.99 4.647l-.498-.498c.166-.996.498-2.158.83-3.32.665-2.821 1.495-6.14 2.492-9.792 1.661 1.162 3.489 1.992 5.316 2.822a413.505 413.505 0 00-7.974 10.29c0 .166 0 .332-.166.498zm2.492 2.157c1.993-2.821 5.15-6.97 9.136-11.95 1.163.333 2.326.499 3.489.665 1.163.165 2.16.165 3.322.165 5.648 0 10.798-1.825 14.453-5.31l4.319-3.984-5.814.996c-4.153.83-7.476.498-10.3-.83 4.818 0 11.463-.995 14.951-6.472l4.153-6.141-6.313 3.817c-2.491 1.494-5.648 1.328-8.638.664 4.984-.996 10.632-3.817 13.954-11.12l1.495-3.153-3.322.83c9.303-9.626 19.27-18.422 28.24-23.401.997-.498 1.994-1.162 2.99-1.494 5.15-2.49 9.968-3.651 13.954-2.822 5.815 1.162 9.968 6.97 12.127 16.929 2.99 13.941.498 26.223-7.143 36.512-14.619 19.916-45.018 27.883-61.796 30.704-10.134-4.48-17.775-9.792-23.257-14.605zm90.369 87.796c.83-.497 1.661-.663 2.658-.663 2.159 0 4.651 1.161 6.312 3.983 1.163 1.991 1.828 4.149 1.661 6.141-.166 1.659-.83 2.987-1.993 3.817-1.163.664-2.658.664-4.153 0-1.827-.664-3.489-2.324-4.651-4.149-2.492-3.984-2.326-7.469.166-9.129zm18.605-23.401c-2.492 1.494-6.645-.332-8.804-4.149-2.326-3.817-2.16-7.302.332-8.796 2.492-1.494 6.479-.664 8.804 3.319 2.16 3.485 2.16 8.133-.332 9.626z"/><path d="M160.637 81.324c-.332.83-1.329 1.825-2.824 2.987-4.817 2.158-9.967 2.655-14.951 3.32-1.329.165-2.824.331-4.153.331h-.166c-1.495-.166-3.156-.332-4.651-.332h-.166c-.166 0-.498 0-.665-.165v-.333c2.492-.83 5.15-1.493 7.642-2.157.498 0 1.163-.166 1.661-.166 5.15-.664 10.466-1.162 15.283-3.485 1.329-.166 2.326-.166 2.99 0zm-41.363-22.24a9.407 9.407 0 003.82 2.656l2.99 1.161-2.325-2.157c-2.326-2.158-3.655-4.315-4.153-6.639-.166-.664-.166-.996 0-1.327.166-.166.332-.332.83-.332 1.163-.166 2.492 0 3.987.166l3.323.497-2.991-1.66c-.166-.165-.332-.165-.664-.331.664-.664.997-1.494 1.329-2.324.332-1.493.332-2.987 0-4.813l-.332-.498-1.163.166v.498c0 .664 0 1.328-.166 1.992-.166.83-.332 1.328-.499 1.825-.166.332-.332.664-.664.996-.166.166-.332.332-.332.498-.166.332-.499.498-.831.83-.498 0-.831-.166-1.329-.166s-1.993.166-2.824 1.494c-.664 1.162-.332 2.323-.166 2.987.332 1.826 1.163 3.32 2.16 4.481zm23.588 10.29c.997-.663 1.994-1.327 2.824-1.991.167.498.333.996.499 1.328.166.497.332 1.161.664 1.66.332-1.163.166-2.49-.332-3.652-.332-.498-.498-1.162-.997-1.66-.332-.498-.83-.996-1.329-1.161.499.995.831 1.991 1.329 2.987-1.163.498-2.159.996-3.156 1.328-1.329.498-2.492.995-3.821 1.327-2.492.83-4.983 1.66-7.641 1.992a21.595 21.595 0 01-7.974-.498 24.91 24.91 0 01-7.641-2.821l-.167.166c2.326 1.66 4.818 2.821 7.476 3.65 2.658.83 5.482 1.163 8.472 1.163 2.658-.332 5.814-1.162 7.475-1.826 1.495-.332 3.157-1.162 4.319-1.992zm1.662 38.338v.332s-.333 5.642 4.319 15.102c0 0 .996-5.144 3.654-3.651-.166 0-7.475-18.588-7.973-11.783z"/></g><defs><clipPath id="clip0"><path fill="#fff" d="M0 0h354v316H0z"/></clipPath></defs></svg>