<svg width="432" height="16" fill="none" xmlns="http://www.w3.org/2000/svg"><path fill="#BCF6FE" d="M0 16h16V0H0z"/><path fill="#FFDC99" d="M16 16h16V0H16z"/><path fill="#F8877F" d="M32 16h16V0H32z"/><path fill="#43A047" d="M48 16h16V0H48z"/><path fill="#FDC68B" d="M64 16h16V0H64z"/><path fill="#69DFF6" d="M80 16h16V0H80z"/><path fill="#FDC0D2" d="M96 16h16V0H96z"/><path fill="#FFC147" d="M112 16h16V0h-16z"/><path fill="#F6655A" d="M128 16h16V0h-16z"/><path fill="#87C289" d="M144 16h16V0h-16z"/><path fill="#FFA5C5" d="M160 16h16V0h-16z"/><path fill="#FFEAC1" d="M176 16h16V0h-16z"/><path fill="#BCF6FE" d="M192 16h16V0h-16z"/><path fill="#FDC68B" d="M208 16h16V0h-16z"/><path fill="#65B168" d="M224 16h16V0h-16z"/><path fill="#FFA5C5" d="M240 16h16V0h-16z"/><path fill="#F6655A" d="M256 16h16V0h-16z"/><path fill="#69DFF6" d="M272 16h16V0h-16z"/><path fill="#FFCF70" d="M288 16h16V0h-16z"/><path fill="#FFA5C5" d="M304 16h16V0h-16z"/><path fill="#BCF6FE" d="M320 16h16V0h-16z"/><path fill="#69DFF6" d="M336 16h16V0h-16z"/><path fill="#FFCF70" d="M352 16h16V0h-16z"/><path fill="#FF82AF" d="M368 16h16V0h-16z"/><path fill="#F44336" d="M384 16h16V0h-16z"/><path fill="#69DFF6" d="M400 16h16V0h-16z"/><path fill="#FDCDDB" d="M416 16h16V0h-16z"/></svg>