<svg width="261" height="230" viewBox="0 0 261 230" fill="none" xmlns="http://www.w3.org/2000/svg">
<path d="M28.6699 194.211L28.9138 193.235C29.0357 192.747 29.0357 192.625 29.0357 192.381C28.9138 191.893 28.548 191.527 28.0602 191.283C27.5725 191.039 27.0848 190.795 26.4752 190.673C25.8655 190.551 25.3778 190.429 24.7682 190.307C24.2804 190.185 23.7927 190.185 23.5489 190.063C23.1831 189.941 22.5734 189.941 21.598 190.063C20.7445 190.185 19.891 190.307 19.0375 190.429C18.6717 190.429 18.3059 190.551 17.9401 190.551L19.0375 189.941C19.5252 189.575 20.0129 189.087 20.3787 188.599C20.7445 188.111 21.1103 187.623 21.3541 187.135C21.598 186.647 21.8419 186.159 21.9638 185.794C22.0857 185.306 22.0857 184.94 22.0857 184.696C21.8419 183.964 21.2322 183.598 20.1348 183.354C19.2813 183.232 18.184 183.232 16.9647 183.354C15.8673 183.476 14.648 183.72 13.4287 184.086C12.4533 184.33 11.5998 184.574 10.9902 184.818L10.8682 184.696C10.7463 184.452 10.5024 184.208 10.2586 184.086V183.842L10.0147 183.964C9.527 184.208 9.28314 184.452 9.16121 184.818C9.03929 185.062 9.03929 185.428 9.03929 185.794C9.03929 186.037 9.03929 186.281 9.16121 186.647C9.16121 186.891 9.16121 187.013 9.16121 187.013V187.135C9.16121 187.135 9.16121 187.135 9.16121 187.257C9.16121 187.379 9.03929 187.501 9.03929 187.745C9.03929 187.867 8.91736 187.989 8.91736 188.111C8.91736 188.233 8.91736 188.355 8.91736 188.355C8.91736 188.477 8.79543 188.721 8.42964 189.087C8.18578 189.453 7.94192 189.819 7.69806 190.063L7.33228 190.795L8.79543 190.673L8.91736 190.551C9.40507 190.063 9.77086 189.697 10.1366 189.331C10.5024 188.965 10.7463 188.599 10.9902 188.233C11.3559 187.745 11.9656 187.257 12.5752 186.891C13.3068 186.525 14.0384 186.159 14.77 185.672C15.2577 185.55 15.7454 185.55 16.2331 185.428C16.8428 185.428 17.3305 185.306 17.8182 185.428C18.3059 185.428 18.7936 185.55 19.0375 185.672C19.2813 185.794 19.4033 185.916 19.4033 185.916C19.4033 185.916 19.4033 186.038 19.2813 186.281C19.1594 186.525 19.0375 186.769 18.9156 187.135C18.7936 187.501 18.5498 187.745 18.3059 188.111C18.0621 188.477 17.6963 188.721 17.4524 188.843C16.9647 189.087 16.477 189.331 15.9893 189.697C15.5015 189.941 15.0138 190.185 14.5261 190.429C14.0384 190.673 13.5507 190.917 13.1849 191.039C12.8191 191.161 12.5752 191.283 12.3314 191.405L12.2094 191.527C12.0875 191.649 11.9656 191.771 11.9656 192.015C11.9656 192.137 11.9656 192.259 11.9656 192.381C12.0875 192.869 12.5752 192.747 13.4287 192.625L15.7454 192.381C16.5989 192.259 17.4524 192.259 18.3059 192.137C19.2813 192.015 19.6471 192.015 19.891 192.137C20.1348 192.137 20.5006 192.259 20.8664 192.381C21.2322 192.503 21.598 192.625 21.9638 192.747C22.3296 192.869 22.5734 193.113 22.8173 193.235C23.0611 193.357 23.1831 193.601 23.1831 193.723C23.1831 193.723 23.1831 193.845 23.1831 194.211C23.1831 194.455 23.0611 194.821 23.0611 195.187C22.9392 195.553 22.9392 195.797 22.8173 196.163C22.6954 196.407 22.5734 196.651 22.5734 196.773C22.0857 197.383 21.8419 197.871 21.598 198.115C21.3541 198.359 21.2322 198.603 20.9884 198.725C20.7445 198.846 20.5006 199.09 20.2568 199.334C19.891 199.578 19.4033 199.822 18.7936 200.31C18.5498 200.554 18.184 200.676 17.8182 200.798C17.3305 200.92 16.9647 201.042 16.355 201.164C15.9893 201.286 15.5015 201.286 15.0138 201.286C14.5261 201.286 14.0384 201.164 13.5507 201.164C13.063 201.042 12.6972 200.92 12.4533 200.798C12.2094 200.676 12.0875 200.554 12.0875 200.554C12.0875 200.432 12.0875 200.31 12.2094 200.066C12.4533 199.822 12.8191 199.456 13.3068 199.212C13.7945 198.968 14.2822 198.725 14.8919 198.481C15.5015 198.237 16.1112 198.115 16.7208 197.993C16.7208 197.993 16.9647 197.993 17.2085 197.871C17.2085 197.871 17.2085 197.871 17.3305 197.871C17.5743 197.993 17.6963 197.993 17.8182 198.115C17.9401 198.115 18.062 198.237 18.184 198.237C18.3059 198.237 18.4278 198.237 18.5498 198.237C18.6717 198.237 18.9156 198.237 19.1594 198.237H19.2813C19.7691 198.115 20.1348 197.993 20.6226 197.871C21.4761 197.505 21.4761 197.017 21.3541 196.773C21.2322 196.407 20.9884 195.919 20.0129 195.797C19.4033 195.675 18.7936 195.675 17.9401 195.919C16.2331 196.285 14.8919 196.651 13.7945 197.139C12.6972 197.505 11.8437 197.993 11.234 198.481C10.5024 198.968 10.0147 199.578 9.527 200.188C9.16121 200.798 8.6735 201.53 8.30771 202.384L8.18578 202.628L8.30771 202.75C8.30771 202.872 8.30771 202.994 8.30771 202.994C8.42964 203.238 8.6735 203.604 9.40507 203.604H9.64893C10.0147 203.604 10.2586 203.604 10.6244 203.726C11.1121 203.726 11.7217 203.848 12.4533 203.848C13.1849 203.848 13.9165 203.97 14.77 203.97H14.8919C15.6235 203.97 16.355 203.97 17.0866 203.848C17.9401 203.726 18.5498 203.604 18.9156 203.36C19.7691 202.994 20.6226 202.628 21.4761 202.14C22.4515 201.53 23.305 200.92 24.1585 200.31C25.012 199.578 25.8655 198.968 26.5971 198.237C27.3287 197.505 27.8164 196.895 28.1822 196.407C28.1822 196.285 28.3041 196.163 28.426 195.797C28.426 194.821 28.548 194.577 28.6699 194.211Z" fill="white"/>
<path d="M60.0057 170.057L60.6154 169.691L59.6399 168.959H59.3961C58.7864 169.081 58.2987 169.325 57.6891 169.569C57.0794 169.813 56.4698 170.057 55.8601 170.301C55.2505 170.545 54.6408 170.789 54.1531 171.033C53.5435 171.277 53.0558 171.399 52.4461 171.521C51.7145 171.765 50.983 171.765 50.3733 171.643C49.6417 171.521 48.9102 171.399 48.1786 171.399H47.9347L47.6909 171.521C47.5689 171.521 47.5689 171.643 47.447 171.765C47.3251 171.886 47.2032 172.009 47.2032 172.252C47.2032 172.374 47.3251 172.74 47.9347 172.984L48.5444 173.106C48.7882 173.106 49.0321 173.228 49.154 173.35H49.276C49.0321 173.96 48.6663 174.814 48.4224 175.79C48.0567 176.766 47.6909 177.864 47.3251 178.84C46.9593 179.938 46.5935 180.914 46.2277 181.89C45.8619 182.866 45.4961 183.72 45.2523 184.33C45.1304 184.696 44.8865 185.061 44.7646 185.427C44.7646 185.549 44.6426 185.671 44.5207 185.793C44.3988 185.671 44.2769 185.671 44.033 185.427L43.9111 185.305C43.4233 184.939 42.9356 184.452 42.326 183.964C41.5944 183.354 40.8628 182.744 40.1313 182.134C39.2778 181.524 38.5462 180.914 37.9365 180.304L36.2295 178.84C35.9857 178.596 35.7418 178.474 35.7418 178.352L36.2295 177.254V176.156L35.6199 176.278C35.376 176.278 35.2541 176.522 35.0102 176.644C34.8883 176.766 34.7664 176.888 34.6444 177.132C34.5225 177.254 34.4006 177.498 34.2787 177.62C34.1567 177.742 34.0348 177.864 33.9129 177.864C33.4252 178.108 32.9374 178.23 32.5716 178.474L31.1085 178.962L30.9866 179.084C30.9866 179.084 30.8646 179.206 30.8646 179.328C30.8646 179.45 30.7427 179.572 30.7427 179.816V180.06L31.4743 180.304L33.7909 179.694C33.7909 179.694 33.9129 179.816 34.1567 179.938C34.5225 180.182 34.8883 180.548 35.376 181.036C35.8637 181.402 36.3515 181.89 36.8392 182.5C37.3269 182.988 37.8146 183.598 38.3023 184.086C38.79 184.574 39.1558 184.939 39.3997 185.305C39.8874 185.793 39.8874 185.915 40.0093 185.915C40.1313 186.037 40.3751 186.159 40.7409 186.403C41.1067 186.647 41.4725 186.891 41.7163 187.257C42.0821 187.501 42.326 187.867 42.6918 188.111C43.0576 188.477 43.0576 188.599 43.0576 188.599C43.0576 188.599 43.0576 188.721 42.9356 189.209C42.8137 189.575 42.6918 190.063 42.5698 190.551C42.4479 191.039 42.2041 191.649 42.0821 192.137C41.8383 192.747 41.7163 193.235 41.4725 193.723C41.3506 194.211 41.1067 194.699 40.9848 195.065C40.8628 195.431 40.7409 195.797 40.619 196.041C40.3751 196.651 40.2532 197.139 40.0093 197.748C39.7655 198.236 39.5216 198.724 39.1558 199.212C39.0339 199.334 38.79 199.578 38.5462 199.578C38.3023 199.7 37.8146 199.822 37.205 199.822C37.083 199.822 36.8392 199.822 36.5953 199.822C36.2295 199.822 35.8637 199.822 35.498 199.822H33.7909C33.4252 199.822 33.0594 199.822 32.8155 199.822C32.6936 199.822 32.4497 199.7 32.3278 199.7H32.2059C32.0839 199.7 31.962 199.578 31.8401 199.578C31.7181 199.578 31.7181 199.456 31.7181 199.456L31.5962 199.334L31.4743 199.212C31.3524 199.09 31.3524 198.968 31.2304 198.846C31.2304 198.724 31.1085 198.602 31.1085 198.602C30.9866 198.48 30.9866 198.358 30.8646 198.358C30.8646 198.236 30.7427 198.236 30.7427 198.236C30.7427 198.236 30.7427 198.114 30.6208 197.992C30.6208 197.87 30.6208 197.748 30.6208 197.748C30.7427 197.627 30.9866 197.505 31.2304 197.383C31.4743 197.261 31.8401 197.139 32.0839 197.017C32.4497 196.895 32.8155 196.651 32.9374 196.285C33.0594 196.163 33.0594 195.919 33.0594 195.797C33.0594 195.675 33.0594 195.553 32.9374 195.309C32.9374 195.309 33.0594 195.187 33.1813 195.065C33.7909 194.699 33.7909 194.211 33.669 193.967C33.5471 193.723 33.4252 193.479 33.1813 193.235C32.9374 192.991 32.5716 192.991 32.0839 193.113C31.962 193.113 31.962 193.113 31.8401 193.235C31.7181 193.235 31.5962 193.357 31.4743 193.357C30.7427 193.967 30.1331 194.455 29.6453 194.943C29.1576 195.431 28.548 196.041 28.0603 196.651C28.0603 196.651 27.9383 196.773 27.9383 196.895L27.8164 197.139V197.383L28.3041 197.261L27.8164 197.383C27.8164 197.627 28.0603 197.992 28.3041 198.48C28.548 198.968 28.7918 199.456 29.1576 199.944C29.5234 200.432 29.7673 200.92 30.1331 201.286C30.4988 201.774 30.7427 202.018 30.9866 202.14C31.1085 202.262 31.4743 202.262 32.4497 202.384C33.0594 202.384 33.7909 202.384 34.5225 202.384H34.6444C35.4979 202.384 36.2295 202.384 36.9611 202.384C37.6927 202.384 38.3023 202.384 38.6681 202.262C39.2778 202.14 39.7655 202.018 40.1313 201.774C40.497 201.53 40.8628 201.164 41.1067 200.798C41.3506 200.432 41.5944 200.066 41.7163 199.7C41.8383 199.334 42.0821 199.09 42.2041 198.724C42.8137 197.627 43.4234 196.407 44.1549 195.065C44.7646 193.723 45.4961 192.381 46.2277 190.917C46.9593 189.453 47.5689 187.989 48.3005 186.525C49.0321 185.061 49.7637 183.598 50.3733 182.134C51.1049 180.67 51.8365 179.206 52.568 177.864C53.2996 176.522 54.0312 175.18 54.7628 173.96C55.0066 173.594 55.2505 173.228 55.4943 172.74C55.7382 172.374 56.104 172.008 56.4698 171.765C56.8356 171.521 57.3233 171.155 57.811 170.911C58.7864 170.667 59.3961 170.423 60.0057 170.057ZM49.8856 173.35L49.7637 173.472H49.6417L49.8856 173.35Z" fill="white"/>
<path d="M77.5636 179.572C76.832 179.084 75.9785 178.84 75.0031 178.84C74.1496 178.84 73.418 178.84 72.5645 178.84C72.4425 178.84 72.0768 178.962 71.711 179.084C71.3452 179.206 70.8575 179.328 70.3698 179.45C69.882 179.572 69.3943 179.694 68.9066 179.816C68.4189 179.938 68.0531 180.06 67.8092 180.06C67.1996 180.182 66.7119 180.06 66.3461 179.938C66.1022 179.694 65.8584 179.572 65.7364 179.45L65.6145 177.132C65.6145 176.522 65.4926 175.912 65.4926 175.18C65.4926 174.448 65.3707 173.839 65.4926 173.107C65.4926 173.107 65.4926 172.985 65.8584 172.741C66.2242 172.497 66.5899 172.253 67.0777 172.009C67.5654 171.765 68.0531 171.521 68.6627 171.399L68.9066 171.277C69.3943 171.155 69.7601 171.033 70.1259 170.911C70.7355 170.667 71.2233 170.667 71.711 170.667C71.9548 170.667 72.4425 170.667 72.4425 170.667C72.4425 170.667 72.5645 170.667 72.9303 170.911C73.1741 171.033 73.418 171.277 73.6618 171.521C73.9057 171.765 74.1496 172.131 74.3934 172.497C74.6373 172.863 74.7592 173.229 74.7592 173.595L74.8811 174.205L76.7101 173.473L76.5881 173.107C75.8566 171.277 75.3689 170.301 74.6373 168.471L74.5153 168.105L74.1496 168.227C71.2233 168.837 69.882 169.203 66.9557 169.813C66.3461 169.935 65.7364 170.057 65.0049 170.301L62.8101 170.789C62.0786 171.033 61.347 171.155 60.6154 171.277C59.8838 171.399 59.2742 171.643 58.6645 171.765H58.5426L58.1768 172.131C57.933 172.375 57.933 172.375 57.933 172.497L57.811 172.863L58.4207 173.351H58.5426C58.7865 173.351 59.1523 173.351 59.3961 173.351C59.64 173.351 60.0058 173.351 60.2496 173.229C60.4935 173.229 60.7373 173.229 60.8593 173.351C60.8593 173.473 60.9812 173.717 60.9812 173.839L61.347 175.302C61.4689 175.668 61.4689 176.034 61.5908 176.278C61.7128 176.522 61.7128 176.766 61.7128 177.01L63.2979 187.867L63.6636 191.527C63.7856 192.381 63.6636 192.747 63.5417 192.747C63.4198 192.869 63.1759 192.991 62.8101 193.113C62.5663 193.113 62.4443 193.113 62.3224 193.235C62.2005 193.235 62.0786 193.357 61.8347 193.357C61.7128 193.357 61.4689 193.479 61.1031 193.479L59.0303 193.845L60.0058 195.065H60.2496C61.9566 194.943 62.8101 194.821 64.3952 194.699C66.468 194.577 67.5654 194.577 69.6382 194.577C70.4917 194.577 71.3452 194.577 72.0768 194.455C72.8083 194.333 73.418 194.211 74.0276 194.089C74.6373 193.967 75.125 193.723 75.7346 193.601C75.8566 193.479 76.1004 193.479 76.3443 193.357C76.7101 193.235 77.0759 193.113 77.3197 192.991C77.5636 192.869 77.8074 192.503 78.0513 192.137C78.1732 192.015 78.2952 191.893 78.4171 191.649C78.7829 191.161 79.1487 190.673 79.5145 190.063C79.8802 189.453 80.1241 188.843 80.368 188.233C80.6118 187.623 80.7337 186.892 80.6118 186.282C80.4899 184.452 80.246 182.988 79.6364 182.134C79.0267 180.792 78.4171 180.06 77.5636 179.572ZM75.3689 187.745C75.3689 187.989 75.2469 188.355 74.8811 188.965C74.5153 189.453 74.1496 190.063 73.5399 190.429C73.0522 190.917 72.4425 191.283 71.8329 191.649C71.1013 192.015 70.7355 192.137 70.3698 192.137C70.2478 192.137 70.004 192.137 69.6382 192.137C69.2724 192.137 69.0285 192.015 68.6627 192.015C68.4189 191.893 68.0531 191.893 67.8092 191.771C67.6873 191.771 67.6873 191.649 67.6873 191.649C67.6873 191.405 67.5654 191.039 67.5654 190.551C67.5654 190.063 67.4435 189.453 67.4435 188.721L67.3215 186.282C67.3215 185.794 67.1996 185.306 67.3215 184.94C67.4434 184.33 67.8092 183.842 68.0531 183.598C68.4189 183.232 69.0285 182.866 69.882 182.622C70.1259 182.5 70.3698 182.5 70.4917 182.256C70.7355 182.134 70.8575 182.012 71.1013 181.89C71.2233 181.768 71.4671 181.646 71.589 181.524C71.711 181.402 71.8329 181.402 72.0768 181.402C72.3206 181.28 72.5645 181.402 72.5645 181.402C72.8083 181.524 72.9303 181.768 73.0522 181.89C73.1741 182.012 73.2961 182.256 73.418 182.744C73.5399 183.11 73.6618 183.354 73.6618 183.72C73.9057 184.574 74.1496 185.306 74.5153 186.038C75.0031 186.648 75.2469 187.379 75.3689 187.745Z" fill="white"/>
<path d="M110.485 172.131C109.875 171.277 109.265 170.789 108.534 170.301C107.802 169.935 106.949 169.691 105.973 169.569C104.998 169.447 103.9 169.325 102.803 169.325H102.559C102.559 169.203 102.559 168.959 102.559 168.593C102.559 168.105 102.681 167.617 102.681 167.007C102.681 166.397 102.803 165.787 102.803 165.055L103.047 163.225C103.047 162.615 103.169 162.127 103.169 161.761C103.169 161.517 103.291 161.273 103.169 161.395C103.169 161.395 103.291 161.273 103.413 161.151C103.657 161.029 103.779 160.786 104.022 160.542L104.632 159.932C104.876 159.688 104.998 159.566 104.998 159.566L105.12 159.444V158.346L104.632 158.468C104.144 158.59 103.657 158.712 103.169 159.078C102.681 159.322 102.315 159.688 101.828 159.932C101.34 160.176 100.974 160.542 100.486 160.786C100.121 161.029 99.7549 161.151 99.3891 161.273C99.0233 161.395 98.5356 161.273 98.0478 161.273C97.5601 161.151 96.9505 161.152 96.4628 161.03H96.3408L95.4873 161.639V161.883C95.4873 162.005 95.6093 162.249 95.975 162.493C96.097 162.493 96.2189 162.615 96.3408 162.615L96.7066 162.737C96.8286 164.079 96.8285 165.299 96.8285 166.641C96.8285 167.983 96.8285 169.325 96.9505 170.545C95.4873 171.399 94.0242 172.131 92.683 172.985C91.3417 173.717 90.1224 174.692 88.9031 175.668C88.7812 175.302 88.6593 174.692 88.5374 174.082C88.4154 173.473 88.2935 172.741 88.1716 172.009L87.8058 169.691C87.6839 168.959 87.5619 168.349 87.5619 167.739C87.5619 167.373 87.44 167.007 87.44 166.763V166.519C87.44 166.031 87.3181 165.665 87.1961 165.421C87.0742 164.933 86.5865 164.689 86.0988 164.689C85.8549 164.689 85.4891 164.811 85.1233 164.933L83.7821 165.177C83.2944 165.299 82.9286 165.421 82.4409 165.421C82.0751 165.543 81.7093 165.543 81.4655 165.543L80.9777 165.787L80.7339 166.153V166.397C80.7339 166.885 81.3435 166.885 81.7093 166.885H82.6848C83.0505 166.885 83.4163 166.885 83.6602 166.885H83.7821C83.904 167.373 84.026 168.105 84.1479 168.959C84.2698 169.935 84.3918 171.155 84.5137 172.497C84.6356 173.839 84.7575 175.302 84.8795 176.766C85.0014 178.23 85.1233 179.816 85.2453 181.28C85.3672 182.744 85.3672 184.208 85.4891 185.55C85.6111 186.891 85.6111 187.989 85.6111 188.965C85.6111 189.453 85.6111 189.941 85.4891 190.307C85.4891 190.673 85.3672 191.039 85.2453 191.405C85.2453 191.405 85.2453 191.405 85.1233 191.527L84.6356 191.893C84.3918 192.015 84.2698 192.137 84.1479 192.259C83.904 192.503 83.7821 192.869 83.7821 192.991V193.479L85.0014 193.357L85.1233 193.235C85.4891 192.991 85.9768 192.747 86.5865 192.503C87.1961 192.259 87.6839 192.259 88.2935 192.259C88.2935 192.259 88.4154 192.259 88.5374 192.259C88.6593 192.259 88.9031 192.259 89.0251 192.381C89.2689 192.381 89.3909 192.503 89.5128 192.503C89.7566 192.503 89.8786 192.503 89.8786 192.503C90.2444 192.503 90.4882 192.625 90.7321 192.625C90.9759 192.625 91.0979 192.625 91.3417 192.625C91.5856 192.625 91.7075 192.625 91.7075 192.625H92.0733V191.527L91.8294 191.405C91.3417 191.039 90.9759 190.917 90.6102 190.673C90.6102 190.429 90.4882 190.185 90.4882 189.941L90.3663 188.721C90.2444 187.867 90.2444 186.891 90.1224 185.916C90.0005 184.94 89.8786 183.964 89.8786 183.11C89.7567 182.256 89.7566 181.402 89.6347 180.792C89.5128 180.182 89.3909 179.816 89.3909 179.694C89.3909 179.572 89.5128 179.206 89.8786 178.596C90.2444 178.108 90.7321 177.62 91.2198 177.01C91.7075 176.522 92.3172 175.912 92.9268 175.424C93.5365 174.936 94.0242 174.448 94.39 174.082C94.7558 173.717 95.2435 173.351 95.8531 173.229C96.3408 173.107 96.8286 172.985 97.1943 172.863C97.1943 172.985 97.1943 172.985 97.1943 173.107C97.1943 173.351 97.1943 173.595 97.1943 173.717L98.5356 191.405C98.5356 191.405 98.4136 191.405 98.4136 191.527L97.9259 191.771C97.6821 191.893 97.5601 192.015 97.4382 192.137C97.0724 192.381 97.0724 192.747 97.0724 192.869V192.991L97.5601 193.479H97.804C98.1698 193.357 98.5356 193.235 99.0233 193.113C99.3891 192.991 99.7548 192.869 100.121 192.869C100.364 192.869 100.73 192.869 101.096 192.991C101.462 193.113 101.828 193.113 102.193 193.235C102.559 193.357 102.925 193.479 103.169 193.601C103.535 193.723 103.779 193.845 104.144 193.967L104.51 194.089L104.998 192.869L104.632 192.625C104.144 192.381 103.779 192.137 103.291 192.015C102.925 191.893 102.681 191.771 102.559 191.649C102.315 191.527 102.072 191.405 101.95 191.161C101.828 191.039 101.706 190.673 101.706 190.185V189.575C101.706 189.209 101.706 188.721 101.706 188.233C101.706 187.501 101.706 186.648 101.706 185.672C101.706 184.696 101.706 183.842 101.828 182.744C101.828 181.768 101.95 180.792 101.95 179.816C102.072 176.888 102.072 175.302 102.193 172.375C102.315 171.887 102.437 171.765 102.437 171.765C102.681 171.643 102.925 171.643 103.291 171.643C104.51 171.521 105.607 171.643 106.461 171.887C107.314 172.131 108.168 172.863 108.9 173.96C109.021 174.204 109.265 174.448 109.387 174.692C109.387 174.814 109.509 174.936 109.509 175.18C109.509 175.424 109.509 175.546 109.387 175.668C109.265 175.912 109.021 176.034 108.778 176.278C108.534 176.522 108.29 176.644 107.924 176.888C107.68 177.132 107.436 177.254 107.193 177.376L105.12 177.742C104.754 177.864 104.632 177.864 104.51 177.986C104.266 178.108 104.266 178.474 104.266 178.718C104.266 178.84 104.266 178.84 104.388 178.962V179.084L104.632 179.45C104.754 179.572 104.876 179.694 104.876 179.816L105.12 180.182C105.242 180.304 105.242 180.426 105.364 180.426C105.607 180.792 105.973 180.914 106.339 180.914V180.426L106.583 180.914C106.705 180.914 106.827 180.914 107.071 180.67C107.193 180.548 107.436 180.548 107.558 180.426C107.802 180.304 107.924 180.304 108.046 180.182C108.168 180.06 108.29 180.06 108.412 180.06C108.778 179.938 109.021 179.816 109.265 179.694C109.509 179.572 109.875 179.328 109.997 179.084C110.363 178.596 110.607 178.23 110.728 177.986C110.972 177.742 111.094 177.498 111.216 177.254C111.338 177.01 111.582 176.766 111.704 176.4C111.826 176.156 111.948 175.668 112.192 175.058V174.936V174.692C111.46 173.961 110.972 172.863 110.485 172.131Z" fill="white"/>
<path d="M129.871 168.105C129.871 168.105 129.749 167.983 129.627 167.739C129.627 167.617 129.506 167.617 129.506 167.617V167.495C129.384 167.129 129.384 166.641 129.262 166.031C129.14 165.299 129.018 164.567 128.896 163.835C128.774 162.981 128.53 162.127 128.286 161.395C128.042 160.541 127.799 159.688 127.433 159.078C127.067 158.346 126.701 157.736 126.091 157.37C125.482 156.882 124.872 156.76 124.141 156.76C123.531 156.882 123.043 157.004 122.677 157.126C122.312 157.248 122.068 157.492 121.702 157.736C121.458 157.98 121.214 158.224 120.97 158.59C120.727 158.834 120.483 159.078 120.117 159.444C119.385 160.054 118.532 160.907 117.8 161.883C116.947 162.859 116.215 163.835 115.606 164.933C114.996 166.031 114.386 167.129 114.02 168.105C113.655 169.081 113.655 170.179 113.533 170.911V171.033C113.533 171.277 113.411 171.643 113.411 172.009C113.289 172.375 113.289 172.741 113.167 173.106C113.045 174.082 112.801 175.058 112.679 176.278C112.557 177.376 112.435 178.596 112.435 179.938C112.435 181.158 112.435 182.378 112.557 183.476C112.679 184.574 112.923 185.672 113.289 186.525C113.655 187.501 114.264 188.233 114.996 188.721H115.118C115.728 188.965 116.337 189.209 117.069 189.331C117.8 189.575 118.532 189.697 119.263 189.697C120.239 189.697 121.092 189.575 122.068 189.453C123.043 189.209 123.897 188.965 124.628 188.477C125.36 187.989 126.091 187.501 126.701 186.891C127.311 186.281 127.799 185.428 128.164 184.574C128.286 184.452 128.286 184.208 128.408 183.964C128.53 183.72 128.53 183.476 128.652 183.11C128.774 182.866 128.774 182.622 128.896 182.378C129.018 182.012 129.018 181.89 129.018 181.89C129.018 181.646 129.14 181.158 129.262 180.548L129.627 178.23C129.749 177.376 129.871 176.4 129.993 175.424C130.115 174.448 130.115 173.472 130.237 172.497C130.237 171.521 130.237 170.667 130.237 169.935C130.237 169.203 130.115 168.593 129.871 168.105ZM119.995 166.641C119.873 166.397 119.751 166.275 119.751 165.909C119.751 165.787 119.751 165.543 119.995 165.055C120.239 164.689 120.483 164.201 120.849 163.835C121.214 163.469 121.58 162.981 121.946 162.615C122.312 162.249 122.677 162.005 122.921 161.883H123.043C123.287 161.883 123.531 161.883 123.775 162.127C124.019 162.371 124.263 162.737 124.506 163.225C124.75 163.713 124.872 164.079 125.116 164.567C125.238 165.055 125.482 165.543 125.604 165.787C125.97 166.519 126.091 167.251 126.091 167.983C126.091 168.715 126.213 169.569 126.213 170.423C126.213 172.253 126.092 174.204 125.97 176.034C125.726 177.864 125.36 179.694 124.994 181.646C124.872 182.134 124.628 182.744 124.506 183.232C124.263 183.72 124.019 184.208 123.775 184.696C123.409 185.306 122.921 185.793 122.312 186.159C121.702 186.525 120.97 186.647 120.117 186.769C119.385 186.769 118.654 186.647 117.922 186.281C117.313 186.037 116.825 185.55 116.581 184.818C116.581 184.33 116.581 183.72 116.703 182.866C116.825 182.012 116.947 181.036 117.191 180.06C117.435 179.084 117.556 178.108 117.8 177.254C118.044 176.278 118.166 175.668 118.288 175.058C118.654 173.96 119.02 172.741 119.385 171.521C119.873 170.301 120.117 168.959 119.995 167.739C120.239 167.373 120.117 166.885 119.995 166.641Z" fill="white"/>
<path d="M158.159 154.076C154.501 155.174 152.672 155.784 149.014 156.882C148.283 157.004 148.161 157.125 148.039 157.247C147.917 157.369 147.917 157.369 147.795 157.491L147.673 157.613C147.429 158.101 147.063 158.955 146.576 160.419C146.088 161.761 145.478 163.469 144.869 165.299C144.259 167.129 143.527 169.203 142.796 171.276C142.064 173.35 141.455 175.302 140.845 177.132C140.235 178.962 139.626 180.548 139.138 182.012C139.016 182.5 138.772 182.865 138.65 183.231C138.528 181.89 138.406 180.426 138.284 178.84C138.041 176.522 137.919 174.082 137.797 171.642C137.675 169.081 137.553 166.641 137.431 164.201C137.309 161.761 137.309 159.565 137.431 157.735L137.553 157.613C137.797 157.491 138.041 157.247 138.284 157.125C138.65 156.882 138.894 156.76 139.26 156.638C139.504 156.516 139.748 156.394 139.991 156.272L140.235 156.15V154.808L139.626 155.052C139.382 155.174 139.016 155.296 138.894 155.418C138.65 155.54 138.528 155.54 138.284 155.662C138.041 155.784 137.797 155.784 137.553 155.906C137.309 156.028 136.821 156.028 136.456 156.028L135.724 156.15C135.48 156.15 135.358 156.15 135.114 156.15C134.87 156.15 134.627 156.15 134.383 156.15C134.139 156.15 133.651 156.028 133.163 156.028H132.92L132.432 156.638V156.76C132.432 157.004 132.554 157.247 132.92 157.369C133.041 157.491 133.285 157.491 133.529 157.613C133.773 157.735 133.895 157.735 134.017 157.857C134.139 159.199 134.139 160.785 134.261 162.371C134.261 164.079 134.383 165.787 134.383 167.617L134.505 173.106C134.505 174.936 134.505 176.644 134.627 178.23C134.627 179.816 134.627 181.28 134.627 182.622C134.627 183.353 134.627 183.963 134.627 184.573C134.627 185.061 134.627 185.427 134.627 185.793C134.627 185.915 134.627 186.159 134.627 186.647C134.627 187.013 134.627 187.501 134.505 187.867C134.383 188.355 134.383 188.721 134.261 189.087C134.139 189.331 134.139 189.453 134.139 189.453C133.895 189.575 133.773 189.575 133.529 189.575C133.285 189.575 132.92 189.697 132.676 189.697H132.31L132.188 191.039H132.676C133.163 191.039 133.651 191.161 134.017 191.283C134.383 191.405 134.87 191.527 135.358 191.771C135.968 192.015 136.212 192.137 136.821 192.381H136.943L138.163 192.137V191.771C138.163 191.527 138.284 191.283 138.406 190.917C138.528 190.551 138.528 190.429 138.528 190.429L138.65 190.307C138.894 189.819 139.26 189.087 139.748 187.989C140.235 186.891 140.723 185.671 141.333 184.207C141.942 182.744 142.552 181.158 143.284 179.45C143.893 177.742 144.625 176.034 145.234 174.326C145.844 172.618 146.576 170.91 147.185 169.325C147.795 167.739 148.405 166.275 148.892 164.933C149.38 163.713 149.868 162.615 150.234 161.883V161.761C150.234 162.005 150.234 162.371 150.355 162.737C150.477 163.957 150.599 165.543 150.721 167.373C150.843 169.203 150.965 171.276 151.087 173.472C151.209 175.668 151.331 177.864 151.331 179.938C151.453 182.012 151.453 183.963 151.575 185.671C151.575 186.403 151.697 187.135 151.697 187.745C151.697 188.477 151.819 189.087 151.819 189.453C151.819 189.575 151.819 189.697 151.819 189.697L151.453 189.941C151.209 190.185 150.965 190.429 150.721 190.551C150.355 190.795 150.234 190.917 150.112 190.917C149.746 191.161 149.38 191.405 149.014 191.527C148.648 191.771 148.283 192.015 148.039 192.381L147.795 192.625L148.039 192.869C148.161 193.113 148.405 193.235 148.648 193.235H149.38H149.502C149.99 193.113 150.355 192.869 150.721 192.747C151.087 192.625 151.453 192.381 151.697 192.259C152.062 192.137 152.306 192.015 152.672 191.893C153.038 191.771 153.404 191.771 153.891 191.893C154.379 191.893 154.745 191.893 155.111 191.893C155.476 191.893 155.842 191.893 156.086 191.893C156.086 191.893 156.208 191.893 156.452 191.893C156.574 191.893 156.818 191.893 157.062 191.893C157.305 191.893 157.427 191.893 157.549 191.893C157.671 191.893 157.793 191.893 157.793 191.893L158.159 191.771L158.281 191.649C158.403 191.527 158.525 191.405 158.525 191.039V190.917L158.403 190.795C158.281 190.673 158.159 190.551 158.037 190.551C157.915 190.551 157.915 190.551 157.915 190.551C157.671 190.551 157.427 190.429 156.94 190.307C156.452 190.185 156.086 190.063 155.964 190.063C155.598 189.941 155.476 189.941 155.476 189.941C155.355 189.941 155.355 189.819 155.233 189.697C155.233 189.575 155.111 189.331 155.111 189.209C155.111 189.087 155.111 188.965 154.989 188.843C154.989 188.721 154.867 188.477 154.867 188.355C154.745 187.135 154.867 185.549 154.989 183.963C154.989 183.109 155.111 182.256 155.111 181.28C155.233 178.596 155.355 175.79 155.476 172.984L155.842 164.567C155.842 163.591 155.842 162.615 155.842 161.639C155.842 159.809 155.842 158.223 156.086 157.369C156.086 157.247 156.33 157.004 157.305 156.394C157.793 156.028 158.403 155.784 158.89 155.54C159.134 155.418 159.256 155.174 159.256 155.052C159.256 154.93 159.256 154.686 159.134 154.564C158.891 154.076 158.525 153.954 158.159 154.076Z" fill="white"/>
<path d="M141.942 153.588C142.43 153.832 143.283 153.954 144.625 153.954C144.625 153.954 144.625 153.954 144.746 153.954C145.722 153.954 146.697 153.832 147.673 153.588C148.648 153.344 149.624 152.978 150.355 152.368C151.209 151.758 151.818 151.026 152.306 150.172C152.428 149.806 152.428 149.318 152.184 149.074C151.696 148.22 151.453 147.732 150.965 146.756L150.843 146.634C150.721 146.634 150.721 146.512 150.477 146.39C150.355 146.268 150.111 146.146 149.868 146.146L149.502 146.268C149.38 146.268 149.258 146.39 149.014 146.512C148.77 146.634 148.648 146.756 148.404 146.878C148.161 147 148.039 147.122 147.795 147.244L147.185 147.61V147.854C147.185 148.22 147.185 148.586 147.429 148.952L148.282 149.562C148.526 149.684 148.77 149.806 148.892 149.928V150.05C148.892 150.172 148.892 150.172 148.77 150.294C148.648 150.66 148.404 151.026 148.039 151.27C147.673 151.514 147.307 151.758 146.941 151.88C146.575 152.002 146.088 152.124 145.722 152.124C145.234 152.124 144.868 152.002 144.381 151.88C143.771 151.758 143.527 151.392 143.405 151.026C143.283 150.538 143.405 149.928 143.649 149.318L144.015 148.586L143.405 147.854L141.576 147.61L140.845 147.976L140.601 148.952C140.357 149.806 140.235 150.66 140.235 151.392C140.601 152.246 141.089 153.1 141.942 153.588Z" fill="white"/>
<path d="M202.297 179.694C202.419 178.84 202.541 177.864 202.541 176.888C202.663 175.79 202.663 174.692 202.785 173.594C202.785 172.496 202.785 171.399 202.785 170.301C202.785 169.325 202.663 168.349 202.419 167.495C202.175 166.641 201.932 166.031 201.444 165.665C200.956 165.177 200.347 164.689 199.859 164.323C199.249 163.835 198.64 163.347 197.908 162.859C197.176 162.371 196.567 162.005 195.957 161.517C195.347 161.151 194.738 160.785 194.372 160.541H194.25C194.25 160.541 194.25 160.541 194.006 160.419C193.884 160.419 193.64 160.297 193.519 160.175C193.397 160.175 193.153 160.053 193.031 160.053V159.931C193.031 159.687 193.031 159.444 193.031 159.2V158.468C193.031 158.224 193.031 158.102 193.031 157.98C193.031 157.614 193.153 157.37 193.397 157.126C193.64 156.882 194.006 156.638 194.372 156.394C194.738 156.15 194.982 156.028 195.347 155.906C195.713 155.784 196.079 155.662 196.079 155.296C196.079 154.93 196.079 154.686 195.835 154.442C195.713 154.32 195.469 154.198 195.104 154.076C194.25 154.076 193.519 154.198 192.665 154.442C192.055 154.686 191.324 154.808 190.714 154.808C190.592 154.808 190.47 154.808 190.226 154.808C189.983 154.808 189.739 154.808 189.495 154.686L188.763 154.564C188.519 154.564 188.397 154.564 188.276 154.442C186.569 153.954 185.715 153.71 184.008 153.344H183.886C183.642 153.344 183.52 153.466 183.398 153.588L183.155 153.832V154.198C183.155 154.686 183.276 155.174 183.764 155.418C184.13 155.662 184.496 155.784 184.862 156.028C185.227 156.15 185.593 156.394 185.959 156.516C186.203 156.638 186.325 156.76 186.447 157.004C186.447 157.126 186.569 157.492 186.569 158.224C186.569 158.834 186.447 159.444 186.447 159.809C186.447 160.053 186.325 160.297 186.081 160.419C185.837 160.663 185.593 160.785 185.227 160.907C184.862 161.029 184.496 161.151 184.008 161.273C183.52 161.395 183.155 161.517 182.789 161.761C181.448 162.493 180.35 163.347 179.497 164.445C178.643 165.421 177.912 166.641 177.302 167.861C176.692 169.081 176.205 170.423 175.717 171.765C175.351 173.106 174.863 174.448 174.376 175.668C174.254 176.156 174.01 176.522 173.766 176.888C173.522 177.376 173.4 177.864 173.278 178.474C173.156 179.45 173.522 180.426 174.132 181.646C174.741 182.744 175.473 183.842 176.448 184.94C177.424 186.037 178.399 187.013 179.375 187.745C180.472 188.599 181.326 189.209 182.057 189.331C182.179 189.331 182.423 189.453 182.789 189.575L183.764 189.819C184.13 189.941 184.496 189.941 184.74 190.063C184.983 190.063 185.105 190.185 185.227 190.185V190.307C185.227 190.551 185.227 190.795 185.227 191.161C185.227 191.527 185.227 191.771 185.227 192.137C185.227 192.503 185.227 192.747 185.227 192.869C185.227 192.869 185.227 193.113 185.227 193.479C185.227 193.845 185.227 194.089 185.227 194.211C185.105 194.943 184.983 195.431 184.618 195.797C184.252 196.163 183.886 196.407 183.52 196.529C183.155 196.651 182.667 196.773 182.423 196.773C182.179 196.773 181.448 196.895 181.448 197.383C181.448 197.627 181.448 197.749 181.448 197.871C181.448 198.115 181.691 198.358 182.057 198.48C182.667 198.602 183.276 198.724 184.008 198.846C184.74 198.968 185.471 199.09 186.081 199.334C187.3 199.7 188.641 200.188 189.983 200.676C190.104 200.676 190.226 200.798 190.348 200.798C190.47 200.798 190.592 200.92 190.592 200.92L190.714 201.042C190.836 201.164 190.958 201.164 191.08 201.164C191.202 201.164 191.324 201.286 191.446 201.286L191.811 201.408L192.543 200.066L192.299 199.822C190.958 198.724 190.226 198.236 188.763 197.139C188.641 197.017 188.519 196.895 188.397 196.651C188.276 196.285 188.276 196.163 188.276 196.163L188.885 190.551C188.885 190.551 189.007 190.551 189.129 190.429C189.495 190.307 189.861 190.185 190.226 190.063C190.714 189.941 191.08 189.819 191.568 189.697C192.055 189.575 192.421 189.453 192.665 189.331C193.884 188.599 195.226 187.867 196.567 187.013C197.908 186.159 199.249 185.428 200.468 184.452L201.688 183.354L202.297 179.694ZM192.421 164.079C192.421 163.713 192.421 163.347 192.543 163.103C192.665 163.103 192.909 163.225 193.031 163.225C193.762 163.957 194.25 164.445 194.86 164.933C195.347 165.421 195.835 165.787 196.079 166.275C196.323 166.763 196.567 167.251 196.689 167.739C196.811 168.349 196.811 169.081 196.689 170.057C196.567 170.667 196.567 171.521 196.445 172.862C196.323 174.082 196.201 175.302 195.957 176.644C195.713 177.986 195.469 179.206 195.226 180.426C194.982 181.524 194.616 182.378 194.25 182.866C194.25 182.988 194.006 183.11 193.397 183.72C192.909 184.208 192.421 184.696 191.811 185.184C191.202 185.671 190.714 186.159 190.104 186.525C189.861 186.769 189.617 186.891 189.495 186.891C189.495 186.403 189.495 186.037 189.495 185.793C189.495 185.306 189.617 184.818 189.617 184.208L189.739 182.744C189.739 182.378 189.861 181.646 189.983 180.792C190.104 179.816 190.226 178.84 190.348 177.742C190.47 176.644 190.592 175.546 190.836 174.57C191.08 173.594 191.08 172.74 191.202 172.253L191.568 170.179C191.69 169.325 191.811 168.593 191.933 167.739C192.055 166.885 192.177 166.031 192.299 165.177C192.421 164.811 192.421 164.445 192.421 164.079ZM186.081 182.256C186.081 182.622 186.081 182.988 186.081 183.354C186.081 184.33 186.081 185.306 185.837 186.037C185.837 186.037 185.715 186.159 185.593 186.159C185.227 186.159 184.983 186.159 184.862 186.159C184.74 186.159 184.496 186.037 184.008 185.671C183.642 185.306 183.276 184.94 182.911 184.452C182.545 183.964 182.179 183.476 181.813 182.988C181.691 182.744 181.326 182.134 181.204 181.89C181.082 181.524 181.082 181.158 180.96 180.792L180.838 180.06C180.716 179.328 180.594 178.596 180.472 177.864C180.35 177.132 180.228 176.4 180.228 175.668C180.106 174.936 180.106 174.326 180.228 173.716C180.35 172.984 180.472 172.009 180.838 170.911C181.204 169.813 181.569 168.593 182.179 167.617C182.789 166.519 183.52 165.665 184.252 164.811C184.983 164.079 185.837 163.713 186.934 163.835C186.934 163.957 186.934 164.079 186.934 164.201C186.812 166.519 186.812 168.959 186.812 171.399C186.812 173.96 186.69 176.278 186.569 178.596L186.081 182.256Z" fill="white"/>
<path d="M226.074 167.861C226.317 166.397 226.561 164.933 226.683 163.469C226.805 162.859 226.927 162.127 227.049 161.517C227.171 160.663 227.415 159.809 227.415 159.077C227.537 158.467 227.171 157.98 226.561 157.858L225.83 157.736C223.391 157.492 220.831 157.37 218.27 157.248C215.832 157.248 213.271 157.126 210.832 156.882H210.467V157.248C210.345 157.858 210.71 158.223 210.954 158.345L211.686 158.711C211.93 158.833 212.052 158.955 212.174 159.199C212.296 159.321 212.296 159.687 212.296 159.809C212.174 160.419 212.052 161.151 211.93 161.761C211.808 162.371 211.564 163.103 211.442 163.713C210.954 165.665 210.589 167.495 210.345 168.959L210.101 170.057C209.735 171.886 209.369 173.594 209.003 175.18L207.418 182.622C207.175 183.964 206.809 185.427 206.443 187.013C206.077 188.599 205.711 190.185 205.346 191.893C204.98 193.479 204.614 195.187 204.248 196.651C204.248 196.651 204.126 196.651 204.004 196.772C203.76 196.772 203.517 196.894 203.151 196.894C202.785 196.894 202.541 196.894 202.297 196.894C202.053 196.894 201.566 197.016 201.444 197.382V198.114L201.81 198.236C203.029 198.48 204.248 198.602 205.589 198.968C206.931 199.212 208.272 199.578 209.613 199.822C210.954 200.066 212.296 200.432 213.637 200.676C214.124 200.798 214.612 200.92 214.978 201.042C215.831 201.286 216.685 201.53 217.295 201.53C217.295 201.53 217.295 201.53 217.417 201.53C217.66 201.53 217.904 201.53 218.148 201.408C218.392 201.408 218.758 201.286 219.002 201.286C219.733 201.286 220.465 201.164 221.196 201.042C221.928 200.92 222.66 200.676 223.269 200.31C224.001 199.944 224.367 199.456 224.488 198.724C224.61 198.236 224.61 197.626 224.61 196.894C224.61 196.163 224.61 195.431 224.488 194.577C224.367 193.845 224.367 192.991 224.245 192.381C224.123 191.649 224.001 191.039 223.879 190.673C223.635 189.819 223.391 189.087 222.903 188.477C222.538 187.989 221.928 187.257 221.318 186.403C221.196 186.281 220.953 186.037 220.709 185.793C220.465 185.671 220.221 185.427 219.977 185.305C219.733 185.061 219.489 184.939 219.246 184.817C219.002 184.695 218.88 184.573 218.758 184.573L218.636 184.451L218.026 184.329L215.588 185.305C215.344 185.427 215.1 185.671 214.856 185.793C214.612 186.037 214.368 186.403 214.368 186.769C214.368 187.013 214.368 187.257 214.246 187.501C214.246 187.745 214.246 188.111 214.368 188.355C214.368 188.599 214.49 188.965 214.612 189.209C214.856 189.697 215.1 189.819 215.344 189.819C215.71 189.941 216.075 189.819 216.319 189.697C216.563 189.575 216.807 189.453 217.173 189.331C217.417 189.209 217.66 189.087 217.904 188.965C218.026 188.843 218.27 188.843 218.392 188.965C218.636 188.965 219.002 189.209 219.367 189.453C219.733 189.819 220.099 190.185 220.465 190.673C220.831 191.161 221.074 191.649 221.196 192.259C221.318 192.747 221.44 193.235 221.318 193.723C221.196 194.333 221.074 194.943 220.709 195.553C220.465 196.163 220.099 196.773 219.733 197.26C219.367 197.748 218.88 198.236 218.514 198.48C218.148 198.724 217.782 198.846 217.417 198.846L216.685 198.48C215.953 198.114 215.466 197.87 214.856 197.626C214.368 197.382 213.759 197.138 213.271 196.894C212.783 196.651 212.296 196.407 211.808 196.163C211.564 196.041 211.32 195.919 211.076 195.919C210.832 195.797 210.345 195.675 210.223 195.553C209.979 195.065 210.467 192.015 210.954 189.697C211.198 188.233 211.564 186.647 211.686 185.305C211.808 184.207 211.93 182.866 212.052 181.646C212.174 179.084 212.417 176.522 213.027 175.18C213.149 175.18 213.271 175.18 213.515 175.058C213.759 175.058 214.003 174.936 214.368 174.936L214.978 174.814C215.466 174.692 216.075 174.692 216.807 174.57H216.929C216.929 174.57 217.173 174.57 217.295 174.936C217.417 175.302 217.539 175.668 217.66 176.156C217.782 176.644 217.782 177.132 217.904 177.742C217.904 178.352 218.026 178.84 218.148 179.206L218.27 179.572H219.367V179.084C219.367 178.718 219.367 178.23 219.489 177.62L219.733 175.912C219.855 175.424 219.855 174.814 219.977 174.448L220.099 173.35C220.221 172.862 220.343 172.496 220.465 172.13C220.709 171.642 220.831 171.154 220.953 170.667L221.074 170.301C221.074 170.057 221.074 169.813 220.953 169.691L220.709 169.447H220.465C220.343 169.447 220.099 169.447 219.977 169.569C219.855 169.691 219.733 169.691 219.733 169.813H219.611L218.392 172.496C217.538 172.496 216.807 172.496 216.319 172.496H214.124C213.881 172.496 213.759 172.496 213.637 172.496C213.637 172.252 213.759 171.886 213.759 171.52C213.881 170.911 214.003 170.179 214.124 169.447C214.246 168.715 214.368 168.105 214.49 167.373C214.612 166.763 214.734 166.275 214.734 165.909L215.222 162.493C215.344 161.761 215.466 161.029 215.588 160.419C215.71 160.053 215.71 159.809 215.71 159.565H217.173C217.904 159.565 218.758 159.565 219.611 159.565L222.05 159.687C222.66 159.687 223.147 159.687 223.513 159.809C223.879 160.175 224.245 160.419 224.367 160.541C224.488 160.663 224.61 160.785 224.61 160.785C224.61 160.785 224.61 161.029 224.61 161.395C224.61 161.639 224.61 162.127 224.61 162.615V162.981C224.61 163.469 224.61 163.835 224.732 164.079C224.732 164.201 224.854 164.445 224.732 164.933L224.854 167.861L224.976 168.105L226.074 168.715V167.861Z" fill="white"/>
<path d="M260.336 160.419C260.214 160.053 259.848 159.809 259.482 159.931C255.581 160.541 253.63 160.785 249.85 161.517C249.118 161.517 248.874 161.639 248.752 161.761C248.631 161.883 248.509 161.883 248.509 162.005L248.387 162.127C248.021 162.615 247.411 163.835 246.68 165.543C245.948 167.251 244.851 169.447 243.875 171.887C242.778 174.326 241.681 176.888 240.461 179.572L237.047 187.257C235.95 189.697 235.096 191.771 234.243 193.479C233.999 193.967 233.755 194.455 233.511 194.943C233.755 193.113 233.877 191.039 234.243 188.721C234.609 185.427 235.096 182.012 235.462 178.596C235.95 175.058 236.438 171.643 236.925 168.227C237.413 164.811 238.023 161.761 238.51 159.078C238.51 159.078 238.51 158.956 238.754 158.834C238.998 158.712 239.364 158.468 239.608 158.346C239.974 158.224 240.339 157.98 240.583 157.858C240.949 157.736 241.193 157.614 241.315 157.492L241.559 157.37L241.802 155.784L241.071 156.028C240.705 156.15 240.461 156.272 240.217 156.272C239.974 156.394 239.852 156.394 239.608 156.516C239.364 156.516 239.12 156.638 238.876 156.638C238.632 156.638 238.145 156.638 237.779 156.638L236.925 156.516C236.681 156.516 236.56 156.394 236.316 156.394C236.072 156.272 235.828 156.272 235.584 156.15C235.34 156.028 234.974 155.906 234.487 155.662L234.243 155.54L233.633 156.272V156.394C233.633 156.638 233.633 156.882 233.999 157.248C234.121 157.37 234.365 157.492 234.487 157.736C234.609 157.858 234.853 157.98 234.974 158.224C235.096 158.346 235.096 158.346 235.096 158.468C234.853 160.419 234.487 162.493 234.243 164.811C233.877 167.129 233.511 169.569 233.146 172.131L231.926 179.694C231.56 182.256 231.195 184.574 230.707 186.769C230.341 188.965 229.975 191.039 229.732 192.747C229.61 193.723 229.488 194.577 229.366 195.309C229.244 195.919 229.122 196.529 229.122 197.017C229.122 197.261 229 197.627 228.878 198.236C228.756 198.846 228.634 199.334 228.39 199.944C228.268 200.554 228.024 201.042 227.903 201.53C227.659 202.018 227.537 202.14 227.659 202.14C227.415 202.262 227.293 202.262 227.049 202.262C226.805 202.262 226.439 202.262 226.074 202.262H225.708L225.342 203.604L225.708 203.726C226.196 203.848 226.561 204.092 226.927 204.336C227.293 204.58 227.659 204.946 228.146 205.312C228.634 205.8 228.878 206.044 229.366 206.532L229.488 206.654H230.829L230.951 206.288C231.073 205.922 231.195 205.556 231.439 205.068C231.682 204.458 231.682 204.458 231.682 204.458L231.804 204.336C232.17 203.726 232.658 202.75 233.389 201.286C234.121 199.944 234.853 198.358 235.828 196.407C236.803 194.577 237.779 192.503 238.876 190.307C239.974 188.111 240.949 185.915 242.046 183.72C243.144 181.524 244.119 179.328 245.217 177.254C246.192 175.18 247.167 173.35 248.021 171.643C248.874 170.057 249.484 168.715 250.094 167.739C250.094 167.739 250.094 167.739 250.094 167.617C250.094 167.983 249.972 168.471 249.972 169.081C249.728 170.789 249.484 172.984 249.118 175.546C248.752 178.108 248.387 180.914 248.021 183.964C247.533 187.013 247.167 189.941 246.68 192.869C246.314 195.797 245.826 198.358 245.582 200.676C245.46 201.652 245.338 202.628 245.217 203.482C245.095 204.458 244.973 205.312 244.851 205.922C244.851 206.166 244.729 206.288 244.729 206.41L244.363 206.776C244.119 207.02 243.753 207.264 243.51 207.508C243.144 207.874 242.9 207.874 242.9 207.874C242.412 208.118 242.046 208.362 241.681 208.484C241.315 208.728 240.949 208.972 240.461 209.46L240.339 209.704L240.461 209.948C240.461 210.07 240.583 210.436 240.949 210.558L241.681 210.801H241.802C242.29 210.68 242.778 210.558 243.144 210.314C243.51 210.192 243.875 210.07 244.241 209.948C244.607 209.826 244.851 209.826 245.217 209.704C245.582 209.704 245.948 209.704 246.436 209.826C246.802 209.948 247.289 210.07 247.655 210.07C248.021 210.07 248.265 210.192 248.631 210.314C248.631 210.314 248.752 210.314 248.996 210.436C249.118 210.436 249.362 210.436 249.606 210.558C249.85 210.558 249.972 210.558 250.094 210.68C250.216 210.68 250.338 210.68 250.338 210.68L250.581 210.801L250.947 210.558C251.069 210.436 251.191 210.314 251.191 210.07V209.826V209.704C251.191 209.582 251.069 209.46 250.947 209.338C250.825 209.216 250.703 209.216 250.825 209.216C250.703 209.094 250.338 208.972 249.972 208.728C249.606 208.484 249.24 208.24 248.996 208.118C248.752 207.996 248.631 207.874 248.509 207.752C248.387 207.63 248.387 207.508 248.387 207.264C248.387 207.02 248.387 206.776 248.387 206.41C248.387 206.288 248.387 206.044 248.387 205.922C248.387 205.678 248.387 205.434 248.387 205.19C248.631 203.482 248.996 201.408 249.606 199.09C249.85 197.993 250.094 196.773 250.338 195.553C251.069 191.893 251.801 188.233 252.654 184.33L255.093 172.984C255.337 171.643 255.581 170.301 255.824 168.959C256.19 166.519 256.556 164.201 257.166 163.103C257.288 162.981 257.531 162.615 258.629 162.005C259.238 161.761 259.726 161.517 260.336 161.273C260.336 161.273 260.458 160.907 260.336 160.419Z" fill="white"/>
<path d="M111.582 199.701C111.826 199.701 111.826 199.701 112.07 199.701C112.435 199.945 112.679 200.433 112.679 201.165C112.679 204.58 112.679 206.776 112.679 207.508C112.801 209.46 112.801 210.436 112.801 212.266C112.923 212.754 112.923 212.876 112.923 213.364C115.849 209.826 116.703 205.434 117.191 202.262C117.313 201.165 118.044 200.311 118.166 200.189C118.288 200.189 118.288 200.189 118.41 200.189C119.02 200.189 119.507 204.336 119.629 212.51C119.629 214.95 119.507 216.291 118.898 216.535C118.654 216.535 118.654 216.535 118.41 216.535C117.922 216.535 117.557 215.315 117.435 212.632C117.435 211.656 117.435 211.168 117.313 210.07H117.191C115.362 213.852 114.021 215.803 112.801 215.925C112.679 215.925 112.557 215.925 112.435 215.925C111.338 215.925 110.728 214.828 110.607 212.632C110.485 210.192 110.485 208.85 110.363 206.41C110.607 202.75 110.85 200.433 111.582 199.701Z" fill="white"/>
<path d="M133.651 200.067C135.114 200.189 136.089 201.165 136.333 202.628C136.333 202.75 136.211 202.872 135.967 203.116C135.846 203.116 135.724 203.116 135.602 203.116C135.114 202.628 134.504 202.262 133.773 202.14C133.651 202.14 133.529 202.14 133.407 202.14C131.456 203.726 130.481 206.044 130.481 209.094C130.481 209.46 130.481 209.704 130.481 210.07C130.481 212.144 131.822 213.242 134.504 213.242C134.992 213.242 136.211 213.12 138.406 212.998C138.528 212.998 138.65 213.12 138.65 213.242C137.918 214.949 136.211 215.803 133.895 215.803C131.456 215.803 129.749 214.584 128.896 212.266C128.652 211.29 128.53 210.924 128.53 210.924C128.53 206.776 129.627 203.482 131.822 200.921C132.553 200.311 133.163 200.067 133.651 200.067Z" fill="white"/>
<path d="M145.722 200.92C147.673 201.042 148.892 202.14 149.502 204.214C149.502 204.336 149.502 204.458 149.502 204.58C149.38 206.776 147.429 208.484 143.527 209.704C143.284 209.704 143.162 209.704 142.918 209.704C142.796 209.704 142.674 209.582 142.552 209.338C142.552 209.216 142.552 209.094 142.552 208.972C142.918 208.484 144.259 207.386 146.576 205.8C147.185 205.19 147.429 204.702 147.551 204.336C147.063 203.726 146.332 203.36 145.6 203.238C144.015 203.116 142.796 204.58 141.942 207.63C141.942 207.63 141.82 208.24 141.82 209.338C141.698 211.534 142.674 212.875 144.625 213.363C144.869 213.363 144.991 213.363 145.234 213.363C145.844 213.363 147.185 212.875 149.258 212.022C149.502 211.9 149.868 211.9 150.112 211.9H150.234C150.355 211.9 150.355 212.022 150.477 212.022C150.477 213.363 149.258 214.461 146.819 215.681C146.332 215.803 145.966 215.925 145.844 215.925C145.234 215.925 144.991 215.925 144.381 215.925C142.43 215.925 140.967 214.339 140.113 211.29C139.991 210.802 139.991 210.436 139.991 209.948C139.991 209.582 139.991 209.338 139.991 208.972C140.113 205.068 141.455 202.384 144.381 201.042C144.747 200.92 145.234 200.92 145.722 200.92Z" fill="white"/>
<path d="M159.866 201.897C160.232 202.263 160.476 203.97 160.597 207.142C160.476 209.094 160.476 210.192 160.354 212.144C160.354 212.998 160.476 214.462 160.232 215.56C160.11 216.047 159.866 216.413 159.744 216.413C159.622 216.413 159.622 216.413 159.5 216.413C158.89 216.169 158.525 214.462 158.769 211.534C158.89 209.338 159.012 207.63 159.134 206.776C159.134 206.532 159.134 206.288 159.134 206.044C159.134 205.922 159.134 205.922 159.256 205.8C159.256 205.8 159.256 205.8 159.256 205.678C159.256 205.678 159.256 205.678 159.134 205.678C159.134 205.8 158.403 207.02 156.818 209.338C156.818 209.582 156.696 209.704 156.452 209.826C156.33 209.826 156.208 209.826 155.964 209.826C154.745 208.606 153.769 207.264 153.038 205.922C153.038 206.166 153.038 206.41 153.16 206.654C153.038 209.948 152.916 211.656 152.794 215.072C152.794 215.681 152.55 215.925 152.062 215.925C151.575 215.925 151.331 215.559 151.331 215.072C151.331 213.608 151.453 212.876 151.453 211.534C151.575 209.46 151.453 206.41 151.697 203.238C151.819 202.019 152.062 201.287 152.184 201.287C152.184 201.287 152.184 201.287 152.306 201.287C152.428 201.287 152.916 202.507 153.891 204.824C154.501 206.044 155.354 207.264 156.33 208.24C157.061 207.02 157.915 205.922 159.134 204.946C159.134 204.946 159.134 204.946 159.256 204.946C159.256 204.824 159.256 204.824 159.134 204.702C159.134 204.58 159.256 204.458 159.256 204.336C159.256 204.092 159.256 203.97 159.134 203.848C159.378 202.507 159.622 201.897 159.866 201.897Z" fill="white"/>
<path d="M163.28 202.628C163.524 202.628 163.524 202.628 163.767 202.628C164.133 202.872 164.377 203.36 164.255 203.848C164.011 206.654 163.767 208.484 163.767 208.972C163.646 210.558 163.646 211.29 163.524 212.876C163.524 213.242 163.524 213.364 163.646 213.73C166.816 211.168 168.035 207.508 168.767 205.19C169.01 204.336 169.742 203.726 169.986 203.726C170.108 203.726 170.108 203.726 170.23 203.726C170.839 203.848 170.961 207.142 170.596 213.73C170.474 215.681 170.108 216.779 169.62 216.901C169.376 216.901 169.376 216.901 169.132 216.901C168.645 216.901 168.401 215.803 168.523 213.73C168.523 212.876 168.645 212.51 168.645 211.656H168.523C166.45 214.584 164.865 215.925 163.646 215.925C163.524 215.925 163.402 215.925 163.28 215.925C162.182 215.803 161.695 214.949 161.817 213.12C161.939 211.046 161.939 210.07 162.06 207.996C162.06 204.946 162.426 203.116 163.28 202.628Z" fill="white"/>
<path d="M188.641 206.776C189.007 207.142 189.251 208.606 189.251 211.29C189.129 212.997 189.007 213.851 188.763 215.559C188.641 216.291 188.763 217.511 188.519 218.487C188.397 218.975 188.153 219.219 188.031 219.219C187.909 219.219 187.909 219.219 187.909 219.219C187.3 218.975 187.056 217.511 187.3 215.071C187.544 213.119 187.665 211.778 187.787 211.046C187.787 210.802 187.787 210.68 187.787 210.436C187.787 210.314 187.909 210.314 187.909 210.314C187.909 210.314 187.909 210.314 187.909 210.192C187.909 210.192 187.909 210.192 187.787 210.192C187.787 210.314 186.934 211.29 185.349 213.119C185.349 213.241 185.227 213.363 184.983 213.485C184.861 213.485 184.739 213.485 184.495 213.363C183.276 212.143 182.422 211.046 181.813 209.826C181.813 210.07 181.813 210.192 181.813 210.436C181.569 213.241 181.447 214.705 181.203 217.633C181.203 218.121 180.837 218.365 180.35 218.243C179.862 218.243 179.618 217.877 179.74 217.389C179.862 216.169 179.862 215.559 179.984 214.339C180.106 212.509 180.106 209.948 180.594 207.264C180.715 206.166 181.081 205.556 181.203 205.678C181.203 205.678 181.203 205.678 181.325 205.678C181.447 205.678 181.935 206.776 182.666 208.85C183.276 209.948 184.008 211.046 184.983 212.021C185.715 211.046 186.69 210.192 187.909 209.46C187.909 209.46 187.909 209.46 188.031 209.46C188.031 209.338 188.031 209.338 187.909 209.216C187.909 209.094 188.031 208.972 188.031 208.85C188.031 208.728 188.031 208.606 188.031 208.362C188.153 207.264 188.397 206.776 188.641 206.776Z" fill="white"/>
<path d="M196.567 208.484C198.396 208.85 199.615 209.826 200.103 211.412C200.103 211.534 200.103 211.534 200.103 211.656C199.859 213.364 197.786 214.34 193.884 214.827C193.64 214.827 193.518 214.827 193.275 214.705C193.153 214.705 193.031 214.583 193.031 214.34C193.031 214.218 193.031 214.218 193.031 214.096C193.396 213.73 194.738 213.12 197.176 212.144C197.786 211.778 198.152 211.412 198.152 211.168C197.664 210.558 197.054 210.314 196.323 210.07C194.738 209.826 193.396 210.802 192.421 213.12C192.421 213.12 192.299 213.608 192.177 214.461C191.933 216.169 192.787 217.389 194.616 217.877C194.86 217.877 194.982 217.877 195.103 217.999C195.713 218.121 197.054 217.877 199.249 217.389C199.493 217.389 199.859 217.389 200.103 217.389H200.225C200.346 217.389 200.346 217.511 200.468 217.511C200.346 218.487 199.005 219.219 196.567 219.951C196.079 220.073 195.713 220.073 195.591 219.951C194.982 219.829 194.738 219.829 194.128 219.707C192.177 219.463 190.836 218.121 190.226 215.559C190.226 215.193 190.226 214.827 190.226 214.583C190.226 214.34 190.226 214.096 190.348 213.852C190.714 210.802 192.299 208.972 195.225 208.24C195.591 208.362 196.079 208.484 196.567 208.484Z" fill="white"/>
<path d="M209.369 211.29C209.613 211.29 209.613 211.412 209.857 211.412C210.344 211.534 210.466 212.51 210.466 214.461C210.466 214.827 210.344 214.949 210.344 215.315C210.222 215.925 209.979 216.535 209.491 217.023C209.247 220.195 209.247 222.391 209.247 223.123C209.247 223.733 208.759 224.099 207.906 223.977C204.248 223.367 202.419 223.001 202.419 222.757C202.419 222.635 202.419 222.513 202.419 222.391V222.269C202.419 221.781 203.151 221.659 204.492 221.903C204.858 221.903 204.98 222.025 205.345 222.025C205.589 222.025 206.321 222.269 207.784 222.635C207.662 221.049 207.662 219.585 207.906 218.365C207.174 218.487 206.93 218.609 206.199 218.731C205.833 218.731 205.589 218.731 205.467 218.731C204.98 218.609 204.736 218.609 204.248 218.487C202.419 217.999 201.687 217.023 201.809 215.681C201.809 215.559 201.809 215.437 201.809 215.193C202.053 213.608 203.273 212.266 205.467 211.534C205.955 211.412 206.443 211.412 207.052 211.534C207.174 211.534 207.174 211.534 207.296 211.534C207.784 211.656 208.272 211.9 208.637 212.388C208.759 211.534 209.003 211.168 209.369 211.29ZM203.516 215.559C203.516 216.291 203.76 216.779 204.492 216.901C204.858 216.901 204.98 217.023 205.345 217.023C206.321 217.145 207.174 216.901 207.906 216.291C208.028 215.681 208.15 215.071 208.272 214.705C208.272 214.583 208.272 214.461 208.272 214.339C208.15 214.339 208.15 214.339 208.15 214.339C208.15 214.339 208.15 214.339 208.028 214.339C207.906 214.339 207.906 214.217 207.906 214.217C207.906 214.095 207.906 214.095 207.906 213.974C208.028 213.242 207.784 212.876 207.296 212.754C207.174 212.754 207.174 212.754 207.052 212.754C205.833 212.51 204.614 213.364 203.638 215.437C203.516 215.437 203.516 215.437 203.516 215.559Z" fill="white"/>
<path d="M213.271 212.144C213.515 212.144 213.515 212.266 213.759 212.266C214.125 212.51 214.246 212.876 214.246 213.242C213.881 215.316 213.515 216.657 213.393 217.023C213.271 218.243 213.149 218.731 213.027 219.951C213.027 220.195 213.027 220.317 213.027 220.683C216.319 219.097 217.904 216.413 218.514 214.95C218.758 214.34 219.489 213.974 219.733 213.974C219.855 213.974 219.855 213.974 219.977 213.974C220.587 214.096 220.465 216.657 219.733 221.537C219.489 223.001 219.124 223.733 218.514 223.733C218.27 223.733 218.27 223.733 218.026 223.611C217.539 223.489 217.417 222.635 217.539 221.171C217.66 220.561 217.66 220.317 217.782 219.707H217.66C215.466 221.537 213.759 222.513 212.661 222.269C212.539 222.269 212.418 222.269 212.296 222.269C211.198 222.025 210.711 221.293 210.954 219.951C211.198 218.365 211.32 217.633 211.442 216.169C211.93 213.73 212.418 212.388 213.271 212.144Z" fill="white"/>
<path d="M223.635 212.998C223.757 212.998 223.879 213.12 223.879 213.364C223.879 213.486 223.879 213.608 223.757 213.73C223.635 214.096 223.635 214.583 223.635 214.949C223.635 215.071 223.513 215.193 223.513 215.315C223.513 215.803 223.513 216.169 223.391 216.535C223.391 216.901 223.147 217.511 223.025 218.365C223.025 218.365 223.025 218.365 223.025 218.487C223.025 218.487 223.025 218.487 223.147 218.487C224.732 217.389 226.561 216.657 228.634 216.291C228.878 216.169 229.365 216.169 229.853 216.413C229.853 216.535 229.975 216.535 229.975 216.657C229.853 217.145 227.902 217.877 224 219.341V219.463C224.61 220.561 225.707 222.025 227.171 223.855C227.414 224.465 227.414 224.831 227.414 224.953C227.293 225.197 227.049 225.197 226.805 225.197C226.195 224.831 225.098 223.733 223.757 221.659C223.269 220.927 223.025 220.317 222.903 219.951C222.903 219.951 222.903 219.951 222.781 219.951C222.415 221.171 222.293 222.269 222.172 222.879C221.928 223.977 221.44 224.587 221.074 224.465C220.586 224.343 220.465 223.855 220.708 222.879C220.83 221.903 220.952 221.415 221.074 220.439C221.806 217.023 222.415 214.827 222.781 213.608C223.025 212.998 223.269 212.876 223.635 212.998Z" fill="white"/>
<path d="M236.194 217.999C236.804 218.121 237.047 218.243 237.657 218.365C238.632 218.609 239.608 219.585 240.583 220.927C240.949 221.903 241.193 222.635 241.071 223.245C241.071 223.367 241.071 223.489 240.949 223.611C240.583 225.563 238.754 226.661 235.706 227.027C235.462 227.027 235.097 227.027 234.609 226.905C234.243 226.783 233.999 226.783 233.633 226.661C231.439 226.173 229.975 224.587 230.097 222.635C230.219 219.341 231.804 217.267 233.146 217.633C233.39 217.755 233.511 217.755 233.755 217.877C234.609 217.755 235.462 217.755 236.194 217.999ZM232.17 221.293C231.804 223.245 232.17 224.465 232.658 224.831C233.024 225.075 233.511 225.441 234.243 225.563C235.584 225.929 237.047 225.441 238.632 224.465C238.998 223.977 239.242 223.489 239.242 223.245C239.242 223.001 239.364 222.757 239.364 222.513C239.486 221.781 238.998 220.805 237.779 219.585C237.413 219.341 237.169 219.219 236.925 219.219C236.682 219.097 236.56 219.097 236.316 218.975C234.365 218.731 233.389 219.097 233.268 219.829C233.146 220.195 232.902 220.439 232.414 220.439C232.292 220.927 232.17 221.171 232.17 221.293Z" fill="white"/>
<path d="M245.46 220.439C245.826 220.561 245.948 220.561 246.191 220.683C247.533 221.415 248.264 223.001 247.777 224.099C247.655 224.343 247.289 224.587 247.045 224.831C247.898 225.319 248.63 225.929 249.118 226.783C249.362 227.271 249.484 228.003 249.24 228.857C249.118 229.589 248.142 229.832 246.191 229.832C245.094 229.589 244.606 229.467 243.509 229.223C243.265 229.101 243.265 229.101 243.021 229.101C243.021 229.223 243.021 229.345 243.021 229.467C243.021 229.467 243.021 229.467 243.021 229.589C242.899 229.954 242.655 230.076 242.168 229.954C241.436 229.833 241.192 229.223 241.436 228.125C241.558 227.515 241.558 227.271 241.68 226.661C241.68 225.197 241.802 224.221 241.802 223.733C241.924 223.367 241.924 223.123 242.046 222.757C242.168 222.391 242.29 222.147 242.534 221.903C242.534 221.781 242.534 221.781 242.412 221.781C242.412 221.659 242.412 221.659 242.412 221.537C242.412 221.537 242.412 221.537 242.534 221.537C242.534 221.537 242.534 221.415 242.412 221.415C242.412 221.171 242.412 221.171 242.534 220.927C242.534 220.805 242.655 220.805 242.899 220.805C243.021 220.805 243.021 220.805 243.021 220.805C243.265 220.927 243.265 220.927 243.509 221.049C244.484 220.439 245.094 220.317 245.46 220.439ZM243.997 222.391C243.997 223.123 243.997 223.611 244.119 223.733C244.606 224.221 246.313 223.733 246.557 222.879C246.679 222.513 246.435 222.025 245.948 221.537C245.826 221.537 245.826 221.537 245.826 221.537C245.094 221.293 244.484 221.659 243.997 222.391ZM243.753 224.831C243.753 224.953 243.753 224.953 243.753 224.831C243.753 224.953 243.753 225.075 243.753 225.197C243.631 225.807 243.631 226.051 243.509 226.661C243.387 227.149 243.387 227.515 243.509 227.759C243.631 227.759 243.631 227.759 243.631 227.759C243.997 227.881 244.241 227.881 244.606 228.003C244.972 228.125 245.216 228.125 245.582 228.247C247.655 228.735 248.752 228.735 248.874 228.369C248.874 228.247 248.996 228.125 249.118 228.125C249.24 227.271 248.752 226.661 247.533 226.051C246.923 225.685 246.557 225.563 245.826 225.319C245.216 225.197 244.606 225.075 243.753 224.831Z" fill="white"/>
<path d="M9.40514 157.126C10.7464 156.882 11.7218 157.126 11.8437 157.37C11.7218 158.102 9.77092 158.834 5.99112 159.81C5.99112 159.81 5.99112 159.81 5.99112 159.932C6.84462 161.64 7.82006 164.08 8.91742 167.495C9.649 169.569 9.89285 170.545 10.6244 172.619C10.6244 172.741 10.6244 172.863 10.3806 173.107C10.2586 173.107 10.1367 173.229 10.0148 173.229C9.649 173.351 9.16128 172.497 8.55163 170.667C8.4297 170.301 8.06392 169.081 7.45427 167.007C6.84462 165.056 6.23498 163.592 5.99112 162.738C5.99112 162.616 5.99112 162.616 5.99112 162.494C5.86919 162.372 5.86919 162.25 5.74726 162.25C5.5034 161.64 5.38147 161.03 5.25954 160.176C3.91832 160.542 3.18674 160.908 3.06482 161.03C3.06482 161.03 2.94289 161.03 2.94289 160.908C2.5771 161.03 2.45517 161.152 2.08938 161.274C1.84552 161.396 1.60166 161.396 1.35781 161.518C0.992018 161.64 0.748159 161.518 0.62623 161.274C0.382371 160.786 0.992018 160.054 2.45517 159.444C3.18674 159.078 5.86919 157.858 9.40514 157.126Z" fill="white"/>
<path d="M18.428 155.052C20.3789 154.564 21.964 155.296 23.1833 156.882C23.1833 157.004 23.1833 157.126 23.3052 157.248C23.9149 159.322 22.3298 161.518 18.9158 163.957C18.6719 164.079 18.55 164.079 18.3061 164.079C18.1842 164.079 18.0622 163.957 17.8184 163.835C17.8184 163.713 17.6965 163.591 17.6965 163.469C17.8184 162.859 18.9158 161.518 20.7447 159.2C21.1105 158.468 21.3543 157.858 21.2324 157.492C20.5008 157.004 19.7693 156.882 18.9158 157.126C17.2087 157.492 16.4772 159.322 16.5991 162.493C16.5991 162.493 16.721 163.103 16.9649 164.201C17.5745 166.275 18.9158 167.373 20.9885 167.129C21.2324 167.007 21.3543 167.007 21.5982 167.007C22.2078 166.885 23.4271 165.909 25.2561 164.445C25.4999 164.323 25.7438 164.201 26.1096 164.079H26.2315C26.3534 164.079 26.3534 164.079 26.4754 164.201C26.8412 165.421 25.9876 167.007 23.9149 168.837C23.5491 169.081 23.1833 169.325 23.0613 169.325C22.4517 169.569 22.0859 169.569 21.5982 169.813C19.6473 170.423 17.6965 169.447 15.8675 166.763C15.6237 166.397 15.5017 165.909 15.3798 165.543C15.2579 165.177 15.2579 165.055 15.1359 164.689C14.0386 161.03 14.6482 157.98 17.0868 155.784C17.3307 155.418 17.8184 155.174 18.428 155.052Z" fill="white"/>
<path d="M27.8164 153.101C29.6454 152.735 31.3524 153.833 32.9374 156.15C33.1813 156.76 33.4252 157.37 33.5471 157.858C33.791 158.834 33.3032 159.81 31.962 161.03C31.4743 161.396 30.9866 161.64 30.3769 161.762C30.255 161.762 30.255 161.762 30.255 161.762C29.6454 161.884 29.2796 161.884 28.9138 161.762C29.0357 162.128 29.0357 162.372 29.1576 162.86C29.5234 163.958 30.255 165.91 30.3769 167.739C30.3769 168.105 30.1331 168.471 29.7673 168.593C29.5234 168.593 29.1576 168.471 29.0357 168.105C28.3041 166.886 28.0603 165.056 27.8164 163.958C27.6945 163.592 27.6945 163.348 27.5726 162.86C26.7191 160.298 26.1094 158.712 25.9875 157.98C25.8655 157.614 25.8655 157.492 25.7436 157.248C25.2559 154.808 25.9875 153.467 27.8164 153.101ZM26.841 155.906C26.9629 156.028 26.9629 156.028 26.9629 156.028C26.9629 156.15 27.0848 156.272 27.0848 156.394C27.0848 156.394 27.0848 156.516 26.9629 156.516C27.0848 156.638 27.0848 156.638 27.0848 156.638C27.6945 158.346 28.0603 159.444 28.1822 160.054C28.3041 160.42 28.3041 160.542 28.4261 160.908C28.4261 161.03 28.548 161.03 28.6699 161.03C30.6208 159.932 31.7182 159.2 31.7182 158.834C32.0839 158.102 32.0839 157.492 31.962 157.004C31.7182 156.028 30.6208 155.174 28.548 154.199C28.3041 154.199 28.1822 154.199 28.0603 154.199C27.9383 154.321 27.3287 154.93 26.841 155.906Z" fill="white"/>
<path d="M36.2296 151.515C38.0585 151.149 39.6436 152.247 41.2287 154.442C41.4725 155.052 41.7164 155.54 41.8383 156.028C42.0822 156.882 41.4725 157.858 40.1313 159.078C39.6436 159.444 39.1559 159.688 38.5462 159.81C38.4243 159.81 38.4243 159.81 38.4243 159.81C37.8146 159.932 37.4489 159.932 37.0831 159.81C37.205 160.176 37.205 160.42 37.3269 160.786C37.5708 161.884 38.3024 163.714 38.4243 165.422C38.4243 165.788 38.1804 166.154 37.8146 166.276C37.5708 166.276 37.205 166.154 37.0831 165.788C36.4734 164.568 36.2296 162.86 35.9857 161.762C35.8638 161.396 35.8638 161.152 35.7418 160.786C34.8883 158.346 34.4006 156.882 34.2787 156.15C34.1568 155.906 34.1568 155.662 34.0348 155.418C33.5471 153.101 34.4006 151.759 36.2296 151.515ZM35.1322 154.198C35.1322 154.32 35.2541 154.32 35.2541 154.32C35.2541 154.442 35.2541 154.564 35.3761 154.686C35.3761 154.686 35.3761 154.808 35.2541 154.808C35.2541 154.93 35.3761 154.93 35.3761 154.93C35.8638 156.516 36.2296 157.614 36.3515 158.224C36.4734 158.59 36.4734 158.712 36.5954 159.078C36.5954 159.2 36.7173 159.2 36.8392 159.2C38.7901 158.102 39.8874 157.492 40.0094 157.126C40.3752 156.394 40.4971 155.784 40.3752 155.418C40.1313 154.442 39.0339 153.589 37.0831 152.735C36.8392 152.735 36.7173 152.735 36.5954 152.735C36.2296 152.735 35.6199 153.345 35.1322 154.198Z" fill="white"/>
<path d="M42.57 150.417C42.8139 150.417 42.8139 150.417 43.0577 150.295C43.5455 150.417 43.7893 150.783 43.9112 151.271C44.399 153.832 44.5209 155.418 44.6428 155.906C45.0086 157.248 45.1305 157.98 45.3744 159.322C45.4963 159.688 45.6183 159.81 45.7402 160.054C48.3007 156.76 48.6665 153.344 48.7884 151.149C48.7884 150.295 49.3981 149.563 49.6419 149.563C49.7639 149.563 49.7639 149.563 49.8858 149.563C50.4954 149.441 51.4709 152.369 52.6902 158.102C53.0559 159.81 52.934 160.786 52.4463 161.152C52.2024 161.152 52.2024 161.274 51.9586 161.274C51.4709 161.396 50.9831 160.542 50.4954 158.712C50.3735 157.98 50.2516 157.614 50.1296 156.882H50.0077C48.6665 159.932 47.3253 161.762 46.2279 162.006C46.106 162.006 45.984 162.006 45.8621 162.128C44.7648 162.372 44.0332 161.762 43.6674 160.054C43.3016 158.224 43.0577 157.37 42.57 155.54C41.9604 152.856 41.9604 151.149 42.57 150.417Z" fill="white"/>
<path d="M61.5908 147.732C62.932 147.61 63.9074 147.854 63.9074 147.976C63.6636 148.464 61.5908 148.952 57.811 149.562C57.811 149.562 57.811 149.562 57.811 149.684C58.2987 150.904 58.9083 152.856 59.2741 155.418C59.518 157.004 59.6399 157.736 60.0057 159.322C60.0057 159.444 59.8838 159.566 59.7618 159.688C59.6399 159.688 59.518 159.688 59.396 159.81C59.0303 159.932 58.6645 159.2 58.4206 157.858C58.4206 157.614 58.2987 156.638 57.9329 155.052C57.689 153.588 57.3232 152.49 57.2013 151.88C57.2013 151.758 57.2013 151.758 57.3232 151.758C57.2013 151.636 57.2013 151.636 57.2013 151.514C57.0794 151.148 57.0794 150.538 57.0794 149.928C55.7382 150.172 55.0066 150.294 54.7627 150.416C54.7627 150.416 54.6408 150.416 54.6408 150.294C54.275 150.416 54.1531 150.416 53.7873 150.538C53.5434 150.538 53.2996 150.66 53.0557 150.66C52.6899 150.66 52.4461 150.66 52.3241 150.416C52.2022 150.05 52.9338 149.562 54.3969 149.196C55.3724 148.83 58.0548 147.976 61.5908 147.732Z" fill="white"/>
<path d="M70.2479 146.635C70.8575 146.513 71.2233 146.513 71.8329 146.513C72.9303 146.391 74.1496 147.001 75.6127 148.099C76.3443 148.953 76.7101 149.685 76.832 150.417C76.832 150.539 76.832 150.661 76.832 150.783C77.0759 153.1 75.7347 154.93 72.8084 156.76C72.5645 156.882 72.1987 157.004 71.711 157.126C71.3452 157.248 71.1014 157.248 70.7356 157.37C68.4189 157.858 66.4681 156.76 65.8584 154.564C64.761 150.783 65.4926 147.977 67.0777 147.855C67.3216 147.855 67.5654 147.855 67.8093 147.733C68.6628 147.001 69.3944 146.757 70.2479 146.635ZM67.4435 152.003C67.8093 154.32 68.5409 155.418 69.2724 155.662C69.6382 155.784 70.3698 155.906 71.1014 155.784C72.5645 155.54 73.7838 154.442 75.0031 152.734C75.125 152.003 75.247 151.515 75.247 151.149C75.247 150.783 75.125 150.661 75.125 150.295C75.0031 149.441 74.1496 148.587 72.4426 147.855C71.9549 147.855 71.711 147.733 71.4672 147.855C71.2233 147.855 70.9794 147.855 70.7356 147.977C68.7847 148.587 67.8093 149.319 67.9312 150.173C68.0531 150.539 67.8093 150.905 67.3216 151.271C67.4435 151.515 67.4435 151.759 67.4435 152.003Z" fill="white"/>
<path d="M80.7336 145.781C82.5625 145.659 84.0256 146.513 85.123 148.099C85.2449 148.587 85.3669 148.953 85.4888 149.319C85.6107 149.929 84.8792 150.661 83.416 151.393C82.9283 151.637 82.3186 151.759 81.709 151.881C81.5871 151.881 81.5871 151.881 81.5871 151.881C80.9774 152.003 80.6116 151.881 80.2458 151.759C80.2458 152.003 80.2458 152.247 80.3678 152.491C80.4897 153.344 80.8555 154.808 80.7336 155.906C80.7336 156.15 80.3678 156.394 80.002 156.516C79.7581 156.516 79.3923 156.394 79.2704 156.15C78.9046 155.418 78.9046 153.954 78.7827 153.222C78.7827 152.978 78.7827 152.734 78.6608 152.491C78.295 150.661 78.0511 149.563 77.9292 148.953C77.9292 148.709 77.9292 148.587 77.8073 148.465C77.9292 146.879 78.9046 145.903 80.7336 145.781ZM79.2704 147.611L79.3923 147.733C79.3923 147.855 79.3923 147.855 79.3923 147.977C79.3923 147.977 79.3923 148.099 79.2704 148.099L79.3923 148.221C79.6362 149.441 79.88 150.173 79.88 150.661C79.88 150.905 79.88 151.027 80.002 151.271C80.002 151.393 80.1239 151.393 80.2458 151.393C82.4406 150.661 83.5379 150.295 83.6599 150.051C84.1476 149.563 84.2695 149.075 84.2695 148.831C84.1476 148.221 83.2941 147.489 81.3432 146.757C81.0993 146.757 80.9774 146.757 80.8555 146.757C80.4897 146.635 79.88 147.001 79.2704 147.611Z" fill="white"/>
<path d="M87.0742 145.293C87.3181 145.293 87.3181 145.293 87.562 145.293C88.0497 145.415 88.2935 145.659 88.2935 146.025C88.4155 147.733 88.2935 148.953 88.2935 149.319C88.4155 150.295 88.4155 150.782 88.5374 151.758C88.6593 152.002 88.6593 152.124 88.7813 152.368C91.8295 150.173 92.8049 147.611 93.1707 146.269C93.2926 145.781 94.0242 145.171 94.2681 145.171C94.39 145.171 94.39 145.171 94.5119 145.171C95.2435 145.171 95.6093 147.123 95.9751 151.148C96.097 152.368 95.8531 152.978 95.2435 153.222C94.9996 153.222 94.9996 153.222 94.7558 153.344C94.2681 153.466 93.9023 152.856 93.7803 151.514C93.7803 151.026 93.7804 150.782 93.6584 150.295H93.5365C91.7076 152.368 90.2444 153.588 89.0251 153.832C88.9032 153.832 88.7813 153.832 88.6593 153.832C87.562 153.954 86.8304 153.466 86.7085 152.368C86.5865 151.026 86.4646 150.416 86.3427 149.075C86.0988 147.001 86.3427 145.781 87.0742 145.293Z" fill="white"/>
<path d="M100.486 144.683C101.218 144.683 101.827 144.805 102.437 145.049C102.925 145.049 103.169 145.415 103.169 146.391C103.169 146.757 103.291 147.611 103.413 148.709C103.413 149.806 103.413 150.66 103.413 151.026C103.413 151.392 103.534 151.758 103.534 151.88C103.534 152.002 103.291 152.246 102.925 152.246C102.803 152.246 102.803 152.246 102.681 152.246C102.193 152.124 101.949 151.88 101.949 151.392C101.949 150.782 101.949 150.538 101.827 149.928H101.706C101.34 150.416 100.242 151.392 98.6573 152.856C98.4134 152.856 98.4134 152.978 98.1696 152.978C98.1696 152.978 98.1696 152.978 98.0477 152.978C97.8038 152.978 97.6819 152.856 97.6819 152.612C97.6819 152.246 98.5354 151.148 100.486 149.44C99.8766 149.44 99.6327 149.562 99.0231 149.562C97.5599 149.44 96.8284 149.075 96.8284 148.465C96.8284 148.099 96.8284 147.977 96.8284 147.611C96.8284 146.757 97.438 145.903 98.9012 145.171C99.3889 144.805 99.9985 144.683 100.486 144.683ZM98.4135 147.733C98.4135 147.855 98.4135 147.855 98.4135 147.855C98.4135 148.343 99.0231 148.465 99.9985 148.465C100.73 148.465 101.34 148.465 101.706 148.465C101.706 148.465 101.706 148.465 101.827 148.465C101.827 147.367 101.827 146.757 101.827 145.659C101.584 145.537 101.096 145.415 100.608 145.415C99.7547 145.415 99.0231 145.903 98.4135 146.879C98.4135 147.245 98.4135 147.611 98.4135 147.733Z" fill="white"/>
<path d="M199.981 124.92C197.42 120.773 192.909 120.041 190.104 121.749C189.617 121.993 189.251 122.358 188.885 122.724C185.959 121.993 177.058 119.431 170.717 114.673C170.352 115.405 169.986 116.137 169.62 116.869C172.303 118.821 175.229 120.407 178.033 121.749C181.935 123.456 185.593 124.554 187.666 125.042C187.178 126.994 187.544 129.434 189.007 131.752C190.104 133.582 191.811 135.046 193.518 135.777C194.372 136.143 195.347 136.387 196.201 136.387C197.176 136.387 198.152 136.143 198.883 135.655C200.346 134.68 201.322 133.094 201.444 131.02C201.688 128.946 201.2 126.872 199.981 124.92Z" fill="white"/>
<path d="M207.662 97.5947C205.101 93.325 200.59 92.7151 197.786 94.423C196.201 95.3989 195.347 97.1068 195.225 99.0586C192.421 99.3026 184.374 100.035 177.789 99.6686C177.667 100.522 177.545 101.376 177.18 102.108C178.643 102.23 180.228 102.23 181.813 102.23C187.544 102.23 193.152 101.742 195.469 101.498C195.713 102.474 196.201 103.45 196.688 104.426C198.517 107.354 201.322 109.062 203.882 109.062C204.858 109.062 205.711 108.818 206.565 108.33C209.735 106.378 210.101 101.742 207.662 97.5947Z" fill="white"/>
<path d="M104.022 85.2737C95.6088 94.179 82.9281 102.962 80.0018 103.816C71.7106 97.1068 62.6879 85.5177 59.03 80.5161V78.6862L65.4922 78.3203L59.6396 75.5145L61.7124 71.4888L56.4695 74.2946L50.6169 70.3909L52.6897 75.8804L45.3739 79.5402L52.9335 79.1742L53.787 86.2496L56.1037 81.37L56.4695 81.614C56.5914 81.614 56.7133 81.736 56.8353 81.736C60.4931 86.6156 69.7598 98.8147 78.6606 105.89C78.7825 106.012 78.9045 106.134 79.0264 106.256C81.465 108.086 83.7816 109.672 85.9763 110.526L86.8299 108.452C85.2448 107.842 83.6597 106.866 81.9527 105.646C86.8299 103.206 97.1938 95.7649 104.875 87.8355" fill="white"/>
<path d="M106.948 84.7857C106.583 83.9317 106.339 83.0778 105.973 82.2239L106.948 84.7857Z" fill="white"/>
<path d="M116.215 59.4116C112.679 62.2174 105.485 65.6331 102.803 65.9991C102.681 65.9991 102.559 65.9991 102.437 65.9991C102.315 65.9991 102.315 65.9991 102.193 65.9991C100.73 65.8771 100.364 64.4132 100.242 64.0473C100.242 64.0473 100.121 62.5834 99.0232 62.5834C98.7793 62.5834 98.6574 62.5834 98.5354 62.7054C98.0477 63.1933 98.0477 64.4132 98.0477 64.4132C98.0477 64.6572 98.1696 65.3892 97.1942 65.8771C97.1942 65.0232 97.56 63.3153 98.0477 61.6074C98.1696 61.6074 98.4135 61.6075 98.5354 61.7294C98.5354 61.7294 98.5354 61.7294 98.6574 61.7294C99.7547 61.7294 100.974 61.8514 102.071 61.9734H102.193C103.291 61.9734 104.266 61.8514 105.242 61.7294C108.899 61.3635 112.679 60.8755 116.215 59.4116Z" fill="white"/>
<path d="M152.184 34.2819C150.965 36.1117 149.502 37.3316 148.038 38.1856C146.453 39.0395 144.99 39.4055 143.527 39.5275C142.308 39.6495 141.21 39.5275 140.357 39.4055L134.504 37.4536L139.138 41.3573C139.26 41.3573 139.991 41.8453 141.089 42.3332C141.82 42.6992 142.552 42.9432 143.527 43.3092C144.624 43.6751 145.966 43.9191 147.429 44.0411C145.356 44.7731 143.527 44.895 142.308 44.7731C141.332 44.7731 136.455 43.7971 136.455 43.7971C136.455 43.7971 138.04 46.2369 139.869 47.5788C141.698 48.9207 145.356 50.5066 145.356 50.5066C143.161 51.2385 140.845 51.4825 138.284 51.2385C137.918 51.2385 137.553 51.1166 137.187 51.1166C136.333 50.9946 135.48 50.7506 134.626 50.3846C132.919 49.7747 131.212 48.9207 129.749 47.9448C129.383 47.7008 128.896 47.3349 128.53 47.0909C128.408 46.9689 128.286 46.9689 128.164 46.8469L128.042 46.7249C127.92 46.6029 127.798 46.4809 127.676 46.4809C127.676 46.4809 127.676 46.4809 127.554 46.4809C127.432 46.3589 127.432 46.3589 127.311 46.2369L127.189 46.115C127.067 45.993 126.945 45.871 126.823 45.749C125.725 44.6511 124.75 43.4312 123.896 42.2113C122.189 39.5275 119.507 36.2337 116.825 32.94C116.825 32.94 114.996 30.7441 114.142 29.5242H114.02C112.435 29.0363 110.972 28.4263 109.631 27.8164C108.533 27.3284 107.558 26.8404 106.704 26.3525C105.607 25.8645 104.754 25.2546 103.778 24.6446C101.096 23.0587 99.0229 21.2289 97.3159 19.765C99.6326 20.131 101.705 20.4969 103.778 20.7409C104.876 20.8629 105.973 20.9849 106.948 21.1069C109.021 21.2289 111.094 21.3509 112.801 21.3509C122.555 21.3509 128.042 19.155 130.237 18.0571C131.7 19.277 132.553 22.0828 134.992 24.2786C135.48 24.7666 136.089 25.2546 136.821 25.7425C136.821 25.7425 136.943 25.7425 136.943 25.8645C139.138 27.2064 142.186 28.1823 146.819 28.3043C144.99 29.1583 141.454 31.2321 138.772 31.4761C136.089 31.7201 133.041 31.1101 132.919 31.1101C133.041 31.2321 134.26 32.574 138.65 33.6719C143.283 34.8918 144.624 34.6478 148.038 34.7698C149.258 34.7698 150.355 34.7698 151.453 34.6478C151.696 34.2819 151.94 34.2819 152.184 34.2819Z" fill="white"/>
<path d="M126.335 60.1436C127.799 58.1918 129.871 55.508 132.432 52.2142C131.091 51.7263 129.749 50.9943 128.53 50.1404C127.555 53.9221 126.701 57.2158 126.092 59.7776C126.092 59.8996 126.213 60.0216 126.335 60.1436Z" fill="white"/>
<path d="M85.3673 16.1049C85.855 16.9588 86.2208 17.5688 86.5866 17.9348C86.7085 18.0568 86.9524 18.1788 87.0743 18.3007H87.1962C87.4401 18.3007 87.6839 17.8128 87.9278 17.4468C87.9278 17.4468 87.9278 17.3248 88.0497 17.3248C88.4155 16.7149 88.7813 16.1049 89.269 15.7389C89.5129 15.617 89.7567 15.495 90.0006 15.495H90.1225H90.2444C90.3664 15.495 90.4883 15.495 90.6102 15.617C91.098 15.8609 91.4637 16.3489 91.7076 16.9588C91.8295 17.2028 91.9515 17.5688 92.0734 17.8128C92.0734 17.8128 92.0734 17.9348 92.1953 17.9348C92.1953 18.0568 92.3173 18.1788 92.3173 18.3007C92.5611 18.6667 92.683 19.0327 92.9269 19.0327H93.0488C93.0488 19.0327 93.1708 19.0327 93.2927 19.0327C93.5365 19.0327 93.7804 18.7887 94.0243 18.6667C94.1462 18.5447 94.2681 18.4227 94.2681 18.4227C94.39 18.3007 94.512 18.1788 94.6339 18.0568C94.9997 17.5688 95.3655 17.0808 95.6093 16.3489C95.7313 16.2269 95.7313 15.9829 95.8532 15.8609C95.8532 15.7389 95.9751 15.617 95.9751 15.495C96.219 15.129 96.3409 14.641 96.5848 14.2751C98.0479 10.8593 99.0234 6.58965 99.1453 5.49174C99.1453 5.24776 99.1453 5.12577 99.1453 5.00378C99.0234 4.6378 98.7795 4.51581 98.2918 4.51581C97.8041 4.51581 97.0725 4.51581 96.0971 4.75979C95.4874 4.75979 95.1216 4.75979 94.8778 4.75979C94.7558 4.75979 94.7558 4.75979 94.6339 4.75979C94.1462 4.75979 93.9023 4.51581 93.4146 4.27183C93.1707 4.14984 92.805 3.90586 92.1953 3.66188C91.7076 3.4179 91.3418 3.29591 91.098 3.29591C90.8541 3.29591 90.6102 3.29591 90.3664 3.4179C90.1225 3.53989 89.7567 3.66188 89.1471 3.78387C88.5374 3.90586 88.0497 4.02785 87.6839 3.90586C87.4401 3.90586 87.1962 3.78387 86.9524 3.66188C86.8304 3.53989 86.5866 3.53989 86.3427 3.4179C86.0989 3.4179 85.855 3.17392 85.6111 2.92994C85.3673 2.80795 85.1234 2.56396 84.8796 2.56396C84.6357 2.56396 84.3918 3.05193 84.2699 3.53989C84.026 4.39382 83.9041 5.73572 83.9041 7.44359C83.7822 10.3714 84.148 12.5672 84.6357 14.1531C84.8796 15.129 85.1234 15.617 85.3673 16.1049Z" fill="white"/>
<path d="M97.9259 14.6411C115.118 17.6909 124.019 14.8851 127.067 13.5432C125.482 10.7374 119.629 5.00384 110.607 2.68602C107.193 1.83209 103.657 2.68602 100.364 4.2719C100.486 4.63787 100.608 5.00384 100.486 5.4918C100.486 6.10176 99.511 10.6154 97.9259 14.6411Z" fill="white"/>
<path d="M76.2225 41.1131C75.7347 37.9414 76.1005 35.1356 77.1979 32.6958C77.6856 31.4759 78.4172 30.6219 78.9049 29.89C78.1733 27.9381 77.6856 25.6203 79.3926 24.5224C79.7584 24.2784 80.2461 24.1564 80.7338 24.2784C80.8558 23.7905 81.0996 23.3025 81.3435 22.8145C82.197 20.9847 83.1724 19.1548 84.5136 17.325C84.5136 17.203 84.3917 17.081 84.3917 16.959C80.9777 17.8129 81.4654 18.1789 77.8075 23.6685C74.1497 29.28 68.1751 32.4518 66.2243 31.2319C66.59 31.7198 68.6628 33.1837 70.2479 32.9397C71.833 32.6958 72.6865 31.9638 73.6619 30.8659C73.9058 33.5497 72.4426 37.0874 70.7356 38.0633C69.0286 39.0393 68.419 39.7712 66.4681 40.0152C69.5163 41.2351 71.3453 40.6251 74.0277 39.4052H74.1497C74.3935 43.4309 71.1014 47.2126 64.7611 47.8226C67.1997 48.9205 69.8821 49.2865 73.7839 48.0666L74.5154 47.8226C75.247 50.1404 71.833 56.3619 67.0778 55.02C73.2962 58.9237 77.8075 58.3138 83.0505 54.6541C81.0996 52.7022 79.3926 50.2624 78.0514 47.2126C77.076 45.1388 76.4663 43.065 76.2225 41.1131Z" fill="white"/>
<path d="M84.5135 30.1339C84.7574 30.1339 85.0013 30.1339 85.2451 30.1339C85.489 30.1339 85.6109 30.1339 85.8548 30.1339C85.9767 30.1339 86.0986 30.1339 86.2206 30.1339C85.9767 29.8899 85.7328 29.6459 85.489 29.4019C84.7574 28.548 83.782 27.5721 82.9285 26.9621C82.6846 26.7181 82.3188 26.5961 82.075 26.4741C81.4653 26.2302 80.9776 26.1082 80.6118 26.4741C79.6364 27.2061 79.7583 28.304 80.1241 29.5239C80.246 29.7679 80.246 29.8899 80.3679 30.1339C80.4899 30.1339 80.6118 30.1339 80.8557 30.1339C81.0995 30.1339 81.3434 30.1339 81.5872 30.1339C81.953 30.1339 82.1969 30.1339 82.4407 30.1339C82.4407 30.0119 82.4407 30.0119 82.4407 29.8899C82.4407 29.7679 82.4407 29.5239 82.4407 29.4019C82.4407 29.4019 82.4407 29.4019 82.4407 29.2799C82.4407 29.4019 82.6846 29.5239 82.8065 29.5239C83.0504 29.5239 83.2943 29.2799 83.2943 29.0359C83.2943 28.792 83.1723 28.67 82.9285 28.548C83.0504 28.426 83.1723 28.426 83.2943 28.304H83.4162C83.5381 28.304 83.66 28.304 83.782 28.426L83.9039 28.548C83.9039 28.426 83.782 28.426 83.66 28.426C83.782 28.426 83.782 28.548 83.9039 28.67C84.0258 28.792 84.0258 28.9139 84.1478 29.0359C84.2697 29.2799 84.2697 29.5239 84.2697 29.7679C84.5135 29.8899 84.5135 30.0119 84.5135 30.1339Z" fill="white"/>
<path d="M103.534 29.89C103.656 29.89 103.9 29.89 104.022 29.89C104.266 29.2801 104.51 28.5481 104.51 27.8162C103.656 27.3282 102.803 26.8403 101.949 26.3523C100.73 27.0842 99.2668 28.6701 98.1694 29.89C98.2914 29.89 98.4133 29.89 98.5352 29.89C99.3887 29.89 100.364 29.768 101.462 29.768C101.462 29.646 101.462 29.4021 101.462 29.2801C101.462 29.0361 101.462 28.9141 101.583 28.6701C101.583 28.7921 101.827 28.9141 101.949 28.9141C102.193 28.9141 102.437 28.6701 102.437 28.4261C102.437 28.1822 102.315 28.0602 102.071 27.9382C102.193 27.8162 102.437 27.6942 102.559 27.6942C103.047 27.6942 103.534 28.4261 103.534 29.1581C103.534 29.2801 103.534 29.524 103.412 29.646C103.412 29.89 103.412 29.89 103.534 29.89Z" fill="white"/>
<path d="M99.6329 59.7777C101.462 59.8996 103.169 59.8996 104.754 59.7777C109.387 59.2897 114.143 58.6797 118.288 55.9959C119.142 55.386 119.873 54.776 120.727 54.0441C122.434 52.3362 123.897 50.2624 125.238 47.7006C123.775 46.3587 122.556 44.8948 121.336 43.1869C119.142 39.7712 115.606 35.3796 112.314 31.2319C109.997 30.3779 107.802 29.524 105.973 28.5481C105.729 29.28 105.486 30.012 105.242 30.6219C104.266 30.4999 103.169 30.4999 102.072 30.4999C100.852 30.4999 99.7549 30.6219 98.6575 30.6219C97.6821 30.6219 96.8286 30.7439 96.097 30.7439C97.3163 29.158 99.1452 27.0842 100.974 25.7423C98.1698 23.9124 95.8531 21.9606 94.2681 20.2527C93.9023 20.4967 93.5365 20.6187 93.0488 20.6187H92.9268H92.8049C91.7075 20.4967 91.3418 19.3988 90.854 18.4229C90.854 18.3009 90.7321 18.1789 90.7321 18.0569C90.4882 17.5689 90.2444 16.959 90.1225 16.959C90.0005 16.959 89.8786 17.325 89.5128 17.8129C89.5128 17.8129 89.3909 17.9349 89.3909 18.0569C88.9032 18.9108 88.4154 19.7648 87.3181 19.7648H87.0742C86.8304 19.7648 86.7084 19.6428 86.4646 19.6428C86.2207 19.5208 85.9769 19.3988 85.733 19.1548C84.7576 20.6187 83.9041 22.2046 83.1725 23.6685C82.9286 24.1564 82.8067 24.7664 82.5629 25.2543C84.6357 26.5962 86.8304 29.158 88.2935 30.9879C87.6839 30.9879 86.9523 30.9879 86.0988 30.8659C85.9769 30.8659 85.8549 30.8659 85.733 30.8659C84.6356 30.8659 83.5383 30.7439 82.319 30.7439C81.8313 30.7439 81.3436 30.7439 80.8558 30.7439C80.2462 31.2319 79.5146 32.2078 78.905 33.5497C77.9295 35.6235 77.6857 38.0633 78.0515 40.7471C78.2953 42.577 78.905 44.4068 79.7585 46.3587C80.9778 49.2865 82.6848 51.4823 84.5137 53.3122C84.7576 53.5561 85.1234 53.9221 85.4891 54.1661C85.8549 54.4101 86.0988 54.6541 86.4646 54.898C90.6102 58.1918 95.2435 59.2897 98.2917 59.6557C98.9014 59.7777 99.2672 59.7777 99.6329 59.7777ZM86.3427 35.6235C86.9523 34.5256 88.0497 34.5256 88.4155 34.5256C88.6593 34.5256 89.0251 34.5256 89.3909 34.6476C89.6347 34.4036 89.7567 34.1596 90.0005 34.0377C90.1225 33.9157 90.1225 33.7937 90.2444 33.6717C90.4882 33.4277 90.6102 33.1837 90.7321 33.0617C90.976 32.6958 91.0979 32.3298 91.0979 31.7198C91.2198 31.2319 91.2198 30.7439 91.2198 30.2559V29.89L92.0733 29.768L92.3172 30.134C92.5611 31.3539 92.683 32.5738 92.3172 33.6717C92.1953 34.2816 91.9514 34.8916 91.3418 35.3796C91.4637 35.5015 91.7075 35.5015 91.8295 35.6235L94.0242 36.8434L91.5856 36.4775C90.4882 36.3555 89.5128 36.2335 88.6593 36.3555C88.2935 36.3555 88.1716 36.4775 88.0497 36.5995C87.9277 36.8434 87.9277 37.0874 88.0497 37.5754C88.4155 39.2832 89.5128 40.8691 91.0979 42.455L92.8049 44.0409L90.6102 43.1869C89.6347 42.821 88.6593 42.089 87.8058 41.2351C87.0742 40.3812 86.4646 39.2832 86.2207 38.0633C86.0988 37.2094 85.8549 36.4775 86.3427 35.6235ZM90.2444 50.6284C88.2935 50.0184 86.3427 49.1645 84.7576 47.9446L84.8795 47.8226C86.7084 48.7985 88.5374 49.4085 90.4883 49.8964C92.4391 50.2624 94.39 50.3844 96.3409 50.2624C98.2917 50.0184 100.121 49.4085 101.95 48.7985C102.925 48.5545 103.779 48.0666 104.754 47.8226C105.486 47.4566 106.339 47.2126 107.071 46.8467C106.705 46.1147 106.461 45.3828 106.095 44.6508C106.461 44.8948 106.827 45.2608 107.071 45.6268C107.314 45.9927 107.558 46.3587 107.802 46.8467C108.168 47.7006 108.29 48.6765 108.046 49.5305C107.802 49.0425 107.68 48.6765 107.558 48.3105C107.436 47.9446 107.314 47.5786 107.193 47.3346C106.583 47.8226 105.851 48.3105 105.12 48.7985C104.266 49.4085 103.047 50.0184 101.828 50.3844C100.608 50.8723 98.4136 51.4823 96.3409 51.7263C94.2681 51.4823 92.1953 51.2383 90.2444 50.6284Z" fill="white"/>
<path d="M151.209 25.3763L155.232 25.1323L151.94 27.5721C151.697 27.6941 148.77 29.7679 143.893 31.5978C145.844 31.8418 147.917 31.9638 149.746 31.8418C157.305 23.9124 165.596 16.349 173.156 12.0793C172.303 10.7374 171.449 9.3955 170.352 8.1756C165.353 1.7101 160.354 -0.851701 155.72 0.246213C148.648 1.95408 142.43 11.4693 137.553 22.6925C140.601 24.4003 144.625 25.7422 151.209 25.3763Z" fill="white"/>
<path d="M195.835 23.3026C194.25 15.9832 191.324 11.7135 186.934 10.8596C184.008 10.2497 180.472 11.1036 176.692 12.8115C175.961 13.1774 175.229 13.5434 174.497 13.9094C167.913 17.6911 160.597 24.0346 153.769 31.11L156.208 30.5001L155.111 32.8179C152.672 38.1855 148.526 40.2593 144.869 40.9913C146.941 41.4792 149.38 41.6012 151.209 40.5033L155.842 37.6975L152.916 42.2112C150.234 46.2369 145.478 46.9688 141.82 46.9688C143.893 47.9447 146.332 48.1887 149.38 47.5788L153.648 46.8468L150.477 49.7746C147.795 52.2144 143.893 53.6783 139.87 53.6783C139.138 53.6783 138.284 53.6783 137.431 53.5563C136.577 53.4343 135.724 53.3123 134.87 53.0683C131.944 56.728 129.627 59.7778 128.164 61.8516C132.188 65.3894 137.919 69.2931 145.234 72.5868C157.549 70.391 179.862 64.5354 190.592 50.2625C196.201 42.6991 198.03 33.6718 195.835 23.3026ZM191.811 27.8163C191.811 25.7424 191.568 23.7906 191.202 21.8388C190.714 19.8869 189.982 18.057 188.763 16.4712C188.153 15.7392 187.422 15.0073 186.568 14.6413C185.837 14.2753 184.861 14.2753 183.886 14.5193C182.057 15.0073 180.228 15.8612 178.521 16.8371C175.107 18.789 171.815 21.2288 168.645 23.6686C165.475 26.1084 162.304 28.6702 159.256 31.232C162.061 28.4262 165.109 25.7424 168.279 23.1806C171.449 20.6188 174.619 18.301 178.155 16.2272C179.984 15.2513 181.813 14.2753 183.764 13.7874C184.739 13.5434 185.959 13.4214 186.934 14.0314C187.91 14.6413 188.641 15.3733 189.251 16.1052C190.47 17.8131 191.202 19.7649 191.568 21.7168C191.933 23.7906 192.055 25.8644 191.811 27.8163Z" fill="white"/>
<path d="M143.528 75.2705C142.186 74.6605 140.845 74.0506 139.626 73.3186C134.139 70.3909 129.75 67.2191 126.214 64.2913C125.848 63.9254 125.482 63.6814 125.238 63.4374C124.994 63.1934 124.75 62.9494 124.507 62.7055C124.019 62.3395 123.653 61.8515 123.165 61.4856C122.068 60.3876 121.093 59.4117 120.239 58.4358C117.557 62.8274 105.973 67.8291 103.169 68.195C103.047 68.195 102.803 68.195 102.681 68.195H102.559C103.291 73.1966 104.388 77.8323 105.851 82.102C106.095 82.9559 106.461 83.8098 106.827 84.6638C108.778 89.9093 111.338 94.545 114.021 98.4487C122.19 87.3475 118.898 74.1726 117.679 70.6348L118.166 70.1469L118.532 69.7809L118.654 69.6589C119.507 72.0987 123.287 84.4198 117.069 95.8869C117.069 96.0089 116.947 96.0089 116.947 96.1309C116.337 97.3508 115.606 98.4487 114.63 99.5466C111.338 103.938 106.217 107.964 98.5357 111.014C98.0479 111.38 97.8041 112.112 98.0479 112.722C98.2918 113.21 98.6576 113.454 99.1453 113.454C99.2672 113.454 99.5111 113.454 99.633 113.332C107.436 110.16 112.679 106.012 116.215 101.62C126.945 87.9575 121.702 70.8788 120.849 68.683H121.458H122.068C123.165 72.2207 127.799 89.0554 116.947 102.596C131.7 120.651 151.941 124.555 154.867 125.043C176.205 114.307 176.083 89.0554 175.839 83.6878C162.67 82.4679 151.941 79.1742 143.528 75.2705ZM109.509 87.9575C106.095 81.004 106.339 76.8564 106.339 76.8564V76.6124C106.827 71.6108 112.192 85.3957 112.192 85.3957C110.241 84.1758 109.509 87.9575 109.509 87.9575Z" fill="white"/>
</svg>
