<svg width="32" height="32" viewBox="0 0 32 32" fill="none" xmlns="http://www.w3.org/2000/svg">
<g id="24 / basic / thumbs-down">
<path id="icon" fill-rule="evenodd" clip-rule="evenodd" d="M21.516 20.7439C21.4145 20.4765 21.3101 20.2013 21.273 20.101L21.2359 20.0001H25.3333C27.8261 20.0001 29.3333 18.2434 29.3333 16.0001C29.3333 8.07531 27.6735 2.66673 24 2.66673C24 2.66673 14.6975 2.66703 14.6652 2.66635C13.7878 2.65061 12.6739 2.774 11.5508 3.17583C11.06 3.35142 10.6085 3.56989 10.2039 3.83166C9.72376 3.12837 8.91577 2.66672 7.99996 2.66672H5.33329C3.86053 2.66672 2.66663 3.86062 2.66663 5.33338V17.3334C2.66663 18.8061 3.86053 20 5.33329 20H7.99996C8.26443 20 8.51991 19.9615 8.7611 19.8898C9.69029 21.2428 12.0408 23.9287 13.9293 26.0867L13.9293 26.0868L13.9294 26.0868C14.9533 27.2569 15.8415 28.2718 16.2937 28.8349L16.694 29.3334H17.3436C18.153 29.3335 18.8563 29.272 19.6643 29.0368C21.4558 28.5151 22.6666 27.2961 22.6666 25.3334C22.6666 24.6399 22.5438 23.9006 22.3176 23.0799C22.1679 22.5369 21.9829 21.9887 21.7294 21.3082C21.6933 21.2113 21.6065 20.9825 21.5171 20.7469L21.5166 20.7456L21.516 20.7439ZM10.6666 17.3334V8.00009C10.6666 6.79711 11.2692 6.10879 12.4491 5.68664C13.2141 5.41294 14.0338 5.32214 14.6208 5.33263L22.0451 5.3334L24 5.33342C25.3535 5.33342 26.6666 9.61243 26.6666 16.0001C26.6666 16.8536 26.2549 17.3334 25.3333 17.3334H20C18.4072 17.3334 18.074 18.5649 18.4062 19.8983C18.4843 20.212 18.5985 20.5572 18.7719 21.026C18.8135 21.1386 18.9261 21.4352 19.031 21.7117C19.1171 21.9386 19.1981 22.1521 19.2305 22.2392C19.4592 22.8529 19.6215 23.334 19.7468 23.7886C19.9145 24.397 20 24.9113 20 25.3334C20 25.9347 19.6829 26.254 18.9188 26.4764C18.5978 26.5699 18.2818 26.6214 17.9466 26.6466C17.2451 25.808 16.2405 24.6619 15.2065 23.4822L15.2062 23.4819L15.2062 23.4819L15.2061 23.4818C13.2025 21.1959 11.0886 18.7841 10.8556 18.2401C10.7259 17.9373 10.6666 17.6537 10.6666 17.3334V17.3334ZM5.33329 17.3334V5.33338H7.99996V17.3334H5.33329Z" fill="#F44336"/>
</g>
</svg>
