<svg width="46" height="46" viewBox="0 0 46 46" fill="none" xmlns="http://www.w3.org/2000/svg">
<g filter="url(#filter0_d)">
<path d="M2 42.6825L4.94073 31.9797C3.13105 28.8499 2.1748 25.2891 2.1748 21.6565C2.1748 10.2662 11.47 1 22.873 1C28.4151 1 33.6077 3.15493 37.5149 7.05433C41.4222 10.9537 43.5712 16.1461 43.5712 21.6668C43.5712 33.0571 34.276 42.3233 22.873 42.3233H22.8627C19.3976 42.3233 15.9942 41.4511 12.9712 39.8093L2 42.6825Z" fill="url(#paint0_linear)"/>
<path d="M3.42352 41.276L5.90499 32.2446L6.01582 31.8413L5.80643 31.4791C4.08486 28.5017 3.1748 25.1136 3.1748 21.6565C3.1748 10.8207 12.02 2 22.873 2C28.1499 2 33.0885 4.04962 36.8085 7.76214C40.5274 11.4735 42.5712 16.411 42.5712 21.6668C42.5712 32.5026 33.7259 41.3233 22.873 41.3233H22.8627C19.5652 41.3233 16.3257 40.4932 13.4484 38.9305L13.1007 38.7416L12.7178 38.8419L3.42352 41.276Z" stroke="white" stroke-width="2"/>
</g>
<path fill-rule="evenodd" clip-rule="evenodd" d="M17.5262 12.6982C17.1252 11.8054 16.7037 11.7849 16.3232 11.7747C16.0147 11.7644 15.6549 11.7644 15.295 11.7644C14.9351 11.7644 14.3593 11.8978 13.8658 12.4314C13.3722 12.965 11.9944 14.258 11.9944 16.8952C11.9944 19.5221 13.9172 22.067 14.1845 22.4262C14.4518 22.7853 17.8964 28.3574 23.3357 30.502C27.8599 32.2875 28.7853 31.9284 29.7621 31.836C30.7492 31.7437 32.9291 30.5431 33.3815 29.2912C33.8236 28.0392 33.8236 26.972 33.69 26.7463C33.5563 26.5205 33.1964 26.3871 32.6617 26.1203C32.127 25.8535 29.4948 24.5606 29.0012 24.3759C28.5077 24.2014 28.1478 24.1091 27.7982 24.6427C27.4383 25.1763 26.4101 26.3769 26.1016 26.736C25.7932 27.0952 25.4744 27.1362 24.9398 26.8694C24.4051 26.6026 22.6777 26.0382 20.6315 24.2117C19.0377 22.7956 17.9581 21.0409 17.6496 20.5073C17.3412 19.9737 17.6188 19.6863 17.8861 19.4195C18.1226 19.1835 18.4208 18.7936 18.6881 18.4857C18.9555 18.1779 19.048 17.9521 19.2228 17.593C19.3976 17.2338 19.3154 16.926 19.1817 16.6592C19.0377 16.4026 17.9992 13.7551 17.5262 12.6982Z" fill="white"/>
<defs>
<filter id="filter0_d" x="0" y="0" width="45.5712" height="45.6825" filterUnits="userSpaceOnUse" color-interpolation-filters="sRGB">
<feFlood flood-opacity="0" result="BackgroundImageFix"/>
<feColorMatrix in="SourceAlpha" type="matrix" values="0 0 0 0 0 0 0 0 0 0 0 0 0 0 0 0 0 0 127 0"/>
<feOffset dy="1"/>
<feGaussianBlur stdDeviation="1"/>
<feColorMatrix type="matrix" values="0 0 0 0 0 0 0 0 0 0 0 0 0 0 0 0 0 0 0.4 0"/>
<feBlend mode="normal" in2="BackgroundImageFix" result="effect1_dropShadow"/>
<feBlend mode="normal" in="SourceGraphic" in2="effect1_dropShadow" result="shape"/>
</filter>
<linearGradient id="paint0_linear" x1="22.7924" y1="42.6817" x2="22.7924" y2="0.999836" gradientUnits="userSpaceOnUse">
<stop stop-color="#20B038"/>
<stop offset="1" stop-color="#60D66A"/>
</linearGradient>
</defs>
</svg>
