<svg width="261" height="230" fill="none" xmlns="http://www.w3.org/2000/svg"><path d="M28.67 194.211l.244-.976c.122-.488.122-.61.122-.854-.122-.488-.488-.854-.976-1.098-.487-.244-.975-.488-1.585-.61s-1.097-.244-1.707-.366c-.488-.122-.975-.122-1.22-.244-.365-.122-.975-.122-1.95 0l-2.56.366c-.366 0-.732.122-1.098.122l1.098-.61a6.99 6.99 0 001.34-1.342c.366-.488.732-.976.976-1.464s.488-.976.61-1.341c.122-.488.122-.854.122-1.098-.244-.732-.854-1.098-1.951-1.342-.854-.122-1.951-.122-3.17 0a20.304 20.304 0 00-3.536.732c-.976.244-1.83.488-2.439.732l-.122-.122a1.47 1.47 0 00-.61-.61v-.244l-.243.122c-.488.244-.732.488-.854.854-.122.244-.122.61-.122.976 0 .243 0 .487.122.853v.61c0 .122-.122.244-.122.488 0 .122-.122.244-.122.366v.244c0 .122-.122.366-.487.732-.244.366-.488.732-.732.976l-.366.732 1.463-.122.122-.122 1.22-1.22c.365-.366.61-.732.853-1.098.366-.488.976-.976 1.585-1.342.732-.366 1.463-.732 2.195-1.219.488-.122.975-.122 1.463-.244.61 0 1.098-.122 1.585 0 .488 0 .976.122 1.22.244.243.122.365.244.365.244s0 .122-.122.365c-.122.244-.243.488-.365.854s-.366.61-.61.976-.61.61-.854.732c-.487.244-.975.488-1.463.854l-1.463.732c-.488.244-.975.488-1.341.61s-.61.244-.854.366l-.122.122c-.121.122-.243.244-.243.488v.366c.122.488.61.366 1.463.244l2.316-.244c.854-.122 1.707-.122 2.56-.244.976-.122 1.342-.122 1.586 0 .244 0 .61.122.975.244l1.098.366c.366.122.61.366.853.488.244.122.366.366.366.488v.488c0 .244-.122.61-.122.976-.122.366-.122.61-.244.976-.122.244-.244.488-.244.61-.487.61-.731 1.098-.975 1.342s-.366.488-.61.61c-.244.121-.487.365-.731.609-.366.244-.854.488-1.463.976-.244.244-.61.366-.976.488-.488.122-.853.244-1.463.366-.366.122-.854.122-1.341.122-.488 0-.976-.122-1.463-.122-.488-.122-.854-.244-1.098-.366a1.488 1.488 0 01-.365-.244c0-.122 0-.244.121-.488.244-.244.61-.61 1.098-.854.487-.244.975-.487 1.585-.731s1.22-.366 1.829-.488c0 0 .244 0 .488-.122h.122c.243.122.365.122.487.244.122 0 .244.122.366.122h1.097c.488-.122.854-.244 1.342-.366.853-.366.853-.854.731-1.098-.122-.366-.366-.854-1.341-.976-.61-.122-1.22-.122-2.073.122-1.707.366-3.048.732-4.146 1.22-1.097.366-1.95.854-2.56 1.342-.732.487-1.22 1.097-1.707 1.707-.366.61-.853 1.342-1.22 2.196l-.121.244.122.122v.244c.122.244.366.61 1.097.61h.244c.366 0 .61 0 .975.122.488 0 1.098.122 1.83.122.73 0 1.462.122 2.316.122h.122c.732 0 1.463 0 2.195-.122.853-.122 1.463-.244 1.829-.488.853-.366 1.707-.732 2.56-1.22.976-.61 1.829-1.22 2.683-1.83.853-.732 1.707-1.342 2.438-2.073a16.47 16.47 0 001.585-1.83c0-.122.122-.244.244-.61 0-.976.122-1.22.244-1.586z" fill="#fff"/><path d="M60.006 170.057l.61-.366-.976-.732h-.244c-.61.122-1.097.366-1.707.61l-1.829.732c-.61.244-1.22.488-1.707.732-.61.244-1.097.366-1.707.488a4.069 4.069 0 01-2.073.122c-.731-.122-1.463-.244-2.194-.244h-.244l-.244.122c-.122 0-.122.122-.244.244-.122.121-.244.244-.244.487 0 .122.122.488.732.732l.61.122c.243 0 .487.122.609.244h.122c-.244.61-.61 1.464-.854 2.44-.365.976-.731 2.074-1.097 3.05-.366 1.098-.732 2.074-1.097 3.05-.366.976-.732 1.83-.976 2.44-.122.366-.366.731-.487 1.097 0 .122-.122.244-.244.366-.122-.122-.244-.122-.488-.366l-.122-.122c-.488-.366-.975-.853-1.585-1.341l-2.195-1.83a17.422 17.422 0 01-2.194-1.83l-1.707-1.464c-.244-.244-.488-.366-.488-.488l.488-1.098v-1.098l-.61.122c-.244 0-.366.244-.61.366a1.686 1.686 0 00-.366.488c-.121.122-.243.366-.365.488s-.244.244-.366.244c-.488.244-.976.366-1.341.61l-1.464.488-.121.122s-.122.122-.122.244-.122.244-.122.488v.244l.731.244 2.317-.61s.122.122.366.244c.366.244.731.61 1.219 1.098.488.366.976.854 1.463 1.464.488.488.976 1.098 1.463 1.586.488.488.854.853 1.098 1.219.487.488.487.61.61.61.121.122.365.244.73.488.367.244.732.488.976.854.366.244.61.61.976.854.366.366.366.488.366.488s0 .122-.122.61c-.122.366-.244.854-.366 1.342-.122.488-.366 1.098-.488 1.586-.244.61-.366 1.098-.61 1.586-.121.488-.365.976-.487 1.342-.122.366-.244.732-.366.976-.244.61-.366 1.098-.61 1.707-.243.488-.487.976-.853 1.464-.122.122-.366.366-.61.366-.244.122-.731.244-1.341.244h-4.389c-.122 0-.366-.122-.488-.122h-.122c-.122 0-.244-.122-.366-.122s-.122-.122-.122-.122l-.122-.122-.122-.122c-.122-.122-.122-.244-.244-.366 0-.122-.122-.244-.122-.244-.121-.122-.121-.244-.243-.244 0-.122-.122-.122-.122-.122s0-.122-.122-.244v-.244c.122-.121.366-.243.61-.365.243-.122.61-.244.853-.366.366-.122.731-.366.853-.732.122-.122.122-.366.122-.488s0-.244-.122-.488l.244-.244c.61-.366.61-.854.488-1.098-.122-.244-.244-.488-.488-.732s-.61-.244-1.097-.122c-.122 0-.122 0-.244.122-.122 0-.244.122-.366.122-.731.61-1.34 1.098-1.829 1.586-.487.488-1.097 1.098-1.585 1.708 0 0-.122.122-.122.244l-.122.244v.244l.488-.122-.488.122c0 .244.244.609.488 1.097s.488.976.854 1.464c.365.488.61.976.975 1.342.366.488.61.732.854.854.122.122.487.122 1.463.244h4.511c.732 0 1.341 0 1.707-.122.61-.122 1.098-.244 1.463-.488.366-.244.732-.61.976-.976s.487-.732.61-1.098c.121-.366.365-.61.487-.976.61-1.097 1.22-2.317 1.95-3.659.61-1.342 1.342-2.684 2.074-4.148.731-1.464 1.34-2.928 2.072-4.392.732-1.464 1.464-2.927 2.073-4.391.732-1.464 1.464-2.928 2.195-4.27.732-1.342 1.463-2.684 2.195-3.904.244-.366.488-.732.731-1.22.244-.366.61-.732.976-.975.366-.244.853-.61 1.341-.854.975-.244 1.585-.488 2.195-.854zm-10.12 3.293l-.122.122h-.122l.244-.122z" fill="#fff"/><path d="M77.564 179.572c-.732-.488-1.585-.732-2.56-.732h-2.44c-.121 0-.487.122-.853.244a20 20 0 01-1.341.366l-1.463.366c-.488.122-.854.244-1.098.244-.61.122-1.097 0-1.463-.122-.244-.244-.488-.366-.61-.488l-.121-2.318c0-.61-.122-1.22-.122-1.952s-.122-1.341 0-2.073c0 0 0-.122.365-.366.366-.244.732-.488 1.22-.732.487-.244.975-.488 1.585-.61l.244-.122c.487-.122.853-.244 1.219-.366.61-.244 1.097-.244 1.585-.244h.731s.123 0 .488.244c.244.122.488.366.732.61s.488.61.731.976c.244.366.366.732.366 1.098l.122.61 1.83-.732-.123-.366c-.731-1.83-1.22-2.806-1.95-4.636l-.123-.366-.365.122c-2.927.61-4.268.976-7.194 1.586-.61.122-1.22.244-1.951.488l-2.195.488c-.731.244-1.463.366-2.195.488-.731.122-1.34.366-1.95.488h-.122l-.366.366c-.244.244-.244.244-.244.366l-.122.366.61.488h.975c.244 0 .61 0 .854-.122.243 0 .487 0 .61.122 0 .122.121.366.121.488l.366 1.463c.122.366.122.732.244.976s.122.488.122.732l1.585 10.857.366 3.66c.122.854 0 1.22-.122 1.22-.122.122-.366.244-.732.366-.244 0-.366 0-.488.122-.122 0-.243.122-.487.122-.122 0-.366.122-.732.122l-2.073.366.976 1.22h.244c1.707-.122 2.56-.244 4.145-.366 2.073-.122 3.17-.122 5.243-.122.854 0 1.707 0 2.439-.122a58.305 58.305 0 001.95-.366c.61-.122 1.098-.366 1.708-.488.122-.122.365-.122.61-.244.365-.122.73-.244.975-.366.244-.122.487-.488.731-.854.122-.122.244-.244.366-.488.366-.488.732-.976 1.097-1.586.366-.61.61-1.22.854-1.83.244-.61.366-1.341.244-1.951-.122-1.83-.366-3.294-.976-4.148-.61-1.342-1.219-2.074-2.072-2.562zm-2.195 8.173c0 .244-.122.61-.488 1.22-.366.488-.731 1.098-1.341 1.464-.488.488-1.098.854-1.707 1.22-.732.366-1.097.488-1.463.488h-.732c-.366 0-.61-.122-.975-.122-.244-.122-.61-.122-.854-.244-.122 0-.122-.122-.122-.122 0-.244-.122-.61-.122-1.098 0-.488-.121-1.098-.121-1.83l-.123-2.439c0-.488-.121-.976 0-1.342.122-.61.488-1.098.732-1.342.366-.366.975-.732 1.829-.976.244-.122.488-.122.61-.366.243-.122.365-.244.61-.366.121-.122.365-.244.487-.366s.244-.122.488-.122a.589.589 0 01.487 0c.244.122.366.366.488.488s.244.366.366.854c.122.366.244.61.244.976.244.854.488 1.586.853 2.318.488.61.732 1.341.854 1.707zm35.116-15.614c-.61-.854-1.22-1.342-1.951-1.83-.732-.366-1.585-.61-2.561-.732-.975-.122-2.073-.244-3.17-.244h-.244v-.732c0-.488.122-.976.122-1.586 0-.61.122-1.22.122-1.952l.244-1.83c0-.61.122-1.098.122-1.464 0-.244.122-.488 0-.366l.244-.244c.244-.122.366-.365.609-.609l.61-.61.366-.366.122-.122v-1.098l-.488.122c-.488.122-.975.244-1.463.61-.488.244-.854.61-1.341.854-.488.244-.854.61-1.342.854-.365.243-.731.365-1.097.487s-.853 0-1.341 0c-.488-.122-1.097-.121-1.585-.243h-.122l-.854.609v.244c0 .122.122.366.488.61.122 0 .244.122.366.122l.366.122c.122 1.342.122 2.562.122 3.904s0 2.684.122 3.904c-1.464.854-2.927 1.586-4.268 2.44-1.341.732-2.56 1.707-3.78 2.683-.122-.366-.244-.976-.366-1.586a68.663 68.663 0 01-.365-2.073l-.366-2.318c-.122-.732-.244-1.342-.244-1.952 0-.366-.122-.732-.122-.976v-.244c0-.488-.122-.854-.244-1.098-.122-.488-.61-.732-1.097-.732-.244 0-.61.122-.976.244l-1.34.244c-.489.122-.854.244-1.342.244-.366.122-.732.122-.975.122l-.488.244-.244.366v.244c0 .488.61.488.975.488h2.073c.122.488.244 1.22.366 2.074.122.976.244 2.196.366 3.538.122 1.342.243 2.805.365 4.269s.244 3.05.366 4.514c.122 1.464.122 2.928.244 4.27.122 1.341.122 2.439.122 3.415 0 .488 0 .976-.122 1.342 0 .366-.122.732-.244 1.098l-.122.122-.487.366a1.684 1.684 0 00-.488.366c-.244.244-.366.61-.366.732v.488l1.22-.122.121-.122c.366-.244.854-.488 1.463-.732.61-.244 1.098-.244 1.707-.244h.244c.122 0 .366 0 .488.122.244 0 .366.122.488.122h.366c.365 0 .61.122.853.122h1.341v-1.098l-.244-.122c-.487-.366-.853-.488-1.219-.732 0-.244-.122-.488-.122-.732l-.122-1.22c-.122-.854-.122-1.83-.244-2.805-.121-.976-.243-1.952-.243-2.806-.122-.854-.122-1.708-.244-2.318-.122-.61-.244-.976-.244-1.098 0-.122.122-.488.488-1.098.365-.488.853-.976 1.34-1.586.489-.488 1.098-1.098 1.708-1.586.61-.488 1.097-.976 1.463-1.342.366-.365.853-.731 1.463-.853.488-.122.976-.244 1.341-.366v.854l1.342 17.688s-.122 0-.122.122l-.488.244a1.684 1.684 0 00-.488.366c-.366.244-.366.61-.366.732v.122l.488.488h.244a15.36 15.36 0 011.22-.366c.365-.122.73-.244 1.097-.244.243 0 .609 0 .975.122s.732.122 1.097.244c.366.122.732.244.976.366.366.122.61.244.975.366l.366.122.488-1.22-.366-.244c-.488-.244-.853-.488-1.341-.61-.366-.122-.61-.244-.732-.366-.244-.122-.487-.244-.609-.488-.122-.122-.244-.488-.244-.976v-4.513c0-.976 0-1.83.122-2.928 0-.976.122-1.952.122-2.928.122-2.928.122-4.514.243-7.441.122-.488.244-.61.244-.61.244-.122.488-.122.854-.122 1.219-.122 2.316 0 3.17.244.853.244 1.707.976 2.439 2.073.121.244.365.488.487.732 0 .122.122.244.122.488s0 .366-.122.488c-.122.244-.366.366-.609.61-.244.244-.488.366-.854.61-.244.244-.488.366-.731.488l-2.073.366c-.366.122-.488.122-.61.244-.244.122-.244.488-.244.732 0 .122 0 .122.122.244v.122l.244.366c.122.122.244.244.244.366l.244.366c.122.122.122.244.244.244.243.366.609.488.975.488v-.488l.244.488c.122 0 .244 0 .488-.244.122-.122.365-.122.487-.244.244-.122.366-.122.488-.244s.244-.122.366-.122c.366-.122.609-.244.853-.366s.61-.366.732-.61c.366-.488.61-.854.731-1.098.244-.244.366-.488.488-.732s.366-.488.488-.854c.122-.244.244-.732.488-1.342v-.366c-.732-.731-1.22-1.829-1.707-2.561zm19.386-4.026s-.122-.122-.244-.366c0-.122-.121-.122-.121-.122v-.122c-.122-.366-.122-.854-.244-1.464l-.366-2.196c-.122-.854-.366-1.708-.61-2.44-.244-.854-.487-1.707-.853-2.317-.366-.732-.732-1.342-1.342-1.708-.609-.488-1.219-.61-1.95-.61a12.66 12.66 0 00-1.464.366c-.365.122-.609.366-.975.61-.244.244-.488.488-.732.854l-.853.854a14.96 14.96 0 00-2.317 2.439c-.853.976-1.585 1.952-2.194 3.05-.61 1.098-1.22 2.196-1.586 3.172-.365.976-.365 2.074-.487 2.806v.122c0 .244-.122.61-.122.976-.122.366-.122.732-.244 1.097-.122.976-.366 1.952-.488 3.172-.122 1.098-.244 2.318-.244 3.66 0 1.22 0 2.44.122 3.538.122 1.098.366 2.196.732 3.049.366.976.975 1.708 1.707 2.196h.122c.61.244 1.219.488 1.951.61a6.896 6.896 0 002.194.366c.976 0 1.829-.122 2.805-.244.975-.244 1.829-.488 2.56-.976.732-.488 1.463-.976 2.073-1.586.61-.61 1.098-1.463 1.463-2.317.122-.122.122-.366.244-.61s.122-.488.244-.854c.122-.244.122-.488.244-.732.122-.366.122-.488.122-.488 0-.244.122-.732.244-1.342l.365-2.318c.122-.854.244-1.83.366-2.806s.122-1.952.244-2.927v-2.562c0-.732-.122-1.342-.366-1.83zm-9.876-1.464c-.122-.244-.244-.366-.244-.732 0-.122 0-.366.244-.854.244-.366.488-.854.854-1.22.365-.366.731-.854 1.097-1.22s.731-.61.975-.732h.122c.244 0 .488 0 .732.244s.488.61.731 1.098c.244.488.366.854.61 1.342.122.488.366.976.488 1.22.366.732.487 1.464.487 2.196 0 .732.122 1.586.122 2.44 0 1.83-.121 3.781-.243 5.611-.244 1.83-.61 3.66-.976 5.612-.122.488-.366 1.098-.488 1.586l-.731 1.464a4.208 4.208 0 01-1.463 1.463c-.61.366-1.342.488-2.195.61-.732 0-1.463-.122-2.195-.488-.609-.244-1.097-.731-1.341-1.463 0-.488 0-1.098.122-1.952.122-.854.244-1.83.488-2.806s.365-1.952.609-2.806c.244-.976.366-1.586.488-2.196a123.17 123.17 0 001.097-3.537c.488-1.22.732-2.562.61-3.782.244-.366.122-.854 0-1.098zm38.164-12.565c-3.658 1.098-5.487 1.708-9.145 2.806-.731.122-.853.243-.975.365l-.244.244-.122.122c-.244.488-.61 1.342-1.097 2.806a188.922 188.922 0 00-1.707 4.88c-.61 1.83-1.342 3.904-2.073 5.977-.732 2.074-1.341 4.026-1.951 5.856-.61 1.83-1.219 3.416-1.707 4.88-.122.488-.366.853-.488 1.219a317.458 317.458 0 01-.366-4.391c-.243-2.318-.365-4.758-.487-7.198-.122-2.561-.244-5.001-.366-7.441-.122-2.44-.122-4.636 0-6.466l.122-.122c.244-.122.488-.366.731-.488.366-.243.61-.365.976-.487l.731-.366.244-.122v-1.342l-.609.244c-.244.122-.61.244-.732.366-.244.122-.366.122-.61.244-.243.122-.487.122-.731.244s-.732.122-1.097.122l-.732.122h-1.341c-.244 0-.732-.122-1.22-.122h-.243l-.488.61v.122c0 .244.122.487.488.609.121.122.365.122.609.244s.366.122.488.244c.122 1.342.122 2.928.244 4.514 0 1.708.122 3.416.122 5.246l.122 5.489c0 1.83 0 3.538.122 5.124v8.417c0 .366 0 .854-.122 1.22-.122.488-.122.854-.244 1.22-.122.244-.122.366-.122.366-.244.122-.366.122-.61.122s-.609.122-.853.122h-.366l-.122 1.342h.488c.487 0 .975.122 1.341.244s.853.244 1.341.488c.61.244.854.366 1.463.61h.122l1.22-.244v-.366c0-.244.121-.488.243-.854s.122-.488.122-.488l.122-.122c.244-.488.61-1.22 1.098-2.318.487-1.098.975-2.318 1.585-3.782.609-1.463 1.219-3.049 1.951-4.757.609-1.708 1.341-3.416 1.95-5.124.61-1.708 1.342-3.416 1.951-5.001.61-1.586 1.22-3.05 1.707-4.392.488-1.22.976-2.318 1.342-3.05v-.122c0 .244 0 .61.121.976.122 1.22.244 2.806.366 4.636s.244 3.903.366 6.099.244 4.392.244 6.466c.122 2.074.122 4.025.244 5.733 0 .732.122 1.464.122 2.074 0 .732.122 1.342.122 1.708v.244l-.366.244c-.244.244-.488.488-.732.61-.366.244-.487.366-.609.366-.366.244-.732.488-1.098.61-.366.244-.731.488-.975.854l-.244.244.244.244a.67.67 0 00.609.366h.854c.488-.122.853-.366 1.219-.488.366-.122.732-.366.976-.488.365-.122.609-.244.975-.366s.732-.122 1.219 0h3.902l.366-.122.122-.122c.122-.122.244-.244.244-.61v-.122l-.122-.122c-.122-.122-.244-.244-.366-.244h-.122c-.244 0-.488-.122-.975-.244-.488-.122-.854-.244-.976-.244-.366-.122-.488-.122-.488-.122-.121 0-.121-.122-.243-.244 0-.122-.122-.366-.122-.488s0-.244-.122-.366c0-.122-.122-.366-.122-.488-.122-1.22 0-2.806.122-4.392 0-.854.122-1.707.122-2.683.122-2.684.244-5.49.365-8.296l.366-8.417v-2.928c0-1.83 0-3.416.244-4.27 0-.122.244-.365 1.219-.975.488-.366 1.098-.61 1.585-.854.244-.122.366-.366.366-.488s0-.366-.122-.488c-.243-.488-.609-.61-.975-.488zm-16.217-.488c.488.244 1.341.366 2.683.366h.121c.976 0 1.951-.122 2.927-.366.975-.244 1.951-.61 2.682-1.22.854-.61 1.463-1.342 1.951-2.196.122-.366.122-.854-.122-1.098-.488-.854-.731-1.342-1.219-2.318l-.122-.122c-.122 0-.122-.122-.366-.244a.931.931 0 00-.609-.244l-.366.122c-.122 0-.244.122-.488.244s-.366.244-.61.366c-.243.122-.365.244-.609.366l-.61.366v.244c0 .366 0 .732.244 1.098l.853.61c.244.122.488.244.61.366v.122c0 .122 0 .122-.122.244a1.9 1.9 0 01-.731.976c-.366.244-.732.488-1.098.61-.366.122-.853.244-1.219.244-.488 0-.854-.122-1.341-.244-.61-.122-.854-.488-.976-.854-.122-.488 0-1.098.244-1.708l.366-.732-.61-.732-1.829-.244-.731.366-.244.976a9.113 9.113 0 00-.366 2.44c.366.854.854 1.708 1.707 2.196zm60.355 26.106c.122-.854.244-1.83.244-2.806.122-1.098.122-2.196.244-3.294v-3.293c0-.976-.122-1.952-.366-2.806-.244-.854-.487-1.464-.975-1.83-.488-.488-1.097-.976-1.585-1.342-.61-.488-1.219-.976-1.951-1.464s-1.341-.854-1.951-1.342a47.443 47.443 0 01-1.585-.976h-.122l-.244-.122c-.122 0-.366-.122-.487-.244-.122 0-.366-.122-.488-.122v-2.073c0-.366.122-.61.366-.854.243-.244.609-.488.975-.732s.61-.366.975-.488c.366-.122.732-.244.732-.61s0-.61-.244-.854c-.122-.122-.366-.244-.731-.366-.854 0-1.585.122-2.439.366a5.52 5.52 0 01-1.951.366h-.488c-.243 0-.487 0-.731-.122l-.732-.122c-.244 0-.366 0-.487-.122-1.707-.488-2.561-.732-4.268-1.098h-.122c-.244 0-.366.122-.488.244l-.243.244v.366c0 .488.121.976.609 1.22.366.244.732.366 1.098.61.365.122.731.366 1.097.488a.953.953 0 01.488.488c0 .122.122.488.122 1.22 0 .61-.122 1.22-.122 1.585a.67.67 0 01-.366.61c-.244.244-.488.366-.854.488a15.2 15.2 0 01-1.219.366c-.488.122-.853.244-1.219.488-1.341.732-2.439 1.586-3.292 2.684-.854.976-1.585 2.196-2.195 3.416-.61 1.22-1.097 2.562-1.585 3.904-.366 1.341-.854 2.683-1.341 3.903-.122.488-.366.854-.61 1.22-.244.488-.366.976-.488 1.586-.122.976.244 1.952.854 3.172a18.08 18.08 0 002.316 3.294c.976 1.097 1.951 2.073 2.927 2.805 1.097.854 1.951 1.464 2.682 1.586.122 0 .366.122.732.244l.975.244c.366.122.732.122.976.244.243 0 .365.122.487.122v4.026c-.122.732-.244 1.22-.609 1.586-.366.366-.732.61-1.098.732-.365.122-.853.244-1.097.244s-.975.122-.975.61v.488c0 .244.243.487.609.609.61.122 1.219.244 1.951.366s1.463.244 2.073.488c1.219.366 2.56.854 3.902 1.342.121 0 .243.122.365.122s.244.122.244.122l.122.122c.122.122.244.122.366.122s.244.122.366.122l.365.122.732-1.342-.244-.244c-1.341-1.098-2.073-1.586-3.536-2.683a1.684 1.684 0 01-.366-.488c-.121-.366-.121-.488-.121-.488l.609-5.612s.122 0 .244-.122l1.097-.366c.488-.122.854-.244 1.342-.366.487-.122.853-.244 1.097-.366 1.219-.732 2.561-1.464 3.902-2.318 1.341-.854 2.682-1.585 3.901-2.561l1.22-1.098.609-3.66zm-9.876-15.615c0-.366 0-.732.122-.976.122 0 .366.122.488.122.731.732 1.219 1.22 1.829 1.708.487.488.975.854 1.219 1.342.244.488.488.976.61 1.464.122.61.122 1.342 0 2.318-.122.61-.122 1.464-.244 2.805-.122 1.22-.244 2.44-.488 3.782s-.488 2.562-.731 3.782c-.244 1.098-.61 1.952-.976 2.44 0 .122-.244.244-.853.854-.488.488-.976.976-1.586 1.464-.609.487-1.097.975-1.707 1.341-.243.244-.487.366-.609.366v-1.098c0-.487.122-.975.122-1.585l.122-1.464c0-.366.122-1.098.244-1.952.121-.976.243-1.952.365-3.05.122-1.098.244-2.196.488-3.172s.244-1.83.366-2.317l.366-2.074c.122-.854.243-1.586.365-2.44l.366-2.562c.122-.366.122-.732.122-1.098zm-6.34 18.177v1.098c0 .976 0 1.952-.244 2.683 0 0-.122.122-.244.122h-.731c-.122 0-.366-.122-.854-.488-.366-.365-.732-.731-1.097-1.219l-1.098-1.464c-.122-.244-.487-.854-.609-1.098-.122-.366-.122-.732-.244-1.098l-.122-.732-.366-2.196c-.122-.732-.244-1.464-.244-2.196-.122-.732-.122-1.342 0-1.952.122-.732.244-1.707.61-2.805s.731-2.318 1.341-3.294c.61-1.098 1.341-1.952 2.073-2.806.731-.732 1.585-1.098 2.682-.976v.366c-.122 2.318-.122 4.758-.122 7.198 0 2.561-.122 4.879-.243 7.197l-.488 3.66zm39.993-14.395c.243-1.464.487-2.928.609-4.392.122-.61.244-1.342.366-1.952.122-.854.366-1.708.366-2.44.122-.61-.244-1.097-.854-1.219l-.731-.122c-2.439-.244-4.999-.366-7.56-.488-2.438 0-4.999-.122-7.438-.366h-.365v.366c-.122.61.243.975.487 1.097l.732.366a.953.953 0 01.488.488c.122.122.122.488.122.61-.122.61-.244 1.342-.366 1.952-.122.61-.366 1.342-.488 1.952a68.559 68.559 0 00-1.097 5.246l-.244 1.098a179.482 179.482 0 01-1.098 5.123l-1.585 7.442c-.243 1.342-.609 2.805-.975 4.391a300.609 300.609 0 00-1.097 4.88c-.366 1.586-.732 3.294-1.098 4.758 0 0-.122 0-.244.121-.244 0-.487.122-.853.122h-.854c-.244 0-.731.122-.853.488v.732l.366.122c1.219.244 2.438.366 3.779.732 1.342.244 2.683.61 4.024.854 1.341.244 2.683.61 4.024.854.487.122.975.244 1.341.366.853.244 1.707.488 2.317.488h.122c.243 0 .487 0 .731-.122.244 0 .61-.122.854-.122.731 0 1.463-.122 2.194-.244.732-.122 1.464-.366 2.073-.732.732-.366 1.098-.854 1.219-1.586.122-.488.122-1.098.122-1.83 0-.731 0-1.463-.122-2.317-.121-.732-.121-1.586-.243-2.196-.122-.732-.244-1.342-.366-1.708-.244-.854-.488-1.586-.976-2.196-.365-.488-.975-1.22-1.585-2.074l-.609-.61c-.244-.122-.488-.366-.732-.488-.244-.244-.488-.366-.731-.488-.244-.122-.366-.244-.488-.244l-.122-.122-.61-.122-2.438.976c-.244.122-.488.366-.732.488-.244.244-.488.61-.488.976 0 .244 0 .488-.122.732 0 .244 0 .61.122.854 0 .244.122.61.244.854.244.488.488.61.732.61.366.122.731 0 .975-.122s.488-.244.854-.366l.731-.366a.371.371 0 01.488 0c.244 0 .61.244.975.488.366.366.732.732 1.098 1.22.366.488.609.976.731 1.586.122.488.244.976.122 1.464-.122.61-.244 1.22-.609 1.83-.244.61-.61 1.22-.976 1.707-.366.488-.853.976-1.219 1.22-.366.244-.732.366-1.097.366l-.732-.366c-.732-.366-1.219-.61-1.829-.854-.488-.244-1.097-.488-1.585-.732l-1.463-.731c-.244-.122-.488-.244-.732-.244-.244-.122-.731-.244-.853-.366-.244-.488.244-3.538.731-5.856.244-1.464.61-3.05.732-4.392.122-1.098.244-2.439.366-3.659.122-2.562.365-5.124.975-6.466.122 0 .244 0 .488-.122.244 0 .488-.122.853-.122l.61-.122c.488-.122 1.097-.122 1.829-.244h.122s.244 0 .366.366.244.732.365 1.22c.122.488.122.976.244 1.586 0 .61.122 1.098.244 1.464l.122.366h1.097v-.488c0-.366 0-.854.122-1.464l.244-1.708c.122-.488.122-1.098.244-1.464l.122-1.098c.122-.488.244-.854.366-1.22.244-.488.366-.976.488-1.463l.121-.366c0-.244 0-.488-.121-.61l-.244-.244h-.244c-.122 0-.366 0-.488.122s-.244.122-.244.244h-.122l-1.219 2.683h-4.755c0-.244.122-.61.122-.976.122-.609.244-1.341.365-2.073.122-.732.244-1.342.366-2.074.122-.61.244-1.098.244-1.464l.488-3.416a69.61 69.61 0 01.366-2.074c.122-.366.122-.61.122-.854h3.901l2.439.122c.61 0 1.097 0 1.463.122.366.366.732.61.854.732l.243.244v2.196c0 .488 0 .854.122 1.098 0 .122.122.366 0 .854l.122 2.928.122.244 1.098.61v-.854zm34.262-7.442c-.122-.366-.488-.61-.854-.488-3.901.61-5.852.854-9.632 1.586-.732 0-.976.122-1.098.244-.121.122-.243.122-.243.244l-.122.122c-.366.488-.976 1.708-1.707 3.416-.732 1.708-1.829 3.904-2.805 6.344-1.097 2.439-2.194 5.001-3.414 7.685l-3.414 7.685c-1.097 2.44-1.951 4.514-2.804 6.222l-.732 1.464c.244-1.83.366-3.904.732-6.222.366-3.294.853-6.709 1.219-10.125.488-3.538.976-6.953 1.463-10.369.488-3.416 1.098-6.466 1.585-9.149 0 0 0-.122.244-.244s.61-.366.854-.488c.366-.122.731-.366.975-.488.366-.122.61-.244.732-.366l.244-.122.243-1.586-.731.244c-.366.122-.61.244-.854.244-.243.122-.365.122-.609.244-.244 0-.488.122-.732.122h-1.097l-.854-.122c-.244 0-.365-.122-.609-.122-.244-.122-.488-.122-.732-.244s-.61-.244-1.097-.488l-.244-.122-.61.732v.122c0 .244 0 .488.366.854.122.122.366.244.488.488.122.122.366.244.487.488.122.122.122.122.122.244-.243 1.951-.609 4.025-.853 6.343a491.263 491.263 0 00-1.097 7.32l-1.22 7.563c-.366 2.562-.731 4.88-1.219 7.075-.366 2.196-.732 4.27-.975 5.978a64.39 64.39 0 01-.366 2.562c-.122.61-.244 1.22-.244 1.708 0 .244-.122.61-.244 1.219-.122.61-.244 1.098-.488 1.708-.122.61-.366 1.098-.487 1.586-.244.488-.366.61-.244.61-.244.122-.366.122-.61.122h-1.341l-.366 1.342.366.122c.488.122.853.366 1.219.61.366.244.732.61 1.219.976l1.22 1.22.122.122h1.341l.122-.366c.122-.366.244-.732.488-1.22l.243-.61.122-.122c.366-.61.854-1.586 1.585-3.05.732-1.342 1.464-2.928 2.439-4.879.975-1.83 1.951-3.904 3.048-6.1 1.098-2.196 2.073-4.392 3.17-6.587 1.098-2.196 2.073-4.392 3.171-6.466.975-2.074 1.95-3.904 2.804-5.611.853-1.586 1.463-2.928 2.073-3.904v-.122c0 .366-.122.854-.122 1.464-.244 1.708-.488 3.903-.854 6.465a380.25 380.25 0 00-1.097 8.418c-.488 3.049-.854 5.977-1.341 8.905-.366 2.928-.854 5.489-1.098 7.807a180.82 180.82 0 01-.365 2.806c-.122.976-.244 1.83-.366 2.44 0 .244-.122.366-.122.488l-.366.366c-.244.244-.61.488-.853.732-.366.366-.61.366-.61.366-.488.244-.854.488-1.219.61a7.039 7.039 0 00-1.22.976l-.122.244.122.244c0 .122.122.488.488.61l.732.243h.121c.488-.121.976-.243 1.342-.487l1.097-.366c.366-.122.61-.122.976-.244.365 0 .731 0 1.219.122.366.122.853.244 1.219.244.366 0 .61.122.976.244 0 0 .121 0 .365.122.122 0 .366 0 .61.122.244 0 .366 0 .488.122h.244l.243.121.366-.243c.122-.122.244-.244.244-.488v-.366c0-.122-.122-.244-.244-.366s-.244-.122-.122-.122c-.122-.122-.487-.244-.853-.488s-.732-.488-.976-.61-.365-.244-.487-.366-.122-.244-.122-.488v-2.074a53.58 53.58 0 011.219-6.1c.244-1.097.488-2.317.732-3.537.731-3.66 1.463-7.32 2.316-11.223l2.439-11.346.731-4.025c.366-2.44.732-4.758 1.342-5.856.122-.122.365-.488 1.463-1.098.609-.244 1.097-.488 1.707-.732 0 0 .122-.366 0-.854zm-148.754 39.282h.488c.365.244.609.732.609 1.464v6.343c.122 1.952.122 2.928.122 4.758.122.488.122.61.122 1.098 2.926-3.538 3.78-7.93 4.268-11.102.122-1.097.853-1.951.975-2.073h.244c.61 0 1.097 4.147 1.219 12.321 0 2.44-.122 3.781-.731 4.025h-.488c-.488 0-.853-1.22-.975-3.903 0-.976 0-1.464-.122-2.562h-.122c-1.829 3.782-3.17 5.733-4.39 5.855h-.366c-1.097 0-1.707-1.097-1.828-3.293-.122-2.44-.122-3.782-.244-6.222.244-3.66.487-5.977 1.219-6.709zm22.069.366c1.463.122 2.438 1.098 2.682 2.561 0 .122-.122.244-.366.488h-.365c-.488-.488-1.098-.854-1.829-.976h-.366c-1.951 1.586-2.926 3.904-2.926 6.954v.976c0 2.074 1.341 3.172 4.023 3.172.488 0 1.707-.122 3.902-.244.122 0 .244.122.244.244-.732 1.707-2.439 2.561-4.755 2.561-2.439 0-4.146-1.219-4.999-3.537-.244-.976-.366-1.342-.366-1.342 0-4.148 1.097-7.442 3.292-10.003.731-.61 1.341-.854 1.829-.854zm12.071.853c1.951.122 3.17 1.22 3.78 3.294v.366c-.122 2.196-2.073 3.904-5.975 5.124h-.609c-.122 0-.244-.122-.366-.366v-.366c.366-.488 1.707-1.586 4.024-3.172.609-.61.853-1.098.975-1.464-.488-.61-1.219-.976-1.951-1.098-1.585-.122-2.804 1.342-3.658 4.392 0 0-.122.61-.122 1.708-.122 2.196.854 3.537 2.805 4.025h.609c.61 0 1.951-.488 4.024-1.341.244-.122.61-.122.854-.122h.122c.121 0 .121.122.243.122 0 1.341-1.219 2.439-3.658 3.659-.487.122-.853.244-.975.244h-1.463c-1.951 0-3.414-1.586-4.268-4.635-.122-.488-.122-.854-.122-1.342v-.976c.122-3.904 1.464-6.588 4.39-7.93.366-.122.853-.122 1.341-.122zm14.144.977c.366.366.61 2.073.731 5.245-.121 1.952-.121 3.05-.243 5.002 0 .854.122 2.318-.122 3.416-.122.487-.366.853-.488.853h-.244c-.61-.244-.975-1.951-.731-4.879.121-2.196.243-3.904.365-4.758v-.732c0-.122 0-.122.122-.244v-.122h-.122c0 .122-.731 1.342-2.316 3.66 0 .244-.122.366-.366.488h-.488a17.184 17.184 0 01-2.926-3.904c0 .244 0 .488.122.732-.122 3.294-.244 5.002-.366 8.418 0 .609-.244.853-.732.853-.487 0-.731-.366-.731-.853 0-1.464.122-2.196.122-3.538.122-2.074 0-5.124.244-8.296.122-1.219.365-1.951.487-1.951h.122c.122 0 .61 1.22 1.585 3.537.61 1.22 1.463 2.44 2.439 3.416.731-1.22 1.585-2.318 2.804-3.294h.122c0-.122 0-.122-.122-.244 0-.122.122-.244.122-.366 0-.244 0-.366-.122-.488.244-1.341.488-1.951.732-1.951zm3.414.731h.487c.366.244.61.732.488 1.22-.244 2.806-.488 4.636-.488 5.124-.121 1.586-.121 2.318-.243 3.904 0 .366 0 .488.122.854 3.17-2.562 4.389-6.222 5.121-8.54.243-.854.975-1.464 1.219-1.464h.244c.609.122.731 3.416.366 10.004-.122 1.951-.488 3.049-.976 3.171h-.488c-.487 0-.731-1.098-.609-3.171 0-.854.122-1.22.122-2.074h-.122c-2.073 2.928-3.658 4.269-4.877 4.269h-.366c-1.098-.122-1.585-.976-1.463-2.805.122-2.074.122-3.05.243-5.124 0-3.05.366-4.88 1.22-5.368zm25.361 4.148c.366.366.61 1.83.61 4.514-.122 1.707-.244 2.561-.488 4.269-.122.732 0 1.952-.244 2.928-.122.488-.366.732-.488.732h-.122c-.609-.244-.853-1.708-.609-4.148.244-1.952.365-3.293.487-4.025v-.61c0-.122.122-.122.122-.122v-.122h-.122c0 .122-.853 1.098-2.438 2.927 0 .122-.122.244-.366.366-.122 0-.244 0-.488-.122-1.219-1.22-2.073-2.317-2.682-3.537v.61c-.244 2.805-.366 4.269-.61 7.197 0 .488-.366.732-.853.61-.488 0-.732-.366-.61-.854.122-1.22.122-1.83.244-3.05.122-1.83.122-4.391.61-7.075.121-1.098.487-1.708.609-1.586h.122c.122 0 .61 1.098 1.341 3.172.61 1.098 1.342 2.196 2.317 3.171.732-.975 1.707-1.829 2.926-2.561h.122c0-.122 0-.122-.122-.244 0-.122.122-.244.122-.366v-.488c.122-1.098.366-1.586.61-1.586zm7.926 1.708c1.829.366 3.048 1.342 3.536 2.928v.244c-.244 1.708-2.317 2.684-6.219 3.171-.244 0-.366 0-.609-.122-.122 0-.244-.122-.244-.365v-.244c.365-.366 1.707-.976 4.145-1.952.61-.366.976-.732.976-.976-.488-.61-1.098-.854-1.829-1.098-1.585-.244-2.927.732-3.902 3.05 0 0-.122.488-.244 1.341-.244 1.708.61 2.928 2.439 3.416.244 0 .366 0 .487.122.61.122 1.951-.122 4.146-.61h.976c.121 0 .121.122.243.122-.122.976-1.463 1.708-3.901 2.44-.488.122-.854.122-.976 0-.609-.122-.853-.122-1.463-.244-1.951-.244-3.292-1.586-3.902-4.148v-.976c0-.243 0-.487.122-.731.366-3.05 1.951-4.88 4.877-5.612.366.122.854.244 1.342.244zm12.802 2.806c.244 0 .244.122.488.122.487.122.609 1.098.609 3.049 0 .366-.122.488-.122.854-.122.61-.365 1.22-.853 1.708-.244 3.172-.244 5.368-.244 6.1 0 .61-.488.976-1.341.854-3.658-.61-5.487-.976-5.487-1.22v-.488c0-.488.732-.61 2.073-.366.366 0 .488.122.853.122.244 0 .976.244 2.439.61-.122-1.586-.122-3.05.122-4.27-.732.122-.976.244-1.707.366h-.732c-.487-.122-.731-.122-1.219-.244-1.829-.488-2.561-1.464-2.439-2.806v-.488c.244-1.585 1.464-2.927 3.658-3.659.488-.122.976-.122 1.585 0h.244c.488.122.976.366 1.341.854.122-.854.366-1.22.732-1.098zm-5.853 4.269c0 .732.244 1.22.976 1.342.366 0 .488.122.853.122.976.122 1.829-.122 2.561-.732.122-.61.244-1.22.366-1.586v-.366h-.244c-.122 0-.122-.122-.122-.122v-.243c.122-.732-.122-1.098-.61-1.22h-.244c-1.219-.244-2.438.61-3.414 2.683-.122 0-.122 0-.122.122zm9.755-3.415c.244 0 .244.122.488.122.366.244.487.61.487.976-.365 2.074-.731 3.415-.853 3.781-.122 1.22-.244 1.708-.366 2.928v.732a11.32 11.32 0 005.487-5.733c.244-.61.975-.976 1.219-.976h.244c.61.122.488 2.683-.244 7.563-.244 1.464-.609 2.196-1.219 2.196-.244 0-.244 0-.488-.122-.487-.122-.609-.976-.487-2.44.121-.61.121-.854.243-1.464h-.122c-2.194 1.83-3.901 2.806-4.999 2.562h-.365c-1.098-.244-1.585-.976-1.342-2.318.244-1.586.366-2.318.488-3.782.488-2.439.976-3.781 1.829-4.025zm10.364.854c.122 0 .244.122.244.366 0 .122 0 .244-.122.366-.122.366-.122.853-.122 1.219 0 .122-.122.244-.122.366 0 .488 0 .854-.122 1.22 0 .366-.244.976-.366 1.83v.122h.122c1.585-1.098 3.414-1.83 5.487-2.196.244-.122.731-.122 1.219.122 0 .122.122.122.122.244-.122.488-2.073 1.22-5.975 2.684v.122c.61 1.098 1.707 2.562 3.171 4.392.243.61.243.976.243 1.098-.121.244-.365.244-.609.244-.61-.366-1.707-1.464-3.048-3.538a7.183 7.183 0 01-.854-1.708h-.122c-.366 1.22-.488 2.318-.609 2.928-.244 1.098-.732 1.708-1.098 1.586-.488-.122-.609-.61-.366-1.586.122-.976.244-1.464.366-2.44.732-3.416 1.341-5.612 1.707-6.831.244-.61.488-.732.854-.61zm12.559 5.001c.61.122.853.244 1.463.366.975.244 1.951 1.22 2.926 2.562.366.976.61 1.708.488 2.318 0 .122 0 .244-.122.366-.366 1.952-2.195 3.05-5.243 3.416-.244 0-.609 0-1.097-.122-.366-.122-.61-.122-.976-.244-2.194-.488-3.658-2.074-3.536-4.026.122-3.294 1.707-5.368 3.049-5.002.244.122.365.122.609.244.854-.122 1.707-.122 2.439.122zm-4.024 3.294c-.366 1.952 0 3.172.488 3.538.366.244.853.61 1.585.732 1.341.366 2.804-.122 4.389-1.098.366-.488.61-.976.61-1.22s.122-.488.122-.732c.122-.732-.366-1.708-1.585-2.928-.366-.244-.61-.366-.854-.366-.243-.122-.365-.122-.609-.244-1.951-.244-2.927.122-3.048.854-.122.366-.366.61-.854.61-.122.488-.244.732-.244.854zm13.29-.854c.366.122.488.122.731.244 1.342.732 2.073 2.318 1.586 3.416-.122.244-.488.488-.732.732.853.488 1.585 1.098 2.073 1.952.244.488.366 1.22.122 2.074-.122.732-1.098.975-3.049.975-1.097-.243-1.585-.365-2.682-.609-.244-.122-.244-.122-.488-.122v.488c-.122.365-.366.487-.853.365-.732-.121-.976-.731-.732-1.829.122-.61.122-.854.244-1.464 0-1.464.122-2.44.122-2.928.122-.366.122-.61.244-.976s.244-.61.488-.854c0-.122 0-.122-.122-.122v-.244h.122s0-.122-.122-.122c0-.244 0-.244.122-.488 0-.122.121-.122.365-.122h.122l.488.244c.975-.61 1.585-.732 1.951-.61zm-1.463 1.952c0 .732 0 1.22.122 1.342.487.488 2.194 0 2.438-.854.122-.366-.122-.854-.609-1.342h-.122c-.732-.244-1.342.122-1.829.854zm-.244 2.44c0 .122 0 .122 0 0v.366c-.122.61-.122.854-.244 1.464-.122.488-.122.854 0 1.098h.122c.366.122.61.122.975.244.366.122.61.122.976.244 2.073.488 3.17.488 3.292.122 0-.122.122-.244.244-.244.122-.854-.366-1.464-1.585-2.074-.61-.366-.976-.488-1.707-.732-.61-.122-1.22-.244-2.073-.488zM9.405 157.126c1.341-.244 2.317 0 2.439.244-.122.732-2.073 1.464-5.853 2.44v.122c.854 1.708 1.83 4.148 2.926 7.563.732 2.074.976 3.05 1.707 5.124 0 .122 0 .244-.243.488-.122 0-.244.122-.366.122-.366.122-.854-.732-1.463-2.562-.122-.366-.488-1.586-1.098-3.66-.61-1.951-1.219-3.415-1.463-4.269v-.244c-.122-.122-.122-.244-.244-.244-.244-.61-.366-1.22-.487-2.074-1.342.366-2.073.732-2.195.854 0 0-.122 0-.122-.122-.366.122-.488.244-.854.366-.243.122-.487.122-.731.244-.366.122-.61 0-.732-.244-.244-.488.366-1.22 1.83-1.83.73-.366 3.413-1.586 6.95-2.318zm9.023-2.074c1.95-.488 3.536.244 4.755 1.83 0 .122 0 .244.122.366.61 2.074-.975 4.27-4.39 6.709-.243.122-.365.122-.609.122-.122 0-.244-.122-.488-.244 0-.122-.122-.244-.122-.366.122-.61 1.22-1.951 3.049-4.269.365-.732.61-1.342.487-1.708-.731-.488-1.463-.61-2.316-.366-1.707.366-2.439 2.196-2.317 5.367 0 0 .122.61.366 1.708.61 2.074 1.95 3.172 4.023 2.928.244-.122.366-.122.61-.122.61-.122 1.83-1.098 3.658-2.562.244-.122.488-.244.854-.366h.122c.121 0 .121 0 .243.122.366 1.22-.487 2.806-2.56 4.636-.366.244-.732.488-.854.488-.61.244-.975.244-1.463.488-1.95.61-3.901-.366-5.73-3.05-.244-.366-.366-.854-.488-1.22s-.122-.488-.244-.854c-1.097-3.659-.488-6.709 1.95-8.905.245-.366.732-.61 1.342-.732zm9.388-1.951c1.83-.366 3.536.732 5.121 3.049.244.61.488 1.22.61 1.708.244.976-.244 1.952-1.585 3.172-.488.366-.975.61-1.585.732h-.122c-.61.122-.975.122-1.341 0 .122.366.122.61.244 1.098.365 1.098 1.097 3.05 1.219 4.879a.917.917 0 01-.61.854c-.244 0-.61-.122-.731-.488-.732-1.219-.976-3.049-1.22-4.147-.121-.366-.121-.61-.243-1.098-.854-2.562-1.464-4.148-1.585-4.88-.122-.366-.122-.488-.244-.732-.488-2.44.244-3.781 2.072-4.147zm-.975 2.805l.122.122c0 .122.122.244.122.366 0 0 0 .122-.122.122l.122.122c.61 1.708.975 2.806 1.097 3.416.122.366.122.488.244.854 0 .122.122.122.244.122 1.95-1.098 3.048-1.83 3.048-2.196.366-.732.366-1.342.244-1.83-.244-.976-1.341-1.83-3.414-2.805h-.488c-.122.122-.731.731-1.219 1.707zm9.389-4.391c1.829-.366 3.414.732 4.999 2.927.243.61.487 1.098.61 1.586.243.854-.367 1.83-1.708 3.05-.487.366-.975.61-1.585.732h-.122c-.61.122-.975.122-1.34 0 .121.366.121.61.243.976.244 1.098.975 2.928 1.097 4.636a.917.917 0 01-.61.854c-.243 0-.609-.122-.73-.488-.61-1.22-.854-2.928-1.098-4.026-.122-.366-.122-.61-.244-.976-.854-2.44-1.341-3.904-1.463-4.636-.122-.244-.122-.488-.244-.732-.488-2.317.366-3.659 2.195-3.903zm-1.098 2.683c0 .122.122.122.122.122 0 .122 0 .244.122.366 0 0 0 .122-.122.122 0 .122.122.122.122.122.488 1.586.854 2.684.976 3.294.121.366.121.488.243.854 0 .122.122.122.244.122 1.951-1.098 3.048-1.708 3.17-2.074.366-.732.488-1.342.366-1.708-.244-.976-1.341-1.829-3.292-2.683h-.488c-.365 0-.975.61-1.463 1.463zm7.438-3.781c.244 0 .244 0 .488-.122.487.122.731.488.853.976.488 2.561.61 4.147.732 4.635.366 1.342.487 2.074.731 3.416.122.366.244.488.366.732 2.56-3.294 2.926-6.71 3.048-8.905 0-.854.61-1.586.854-1.586h.244c.61-.122 1.585 2.806 2.804 8.539.366 1.708.244 2.684-.244 3.05-.244 0-.244.122-.487.122-.488.122-.976-.732-1.464-2.562-.121-.732-.243-1.098-.365-1.83h-.122c-1.342 3.05-2.683 4.88-3.78 5.124-.122 0-.244 0-.366.122-1.097.244-1.829-.366-2.195-2.074-.365-1.83-.61-2.684-1.097-4.514-.61-2.684-.61-4.391 0-5.123zm19.02-2.685c1.342-.122 2.317.122 2.317.244-.243.488-2.316.976-6.096 1.586v.122c.488 1.22 1.097 3.172 1.463 5.734.244 1.586.366 2.318.732 3.904 0 .122-.122.244-.244.366-.122 0-.244 0-.366.122-.366.122-.732-.61-.975-1.952 0-.244-.122-1.22-.488-2.806-.244-1.464-.61-2.562-.732-3.172 0-.122 0-.122.122-.122-.122-.122-.122-.122-.122-.244-.122-.366-.122-.976-.122-1.586-1.34.244-2.072.366-2.316.488 0 0-.122 0-.122-.122-.366.122-.488.122-.854.244-.244 0-.487.122-.731.122-.366 0-.61 0-.732-.244-.122-.366.61-.854 2.073-1.22.975-.366 3.658-1.22 7.194-1.464zm8.658-1.097c.61-.122.975-.122 1.585-.122 1.097-.122 2.317.488 3.78 1.586.731.854 1.097 1.586 1.219 2.318v.366c.244 2.317-1.097 4.147-4.024 5.977-.244.122-.61.244-1.097.366-.366.122-.61.122-.975.244-2.317.488-4.268-.61-4.878-2.806-1.097-3.781-.365-6.587 1.22-6.709.244 0 .487 0 .731-.122.854-.732 1.585-.976 2.439-1.098zm-2.805 5.368c.366 2.317 1.098 3.415 1.83 3.659.365.122 1.097.244 1.828.122 1.463-.244 2.683-1.342 3.902-3.05.122-.731.244-1.219.244-1.585 0-.366-.122-.488-.122-.854-.122-.854-.975-1.708-2.682-2.44-.488 0-.732-.122-.976 0-.244 0-.488 0-.731.122-1.951.61-2.927 1.342-2.805 2.196.122.366-.122.732-.61 1.098.123.244.123.488.123.732zm13.291-6.222c1.829-.122 3.292.732 4.389 2.318.122.488.244.854.366 1.22.122.61-.61 1.342-2.073 2.074-.488.244-1.097.366-1.707.488h-.122c-.61.122-.975 0-1.341-.122 0 .244 0 .488.122.732.122.853.488 2.317.366 3.415 0 .244-.366.488-.732.61-.244 0-.61-.122-.732-.366-.365-.732-.365-2.196-.487-2.928 0-.244 0-.488-.122-.731-.366-1.83-.61-2.928-.732-3.538 0-.244 0-.366-.122-.488.122-1.586 1.098-2.562 2.927-2.684zm-1.464 1.83l.122.122v.244s0 .122-.122.122l.122.122c.244 1.22.488 1.952.488 2.44 0 .244 0 .366.122.61 0 .122.122.122.244.122 2.195-.732 3.292-1.098 3.414-1.342.488-.488.61-.976.61-1.22-.122-.61-.976-1.342-2.927-2.074h-.487c-.366-.122-.976.244-1.586.854zm7.804-2.318h.488c.488.122.731.366.731.732.122 1.708 0 2.928 0 3.294.122.976.122 1.463.244 2.439.122.244.122.366.244.61 3.048-2.195 4.024-4.757 4.39-6.099.122-.488.853-1.098 1.097-1.098h.244c.731 0 1.097 1.952 1.463 5.977.122 1.22-.122 1.83-.731 2.074-.244 0-.244 0-.488.122-.488.122-.854-.488-.976-1.83 0-.488 0-.732-.122-1.219h-.121c-1.83 2.073-3.293 3.293-4.512 3.537h-.366c-1.097.122-1.829-.366-1.95-1.464-.123-1.342-.244-1.952-.366-3.293-.244-2.074 0-3.294.731-3.782zm13.412-.61c.732 0 1.341.122 1.951.366.488 0 .732.366.732 1.342 0 .366.122 1.22.244 2.318v2.317c0 .366.121.732.121.854s-.243.366-.609.366h-.244c-.488-.122-.732-.366-.732-.854 0-.61 0-.854-.122-1.464h-.121c-.366.488-1.464 1.464-3.049 2.928-.244 0-.244.122-.487.122h-.122c-.244 0-.366-.122-.366-.366 0-.366.853-1.464 2.804-3.172-.61 0-.853.122-1.463.122-1.463-.122-2.195-.487-2.195-1.097v-.854c0-.854.61-1.708 2.073-2.44.488-.366 1.098-.488 1.585-.488zm-2.073 3.05v.122c0 .488.61.61 1.586.61h1.828v-2.806c-.243-.122-.731-.244-1.219-.244-.853 0-1.585.488-2.195 1.464v.854zm101.568-22.813c-2.561-4.147-7.072-4.879-9.877-3.171-.487.244-.853.609-1.219.975-2.926-.731-11.827-3.293-18.168-8.051l-1.097 2.196c2.683 1.952 5.609 3.538 8.413 4.88 3.902 1.707 7.56 2.805 9.633 3.293-.488 1.952-.122 4.392 1.341 6.71 1.097 1.83 2.804 3.294 4.511 4.025.854.366 1.829.61 2.683.61.975 0 1.951-.244 2.682-.732 1.463-.975 2.439-2.561 2.561-4.635.244-2.074-.244-4.148-1.463-6.1zm7.681-27.325c-2.561-4.27-7.072-4.88-9.876-3.172-1.585.976-2.439 2.684-2.561 4.636-2.804.244-10.851.976-17.436.61-.122.853-.244 1.707-.609 2.439 1.463.122 3.048.122 4.633.122 5.731 0 11.339-.488 13.656-.732.244.976.732 1.952 1.219 2.928 1.829 2.928 4.634 4.636 7.194 4.636.976 0 1.829-.244 2.683-.732 3.17-1.952 3.536-6.588 1.097-10.735zm-103.64-12.321c-8.413 8.905-21.094 17.688-24.02 18.542-8.291-6.71-17.314-18.298-20.972-23.3v-1.83l6.462-.366-5.852-2.805 2.072-4.026-5.243 2.806-5.852-3.904 2.073 5.49-7.316 3.66 7.56-.367.853 7.076 2.317-4.88.365.244c.122 0 .244.122.366.122 3.658 4.88 12.925 17.079 21.826 24.154l.365.366c2.439 1.83 4.756 3.416 6.95 4.27l.854-2.074c-1.585-.61-3.17-1.586-4.877-2.806 4.877-2.44 15.24-9.881 22.922-17.81m2.073-3.05c-.365-.854-.609-1.708-.975-2.562l.975 2.562zm9.267-25.374c-3.536 2.805-10.73 6.221-13.412 6.587h-.61c-1.463-.122-1.829-1.586-1.951-1.952 0 0-.121-1.464-1.219-1.464-.244 0-.366 0-.488.122-.487.488-.487 1.708-.487 1.708 0 .244.122.976-.854 1.464 0-.854.366-2.562.854-4.27.122 0 .365 0 .487.122h.122c1.098 0 2.317.122 3.414.244h.122c1.098 0 2.073-.122 3.049-.244 3.657-.365 7.437-.853 10.973-2.317zm35.969-25.13a12.42 12.42 0 01-4.146 3.904 11.17 11.17 0 01-4.511 1.342c-1.219.122-2.317 0-3.17-.122l-5.853-1.952 4.634 3.903c.122 0 .853.488 1.951.976.731.366 1.463.61 2.438.976 1.097.366 2.439.61 3.902.732-2.073.732-3.902.854-5.121.732-.976 0-5.853-.976-5.853-.976s1.585 2.44 3.414 3.782c1.829 1.342 5.487 2.928 5.487 2.928-2.195.732-4.511.976-7.072.732-.366 0-.731-.122-1.097-.122a10.12 10.12 0 01-2.561-.732 22.79 22.79 0 01-4.877-2.44c-.366-.244-.853-.61-1.219-.854-.122-.122-.244-.122-.366-.244l-.122-.122c-.122-.122-.244-.244-.366-.244h-.122l-.243-.244-.122-.122-.366-.366c-1.098-1.098-2.073-2.318-2.927-3.538-1.707-2.683-4.389-5.977-7.071-9.271 0 0-1.829-2.196-2.683-3.416h-.122c-1.585-.488-3.048-1.098-4.389-1.708a32.676 32.676 0 01-2.927-1.463c-1.097-.489-1.95-1.098-2.926-1.708-2.682-1.586-4.755-3.416-6.462-4.88 2.317.366 4.389.732 6.462.976 1.098.122 2.195.244 3.17.366 2.073.122 4.146.244 5.853.244 9.754 0 15.241-2.196 17.436-3.294 1.463 1.22 2.316 4.026 4.755 6.222.488.488 1.097.976 1.829 1.463 0 0 .122 0 .122.122 2.195 1.342 5.243 2.318 9.876 2.44-1.829.854-5.365 2.928-8.047 3.172-2.683.244-5.731-.366-5.853-.366.122.122 1.341 1.464 5.731 2.562 4.633 1.22 5.974.976 9.388 1.098 1.22 0 2.317 0 3.415-.122.243-.366.487-.366.731-.366zm-25.849 25.862c1.464-1.952 3.536-4.636 6.097-7.93-1.341-.488-2.683-1.22-3.902-2.074-.975 3.782-1.829 7.076-2.438 9.638 0 .122.121.244.243.366zM85.367 16.105c.488.854.854 1.464 1.22 1.83.121.122.365.244.487.366h.122c.244 0 .488-.488.732-.854 0 0 0-.122.122-.122.365-.61.731-1.22 1.219-1.586.244-.122.488-.244.732-.244h.243c.122 0 .244 0 .366.122.488.244.854.732 1.098 1.342.121.244.243.61.365.854 0 0 0 .122.122.122 0 .122.122.244.122.366.244.366.366.732.61.732h.366c.243 0 .487-.244.731-.366l.244-.244.366-.366c.366-.488.731-.976.975-1.708.122-.122.122-.366.244-.488 0-.122.122-.244.122-.366.244-.366.366-.854.61-1.22 1.463-3.416 2.438-7.685 2.56-8.783v-.488c-.122-.366-.365-.488-.853-.488s-1.22 0-2.195.244h-1.463c-.488 0-.732-.244-1.22-.488-.243-.122-.609-.366-1.219-.61-.487-.244-.853-.366-1.097-.366s-.488 0-.732.122c-.243.122-.61.244-1.219.366-.61.122-1.097.244-1.463.122-.244 0-.488-.122-.732-.244-.122-.122-.365-.122-.61-.244-.243 0-.487-.244-.73-.488-.245-.122-.489-.366-.732-.366-.244 0-.488.488-.61.976-.244.854-.366 2.196-.366 3.904-.122 2.927.244 5.123.732 6.71a8.26 8.26 0 00.731 1.95zm12.559-1.464c17.192 3.05 26.093.244 29.141-1.098-1.585-2.806-7.438-8.54-16.46-10.857-3.414-.854-6.95 0-10.243 1.586.122.366.244.732.122 1.22 0 .61-.975 5.123-2.56 9.15zM76.222 41.113c-.487-3.172-.121-5.977.976-8.417.488-1.22 1.22-2.074 1.707-2.806-.732-1.952-1.22-4.27.488-5.368a1.692 1.692 0 011.34-.244c.123-.487.367-.976.61-1.463.854-1.83 1.83-3.66 3.17-5.49 0-.122-.121-.244-.121-.366-3.414.854-2.927 1.22-6.584 6.71-3.658 5.611-9.633 8.783-11.584 7.563.366.488 2.439 1.952 4.024 1.708s2.438-.976 3.414-2.074c.244 2.684-1.22 6.221-2.926 7.197-1.707.976-2.317 1.708-4.268 1.952 3.048 1.22 4.877.61 7.56-.61h.122c.243 4.026-3.049 7.808-9.389 8.418 2.439 1.097 5.121 1.463 9.023.244l.731-.244c.732 2.317-2.682 8.539-7.437 7.197 6.218 3.904 10.73 3.294 15.972-.366-1.95-1.952-3.657-4.392-4.999-7.441-.975-2.074-1.585-4.148-1.829-6.1z" fill="#fff"/><path d="M84.513 30.134h1.708l-.732-.732c-.732-.854-1.707-1.83-2.56-2.44-.244-.244-.61-.366-.854-.488-.61-.244-1.097-.366-1.463 0-.976.732-.854 1.83-.488 3.05.122.244.122.366.244.61h2.073v-.854c0 .122.244.244.365.244.244 0 .488-.244.488-.488s-.122-.366-.365-.488c.121-.122.243-.122.365-.244h.122c.122 0 .244 0 .366.122l.122.122c0-.122-.122-.122-.244-.122.122 0 .122.122.244.244s.122.244.244.366c.122.244.122.488.122.732.243.122.243.244.243.366zm19.021-.244h.488c.244-.61.488-1.342.488-2.074l-2.561-1.464c-1.219.732-2.682 2.318-3.78 3.538h.366c.854 0 1.829-.122 2.927-.122v-.488c0-.244 0-.366.121-.61 0 .122.244.244.366.244.244 0 .488-.244.488-.488s-.122-.366-.366-.488c.122-.122.366-.244.488-.244.488 0 .975.732.975 1.464 0 .122 0 .366-.122.488 0 .244 0 .244.122.244z" fill="#fff"/><path d="M99.633 59.778c1.829.122 3.536.122 5.121 0 4.633-.488 9.389-1.098 13.534-3.782.854-.61 1.585-1.22 2.439-1.952 1.707-1.708 3.17-3.782 4.511-6.343-1.463-1.342-2.682-2.806-3.902-4.514-2.194-3.416-5.73-7.807-9.022-11.955-2.317-.854-4.512-1.708-6.341-2.684-.244.732-.487 1.464-.731 2.074-.976-.122-2.073-.122-3.17-.122-1.22 0-2.317.122-3.415.122-.975 0-1.828.122-2.56.122 1.22-1.586 3.048-3.66 4.877-5.002-2.804-1.83-5.12-3.781-6.706-5.49a2.06 2.06 0 01-1.22.367h-.243c-1.098-.122-1.463-1.22-1.951-2.196 0-.122-.122-.244-.122-.366-.244-.488-.488-1.098-.61-1.098-.121 0-.243.366-.61.854 0 0-.121.122-.121.244-.488.854-.976 1.708-2.073 1.708h-.244c-.244 0-.366-.122-.61-.122-.243-.122-.487-.244-.731-.488-.975 1.464-1.829 3.05-2.56 4.514-.244.487-.366 1.097-.61 1.585 2.073 1.342 4.267 3.904 5.73 5.734-.61 0-1.34 0-2.194-.122h-.366c-1.097 0-2.195-.122-3.414-.122h-1.463c-.61.488-1.341 1.464-1.951 2.806-.975 2.074-1.22 4.513-.853 7.197.243 1.83.853 3.66 1.706 5.612 1.22 2.927 2.927 5.123 4.756 6.953.244.244.61.61.975.854.366.244.61.488.976.732 4.145 3.294 8.778 4.392 11.827 4.758.61.122.975.122 1.34.122zm-13.29-24.154c.61-1.098 1.707-1.098 2.072-1.098.244 0 .61 0 .976.122.244-.244.366-.488.61-.61.121-.122.121-.244.243-.366.244-.244.366-.488.488-.61.244-.366.366-.732.366-1.342.122-.488.122-.976.122-1.464v-.366l.853-.122.244.366c.244 1.22.366 2.44 0 3.538-.122.61-.366 1.22-.975 1.708.122.121.365.121.487.243l2.195 1.22-2.438-.366c-1.098-.121-2.073-.243-2.927-.121-.366 0-.487.121-.61.243-.121.244-.121.488 0 .976.366 1.708 1.464 3.294 3.049 4.88l1.707 1.586-2.195-.854c-.975-.366-1.95-1.098-2.804-1.952-.732-.854-1.341-1.952-1.585-3.172-.122-.854-.366-1.586.122-2.44zm3.901 15.004c-1.95-.61-3.901-1.464-5.486-2.683l.121-.122c1.83.975 3.658 1.585 5.61 2.073 1.95.366 3.901.488 5.852.366 1.95-.244 3.78-.854 5.609-1.464.975-.244 1.829-.731 2.804-.975.732-.366 1.585-.61 2.317-.976-.366-.732-.61-1.464-.976-2.196.366.244.732.61.976.976.243.366.487.732.731 1.22.366.854.488 1.83.244 2.684-.244-.489-.366-.855-.488-1.22-.122-.366-.244-.732-.365-.976-.61.488-1.342.975-2.073 1.463-.854.61-2.073 1.22-3.292 1.586-1.22.488-3.414 1.098-5.487 1.342-2.073-.244-4.146-.488-6.097-1.098zm60.965-25.252l4.023-.244-3.292 2.44c-.243.122-3.17 2.196-8.047 4.026 1.951.244 4.024.366 5.853.244 7.559-7.93 15.85-15.493 23.41-19.763-.853-1.342-1.707-2.684-2.804-3.903-4.999-6.466-9.998-9.028-14.632-7.93-7.072 1.708-13.29 11.223-18.167 22.446 3.048 1.708 7.072 3.05 13.656 2.684zm44.626-2.073c-1.585-7.32-4.511-11.59-8.901-12.443-2.926-.61-6.462.244-10.242 1.952l-2.195 1.097c-6.584 3.782-13.9 10.126-20.728 17.201l2.439-.61-1.097 2.318c-2.439 5.367-6.585 7.441-10.242 8.173 2.072.488 4.511.61 6.34-.488l4.633-2.806-2.926 4.514c-2.682 4.026-7.438 4.758-11.096 4.758 2.073.976 4.512 1.22 7.56.61l4.268-.732-3.171 2.928c-2.682 2.44-6.584 3.903-10.607 3.903-.732 0-1.586 0-2.439-.122-.854-.122-1.707-.244-2.561-.488-2.926 3.66-5.243 6.71-6.706 8.784 4.024 3.537 9.755 7.441 17.07 10.735 12.315-2.196 34.628-8.052 45.358-22.325 5.609-7.563 7.438-16.59 5.243-26.96zm-4.024 4.513c0-2.074-.243-4.025-.609-5.977-.488-1.952-1.22-3.782-2.439-5.368-.61-.732-1.341-1.464-2.195-1.83-.731-.366-1.707-.366-2.682-.122-1.829.488-3.658 1.342-5.365 2.318-3.414 1.952-6.706 4.392-9.876 6.832a282.486 282.486 0 00-9.389 7.563c2.805-2.806 5.853-5.49 9.023-8.051 3.17-2.562 6.34-4.88 9.876-6.954 1.829-.976 3.658-1.952 5.609-2.44.975-.244 2.195-.366 3.17.244.976.61 1.707 1.342 2.317 2.074 1.219 1.708 1.951 3.66 2.317 5.612.365 2.074.487 4.147.243 6.1z" fill="#fff"/><path d="M143.528 75.27c-1.342-.61-2.683-1.22-3.902-1.951-5.487-2.928-9.876-6.1-13.412-9.028-.366-.366-.732-.61-.976-.854l-.731-.731c-.488-.367-.854-.855-1.342-1.22-1.097-1.098-2.072-2.074-2.926-3.05-2.682 4.391-14.266 9.393-17.07 9.759h-.61c.732 5.002 1.829 9.637 3.292 13.907.244.854.61 1.708.976 2.562 1.951 5.245 4.511 9.881 7.194 13.785 8.169-11.102 4.877-24.276 3.658-27.814l.487-.488.366-.366.122-.122c.853 2.44 4.633 14.76-1.585 26.228 0 .122-.122.122-.122.244a15.355 15.355 0 01-2.317 3.416c-3.292 4.391-8.413 8.417-16.094 11.467-.488.366-.732 1.098-.488 1.708.244.488.61.732 1.097.732.122 0 .366 0 .488-.122 7.803-3.172 13.046-7.32 16.582-11.712 10.73-13.663 5.487-30.741 4.634-32.937h1.219c1.097 3.538 5.731 20.372-5.121 33.913 14.753 18.055 34.994 21.959 37.92 22.447 21.338-10.736 21.216-35.988 20.972-41.355-13.169-1.22-23.898-4.514-32.311-8.418zm-34.019 12.688c-3.414-6.954-3.17-11.102-3.17-11.102v-.244c.488-5.001 5.853 8.784 5.853 8.784-1.951-1.22-2.683 2.561-2.683 2.561z" fill="#fff"/></svg>