<svg width="1834" height="804" viewBox="0 0 1834 804" fill="none" xmlns="http://www.w3.org/2000/svg">
<path d="M1579.02 518.875C1566.04 528.66 1553.29 539.817 1539.11 547.738C1537.14 548.851 1534.95 546.159 1536.56 544.528C1548.51 533.112 1563.05 524.13 1576.39 514.475C1578.94 512.559 1581.5 516.934 1578.94 518.875H1579.02Z" fill="#69DFF6"/>
<path d="M1540.82 322.923C1521.57 319.533 1500.44 311.125 1486.63 296.922C1486.25 296.52 1486.03 295.996 1486 295.445C1485.98 294.894 1486.14 294.351 1486.48 293.912C1486.81 293.474 1487.29 293.17 1487.83 293.053C1488.37 292.936 1488.93 293.014 1489.42 293.274C1506.89 302.924 1522.96 312.833 1541.83 319.715C1542.04 319.781 1542.23 319.888 1542.4 320.03C1542.57 320.171 1542.71 320.345 1542.81 320.541C1543.02 320.936 1543.06 321.398 1542.92 321.823C1542.79 322.248 1542.49 322.603 1542.1 322.809C1541.7 323.016 1541.24 323.056 1540.82 322.923Z" fill="#BD95E5"/>
<path d="M1497.25 462.99C1501.36 473.255 1487.67 484.103 1480.18 473.914C1472.69 463.724 1486.18 453.433 1495.6 460.142C1496.08 460.483 1495.6 461.256 1495.12 460.926C1487.05 455.863 1474.96 464.078 1481.45 472.99C1488.22 482.255 1499.12 471.724 1497.04 463.053C1497.04 463.021 1497.05 462.989 1497.07 462.963C1497.09 462.938 1497.12 462.92 1497.15 462.912C1497.18 462.905 1497.21 462.908 1497.24 462.922C1497.27 462.937 1497.3 462.96 1497.31 462.99H1497.25Z" fill="#BD95E5"/>
<path d="M1543.93 181.973C1535.05 197.769 1509.6 194.63 1510 174.476C1509.99 172.555 1510.36 170.651 1511.09 168.877C1511.81 167.102 1512.88 165.493 1514.23 164.144C1515.57 162.795 1517.17 161.734 1518.93 161.023C1520.68 160.312 1522.56 159.965 1524.45 160.003C1531.4 160.003 1539.18 165.45 1538.75 173.179C1538.72 173.564 1538.56 173.928 1538.3 174.208C1538.04 174.489 1537.69 174.671 1537.31 174.722C1536.94 174.774 1536.56 174.693 1536.23 174.492C1535.91 174.292 1535.66 173.984 1535.53 173.62C1531.65 163.038 1515.49 163.894 1515.49 176.396C1515.49 192.685 1535.68 192.296 1543.09 181.454C1543.12 181.398 1543.16 181.349 1543.22 181.31C1543.27 181.271 1543.33 181.243 1543.39 181.227C1543.45 181.211 1543.52 181.209 1543.58 181.218C1543.65 181.228 1543.71 181.251 1543.76 181.285C1543.82 181.319 1543.87 181.364 1543.9 181.417C1543.94 181.47 1543.97 181.53 1543.99 181.594C1544 181.658 1544 181.724 1543.99 181.789C1543.98 181.854 1543.96 181.916 1543.93 181.973Z" fill="#FFE187"/>
<path d="M1758.04 531.744C1728.54 525.087 1721.41 482.902 1753.82 473.93C1756.89 472.995 1760.11 472.674 1763.29 472.986C1766.47 473.297 1769.56 474.235 1772.35 475.743C1775.15 477.251 1777.61 479.3 1779.59 481.768C1781.57 484.237 1783.02 487.074 1783.86 490.115C1787.18 501.215 1782.19 516.263 1769.62 519.261C1768.99 519.398 1768.34 519.319 1767.76 519.037C1767.19 518.754 1766.73 518.285 1766.47 517.707C1766.21 517.13 1766.16 516.479 1766.32 515.865C1766.49 515.25 1766.86 514.708 1767.38 514.329C1782.45 503.072 1773.36 477.649 1753.37 483.62C1727.33 491.4 1737.6 523.493 1758.47 530.15C1758.57 530.176 1758.67 530.223 1758.76 530.288C1758.84 530.353 1758.92 530.434 1758.97 530.527C1759.03 530.62 1759.06 530.723 1759.08 530.83C1759.09 530.937 1759.09 531.046 1759.06 531.151C1759.03 531.255 1758.98 531.354 1758.91 531.44C1758.85 531.527 1758.77 531.6 1758.67 531.655C1758.58 531.71 1758.47 531.746 1758.36 531.761C1758.25 531.777 1758.14 531.771 1758.04 531.744Z" fill="#FFB41F"/>
<path d="M1430.8 340.906C1420.52 361.883 1416.68 383.527 1412.8 406.274C1412.34 409.043 1408.17 408.223 1408.07 405.633C1407.1 381.886 1416.17 359.472 1428.64 339.623C1428.81 339.334 1429.09 339.125 1429.41 339.04C1429.74 338.956 1430.09 339.005 1430.38 339.175C1430.66 339.345 1430.88 339.623 1430.96 339.947C1431.04 340.272 1431 340.617 1430.82 340.906H1430.8Z" fill="#FFE187"/>
<path d="M1752.75 563.145C1736.63 565.169 1720.01 568.497 1703.77 568.307C1701.51 568.293 1700.95 564.864 1703.16 564.251C1719.21 560.304 1736.29 559.752 1752.66 558.018C1755.83 557.629 1755.87 562.695 1752.69 563.106L1752.75 563.145Z" fill="#BD95E5"/>
<path d="M1817.19 374.186C1802.18 361.663 1788.04 343.849 1783.13 324.658C1783.01 324.121 1783.08 323.557 1783.33 323.065C1783.58 322.573 1783.99 322.186 1784.5 321.972C1785.01 321.759 1785.58 321.733 1786.1 321.9C1786.63 322.067 1787.08 322.415 1787.37 322.882C1797.71 339.948 1806.72 356.546 1819.66 371.905C1819.81 372.067 1819.92 372.257 1820 372.464C1820.07 372.671 1820.11 372.892 1820.1 373.112C1820.08 373.557 1819.88 373.978 1819.56 374.28C1819.23 374.583 1818.8 374.743 1818.35 374.725C1817.91 374.708 1817.49 374.514 1817.19 374.186Z" fill="#BD95E5"/>
<path d="M1790.24 -4.13185C1780.73 12.9441 1765.86 30.1546 1747.91 38.5418C1747.41 38.766 1746.84 38.8042 1746.31 38.6495C1745.78 38.4949 1745.32 38.1576 1745.02 37.6977C1744.71 37.2377 1744.58 36.6852 1744.65 36.1386C1744.72 35.5919 1744.97 35.0867 1745.38 34.7131C1760.22 21.3715 1774.85 9.43124 1787.54 -6.1342C1787.67 -6.31098 1787.83 -6.46013 1788.02 -6.57314C1788.21 -6.68615 1788.42 -6.76081 1788.64 -6.79284C1789.08 -6.85754 1789.53 -6.74468 1789.89 -6.47915C1790.25 -6.21363 1790.49 -5.81721 1790.55 -5.377C1790.62 -4.9368 1790.5 -4.48887 1790.24 -4.13185Z" fill="#69DFF6"/>
<path d="M1756.33 158.818C1753.24 180.719 1718.7 185.905 1715.85 160.771C1713 135.636 1746.65 131.224 1756.31 152.24C1756.79 153.306 1755.2 154.172 1754.7 153.128C1745.75 136.309 1716.59 138.516 1718.97 160.435C1721.5 183.25 1750.88 175.836 1755.91 158.723C1755.94 158.666 1755.99 158.621 1756.05 158.596C1756.11 158.571 1756.17 158.568 1756.24 158.587C1756.3 158.605 1756.35 158.645 1756.39 158.699C1756.43 158.753 1756.44 158.818 1756.44 158.882L1756.33 158.818Z" fill="#BD95E5"/>
<path d="M1712.82 335.006C1693.45 348.078 1679.36 364.942 1664.66 382.736C1662.88 384.908 1659.68 382.122 1660.88 379.825C1671.86 358.744 1690.89 343.824 1711.58 332.819C1711.87 332.653 1712.22 332.61 1712.54 332.699C1712.87 332.788 1713.14 333.002 1713.31 333.293C1713.48 333.585 1713.52 333.931 1713.43 334.254C1713.35 334.578 1713.13 334.853 1712.84 335.019L1712.82 335.006Z" fill="#FFE187"/>
<path d="M1785.66 774.791C1772.68 755.36 1755.89 741.174 1738.18 726.389C1736.02 724.597 1738.82 721.408 1741.11 722.621C1762.13 733.707 1776.95 752.814 1787.85 773.568C1788.01 773.86 1788.05 774.207 1787.96 774.53C1787.87 774.854 1787.66 775.129 1787.37 775.294C1787.07 775.459 1786.73 775.501 1786.4 775.411C1786.08 775.321 1785.81 775.106 1785.64 774.813L1785.66 774.791Z" fill="#FFE187"/>
<path d="M1468.04 669.2C1458.54 657.711 1448.61 646.506 1440.24 634.136C1439.31 632.765 1441.33 631.29 1442.44 632.377C1452.9 642.728 1461.97 654.424 1471.4 665.759C1473.37 668.113 1470.01 671.581 1468.04 669.2Z" fill="#FFE187"/>
<path d="M1629.74 639.37C1631.07 640.189 1632.09 641.421 1632.61 642.867C1633.13 644.313 1633.13 645.886 1632.61 647.332C1632.41 648.114 1632.06 648.851 1631.57 649.501C1631.07 650.15 1630.45 650.7 1629.74 651.117C1629.03 651.534 1628.24 651.81 1627.41 651.931C1626.59 652.052 1625.75 652.014 1624.94 651.819C1619.25 650.106 1617.85 641.565 1624.09 639.756C1624.68 639.615 1625.29 639.661 1625.85 639.887C1626.4 640.112 1626.87 640.505 1627.18 641.007C1627.48 641.508 1627.61 642.092 1627.55 642.671C1627.48 643.25 1627.22 643.793 1626.81 644.219C1626.11 644.823 1627.24 644.002 1626.64 644.605C1626.64 644.605 1626.64 645.064 1626.76 644.967C1627.46 644.364 1625.19 644.63 1625.17 644.605C1624.72 644.75 1624.67 644.75 1624.97 644.605L1625.37 644.412C1625.37 644.412 1625.62 644.243 1625.37 644.412C1625.12 644.581 1625.37 644.895 1625.37 644.919C1624.78 644.308 1624.43 643.516 1624.4 642.683C1624.36 641.85 1624.62 641.03 1625.15 640.37C1625.68 639.71 1626.43 639.252 1627.28 639.078C1628.12 638.904 1629 639.024 1629.76 639.418L1629.74 639.37Z" fill="#FFE187"/>
<path d="M254.956 269.047C267.935 259.262 280.683 248.105 294.863 240.184C296.83 239.071 299.027 241.763 297.418 243.394C285.461 254.809 270.924 263.792 257.588 273.447C255.033 275.363 252.478 270.988 255.033 269.047L254.956 269.047Z" fill="#BD95E5"/>
<path d="M293.155 464.999C312.405 468.388 333.54 476.796 347.345 491C347.722 491.402 347.944 491.926 347.972 492.477C347.999 493.028 347.831 493.571 347.496 494.009C347.161 494.448 346.682 494.752 346.144 494.869C345.606 494.986 345.044 494.907 344.558 494.647C327.088 484.998 311.012 475.089 292.149 468.207C291.938 468.141 291.743 468.034 291.575 467.892C291.406 467.75 291.266 467.577 291.165 467.381C290.959 466.985 290.918 466.524 291.052 466.099C291.185 465.673 291.482 465.319 291.876 465.112C292.271 464.906 292.731 464.866 293.155 464.999Z" fill="#BD95E5"/>
<path d="M336.729 324.932C332.617 314.667 346.304 303.819 353.797 314.008C361.289 324.198 347.795 334.489 338.374 327.78C337.899 327.438 338.374 326.666 338.85 326.995C346.921 332.059 359.014 323.844 352.524 314.932C345.751 305.667 334.853 316.198 336.935 324.869C336.936 324.901 336.926 324.933 336.906 324.958C336.887 324.984 336.858 325.002 336.827 325.01C336.795 325.017 336.761 325.014 336.732 324.999C336.702 324.985 336.679 324.962 336.665 324.932L336.729 324.932Z" fill="#BD95E5"/>
<path d="M290.046 605.949C298.929 590.153 324.378 593.292 323.97 613.446C323.98 615.367 323.612 617.271 322.888 619.045C322.163 620.82 321.095 622.429 319.749 623.778C318.403 625.127 316.804 626.188 315.048 626.899C313.291 627.61 311.413 627.957 309.522 627.919C302.579 627.919 294.794 622.472 295.228 614.742C295.256 614.357 295.414 613.994 295.675 613.713C295.936 613.433 296.284 613.251 296.66 613.2C297.037 613.148 297.419 613.229 297.744 613.43C298.069 613.63 298.316 613.938 298.444 614.301C302.324 624.884 318.482 624.028 318.482 611.526C318.482 595.237 298.291 595.626 290.888 606.468C290.855 606.524 290.811 606.573 290.759 606.612C290.706 606.651 290.647 606.679 290.584 606.695C290.522 606.71 290.456 606.713 290.392 606.703C290.328 606.693 290.267 606.671 290.212 606.637C290.157 606.603 290.108 606.558 290.07 606.505C290.032 606.452 290.004 606.392 289.989 606.328C289.973 606.264 289.971 606.198 289.98 606.133C289.99 606.068 290.012 606.006 290.046 605.949Z" fill="#FFE187"/>
<path d="M75.9363 256.178C105.432 262.835 112.569 305.02 80.1537 313.992C77.0872 314.927 73.8676 315.248 70.6845 314.936C67.5015 314.625 64.4193 313.687 61.6199 312.179C58.8204 310.671 56.3603 308.622 54.3844 306.154C52.4084 303.685 50.9568 300.847 50.1149 297.807C46.799 286.707 51.7888 271.659 64.3534 268.661C64.9826 268.523 65.6388 268.603 66.2123 268.885C66.7858 269.168 67.2418 269.637 67.5042 270.215C67.7665 270.792 67.8194 271.443 67.6538 272.057C67.4882 272.672 67.1143 273.214 66.5945 273.593C51.5287 284.85 60.6139 310.273 80.6013 304.302C106.643 296.522 96.378 264.429 75.5092 257.772C75.4033 257.746 75.304 257.698 75.2169 257.634C75.1298 257.569 75.0567 257.488 75.0017 257.395C74.9467 257.302 74.9109 257.199 74.8962 257.092C74.8816 256.985 74.8885 256.876 74.9166 256.771C74.9446 256.667 74.9933 256.568 75.0597 256.482C75.1261 256.395 75.209 256.322 75.3037 256.267C75.3984 256.212 75.5029 256.176 75.6115 256.161C75.72 256.145 75.8304 256.151 75.9363 256.178Z" fill="#FFE187"/>
<path d="M403.175 447.016C413.459 426.039 417.29 404.395 421.172 381.648C421.635 378.878 425.8 379.699 425.903 382.289C426.88 406.036 417.804 428.45 405.335 448.299C405.165 448.588 404.886 448.797 404.561 448.881C404.235 448.966 403.889 448.917 403.6 448.747C403.31 448.577 403.1 448.299 403.015 447.975C402.931 447.65 402.979 447.305 403.15 447.016L403.175 447.016Z" fill="#FFB41F"/>
<path d="M81.2213 224.777C97.3486 222.753 113.96 219.425 130.2 219.615C132.461 219.629 133.026 223.058 130.818 223.671C114.765 227.618 97.6856 228.17 81.3126 229.904C78.1432 230.293 78.1056 225.227 81.2879 224.815L81.2213 224.777Z" fill="#BD95E5"/>
<path d="M16.7887 413.735C31.7962 426.259 45.9386 444.073 50.84 463.264C50.9666 463.801 50.8984 464.365 50.6479 464.857C50.3974 465.349 49.9807 465.736 49.4722 465.949C48.9637 466.163 48.3965 466.188 47.8717 466.022C47.3469 465.855 46.8986 465.507 46.6069 465.04C36.2606 447.973 27.2516 431.376 14.3187 416.016C14.1695 415.854 14.0536 415.664 13.9778 415.457C13.902 415.25 13.8677 415.03 13.8769 414.81C13.8954 414.365 14.0898 413.944 14.4174 413.642C14.7449 413.339 15.1787 413.179 15.6234 413.197C16.0681 413.214 16.4873 413.408 16.7887 413.735Z" fill="#BD95E5"/>
<path d="M43.7358 792.054C53.2477 774.978 68.1187 757.767 86.0624 749.38C86.5661 749.156 87.1335 749.118 87.6634 749.272C88.1933 749.427 88.6511 749.764 88.9554 750.224C89.2596 750.684 89.3904 751.237 89.3244 751.783C89.2585 752.33 89 752.835 88.5952 753.209C73.7521 766.55 59.1213 778.491 46.4367 794.056C46.3052 794.233 46.1402 794.382 45.9508 794.495C45.7615 794.608 45.5517 794.683 45.3333 794.715C44.8923 794.779 44.4433 794.667 44.0852 794.401C43.727 794.136 43.489 793.739 43.4235 793.299C43.3579 792.859 43.4703 792.411 43.7358 792.054Z" fill="#BD95E5"/>
<path d="M77.6473 629.104C80.7361 607.203 115.278 602.016 118.128 627.151C120.977 652.286 87.3239 656.698 77.6647 635.682C77.1802 634.615 78.7738 633.75 79.2709 634.794C88.2281 651.613 117.384 649.406 115.001 627.487C112.479 604.672 83.0897 612.086 78.067 629.199C78.0372 629.256 77.9881 629.301 77.9281 629.326C77.8682 629.351 77.8011 629.354 77.7384 629.335C77.6756 629.316 77.6213 629.277 77.5843 629.223C77.5474 629.169 77.5302 629.104 77.5359 629.04L77.6473 629.104Z" fill="#62D9F2"/>
<path d="M121.157 452.916C140.52 439.844 154.618 422.98 169.31 405.186C171.09 403.014 174.294 405.8 173.093 408.097C162.118 429.178 143.088 444.097 122.392 455.103C122.1 455.269 121.754 455.312 121.43 455.223C121.106 455.134 120.83 454.92 120.663 454.629C120.496 454.337 120.452 453.991 120.541 453.668C120.629 453.344 120.843 453.069 121.135 452.903L121.157 452.916Z" fill="#FFE187"/>
<path d="M48.3192 13.131C61.2902 32.5619 78.0797 46.7482 95.7969 61.533C97.9591 63.3246 95.157 66.5135 92.8659 65.3011C71.8427 54.2151 57.023 35.1075 46.1255 14.3541C45.9613 14.0615 45.92 13.7152 46.0107 13.3916C46.1014 13.0679 46.3168 12.7932 46.6094 12.628C46.902 12.4629 47.2479 12.4208 47.571 12.5109C47.8941 12.6011 48.1679 12.8161 48.3322 13.1087L48.3192 13.131Z" fill="#FFE187"/>
<path d="M365.935 118.722C375.437 130.211 385.369 141.416 393.735 153.786C394.67 155.157 392.648 156.632 391.536 155.545C381.073 145.194 372 133.498 362.573 122.163C360.602 119.808 363.963 116.341 365.935 118.722Z" fill="#63D9F3"/>
<path d="M204.239 148.552C202.9 147.733 201.887 146.5 201.366 145.055C200.844 143.609 200.844 142.036 201.366 140.59C201.562 139.808 201.917 139.071 202.409 138.421C202.901 137.771 203.521 137.222 204.234 136.805C204.946 136.388 205.737 136.111 206.561 135.991C207.385 135.87 208.225 135.908 209.034 136.103C214.728 137.816 216.127 146.356 209.883 148.166C209.298 148.306 208.682 148.261 208.126 148.035C207.57 147.81 207.104 147.417 206.798 146.915C206.492 146.414 206.362 145.83 206.427 145.251C206.493 144.672 206.75 144.129 207.161 143.702C207.86 143.099 206.736 143.92 207.336 143.316C207.336 143.316 207.336 142.858 207.211 142.954C206.511 143.558 208.784 143.292 208.809 143.316C209.259 143.172 209.309 143.172 209.009 143.316L208.609 143.509C208.609 143.509 208.36 143.678 208.609 143.509C208.859 143.341 208.609 143.027 208.609 143.003C209.197 143.614 209.54 144.406 209.58 145.239C209.619 146.072 209.351 146.892 208.823 147.552C208.296 148.212 207.543 148.67 206.699 148.844C205.855 149.018 204.974 148.898 204.214 148.504L204.239 148.552Z" fill="#FFE187"/>
</svg>
