<svg width="432" height="16" viewBox="0 0 432 16" fill="none" xmlns="http://www.w3.org/2000/svg">
<rect width="16" height="16" transform="matrix(1 0 0 -1 0 16)" fill="#BCF6FE"/>
<rect width="16" height="16" transform="matrix(1 0 0 -1 16 16)" fill="#FFDC99"/>
<rect width="16" height="16" transform="matrix(1 0 0 -1 32 16)" fill="#F8877F"/>
<rect width="16" height="16" transform="matrix(1 0 0 -1 48 16)" fill="#43A047"/>
<rect width="16" height="16" transform="matrix(1 0 0 -1 64 16)" fill="#FDC68B"/>
<rect width="16" height="16" transform="matrix(1 0 0 -1 80 16)" fill="#69DFF6"/>
<rect width="16" height="16" transform="matrix(1 0 0 -1 96 16)" fill="#FDC0D2"/>
<rect width="16" height="16" transform="matrix(1 0 0 -1 112 16)" fill="#FFC147"/>
<rect width="16" height="16" transform="matrix(1 0 0 -1 128 16)" fill="#F6655A"/>
<rect width="16" height="16" transform="matrix(1 0 0 -1 144 16)" fill="#87C289"/>
<rect width="16" height="16" transform="matrix(1 0 0 -1 160 16)" fill="#FFA5C5"/>
<rect width="16" height="16" transform="matrix(1 0 0 -1 176 16)" fill="#FFEAC1"/>
<rect width="16" height="16" transform="matrix(1 0 0 -1 192 16)" fill="#BCF6FE"/>
<rect width="16" height="16" transform="matrix(1 0 0 -1 208 16)" fill="#FDC68B"/>
<rect width="16" height="16" transform="matrix(1 0 0 -1 224 16)" fill="#65B168"/>
<rect width="16" height="16" transform="matrix(1 0 0 -1 240 16)" fill="#FFA5C5"/>
<rect width="16" height="16" transform="matrix(1 0 0 -1 256 16)" fill="#F6655A"/>
<rect width="16" height="16" transform="matrix(1 0 0 -1 272 16)" fill="#69DFF6"/>
<rect width="16" height="16" transform="matrix(1 0 0 -1 288 16)" fill="#FFCF70"/>
<rect width="16" height="16" transform="matrix(1 0 0 -1 304 16)" fill="#FFA5C5"/>
<rect width="16" height="16" transform="matrix(1 0 0 -1 320 16)" fill="#BCF6FE"/>
<rect width="16" height="16" transform="matrix(1 0 0 -1 336 16)" fill="#69DFF6"/>
<rect width="16" height="16" transform="matrix(1 0 0 -1 352 16)" fill="#FFCF70"/>
<rect width="16" height="16" transform="matrix(1 0 0 -1 368 16)" fill="#FF82AF"/>
<rect width="16" height="16" transform="matrix(1 0 0 -1 384 16)" fill="#F44336"/>
<rect width="16" height="16" transform="matrix(1 0 0 -1 400 16)" fill="#69DFF6"/>
<rect width="16" height="16" transform="matrix(1 0 0 -1 416 16)" fill="#FDCDDB"/>
</svg>
