<svg width="46" height="46" fill="none" xmlns="http://www.w3.org/2000/svg"><g filter="url(#filter0_d)"><path d="M2 42.682L4.94 31.98a20.624 20.624 0 01-2.765-10.323C2.175 10.267 11.47 1 22.873 1a20.584 20.584 0 0114.642 6.054 20.51 20.51 0 016.056 14.613c0 11.39-9.295 20.656-20.698 20.656h-.01c-3.465 0-6.869-.872-9.892-2.514L2 42.682z" fill="url(#paint0_linear)"/><path d="M3.424 41.276l2.481-9.031.11-.404-.209-.362a19.623 19.623 0 01-2.631-9.822C3.175 10.82 12.02 2 22.873 2c5.277 0 10.216 2.05 13.936 5.762a19.513 19.513 0 015.762 13.905c0 10.836-8.845 19.656-19.698 19.656h-.01c-3.298 0-6.537-.83-9.415-2.392l-.347-.19-.383.1-9.294 2.435z" stroke="#fff" stroke-width="2"/></g><path fill-rule="evenodd" clip-rule="evenodd" d="M17.526 12.698c-.4-.893-.822-.913-1.203-.923-.308-.01-.668-.01-1.028-.01s-.936.133-1.43.666c-.493.534-1.87 1.827-1.87 4.464 0 2.627 1.922 5.172 2.19 5.531.267.36 3.711 5.931 9.15 8.076 4.525 1.786 5.45 1.426 6.427 1.334.987-.092 3.167-1.293 3.62-2.545.442-1.252.442-2.319.308-2.545-.134-.226-.494-.359-1.028-.626-.535-.267-3.167-1.56-3.66-1.744-.494-.175-.854-.267-1.204.267-.36.533-1.388 1.734-1.696 2.093-.309.36-.628.4-1.162.133-.535-.266-2.262-.83-4.309-2.657-1.593-1.416-2.673-3.171-2.981-3.705-.309-.533-.031-.82.236-1.088.237-.236.535-.625.802-.933.268-.308.36-.534.535-.893.175-.36.092-.667-.041-.934-.144-.256-1.183-2.904-1.656-3.96z" fill="#fff"/><defs><linearGradient id="paint0_linear" x1="22.792" y1="42.682" x2="22.792" y2="1" gradientUnits="userSpaceOnUse"><stop stop-color="#20B038"/><stop offset="1" stop-color="#60D66A"/></linearGradient><filter id="filter0_d" x="0" y="0" width="45.571" height="45.682" filterUnits="userSpaceOnUse" color-interpolation-filters="sRGB"><feFlood flood-opacity="0" result="BackgroundImageFix"/><feColorMatrix in="SourceAlpha" values="0 0 0 0 0 0 0 0 0 0 0 0 0 0 0 0 0 0 127 0"/><feOffset dy="1"/><feGaussianBlur stdDeviation="1"/><feColorMatrix values="0 0 0 0 0 0 0 0 0 0 0 0 0 0 0 0 0 0 0.4 0"/><feBlend in2="BackgroundImageFix" result="effect1_dropShadow"/><feBlend in="SourceGraphic" in2="effect1_dropShadow" result="shape"/></filter></defs></svg>