<svg version="1" xmlns="http://www.w3.org/2000/svg" width="1248" height="1248" viewBox="0 0 936.000000 936.000000"><path d="M637.8 82.5c-.1.1-2.8.5-5.8.9-29.5 3-59.7 29.4-87.3 76.1-.7 1.1-1.9 3.1-2.8 4.5-2.4 3.7-17 32.5-20.3 40-1.6 3.6-3 6.7-3.2 6.9-.8.9-17.3-19.4-20.1-24.7-.7-1.4-1-4.1-.6-7.2.5-4.3.2-5.5-2-8.9-2.5-3.8-6.9-6.1-11.7-6.1-.9 0-3.3-2.5-5.5-5.6-14.3-20-42.1-40.7-70.7-52.4-10.7-4.4-12.9-5.2-21.3-7.5-8.8-2.4-24.5-4-24.5-2.5 0 .3-1.9.5-4.2.6-4.5 0-10.3.8-12.8 1.7-.8.2-4.6 1.5-8.5 2.7-3.8 1.2-11.3 4.2-16.5 6.6-10.2 4.9-10 4.8-17.4 5.8-2.7.4-5.3.9-5.7 1.2-.4.2-4.5-1.2-9.1-3.2-9.3-4-15.5-4.9-19.8-2.7-4.5 2.2-9.6 2.7-13.2 1.2-1.8-.7-3.5-1.6-3.8-2-1-1.3-9-4.9-10.9-4.9-4.1 0-7.8 4.6-9.6 11.8-2.9 12.1-2.4 43 .9 55 .2.9.7 2.7 1.1 3.9.5 1.7.1 2.2-2.2 2.7-4.6 1.1-13.9 6.8-19.4 12.1-7.6 7.3-13.6 16.7-27 42.5-5.6 10.8-16.8 20-29.2 24.3-8.2 2.8-14.4 1.6-33.7-6.6-1.4-.5-2.9-1.1-3.5-1.3-.5-.1-2.7-1-4.9-1.9-2.1-.9-4-1.5-4.1-1.3-.2.2.8 1.7 2.3 3.4 1.5 1.7 4.7 5.5 7.2 8.5 13.6 16.3 26.9 25.7 37.3 26.3 2.6.1 4.9.5 5.3.9.7.7-3.1 6.4-6.1 9-6.7 5.8-19.1 8.5-29.5 6.5-2.5-.5-5.6-1.1-7-1.4-1.4-.2-3.4-.8-4.5-1.3-3.6-1.6-9.7-3.9-29-11-20.2-7.4-20.7-7.2-6.7 2.1 3.4 2.3 6.2 4.5 6.2 4.9 0 .3 1.4 1.2 3 1.9 1.7.7 3 1.6 3 2.1s.5.9 1.2.9c.6 0 2.1.8 3.2 1.9 1.2 1 7.5 5.4 14.1 9.8 20.6 13.8 36.5 20.3 48.7 20 3.2-.1 5.8.1 5.8.4 0 1.2-14.6 7.8-21 9.5-6.9 1.8-22 2.3-30.5 1.1-4.3-.6-24-6.6-50.2-15.2-4.1-1.3-7.3-1.9-7.3-1.3 0 .5.9 1.2 2 1.5 1.1.3 2 .9 2 1.4 0 .5.4.9.9.9.8 0 16.3 9.2 43.6 26 24.8 15.3 37.3 19.9 53.9 19.6 5.3 0 9.6.2 9.6.5 0 1.1-8.7 4.9-14.5 6.2-3.3.7-8.7 1.2-11.9 1-5.2-.2-30.7-5.8-37.6-8.3-1.4-.5-4-1.2-5.9-1.6-3.3-.6-3-.3 4 5.6 4.1 3.4 8.3 6.9 9.4 7.8 1.1.9 4.3 3.5 7 5.7 2.8 2.2 5.2 4.3 5.5 4.6 1.5 1.7 17.5 12.1 24 15.6 11 5.9 30.7 12.2 33.2 10.7.4-.3.8 0 .8.6s.4.9.8.6c.5-.3 4.4-.6 8.8-.7 10.3-.3 20.4-2.9 30.7-7.8 7.8-3.8 13.6-7 14.7-8.1.3-.3 1.7-1.3 3.2-2.3 2.7-1.7 2.7-1.7 11 3.9 12.6 8.6 33 17.8 44.4 19.9 1 .2 2 .4 2.2.5.1.2.6.3 1.1.4 2 .2 2.2 1.5 1.1 5.7-.7 2.4-1.4 5.3-1.7 6.4-.3 1.1-.7 6-.9 10.9-.3 9.6.8 13.5 5 16.8 3.3 2.8 11.5 1.8 15.7-1.9 1.6-1.4 2.3 1.2 4.6 17.2.2 1.6.9 5.5 1.5 8.5s1.2 6.2 1.3 7c.2.8.8 3.7 1.5 6.5.6 2.7 1.4 6.1 1.7 7.5.9 4.4 1.1 5.5 1.3 5.5.2 0 .8 2.5 1.5 6.4.4 1.9 3 10.5 5.9 19.3l5.2 15.9-12.6 12.2c-13.7 13.3-22.4 21.2-29 26.7-2.4 1.9-5 4.2-5.9 5.1-3.3 3.2-28 22.7-38.7 30.4-1.5 1.1-3.2 2.5-3.8 3-2.4 2.3-33.5 22.5-39.6 25.7-9.4 5-9.7 5-12.3 2.5-1.2-1.2-4.7-4.3-7.7-6.8-7.5-6.3-29.5-28.3-40.5-40.4-4.9-5.4-10.9-11.9-13.2-14.4-2.4-2.5-4.3-4.9-4.3-5.2 0-.3-1.5-2.1-3.2-4-6-6.3-29.9-36.2-42.1-52.4-7.6-10.2-7.8-10.5-8-16-.3-5-.1-5.5 1.7-5.6 1.2 0 6.6-.2 12.1-.5s12.6-.6 15.7-.7c3.1-.2 6-.6 6.4-1 .4-.4.3-.7-.3-.7s-3.9-1.6-7.2-3.5c-3.4-1.9-6.4-3.4-6.6-3.4-.3-.1-3.3-1.5-6.8-3.3-3.4-1.8-7.4-3.9-8.9-4.6l-2.8-1.4 5.5-10.6c3.1-5.8 5.4-10.9 5.3-11.2-.2-.3-6.7 2.9-14.6 7.3l-14.3 7.9-4.2-2.8c-2.3-1.5-5.2-3.7-6.5-4.8-1.2-1.1-2.2-1.5-2.2-1s-.4.4-.8-.1c-.9-1.2-19.4-13.7-19.7-13.3-.1.2 2.1 6.5 5 14 2.9 7.6 5.5 14.6 5.8 15.7.4 1.5-2.2 3.2-15.8 10-9 4.4-16.8 8.1-17.4 8.1-.6 0-1.1.4-1.1 1 0 .5-.6 1-1.3 1-.7 0-2.2.6-3.3 1.4-1.7 1.3-.6 1.4 8.6 1 5.8-.3 15.5-.6 21.5-.7l11-.2.1 2.5c.1 1.4.4 3.8.7 5.5.3 1.6.8 5.9 1.2 9.5.8 8.1 1.5 13.9 2 16.5.2 1.1.4 2.9.5 4 .1 1.8 10-16.2 10.6-19.1.5-2.9 3.6-6.2 5.4-5.7 1 .3 7.2 7.5 13.7 16.1 6.5 8.7 12 15.9 12.3 16.2.5.4 6 7.3 9.7 12 2.3 2.9 19.6 23.5 24.7 29.5 10 11.6 16.3 18.2 33.1 35 19.5 19.5 24 23.6 38.8 35.5 1.1.8 2.4 2 3.1 2.5 4.7 4.4 33.1 21.5 35.6 21.5.5 0 1.5-1.9 2.3-4.3.8-2.3 1.8-5 2.2-5.9.5-1.4-.9-2.5-7.2-5.7-8.9-4.5-20.8-12.7-19.6-13.4.4-.3 3.5-2 6.8-3.7 9.3-5.1 37.7-23.9 47-31.2.6-.5 6-4.7 12-9.4 10.2-7.9 18.4-14.5 20.9-16.9.6-.6 2.7-2.3 4.6-3.9 5.3-4.3 19.1-17 30.4-27.8 9.5-9.2 10.2-9.7 11-7.5 9.3 22.3 27.8 56.4 38.8 71.4 2.1 2.9 3.8 5.8 3.8 6.5 0 2.3-16.4 17.4-27 24.8-1.9 1.3-4.1 3-4.8 3.7-.7.7-1.9 1.3-2.7 1.3-.7 0-1.5.3-1.7.8-.8 1.8-25.6 15.1-37.8 20.3-6.6 2.7-9 5-9 8.3 0 3.2 3.4 6.4 6.4 6.1 3.5-.4 22-8.9 34.4-15.7 11.2-6.3 22.8-14.1 32.2-21.6 5.8-4.7 5.9-4.8 13.8-12.5 5.5-5.4 4.6-5.7 11.7 2.9 14.9 18 32.2 34.3 58 54.6 7.5 6 26.1 18.8 27.2 18.8.3 0 1.7.9 3.3 2 5.8 4.1 34.3 19 46.5 24.2 18.6 8 53.3 19.3 65 21.3 1.1.2 5.9 1.1 10.8 2.1l8.7 1.8 6.3-3c3.4-1.6 6.4-3.1 6.7-3.4.3-.3 4.5-2.9 9.5-5.9 4.9-3 9.4-5.8 10-6.3 19.5-15.4 32.7-27.6 41-38.3 2.1-2.8 4.2-5.4 4.6-5.9.4-.4 4 2.1 8.1 5.6 6.3 5.4 14.4 11.2 27.3 19.3 15.6 9.9 54.3 25.7 74 30.4l5 1.2.1 9.7c.2 15.1 5.3 26.4 17.4 38.2 16.1 15.8 36.5 18.4 49.2 6.3 18.3-17.3 7.3-58.6-18.9-71.4-12-5.8-26.9-4.9-36.5 2.4-2.4 1.8-4.7 3.2-5.3 3.2-3.8-.4-28.1-8.1-41.5-13.2-.8-.4-1.8-.5-2.2-.5-.5.1-.8-.2-.8-.8 0-.5-.7-1-1.6-1-3.5 0-38.4-18-44.9-23.1-.5-.5-4.4-3.5-8.5-6.7-4.1-3.3-8.5-7-9.7-8.3l-2.2-2.4 3-4.9c7.5-12.1 19.9-37.2 19.9-40.3 0-.7.4-1.3 1-1.3.5 0 .9-.3.8-.8-.1-.4.4-2.4 1.1-4.5l1.3-3.9 4.7.7c15.6 2.3 65.2 2.4 92.1 0 2.5-.2 8.1-.6 12.4-1 4.4-.3 8.4-.8 8.8-1.1.5-.3 1.5 1.2 2.3 3.3.9 2.1 2 4.6 2.5 5.5.6 1 1 2.3 1 2.9 0 1.9 6.2 10.3 11.9 16 3.6 3.5 8.1 6.7 12.6 8.8 3.9 1.8 7.7 3.6 8.5 4 2.6 1.3 15.3.4 19.7-1.4 5.8-2.3 13.6-11 16.4-18.3 8.9-23.4-6.5-55.1-30.7-63-14.6-4.8-29.9-.6-37.2 10-3 4.4-6.6 14.4-5.7 15.9 1.2 1.9.1 2.1-31.5 4.6-4.1.3-21 .6-37.5.7-28.9.1-42.9-.4-44.1-1.7-.3-.3.2-3.6 1.1-7.3.9-3.7 1.9-7.7 2.1-8.8.6-2.6 2.1-9.4 2.7-12.1.5-2.2 2-12.6 3.2-22 2.2-17.1 2.5-62.2.5-65.5-.3-.5-3.5-1.2-7-1.5-8.2-.7-14.5-1.4-19-2-1.9-.3-5.5-.7-8-1-5.7-.7-8.3-1.1-25.5-4.1-14.4-2.6-16.6-3-20-3.8-1.1-.2-4.2-.9-7-1.6-21.8-4.9-54.3-14.3-65-19-1.1-.4-3.7-1.4-5.8-2.2l-3.8-1.4 12.1-2.8c6.6-1.5 12.6-2.9 13.3-3 2.5-.5 23.7-6.4 29.8-8.2 2.5-.8 5.4-1.6 6.5-1.8 1-.3 8.4-2.7 16.4-5.6 8-2.8 15.2-5.2 16-5.5 1.6-.4 17.7-7 25-10.3 11.9-5.3 22.3-10.4 30-14.7 16.4-9.2 16.2-9.1 22.2-13.3 2.6-1.7 5.1-3.2 5.6-3.2.6 0 1.2-.4 1.4-.8.2-.5 2.6-2.3 5.3-4.2 2.8-1.8 5.2-3.6 5.5-3.9.3-.4 3.9-3.3 8-6.5 7.8-6.3 26.7-24.7 31-30.4 1.4-1.8 3.3-4.3 4.4-5.5 7.6-9 18.4-27 23.5-39.3 1.8-4.4 3.6-8.6 4.1-9.4.8-1.6 4-12.2 4.5-15.3.2-.9.7-2.2 1-2.7.4-.6.9-2.7 1.1-4.7.3-2 .9-5.4 1.4-7.7 1.6-7.4 2.4-18.9 2.4-34.1-.1-16.5-.9-25-3.9-42-1.3-6.9-5.5-22.5-8.1-29.5-3-8.4-9.9-22.6-11.9-24.7-.8-.7-1.6-2.1-1.9-3.1-1.2-3.3-15.1-16-21.6-19.5-10.7-5.7-16.1-7.1-28.5-7.1-6 0-12.8.3-15 .8-2.2.5-4.9 1-6 1.1-1.1.1-2.7.5-3.5.8-.8.4-3.7 1.4-6.5 2.3-2.7.9-8.8 3.2-13.4 5.2-4.7 2-8.6 3.2-8.8 2.7-.7-2.3-12.1-17.6-19.7-26.5-8.8-10.4-17.4-19.1-24.5-24.8-2.5-2-4.8-3.9-5.1-4.2-2.5-2.7-19-11.2-25-12.9-2.5-.7-5.4-1.6-6.5-2-1.1-.4-4.2-.9-6.9-1-2.7-.1-5.7-.4-6.6-.6-1-.2-2-.2-2.2 0zM650 96.4c10.8 2.4 20.5 7.3 31.8 16 3.5 2.7 20.1 19.5 23.7 24.1 2.2 2.7 4.3 5.4 4.8 6 2.2 2.7 12.7 17.9 12.7 18.4 0 .3-1.9 1.7-4.3 3-6 3.4-26.9 17.3-28.7 19.1-.3.3-4.1 3.2-8.5 6.5s-8.7 6.7-9.6 7.5c-.8.8-3.8 3.3-6.4 5.5-4.4 3.6-11 9.2-14.1 12-11.3 10.2-26.1 24.3-39.4 37.7l-16.6 16.7-13-.5c-17.2-.7-17.4-.7-17.4-1.6 0-.4.5-.8 1.2-.8 1.3 0 24.1-10.1 24.8-11 .3-.4 3-2 6-3.6 5.6-3 15.1-9.1 16-10.3.3-.3 2.2-1.7 4.2-3.1 2.1-1.4 3.8-2.8 3.8-3.3 0-.4.7-.7 1.5-.7s1.5-.4 1.5-.9-4.4-.7-10.2-.3c-20.4 1.1-38.2.6-47.8-1.2-1.4-.3-4.1-.7-6-1.1-3.6-.6-4.4-.8-7-1.7-.8-.3-3.7-1.4-6.5-2.3-2.7-1-7.5-3.1-10.7-4.7l-5.6-3 2.5-5.6c3.6-8.3 7.3-16.5 8.3-18.2.5-.8 2.7-5.3 5-10 7.8-16 20.3-35.9 32.5-51.6 8.5-11 24.2-24.9 34.5-30.6 5.3-2.9 16.8-7 17.9-6.4.4.3 1.3.1 1.9-.3 1.6-.9 12.5-.7 17.2.3zM383.2 111c26.2 6.8 54.3 22.8 73.1 41.5 6.7 6.6 14.3 16.2 13.5 17-2.2 2.2-23.3 8.1-35.8 10-1.4.3-3.6.7-4.9.9-12.9 2.8-66.6 2.8-83.4.1-2.3-.4-8.2-1.1-15.7-2-2.5-.3-5.6-.7-7-1-1.4-.3-4.1-.7-6-1-1.9-.4-3.8-.9-4.2-1.3-.4-.4.2-3.2 1.3-6.2 2.7-7.1 10.5-34.3 11.3-39.4.4-2.2.8-4.2 1.1-4.4.2-.2 0-1.5-.5-2.8-.9-2.2-.5-2.6 4-4.9 6.8-3.5 21.3-7.5 29-8.2 3.6-.3 6.6-.6 6.7-.7.5-.5 13.4 1.4 17.5 2.4zM246 114.5c5 4.3 15.1 5.6 22.5 3 5.6-2.1 7.8-1.9 13.8 1.2 4.1 2.1 6.6 2.6 12.2 2.7 6.6 0 16.1-1.1 17.7-2 .4-.2.9 0 1.3.6s1.1.8 1.6.4c2.3-1.4 4 1.9 3.5 6.7-1.5 14.1-15.4 53.7-22.4 63.8-8.1 11.6-12 11.9-17.1 1.1-3.8-8.2-6.4-11-10.1-11-3.6 0-6.4 2.2-10.5 8.4-2 3-4.2 5.7-5.1 6-.8.3-2.6-.6-4.2-2.2-11.3-11.2-16.3-42.5-11.6-73.7 1.1-7.5 3.7-9 8.4-5zm548.5 38.9c7.2 1.3 9.2 2 13 3.8 4.7 2.4 12 8.1 15.5 12.2 4.6 5.4 7.9 10.4 7.3 11-.4.3-.2.6.4.6 2.2 0 11 22.5 13.8 35.3.2 1 .6 2.6.9 3.5 1.1 3.5 3.7 20 4.4 27.2 1.6 18 .3 41.9-2.9 55.5-.5 2.2-1.2 5.1-1.5 6.5-2.9 13.7-16.4 43.2-24.6 53.5-.5.5-3.1 4-5.8 7.7-2.8 3.7-6 7.8-7.2 9-1.3 1.3-4.8 5.1-7.8 8.3-3.1 3.3-8.9 8.9-13 12.5-4.1 3.6-7.7 6.7-8 7-3.1 3.2-29.2 21-30.8 21-.6 0-1.2.4-1.4.8-.8 2-42.4 23.5-47.8 24.7-.3.1-2.3.9-4.4 1.8-2.1 1-5.8 2.4-8.2 3.2-2.4.8-5.2 1.9-6.1 2.5-2.4 1.3-29.4 10.2-42.3 13.9-12.3 3.5-27.1 7.1-39 9.6-4.7.9-10 2.2-11.8 2.7-1.9.6-4.6 1.1-6 1.3-1.5.1-4.8.5-7.4.9-3.5.6-5.4.3-8-1-1.8-1-3.5-1.8-3.8-1.9-1.4-.2-16.1-7.8-27.4-14.3-19.4-11-42.6-27.1-53.3-36.9l-4.2-3.8 7.5-10c4.1-5.4 8.2-10.9 9.2-12 .9-1.1 3.7-4.7 6.2-8s5-6.5 5.5-7.1c.6-.6 2.6-3.1 4.5-5.7 2.7-3.6 4-4.5 5.5-4 1.1.3 3.1.7 4.5.9 1.4.1 4.3.5 6.4.9 9.6 1.7 30.4.6 37.7-2 2.1-.8 3.9-1.2 3.9-1 0 .7 12.2-4.4 16.9-7.1 4.7-2.7 12-8.3 15.6-11.9 1.1-1.1 4.3-4 7-6.5 2.8-2.4 5.6-5.3 6.4-6.3 1.2-1.7 1.2-1.9-.5-1.3-1.1.3-3.4.8-5.1 1.1-3.4.5-4.7.7-17.3 2.9-7.1 1.3-23.1 1.4-27.5.3-7.3-1.8-10.7-2.9-10.3-3.2.2-.2 3-.6 6.3-.9 10.9-.9 14.4-1.6 22.3-4.1 10.4-3.3 19.4-9.1 25.8-16.7 1.9-2.3 16.8-24.1 18.9-27.7.8-1.4-3.6.9-9.7 5.1-1.4 1-2.9 1.8-3.2 1.8-.3 0-3.1 1.6-6.2 3.6s-7.1 4.2-8.8 4.9c-2.9 1.2-11.1 2.8-14.1 2.8-2.7-.1-15-1.4-15.2-1.7-.2-.2 2.5-1.1 5.9-2.1 7.5-2.1 18.9-7.5 23.8-11.3 11.3-8.7 19.2-19.1 26.1-33.9 2.3-4.8 4.4-9.2 4.7-9.7.3-.5.1-.6-.5-.3-.5.3-2 .8-3.4 1.1-1.3.2-3.6.7-5.1 1.1-1.6.4-2.8.5-2.8.2 0-1.8 39.9-39.8 53-50.5 2.5-2 5.2-4.4 6-5.2 4.7-4.9 42.8-32.3 46.9-33.8.9-.3 1.8-.9 2.1-1.2.6-.9 20.2-10.3 27-13 8.4-3.3 19-6 26-6.7 3.6-.3 6.6-.6 6.7-.7.4-.3 5.5.2 8.8.8zm-559.9 44.1c-5 6.9-15.6 26.9-15.6 29.5 0 .5-1.3 1-2.9 1-3.8 0-8.6 4.1-10.1 8.6-1.4 4.1-.8 12 1.2 17.9 1.3 3.9 1.3 4.1-1.8 8.1-4.1 5.5-9 17.4-10.9 26.6-2.5 11.6-1.8 26.4 2.1 42 .2 1 .6 2.6.8 3.5 1.1 4.4 6.9 19.1 9.9 25.1 5.7 11.5 13.8 23.2 21.5 31 1.2 1.3 2.2 2.4 2.2 2.6 0 1.4-22.7 13.3-26.8 14.1-.9.2-1.7.4-1.7.5 0 .8-6.9 1.4-15.5 1.4-12.4 0-20.7-2.2-33.8-8.9l-8.2-4.3 5.7.1c8 .1 15.7-3.5 22.8-10.8 3-3.1 5.5-6.3 5.5-7 0-.7.8-2.3 1.8-3.6 2.2-2.8 4.2-10.2 4.2-15.4 0-3.2-.3-3.6-1.7-3-5.9 2.5-17.9 4.6-26.3 4.7-7.3.1-11.3-.4-17.4-2.2l-7.8-2.4 9.3-2.1c16.1-3.6 27.3-10.2 34.5-20.4 4.7-6.7 6.4-10.9 7-18 .5-5.2.5-5.3-1.8-4.8-1.3.3-5.2 1.7-8.8 3.2-5.1 2.2-8 2.7-13.7 2.7-4 0-7.7-.4-8.3-.7-.6-.4-2.3-.9-3.7-1.1-3.6-.7-4-1.2-1.7-1.9 6.8-2.2 18.8-8.9 23.7-13.4 6.1-5.5 11.2-17.5 12.3-28.7.3-3.5.2-6.4-.3-6.4-.4 0-2.4 1.5-4.3 3.3-7.7 7.2-17 8.5-26.7 3.7-6.4-3.2-10.8-6.9-6.2-5.2 5.8 2.2 21.1-3.9 33.4-13.2 9.5-7.2 27.5-27.2 27.5-30.5 0-.5.4-1.1.8-1.3.4-.2 4.3-5.9 8.7-12.7 4.3-6.8 9.4-13.5 11.2-15 3.7-3 13.4-6.3 14.7-5.1.5.5-1.6 4.3-4.8 8.5zm39.5 0c2.2 6 6.9 10.5 11 10.4 1.9 0 4.3-.4 5.3-.8 1.5-.6 2.8 0 5 2.2 5.1 4.9 20.2 17.3 26.6 21.8 3.3 2.4 6 4.6 6 4.9 0 .4-1.5 2-3.2 3.7-4.2 3.9-20.3 20.6-21.2 22.1-.5.8 6.2 1 23.6.9 26.8-.2 25.8 0 27.6-6.8.8-3 1.2-3.4 3.8-3.1 1.6.2 3.1.7 3.4 1.1.4.6 13.7 6.3 25.6 11 2.9 1.1 9.5 8.4 18.4 20.1 1.9 2.5 4.1 5.3 4.8 6.1.7.7 3.3 4.1 5.7 7.4 2.5 3.3 4.8 6.4 5.3 7 .4.5 2.1 2.8 3.7 5 1.7 2.2 3.3 4.1 3.8 4.3.4.2.7.7.7 1.2 0 1.2 14.3 21.9 18 26.1 1.7 1.9 5.3 5.7 8.1 8.5l5 5.2-5 8.5c-2.8 4.7-5.6 9.1-6.3 9.9-.7.7-2.6 3.1-4.2 5.3-4.6 6.3-18.6 19.4-23 21.5-.6.3-2.9 1.7-5.1 3-2.2 1.4-6.2 3.3-9 4.3-13.9 5.1-16.2 5.9-18 6.3-1.1.2-4.2.8-7 1.4-8.2 1.7-9.8 2-14.5 2.6-2.5.3-5.6.7-7 1-1.4.2-4.7.6-7.5.9-8.7 1-11.8 1.5-17.2 2.9-2.9.8-5.3 1.1-5.3.6 0-.4 1.4-1 3-1.4 6-1.1 2.8-2.1-7.3-2.2-23.3-.1-34.8-2.7-56.5-12.5-10.5-4.8-26.5-16.3-34.7-24.8-14.1-14.7-26-37-30.5-57.1-.7-3-1.6-6.6-2-8-.8-2.9-.6-19.5.3-25.5 1.3-8.4 8-22.7 12.9-27.2 2.2-2 3-2.1 17.8-1.7 8.5.2 17.4.6 19.8.8 2.3.2 4.2 0 4.2-.4 0-1.8-18.9-22-25.1-26.7-4.6-3.5-6.1-6.4-4-7.7.5-.3 1.2-1.8 1.6-3.3 1.6-6.7 12.5-25.3 14.8-25.3.7 0 1.7.4 2.3.9 1.6 1.7 6.8 1.9 9.6.5 1.5-.8 4-3.5 5.5-6.2 1.5-2.6 3.4-5.5 4.2-6.4 1.4-1.6 1.6-1.5 3.1 1 1 1.6 2.3 4.5 3.1 6.7zm215.7-1.8c1.6 2.1 5.5 7.8 8.7 12.7 8 12.3 18.3 22.5 28.4 27.9 4 2.2 19.1 7.9 19.1 7.2 0-.2 1-.1 2.3.4 1.2.5 4.9 1.2 8.2 1.6 3.3.4 6.9.9 8 1 1.1.2 3.9.4 6.3.4 2.4.1 4.1.5 3.8.9-.6 1.1-15.6 8.4-22.2 11-2.7 1-5.8 2.2-6.9 2.7-7.9 3.2-21.5 3.9-39 2l-5-.5 2.5 2c5.6 4.6 19.6 9.8 35.7 13.4 15.7 3.5 23.5 4.2 46.1 4 18.3-.1 20.1 0 19 1.4-10.4 12.9-24.1 22.4-35.4 24.7-1.6.3-4 .9-5.4 1.2-1.4.3-6.8.5-12 .5-8.8 0-10.7-.4-24.5-5.1-8.2-2.8-15.4-5.1-15.9-5.1s.6 1.3 2.5 2.9c1.9 1.6 7.2 6.1 11.9 10.1 4.7 3.9 11.4 8.6 15 10.4 7.2 3.6 16.8 7.6 19.6 8.1 1.1.2 2 .4 2.2.5.7.7 11.5 2.4 12.9 2.2 2.5-.5 2.1 1.6-.5 2.3-1.5.4-3.6.9-4.7 1.2-3.8 1-22 1.2-26 .3-2.2-.4-5.6-1.1-7.5-1.3-1.9-.3-4.4-.8-5.5-1-5.3-1.2-10.5-1.8-10.5-1.2 0 1 6.2 8.7 11 13.6 2.5 2.5 7.2 6.3 10.5 8.5 6.1 4 22.7 12.4 24.6 12.4 2.8 0-.7 2-5.4 3-10.1 2.2-16.8 2.6-31.2 2-13.5-.6-34.5-9.3-52-21.5-4.9-3.5-10.4-7.8-12-9.7-5.1-5.5-13.9-16.9-18.5-23.8-3.8-5.7-16.5-22.8-21.1-28.5-4.6-5.6-27.2-34.1-27.7-35.1-.4-.6-4.3-2.3-8.7-3.9-10.4-3.6-22.6-9.1-36.5-16.6-7.3-4-30.1-19.2-33.8-22.7-.8-.7-3-2.5-5-4s-4.8-3.8-6.1-5.1l-2.4-2.3 2.9.6c1.6.3 4.6.9 6.8 1.2 2.1.3 4.6.7 5.5.9.9.1 4.1.6 7.1 1s6.4.9 7.5 1.1c1.1.2 5.4.7 9.5 1 4.1.3 7.8.8 8.2 1.1 1.5.8 19.5 1.6 36.8 1.6 19.5-.1 29.7-.7 43-2.8 1.4-.2 4.5-.6 7-1s7.2-1.4 10.5-2.2c3.3-.8 6.9-1.7 7.9-1.9 3.6-.7 20.1-6.5 22.6-7.9 3.7-2.1 4.5-1.9 7.8 2.2zm-260 46.7c1.9.3 18.2 15.4 18.2 17 0 .3-2 .5-4.4.4-4.3-.1-4.4-.2-5-3.9-1-6-6.5-7.6-6.2-1.9.1 2-.4 2.5-2.1 2.4-1.2 0-2.2.2-2.1.5.3 3.3-.3 3.7-5.9 3.5-3.2-.1-6.1-.2-6.5-.3-.4 0-1.2-2.5-1.9-5.5-1.5-6.7 0-12 3.9-14 2.3-1.2 3.2-1.2 6.2.1 1.9.8 4.5 1.6 5.8 1.7zm107.3.5c1.3 1 4 2.6 6.1 3.5 4.2 2 4.8 3.7 3.4 8.6-1.6 5.3-4.4 4.8-4.8-.9-.2-3.3-2.8-6.1-5.6-6.1-.9 0-1.1.7-.7 2 .8 2.5-1.1 5.1-3.1 4.3-1-.4-1.4.2-1.4 2.1 0 1.4-.6 2.6-1.2 2.6-.7.1-4.8.2-9.1.4l-7.9.4 4.4-4.6c8.5-9.1 14.4-14.2 16.4-14.2.6 0 2.2.8 3.5 1.9zm156 134.2c3.2 1.6 5.9 3.2 5.9 3.4 0 .4-9.5 12.5-14.8 19-.9 1.1-3 3.8-4.7 6-1.6 2.2-3.3 4.1-3.7 4.3-.4.2-.8 1-.8 1.7 0 .8-.6 1.8-1.2 2.2-1.8 1.1-5.8 7-5.8 8.5 0 .9-.4.8-1.5-.3-1.3-1.3-1.1-2.7 1.5-12.4 1.6-6.1 3.1-12.1 3.4-13.5.3-1.4.7-3.4 1-4.5.3-1.1 1.7-6.6 3.2-12.3l2.7-10.2 4.4 2.6c2.5 1.4 7.2 3.9 10.4 5.5zm-31.2 3.1c-.6 1.8-1.3 4-1.6 4.8-.3.8-.7 2.4-.8 3.5-.2 1.2-1 4.3-1.9 7-.8 2.8-2.1 7.2-2.8 10l-1.4 5-1.9-2.3c-1.1-1.3-3.4-4-5.2-5.9l-3.1-3.5 5.4-5.6c3-3.2 7.1-8 9.2-10.9 4.3-6 5.5-6.6 4.1-2.1zm-4.3 59.5c4.8 4 13.9 11.9 15.6 13.5 1 1 2 1.8 2.3 1.8.3 0 4.2 2.9 8.7 6.4 16.3 12.5 42.2 28.7 62.3 38.8 17.7 9 47.5 21.4 62 25.8 2.2.7 4.6 1.7 5.3 2.3.6.5 1.2.7 1.2.4 0-.3 2.6.3 5.8 1.4 4.6 1.6 31.3 8.9 38 10.4 16.1 3.6 35.3 7.3 42.7 8.1 2.8.3 5.2.7 5.5.9.3.2 3.3.7 6.5 1 3.3.4 6.9.9 8 1.1 1.1.2 4.7.7 8 1 3.3.3 6.4.9 6.9 1.1.8.5.1 35.1-.8 42.1-.3 1.7-.7 5.6-1 8.5-.3 2.8-.8 6.3-1.1 7.7-.3 1.4-.8 4.1-1.1 6-4.5 30.6-19.2 69.5-35.2 93.5-14.8 22-34.4 42-53.2 54.1-2.5 1.6-4.7 3.1-5 3.5-.3.3-4 2.5-8.3 4.8-9 4.9-8.9 4.9-27.6.2-13.4-3.5-29.1-8.5-40.6-13.1-10-3.9-29.9-12.8-34.5-15.3-1.9-1.1-6.2-3.4-9.5-5.2-11.1-6-33.3-19.8-37.9-23.6-.6-.5-4.7-3.7-9.1-7.2-18.1-14-37.8-32.6-50.2-47.2-2.3-2.8-5.3-6.4-6.7-8-2.6-3-3.5-6.5-1.6-6.5.6 0 1-.6 1-1.4 0-.8.4-1.6.8-1.8 1.1-.4 9.3-14 12.7-20.9 5.5-11.3 10.1-23.8 13.5-36.9 1.2-4.5 1.4-5.2 2.4-12.5.4-2.2.8-4.7 1.1-5.5 1.7-5.9 2.3-33.1 1.2-48.5-1-12.5-5.1-34.6-9.3-49.2-1.9-6.7-5.2-9.6-9.5-8.1-4.2 1.5-5.4 5-3.5 10.7.8 2.6 2 6.6 2.6 9.1 1.2 4.3 1.5 5.7 2.6 11 .3 1.4.7 3.2.9 4 .2.8.4 1.5.5 1.5.1 0 .3 1.6.6 3.5.2 1.9.6 4.8.9 6.5 2.5 16 2.6 47.3.1 59.5-.1.8-.7 3.7-1.1 6.5-1 5.6-1.2 6.4-1.4 6.7-.2.3-3.5 12-4.5 16.1-.3.9-.8 2.3-1.3 3-.4.6-.8 1.6-.9 2.2-.4 2.2-6.9 15.4-11.4 22.9-7.8 13.1-6.9 12.7-12.1 5.4-10.8-15.1-23.5-38.1-31.8-57.3-6.6-15.6-10.1-24.3-10.1-25.5 0-.4-.7-2.4-1.5-4.4-.8-2-1.5-3.8-1.6-4.1 0-.3-.7-2.4-1.5-4.7-1.7-4.9-7.1-24.1-7.8-28.1-.3-1.5-.7-3.5-1-4.5-.3-.9-.7-2.8-1-4.2-.6-2.8-1.2-6.1-2.2-10.5-.4-1.7-.8-3.9-1-5-.2-1.1-.6-3.6-.9-5.5-1.7-10.1-1.8-9.6 1.8-9.8 1.7-.1 6.1-1.2 9.7-2.3 7-2.3 30.5-12.2 35.6-15 1.8-1 6.1-3.2 9.5-5 3.5-1.8 6.6-3.5 6.9-3.8.3-.4 3.8-2.8 7.8-5.4 10.7-7 20.5-16.1 21.8-20.1.5-1.6 2.6.1 12.3 9.8 6.4 6.4 12.6 12.4 13.7 13.3zm-45-20.8c-.5.8-9 6.7-13.7 9.6-5.5 3.3-27.5 14.8-33.1 17.4-10.3 4.6-24.1 9.1-27.9 9.1-1.9 0-4.5-.6-5.8-1.3-2.2-1.1-6.2-7.3-6.9-10.7-.6-2.6-3.2-6-4.7-6.1-.8-.1-2.3-.2-3.2-.3-2.1-.1-4.6 4.5-5 9.3-.3 3.3-3 8.7-3.9 7.8-.3-.2 0-3.3.6-6.8s1.3-7.7 1.5-9.3c.7-4.9 1.8-5.4 10.3-4.8 4.2.3 12 .5 17.2.5 8.8-.1 12.8-.4 20.5-1.7 2.5-.4 9.9-1.4 15.5-2.1 1.4-.2 13.3-2.4 15.5-2.9 7.4-1.7 20.2-6.2 22-7.8 1.2-1.1 1.8-1 1.1.1zm-82 5.8c-.4.5-1.1.8-1.4.9-.8 0-5.8 1.5-13.7 3.9-2.7.9-4.5 1.1-4 .6 1.1-1 16-5.9 18.4-6 .8-.1 1.1.2.7.6zm-21.2 5.1c.3.5-.1.9-.9.9s-1.2-.4-.9-.9c.3-.4.7-.8.9-.8.2 0 .6.4.9.8zM900 637.6c8.9 4.4 17.5 16 19.6 26.4 1 5.1.8 13.4-.5 17.3-1.9 5.6-9.3 10.9-14.1 10.2-.8-.2-3.2-.5-5.2-.9-14-2.2-29.9-24.4-28.3-39.5.7-6.3 1.3-7.7 5.2-11.2 5.7-5.3 15.3-6.3 23.3-2.3zm-43.5 144c7.2 1.7 15.6 9.6 20.1 19.1 3.4 7.3 3.9 9.5 3.9 17.8 0 7.9-2.3 13.5-6.9 16.9-4 3-13.5 2.8-19.6-.3-9.9-5.2-20.7-20.4-22.8-32.1-2-11 3.3-19.5 13.7-22.2 1.8-.5 7.7-.1 11.6.8z"/><path d="M779 171.2c-7.4 1.8-9.6 2.6-18 6.6-10.1 4.8-34 19.5-34.8 21.4-.2.5-.8.8-1.4.8-.5 0-1.5.6-2.2 1.2-.8.7-3.9 3.1-7.1 5.3-3.1 2.2-7.1 5.2-8.8 6.7-1.8 1.5-3.5 2.8-3.8 2.8-.4 0-2.4 1.6-4.5 3.5-2.2 1.9-4.2 3.5-4.5 3.5-.4 0-2 1.2-3.6 2.7-1.7 1.6-5.2 4.6-7.8 6.8-7.6 6.4-14.2 12.4-22.9 20.9-9.1 8.8-8.8 9.4.7 1.2 1.2-1 4.2-3.5 6.7-5.5s4.7-3.8 5-4.1c1.2-1.3 36-27.9 40.5-31.1 2.8-1.8 5.2-3.7 5.5-4 .8-1 24-16.3 32-21.1 4.2-2.5 10.7-6 14.5-7.7 3.9-1.7 7.7-3.6 8.6-4 3-1.7 13.3-3.3 17.2-2.7 9.8 1.6 21.9 15.6 26.9 31.1 2.1 6.6 3.7 13.4 4.4 18.3.8 6.5 2.5 6.9 1.8.4-2.4-23.3-12.3-43.3-24.9-50.7-4.7-2.8-13.3-3.8-19.5-2.3z"/><path d="M822.8 234.2c.5 7.1 1 7.7 1.1 1.5 0-3.1-.2-5.7-.7-5.7-.4 0-.6 1.9-.4 4.2zM276.5 256.8c-.5.4-1 2.3-.9 4.2 0 4.2-2.8 14.2-4.7 16.5-4.3 5.2-5.1 5.7-8.2 5.2-7.2-1-13.8 3.6-15.1 10.5-.4 2.6 2.3 13.9 4.5 17.9 2.1 4.1 6.7 9.5 10.5 12.4 3.2 2.5 19.4 9.9 20 9.2.2-.1-3.5-4-8.1-8.5-6.4-6.3-9.3-10.1-12.1-15.6-4.2-8.6-5.5-15.2-3.1-16.2 3.5-1.3 21.1-.3 27.8 1.6 1.6.5 2.9.7 2.9.5 0-.3-5.6-3.8-12.7-8-.1 0 1-2.5 2.5-5.5 2.4-4.8 2.7-6.6 2.6-14.3-.1-6.5-.5-9.1-1.5-9.8-1.7-1.1-3.1-1.1-4.4-.1zM357 338.8c0 .4.7 1.6 1.5 2.6s1.2 2.3.9 2.7c-.3.5 0 .9.7.9s.9.3.6.6c-.3.4-.2 1.5.4 2.5.7 1.5.6 1.9-.6 1.9-.8 0-1.5.4-1.5 1 0 .5-.8 1-1.7 1-.9 0-3.5.8-5.7 1.8-4.9 2.2-9.1 3.7-17.1 6.2-24.6 7.7-27.6 8.3-42 8.3-9 0-14.9-.6-21.5-2.3-1.9-.5-4.4-1.1-5.5-1.3-1.1-.2-2.7-.7-3.5-1-.8-.3-3.2-1.1-5.4-1.7-2.1-.7-6.3-2.5-9.4-4.1-7.2-3.8-7.8-3-1 1.3 10.1 6.4 24.6 11.9 36.7 13.9 8.8 1.5 22 1.9 27.3.8 10.9-2.1 18.1-4 19.6-5.2.6-.5 1.2-.7 1.2-.4 0 .3 1.7-.1 3.8-1 2-.8 3.8-1.5 4-1.4 1.3.7 20.3-10.7 21.8-13 .8-1.4 2.4-1.1 2.4.6 0 .8.5 1.5 1.1 1.5.5 0 .8.3.6.8-.3.4.3 2.3 1.4 4.2l1.8 3.5.1-4.6c0-5.8-1.5-10.2-5.3-15.6-2.7-3.8-5.7-6.3-5.7-4.5zM339 421c0 .5.5 1 1.1 1 .5 0 .7-.5.4-1-.3-.6-.8-1-1.1-1-.2 0-.4.4-.4 1zM359.2 508.3c-1.7 2-.6 18 1.8 27.4 2.5 10.2 6.9 22.6 11.1 31.8l3.2 7 1.7-5c2.2-6.5 6.4-10.8 10-10.3l2.6.4-3.3-8c-8.9-21.1-19-40-23.1-43.4-2-1.5-2.7-1.5-4 .1z"/></svg>