<svg width="32" height="32" fill="none" xmlns="http://www.w3.org/2000/svg"><path fill-rule="evenodd" clip-rule="evenodd" d="M21.516 20.744l-.243-.643-.037-.1h4.097c2.493 0 4-1.758 4-4 0-7.926-1.66-13.334-5.333-13.334h-9.335a8.936 8.936 0 00-3.114.509 6.452 6.452 0 00-1.347.656A2.664 2.664 0 008 2.667H5.333a2.667 2.667 0 00-2.666 2.666v12A2.667 2.667 0 005.333 20H8c.264 0 .52-.038.761-.11.93 1.353 3.28 4.039 5.168 6.197 1.024 1.17 1.912 2.185 2.365 2.748l.4.498h.65c.809 0 1.512-.061 2.32-.296 1.792-.522 3.003-1.74 3.003-3.704 0-.693-.123-1.432-.35-2.253a20.968 20.968 0 00-.588-1.772l-.212-.561v-.001l-.001-.002zm-10.85-3.41V8c0-1.203.603-1.891 1.783-2.313a6.42 6.42 0 012.172-.354H24c1.354 0 2.667 4.28 2.667 10.667 0 .854-.412 1.333-1.334 1.333H20c-1.593 0-1.926 1.232-1.594 2.565.078.314.193.66.366 1.128l.259.686.2.527c.228.614.39 1.095.516 1.55.168.608.253 1.122.253 1.544 0 .602-.317.921-1.081 1.143a4.67 4.67 0 01-.972.17 214.03 214.03 0 00-2.74-3.164c-2.005-2.286-4.118-4.698-4.351-5.242a2.215 2.215 0 01-.19-.907zm-5.333 0v-12H8v12H5.333z" fill="#F44336"/></svg>