<svg width="32" height="32" fill="none" xmlns="http://www.w3.org/2000/svg"><path fill-rule="evenodd" clip-rule="evenodd" d="M29.333 15.999c0-2.243-1.507-4-4-4h-4.097l.037-.101.243-.643v-.001l.213-.563c.254-.68.439-1.229.589-1.772.226-.82.349-1.56.349-2.253 0-1.963-1.211-3.182-3.003-3.704-.808-.235-1.51-.297-2.33-.296h-.64l-.4.498c-.453.563-1.34 1.578-2.365 2.748-1.889 2.159-4.24 4.845-5.169 6.198A2.67 2.67 0 008 12H5.333a2.667 2.667 0 00-2.666 2.667v12a2.667 2.667 0 002.666 2.666H8c.916 0 1.724-.462 2.204-1.165.405.261.856.48 1.347.655a8.989 8.989 0 003.162.508l9.287.001c3.674 0 5.333-5.408 5.333-13.333zM12.45 26.312c-1.18-.422-1.782-1.11-1.782-2.313v-9.334c0-.32.059-.603.189-.906.233-.544 2.347-2.956 4.35-5.242a206.696 206.696 0 002.74-3.165c.336.026.652.077.973.17.764.223 1.081.542 1.081 1.144 0 .422-.085.936-.253 1.544a18.55 18.55 0 01-.516 1.55l-.2.526v.001l-.26.686a11.1 11.1 0 00-.365 1.128c-.332 1.333.001 2.564 1.594 2.564h5.333c.922 0 1.334.48 1.334 1.334 0 6.388-1.314 10.667-2.667 10.667h-9.384a6.413 6.413 0 01-2.168-.354zm-7.116.355v-12H8v12H5.333z" fill="#43A047"/></svg>